<svg xmlns="http://www.w3.org/2000/svg" width="375" height="468" viewBox="0 0 375 468" fill="none">
<g filter="url(#filter0_d_385_2019)">
<g filter="url(#filter1_df_385_2019)">
<path d="M96.7662 354.492C65.0668 280.69 110.636 237.433 168.316 212.659C221.31 189.897 279.116 197.511 302.864 265.175C323.178 323.052 254.328 406.716 236.415 427.138C233.852 430.06 230.012 431.342 226.218 430.497C202.717 425.261 117.695 403.219 96.7662 354.492Z" fill="url(#paint0_linear_385_2019)"/>
</g>
<g filter="url(#filter2_df_385_2019)">
<path d="M327.509 175.081C327.509 264.844 255.39 289.164 178.581 289.164C108.012 289.164 46.7016 255.85 52.6763 175.896C57.8915 106.107 180.456 49.6951 207.319 38.1446C210.618 36.7258 214.279 37.0698 217.288 39.0312C239.059 53.2232 327.509 114.603 327.509 175.081Z" fill="url(#paint1_linear_385_2019)"/>
</g>
<g filter="url(#filter3_dif_385_2019)">
<path d="M289.493 196.785C289.493 237.726 243.368 270.916 186.47 270.916C129.571 270.916 83.4463 237.726 83.4463 196.785C83.4463 155.843 129.571 122.654 186.47 122.654C243.368 122.654 289.493 155.843 289.493 196.785Z" fill="url(#paint2_linear_385_2019)"/>
</g>
<g filter="url(#filter4_f_385_2019)">
<path d="M127.609 198.758C136.963 198.758 144.545 203.981 144.545 210.425C144.545 216.868 136.963 222.092 127.609 222.092C118.256 222.092 110.673 216.868 110.673 210.425C110.673 203.981 118.256 198.758 127.609 198.758Z" fill="url(#paint3_linear_385_2019)"/>
</g>
<g filter="url(#filter5_f_385_2019)">
<path d="M230.731 198.758C221.378 198.758 213.795 203.981 213.795 210.425C213.795 216.868 221.378 222.092 230.731 222.092C240.085 222.092 247.667 216.868 247.667 210.425C247.667 203.981 240.085 198.758 230.731 198.758Z" fill="url(#paint4_linear_385_2019)"/>
</g>
<g filter="url(#filter6_f_385_2019)">
<path d="M157.341 188.22C157.341 196.95 151.275 204.027 143.793 204.027C136.31 204.027 130.244 196.95 130.244 188.22C130.244 179.49 136.31 172.412 143.793 172.412C151.275 172.412 157.341 179.49 157.341 188.22Z" fill="#5379C2"/>
</g>
<g filter="url(#filter7_f_385_2019)">
<path d="M149.814 195.687C149.814 199.118 145.476 199.51 143.792 199.51C142.109 199.51 137.771 199.118 137.771 195.687C137.771 193.69 140.467 196.643 143.792 196.643C147.118 196.643 149.814 193.69 149.814 195.687Z" fill="#C4E4C9"/>
</g>
<g filter="url(#filter8_f_385_2019)">
<path d="M149.814 182.198C149.814 185.523 147.455 188.219 144.545 188.219C141.635 188.219 139.276 185.523 139.276 182.198C139.276 178.872 141.635 176.176 144.545 176.176C147.455 176.176 149.814 178.872 149.814 182.198Z" fill="#F6F6F6"/>
</g>
<g filter="url(#filter9_f_385_2019)">
<path d="M228.85 188.22C228.85 196.95 222.783 204.027 215.301 204.027C207.818 204.027 201.752 196.95 201.752 188.22C201.752 179.49 207.818 172.412 215.301 172.412C222.783 172.412 228.85 179.49 228.85 188.22Z" fill="#5379C2"/>
</g>
<g filter="url(#filter10_f_385_2019)">
<path d="M221.322 195.687C221.322 199.118 216.984 199.51 215.301 199.51C213.617 199.51 209.279 199.118 209.279 195.687C209.279 193.69 211.975 196.643 215.301 196.643C218.626 196.643 221.322 193.69 221.322 195.687Z" fill="#C4E4C9"/>
</g>
<g filter="url(#filter11_f_385_2019)">
<path d="M220.562 182.198C220.562 185.523 218.203 188.219 215.293 188.219C212.383 188.219 210.024 185.523 210.024 182.198C210.024 178.872 212.383 176.176 215.293 176.176C218.203 176.176 220.562 178.872 220.562 182.198Z" fill="#F6F6F6"/>
</g>
<g filter="url(#filter12_df_385_2019)">
<path d="M272.362 252.558C289.043 241.8 316.013 253.929 332.601 279.649C349.189 305.368 349.113 334.94 332.432 345.698C315.751 356.457 288.781 344.328 272.193 318.608C255.605 292.888 255.681 263.316 272.362 252.558Z" fill="url(#paint5_linear_385_2019)"/>
</g>
<g filter="url(#filter13_f_385_2019)">
<path fill-rule="evenodd" clip-rule="evenodd" d="M144.18 165.318C145.229 165.318 146.08 166.075 146.08 167.008L146.08 173.766C146.08 174.7 145.229 175.456 144.18 175.456C143.13 175.456 142.279 174.7 142.279 173.766L142.279 167.008C142.279 166.075 143.13 165.318 144.18 165.318Z" fill="#547AC3"/>
</g>
<g filter="url(#filter14_f_385_2019)">
<path fill-rule="evenodd" clip-rule="evenodd" d="M215.143 165.318C216.192 165.318 217.043 166.075 217.043 167.008L217.043 173.766C217.043 174.7 216.192 175.456 215.143 175.456C214.093 175.456 213.242 174.7 213.242 173.766L213.242 167.008C213.242 166.075 214.093 165.318 215.143 165.318Z" fill="#547AC3"/>
</g>
<g filter="url(#filter15_df_385_2019)">
<path d="M153.027 246.283C165.045 262.081 155.041 289.909 130.683 308.439C106.325 326.969 76.8368 329.184 64.8188 313.386C52.8008 297.588 62.8043 269.76 87.1623 251.23C111.52 232.7 141.009 230.485 153.027 246.283Z" fill="url(#paint6_linear_385_2019)"/>
</g>
</g>
<g filter="url(#filter16_f_385_2019)">
<path d="M167.358 207.778C167.358 207.171 167.851 206.678 168.458 206.678H190.458C191.066 206.678 191.558 207.171 191.558 207.778V220.978C191.558 227.054 186.633 231.978 180.558 231.978H178.358C172.283 231.978 167.358 227.054 167.358 220.978V207.778Z" fill="#567CC5"/>
</g>
<g filter="url(#filter17_f_385_2019)">
<path d="M172.858 209.868C172.858 209.322 173.301 208.878 173.848 208.878H185.068C185.615 208.878 186.058 209.322 186.058 209.868C186.058 211.509 184.728 212.838 183.088 212.838H175.828C174.188 212.838 172.858 211.509 172.858 209.868Z" fill="#F6F6F6"/>
</g>
<g filter="url(#filter18_d_385_2019)">
<path fill-rule="evenodd" clip-rule="evenodd" d="M55.6469 35.6971C57.5405 34.1742 60.3102 34.4747 61.8331 36.3684L86.2644 66.7471C87.7874 68.6408 87.4868 71.4105 85.5932 72.9334C83.6995 74.4563 80.9299 74.1557 79.407 72.2621L54.9756 41.8833C53.4527 39.9897 53.7532 37.22 55.6469 35.6971Z" fill="#FFC735"/>
<path fill-rule="evenodd" clip-rule="evenodd" d="M24.1438 82.2951C24.8652 79.9746 27.3312 78.6783 29.6517 79.3997L66.8782 90.9734C69.1987 91.6948 70.495 94.1608 69.7735 96.4813C69.0521 98.8018 66.5861 100.098 64.2656 99.3766L27.0391 87.803C24.7186 87.0815 23.4224 84.6156 24.1438 82.2951Z" fill="#FFC735"/>
<path fill-rule="evenodd" clip-rule="evenodd" d="M110.952 19.5816C108.525 19.7116 106.664 21.784 106.794 24.2106L108.878 63.1389C109.008 65.5655 111.081 67.4273 113.507 67.2973C115.934 67.1674 117.796 65.0949 117.666 62.6683L115.581 23.74C115.451 21.3134 113.379 19.4516 110.952 19.5816Z" fill="#FFC735"/>
</g>
<defs>
<filter id="filter0_d_385_2019" x="28.5132" y="21.4384" width="345.519" height="446.274" filterUnits="userSpaceOnUse" color-interpolation-filters="sRGB">
<feFlood flood-opacity="0" result="BackgroundImageFix"/>
<feColorMatrix in="SourceAlpha" type="matrix" values="0 0 0 0 0 0 0 0 0 0 0 0 0 0 0 0 0 0 127 0" result="hardAlpha"/>
<feOffset dx="2.64" dy="10.56"/>
<feGaussianBlur stdDeviation="13.2"/>
<feComposite in2="hardAlpha" operator="out"/>
<feColorMatrix type="matrix" values="0 0 0 0 0 0 0 0 0 0 0 0 0 0 0 0 0 0 0.2 0"/>
<feBlend mode="normal" in2="BackgroundImageFix" result="effect1_dropShadow_385_2019"/>
<feBlend mode="normal" in="SourceGraphic" in2="effect1_dropShadow_385_2019" result="shape"/>
</filter>
<filter id="filter1_df_385_2019" x="78.7584" y="196.548" width="235.421" height="244.85" filterUnits="userSpaceOnUse" color-interpolation-filters="sRGB">
<feFlood flood-opacity="0" result="BackgroundImageFix"/>
<feColorMatrix in="SourceAlpha" type="matrix" values="0 0 0 0 0 0 0 0 0 0 0 0 0 0 0 0 0 0 127 0" result="hardAlpha"/>
<feOffset dy="3.04128"/>
<feGaussianBlur stdDeviation="3.8016"/>
<feComposite in2="hardAlpha" operator="out"/>
<feColorMatrix type="matrix" values="0 0 0 0 0 0 0 0 0 0 0 0 0 0 0 0 0 0 0.25 0"/>
<feBlend mode="normal" in2="BackgroundImageFix" result="effect1_dropShadow_385_2019"/>
<feBlend mode="normal" in="SourceGraphic" in2="effect1_dropShadow_385_2019" result="shape"/>
<feGaussianBlur stdDeviation="1.52064" result="effect2_foregroundBlur_385_2019"/>
</filter>
<filter id="filter2_df_385_2019" x="49.2319" y="34.2372" width="281.445" height="259.995" filterUnits="userSpaceOnUse" color-interpolation-filters="sRGB">
<feFlood flood-opacity="0" result="BackgroundImageFix"/>
<feColorMatrix in="SourceAlpha" type="matrix" values="0 0 0 0 0 0 0 0 0 0 0 0 0 0 0 0 0 0 127 0" result="hardAlpha"/>
<feOffset dx="0.6336" dy="2.5344"/>
<feGaussianBlur stdDeviation="1.2672"/>
<feComposite in2="hardAlpha" operator="out"/>
<feColorMatrix type="matrix" values="0 0 0 0 0 0 0 0 0 0 0 0 0 0 0 0 0 0 0.25 0"/>
<feBlend mode="normal" in2="BackgroundImageFix" result="effect1_dropShadow_385_2019"/>
<feBlend mode="normal" in="SourceGraphic" in2="effect1_dropShadow_385_2019" result="shape"/>
<feGaussianBlur stdDeviation="1.52064" result="effect2_foregroundBlur_385_2019"/>
</filter>
<filter id="filter3_dif_385_2019" x="75.8431" y="118.092" width="221.253" height="163.469" filterUnits="userSpaceOnUse" color-interpolation-filters="sRGB">
<feFlood flood-opacity="0" result="BackgroundImageFix"/>
<feColorMatrix in="SourceAlpha" type="matrix" values="0 0 0 0 0 0 0 0 0 0 0 0 0 0 0 0 0 0 127 0" result="hardAlpha"/>
<feOffset dy="3.04128"/>
<feGaussianBlur stdDeviation="3.8016"/>
<feComposite in2="hardAlpha" operator="out"/>
<feColorMatrix type="matrix" values="0 0 0 0 0 0 0 0 0 0 0 0 0 0 0 0 0 0 0.1 0"/>
<feBlend mode="normal" in2="BackgroundImageFix" result="effect1_dropShadow_385_2019"/>
<feBlend mode="normal" in="SourceGraphic" in2="effect1_dropShadow_385_2019" result="shape"/>
<feColorMatrix in="SourceAlpha" type="matrix" values="0 0 0 0 0 0 0 0 0 0 0 0 0 0 0 0 0 0 127 0" result="hardAlpha"/>
<feOffset dy="3.04128"/>
<feGaussianBlur stdDeviation="11.4048"/>
<feComposite in2="hardAlpha" operator="arithmetic" k2="-1" k3="1"/>
<feColorMatrix type="matrix" values="0 0 0 0 0 0 0 0 0 0 0 0 0 0 0 0 0 0 0.2 0"/>
<feBlend mode="normal" in2="shape" result="effect2_innerShadow_385_2019"/>
<feGaussianBlur stdDeviation="0.38016" result="effect3_foregroundBlur_385_2019"/>
</filter>
<filter id="filter4_f_385_2019" x="106.91" y="194.994" width="41.3995" height="30.8614" filterUnits="userSpaceOnUse" color-interpolation-filters="sRGB">
<feFlood flood-opacity="0" result="BackgroundImageFix"/>
<feBlend mode="normal" in="SourceGraphic" in2="BackgroundImageFix" result="shape"/>
<feGaussianBlur stdDeviation="1.88179" result="effect1_foregroundBlur_385_2019"/>
</filter>
<filter id="filter5_f_385_2019" x="210.032" y="194.994" width="41.3995" height="30.8614" filterUnits="userSpaceOnUse" color-interpolation-filters="sRGB">
<feFlood flood-opacity="0" result="BackgroundImageFix"/>
<feBlend mode="normal" in="SourceGraphic" in2="BackgroundImageFix" result="shape"/>
<feGaussianBlur stdDeviation="1.88179" result="effect1_foregroundBlur_385_2019"/>
</filter>
<filter id="filter6_f_385_2019" x="128.738" y="170.907" width="30.1088" height="34.625" filterUnits="userSpaceOnUse" color-interpolation-filters="sRGB">
<feFlood flood-opacity="0" result="BackgroundImageFix"/>
<feBlend mode="normal" in="SourceGraphic" in2="BackgroundImageFix" result="shape"/>
<feGaussianBlur stdDeviation="0.752717" result="effect1_foregroundBlur_385_2019"/>
</filter>
<filter id="filter7_f_385_2019" x="135.513" y="192.736" width="16.5598" height="9.03266" filterUnits="userSpaceOnUse" color-interpolation-filters="sRGB">
<feFlood flood-opacity="0" result="BackgroundImageFix"/>
<feBlend mode="normal" in="SourceGraphic" in2="BackgroundImageFix" result="shape"/>
<feGaussianBlur stdDeviation="1.12908" result="effect1_foregroundBlur_385_2019"/>
</filter>
<filter id="filter8_f_385_2019" x="138.523" y="175.423" width="12.0435" height="13.5489" filterUnits="userSpaceOnUse" color-interpolation-filters="sRGB">
<feFlood flood-opacity="0" result="BackgroundImageFix"/>
<feBlend mode="normal" in="SourceGraphic" in2="BackgroundImageFix" result="shape"/>
<feGaussianBlur stdDeviation="0.376358" result="effect1_foregroundBlur_385_2019"/>
</filter>
<filter id="filter9_f_385_2019" x="200.246" y="170.907" width="30.1088" height="34.625" filterUnits="userSpaceOnUse" color-interpolation-filters="sRGB">
<feFlood flood-opacity="0" result="BackgroundImageFix"/>
<feBlend mode="normal" in="SourceGraphic" in2="BackgroundImageFix" result="shape"/>
<feGaussianBlur stdDeviation="0.752717" result="effect1_foregroundBlur_385_2019"/>
</filter>
<filter id="filter10_f_385_2019" x="207.021" y="192.736" width="16.5598" height="9.03266" filterUnits="userSpaceOnUse" color-interpolation-filters="sRGB">
<feFlood flood-opacity="0" result="BackgroundImageFix"/>
<feBlend mode="normal" in="SourceGraphic" in2="BackgroundImageFix" result="shape"/>
<feGaussianBlur stdDeviation="1.12908" result="effect1_foregroundBlur_385_2019"/>
</filter>
<filter id="filter11_f_385_2019" x="209.271" y="175.423" width="12.0435" height="13.5489" filterUnits="userSpaceOnUse" color-interpolation-filters="sRGB">
<feFlood flood-opacity="0" result="BackgroundImageFix"/>
<feBlend mode="normal" in="SourceGraphic" in2="BackgroundImageFix" result="shape"/>
<feGaussianBlur stdDeviation="0.376358" result="effect1_foregroundBlur_385_2019"/>
</filter>
<filter id="filter12_df_385_2019" x="252.198" y="244.073" width="100.397" height="116.192" filterUnits="userSpaceOnUse" color-interpolation-filters="sRGB">
<feFlood flood-opacity="0" result="BackgroundImageFix"/>
<feColorMatrix in="SourceAlpha" type="matrix" values="0 0 0 0 0 0 0 0 0 0 0 0 0 0 0 0 0 0 127 0" result="hardAlpha"/>
<feOffset dy="3.04128"/>
<feGaussianBlur stdDeviation="3.8016"/>
<feComposite in2="hardAlpha" operator="out"/>
<feColorMatrix type="matrix" values="0 0 0 0 0 0 0 0 0 0 0 0 0 0 0 0 0 0 0.2 0"/>
<feBlend mode="normal" in2="BackgroundImageFix" result="effect1_dropShadow_385_2019"/>
<feBlend mode="normal" in="SourceGraphic" in2="effect1_dropShadow_385_2019" result="shape"/>
<feGaussianBlur stdDeviation="0.9504" result="effect2_foregroundBlur_385_2019"/>
</filter>
<filter id="filter13_f_385_2019" x="140.959" y="163.998" width="6.44151" height="12.7776" filterUnits="userSpaceOnUse" color-interpolation-filters="sRGB">
<feFlood flood-opacity="0" result="BackgroundImageFix"/>
<feBlend mode="normal" in="SourceGraphic" in2="BackgroundImageFix" result="shape"/>
<feGaussianBlur stdDeviation="0.66" result="effect1_foregroundBlur_385_2019"/>
</filter>
<filter id="filter14_f_385_2019" x="211.922" y="163.998" width="6.44151" height="12.7776" filterUnits="userSpaceOnUse" color-interpolation-filters="sRGB">
<feFlood flood-opacity="0" result="BackgroundImageFix"/>
<feBlend mode="normal" in="SourceGraphic" in2="BackgroundImageFix" result="shape"/>
<feGaussianBlur stdDeviation="0.66" result="effect1_foregroundBlur_385_2019"/>
</filter>
<filter id="filter15_df_385_2019" x="57.1973" y="233.463" width="103.451" height="95.5313" filterUnits="userSpaceOnUse" color-interpolation-filters="sRGB">
<feFlood flood-opacity="0" result="BackgroundImageFix"/>
<feColorMatrix in="SourceAlpha" type="matrix" values="0 0 0 0 0 0 0 0 0 0 0 0 0 0 0 0 0 0 127 0" result="hardAlpha"/>
<feOffset dy="2.5344"/>
<feGaussianBlur stdDeviation="1.2672"/>
<feComposite in2="hardAlpha" operator="out"/>
<feColorMatrix type="matrix" values="0 0 0 0 0 0 0 0 0 0 0 0 0 0 0 0 0 0 0.25 0"/>
<feBlend mode="normal" in2="BackgroundImageFix" result="effect1_dropShadow_385_2019"/>
<feBlend mode="normal" in="SourceGraphic" in2="effect1_dropShadow_385_2019" result="shape"/>
<feGaussianBlur stdDeviation="1.14048" result="effect2_foregroundBlur_385_2019"/>
</filter>
<filter id="filter16_f_385_2019" x="166.258" y="205.578" width="26.4" height="27.5" filterUnits="userSpaceOnUse" color-interpolation-filters="sRGB">
<feFlood flood-opacity="0" result="BackgroundImageFix"/>
<feBlend mode="normal" in="SourceGraphic" in2="BackgroundImageFix" result="shape"/>
<feGaussianBlur stdDeviation="0.55" result="effect1_foregroundBlur_385_2019"/>
</filter>
<filter id="filter17_f_385_2019" x="172.288" y="208.308" width="14.3404" height="5.10044" filterUnits="userSpaceOnUse" color-interpolation-filters="sRGB">
<feFlood flood-opacity="0" result="BackgroundImageFix"/>
<feBlend mode="normal" in="SourceGraphic" in2="BackgroundImageFix" result="shape"/>
<feGaussianBlur stdDeviation="0.28512" result="effect1_foregroundBlur_385_2019"/>
</filter>
<filter id="filter18_d_385_2019" x="0.184335" y="3.73519" width="146.528" height="132.801" filterUnits="userSpaceOnUse" color-interpolation-filters="sRGB">
<feFlood flood-opacity="0" result="BackgroundImageFix"/>
<feColorMatrix in="SourceAlpha" type="matrix" values="0 0 0 0 0 0 0 0 0 0 0 0 0 0 0 0 0 0 127 0" result="hardAlpha"/>
<feOffset dx="2.64" dy="10.56"/>
<feGaussianBlur stdDeviation="13.2"/>
<feComposite in2="hardAlpha" operator="out"/>
<feColorMatrix type="matrix" values="0 0 0 0 0 0 0 0 0 0 0 0 0 0 0 0 0 0 0.2 0"/>
<feBlend mode="normal" in2="BackgroundImageFix" result="effect1_dropShadow_385_2019"/>
<feBlend mode="normal" in="SourceGraphic" in2="effect1_dropShadow_385_2019" result="shape"/>
</filter>
<linearGradient id="paint0_linear_385_2019" x1="158.107" y1="258.684" x2="444.782" y2="409.801" gradientUnits="userSpaceOnUse">
<stop stop-color="#D8F5DD"/>
<stop offset="1" stop-color="#709C78"/>
</linearGradient>
<linearGradient id="paint1_linear_385_2019" x1="143.623" y1="43.9725" x2="288.253" y2="400.731" gradientUnits="userSpaceOnUse">
<stop stop-color="#D8F5DD"/>
<stop offset="1" stop-color="#709C78"/>
</linearGradient>
<linearGradient id="paint2_linear_385_2019" x1="186.47" y1="122.654" x2="186.47" y2="441.664" gradientUnits="userSpaceOnUse">
<stop stop-color="#F6F6F6"/>
<stop offset="1" stop-color="#5379C2"/>
</linearGradient>
<linearGradient id="paint3_linear_385_2019" x1="135.739" y1="202.091" x2="120.913" y2="223.074" gradientUnits="userSpaceOnUse">
<stop stop-color="#FFDEDE"/>
<stop offset="1" stop-color="#FFDEDE" stop-opacity="0.8"/>
</linearGradient>
<linearGradient id="paint4_linear_385_2019" x1="222.602" y1="202.091" x2="237.428" y2="223.074" gradientUnits="userSpaceOnUse">
<stop stop-color="#FFDEDE"/>
<stop offset="1" stop-color="#FFDEDE" stop-opacity="0.8"/>
</linearGradient>
<linearGradient id="paint5_linear_385_2019" x1="270.848" y1="326.924" x2="358.785" y2="263.303" gradientUnits="userSpaceOnUse">
<stop stop-color="#A9CDAF"/>
<stop offset="0.512719" stop-color="#D9F6DE"/>
<stop offset="1" stop-color="#ACCFB2"/>
</linearGradient>
<linearGradient id="paint6_linear_385_2019" x1="109.058" y1="240.229" x2="109.058" y2="322.179" gradientUnits="userSpaceOnUse">
<stop stop-color="#E3FEE8"/>
<stop offset="1" stop-color="#9BC7A3"/>
</linearGradient>
</defs>
</svg>