<svg width="285" height="192" viewBox="0 0 285 192" fill="none" xmlns="http://www.w3.org/2000/svg">
<g filter="url(#filter0_b_797_39)">
<path fill-rule="evenodd" clip-rule="evenodd" d="M204 0C248.735 0 285 36.2649 285 81C285 123.352 252.496 158.112 211.073 161.695C210.719 161.726 210.418 161.961 210.305 162.298C206.287 174.354 195.229 190.014 171.612 191.827C170.65 191.9 170.298 190.456 171.132 189.972C178.374 185.768 187.947 176.952 190.699 163.021C190.804 162.491 190.393 162 189.852 162H81C36.2649 162 0 125.735 0 81C0 36.2649 36.2649 0 81 0H204Z" fill="#F6F6F6" fill-opacity="0.5"/>
</g>
<path d="M50.5684 49.2363H49.4883V39.9668H50.5684V49.2363ZM49.9395 44.0957H47.3828V43.207H49.9395V44.0957ZM49.9395 46.625H47.3828V45.75H49.9395V46.625ZM47.3828 42.332H40.5059V41.457H47.3828V42.332ZM43.9785 43.002C44.5163 43.002 44.9948 43.0977 45.4141 43.2891C45.8333 43.4805 46.1615 43.7539 46.3984 44.1094C46.6354 44.4603 46.7539 44.8659 46.7539 45.3262C46.7539 45.7819 46.6354 46.1852 46.3984 46.5361C46.1615 46.887 45.8333 47.1605 45.4141 47.3564C44.9948 47.5524 44.5163 47.6504 43.9785 47.6504C43.4408 47.6504 42.9645 47.5524 42.5498 47.3564C42.1351 47.1605 41.8092 46.887 41.5723 46.5361C41.3398 46.1852 41.2259 45.7819 41.2305 45.3262C41.2259 44.8659 41.3398 44.4603 41.5723 44.1094C41.8092 43.7539 42.1351 43.4805 42.5498 43.2891C42.9645 43.0977 43.4408 43.002 43.9785 43.002ZM43.9785 43.8496C43.6367 43.8542 43.3314 43.9202 43.0625 44.0479C42.7982 44.1709 42.5931 44.3441 42.4473 44.5674C42.3014 44.7861 42.2285 45.0391 42.2285 45.3262C42.2285 45.6133 42.3014 45.8685 42.4473 46.0918C42.5931 46.3105 42.7982 46.4814 43.0625 46.6045C43.3314 46.7275 43.6367 46.7891 43.9785 46.7891C44.3203 46.7891 44.6234 46.7275 44.8877 46.6045C45.1566 46.4814 45.3662 46.3105 45.5166 46.0918C45.667 45.8685 45.7422 45.6133 45.7422 45.3262C45.7422 45.0391 45.667 44.7839 45.5166 44.5605C45.3662 44.3327 45.1566 44.1595 44.8877 44.041C44.6234 43.918 44.3203 43.8542 43.9785 43.8496ZM44.5254 42.0176H43.459V39.9531H44.5254V42.0176ZM50.8418 51.8477H42.707V50.9453H50.8418V51.8477ZM43.7871 51.3828H42.707V48.416H43.7871V51.3828ZM63.0371 52.1074H61.998V39.9531H63.0371V52.1074ZM62.3945 45.791H60.0293V44.875H62.3945V45.791ZM60.3438 51.4922H59.3184V40.2129H60.3438V51.4922ZM55.9824 43.2754C55.987 44.2415 55.8799 45.1348 55.6611 45.9551C55.4469 46.7754 55.1257 47.4977 54.6973 48.1221C54.2734 48.7419 53.7539 49.2318 53.1387 49.5918L52.4688 48.7715C53.043 48.4525 53.5329 48.0195 53.9385 47.4727C54.3441 46.9258 54.6471 46.2969 54.8477 45.5859C55.0527 44.8704 55.153 44.1003 55.1484 43.2754V41.8398H55.9824V43.2754ZM56.1875 43.2754C56.1875 44.0228 56.29 44.7269 56.4951 45.3877C56.7002 46.0485 57.001 46.6341 57.3975 47.1445C57.7939 47.6549 58.2747 48.056 58.8398 48.3477L58.1973 49.1816C57.582 48.8444 57.0602 48.3818 56.6318 47.7939C56.208 47.2061 55.8867 46.527 55.668 45.7568C55.4538 44.9867 55.349 44.1595 55.3535 43.2754V41.8398H56.1875V43.2754ZM58.4434 42.3047H52.7559V41.4023H58.4434V42.3047ZM79.3203 47.8281H68.1914V46.9258H79.3203V47.8281ZM74.248 52.1074H73.1953V47.459H74.248V52.1074ZM73.7285 40.4453C74.5762 40.4453 75.3236 40.5547 75.9707 40.7734C76.6178 40.9922 77.1191 41.3044 77.4746 41.71C77.8301 42.111 78.0078 42.5827 78.0078 43.125C78.0078 43.6582 77.8301 44.1253 77.4746 44.5264C77.1191 44.9229 76.6156 45.2282 75.9639 45.4424C75.3167 45.6566 74.5716 45.7637 73.7285 45.7637C72.8809 45.7637 72.1357 45.6566 71.4932 45.4424C70.8506 45.2282 70.3493 44.9229 69.9893 44.5264C69.6292 44.1253 69.4492 43.6582 69.4492 43.125C69.4492 42.5827 69.6292 42.111 69.9893 41.71C70.3493 41.3044 70.8506 40.9922 71.4932 40.7734C72.1357 40.5547 72.8809 40.4453 73.7285 40.4453ZM73.7285 41.3203C73.0996 41.3203 72.5459 41.3932 72.0674 41.5391C71.5889 41.6849 71.2152 41.8968 70.9463 42.1748C70.682 42.4482 70.5521 42.765 70.5566 43.125C70.5521 43.4805 70.682 43.7926 70.9463 44.0615C71.2152 44.3304 71.5889 44.5378 72.0674 44.6836C72.5459 44.8294 73.0996 44.9023 73.7285 44.9023C74.3574 44.9023 74.9111 44.8294 75.3896 44.6836C75.8682 44.5378 76.2419 44.3304 76.5107 44.0615C76.7796 43.7926 76.9141 43.4805 76.9141 43.125C76.9141 42.765 76.7819 42.4482 76.5176 42.1748C76.2533 41.8968 75.8796 41.6849 75.3965 41.5391C74.9134 41.3932 74.3574 41.3203 73.7285 41.3203ZM90.3398 52.1348H89.2734V39.9531H90.3398V52.1348ZM82.0273 48.2793C83.1302 48.2839 84.1556 48.2542 85.1035 48.1904C86.056 48.1266 87.054 48.0104 88.0977 47.8418L88.207 48.7441C87.1497 48.9082 86.138 49.0221 85.1719 49.0859C84.2057 49.1497 83.1576 49.1816 82.0273 49.1816H81.0156V48.2793H82.0273ZM86.6484 45.4082H82.1094V48.6211H81.0156V44.5332H85.5684V41.9766H80.9883V41.0879H86.6484V45.4082ZM105.229 41.4297H97.3262V40.5547H105.229V41.4297ZM107.047 45.7637H95.918V44.8887H107.047V45.7637ZM101.988 48.375H100.922V45.4766H101.988V48.375ZM105.584 41.4297C105.584 42.127 105.561 42.7673 105.516 43.3506C105.47 43.9294 105.361 44.5924 105.188 45.3398L104.135 45.2031C104.253 44.7064 104.34 44.2438 104.395 43.8154C104.449 43.3825 104.483 42.9997 104.497 42.667C104.511 42.3343 104.518 41.9492 104.518 41.5117V41.4297V40.5547H105.584V41.4297ZM105.666 52.1074H104.586V48.8945H97.0664V48.0059H105.666V52.1074ZM112.625 49.25H111.545V47.2402H112.625V49.25ZM117.984 52.1074H116.918V39.9531H117.984V52.1074ZM108.592 48.8672C110.105 48.8535 111.463 48.8216 112.666 48.7715C113.869 48.7214 115.018 48.6257 116.111 48.4844L116.193 49.3047C114.986 49.5007 113.73 49.6305 112.427 49.6943C111.123 49.7536 109.731 49.7832 108.25 49.7832L108.086 48.8672H108.592ZM115.797 42.332H108.346V41.457H115.797V42.332ZM112.064 43.0293C112.648 43.0293 113.163 43.1204 113.609 43.3027C114.056 43.485 114.4 43.7493 114.642 44.0957C114.883 44.4375 115.004 44.834 115.004 45.2852C115.004 45.7318 114.883 46.1237 114.642 46.4609C114.4 46.7982 114.054 47.0579 113.603 47.2402C113.156 47.4225 112.643 47.5137 112.064 47.5137C111.486 47.5137 110.975 47.4225 110.533 47.2402C110.096 47.0579 109.754 46.7982 109.508 46.4609C109.266 46.1237 109.148 45.7318 109.152 45.2852C109.148 44.834 109.266 44.4375 109.508 44.0957C109.754 43.7493 110.096 43.485 110.533 43.3027C110.975 43.1204 111.486 43.0293 112.064 43.0293ZM112.064 43.8633C111.691 43.8633 111.36 43.9225 111.073 44.041C110.786 44.1595 110.561 44.3281 110.396 44.5469C110.232 44.7611 110.15 45.0072 110.15 45.2852C110.15 45.5632 110.23 45.807 110.39 46.0166C110.549 46.2217 110.775 46.3835 111.066 46.502C111.358 46.6159 111.691 46.6706 112.064 46.666C112.438 46.6706 112.771 46.6159 113.062 46.502C113.354 46.3835 113.58 46.2217 113.739 46.0166C113.899 45.807 113.979 45.5632 113.979 45.2852C113.979 45.0072 113.899 44.7611 113.739 44.5469C113.58 44.3281 113.354 44.1595 113.062 44.041C112.771 43.9225 112.438 43.8633 112.064 43.8633ZM112.625 41.9219H111.545V39.9668H112.625V41.9219ZM127.432 45.5859H125.094V44.6973H127.432V45.5859ZM130.535 52.1074H129.496V39.9531H130.535V52.1074ZM128.088 51.4922H127.062V40.2129H128.088V51.4922ZM122.879 40.9785C123.403 40.9785 123.861 41.1517 124.253 41.498C124.649 41.8444 124.957 42.3366 125.176 42.9746C125.395 43.6081 125.504 44.3509 125.504 45.2031C125.504 46.0553 125.395 46.8005 125.176 47.4385C124.957 48.0719 124.649 48.5618 124.253 48.9082C123.861 49.2546 123.403 49.4277 122.879 49.4277C122.355 49.4277 121.897 49.2546 121.505 48.9082C121.118 48.5618 120.814 48.0719 120.596 47.4385C120.377 46.8005 120.268 46.0553 120.268 45.2031C120.268 44.3509 120.377 43.6081 120.596 42.9746C120.814 42.3366 121.118 41.8444 121.505 41.498C121.897 41.1517 122.355 40.9785 122.879 40.9785ZM122.879 41.9902C122.551 41.9902 122.266 42.1201 122.024 42.3799C121.783 42.6396 121.596 43.0133 121.464 43.501C121.336 43.984 121.275 44.5514 121.279 45.2031C121.275 45.8548 121.336 46.4222 121.464 46.9053C121.596 47.3838 121.783 47.7552 122.024 48.0195C122.271 48.2793 122.555 48.4069 122.879 48.4023C123.207 48.4069 123.494 48.2793 123.74 48.0195C123.986 47.7552 124.173 47.3838 124.301 46.9053C124.428 46.4222 124.492 45.8548 124.492 45.2031C124.492 44.5514 124.428 43.984 124.301 43.501C124.173 43.0133 123.986 42.6396 123.74 42.3799C123.494 42.1201 123.207 41.9902 122.879 41.9902ZM138.998 40.8965C139.586 40.8965 140.11 41.0697 140.57 41.416C141.035 41.7624 141.395 42.2568 141.65 42.8994C141.906 43.542 142.033 44.2871 142.033 45.1348C142.033 45.987 141.906 46.7321 141.65 47.3701C141.395 48.0036 141.035 48.4935 140.57 48.8398C140.11 49.1862 139.586 49.3594 138.998 49.3594C138.401 49.3594 137.87 49.1862 137.405 48.8398C136.945 48.4935 136.587 48.0036 136.332 47.3701C136.077 46.7321 135.949 45.987 135.949 45.1348C135.949 44.2871 136.077 43.542 136.332 42.8994C136.587 42.2568 136.945 41.7624 137.405 41.416C137.87 41.0697 138.401 40.8965 138.998 40.8965ZM138.998 41.8535C138.602 41.8535 138.251 41.9902 137.945 42.2637C137.645 42.5371 137.408 42.9222 137.234 43.4189C137.061 43.9111 136.975 44.4831 136.975 45.1348C136.975 45.7865 137.061 46.3607 137.234 46.8574C137.408 47.3496 137.645 47.7301 137.945 47.999C138.251 48.2679 138.602 48.4023 138.998 48.4023C139.39 48.4023 139.741 48.2679 140.051 47.999C140.361 47.7301 140.6 47.3473 140.769 46.8506C140.937 46.3538 141.021 45.7819 141.021 45.1348C141.021 44.4876 140.937 43.9157 140.769 43.4189C140.6 42.9222 140.361 42.5371 140.051 42.2637C139.741 41.9902 139.39 41.8535 138.998 41.8535ZM145.807 52.1348H144.74V39.9531H145.807V52.1348ZM145.219 45.4902H141.678V44.6016H145.219V45.4902ZM158.344 51.8477H149.881V50.9453H158.344V51.8477ZM150.947 51.4238H149.881V48.0742H150.947V51.4238ZM158.016 48.7988H156.963V39.9668H158.016V48.7988ZM157.811 44.2051H154.721V43.3164H157.811V44.2051ZM148.691 45.9688C149.161 45.9642 149.61 45.9437 150.038 45.9072C150.466 45.8708 150.915 45.8001 151.385 45.6953L151.494 46.584C151.029 46.6888 150.596 46.7572 150.195 46.7891C149.799 46.8164 149.361 46.8301 148.883 46.8301H148.691H148.172V45.9688H148.691ZM151.248 41.8535H149.225V46.2422H148.172V40.9648H151.248V41.8535ZM152.533 45.9688C153.24 45.9642 153.832 45.9437 154.311 45.9072C154.789 45.8662 155.277 45.7865 155.773 45.668L155.883 46.5566C155.359 46.6706 154.855 46.7458 154.372 46.7822C153.894 46.8141 153.281 46.8301 152.533 46.8301H151.918V45.9688H152.533ZM155.309 41.8535H152.998V46.2012H151.918V40.9648H155.309V41.8535ZM165.125 42.4688H168.516V40.582H169.568V46.1465H164.059V40.582H165.125V42.4688ZM168.516 45.2715V43.3164H165.125V45.2715H168.516ZM172.768 43.8496H169.268V42.9473H172.768V43.8496ZM173.52 46.5977H172.439V39.9531H173.52V46.5977ZM166.766 48.6758H172.439V47.1855H173.506V51.9434H165.686V47.1855H166.766V48.6758ZM172.439 51.0547V49.5371H166.766V51.0547H172.439ZM185.045 48.9219H183.979V39.9531H185.045V48.9219ZM186.877 44.5605H184.703V43.6582H186.877V44.5605ZM185.605 51.8477H177.443V50.9453H185.605V51.8477ZM178.496 51.3008H177.443V47.9922H178.496V51.3008ZM178.961 40.8145C179.562 40.8145 180.107 40.9421 180.595 41.1973C181.082 41.4525 181.463 41.8079 181.736 42.2637C182.014 42.7148 182.156 43.2298 182.16 43.8086C182.156 44.3874 182.014 44.9046 181.736 45.3604C181.463 45.8115 181.082 46.1647 180.595 46.4199C180.107 46.6751 179.562 46.8027 178.961 46.8027C178.364 46.8027 177.822 46.6751 177.334 46.4199C176.851 46.1647 176.47 45.8092 176.192 45.3535C175.914 44.8978 175.775 44.3828 175.775 43.8086C175.775 43.2298 175.914 42.7148 176.192 42.2637C176.47 41.8079 176.851 41.4525 177.334 41.1973C177.817 40.9421 178.359 40.8145 178.961 40.8145ZM178.961 41.7578C178.564 41.7578 178.202 41.8444 177.874 42.0176C177.55 42.1908 177.295 42.4346 177.108 42.749C176.922 43.0635 176.828 43.4167 176.828 43.8086C176.828 44.2005 176.922 44.5514 177.108 44.8613C177.295 45.1712 177.55 45.415 177.874 45.5928C178.202 45.7705 178.564 45.8594 178.961 45.8594C179.367 45.8594 179.731 45.7705 180.055 45.5928C180.383 45.415 180.64 45.1712 180.827 44.8613C181.014 44.5514 181.107 44.2005 181.107 43.8086C181.107 43.4121 181.014 43.0589 180.827 42.749C180.64 42.4346 180.383 42.1908 180.055 42.0176C179.731 41.8444 179.367 41.7578 178.961 41.7578ZM198.73 45.9277H187.643V45.0664H198.73V45.9277ZM197.404 44.0684H189.119V43.1934H197.404V44.0684ZM197.281 41.2383H190.199V43.877H189.119V40.377H197.281V41.2383ZM197.295 49.8379H190.076V51.3965H189.01V49.0312H196.242V47.8555H188.982V47.0215H197.295V49.8379ZM197.664 51.9707H189.01V51.0957H197.664V51.9707ZM209.764 52.1348H208.684V39.9531H209.764V52.1348ZM203.297 40.8965C203.898 40.8965 204.434 41.0697 204.903 41.416C205.373 41.7624 205.74 42.2568 206.004 42.8994C206.268 43.542 206.4 44.2871 206.4 45.1348C206.4 45.9824 206.268 46.7253 206.004 47.3633C205.74 48.0013 205.373 48.4935 204.903 48.8398C204.434 49.1862 203.898 49.3594 203.297 49.3594C202.695 49.3594 202.16 49.1862 201.69 48.8398C201.221 48.4935 200.854 48.0013 200.59 47.3633C200.326 46.7253 200.193 45.9824 200.193 45.1348C200.193 44.2871 200.326 43.542 200.59 42.8994C200.854 42.2568 201.221 41.7624 201.69 41.416C202.16 41.0697 202.695 40.8965 203.297 40.8965ZM203.297 41.8535C202.896 41.8535 202.538 41.9902 202.224 42.2637C201.909 42.5371 201.665 42.9222 201.492 43.4189C201.319 43.9157 201.232 44.4876 201.232 45.1348C201.232 45.7865 201.319 46.3607 201.492 46.8574C201.665 47.3496 201.909 47.7301 202.224 47.999C202.538 48.2679 202.896 48.4023 203.297 48.4023C203.702 48.4023 204.06 48.2679 204.37 47.999C204.685 47.7301 204.928 47.3496 205.102 46.8574C205.275 46.3607 205.361 45.7865 205.361 45.1348C205.361 44.4831 205.275 43.9111 205.102 43.4189C204.928 42.9222 204.685 42.5371 204.37 42.2637C204.06 41.9902 203.702 41.8535 203.297 41.8535ZM46.2891 58.4707C46.2891 59.1315 46.0726 59.7354 45.6396 60.2822C45.2067 60.8245 44.6302 61.2734 43.9102 61.6289C43.1947 61.9844 42.4154 62.2259 41.5723 62.3535L41.1758 61.4785C41.8958 61.3874 42.5749 61.196 43.2129 60.9043C43.8509 60.6126 44.3636 60.2549 44.751 59.8311C45.1383 59.4072 45.332 58.9538 45.332 58.4707V58.1016H46.2891V58.4707ZM46.7266 58.4707C46.7266 58.9538 46.9225 59.4072 47.3145 59.8311C47.7064 60.2549 48.2214 60.6126 48.8594 60.9043C49.502 61.196 50.1855 61.3874 50.9102 61.4785L50.4863 62.3535C49.6432 62.2259 48.8617 61.9844 48.1416 61.6289C47.4261 61.2734 46.8519 60.8245 46.4189 60.2822C45.986 59.7354 45.7695 59.1315 45.7695 58.4707V58.1016H46.7266V58.4707ZM50.582 58.4434H41.5039V57.5547H50.582V58.4434ZM50.3359 68.8477H41.9277V67.9453H50.3359V68.8477ZM43.0078 68.3145H41.9277V65.3887H43.0078V68.3145ZM51.6074 64.4043H40.4922V63.5156H51.6074V64.4043ZM46.5488 63.8848H45.4961V61.4785H46.5488V63.8848ZM63.0371 69.1074H61.998V56.9531H63.0371V69.1074ZM62.3945 62.791H60.0293V61.875H62.3945V62.791ZM60.3438 68.4922H59.3184V57.2129H60.3438V68.4922ZM55.9824 60.2754C55.987 61.2415 55.8799 62.1348 55.6611 62.9551C55.4469 63.7754 55.1257 64.4977 54.6973 65.1221C54.2734 65.7419 53.7539 66.2318 53.1387 66.5918L52.4688 65.7715C53.043 65.4525 53.5329 65.0195 53.9385 64.4727C54.3441 63.9258 54.6471 63.2969 54.8477 62.5859C55.0527 61.8704 55.153 61.1003 55.1484 60.2754V58.8398H55.9824V60.2754ZM56.1875 60.2754C56.1875 61.0228 56.29 61.7269 56.4951 62.3877C56.7002 63.0485 57.001 63.6341 57.3975 64.1445C57.7939 64.6549 58.2747 65.056 58.8398 65.3477L58.1973 66.1816C57.582 65.8444 57.0602 65.3818 56.6318 64.7939C56.208 64.2061 55.8867 63.527 55.668 62.7568C55.4538 61.9867 55.349 61.1595 55.3535 60.2754V58.8398H56.1875V60.2754ZM58.4434 59.3047H52.7559V58.4023H58.4434V59.3047ZM74.0977 69.1074H73.0312V56.9531H74.0977V69.1074ZM76.1348 62.8594H73.8516V61.9707H76.1348V62.8594ZM71.8555 59.7969H64.623V58.9082H71.8555V59.7969ZM68.3008 60.8086C68.8659 60.8086 69.374 60.9271 69.8252 61.1641C70.2764 61.401 70.6296 61.7314 70.8848 62.1553C71.1445 62.5791 71.2767 63.0599 71.2812 63.5977C71.2767 64.14 71.1445 64.623 70.8848 65.0469C70.6296 65.4661 70.2764 65.7943 69.8252 66.0312C69.374 66.2682 68.8659 66.3867 68.3008 66.3867C67.7311 66.3867 67.2184 66.2682 66.7627 66.0312C66.3115 65.7943 65.9583 65.4661 65.7031 65.0469C65.4479 64.623 65.3203 64.14 65.3203 63.5977C65.3203 63.0599 65.4479 62.5791 65.7031 62.1553C65.9583 61.7314 66.3115 61.401 66.7627 61.1641C67.2184 60.9271 67.7311 60.8086 68.3008 60.8086ZM68.3008 61.7109C67.9271 61.7109 67.5921 61.7907 67.2959 61.9502C66.9997 62.1097 66.7673 62.3353 66.5986 62.627C66.43 62.9141 66.3457 63.2376 66.3457 63.5977C66.3457 63.9622 66.43 64.2858 66.5986 64.5684C66.7673 64.8509 66.9997 65.0742 67.2959 65.2383C67.5921 65.3978 67.9271 65.4753 68.3008 65.4707C68.6699 65.4753 69.0026 65.3978 69.2988 65.2383C69.5996 65.0742 69.832 64.8509 69.9961 64.5684C70.1647 64.2858 70.2513 63.9622 70.2559 63.5977C70.2513 63.2376 70.1647 62.9141 69.9961 62.627C69.832 62.3353 69.5996 62.1097 69.2988 61.9502C69.0026 61.7907 68.6699 61.7109 68.3008 61.7109ZM68.8203 59.3184H67.7539V57.1035H68.8203V59.3184ZM86.6211 61.5059H78.2949V60.6445H86.6211V61.5059ZM87.9062 64.0352H76.7773V63.1602H87.9062V64.0352ZM79.3613 61.082H78.2949V57.4043H79.3613V61.082ZM86.6895 68.8066H78.2266V67.918H86.6895V68.8066ZM79.293 68.1777H78.2266V65.2793H79.293V68.1777ZM93.0469 60.6855C93.0469 61.5241 92.8874 62.3512 92.5684 63.167C92.2493 63.9827 91.821 64.7074 91.2832 65.3408C90.75 65.9743 90.1667 66.4505 89.5332 66.7695L88.8906 65.9219C89.4694 65.6439 90.0072 65.2246 90.5039 64.6641C91.0052 64.099 91.4062 63.4655 91.707 62.7637C92.0078 62.0618 92.1582 61.3691 92.1582 60.6855V58.6758H93.0469V60.6855ZM93.2383 60.6855C93.2383 61.3555 93.3887 62.0231 93.6895 62.6885C93.9902 63.3493 94.3913 63.9395 94.8926 64.459C95.3939 64.9785 95.9408 65.3659 96.5332 65.6211L95.9316 66.4688C95.2708 66.168 94.6693 65.7214 94.127 65.1289C93.5892 64.5365 93.1608 63.8551 92.8418 63.085C92.5273 62.3102 92.3724 61.5104 92.377 60.6855V58.6758H93.2383V60.6855ZM96.1367 59.0996H89.2871V58.2109H96.1367V59.0996ZM98.9121 69.1074H97.832V56.9531H98.9121V69.1074ZM114.006 63.1465H112.939V56.9531H114.006V63.1465ZM115.838 60.4941H113.527V59.5918H115.838V60.4941ZM114.006 66.6875H107.334V68.5469H106.281V65.8672H112.939V64.582H106.254V63.7207H114.006V66.6875ZM114.457 68.9434H106.281V68.082H114.457V68.9434ZM107.895 57.4043C108.501 57.4043 109.043 57.5182 109.521 57.7461C110.005 57.974 110.381 58.293 110.649 58.7031C110.918 59.1087 111.053 59.5736 111.053 60.0977C111.053 60.6217 110.918 61.0889 110.649 61.499C110.381 61.9046 110.005 62.2236 109.521 62.4561C109.043 62.6885 108.501 62.8047 107.895 62.8047C107.293 62.8047 106.753 62.6885 106.274 62.4561C105.796 62.2236 105.42 61.9046 105.146 61.499C104.873 61.0889 104.736 60.6217 104.736 60.0977C104.736 59.5736 104.873 59.1087 105.146 58.7031C105.42 58.293 105.796 57.974 106.274 57.7461C106.753 57.5182 107.293 57.4043 107.895 57.4043ZM107.895 58.3066C107.493 58.3021 107.133 58.3773 106.814 58.5322C106.495 58.6826 106.245 58.8945 106.062 59.168C105.88 59.4414 105.789 59.7513 105.789 60.0977C105.789 60.4486 105.88 60.763 106.062 61.041C106.245 61.3145 106.495 61.5309 106.814 61.6904C107.133 61.8499 107.493 61.9297 107.895 61.9297C108.296 61.9297 108.658 61.8499 108.981 61.6904C109.305 61.5309 109.556 61.3145 109.733 61.041C109.911 60.763 110 60.4486 110 60.0977C110 59.7513 109.911 59.4414 109.733 59.168C109.556 58.8945 109.303 58.6826 108.975 58.5322C108.651 58.3773 108.291 58.3021 107.895 58.3066ZM119.857 57.8965C120.45 57.8965 120.979 58.0697 121.443 58.416C121.908 58.7624 122.271 59.2568 122.53 59.8994C122.795 60.542 122.929 61.2871 122.934 62.1348C122.929 62.9824 122.795 63.7253 122.53 64.3633C122.271 65.0013 121.908 65.4935 121.443 65.8398C120.979 66.1862 120.45 66.3594 119.857 66.3594C119.26 66.3594 118.729 66.1862 118.265 65.8398C117.804 65.4935 117.444 65.0036 117.185 64.3701C116.925 63.7321 116.795 62.987 116.795 62.1348C116.795 61.2871 116.925 60.542 117.185 59.8994C117.444 59.2568 117.804 58.7624 118.265 58.416C118.729 58.0697 119.26 57.8965 119.857 57.8965ZM119.857 58.8535C119.461 58.8535 119.108 58.9902 118.798 59.2637C118.493 59.5371 118.251 59.9222 118.073 60.4189C117.896 60.9111 117.807 61.4831 117.807 62.1348C117.807 62.7865 117.896 63.3607 118.073 63.8574C118.251 64.3496 118.493 64.7301 118.798 64.999C119.108 65.2679 119.461 65.4023 119.857 65.4023C120.258 65.4023 120.614 65.2679 120.924 64.999C121.234 64.7301 121.473 64.3496 121.642 63.8574C121.81 63.3607 121.895 62.7865 121.895 62.1348C121.895 61.4831 121.81 60.9111 121.642 60.4189C121.473 59.9222 121.234 59.5371 120.924 59.2637C120.614 58.9902 120.258 58.8535 119.857 58.8535ZM126.01 69.1074H124.943V56.9531H126.01V69.1074ZM128.047 62.7363H125.764V61.8066H128.047V62.7363ZM130.439 59.8242H134.391V57.9648H135.457V63.4336H129.373V57.9648H130.439V59.8242ZM134.391 62.5586V60.6582H130.439V62.5586H134.391ZM132.955 65.9629H131.875V63.1191H132.955V65.9629ZM138.096 69.1074H137.029V56.9531H138.096V69.1074ZM140.078 62.9688H137.809V62.0664H140.078V62.9688ZM128.771 65.7031C130.33 65.694 131.7 65.6689 132.88 65.6279C134.06 65.5824 135.184 65.4889 136.25 65.3477L136.318 66.1543C135.53 66.2819 134.703 66.3776 133.837 66.4414C132.976 66.5052 132.153 66.5508 131.369 66.5781C130.585 66.6009 129.733 66.6146 128.812 66.6191H128.73L128.553 65.7031H128.771ZM144.617 66.8652H143.564V63.2285H144.617V66.8652ZM149.17 66.8652H148.09V63.2285H149.17V66.8652ZM151.932 67.5488H140.803V66.6465H151.932V67.5488ZM146.34 57.7188C147.201 57.7233 147.967 57.8555 148.637 58.1152C149.311 58.3704 149.838 58.7373 150.216 59.2158C150.594 59.6898 150.783 60.2344 150.783 60.8496C150.783 61.4694 150.594 62.014 150.216 62.4834C149.838 62.9528 149.311 63.3174 148.637 63.5771C147.967 63.8369 147.201 63.9668 146.34 63.9668C145.479 63.9668 144.711 63.8369 144.036 63.5771C143.366 63.3174 142.842 62.9528 142.464 62.4834C142.086 62.014 141.896 61.4694 141.896 60.8496C141.896 60.2344 142.086 59.6898 142.464 59.2158C142.842 58.7373 143.366 58.3704 144.036 58.1152C144.711 57.8555 145.479 57.7233 146.34 57.7188ZM146.34 58.6074C145.679 58.6029 145.089 58.694 144.569 58.8809C144.054 59.0632 143.653 59.3252 143.366 59.667C143.079 60.0088 142.936 60.403 142.936 60.8496C142.936 61.2962 143.079 61.6904 143.366 62.0322C143.653 62.374 144.054 62.6406 144.569 62.832C145.089 63.0234 145.679 63.1191 146.34 63.1191C146.996 63.1191 147.582 63.0234 148.097 62.832C148.612 62.6406 149.015 62.374 149.307 62.0322C149.598 61.6904 149.744 61.2962 149.744 60.8496C149.744 60.403 149.598 60.0088 149.307 59.667C149.015 59.3252 148.612 59.0632 148.097 58.8809C147.582 58.694 146.996 58.6029 146.34 58.6074ZM154.775 65.2109H153.627L153.531 58.1016H154.871L154.775 65.2109ZM154.201 68.082C154.042 68.082 153.894 68.041 153.757 67.959C153.625 67.877 153.518 67.7699 153.436 67.6377C153.358 67.501 153.322 67.3529 153.326 67.1934C153.322 67.0384 153.358 66.8926 153.436 66.7559C153.518 66.6191 153.625 66.512 153.757 66.4346C153.894 66.3571 154.042 66.3184 154.201 66.3184C154.361 66.3184 154.507 66.3571 154.639 66.4346C154.775 66.512 154.882 66.6191 154.96 66.7559C155.037 66.8926 155.076 67.0384 155.076 67.1934C155.076 67.3529 155.037 67.501 154.96 67.6377C154.882 67.7699 154.775 67.877 154.639 67.959C154.507 68.041 154.361 68.082 154.201 68.082ZM42.1738 110.469H45.5645V108.582H46.6172V114.146H41.1074V108.582H42.1738V110.469ZM45.5645 113.271V111.316H42.1738V113.271H45.5645ZM49.8164 111.85H46.3164V110.947H49.8164V111.85ZM50.5684 114.598H49.4883V107.953H50.5684V114.598ZM43.8145 116.676H49.4883V115.186H50.5547V119.943H42.7344V115.186H43.8145V116.676ZM49.4883 119.055V117.537H43.8145V119.055H49.4883ZM62.0938 116.922H61.0273V107.953H62.0938V116.922ZM63.9258 112.561H61.752V111.658H63.9258V112.561ZM62.6543 119.848H54.4922V118.945H62.6543V119.848ZM55.5449 119.301H54.4922V115.992H55.5449V119.301ZM56.0098 108.814C56.6113 108.814 57.1559 108.942 57.6436 109.197C58.1312 109.452 58.5117 109.808 58.7852 110.264C59.0632 110.715 59.2044 111.23 59.209 111.809C59.2044 112.387 59.0632 112.905 58.7852 113.36C58.5117 113.812 58.1312 114.165 57.6436 114.42C57.1559 114.675 56.6113 114.803 56.0098 114.803C55.4128 114.803 54.8704 114.675 54.3828 114.42C53.8997 114.165 53.5192 113.809 53.2412 113.354C52.9632 112.898 52.8242 112.383 52.8242 111.809C52.8242 111.23 52.9632 110.715 53.2412 110.264C53.5192 109.808 53.8997 109.452 54.3828 109.197C54.8659 108.942 55.4082 108.814 56.0098 108.814ZM56.0098 109.758C55.6133 109.758 55.251 109.844 54.9229 110.018C54.5993 110.191 54.3441 110.435 54.1572 110.749C53.9704 111.063 53.877 111.417 53.877 111.809C53.877 112.201 53.9704 112.551 54.1572 112.861C54.3441 113.171 54.5993 113.415 54.9229 113.593C55.251 113.771 55.6133 113.859 56.0098 113.859C56.4154 113.859 56.7799 113.771 57.1035 113.593C57.4316 113.415 57.6891 113.171 57.876 112.861C58.0628 112.551 58.1562 112.201 58.1562 111.809C58.1562 111.412 58.0628 111.059 57.876 110.749C57.6891 110.435 57.4316 110.191 57.1035 110.018C56.7799 109.844 56.4154 109.758 56.0098 109.758ZM79.3203 114.953H68.2051V114.064H79.3203V114.953ZM74.2617 114.461H73.209V112.191H74.2617V114.461ZM74.1113 108.719C74.1113 109.416 73.8857 110.052 73.4346 110.626C72.9834 111.196 72.3887 111.672 71.6504 112.055C70.9167 112.438 70.1283 112.702 69.2852 112.848L68.875 111.986C69.5996 111.886 70.2946 111.679 70.96 111.364C71.6299 111.05 72.1699 110.66 72.5801 110.195C72.9902 109.73 73.1953 109.238 73.1953 108.719V108.145H74.1113V108.719ZM74.2754 108.719C74.2754 109.238 74.4827 109.73 74.8975 110.195C75.3122 110.66 75.8522 111.05 76.5176 111.364C77.1875 111.679 77.8848 111.886 78.6094 111.986L78.1719 112.848C77.3424 112.702 76.5609 112.438 75.8271 112.055C75.0934 111.672 74.4987 111.193 74.043 110.619C73.5918 110.04 73.3685 109.407 73.373 108.719V108.145H74.2754V108.719ZM77.9121 120.107H76.832V117.004H69.4355V116.143H77.9121V120.107ZM85.8418 108.746C86.6849 108.746 87.4437 108.885 88.1182 109.163C88.7972 109.441 89.3281 109.833 89.7109 110.339C90.0938 110.845 90.2852 111.426 90.2852 112.082C90.2852 112.743 90.0938 113.328 89.7109 113.839C89.3281 114.345 88.7972 114.737 88.1182 115.015C87.4437 115.288 86.6849 115.423 85.8418 115.418C84.9987 115.423 84.2399 115.288 83.5654 115.015C82.8955 114.737 82.3669 114.345 81.9795 113.839C81.5921 113.328 81.3984 112.743 81.3984 112.082C81.3984 111.426 81.5921 110.845 81.9795 110.339C82.3669 109.833 82.8955 109.441 83.5654 109.163C84.2399 108.885 84.9987 108.746 85.8418 108.746ZM85.8418 109.621C85.1947 109.621 84.6113 109.724 84.0918 109.929C83.5723 110.134 83.1621 110.425 82.8613 110.804C82.5651 111.177 82.4193 111.604 82.4238 112.082C82.4193 112.565 82.5651 112.993 82.8613 113.367C83.1621 113.741 83.57 114.03 84.085 114.235C84.6045 114.44 85.1901 114.543 85.8418 114.543C86.4889 114.543 87.0723 114.44 87.5918 114.235C88.1113 114.03 88.5169 113.741 88.8086 113.367C89.1003 112.993 89.2461 112.565 89.2461 112.082C89.2461 111.604 89.098 111.177 88.8018 110.804C88.5055 110.425 88.0977 110.134 87.5781 109.929C87.0632 109.724 86.4844 109.621 85.8418 109.621ZM91.4336 118.494H80.3047V117.592H91.4336V118.494ZM103.533 118.604H92.4043V117.701H103.533V118.604ZM98.4609 118.098H97.4082V115.09H98.4609V118.098ZM102.125 112.533H94.8652V114.994H93.7988V111.658H101.072V109.744H93.7715V108.855H102.125V112.533ZM102.412 115.404H93.7988V114.516H102.412V115.404ZM117.752 120.107H116.686V107.953H117.752V120.107ZM119.406 113.627H117.15V112.711H119.406V113.627ZM109.193 112.232H110.725V109.088H111.641V117.168H108.264V109.088H109.193V112.232ZM110.725 116.266V113.094H109.193V116.266H110.725ZM113.213 112.232H114.703V109.088H115.619V117.168H112.297V109.088H113.213V112.232ZM114.703 116.266V113.094H113.213V116.266H114.703ZM130.193 120.107H129.113V107.953H130.193V120.107ZM124.123 111.562C124.118 112.41 123.964 113.246 123.658 114.071C123.357 114.896 122.947 115.632 122.428 116.279C121.913 116.922 121.352 117.414 120.746 117.756L120.035 116.936C120.609 116.648 121.143 116.218 121.635 115.644C122.127 115.065 122.519 114.418 122.811 113.702C123.102 112.982 123.248 112.269 123.248 111.562V109.676H124.123V111.562ZM124.328 111.562C124.328 112.187 124.474 112.839 124.766 113.518C125.057 114.192 125.445 114.81 125.928 115.37C126.415 115.926 126.944 116.348 127.514 116.635L126.871 117.455C126.256 117.136 125.688 116.662 125.169 116.033C124.654 115.404 124.242 114.696 123.932 113.907C123.622 113.119 123.467 112.337 123.467 111.562V109.676H124.328V111.562ZM127.104 110.1H120.473V109.211H127.104V110.1ZM129.811 112.287H126.625V111.385H129.811V112.287ZM129.811 114.871H126.625V113.969H129.811V114.871ZM143.305 113.928H132.217V113.066H143.305V113.928ZM141.979 112.068H133.693V111.193H141.979V112.068ZM141.855 109.238H134.773V111.877H133.693V108.377H141.855V109.238ZM141.869 117.838H134.65V119.396H133.584V117.031H140.816V115.855H133.557V115.021H141.869V117.838ZM142.238 119.971H133.584V119.096H142.238V119.971ZM147.584 108.896C148.172 108.896 148.696 109.07 149.156 109.416C149.621 109.762 149.981 110.257 150.236 110.899C150.492 111.542 150.619 112.287 150.619 113.135C150.619 113.987 150.492 114.732 150.236 115.37C149.981 116.004 149.621 116.493 149.156 116.84C148.696 117.186 148.172 117.359 147.584 117.359C146.987 117.359 146.456 117.186 145.991 116.84C145.531 116.493 145.173 116.004 144.918 115.37C144.663 114.732 144.535 113.987 144.535 113.135C144.535 112.287 144.663 111.542 144.918 110.899C145.173 110.257 145.531 109.762 145.991 109.416C146.456 109.07 146.987 108.896 147.584 108.896ZM147.584 109.854C147.188 109.854 146.837 109.99 146.531 110.264C146.23 110.537 145.993 110.922 145.82 111.419C145.647 111.911 145.561 112.483 145.561 113.135C145.561 113.786 145.647 114.361 145.82 114.857C145.993 115.35 146.23 115.73 146.531 115.999C146.837 116.268 147.188 116.402 147.584 116.402C147.976 116.402 148.327 116.268 148.637 115.999C148.947 115.73 149.186 115.347 149.354 114.851C149.523 114.354 149.607 113.782 149.607 113.135C149.607 112.488 149.523 111.916 149.354 111.419C149.186 110.922 148.947 110.537 148.637 110.264C148.327 109.99 147.976 109.854 147.584 109.854ZM154.393 120.135H153.326V107.953H154.393V120.135ZM153.805 113.49H150.264V112.602H153.805V113.49ZM165.822 120.107H164.756V107.953H165.822V120.107ZM167.791 113.805H165.549V112.902H167.791V113.805ZM162.678 109.266C162.673 110.446 162.477 111.562 162.09 112.615C161.707 113.663 161.101 114.632 160.271 115.521C159.442 116.405 158.385 117.163 157.1 117.797L156.498 116.949C157.624 116.389 158.567 115.73 159.328 114.974C160.094 114.213 160.666 113.369 161.044 112.444C161.427 111.519 161.62 110.519 161.625 109.443V109.266H162.678ZM162.172 110.168H157.059V109.266H162.172V110.168ZM171.059 109.32H177.074V108.158H178.141V112.15H169.992V108.158H171.059V109.32ZM177.074 111.316V110.141H171.059V111.316H177.074ZM179.59 114.229H168.516V113.354H179.59V114.229ZM174.559 113.641H173.506V111.754H174.559V113.641ZM178.168 117.934H170.949V119.451H169.883V117.141H177.115V116.061H169.855V115.24H178.168V117.934ZM178.537 119.971H169.883V119.123H178.537V119.971ZM190.24 120.107H189.16V107.953H190.24V120.107ZM192.086 113.873H189.885V112.971H192.086V113.873ZM184.307 109.279C184.302 110.309 184.209 111.289 184.026 112.219C183.849 113.148 183.548 114.051 183.124 114.926C182.705 115.801 182.142 116.612 181.436 117.359L180.574 116.744C181.23 116.074 181.759 115.347 182.16 114.563C182.561 113.775 182.851 112.955 183.028 112.103C183.211 111.25 183.304 110.35 183.309 109.402V109.279H184.307ZM183.691 110.182H180.957V109.279H183.691V110.182ZM187.643 109.279C187.638 110.382 187.563 111.435 187.417 112.438C187.276 113.44 187.005 114.438 186.604 115.432C186.207 116.425 185.651 117.337 184.936 118.166L184.061 117.564C184.726 116.817 185.25 115.992 185.633 115.09C186.016 114.188 186.278 113.267 186.419 112.328C186.565 111.385 186.64 110.4 186.645 109.375V109.279H187.643ZM187.068 110.182H184.689V109.279H187.068V110.182ZM196.529 117.865H195.477V114.229H196.529V117.865ZM201.082 117.865H200.002V114.229H201.082V117.865ZM203.844 118.549H192.715V117.646H203.844V118.549ZM198.252 108.719C199.113 108.723 199.879 108.855 200.549 109.115C201.223 109.37 201.75 109.737 202.128 110.216C202.506 110.69 202.695 111.234 202.695 111.85C202.695 112.469 202.506 113.014 202.128 113.483C201.75 113.953 201.223 114.317 200.549 114.577C199.879 114.837 199.113 114.967 198.252 114.967C197.391 114.967 196.623 114.837 195.948 114.577C195.278 114.317 194.754 113.953 194.376 113.483C193.998 113.014 193.809 112.469 193.809 111.85C193.809 111.234 193.998 110.69 194.376 110.216C194.754 109.737 195.278 109.37 195.948 109.115C196.623 108.855 197.391 108.723 198.252 108.719ZM198.252 109.607C197.591 109.603 197.001 109.694 196.481 109.881C195.966 110.063 195.565 110.325 195.278 110.667C194.991 111.009 194.848 111.403 194.848 111.85C194.848 112.296 194.991 112.69 195.278 113.032C195.565 113.374 195.966 113.641 196.481 113.832C197.001 114.023 197.591 114.119 198.252 114.119C198.908 114.119 199.494 114.023 200.009 113.832C200.524 113.641 200.927 113.374 201.219 113.032C201.51 112.69 201.656 112.296 201.656 111.85C201.656 111.403 201.51 111.009 201.219 110.667C200.927 110.325 200.524 110.063 200.009 109.881C199.494 109.694 198.908 109.603 198.252 109.607ZM206.756 116.143C206.76 115.555 206.82 115.078 206.934 114.714C207.052 114.345 207.216 114.051 207.426 113.832C207.635 113.609 207.918 113.39 208.273 113.176C208.469 113.057 208.643 112.916 208.793 112.752C208.948 112.588 209.066 112.403 209.148 112.198C209.23 111.993 209.271 111.768 209.271 111.521C209.271 111.221 209.201 110.954 209.06 110.722C208.918 110.489 208.722 110.312 208.472 110.188C208.221 110.061 207.945 109.999 207.645 110.004C207.371 109.999 207.116 110.054 206.879 110.168C206.642 110.277 206.441 110.453 206.277 110.694C206.118 110.931 206.027 111.23 206.004 111.59H204.76C204.783 111.052 204.922 110.585 205.177 110.188C205.437 109.792 205.781 109.489 206.209 109.279C206.642 109.07 207.12 108.965 207.645 108.965C208.205 108.965 208.7 109.076 209.128 109.3C209.561 109.523 209.894 109.833 210.126 110.229C210.358 110.626 210.475 111.075 210.475 111.576C210.475 112.096 210.358 112.549 210.126 112.937C209.894 113.319 209.559 113.645 209.121 113.914C208.829 114.092 208.602 114.276 208.438 114.468C208.273 114.655 208.15 114.882 208.068 115.151C207.986 115.416 207.941 115.746 207.932 116.143V116.211H206.756V116.143ZM207.385 119.082C207.225 119.082 207.077 119.041 206.94 118.959C206.808 118.877 206.701 118.77 206.619 118.638C206.542 118.501 206.505 118.353 206.51 118.193C206.505 118.038 206.542 117.893 206.619 117.756C206.701 117.619 206.808 117.512 206.94 117.435C207.077 117.357 207.225 117.318 207.385 117.318C207.544 117.318 207.69 117.357 207.822 117.435C207.959 117.512 208.066 117.619 208.144 117.756C208.221 117.893 208.26 118.038 208.26 118.193C208.26 118.353 208.221 118.501 208.144 118.638C208.066 118.77 207.959 118.877 207.822 118.959C207.69 119.041 207.544 119.082 207.385 119.082Z" fill="#0E0E0E"/>
<path d="M49.7207 92.6416H41.7637V91.2607H49.7207V92.6416ZM51.751 96.9619H40.376V95.5811H51.751V96.9619ZM46.8975 99.0332H45.1816V96.5244H46.8975V99.0332ZM50.4043 92.2314C50.4043 92.9788 50.3815 93.6488 50.3359 94.2412C50.2949 94.8291 50.1878 95.4785 50.0146 96.1895L48.292 96.0459C48.4014 95.5628 48.4834 95.1071 48.5381 94.6787C48.5928 94.2503 48.627 93.8698 48.6406 93.5371C48.6543 93.2044 48.6634 92.8034 48.668 92.334V92.2314V91.2607H50.4043V92.2314ZM46.043 98.4727C46.9453 98.4727 47.7269 98.5661 48.3877 98.7529C49.0531 98.9352 49.5612 99.2064 49.9121 99.5664C50.2676 99.9264 50.4453 100.355 50.4453 100.852C50.4453 101.362 50.2676 101.797 49.9121 102.157C49.5612 102.517 49.0553 102.791 48.3945 102.978C47.7337 103.164 46.9499 103.258 46.043 103.258C45.1315 103.258 44.3431 103.164 43.6777 102.978C43.0169 102.791 42.5088 102.517 42.1533 102.157C41.8024 101.797 41.627 101.362 41.627 100.852C41.627 100.355 41.8024 99.9264 42.1533 99.5664C42.5088 99.2064 43.0192 98.9352 43.6846 98.7529C44.3499 98.5661 45.1361 98.4727 46.043 98.4727ZM46.043 99.8467C45.4551 99.8512 44.9629 99.89 44.5664 99.9629C44.1745 100.036 43.8783 100.147 43.6777 100.298C43.4818 100.444 43.3838 100.628 43.3838 100.852C43.3838 101.084 43.4818 101.275 43.6777 101.426C43.8783 101.576 44.1745 101.69 44.5664 101.768C44.9629 101.84 45.4551 101.877 46.043 101.877C46.6263 101.877 47.1117 101.84 47.499 101.768C47.8864 101.69 48.1803 101.576 48.3809 101.426C48.5814 101.275 48.6816 101.084 48.6816 100.852C48.6816 100.628 48.5814 100.444 48.3809 100.298C48.1803 100.147 47.8841 100.036 47.4922 99.9629C47.1048 99.89 46.6217 99.8512 46.043 99.8467ZM61.8203 92.7783H53.8633V91.3838H61.8203V92.7783ZM63.8506 97.249H52.4756V95.8477H63.8506V97.249ZM62.5039 92.3818C62.5039 93.1019 62.4811 93.7445 62.4355 94.3096C62.3945 94.8747 62.2897 95.5173 62.1211 96.2373L60.3711 96.1895C60.4896 95.7109 60.5762 95.2575 60.6309 94.8291C60.6901 94.3962 60.7266 94.0133 60.7402 93.6807C60.7539 93.348 60.763 92.9492 60.7676 92.4844V92.3818V91.3838H62.5039V92.3818ZM62.4629 103.121H53.8086V98.5752H62.4629V103.121ZM55.5312 101.72H60.7266V99.9287H55.5312V101.72ZM75.2598 98.4932H73.5986V90.8301H75.2598V98.4932ZM74.043 95.4307H72.0059V94.0225H74.043V95.4307ZM72.6279 98.3564H71.0078V90.9941H72.6279V98.3564ZM70.6113 93.3936H64.5068V92.0059H70.6113V93.3936ZM67.5762 93.7832C68.1003 93.7832 68.5674 93.8743 68.9775 94.0566C69.3923 94.2344 69.7158 94.4896 69.9482 94.8223C70.1807 95.1504 70.2969 95.5264 70.2969 95.9502C70.2969 96.374 70.1807 96.75 69.9482 97.0781C69.7158 97.4062 69.3923 97.6637 68.9775 97.8506C68.5628 98.0329 68.0957 98.124 67.5762 98.124C67.0612 98.124 66.5986 98.0329 66.1885 97.8506C65.7829 97.6637 65.4639 97.4062 65.2314 97.0781C64.999 96.75 64.8828 96.374 64.8828 95.9502C64.8828 95.5264 64.999 95.1504 65.2314 94.8223C65.4639 94.4896 65.7829 94.2344 66.1885 94.0566C66.5941 93.8743 67.0566 93.7832 67.5762 93.7832ZM67.5762 95.0273C67.3483 95.0273 67.1478 95.0638 66.9746 95.1367C66.806 95.2051 66.6738 95.3099 66.5781 95.4512C66.487 95.5879 66.4414 95.7542 66.4414 95.9502C66.4414 96.1416 66.487 96.3057 66.5781 96.4424C66.6738 96.5791 66.806 96.6862 66.9746 96.7637C67.1478 96.8366 67.3483 96.873 67.5762 96.873C67.804 96.873 68.0046 96.8366 68.1777 96.7637C68.3509 96.6862 68.4854 96.5791 68.5811 96.4424C68.6768 96.3057 68.7246 96.1416 68.7246 95.9502C68.7246 95.7542 68.6768 95.5879 68.5811 95.4512C68.4854 95.3099 68.3509 95.2051 68.1777 95.1367C68.0046 95.0638 67.804 95.0273 67.5762 95.0273ZM68.4375 92.9902H66.6943V90.8848H68.4375V92.9902ZM68.9297 99.1221C68.9342 99.7236 68.8317 100.289 68.6221 100.817C68.4124 101.341 68.0934 101.804 67.665 102.205C67.2412 102.606 66.7148 102.907 66.0859 103.107L65.2588 101.809C65.7783 101.658 66.2135 101.444 66.5645 101.166C66.9154 100.883 67.1751 100.569 67.3438 100.223C67.5169 99.8717 67.6058 99.5049 67.6104 99.1221V98.876H68.9297V99.1221ZM69.3398 99.1221C69.3353 99.514 69.4059 99.89 69.5518 100.25C69.6976 100.605 69.9277 100.934 70.2422 101.234C70.5566 101.531 70.9554 101.768 71.4385 101.945L70.7344 103.23C70.11 103.012 69.5996 102.69 69.2031 102.267C68.8066 101.847 68.5173 101.371 68.335 100.838C68.1527 100.3 68.0615 99.7282 68.0615 99.1221V98.876H69.3398V99.1221ZM73.4141 99.1221C73.4095 99.6872 73.3138 100.241 73.127 100.783C72.9447 101.321 72.653 101.809 72.252 102.246C71.8509 102.684 71.3451 103.012 70.7344 103.23L70.0303 101.945C70.4997 101.749 70.8939 101.496 71.2129 101.187C71.5319 100.877 71.7666 100.544 71.917 100.188C72.0674 99.833 72.1449 99.4775 72.1494 99.1221V98.876H73.4141V99.1221ZM73.8857 99.1221C73.8812 99.5231 73.9632 99.9014 74.1318 100.257C74.3005 100.612 74.5579 100.927 74.9043 101.2C75.2552 101.474 75.695 101.676 76.2236 101.809L75.4238 103.107C74.7812 102.916 74.248 102.622 73.8242 102.226C73.4004 101.834 73.0859 101.376 72.8809 100.852C72.6803 100.323 72.5801 99.7464 72.5801 99.1221V98.876H73.8857V99.1221ZM78.418 96.8184C79.6393 96.8184 80.6283 96.7956 81.3848 96.75C82.1458 96.7044 82.9069 96.611 83.668 96.4697L83.832 97.8643C83.0345 98.001 82.2301 98.0944 81.4189 98.1445C80.6123 98.1947 79.612 98.222 78.418 98.2266H77.4199V96.8184H78.418ZM83.0938 93.0791H79.1494V97.1943H77.4199V91.6777H83.0938V93.0791ZM87.1543 99.8809H85.418V90.8301H87.1543V99.8809ZM85.7256 95.458H82.3691V94.0703H85.7256V95.458ZM87.4482 103.073H78.876V101.672H87.4482V103.073ZM80.6396 102.567H78.876V99.1221H80.6396V102.567ZM94.291 93.0381H96.7383V91.4521H98.4678V97.2695H92.5342V91.4521H94.291V93.0381ZM96.7383 95.875V94.3779H94.291V95.875H96.7383ZM101.147 95.082H98.0645V93.6533H101.147V95.082ZM102.494 97.6318H100.758V90.8027H102.494V97.6318ZM95.9248 99.2861H100.758V98.1377H102.487V103.101H94.1953V98.1377H95.9248V99.2861ZM100.758 101.699V100.633H95.9248V101.699H100.758ZM113.979 99.8809H112.235V90.8232H113.979V99.8809ZM115.66 95.834H113.473V94.3984H115.66V95.834ZM114.423 103.046H105.905V101.638H114.423V103.046ZM107.648 102.267H105.905V98.9307H107.648V102.267ZM107.601 91.6162C108.229 91.6162 108.804 91.7507 109.323 92.0195C109.847 92.2884 110.257 92.6644 110.554 93.1475C110.85 93.6305 111 94.1729 111.005 94.7744C111 95.376 110.85 95.9183 110.554 96.4014C110.257 96.8799 109.847 97.2559 109.323 97.5293C108.804 97.8027 108.229 97.9395 107.601 97.9395C106.972 97.9395 106.397 97.8027 105.878 97.5293C105.358 97.2559 104.946 96.8799 104.641 96.4014C104.34 95.9183 104.189 95.376 104.189 94.7744C104.189 94.1729 104.34 93.6305 104.641 93.1475C104.946 92.6644 105.356 92.2884 105.871 92.0195C106.391 91.7507 106.967 91.6162 107.601 91.6162ZM107.601 93.1338C107.286 93.1338 106.999 93.1999 106.739 93.332C106.484 93.4596 106.281 93.6488 106.131 93.8994C105.98 94.1501 105.905 94.4417 105.905 94.7744C105.905 95.1071 105.98 95.3965 106.131 95.6426C106.281 95.8887 106.484 96.0801 106.739 96.2168C106.999 96.349 107.286 96.415 107.601 96.415C107.924 96.415 108.214 96.349 108.469 96.2168C108.729 96.0846 108.931 95.8955 109.077 95.6494C109.228 95.3988 109.303 95.1071 109.303 94.7744C109.303 94.4372 109.228 94.1455 109.077 93.8994C108.931 93.6488 108.729 93.4596 108.469 93.332C108.214 93.1999 107.924 93.1338 107.601 93.1338ZM121.881 90.9941C122.833 90.9941 123.647 91.0762 124.321 91.2402C125 91.3997 125.515 91.639 125.866 91.958C126.222 92.2725 126.399 92.6553 126.399 93.1064C126.399 93.5667 126.222 93.9564 125.866 94.2754C125.515 94.5944 125.003 94.8359 124.328 95C123.654 95.1641 122.838 95.2461 121.881 95.2461C120.924 95.2461 120.106 95.1641 119.427 95C118.752 94.8359 118.235 94.5944 117.875 94.2754C117.52 93.9564 117.342 93.5667 117.342 93.1064C117.342 92.6553 117.52 92.2725 117.875 91.958C118.235 91.639 118.752 91.3997 119.427 91.2402C120.106 91.0762 120.924 90.9941 121.881 90.9941ZM121.881 92.2656C121.27 92.2656 120.764 92.2975 120.363 92.3613C119.967 92.4251 119.668 92.5208 119.468 92.6484C119.267 92.7715 119.169 92.9242 119.174 93.1064C119.169 93.307 119.265 93.471 119.461 93.5986C119.661 93.7262 119.955 93.8197 120.343 93.8789C120.735 93.9336 121.247 93.9632 121.881 93.9678C122.519 93.9632 123.034 93.9336 123.426 93.8789C123.822 93.8197 124.116 93.7285 124.308 93.6055C124.504 93.4779 124.602 93.3115 124.602 93.1064C124.602 92.9242 124.504 92.7715 124.308 92.6484C124.112 92.5208 123.811 92.4251 123.405 92.3613C123 92.2975 122.492 92.2656 121.881 92.2656ZM127.562 97.2217H116.214V95.8408H127.562V97.2217ZM126.174 101.111H119.242V102.232H117.526V99.8945H124.451V99.2109H117.52V97.9326H126.174V101.111ZM126.502 103.169H117.526V101.863H126.502V103.169ZM131.465 102L134.883 92.1016H137.521L140.946 102H138.738L136.243 94.3369H136.161L133.659 102H131.465ZM138.834 98.1104V99.7168H133.55V98.1104H138.834ZM144.118 102H142.067V92.1016H144.118V102ZM155.145 103.237H153.395V90.8027H155.145V103.237ZM156.901 97.0234H154.693V95.5879H156.901V97.0234ZM151.822 92.0879C151.818 93.3822 151.631 94.5785 151.262 95.6768C150.897 96.7751 150.298 97.7845 149.464 98.7051C148.63 99.6257 147.536 100.419 146.183 101.084L145.198 99.751C146.31 99.1904 147.229 98.5547 147.953 97.8438C148.678 97.1283 149.218 96.3239 149.573 95.4307C149.929 94.5329 150.109 93.5234 150.113 92.4023V92.0879H151.822ZM150.988 93.5166H145.896V92.0879H150.988V93.5166ZM165.863 98.7666H164.134V96.6201H165.863V98.7666ZM164.277 99.5459H169.391V98.4932H171.106V103.121H162.555V98.4932H164.277V99.5459ZM169.391 101.74V100.865H164.277V101.74H169.391ZM171.106 98.001H169.37V90.8301H171.106V98.001ZM160.688 96.0527C162.325 96.0573 163.774 96.0413 165.036 96.0049C166.299 95.9639 167.515 95.8704 168.687 95.7246L168.782 96.9551C167.588 97.1602 166.36 97.2946 165.098 97.3584C163.84 97.4176 162.438 97.4473 160.894 97.4473L160.688 96.0527ZM165.392 91.6299C165.387 92.2633 165.253 92.8467 164.988 93.3799C164.729 93.9085 164.337 94.3643 163.812 94.7471C163.288 95.1299 162.646 95.4033 161.885 95.5674L161.119 94.2275C161.757 94.0999 162.29 93.9062 162.719 93.6465C163.152 93.3822 163.473 93.0791 163.683 92.7373C163.892 92.391 163.997 92.0218 163.997 91.6299V91.1309H165.392V91.6299ZM165.795 91.6299C165.795 91.9899 165.897 92.3317 166.103 92.6553C166.312 92.9788 166.629 93.2637 167.053 93.5098C167.481 93.7559 168.005 93.9382 168.625 94.0566L167.88 95.3623C167.123 95.2119 166.485 94.959 165.966 94.6035C165.446 94.248 165.054 93.8174 164.79 93.3115C164.526 92.8057 164.396 92.2451 164.4 91.6299V91.1309H165.795V91.6299ZM183.548 103.258H181.907V90.8027H183.548V103.258ZM179.597 96.9961H176.876V95.6084H179.597V96.9961ZM180.902 102.711H179.262V91.0967H180.902V102.711ZM178.209 92.293C178.204 93.528 178.056 94.6468 177.765 95.6494C177.478 96.652 176.994 97.5771 176.315 98.4248C175.641 99.2679 174.736 100.015 173.602 100.667L172.617 99.4434C173.561 98.8828 174.317 98.2699 174.887 97.6045C175.461 96.9346 175.876 96.1963 176.131 95.3896C176.386 94.583 176.516 93.6693 176.521 92.6484V92.293H178.209ZM177.081 93.6943H173.301V92.293H177.081V93.6943ZM192.38 100.64H190.65V97.1465H192.38V100.64ZM196.96 100.64H195.203V97.1465H196.96V100.64ZM199.489 101.802H188.114V100.373H199.489V101.802ZM193.781 91.418C194.679 91.418 195.481 91.557 196.188 91.835C196.898 92.113 197.454 92.5049 197.855 93.0107C198.261 93.5166 198.464 94.0977 198.464 94.7539C198.464 95.4193 198.263 96.0026 197.862 96.5039C197.461 97.0052 196.905 97.3949 196.194 97.6729C195.483 97.9508 194.679 98.0898 193.781 98.0898C192.883 98.0898 192.079 97.9508 191.368 97.6729C190.662 97.3949 190.108 97.0052 189.707 96.5039C189.306 96.0026 189.105 95.4193 189.105 94.7539C189.105 94.0977 189.306 93.5166 189.707 93.0107C190.108 92.5049 190.662 92.113 191.368 91.835C192.079 91.557 192.883 91.418 193.781 91.418ZM193.781 92.7988C193.184 92.7943 192.665 92.8695 192.223 93.0244C191.781 93.1794 191.437 93.4049 191.19 93.7012C190.949 93.9974 190.828 94.3483 190.828 94.7539C190.828 95.1595 190.949 95.5127 191.19 95.8135C191.437 96.1097 191.781 96.3376 192.223 96.4971C192.669 96.6566 193.189 96.7386 193.781 96.7432C194.369 96.7386 194.886 96.6566 195.333 96.4971C195.78 96.333 196.126 96.1029 196.372 95.8066C196.618 95.5104 196.741 95.1595 196.741 94.7539C196.741 94.3483 196.618 93.9974 196.372 93.7012C196.126 93.4049 195.78 93.1794 195.333 93.0244C194.886 92.8695 194.369 92.7943 193.781 92.7988ZM211.698 93.8721H209.538V92.4639H211.698V93.8721ZM211.698 96.5859H209.538V95.1367H211.698V96.5859ZM210.078 98.1514H208.335V90.8027H210.078V98.1514ZM210.078 103.258H208.335V100.065H201.704V98.6504H210.078V103.258ZM203.7 91.5C204.338 91.5 204.915 91.6299 205.43 91.8896C205.949 92.1494 206.357 92.5094 206.653 92.9697C206.95 93.43 207.1 93.9495 207.104 94.5283C207.1 95.1117 206.95 95.6357 206.653 96.1006C206.357 96.5609 205.949 96.9232 205.43 97.1875C204.915 97.4518 204.338 97.584 203.7 97.584C203.058 97.584 202.477 97.4518 201.957 97.1875C201.442 96.9232 201.034 96.5609 200.733 96.1006C200.437 95.6357 200.289 95.1117 200.289 94.5283C200.289 93.9495 200.437 93.43 200.733 92.9697C201.034 92.5094 201.444 92.1494 201.964 91.8896C202.483 91.6299 203.062 91.5 203.7 91.5ZM203.7 92.9766C203.372 92.9811 203.08 93.0449 202.825 93.168C202.57 93.2865 202.369 93.4642 202.224 93.7012C202.078 93.9336 202.005 94.2093 202.005 94.5283C202.005 94.8519 202.078 95.1322 202.224 95.3691C202.369 95.6016 202.57 95.7816 202.825 95.9092C203.085 96.0322 203.377 96.0938 203.7 96.0938C204.024 96.0938 204.313 96.0322 204.568 95.9092C204.828 95.7816 205.031 95.6016 205.177 95.3691C205.327 95.1322 205.402 94.8519 205.402 94.5283C205.402 94.2139 205.327 93.9404 205.177 93.708C205.031 93.471 204.83 93.291 204.575 93.168C204.32 93.0449 204.028 92.9811 203.7 92.9766ZM218.309 94.0977H212.286V92.71H218.309V94.0977ZM215.321 94.6582C215.845 94.6582 216.315 94.7835 216.729 95.0342C217.149 95.2848 217.475 95.6357 217.707 96.0869C217.939 96.5335 218.056 97.0417 218.056 97.6113C218.056 98.1855 217.939 98.696 217.707 99.1426C217.475 99.5892 217.149 99.9424 216.729 100.202C216.315 100.457 215.845 100.585 215.321 100.585C214.802 100.585 214.332 100.457 213.913 100.202C213.494 99.9424 213.168 99.5892 212.936 99.1426C212.703 98.6914 212.587 98.181 212.587 97.6113C212.587 97.0462 212.703 96.5404 212.936 96.0938C213.173 95.6426 213.498 95.2917 213.913 95.041C214.332 94.7858 214.802 94.6582 215.321 94.6582ZM215.321 96.1074C215.08 96.1074 214.868 96.1667 214.686 96.2852C214.508 96.4036 214.369 96.5768 214.269 96.8047C214.168 97.0326 214.12 97.3014 214.125 97.6113C214.12 97.9212 214.168 98.1878 214.269 98.4111C214.369 98.6344 214.508 98.8053 214.686 98.9238C214.868 99.0423 215.077 99.1016 215.314 99.1016C215.556 99.1016 215.768 99.0423 215.95 98.9238C216.132 98.8053 216.274 98.6344 216.374 98.4111C216.479 98.1878 216.531 97.9212 216.531 97.6113C216.531 97.3014 216.479 97.0326 216.374 96.8047C216.274 96.5768 216.13 96.4036 215.943 96.2852C215.761 96.1667 215.554 96.1074 215.321 96.1074ZM223.066 103.258H221.405V90.8027H223.066V103.258ZM221.959 97.2695H219.867V95.8818H221.959V97.2695ZM220.4 102.725H218.767V91.0625H220.4V102.725ZM216.176 93.585H214.46V91.1582H216.176V93.585ZM228.966 92.9424C228.961 93.5303 228.822 94.0658 228.549 94.5488C228.275 95.0319 227.863 95.4443 227.312 95.7861C226.76 96.1234 226.081 96.3649 225.274 96.5107L224.577 95.1777C225.229 95.0775 225.778 94.9157 226.225 94.6924C226.671 94.4645 227.002 94.2002 227.216 93.8994C227.435 93.5986 227.544 93.2796 227.544 92.9424V92.2383H228.966V92.9424ZM229.328 92.9424C229.324 93.2568 229.428 93.5553 229.643 93.8379C229.857 94.1159 230.176 94.362 230.6 94.5762C231.023 94.7904 231.548 94.943 232.172 95.0342L231.475 96.3672C230.704 96.2396 230.05 96.0117 229.513 95.6836C228.979 95.3509 228.578 94.9521 228.31 94.4873C228.041 94.0179 227.906 93.5029 227.906 92.9424V92.2383H229.328V92.9424ZM231.762 92.9834H225.104V91.6094H231.762V92.9834ZM229.232 102.896H227.462V97.7959H229.232V102.896ZM235.036 103.251H233.259V90.8301H235.036V103.251ZM224.358 97.2354C225.881 97.2399 227.307 97.2171 228.638 97.167C229.973 97.1169 231.235 97.012 232.425 96.8525L232.534 98.1172C231.313 98.3451 230.064 98.4932 228.788 98.5615C227.517 98.6253 226.108 98.6595 224.563 98.6641L224.358 97.2354ZM233.621 100.571H230.716V99.2656H233.621V100.571ZM240.778 100.64H239.049V97.1465H240.778V100.64ZM245.358 100.64H243.602V97.1465H245.358V100.64ZM247.888 101.802H236.513V100.373H247.888V101.802ZM242.18 91.418C243.077 91.418 243.88 91.557 244.586 91.835C245.297 92.113 245.853 92.5049 246.254 93.0107C246.66 93.5166 246.862 94.0977 246.862 94.7539C246.862 95.4193 246.662 96.0026 246.261 96.5039C245.86 97.0052 245.304 97.3949 244.593 97.6729C243.882 97.9508 243.077 98.0898 242.18 98.0898C241.282 98.0898 240.478 97.9508 239.767 97.6729C239.06 97.3949 238.507 97.0052 238.105 96.5039C237.704 96.0026 237.504 95.4193 237.504 94.7539C237.504 94.0977 237.704 93.5166 238.105 93.0107C238.507 92.5049 239.06 92.113 239.767 91.835C240.478 91.557 241.282 91.418 242.18 91.418ZM242.18 92.7988C241.583 92.7943 241.063 92.8695 240.621 93.0244C240.179 93.1794 239.835 93.4049 239.589 93.7012C239.347 93.9974 239.227 94.3483 239.227 94.7539C239.227 95.1595 239.347 95.5127 239.589 95.8135C239.835 96.1097 240.179 96.3376 240.621 96.4971C241.068 96.6566 241.587 96.7386 242.18 96.7432C242.768 96.7386 243.285 96.6566 243.731 96.4971C244.178 96.333 244.524 96.1029 244.771 95.8066C245.017 95.5104 245.14 95.1595 245.14 94.7539C245.14 94.3483 245.017 93.9974 244.771 93.7012C244.524 93.4049 244.178 93.1794 243.731 93.0244C243.285 92.8695 242.768 92.7943 242.18 92.7988ZM250.212 102.123C250.007 102.123 249.815 102.073 249.638 101.973C249.46 101.868 249.319 101.727 249.214 101.549C249.114 101.371 249.066 101.177 249.07 100.968C249.066 100.763 249.114 100.574 249.214 100.4C249.319 100.227 249.46 100.09 249.638 99.9902C249.815 99.89 250.007 99.8398 250.212 99.8398C250.412 99.8398 250.602 99.89 250.779 99.9902C250.957 100.09 251.096 100.229 251.196 100.407C251.301 100.58 251.356 100.767 251.36 100.968C251.356 101.177 251.301 101.371 251.196 101.549C251.096 101.727 250.957 101.868 250.779 101.973C250.602 102.073 250.412 102.123 250.212 102.123Z" fill="#464646"/>
<defs>
<filter id="filter0_b_797_39" x="-17.4636" y="-17.4636" width="319.927" height="226.757" filterUnits="userSpaceOnUse" color-interpolation-filters="sRGB">
<feFlood flood-opacity="0" result="BackgroundImageFix"/>
<feGaussianBlur in="BackgroundImageFix" stdDeviation="8.7318"/>
<feComposite in2="SourceAlpha" operator="in" result="effect1_backgroundBlur_797_39"/>
<feBlend mode="normal" in="SourceGraphic" in2="effect1_backgroundBlur_797_39" result="shape"/>
</filter>
</defs>
</svg>
