<svg width="267" height="329" viewBox="0 0 267 329" fill="none" xmlns="http://www.w3.org/2000/svg">
<g filter="url(#filter0_df_359_1330)">
<path d="M84.6675 173.092C93.1602 185.501 84.5337 206.177 65.3998 219.271C46.2659 232.366 23.8701 232.921 15.3774 220.511C6.8847 208.102 15.5111 187.427 34.645 174.332C53.779 161.237 76.1748 160.682 84.6675 173.092Z" fill="url(#paint0_linear_359_1330)"/>
</g>
<g filter="url(#filter1_df_359_1330)">
<path d="M66.8553 243.431C42.8407 187.521 77.3629 154.751 121.06 135.982C161.207 118.738 204.999 124.507 222.99 175.767C238.379 219.614 186.22 282.995 172.65 298.466C170.708 300.68 167.799 301.651 164.925 301.011C147.121 297.044 82.7107 280.346 66.8553 243.431Z" fill="url(#paint1_linear_359_1330)"/>
</g>
<g filter="url(#filter2_df_359_1330)">
<path d="M233.327 107.396C233.327 175.398 178.691 193.822 120.502 193.822C67.0408 193.822 20.5937 168.584 25.1199 108.013C29.0708 55.1426 121.923 12.4065 142.273 3.65615C144.773 2.58135 147.547 2.84196 149.826 4.32781C166.319 15.0794 233.327 61.5794 233.327 107.396Z" fill="url(#paint2_linear_359_1330)"/>
</g>
<g filter="url(#filter3_dif_359_1330)">
<path d="M204.527 123.838C204.527 154.854 169.583 179.998 126.479 179.998C83.3738 179.998 48.4305 154.854 48.4305 123.838C48.4305 92.8218 83.3738 67.6781 126.479 67.6781C169.583 67.6781 204.527 92.8218 204.527 123.838Z" fill="url(#paint3_linear_359_1330)"/>
</g>
<g filter="url(#filter4_f_359_1330)">
<path d="M81.8872 125.333C88.9733 125.333 94.7176 129.29 94.7176 134.171C94.7176 139.053 88.9733 143.01 81.8872 143.01C74.8012 143.01 69.0568 139.053 69.0568 134.171C69.0568 129.29 74.8012 125.333 81.8872 125.333Z" fill="url(#paint4_linear_359_1330)"/>
</g>
<g filter="url(#filter5_f_359_1330)">
<path d="M160.01 125.333C152.924 125.333 147.18 129.29 147.18 134.171C147.18 139.053 152.924 143.01 160.01 143.01C167.096 143.01 172.841 139.053 172.841 134.171C172.841 129.29 167.096 125.333 160.01 125.333Z" fill="url(#paint5_linear_359_1330)"/>
</g>
<g filter="url(#filter6_f_359_1330)">
<path d="M104.412 117.349C104.412 123.963 99.8162 129.324 94.1474 129.324C88.4786 129.324 83.8831 123.963 83.8831 117.349C83.8831 110.736 88.4786 105.374 94.1474 105.374C99.8162 105.374 104.412 110.736 104.412 117.349Z" fill="#5379C2"/>
</g>
<g filter="url(#filter7_f_359_1330)">
<path d="M98.7094 123.007C98.7094 125.606 95.4227 125.903 94.1474 125.903C92.8721 125.903 89.5855 125.606 89.5855 123.007C89.5855 121.494 91.628 123.731 94.1474 123.731C96.6669 123.731 98.7094 121.494 98.7094 123.007Z" fill="#C4E4C9"/>
</g>
<g filter="url(#filter8_f_359_1330)">
<path d="M98.7093 112.787C98.7093 115.307 96.9221 117.349 94.7176 117.349C92.5131 117.349 90.7259 115.307 90.7259 112.787C90.7259 110.268 92.5131 108.225 94.7176 108.225C96.9221 108.225 98.7093 110.268 98.7093 112.787Z" fill="#F6F6F6"/>
</g>
<g filter="url(#filter9_f_359_1330)">
<path d="M158.584 117.349C158.584 123.963 153.989 129.324 148.32 129.324C142.651 129.324 138.056 123.963 138.056 117.349C138.056 110.736 142.651 105.374 148.32 105.374C153.989 105.374 158.584 110.736 158.584 117.349Z" fill="#5379C2"/>
</g>
<g filter="url(#filter10_f_359_1330)">
<path d="M152.882 123.007C152.882 125.606 149.595 125.903 148.32 125.903C147.045 125.903 143.758 125.606 143.758 123.007C143.758 121.494 145.801 123.731 148.32 123.731C150.84 123.731 152.882 121.494 152.882 123.007Z" fill="#C4E4C9"/>
</g>
<g filter="url(#filter11_f_359_1330)">
<path d="M152.306 112.787C152.306 115.307 150.519 117.349 148.314 117.349C146.11 117.349 144.323 115.307 144.323 112.787C144.323 110.268 146.11 108.225 148.314 108.225C150.519 108.225 152.306 110.268 152.306 112.787Z" fill="#F6F6F6"/>
</g>
<g filter="url(#filter12_df_359_1330)">
<path d="M198.757 165.723C211.476 157.701 231.813 167.096 244.182 186.707C256.55 206.319 256.265 228.719 243.546 236.741C230.827 244.763 210.49 235.368 198.121 215.756C185.753 196.145 186.037 173.744 198.757 165.723Z" fill="url(#paint6_linear_359_1330)"/>
</g>
<g filter="url(#filter13_f_359_1330)">
<path d="M107 137C107 141.971 113.044 146 120.5 146C127.956 146 134 141.971 134 137" stroke="#557BC4" stroke-width="3.36" stroke-linecap="round"/>
</g>
<g filter="url(#filter14_f_359_1330)">
<path fill-rule="evenodd" clip-rule="evenodd" d="M94.56 99.9341C95.3553 99.9341 96 100.507 96 101.214L96 106.334C96 107.041 95.3553 107.614 94.56 107.614C93.7647 107.614 93.12 107.041 93.12 106.334L93.12 101.214C93.12 100.507 93.7647 99.9341 94.56 99.9341Z" fill="#547AC3"/>
</g>
<g filter="url(#filter15_f_359_1330)">
<path fill-rule="evenodd" clip-rule="evenodd" d="M148.32 99.9341C149.115 99.9341 149.76 100.507 149.76 101.214L149.76 106.334C149.76 107.041 149.115 107.614 148.32 107.614C147.525 107.614 146.88 107.041 146.88 106.334L146.88 101.214C146.88 100.507 147.525 99.9341 148.32 99.9341Z" fill="#547AC3"/>
</g>
<defs>
<filter id="filter0_df_359_1330" x="10.1886" y="162.408" width="79.6677" height="70.8993" filterUnits="userSpaceOnUse" color-interpolation-filters="sRGB">
<feFlood flood-opacity="0" result="BackgroundImageFix"/>
<feColorMatrix in="SourceAlpha" type="matrix" values="0 0 0 0 0 0 0 0 0 0 0 0 0 0 0 0 0 0 127 0" result="hardAlpha"/>
<feOffset dy="1.92"/>
<feGaussianBlur stdDeviation="0.96"/>
<feComposite in2="hardAlpha" operator="out"/>
<feColorMatrix type="matrix" values="0 0 0 0 0 0 0 0 0 0 0 0 0 0 0 0 0 0 0.25 0"/>
<feBlend mode="normal" in2="BackgroundImageFix" result="effect1_dropShadow_359_1330"/>
<feBlend mode="normal" in="SourceGraphic" in2="effect1_dropShadow_359_1330" result="shape"/>
<feGaussianBlur stdDeviation="0.864" result="effect2_foregroundBlur_359_1330"/>
</filter>
<filter id="filter1_df_359_1330" x="53.213" y="123.777" width="178.349" height="185.492" filterUnits="userSpaceOnUse" color-interpolation-filters="sRGB">
<feFlood flood-opacity="0" result="BackgroundImageFix"/>
<feColorMatrix in="SourceAlpha" type="matrix" values="0 0 0 0 0 0 0 0 0 0 0 0 0 0 0 0 0 0 127 0" result="hardAlpha"/>
<feOffset dy="2.304"/>
<feGaussianBlur stdDeviation="2.88"/>
<feComposite in2="hardAlpha" operator="out"/>
<feColorMatrix type="matrix" values="0 0 0 0 0 0 0 0 0 0 0 0 0 0 0 0 0 0 0.25 0"/>
<feBlend mode="normal" in2="BackgroundImageFix" result="effect1_dropShadow_359_1330"/>
<feBlend mode="normal" in="SourceGraphic" in2="effect1_dropShadow_359_1330" result="shape"/>
<feGaussianBlur stdDeviation="1.152" result="effect2_foregroundBlur_359_1330"/>
</filter>
<filter id="filter2_df_359_1330" x="22.5105" y="0.696" width="213.216" height="196.966" filterUnits="userSpaceOnUse" color-interpolation-filters="sRGB">
<feFlood flood-opacity="0" result="BackgroundImageFix"/>
<feColorMatrix in="SourceAlpha" type="matrix" values="0 0 0 0 0 0 0 0 0 0 0 0 0 0 0 0 0 0 127 0" result="hardAlpha"/>
<feOffset dx="0.48" dy="1.92"/>
<feGaussianBlur stdDeviation="0.96"/>
<feComposite in2="hardAlpha" operator="out"/>
<feColorMatrix type="matrix" values="0 0 0 0 0 0 0 0 0 0 0 0 0 0 0 0 0 0 0.25 0"/>
<feBlend mode="normal" in2="BackgroundImageFix" result="effect1_dropShadow_359_1330"/>
<feBlend mode="normal" in="SourceGraphic" in2="effect1_dropShadow_359_1330" result="shape"/>
<feGaussianBlur stdDeviation="1.152" result="effect2_foregroundBlur_359_1330"/>
</filter>
<filter id="filter3_dif_359_1330" x="42.6705" y="64.2221" width="167.616" height="123.84" filterUnits="userSpaceOnUse" color-interpolation-filters="sRGB">
<feFlood flood-opacity="0" result="BackgroundImageFix"/>
<feColorMatrix in="SourceAlpha" type="matrix" values="0 0 0 0 0 0 0 0 0 0 0 0 0 0 0 0 0 0 127 0" result="hardAlpha"/>
<feOffset dy="2.304"/>
<feGaussianBlur stdDeviation="2.88"/>
<feComposite in2="hardAlpha" operator="out"/>
<feColorMatrix type="matrix" values="0 0 0 0 0 0 0 0 0 0 0 0 0 0 0 0 0 0 0.1 0"/>
<feBlend mode="normal" in2="BackgroundImageFix" result="effect1_dropShadow_359_1330"/>
<feBlend mode="normal" in="SourceGraphic" in2="effect1_dropShadow_359_1330" result="shape"/>
<feColorMatrix in="SourceAlpha" type="matrix" values="0 0 0 0 0 0 0 0 0 0 0 0 0 0 0 0 0 0 127 0" result="hardAlpha"/>
<feOffset dy="2.304"/>
<feGaussianBlur stdDeviation="8.64"/>
<feComposite in2="hardAlpha" operator="arithmetic" k2="-1" k3="1"/>
<feColorMatrix type="matrix" values="0 0 0 0 0 0 0 0 0 0 0 0 0 0 0 0 0 0 0.2 0"/>
<feBlend mode="normal" in2="shape" result="effect2_innerShadow_359_1330"/>
<feGaussianBlur stdDeviation="0.288" result="effect3_foregroundBlur_359_1330"/>
</filter>
<filter id="filter4_f_359_1330" x="66.2056" y="122.482" width="31.3632" height="23.3798" filterUnits="userSpaceOnUse" color-interpolation-filters="sRGB">
<feFlood flood-opacity="0" result="BackgroundImageFix"/>
<feBlend mode="normal" in="SourceGraphic" in2="BackgroundImageFix" result="shape"/>
<feGaussianBlur stdDeviation="1.4256" result="effect1_foregroundBlur_359_1330"/>
</filter>
<filter id="filter5_f_359_1330" x="144.328" y="122.482" width="31.3632" height="23.3798" filterUnits="userSpaceOnUse" color-interpolation-filters="sRGB">
<feFlood flood-opacity="0" result="BackgroundImageFix"/>
<feBlend mode="normal" in="SourceGraphic" in2="BackgroundImageFix" result="shape"/>
<feGaussianBlur stdDeviation="1.4256" result="effect1_foregroundBlur_359_1330"/>
</filter>
<filter id="filter6_f_359_1330" x="82.7426" y="104.234" width="22.8096" height="26.231" filterUnits="userSpaceOnUse" color-interpolation-filters="sRGB">
<feFlood flood-opacity="0" result="BackgroundImageFix"/>
<feBlend mode="normal" in="SourceGraphic" in2="BackgroundImageFix" result="shape"/>
<feGaussianBlur stdDeviation="0.57024" result="effect1_foregroundBlur_359_1330"/>
</filter>
<filter id="filter7_f_359_1330" x="87.8748" y="120.771" width="12.5453" height="6.84289" filterUnits="userSpaceOnUse" color-interpolation-filters="sRGB">
<feFlood flood-opacity="0" result="BackgroundImageFix"/>
<feBlend mode="normal" in="SourceGraphic" in2="BackgroundImageFix" result="shape"/>
<feGaussianBlur stdDeviation="0.85536" result="effect1_foregroundBlur_359_1330"/>
</filter>
<filter id="filter8_f_359_1330" x="90.1557" y="107.655" width="9.12385" height="10.2643" filterUnits="userSpaceOnUse" color-interpolation-filters="sRGB">
<feFlood flood-opacity="0" result="BackgroundImageFix"/>
<feBlend mode="normal" in="SourceGraphic" in2="BackgroundImageFix" result="shape"/>
<feGaussianBlur stdDeviation="0.28512" result="effect1_foregroundBlur_359_1330"/>
</filter>
<filter id="filter9_f_359_1330" x="136.915" y="104.234" width="22.8096" height="26.231" filterUnits="userSpaceOnUse" color-interpolation-filters="sRGB">
<feFlood flood-opacity="0" result="BackgroundImageFix"/>
<feBlend mode="normal" in="SourceGraphic" in2="BackgroundImageFix" result="shape"/>
<feGaussianBlur stdDeviation="0.57024" result="effect1_foregroundBlur_359_1330"/>
</filter>
<filter id="filter10_f_359_1330" x="142.048" y="120.771" width="12.5453" height="6.84289" filterUnits="userSpaceOnUse" color-interpolation-filters="sRGB">
<feFlood flood-opacity="0" result="BackgroundImageFix"/>
<feBlend mode="normal" in="SourceGraphic" in2="BackgroundImageFix" result="shape"/>
<feGaussianBlur stdDeviation="0.85536" result="effect1_foregroundBlur_359_1330"/>
</filter>
<filter id="filter11_f_359_1330" x="143.752" y="107.655" width="9.12385" height="10.2643" filterUnits="userSpaceOnUse" color-interpolation-filters="sRGB">
<feFlood flood-opacity="0" result="BackgroundImageFix"/>
<feBlend mode="normal" in="SourceGraphic" in2="BackgroundImageFix" result="shape"/>
<feGaussianBlur stdDeviation="0.28512" result="effect1_foregroundBlur_359_1330"/>
</filter>
<filter id="filter12_df_359_1330" x="183.268" y="159.401" width="75.7669" height="88.2701" filterUnits="userSpaceOnUse" color-interpolation-filters="sRGB">
<feFlood flood-opacity="0" result="BackgroundImageFix"/>
<feColorMatrix in="SourceAlpha" type="matrix" values="0 0 0 0 0 0 0 0 0 0 0 0 0 0 0 0 0 0 127 0" result="hardAlpha"/>
<feOffset dy="2.304"/>
<feGaussianBlur stdDeviation="2.88"/>
<feComposite in2="hardAlpha" operator="out"/>
<feColorMatrix type="matrix" values="0 0 0 0 0 0 0 0 0 0 0 0 0 0 0 0 0 0 0.2 0"/>
<feBlend mode="normal" in2="BackgroundImageFix" result="effect1_dropShadow_359_1330"/>
<feBlend mode="normal" in="SourceGraphic" in2="effect1_dropShadow_359_1330" result="shape"/>
<feGaussianBlur stdDeviation="0.72" result="effect2_foregroundBlur_359_1330"/>
</filter>
<filter id="filter13_f_359_1330" x="104.32" y="134.32" width="32.36" height="14.36" filterUnits="userSpaceOnUse" color-interpolation-filters="sRGB">
<feFlood flood-opacity="0" result="BackgroundImageFix"/>
<feBlend mode="normal" in="SourceGraphic" in2="BackgroundImageFix" result="shape"/>
<feGaussianBlur stdDeviation="0.5" result="effect1_foregroundBlur_359_1330"/>
</filter>
<filter id="filter14_f_359_1330" x="92.64" y="99.4541" width="3.84" height="8.63999" filterUnits="userSpaceOnUse" color-interpolation-filters="sRGB">
<feFlood flood-opacity="0" result="BackgroundImageFix"/>
<feBlend mode="normal" in="SourceGraphic" in2="BackgroundImageFix" result="shape"/>
<feGaussianBlur stdDeviation="0.24" result="effect1_foregroundBlur_359_1330"/>
</filter>
<filter id="filter15_f_359_1330" x="146.4" y="99.4541" width="3.84" height="8.63999" filterUnits="userSpaceOnUse" color-interpolation-filters="sRGB">
<feFlood flood-opacity="0" result="BackgroundImageFix"/>
<feBlend mode="normal" in="SourceGraphic" in2="BackgroundImageFix" result="shape"/>
<feGaussianBlur stdDeviation="0.24" result="effect1_foregroundBlur_359_1330"/>
</filter>
<linearGradient id="paint0_linear_359_1330" x1="34.645" y1="174.332" x2="65.3998" y2="219.271" gradientUnits="userSpaceOnUse">
<stop stop-color="#E3FEE8"/>
<stop offset="1" stop-color="#9BC7A3"/>
</linearGradient>
<linearGradient id="paint1_linear_359_1330" x1="113.325" y1="170.85" x2="330.504" y2="285.332" gradientUnits="userSpaceOnUse">
<stop stop-color="#D8F5DD"/>
<stop offset="1" stop-color="#709C78"/>
</linearGradient>
<linearGradient id="paint2_linear_359_1330" x1="94.0192" y1="8.07123" x2="203.587" y2="278.343" gradientUnits="userSpaceOnUse">
<stop stop-color="#D8F5DD"/>
<stop offset="1" stop-color="#709C78"/>
</linearGradient>
<linearGradient id="paint3_linear_359_1330" x1="126.479" y1="67.6781" x2="126.479" y2="309.352" gradientUnits="userSpaceOnUse">
<stop stop-color="#F6F6F6"/>
<stop offset="1" stop-color="#5379C2"/>
</linearGradient>
<linearGradient id="paint4_linear_359_1330" x1="88.0458" y1="127.858" x2="76.8142" y2="143.754" gradientUnits="userSpaceOnUse">
<stop stop-color="#FFDEDE"/>
<stop offset="1" stop-color="#FFDEDE" stop-opacity="0.8"/>
</linearGradient>
<linearGradient id="paint5_linear_359_1330" x1="153.852" y1="127.858" x2="165.083" y2="143.754" gradientUnits="userSpaceOnUse">
<stop stop-color="#FFDEDE"/>
<stop offset="1" stop-color="#FFDEDE" stop-opacity="0.8"/>
</linearGradient>
<linearGradient id="paint6_linear_359_1330" x1="197.039" y1="222.046" x2="264.143" y2="174.526" gradientUnits="userSpaceOnUse">
<stop stop-color="#A9CDAF"/>
<stop offset="0.512719" stop-color="#D9F6DE"/>
<stop offset="1" stop-color="#ACCFB2"/>
</linearGradient>
</defs>
</svg>
