<svg width="40" height="40" viewBox="0 0 40 40" fill="none" xmlns="http://www.w3.org/2000/svg">
<path opacity="0.9" d="M20 34.4001C20.6365 34.4001 21.247 34.1472 21.6971 33.6971C22.1471 33.247 22.4 32.6366 22.4 32.0001V12.9921L28.704 19.2961C29.159 19.72 29.7607 19.9508 30.3825 19.9398C31.0042 19.9288 31.5975 19.677 32.0372 19.2372C32.4769 18.7975 32.7288 18.2043 32.7398 17.5825C32.7507 16.9608 32.5199 16.359 32.096 15.9041L21.696 5.50406C21.246 5.05462 20.636 4.80217 20 4.80217C19.364 4.80217 18.754 5.05462 18.304 5.50406L7.904 15.9041C7.66821 16.1238 7.47908 16.3887 7.3479 16.6831C7.21673 16.9775 7.1462 17.2953 7.14051 17.6176C7.13482 17.9398 7.1941 18.2599 7.31481 18.5588C7.43552 18.8576 7.61518 19.1291 7.84308 19.357C8.07098 19.5849 8.34245 19.7645 8.64129 19.8853C8.94013 20.006 9.26023 20.0652 9.58248 20.0596C9.90472 20.0539 10.2225 19.9833 10.5169 19.8522C10.8113 19.721 11.0763 19.5319 11.296 19.2961L17.6 12.9921V32.0001C17.6 33.3249 18.6752 34.4001 20 34.4001Z" fill="#F6F6F6"/>
</svg>