<svg xmlns="http://www.w3.org/2000/svg" width="592" height="243" viewBox="0 0 592 243" fill="none">
<g filter="url(#filter0_b_621_39)">
<path fill-rule="evenodd" clip-rule="evenodd" d="M101.5 0C45.4431 0 0 45.4431 0 101.5C0 157.557 45.4431 203 101.5 203H484.785C485.478 203 486.131 203.282 486.61 203.783C502.968 220.887 534.232 238.345 588.276 242.234C591.254 242.449 592.108 237.334 589.331 236.24C568.348 227.969 544.652 213.415 537.614 191.983C537.255 190.891 537.753 189.714 538.745 189.133C568.81 171.514 589 138.865 589 101.5C589 45.4431 543.557 0 487.5 0H101.5Z" fill="#F6F6F6" fill-opacity="0.5"/>
</g>
<path d="M94.0234 67.9453H92.1719V47.0625H94.0234V67.9453ZM82.9375 48.6797C83.9688 48.6797 84.8867 48.9766 85.6914 49.5703C86.4961 50.1641 87.125 51.0117 87.5781 52.1133C88.0312 53.2148 88.2578 54.4922 88.2578 55.9453C88.2578 57.3984 88.0312 58.6719 87.5781 59.7656C87.125 60.8594 86.4961 61.7031 85.6914 62.2969C84.8867 62.8906 83.9688 63.1875 82.9375 63.1875C81.9062 63.1875 80.9883 62.8906 80.1836 62.2969C79.3789 61.7031 78.75 60.8594 78.2969 59.7656C77.8438 58.6719 77.6172 57.3984 77.6172 55.9453C77.6172 54.4922 77.8438 53.2148 78.2969 52.1133C78.75 51.0117 79.3789 50.1641 80.1836 49.5703C80.9883 48.9766 81.9062 48.6797 82.9375 48.6797ZM82.9375 50.3203C82.25 50.3203 81.6367 50.5547 81.0977 51.0234C80.5586 51.4922 80.1406 52.1523 79.8438 53.0039C79.5469 53.8555 79.3984 54.8359 79.3984 55.9453C79.3984 57.0625 79.5469 58.0469 79.8438 58.8984C80.1406 59.7422 80.5586 60.3945 81.0977 60.8555C81.6367 61.3164 82.25 61.5469 82.9375 61.5469C83.6328 61.5469 84.2461 61.3164 84.7773 60.8555C85.3164 60.3945 85.7344 59.7422 86.0312 58.8984C86.3281 58.0469 86.4766 57.0625 86.4766 55.9453C86.4766 54.8281 86.3281 53.8477 86.0312 53.0039C85.7344 52.1523 85.3164 51.4922 84.7773 51.0234C84.2461 50.5547 83.6328 50.3203 82.9375 50.3203ZM115.398 67.8984H113.641V47.0625H115.398V67.8984ZM110.008 56.0859H105.93V54.5859H110.008V56.0859ZM111.18 66.8203H109.445V47.5781H111.18V66.8203ZM103.375 53.0156C103.367 54.5156 103.164 55.9648 102.766 57.3633C102.375 58.7617 101.812 60.0195 101.078 61.1367C100.352 62.2461 99.4922 63.1094 98.5 63.7266L97.3281 62.3438C98.2734 61.7812 99.0938 61.0078 99.7891 60.0234C100.492 59.0391 101.023 57.9414 101.383 56.7305C101.75 55.5195 101.93 54.2812 101.922 53.0156V50.2969H103.375V53.0156ZM103.703 53.0156C103.703 54.2266 103.883 55.4062 104.242 56.5547C104.602 57.6953 105.117 58.7344 105.789 59.6719C106.461 60.6016 107.266 61.3359 108.203 61.875L107.078 63.2344C106.078 62.6328 105.223 61.8086 104.512 60.7617C103.801 59.707 103.254 58.5156 102.871 57.1875C102.496 55.8516 102.312 54.4609 102.32 53.0156V50.2969H103.703V53.0156ZM107.523 51.0469H97.9141V49.5234H107.523V51.0469ZM426.625 52.1719H416.172V50.6719H426.625V52.1719ZM421.398 53.5781C422.266 53.5781 423.039 53.7812 423.719 54.1875C424.406 54.5938 424.941 55.1562 425.324 55.875C425.715 56.5859 425.914 57.3984 425.922 58.3125C425.914 59.2344 425.715 60.0547 425.324 60.7734C424.941 61.4922 424.406 62.0586 423.719 62.4727C423.039 62.8867 422.266 63.0938 421.398 63.0938C420.547 63.0938 419.777 62.8867 419.09 62.4727C418.41 62.0586 417.879 61.4922 417.496 60.7734C417.113 60.0547 416.922 59.2344 416.922 58.3125C416.922 57.4062 417.117 56.5938 417.508 55.875C417.898 55.1562 418.43 54.5938 419.102 54.1875C419.781 53.7812 420.547 53.5781 421.398 53.5781ZM421.398 55.125C420.852 55.1328 420.363 55.2773 419.934 55.5586C419.504 55.832 419.168 56.2109 418.926 56.6953C418.684 57.1719 418.562 57.7109 418.562 58.3125C418.562 58.9219 418.684 59.4648 418.926 59.9414C419.168 60.418 419.504 60.793 419.934 61.0664C420.363 61.3398 420.852 61.4766 421.398 61.4766C421.945 61.4766 422.438 61.3398 422.875 61.0664C423.312 60.793 423.656 60.418 423.906 59.9414C424.156 59.4648 424.281 58.9219 424.281 58.3125C424.281 57.7109 424.156 57.1719 423.906 56.6953C423.656 56.2109 423.312 55.832 422.875 55.5586C422.438 55.2773 421.945 55.1328 421.398 55.125ZM433.961 67.8984H432.203V47.0625H433.961V67.8984ZM432.789 57.375H428.805V55.8516H432.789V57.375ZM429.438 66.8672H427.703V47.5781H429.438V66.8672ZM422.336 51.5859H420.508V47.6953H422.336V51.5859ZM441.32 49.4062H451.633V47.4141H453.461V54.2578H439.492V47.4141H441.32V49.4062ZM451.633 52.8281V50.8125H441.32V52.8281H451.633ZM455.945 57.8203H436.961V56.3203H455.945V57.8203ZM447.32 56.8125H445.516V53.5781H447.32V56.8125ZM453.508 64.1719H441.133V66.7734H439.305V62.8125H451.703V60.9609H439.258V59.5547H453.508V64.1719ZM454.141 67.6641H439.305V66.2109H454.141V67.6641ZM474.203 67.8984H472.352V47.0625H474.203V67.8984ZM477.367 57.2109H473.594V55.6641H477.367V57.2109ZM464.031 49.3359C464.023 51.1016 463.863 52.7812 463.551 54.375C463.246 55.9688 462.73 57.5156 462.004 59.0156C461.285 60.5156 460.32 61.9062 459.109 63.1875L457.633 62.1328C458.758 60.9844 459.664 59.7383 460.352 58.3945C461.039 57.043 461.535 55.6367 461.84 54.1758C462.152 52.7148 462.312 51.1719 462.32 49.5469V49.3359H464.031ZM462.977 50.8828H458.289V49.3359H462.977V50.8828ZM469.75 49.3359C469.742 51.2266 469.613 53.0312 469.363 54.75C469.121 56.4688 468.656 58.1797 467.969 59.8828C467.289 61.5859 466.336 63.1484 465.109 64.5703L463.609 63.5391C464.75 62.2578 465.648 60.8438 466.305 59.2969C466.961 57.75 467.41 56.1719 467.652 54.5625C467.902 52.9453 468.031 51.2578 468.039 49.5V49.3359H469.75ZM468.766 50.8828H464.688V49.3359H468.766V50.8828ZM484.984 64.0547H483.18V57.8203H484.984V64.0547ZM492.789 64.0547H490.938V57.8203H492.789V64.0547ZM497.523 65.2266H478.445V63.6797H497.523V65.2266ZM487.938 48.375C489.414 48.3828 490.727 48.6094 491.875 49.0547C493.031 49.4922 493.934 50.1211 494.582 50.9414C495.23 51.7539 495.555 52.6875 495.555 53.7422C495.555 54.8047 495.23 55.7383 494.582 56.543C493.934 57.3477 493.031 57.9727 491.875 58.418C490.727 58.8633 489.414 59.0859 487.938 59.0859C486.461 59.0859 485.145 58.8633 483.988 58.418C482.84 57.9727 481.941 57.3477 481.293 56.543C480.645 55.7383 480.32 54.8047 480.32 53.7422C480.32 52.6875 480.645 51.7539 481.293 50.9414C481.941 50.1211 482.84 49.4922 483.988 49.0547C485.145 48.6094 486.461 48.3828 487.938 48.375ZM487.938 49.8984C486.805 49.8906 485.793 50.0469 484.902 50.3672C484.02 50.6797 483.332 51.1289 482.84 51.7148C482.348 52.3008 482.102 52.9766 482.102 53.7422C482.102 54.5078 482.348 55.1836 482.84 55.7695C483.332 56.3555 484.02 56.8125 484.902 57.1406C485.793 57.4688 486.805 57.6328 487.938 57.6328C489.062 57.6328 490.066 57.4688 490.949 57.1406C491.832 56.8125 492.523 56.3555 493.023 55.7695C493.523 55.1836 493.773 54.5078 493.773 53.7422C493.773 52.9766 493.523 52.3008 493.023 51.7148C492.523 51.1289 491.832 50.6797 490.949 50.3672C490.066 50.0469 489.062 49.8906 487.938 49.8984ZM502.516 61.1016C502.523 60.0938 502.625 59.2773 502.82 58.6523C503.023 58.0195 503.305 57.5156 503.664 57.1406C504.023 56.7578 504.508 56.3828 505.117 56.0156C505.453 55.8125 505.75 55.5703 506.008 55.2891C506.273 55.0078 506.477 54.6914 506.617 54.3398C506.758 53.9883 506.828 53.6016 506.828 53.1797C506.828 52.6641 506.707 52.207 506.465 51.8086C506.223 51.4102 505.887 51.1055 505.457 50.8945C505.027 50.6758 504.555 50.5703 504.039 50.5781C503.57 50.5703 503.133 50.6641 502.727 50.8594C502.32 51.0469 501.977 51.3477 501.695 51.7617C501.422 52.168 501.266 52.6797 501.227 53.2969H499.094C499.133 52.375 499.371 51.5742 499.809 50.8945C500.254 50.2148 500.844 49.6953 501.578 49.3359C502.32 48.9766 503.141 48.7969 504.039 48.7969C505 48.7969 505.848 48.9883 506.582 49.3711C507.324 49.7539 507.895 50.2852 508.293 50.9648C508.691 51.6445 508.891 52.4141 508.891 53.2734C508.891 54.1641 508.691 54.9414 508.293 55.6055C507.895 56.2617 507.32 56.8203 506.57 57.2812C506.07 57.5859 505.68 57.9023 505.398 58.2305C505.117 58.5508 504.906 58.9414 504.766 59.4023C504.625 59.8555 504.547 60.4219 504.531 61.1016V61.2188H502.516V61.1016ZM503.594 66.1406C503.32 66.1406 503.066 66.0703 502.832 65.9297C502.605 65.7891 502.422 65.6055 502.281 65.3789C502.148 65.1445 502.086 64.8906 502.094 64.6172C502.086 64.3516 502.148 64.1016 502.281 63.8672C502.422 63.6328 502.605 63.4492 502.832 63.3164C503.066 63.1836 503.32 63.1172 503.594 63.1172C503.867 63.1172 504.117 63.1836 504.344 63.3164C504.578 63.4492 504.762 63.6328 504.895 63.8672C505.027 64.1016 505.094 64.3516 505.094 64.6172C505.094 64.8906 505.027 65.1445 504.895 65.3789C504.762 65.6055 504.578 65.7891 504.344 65.9297C504.117 66.0703 503.867 66.1406 503.594 66.1406Z" fill="#0E0E0E"/>
<path d="M127.738 50.3203H132.109V47.7773H135.109V57.0938H124.773V47.7773H127.738V50.3203ZM132.109 54.7383V52.5586H127.738V54.7383H132.109ZM141.062 57.6797H138.074V46.8047H141.062V57.6797ZM143.945 53.4023H139.82V50.9766H143.945V53.4023ZM141.062 64.2773H129.895V66.832H126.953V62.1328H138.086V60.7969H126.918V58.4883H141.062V64.2773ZM141.684 68.0039H126.953V65.6602H141.684V68.0039ZM151.797 48.2461C152.906 48.2461 153.91 48.4727 154.809 48.9258C155.715 49.3711 156.422 49.9922 156.93 50.7891C157.445 51.5859 157.703 52.4844 157.703 53.4844C157.703 54.4922 157.445 55.3945 156.93 56.1914C156.422 56.9805 155.715 57.6016 154.809 58.0547C153.91 58.5 152.906 58.7227 151.797 58.7227C150.68 58.7227 149.668 58.5 148.762 58.0547C147.863 57.6016 147.156 56.9805 146.641 56.1914C146.125 55.3945 145.867 54.4922 145.867 53.4844C145.867 52.4844 146.125 51.5859 146.641 50.7891C147.156 49.9922 147.863 49.3711 148.762 48.9258C149.668 48.4727 150.68 48.2461 151.797 48.2461ZM151.797 50.8242C151.227 50.832 150.719 50.9414 150.273 51.1523C149.828 51.3555 149.477 51.6602 149.219 52.0664C148.961 52.4727 148.832 52.9453 148.832 53.4844C148.832 54.0391 148.961 54.5156 149.219 54.9141C149.477 55.3047 149.828 55.6055 150.273 55.8164C150.719 56.0273 151.227 56.1367 151.797 56.1445C152.367 56.1367 152.879 56.0273 153.332 55.8164C153.793 55.6055 154.148 55.3047 154.398 54.9141C154.656 54.5156 154.785 54.0391 154.785 53.4844C154.785 52.9453 154.656 52.4727 154.398 52.0664C154.148 51.6602 153.793 51.3555 153.332 51.1523C152.879 50.9414 152.367 50.832 151.797 50.8242ZM162.801 68.2148H159.836V46.8047H162.801V68.2148ZM144.977 61.418C147.523 61.418 149.926 61.375 152.184 61.2891C154.449 61.2031 156.598 61.0195 158.629 60.7383L158.84 62.8828C157.379 63.1719 155.863 63.3867 154.293 63.5273C152.723 63.6602 151.242 63.7461 149.852 63.7852C148.461 63.8242 146.953 63.8438 145.328 63.8438L144.977 61.418ZM178.07 55.7461H167.523V53.3789H178.07V55.7461ZM174.238 58.9805H171.262V54.9023H174.238V58.9805ZM177.895 50.5078H170.523V54.375H167.523V48.1055H177.895V50.5078ZM183.543 62.8711H180.52V46.8164H183.543V62.8711ZM184.117 67.793H169.012V65.3789H184.117V67.793ZM172.035 66.3164H169.012V61.6758H172.035V66.3164ZM165.895 58.0898C168.574 58.0742 170.98 58.0312 173.113 57.9609C175.254 57.8906 177.281 57.7578 179.195 57.5625L179.406 59.6953C177.359 59.9844 175.234 60.1797 173.031 60.2812C170.836 60.3828 168.531 60.4336 166.117 60.4336L165.73 58.0898H165.895ZM195.836 50.6367H200.031V47.918H202.996V57.8906H192.824V47.918H195.836V50.6367ZM200.031 55.5V52.9336H195.836V55.5H200.031ZM207.59 54.1406H202.305V51.6914H207.59V54.1406ZM209.898 58.5117H206.922V46.8047H209.898V58.5117ZM198.637 61.3477H206.922V59.3789H209.887V67.8867H195.672V59.3789H198.637V61.3477ZM206.922 65.4844V63.6562H198.637V65.4844H206.922ZM229.586 62.3672H226.598V46.8398H229.586V62.3672ZM232.469 55.4297H228.719V52.9688H232.469V55.4297ZM230.348 67.793H215.746V65.3789H230.348V67.793ZM218.734 66.457H215.746V60.7383H218.734V66.457ZM218.652 48.1992C219.73 48.1992 220.715 48.4297 221.605 48.8906C222.504 49.3516 223.207 49.9961 223.715 50.8242C224.223 51.6523 224.48 52.582 224.488 53.6133C224.48 54.6445 224.223 55.5742 223.715 56.4023C223.207 57.2227 222.504 57.8672 221.605 58.3359C220.715 58.8047 219.73 59.0391 218.652 59.0391C217.574 59.0391 216.59 58.8047 215.699 58.3359C214.809 57.8672 214.102 57.2227 213.578 56.4023C213.062 55.5742 212.805 54.6445 212.805 53.6133C212.805 52.582 213.062 51.6523 213.578 50.8242C214.102 49.9961 214.805 49.3516 215.688 48.8906C216.578 48.4297 217.566 48.1992 218.652 48.1992ZM218.652 50.8008C218.113 50.8008 217.621 50.9141 217.176 51.1406C216.738 51.3594 216.391 51.6836 216.133 52.1133C215.875 52.543 215.746 53.043 215.746 53.6133C215.746 54.1836 215.875 54.6797 216.133 55.1016C216.391 55.5234 216.738 55.8516 217.176 56.0859C217.621 56.3125 218.113 56.4258 218.652 56.4258C219.207 56.4258 219.703 56.3125 220.141 56.0859C220.586 55.8594 220.934 55.5352 221.184 55.1133C221.441 54.6836 221.57 54.1836 221.57 53.6133C221.57 53.0352 221.441 52.5352 221.184 52.1133C220.934 51.6836 220.586 51.3594 220.141 51.1406C219.703 50.9141 219.207 50.8008 218.652 50.8008ZM245.582 57.1055H242.02V54.7148H245.582V57.1055ZM251.898 68.1562H249.027V46.8047H251.898V68.1562ZM247.457 67.1719H244.633V47.1328H247.457V67.1719ZM238.234 48.3398C239.172 48.3398 239.996 48.6523 240.707 49.2773C241.426 49.9023 241.977 50.7969 242.359 51.9609C242.75 53.125 242.945 54.4922 242.945 56.0625C242.945 57.6406 242.75 59.0156 242.359 60.1875C241.977 61.3516 241.426 62.25 240.707 62.8828C239.996 63.5078 239.172 63.8203 238.234 63.8203C237.297 63.8203 236.48 63.5078 235.785 62.8828C235.09 62.25 234.547 61.3516 234.156 60.1875C233.773 59.0156 233.582 57.6406 233.582 56.0625C233.582 54.4922 233.773 53.125 234.156 51.9609C234.547 50.7969 235.09 49.9023 235.785 49.2773C236.48 48.6523 237.297 48.3398 238.234 48.3398ZM238.234 51.1758C237.828 51.1758 237.484 51.3555 237.203 51.7148C236.922 52.0742 236.707 52.6211 236.559 53.3555C236.41 54.082 236.34 54.9844 236.348 56.0625C236.34 57.1406 236.41 58.0469 236.559 58.7812C236.707 59.5078 236.922 60.0508 237.203 60.4102C237.492 60.7695 237.836 60.9492 238.234 60.9492C238.648 60.9492 239 60.7695 239.289 60.4102C239.586 60.0508 239.809 59.5078 239.957 58.7812C240.113 58.0547 240.191 57.1484 240.191 56.0625C240.191 54.9844 240.113 54.082 239.957 53.3555C239.809 52.6211 239.586 52.0742 239.289 51.7148C239 51.3555 238.648 51.1758 238.234 51.1758ZM278.137 68.1562H275.324V46.8047H278.137V68.1562ZM276.004 57.457H272.383V55.0664H276.004V57.457ZM273.262 67.125H270.52V47.1914H273.262V67.125ZM261.801 60.832C263.363 60.832 264.703 60.7969 265.82 60.7266C266.938 60.6562 268.086 60.5156 269.266 60.3047L269.477 62.7305C268.289 62.9648 267.121 63.1211 265.973 63.1992C264.832 63.2695 263.441 63.3125 261.801 63.3281H260.301V60.832H261.801ZM268.27 51.7031H263.301V62.0391H260.301V49.3008H268.27V51.7031ZM297.367 62.7773H294.379V46.8516H297.367V62.7773ZM300.25 55.8281H296.5V53.3789H300.25V55.8281ZM293.102 51.4336H280.434V49.0781H293.102V51.4336ZM286.785 52.1836C287.801 52.1836 288.707 52.3594 289.504 52.7109C290.301 53.0547 290.922 53.5391 291.367 54.1641C291.812 54.7891 292.035 55.5078 292.035 56.3203C292.035 57.125 291.812 57.8359 291.367 58.4531C290.922 59.0703 290.301 59.5508 289.504 59.8945C288.707 60.2305 287.801 60.3984 286.785 60.3984C285.754 60.3984 284.836 60.2305 284.031 59.8945C283.234 59.5508 282.609 59.0703 282.156 58.4531C281.711 57.8359 281.488 57.125 281.488 56.3203C281.488 55.5078 281.711 54.7891 282.156 54.1641C282.609 53.5391 283.234 53.0547 284.031 52.7109C284.836 52.3594 285.754 52.1836 286.785 52.1836ZM286.785 54.4805C286.301 54.4805 285.879 54.5508 285.52 54.6914C285.16 54.832 284.883 55.043 284.688 55.3242C284.492 55.5977 284.395 55.9297 284.395 56.3203C284.395 56.7031 284.492 57.0312 284.688 57.3047C284.883 57.5703 285.16 57.7734 285.52 57.9141C285.879 58.0547 286.301 58.125 286.785 58.125C287.262 58.125 287.68 58.0547 288.039 57.9141C288.406 57.7734 288.691 57.5703 288.895 57.3047C289.098 57.0312 289.199 56.7031 289.199 56.3203C289.199 55.9297 289.098 55.5977 288.895 55.3242C288.691 55.043 288.406 54.832 288.039 54.6914C287.68 54.5508 287.262 54.4805 286.785 54.4805ZM288.273 50.2383H285.285V46.8164H288.273V50.2383ZM298.129 67.793H283.527V65.3789H298.129V67.793ZM286.516 66.4102H283.527V61.5469H286.516V66.4102ZM324.133 59.7773H309.039V57.4102H324.133V59.7773ZM326.254 65.7773H306.754V63.3867H326.254V65.7773ZM317.98 64.418H314.992V58.582H317.98V64.418ZM323.969 50.6953H312.086V58.3359H309.039V48.293H323.969V50.6953ZM323.465 55.1836H311.195V52.8398H323.465V55.1836ZM346.973 61.0078H327.473V58.6055H346.973V61.0078ZM345.074 68.2734H329.922V65.8828H345.074V68.2734ZM332.922 66.6094H329.922V62.0977H332.922V66.6094ZM338.699 59.7305H335.734V55.6641H338.699V59.7305ZM344.617 53.2031H332.875V55.4414H329.898V51.0938H341.617V49.6055H329.863V47.2969H344.617V53.2031ZM345.016 56.9766H329.898V54.7148H345.016V56.9766ZM357.953 47.1328C359.586 47.1328 360.98 47.2734 362.137 47.5547C363.301 47.8281 364.184 48.2383 364.785 48.7852C365.395 49.3242 365.699 49.9805 365.699 50.7539C365.699 51.543 365.395 52.2109 364.785 52.7578C364.184 53.3047 363.305 53.7188 362.148 54C360.992 54.2812 359.594 54.4219 357.953 54.4219C356.312 54.4219 354.91 54.2812 353.746 54C352.59 53.7188 351.703 53.3047 351.086 52.7578C350.477 52.2109 350.172 51.543 350.172 50.7539C350.172 49.9805 350.477 49.3242 351.086 48.7852C351.703 48.2383 352.59 47.8281 353.746 47.5547C354.91 47.2734 356.312 47.1328 357.953 47.1328ZM357.953 49.3125C356.906 49.3125 356.039 49.3672 355.352 49.4766C354.672 49.5859 354.16 49.75 353.816 49.9688C353.473 50.1797 353.305 50.4414 353.312 50.7539C353.305 51.0977 353.469 51.3789 353.805 51.5977C354.148 51.8164 354.652 51.9766 355.316 52.0781C355.988 52.1719 356.867 52.2227 357.953 52.2305C359.047 52.2227 359.93 52.1719 360.602 52.0781C361.281 51.9766 361.785 51.8203 362.113 51.6094C362.449 51.3906 362.617 51.1055 362.617 50.7539C362.617 50.4414 362.449 50.1797 362.113 49.9688C361.777 49.75 361.262 49.5859 360.566 49.4766C359.871 49.3672 359 49.3125 357.953 49.3125ZM367.691 57.8086H348.238V55.4414H367.691V57.8086ZM365.312 64.4766H353.43V66.3984H350.488V62.3906H362.359V61.2188H350.477V59.0273H365.312V64.4766ZM365.875 68.0039H350.488V65.7656H365.875V68.0039ZM382.293 51.0469C382.285 52.4062 382.051 53.6836 381.59 54.8789C381.137 56.0664 380.449 57.1055 379.527 57.9961C378.605 58.8867 377.484 59.5508 376.164 59.9883L374.617 57.6445C375.758 57.2852 376.715 56.7617 377.488 56.0742C378.27 55.3867 378.848 54.6133 379.223 53.7539C379.605 52.8867 379.797 51.9844 379.797 51.0469V49.1836H382.293V51.0469ZM382.832 51.0469C382.832 51.9297 383.016 52.7773 383.383 53.5898C383.758 54.4023 384.328 55.1328 385.094 55.7812C385.859 56.4219 386.801 56.9102 387.918 57.2461L386.406 59.6016C385.102 59.1797 384 58.5469 383.102 57.7031C382.203 56.8516 381.523 55.8555 381.062 54.7148C380.609 53.5742 380.387 52.3516 380.395 51.0469V49.1836H382.832V51.0469ZM387.133 50.7422H375.402V48.3516H387.133V50.7422ZM392.371 62.2617H389.383V46.8516H392.371V62.2617ZM392.957 67.793H378.086V65.3789H392.957V67.793ZM381.109 66.5859H378.086V60.8555H381.109V66.5859ZM413.594 60.1875H410.746V46.8047H413.594V60.1875ZM411.508 54.5508H408.016V52.1133H411.508V54.5508ZM409.047 59.4961H406.258V47.2148H409.047V59.4961ZM405.625 51.3398H395.16V49.0078H405.625V51.3398ZM400.422 52.0664C401.32 52.0664 402.121 52.2188 402.824 52.5234C403.535 52.8281 404.09 53.2656 404.488 53.8359C404.887 54.3984 405.086 55.0508 405.086 55.793C405.086 56.5117 404.887 57.1523 404.488 57.7148C404.09 58.2695 403.535 58.7031 402.824 59.0156C402.121 59.3203 401.32 59.4727 400.422 59.4727C399.539 59.4727 398.746 59.3203 398.043 59.0156C397.348 58.7031 396.801 58.2695 396.402 57.7148C396.004 57.1523 395.805 56.5117 395.805 55.793C395.805 55.0508 396.004 54.3984 396.402 53.8359C396.801 53.2656 397.348 52.8281 398.043 52.5234C398.746 52.2188 399.539 52.0664 400.422 52.0664ZM400.422 54.2109C400.039 54.2031 399.699 54.2617 399.402 54.3867C399.113 54.5117 398.887 54.6953 398.723 54.9375C398.559 55.1797 398.477 55.4648 398.477 55.793C398.477 56.1133 398.555 56.3906 398.711 56.625C398.875 56.8594 399.102 57.043 399.391 57.1758C399.688 57.3008 400.031 57.3633 400.422 57.3633C400.812 57.3633 401.156 57.3008 401.453 57.1758C401.75 57.043 401.98 56.8594 402.145 56.625C402.309 56.3906 402.391 56.1133 402.391 55.793C402.391 55.4648 402.309 55.1797 402.145 54.9375C401.98 54.6953 401.75 54.5117 401.453 54.3867C401.156 54.2617 400.812 54.2031 400.422 54.2109ZM401.898 50.625H398.91V47.0156H401.898V50.625ZM406.305 60.4102C407.836 60.4102 409.156 60.5625 410.266 60.8672C411.375 61.1641 412.223 61.6055 412.809 62.1914C413.402 62.7773 413.699 63.4766 413.699 64.2891C413.699 65.1094 413.402 65.8047 412.809 66.375C412.223 66.9531 411.375 67.3945 410.266 67.6992C409.156 68.0039 407.836 68.1562 406.305 68.1562C404.781 68.1562 403.465 68.0039 402.355 67.6992C401.254 67.3945 400.406 66.9531 399.812 66.375C399.219 65.8047 398.922 65.1094 398.922 64.2891C398.922 63.4766 399.219 62.7773 399.812 62.1914C400.406 61.6055 401.254 61.1641 402.355 60.8672C403.465 60.5625 404.781 60.4102 406.305 60.4102ZM406.305 62.6484C405.328 62.6406 404.516 62.6953 403.867 62.8125C403.227 62.9297 402.738 63.1133 402.402 63.3633C402.074 63.6133 401.914 63.9219 401.922 64.2891C401.914 64.6406 402.074 64.9375 402.402 65.1797C402.738 65.4141 403.23 65.5938 403.879 65.7188C404.527 65.8438 405.336 65.9062 406.305 65.9062C407.273 65.9062 408.082 65.8438 408.73 65.7188C409.387 65.5938 409.875 65.4141 410.195 65.1797C410.523 64.9453 410.691 64.6484 410.699 64.2891C410.691 63.9141 410.523 63.6055 410.195 63.3633C409.875 63.1133 409.391 62.9297 408.742 62.8125C408.094 62.6953 407.281 62.6406 406.305 62.6484Z" fill="#464646"/>
<path d="M76.4219 119L82.6328 102.031H84.8594L91.0703 119H88.8438L83.8047 104.773H83.6641L78.625 119H76.4219ZM88.0938 112.367V114.219H79.3984V112.367H88.0938ZM95.4766 119H93.3672V102.031H95.4766V119ZM120.344 120.898H118.516V100.062H120.344V120.898ZM123.719 110.094H119.875V108.547H123.719V110.094ZM114.953 102.312C114.945 104.336 114.609 106.25 113.945 108.055C113.289 109.852 112.25 111.512 110.828 113.035C109.406 114.551 107.594 115.852 105.391 116.938L104.359 115.484C106.289 114.523 107.906 113.395 109.211 112.098C110.523 110.793 111.504 109.348 112.152 107.762C112.809 106.176 113.141 104.461 113.148 102.617V102.312H114.953ZM114.086 103.859H105.32V102.312H114.086V103.859ZM131.641 103.297C131.641 104.617 131.402 105.855 130.926 107.012C130.449 108.16 129.773 109.16 128.898 110.012C128.031 110.855 127.023 111.5 125.875 111.945L124.891 110.469C125.922 110.086 126.832 109.535 127.621 108.816C128.41 108.09 129.023 107.254 129.461 106.309C129.898 105.363 130.117 104.359 130.117 103.297V101.141H131.641V103.297ZM131.922 103.438C131.922 104.367 132.145 105.266 132.59 106.133C133.035 106.992 133.648 107.75 134.43 108.406C135.211 109.062 136.102 109.562 137.102 109.906L136.094 111.359C134.984 110.953 134.004 110.355 133.152 109.566C132.301 108.777 131.633 107.855 131.148 106.801C130.664 105.746 130.422 104.625 130.422 103.438V101.141H131.922V103.438ZM141.25 112.742H139.422V100.062H141.25V112.742ZM144.391 107.047H140.734V105.5H144.391V107.047ZM134.57 113.281C135.992 113.281 137.219 113.43 138.25 113.727C139.281 114.023 140.07 114.457 140.617 115.027C141.164 115.59 141.438 116.266 141.438 117.055C141.438 117.859 141.164 118.543 140.617 119.105C140.07 119.676 139.281 120.109 138.25 120.406C137.219 120.703 135.992 120.852 134.57 120.852C133.141 120.852 131.906 120.703 130.867 120.406C129.836 120.109 129.043 119.676 128.488 119.105C127.934 118.535 127.656 117.852 127.656 117.055C127.656 116.266 127.934 115.59 128.488 115.027C129.043 114.457 129.84 114.023 130.879 113.727C131.918 113.43 133.148 113.281 134.57 113.281ZM134.57 114.758C133.531 114.758 132.629 114.852 131.863 115.039C131.105 115.227 130.52 115.492 130.105 115.836C129.699 116.18 129.5 116.586 129.508 117.055C129.5 117.539 129.699 117.957 130.105 118.309C130.52 118.66 131.105 118.93 131.863 119.117C132.621 119.305 133.523 119.398 134.57 119.398C135.617 119.398 136.523 119.305 137.289 119.117C138.055 118.93 138.641 118.66 139.047 118.309C139.453 117.957 139.656 117.539 139.656 117.055C139.656 116.586 139.453 116.176 139.047 115.824C138.641 115.473 138.051 115.207 137.277 115.027C136.512 114.848 135.609 114.758 134.57 114.758ZM158.547 101.586C159.625 101.586 160.59 101.793 161.441 102.207C162.293 102.621 162.957 103.199 163.434 103.941C163.91 104.684 164.148 105.531 164.148 106.484C164.148 107.438 163.91 108.285 163.434 109.027C162.957 109.77 162.293 110.348 161.441 110.762C160.59 111.176 159.625 111.383 158.547 111.383C157.461 111.383 156.488 111.176 155.629 110.762C154.777 110.348 154.113 109.77 153.637 109.027C153.16 108.285 152.922 107.438 152.922 106.484C152.922 105.531 153.16 104.684 153.637 103.941C154.113 103.199 154.777 102.621 155.629 102.207C156.488 101.793 157.461 101.586 158.547 101.586ZM158.547 103.203C157.812 103.203 157.156 103.34 156.578 103.613C156 103.887 155.547 104.277 155.219 104.785C154.891 105.285 154.727 105.852 154.727 106.484C154.727 107.125 154.891 107.691 155.219 108.184C155.547 108.676 156 109.062 156.578 109.344C157.156 109.625 157.812 109.766 158.547 109.766C159.273 109.766 159.926 109.625 160.504 109.344C161.09 109.062 161.543 108.676 161.863 108.184C162.184 107.691 162.344 107.125 162.344 106.484C162.344 105.852 162.184 105.285 161.863 104.785C161.543 104.277 161.09 103.887 160.504 103.613C159.926 103.34 159.273 103.203 158.547 103.203ZM168.812 120.945H166.984V100.062H168.812V120.945ZM151.844 114.781C154.445 114.789 156.879 114.75 159.145 114.664C161.41 114.578 163.562 114.383 165.602 114.078L165.742 115.438C164.273 115.711 162.746 115.914 161.16 116.047C159.574 116.172 158.09 116.254 156.707 116.293C155.332 116.332 153.797 116.352 152.102 116.352L151.844 114.781ZM180.32 115.18H178.469V110.539H180.32V115.18ZM189.648 115.906H187.797V100.086H189.648V115.906ZM190.164 120.453H175.352V118.906H190.164V120.453ZM177.203 119.352H175.352V114.359H177.203V119.352ZM172.352 109.742C175.141 109.727 177.609 109.684 179.758 109.613C181.906 109.535 183.961 109.375 185.922 109.133L186.039 110.469C184.016 110.789 181.895 111 179.676 111.102C177.457 111.203 175.102 111.25 172.609 111.242L172.352 109.742ZM188.289 113.75H183.484V112.414H188.289V113.75ZM179.195 100.93C180.203 100.93 181.098 101.078 181.879 101.375C182.668 101.672 183.277 102.098 183.707 102.652C184.137 103.207 184.352 103.844 184.352 104.562C184.352 105.297 184.137 105.934 183.707 106.473C183.277 107.012 182.672 107.43 181.891 107.727C181.109 108.023 180.211 108.172 179.195 108.172C178.172 108.172 177.27 108.023 176.488 107.727C175.715 107.43 175.113 107.012 174.684 106.473C174.254 105.934 174.039 105.297 174.039 104.562C174.039 103.844 174.254 103.207 174.684 102.652C175.113 102.098 175.719 101.672 176.5 101.375C177.281 101.078 178.18 100.93 179.195 100.93ZM179.195 102.336C178.523 102.328 177.93 102.418 177.414 102.605C176.898 102.785 176.496 103.047 176.207 103.391C175.926 103.734 175.789 104.125 175.797 104.562C175.789 105.008 175.926 105.402 176.207 105.746C176.496 106.082 176.898 106.344 177.414 106.531C177.93 106.719 178.523 106.812 179.195 106.812C179.852 106.812 180.438 106.719 180.953 106.531C181.469 106.344 181.871 106.082 182.16 105.746C182.449 105.402 182.594 105.008 182.594 104.562C182.594 104.125 182.449 103.734 182.16 103.391C181.871 103.047 181.469 102.785 180.953 102.605C180.438 102.418 179.852 102.328 179.195 102.336ZM203.688 103.883H194.172V102.383H203.688V103.883ZM199.305 115.391H197.5V108.336H199.305V115.391ZM204.766 103.625C204.758 104.891 204.715 106.148 204.637 107.398C204.566 108.648 204.406 110.094 204.156 111.734L202.305 111.57C202.57 109.953 202.738 108.535 202.809 107.316C202.879 106.09 202.914 104.844 202.914 103.578V103.461V102.383H204.766V103.461V103.625ZM209.289 120.898H207.461V100.062H209.289V120.898ZM212.664 110.375H208.797V108.781H212.664V110.375ZM193 114.781C195.531 114.766 197.879 114.719 200.043 114.641C202.207 114.555 204.242 114.398 206.148 114.172L206.242 115.555C204.266 115.859 202.176 116.066 199.973 116.176C197.77 116.277 195.523 116.32 193.234 116.305L193 114.781ZM226.68 106.461C226.68 107.875 226.414 109.281 225.883 110.68C225.352 112.07 224.629 113.316 223.715 114.418C222.801 115.52 221.812 116.344 220.75 116.891L219.625 115.438C220.617 114.953 221.539 114.227 222.391 113.258C223.25 112.289 223.934 111.203 224.441 110C224.957 108.797 225.219 107.617 225.227 106.461V103.016H226.68V106.461ZM227.031 106.461C227.023 107.555 227.258 108.664 227.734 109.789C228.219 110.914 228.875 111.934 229.703 112.848C230.531 113.754 231.445 114.445 232.445 114.922L231.391 116.375C230.305 115.844 229.316 115.059 228.426 114.02C227.543 112.98 226.844 111.801 226.328 110.48C225.812 109.152 225.555 107.812 225.555 106.461V103.016H227.031V106.461ZM231.719 103.742H220.375V102.219H231.719V103.742ZM236.102 120.898H234.273V100.062H236.102V120.898ZM239.594 110.07H235.68V108.5H239.594V110.07ZM247.539 120.898H245.641V112.93H247.539V120.898ZM254.734 120.898H252.883V112.93H254.734V120.898ZM259.773 113.469H240.695V111.945H259.773V113.469ZM250.188 100.906C251.641 100.906 252.922 101.094 254.031 101.469C255.141 101.844 256 102.375 256.609 103.062C257.219 103.742 257.523 104.539 257.523 105.453C257.523 106.367 257.219 107.164 256.609 107.844C256 108.516 255.141 109.035 254.031 109.402C252.922 109.77 251.641 109.953 250.188 109.953C248.734 109.953 247.457 109.77 246.355 109.402C245.254 109.035 244.395 108.516 243.777 107.844C243.16 107.164 242.852 106.367 242.852 105.453C242.852 104.539 243.16 103.742 243.777 103.062C244.395 102.375 245.254 101.844 246.355 101.469C247.457 101.094 248.734 100.906 250.188 100.906ZM250.188 102.406C249.109 102.406 248.16 102.531 247.34 102.781C246.52 103.031 245.879 103.387 245.418 103.848C244.965 104.309 244.742 104.844 244.75 105.453C244.742 106.055 244.965 106.586 245.418 107.047C245.879 107.5 246.52 107.852 247.34 108.102C248.16 108.352 249.109 108.477 250.188 108.477C251.266 108.477 252.215 108.352 253.035 108.102C253.855 107.852 254.496 107.5 254.957 107.047C255.418 106.594 255.648 106.062 255.648 105.453C255.648 104.844 255.418 104.309 254.957 103.848C254.496 103.387 253.855 103.031 253.035 102.781C252.215 102.531 251.266 102.406 250.188 102.406ZM280.516 112.25H261.438V110.75H280.516V112.25ZM271.867 111.477H270.062V108.172H271.867V111.477ZM265.844 115.344H276.25V113.305H278.055V120.617H263.992V113.305H265.844V115.344ZM276.25 119.141V116.797H265.844V119.141H276.25ZM278.055 105.266H265.75V108.031H263.922V103.883H276.203V101.961H263.852V100.508H278.055V105.266ZM278.5 108.734H263.922V107.281H278.5V108.734ZM300.039 120.898H298.281V100.062H300.039V120.898ZM294.438 110.117H289.094V108.617H294.438V110.117ZM295.656 119.844H293.898V100.625H295.656V119.844ZM291.203 102.734C291.195 104.594 290.918 106.352 290.371 108.008C289.832 109.664 288.977 111.207 287.805 112.637C286.633 114.066 285.133 115.32 283.305 116.398L282.227 115.062C283.844 114.102 285.188 113 286.258 111.758C287.336 110.508 288.129 109.156 288.637 107.703C289.152 106.25 289.414 104.703 289.422 103.062V102.734H291.203ZM290.125 104.258H283.117V102.734H290.125V104.258ZM315.789 101.586C316.867 101.586 317.832 101.793 318.684 102.207C319.535 102.621 320.199 103.199 320.676 103.941C321.152 104.684 321.391 105.531 321.391 106.484C321.391 107.438 321.152 108.285 320.676 109.027C320.199 109.77 319.535 110.348 318.684 110.762C317.832 111.176 316.867 111.383 315.789 111.383C314.703 111.383 313.73 111.176 312.871 110.762C312.02 110.348 311.355 109.77 310.879 109.027C310.402 108.285 310.164 107.438 310.164 106.484C310.164 105.531 310.402 104.684 310.879 103.941C311.355 103.199 312.02 102.621 312.871 102.207C313.73 101.793 314.703 101.586 315.789 101.586ZM315.789 103.203C315.055 103.203 314.398 103.34 313.82 103.613C313.242 103.887 312.789 104.277 312.461 104.785C312.133 105.285 311.969 105.852 311.969 106.484C311.969 107.125 312.133 107.691 312.461 108.184C312.789 108.676 313.242 109.062 313.82 109.344C314.398 109.625 315.055 109.766 315.789 109.766C316.516 109.766 317.168 109.625 317.746 109.344C318.332 109.062 318.785 108.676 319.105 108.184C319.426 107.691 319.586 107.125 319.586 106.484C319.586 105.852 319.426 105.285 319.105 104.785C318.785 104.277 318.332 103.887 317.746 103.613C317.168 103.34 316.516 103.203 315.789 103.203ZM326.055 120.945H324.227V100.062H326.055V120.945ZM309.086 114.781C311.688 114.789 314.121 114.75 316.387 114.664C318.652 114.578 320.805 114.383 322.844 114.078L322.984 115.438C321.516 115.711 319.988 115.914 318.402 116.047C316.816 116.172 315.332 116.254 313.949 116.293C312.574 116.332 311.039 116.352 309.344 116.352L309.086 114.781ZM346.984 115.625H345.133V100.086H346.984V115.625ZM340.703 101.703C340.695 103.461 340.289 105.086 339.484 106.578C338.688 108.062 337.551 109.355 336.074 110.457C334.598 111.559 332.867 112.43 330.883 113.07L330.062 111.594C331.812 111.016 333.34 110.273 334.645 109.367C335.949 108.461 336.957 107.422 337.668 106.25C338.379 105.07 338.734 103.805 338.734 102.453V101.703H340.703ZM339.859 103.227H331.094V101.703H339.859V103.227ZM345.414 105.898H339.742V104.398H345.414V105.898ZM345.344 110.586H339.531V109.062H345.344V110.586ZM347.523 120.453H333.719V118.906H347.523V120.453ZM335.594 119.82H333.719V114.078H335.594V119.82ZM359.945 100.438C361.484 100.438 362.805 100.574 363.906 100.848C365.016 101.121 365.859 101.527 366.438 102.066C367.016 102.605 367.305 103.258 367.305 104.023C367.305 104.805 367.016 105.469 366.438 106.016C365.859 106.562 365.02 106.977 363.918 107.258C362.816 107.531 361.492 107.672 359.945 107.68C358.391 107.672 357.062 107.531 355.961 107.258C354.867 106.977 354.027 106.562 353.441 106.016C352.855 105.469 352.562 104.805 352.562 104.023C352.562 103.258 352.855 102.605 353.441 102.066C354.027 101.527 354.871 101.121 355.973 100.848C357.074 100.574 358.398 100.438 359.945 100.438ZM359.945 101.82C358.797 101.82 357.812 101.91 356.992 102.09C356.18 102.27 355.555 102.523 355.117 102.852C354.688 103.18 354.477 103.57 354.484 104.023C354.477 104.5 354.688 104.91 355.117 105.254C355.555 105.59 356.18 105.844 356.992 106.016C357.812 106.188 358.797 106.273 359.945 106.273C361.094 106.273 362.078 106.188 362.898 106.016C363.727 105.844 364.355 105.59 364.785 105.254C365.215 104.918 365.43 104.508 365.43 104.023C365.43 103.57 365.215 103.18 364.785 102.852C364.355 102.523 363.727 102.27 362.898 102.09C362.07 101.91 361.086 101.82 359.945 101.82ZM369.438 110.586H350.453V109.086H369.438V110.586ZM367 117.055H354.625V119.586H352.797V115.695H365.195V113.797H352.75V112.391H367V117.055ZM367.633 120.664H352.797V119.211H367.633V120.664ZM396.719 109.93H392.875V108.383H396.719V109.93ZM393.344 120.898H391.516V100.062H393.344V120.898ZM379.914 115.016H378.086V102.125H379.914V115.016ZM379.75 114.055C381.398 114.062 383.02 113.992 384.613 113.844C386.207 113.695 387.836 113.445 389.5 113.094L389.734 114.664C388.039 115.008 386.379 115.25 384.754 115.391C383.129 115.531 381.461 115.602 379.75 115.602H378.086V114.055H379.75ZM414.789 108.617H400.422V107.094H414.789V108.617ZM417.039 113.305H397.961V111.758H417.039V113.305ZM408.32 120.898H406.492V112.578H408.32V120.898ZM402.25 107.867H400.422V101.141H402.25V107.867ZM424.305 101.68C425.312 101.68 426.211 101.977 427 102.57C427.797 103.164 428.414 104.012 428.852 105.113C429.289 106.215 429.508 107.492 429.508 108.945C429.508 110.406 429.289 111.684 428.852 112.777C428.414 113.863 427.797 114.703 427 115.297C426.211 115.891 425.312 116.188 424.305 116.188C423.281 116.188 422.371 115.891 421.574 115.297C420.785 114.703 420.172 113.863 419.734 112.777C419.297 111.684 419.078 110.406 419.078 108.945C419.078 107.492 419.297 106.215 419.734 105.113C420.172 104.012 420.785 103.164 421.574 102.57C422.371 101.977 423.281 101.68 424.305 101.68ZM424.305 103.32C423.625 103.32 423.023 103.555 422.5 104.023C421.984 104.492 421.578 105.152 421.281 106.004C420.984 106.848 420.836 107.828 420.836 108.945C420.836 110.062 420.984 111.047 421.281 111.898C421.578 112.742 421.984 113.395 422.5 113.855C423.023 114.316 423.625 114.547 424.305 114.547C424.977 114.547 425.578 114.316 426.109 113.855C426.641 113.395 427.051 112.738 427.34 111.887C427.629 111.035 427.773 110.055 427.773 108.945C427.773 107.836 427.629 106.855 427.34 106.004C427.051 105.152 426.641 104.492 426.109 104.023C425.578 103.555 424.977 103.32 424.305 103.32ZM435.977 120.945H434.148V100.062H435.977V120.945ZM434.969 109.555H428.898V108.031H434.969V109.555ZM458.523 118.227H439.445V116.703H458.523V118.227ZM449.828 117.172H448.023V111.664H449.828V117.172ZM443.547 105.312H454.375V101.539H456.18V112.203H441.695V101.539H443.547V105.312ZM454.375 110.703V106.812H443.547V110.703H454.375ZM472.562 109.109H468.461V107.539H472.562V109.109ZM466.047 106.062C466.047 107.492 465.848 108.887 465.449 110.246C465.051 111.598 464.477 112.812 463.727 113.891C462.984 114.961 462.117 115.797 461.125 116.398L459.953 115.016C460.891 114.469 461.711 113.719 462.414 112.766C463.117 111.812 463.656 110.758 464.031 109.602C464.406 108.438 464.594 107.258 464.594 106.062V102.031H466.047V106.062ZM466.375 105.992C466.375 107.109 466.551 108.223 466.902 109.332C467.254 110.434 467.758 111.441 468.414 112.355C469.078 113.27 469.859 113.992 470.758 114.523L469.703 115.953C468.719 115.359 467.867 114.535 467.148 113.48C466.43 112.426 465.883 111.25 465.508 109.953C465.141 108.656 464.961 107.336 464.969 105.992V102.031H466.375V105.992ZM478.047 120.898H476.266V100.062H478.047V120.898ZM473.734 119.844H472V100.508H473.734V119.844ZM487.469 117.055H485.664V110.82H487.469V117.055ZM495.273 117.055H493.422V110.82H495.273V117.055ZM500.008 118.227H480.93V116.68H500.008V118.227ZM490.422 101.375C491.898 101.383 493.211 101.609 494.359 102.055C495.516 102.492 496.418 103.121 497.066 103.941C497.715 104.754 498.039 105.688 498.039 106.742C498.039 107.805 497.715 108.738 497.066 109.543C496.418 110.348 495.516 110.973 494.359 111.418C493.211 111.863 491.898 112.086 490.422 112.086C488.945 112.086 487.629 111.863 486.473 111.418C485.324 110.973 484.426 110.348 483.777 109.543C483.129 108.738 482.805 107.805 482.805 106.742C482.805 105.688 483.129 104.754 483.777 103.941C484.426 103.121 485.324 102.492 486.473 102.055C487.629 101.609 488.945 101.383 490.422 101.375ZM490.422 102.898C489.289 102.891 488.277 103.047 487.387 103.367C486.504 103.68 485.816 104.129 485.324 104.715C484.832 105.301 484.586 105.977 484.586 106.742C484.586 107.508 484.832 108.184 485.324 108.77C485.816 109.355 486.504 109.812 487.387 110.141C488.277 110.469 489.289 110.633 490.422 110.633C491.547 110.633 492.551 110.469 493.434 110.141C494.316 109.812 495.008 109.355 495.508 108.77C496.008 108.184 496.258 107.508 496.258 106.742C496.258 105.977 496.008 105.301 495.508 104.715C495.008 104.129 494.316 103.68 493.434 103.367C492.551 103.047 491.547 102.891 490.422 102.898ZM503.875 119.141C503.602 119.141 503.348 119.07 503.113 118.93C502.887 118.789 502.703 118.605 502.562 118.379C502.43 118.145 502.367 117.891 502.375 117.617C502.367 117.352 502.43 117.102 502.562 116.867C502.703 116.633 502.887 116.449 503.113 116.316C503.348 116.184 503.602 116.117 503.875 116.117C504.148 116.117 504.398 116.184 504.625 116.316C504.859 116.449 505.043 116.633 505.176 116.867C505.309 117.102 505.375 117.352 505.375 117.617C505.375 117.891 505.309 118.145 505.176 118.379C505.043 118.605 504.859 118.789 504.625 118.93C504.398 119.07 504.148 119.141 503.875 119.141ZM93.7188 141.414H79.3047V139.914H93.7188V141.414ZM95.9219 147.297H76.8438V145.773H95.9219V147.297ZM87.25 146.477H85.4219V140.688H87.25V146.477ZM93.4844 132.297H81.1797V140.5H79.3047V130.773H93.4844V132.297ZM93.0391 136.773H80.5938V135.273H93.0391V136.773ZM116.641 142.492H97.5625V140.969H116.641V142.492ZM114.625 149.688H100.094V148.164H114.625V149.688ZM101.945 148.609H100.094V143.898H101.945V148.609ZM107.992 141.648H106.188V137.969H107.992V141.648ZM114.18 134.898H101.875V137.734H100.047V133.539H112.328V131.219H99.9766V129.742H114.18V134.898ZM114.625 138.672H100.047V137.219H114.625V138.672ZM135.508 149.945H133.656V129.062H135.508V149.945ZM124.422 130.68C125.453 130.68 126.371 130.977 127.176 131.57C127.98 132.164 128.609 133.012 129.062 134.113C129.516 135.215 129.742 136.492 129.742 137.945C129.742 139.398 129.516 140.672 129.062 141.766C128.609 142.859 127.98 143.703 127.176 144.297C126.371 144.891 125.453 145.188 124.422 145.188C123.391 145.188 122.473 144.891 121.668 144.297C120.863 143.703 120.234 142.859 119.781 141.766C119.328 140.672 119.102 139.398 119.102 137.945C119.102 136.492 119.328 135.215 119.781 134.113C120.234 133.012 120.863 132.164 121.668 131.57C122.473 130.977 123.391 130.68 124.422 130.68ZM124.422 132.32C123.734 132.32 123.121 132.555 122.582 133.023C122.043 133.492 121.625 134.152 121.328 135.004C121.031 135.855 120.883 136.836 120.883 137.945C120.883 139.062 121.031 140.047 121.328 140.898C121.625 141.742 122.043 142.395 122.582 142.855C123.121 143.316 123.734 143.547 124.422 143.547C125.117 143.547 125.73 143.316 126.262 142.855C126.801 142.395 127.219 141.742 127.516 140.898C127.812 140.047 127.961 139.062 127.961 137.945C127.961 136.828 127.812 135.848 127.516 135.004C127.219 134.152 126.801 133.492 126.262 133.023C125.73 132.555 125.117 132.32 124.422 132.32ZM164.148 138.625H145.094V137.125H164.148V138.625ZM152.477 131.406H146.875V129.906H152.477V131.406ZM153.672 130.633C153.656 131.266 153.629 131.895 153.59 132.52C153.551 133.137 153.461 133.898 153.32 134.805C153.188 135.703 152.984 136.664 152.711 137.688L150.906 137.453C151.297 136.008 151.551 134.754 151.668 133.691C151.785 132.629 151.852 131.602 151.867 130.609V130.445V129.906H153.672V130.445V130.633ZM160.75 131.406H155.078V129.906H160.75V131.406ZM161.758 130.797C161.758 131.461 161.742 132.105 161.711 132.73C161.68 133.348 161.602 134.098 161.477 134.98C161.359 135.855 161.172 136.789 160.914 137.781L159.133 137.523C159.383 136.555 159.57 135.656 159.695 134.828C159.82 134 159.895 133.312 159.918 132.766C159.941 132.219 159.961 131.578 159.977 130.844V130.75V129.906H161.758V130.75V130.797ZM161.805 142.281H149.312V148.586H147.461V140.852H161.805V142.281ZM161.945 149.617H147.461V148.164H161.945V149.617ZM161.266 145.867H148.562V144.484H161.266V145.867ZM168.695 139.398H166.844V130.586H168.695V139.398ZM168.508 138.789C170.172 138.797 171.785 138.734 173.348 138.602C174.91 138.469 176.508 138.234 178.141 137.898L178.352 139.422C176.695 139.766 175.07 140.008 173.477 140.148C171.891 140.289 170.234 140.359 168.508 140.359H166.844V138.789H168.508ZM182.125 144.133H180.297V129.086H182.125V144.133ZM185.266 136.867H181.539V135.273H185.266V136.867ZM182.875 149.453H169.164V147.906H182.875V149.453ZM170.992 148.609H169.164V142.656H170.992V148.609ZM210.484 132.977H193.586V131.453H210.484V132.977ZM211.68 144.086H192.602V142.562H211.68V144.086ZM202.984 149.945H201.18V143.781H202.984V149.945ZM202.094 134.172C203.5 134.172 204.715 134.305 205.738 134.57C206.762 134.836 207.543 135.234 208.082 135.766C208.621 136.289 208.891 136.922 208.891 137.664C208.891 138.391 208.621 139.012 208.082 139.527C207.543 140.035 206.762 140.43 205.738 140.711C204.715 140.984 203.5 141.125 202.094 141.133C200.672 141.125 199.453 140.984 198.438 140.711C197.422 140.43 196.641 140.035 196.094 139.527C195.555 139.012 195.289 138.391 195.297 137.664C195.289 136.922 195.555 136.289 196.094 135.766C196.641 135.234 197.422 134.836 198.438 134.57C199.453 134.305 200.672 134.172 202.094 134.172ZM202.094 135.578C201.062 135.578 200.18 135.66 199.445 135.824C198.711 135.988 198.148 136.227 197.758 136.539C197.375 136.852 197.188 137.227 197.195 137.664C197.188 138.094 197.375 138.461 197.758 138.766C198.148 139.062 198.711 139.293 199.445 139.457C200.18 139.621 201.062 139.703 202.094 139.703C203.109 139.703 203.984 139.621 204.719 139.457C205.453 139.293 206.012 139.062 206.395 138.766C206.785 138.461 206.984 138.094 206.992 137.664C206.984 137.227 206.785 136.852 206.395 136.539C206.012 136.227 205.453 135.988 204.719 135.824C203.984 135.66 203.109 135.578 202.094 135.578ZM202.984 132.461H201.18V128.945H202.984V132.461ZM225.906 136.586H222.32V135.039H225.906V136.586ZM218.336 130.703C219.25 130.703 220.066 130.918 220.785 131.348C221.512 131.777 222.082 132.375 222.496 133.141C222.91 133.906 223.117 134.781 223.117 135.766C223.117 136.742 222.91 137.613 222.496 138.379C222.082 139.137 221.512 139.73 220.785 140.16C220.059 140.582 219.242 140.789 218.336 140.781C217.414 140.789 216.594 140.582 215.875 140.16C215.156 139.73 214.594 139.137 214.188 138.379C213.781 137.613 213.578 136.742 213.578 135.766C213.578 134.781 213.781 133.906 214.188 133.141C214.594 132.375 215.156 131.777 215.875 131.348C216.594 130.918 217.414 130.703 218.336 130.703ZM218.336 132.297C217.742 132.297 217.211 132.445 216.742 132.742C216.273 133.039 215.902 133.453 215.629 133.984C215.363 134.508 215.234 135.102 215.242 135.766C215.234 136.43 215.363 137.023 215.629 137.547C215.902 138.062 216.273 138.469 216.742 138.766C217.211 139.062 217.742 139.211 218.336 139.211C218.922 139.211 219.449 139.062 219.918 138.766C220.395 138.469 220.766 138.062 221.031 137.547C221.305 137.023 221.445 136.43 221.453 135.766C221.445 135.102 221.305 134.508 221.031 133.984C220.766 133.453 220.395 133.039 219.918 132.742C219.449 132.445 218.922 132.297 218.336 132.297ZM231.039 144.672H229.281V129.062H231.039V144.672ZM227.055 144.062H225.32V129.484H227.055V144.062ZM231.672 149.453H217.375V147.906H231.672V149.453ZM219.203 148.586H217.375V142.656H219.203V148.586ZM259.164 143.219H240.086V141.695H259.164V143.219ZM250.492 149.898H248.688V142.117H250.492V149.898ZM257.008 139.539H242.641V138.039H257.008V139.539ZM256.773 131.547H244.469V138.484H242.641V130.047H256.773V131.547ZM256.281 135.461H243.93V133.984H256.281V135.461ZM268.023 146.336H266.172V140.336H268.023V146.336ZM274.469 146.336H272.641V140.336H274.469V146.336ZM279.93 147.344H260.852V145.82H279.93V147.344ZM278.102 132.531H262.539V131.008H278.102V132.531ZM278.055 140.852H262.586V139.328H278.055V140.852ZM267.672 139.656H265.844V132.227H267.672V139.656ZM274.797 139.656H272.992V132.227H274.797V139.656ZM300.672 147.32H281.594V145.773H300.672V147.32ZM291.977 146.453H290.172V141.297H291.977V146.453ZM298.258 136.914H285.812V141.133H283.984V135.414H296.453V132.133H283.938V130.609H298.258V136.914ZM298.75 141.836H283.984V140.312H298.75V141.836ZM315.18 130.586C316.258 130.586 317.223 130.793 318.074 131.207C318.926 131.621 319.59 132.199 320.066 132.941C320.543 133.684 320.781 134.531 320.781 135.484C320.781 136.438 320.543 137.285 320.066 138.027C319.59 138.77 318.926 139.348 318.074 139.762C317.223 140.176 316.258 140.383 315.18 140.383C314.094 140.383 313.121 140.176 312.262 139.762C311.41 139.348 310.746 138.77 310.27 138.027C309.793 137.285 309.555 136.438 309.555 135.484C309.555 134.531 309.793 133.684 310.27 132.941C310.746 132.199 311.41 131.621 312.262 131.207C313.121 130.793 314.094 130.586 315.18 130.586ZM315.18 132.203C314.445 132.203 313.789 132.34 313.211 132.613C312.633 132.887 312.18 133.277 311.852 133.785C311.523 134.285 311.359 134.852 311.359 135.484C311.359 136.125 311.523 136.691 311.852 137.184C312.18 137.676 312.633 138.062 313.211 138.344C313.789 138.625 314.445 138.766 315.18 138.766C315.906 138.766 316.559 138.625 317.137 138.344C317.723 138.062 318.176 137.676 318.496 137.184C318.816 136.691 318.977 136.125 318.977 135.484C318.977 134.852 318.816 134.285 318.496 133.785C318.176 133.277 317.723 132.887 317.137 132.613C316.559 132.34 315.906 132.203 315.18 132.203ZM325.445 149.945H323.617V129.062H325.445V149.945ZM308.477 143.781C311.078 143.789 313.512 143.75 315.777 143.664C318.043 143.578 320.195 143.383 322.234 143.078L322.375 144.438C320.906 144.711 319.379 144.914 317.793 145.047C316.207 145.172 314.723 145.254 313.34 145.293C311.965 145.332 310.43 145.352 308.734 145.352L308.477 143.781ZM346.375 144.625H344.523V129.086H346.375V144.625ZM340.094 130.703C340.086 132.461 339.68 134.086 338.875 135.578C338.078 137.062 336.941 138.355 335.465 139.457C333.988 140.559 332.258 141.43 330.273 142.07L329.453 140.594C331.203 140.016 332.73 139.273 334.035 138.367C335.34 137.461 336.348 136.422 337.059 135.25C337.77 134.07 338.125 132.805 338.125 131.453V130.703H340.094ZM339.25 132.227H330.484V130.703H339.25V132.227ZM344.805 134.898H339.133V133.398H344.805V134.898ZM344.734 139.586H338.922V138.062H344.734V139.586ZM346.914 149.453H333.109V147.906H346.914V149.453ZM334.984 148.82H333.109V143.078H334.984V148.82ZM359.336 129.438C360.875 129.438 362.195 129.574 363.297 129.848C364.406 130.121 365.25 130.527 365.828 131.066C366.406 131.605 366.695 132.258 366.695 133.023C366.695 133.805 366.406 134.469 365.828 135.016C365.25 135.562 364.41 135.977 363.309 136.258C362.207 136.531 360.883 136.672 359.336 136.68C357.781 136.672 356.453 136.531 355.352 136.258C354.258 135.977 353.418 135.562 352.832 135.016C352.246 134.469 351.953 133.805 351.953 133.023C351.953 132.258 352.246 131.605 352.832 131.066C353.418 130.527 354.262 130.121 355.363 129.848C356.465 129.574 357.789 129.438 359.336 129.438ZM359.336 130.82C358.188 130.82 357.203 130.91 356.383 131.09C355.57 131.27 354.945 131.523 354.508 131.852C354.078 132.18 353.867 132.57 353.875 133.023C353.867 133.5 354.078 133.91 354.508 134.254C354.945 134.59 355.57 134.844 356.383 135.016C357.203 135.188 358.188 135.273 359.336 135.273C360.484 135.273 361.469 135.188 362.289 135.016C363.117 134.844 363.746 134.59 364.176 134.254C364.605 133.918 364.82 133.508 364.82 133.023C364.82 132.57 364.605 132.18 364.176 131.852C363.746 131.523 363.117 131.27 362.289 131.09C361.461 130.91 360.477 130.82 359.336 130.82ZM368.828 139.586H349.844V138.086H368.828V139.586ZM366.391 146.055H354.016V148.586H352.188V144.695H364.586V142.797H352.141V141.391H366.391V146.055ZM367.023 149.664H352.188V148.211H367.023V149.664ZM383.781 146.336H381.93V140.336H383.781V146.336ZM390.227 146.336H388.398V140.336H390.227V146.336ZM395.688 147.344H376.609V145.82H395.688V147.344ZM393.859 132.531H378.297V131.008H393.859V132.531ZM393.812 140.852H378.344V139.328H393.812V140.852ZM383.43 139.656H381.602V132.227H383.43V139.656ZM390.555 139.656H388.75V132.227H390.555V139.656ZM414.625 144.977H412.773V129.086H414.625V144.977ZM413.547 136.164H409.164V134.641H413.547V136.164ZM413.547 140.5H409.164V139H413.547V140.5ZM409.164 133.141H397.375V131.641H409.164V133.141ZM403.328 134.289C404.25 134.289 405.07 134.453 405.789 134.781C406.508 135.109 407.07 135.578 407.477 136.188C407.883 136.789 408.086 137.484 408.086 138.273C408.086 139.055 407.883 139.746 407.477 140.348C407.07 140.949 406.508 141.418 405.789 141.754C405.07 142.09 404.25 142.258 403.328 142.258C402.406 142.258 401.59 142.09 400.879 141.754C400.168 141.418 399.609 140.949 399.203 140.348C398.805 139.746 398.609 139.055 398.617 138.273C398.609 137.484 398.805 136.789 399.203 136.188C399.609 135.578 400.168 135.109 400.879 134.781C401.59 134.453 402.406 134.289 403.328 134.289ZM403.328 135.742C402.742 135.75 402.219 135.863 401.758 136.082C401.305 136.293 400.953 136.59 400.703 136.973C400.453 137.348 400.328 137.781 400.328 138.273C400.328 138.766 400.453 139.203 400.703 139.586C400.953 139.961 401.305 140.254 401.758 140.465C402.219 140.676 402.742 140.781 403.328 140.781C403.914 140.781 404.434 140.676 404.887 140.465C405.348 140.254 405.707 139.961 405.965 139.586C406.223 139.203 406.352 138.766 406.352 138.273C406.352 137.781 406.223 137.344 405.965 136.961C405.707 136.57 405.348 136.273 404.887 136.07C404.434 135.859 403.914 135.75 403.328 135.742ZM404.266 132.602H402.438V129.062H404.266V132.602ZM415.094 149.453H401.148V147.906H415.094V149.453ZM403 148.656H401.148V143.57H403V148.656ZM428.5 134.172H418.047V132.672H428.5V134.172ZM423.273 135.578C424.141 135.578 424.914 135.781 425.594 136.188C426.281 136.594 426.816 137.156 427.199 137.875C427.59 138.586 427.789 139.398 427.797 140.312C427.789 141.234 427.59 142.055 427.199 142.773C426.816 143.492 426.281 144.059 425.594 144.473C424.914 144.887 424.141 145.094 423.273 145.094C422.422 145.094 421.652 144.887 420.965 144.473C420.285 144.059 419.754 143.492 419.371 142.773C418.988 142.055 418.797 141.234 418.797 140.312C418.797 139.406 418.992 138.594 419.383 137.875C419.773 137.156 420.305 136.594 420.977 136.188C421.656 135.781 422.422 135.578 423.273 135.578ZM423.273 137.125C422.727 137.133 422.238 137.277 421.809 137.559C421.379 137.832 421.043 138.211 420.801 138.695C420.559 139.172 420.438 139.711 420.438 140.312C420.438 140.922 420.559 141.465 420.801 141.941C421.043 142.418 421.379 142.793 421.809 143.066C422.238 143.34 422.727 143.477 423.273 143.477C423.82 143.477 424.312 143.34 424.75 143.066C425.188 142.793 425.531 142.418 425.781 141.941C426.031 141.465 426.156 140.922 426.156 140.312C426.156 139.711 426.031 139.172 425.781 138.695C425.531 138.211 425.188 137.832 424.75 137.559C424.312 137.277 423.82 137.133 423.273 137.125ZM435.836 149.898H434.078V129.062H435.836V149.898ZM434.664 139.375H430.68V137.852H434.664V139.375ZM431.312 148.867H429.578V129.578H431.312V148.867ZM424.211 133.586H422.383V129.695H424.211V133.586ZM445.375 146.055H443.57V139.82H445.375V146.055ZM453.18 146.055H451.328V139.82H453.18V146.055ZM457.914 147.227H438.836V145.68H457.914V147.227ZM448.328 130.375C449.805 130.383 451.117 130.609 452.266 131.055C453.422 131.492 454.324 132.121 454.973 132.941C455.621 133.754 455.945 134.688 455.945 135.742C455.945 136.805 455.621 137.738 454.973 138.543C454.324 139.348 453.422 139.973 452.266 140.418C451.117 140.863 449.805 141.086 448.328 141.086C446.852 141.086 445.535 140.863 444.379 140.418C443.23 139.973 442.332 139.348 441.684 138.543C441.035 137.738 440.711 136.805 440.711 135.742C440.711 134.688 441.035 133.754 441.684 132.941C442.332 132.121 443.23 131.492 444.379 131.055C445.535 130.609 446.852 130.383 448.328 130.375ZM448.328 131.898C447.195 131.891 446.184 132.047 445.293 132.367C444.41 132.68 443.723 133.129 443.23 133.715C442.738 134.301 442.492 134.977 442.492 135.742C442.492 136.508 442.738 137.184 443.23 137.77C443.723 138.355 444.41 138.812 445.293 139.141C446.184 139.469 447.195 139.633 448.328 139.633C449.453 139.633 450.457 139.469 451.34 139.141C452.223 138.812 452.914 138.355 453.414 137.77C453.914 137.184 454.164 136.508 454.164 135.742C454.164 134.977 453.914 134.301 453.414 133.715C452.914 133.129 452.223 132.68 451.34 132.367C450.457 132.047 449.453 131.891 448.328 131.898ZM461.781 148.141C461.508 148.141 461.254 148.07 461.02 147.93C460.793 147.789 460.609 147.605 460.469 147.379C460.336 147.145 460.273 146.891 460.281 146.617C460.273 146.352 460.336 146.102 460.469 145.867C460.609 145.633 460.793 145.449 461.02 145.316C461.254 145.184 461.508 145.117 461.781 145.117C462.055 145.117 462.305 145.184 462.531 145.316C462.766 145.449 462.949 145.633 463.082 145.867C463.215 146.102 463.281 146.352 463.281 146.617C463.281 146.891 463.215 147.145 463.082 147.379C462.949 147.605 462.766 147.789 462.531 147.93C462.305 148.07 462.055 148.141 461.781 148.141Z" fill="#0E0E0E"/>
<defs>
<filter id="filter0_b_621_39" x="-49.896" y="-49.896" width="690.813" height="342.033" filterUnits="userSpaceOnUse" color-interpolation-filters="sRGB">
<feFlood flood-opacity="0" result="BackgroundImageFix"/>
<feGaussianBlur in="BackgroundImageFix" stdDeviation="24.948"/>
<feComposite in2="SourceAlpha" operator="in" result="effect1_backgroundBlur_621_39"/>
<feBlend mode="normal" in="SourceGraphic" in2="effect1_backgroundBlur_621_39" result="shape"/>
</filter>
</defs>
</svg>