<svg width="214" height="620" viewBox="0 0 214 620" fill="none" xmlns="http://www.w3.org/2000/svg">
<g filter="url(#filter0_bd_347_1040)">
<rect x="4" width="206" height="612" rx="103" fill="url(#paint0_linear_347_1040)" shape-rendering="crispEdges"/>
</g>
<mask id="path-2-outside-1_347_1040" maskUnits="userSpaceOnUse" x="63" y="62" width="88" height="25" fill="black">
<rect fill="white" x="63" y="62" width="88" height="25"/>
<path d="M68.0977 67.1328H71.2148V64.7656H74.9414V75.0312H64.3008V64.7656H68.0977V67.1328ZM71.2148 72.0547V70.0039H68.0977V72.0547H71.2148ZM78.9492 71.4102H74.1328V68.3516H78.9492V71.4102ZM81.9375 75.5469H78.1992V63.6406H81.9375V75.5469ZM70.8867 77.9141H78.1992V76.332H81.9375V85.0625H67.1836V76.332H70.8867V77.9141ZM78.1992 82.0742V80.7617H70.8867V82.0742H78.1992ZM101.578 79.332H97.8047V63.6875H101.578V79.332ZM104.285 72.7344H100.535V69.6641H104.285V72.7344ZM102.211 85.0273H87.1992V82.0273H102.211V85.0273ZM90.9727 83.4219H87.1992V77.668H90.9727V83.4219ZM90.3164 64.9648C91.4258 64.9648 92.4453 65.207 93.375 65.6914C94.3047 66.168 95.0352 66.8359 95.5664 67.6953C96.1055 68.5547 96.375 69.5156 96.375 70.5781C96.375 71.6328 96.1055 72.5898 95.5664 73.4492C95.0352 74.3086 94.3047 74.9844 93.375 75.4766C92.4453 75.9609 91.4258 76.2031 90.3164 76.2031C89.1992 76.2031 88.1719 75.9609 87.2344 75.4766C86.3047 74.9844 85.5664 74.3086 85.0195 73.4492C84.4805 72.5898 84.2109 71.6328 84.2109 70.5781C84.2109 69.5156 84.4805 68.5547 85.0195 67.6953C85.5664 66.8359 86.3047 66.168 87.2344 65.6914C88.1641 65.207 89.1914 64.9648 90.3164 64.9648ZM90.3164 68.2344C89.8633 68.2344 89.4531 68.3203 89.0859 68.4922C88.7266 68.6641 88.4375 68.9297 88.2188 69.2891C88 69.6406 87.8906 70.0703 87.8906 70.5781C87.8906 71.0781 88 71.5039 88.2188 71.8555C88.4375 72.1992 88.7266 72.4648 89.0859 72.6523C89.4531 72.832 89.8633 72.9219 90.3164 72.9219C90.7695 72.9219 91.1758 72.8359 91.5352 72.6641C91.9023 72.4844 92.1875 72.2188 92.3906 71.8672C92.6016 71.5078 92.707 71.0781 92.707 70.5781C92.707 70.0703 92.6016 69.6406 92.3906 69.2891C92.1875 68.9297 91.9023 68.6641 91.5352 68.4922C91.1758 68.3203 90.7695 68.2344 90.3164 68.2344ZM114.398 66.8867H117.645V64.6602H121.418V74.1289H110.672V64.6602H114.398V66.8867ZM117.645 71.2227V69.6758H114.398V71.2227H117.645ZM127.547 74.5742H123.773V63.6406H127.547V74.5742ZM130.254 70.5781H126.023V67.5664H130.254V70.5781ZM127.547 81.5469H116.555V83.7148H112.852V78.9102H123.797V78.125H112.828V75.2539H127.547V81.5469ZM128.062 85.2383H112.852V82.3203H128.062V85.2383ZM137.918 65.0117C139.059 65.0117 140.094 65.25 141.023 65.7266C141.953 66.1953 142.684 66.8477 143.215 67.6836C143.754 68.5195 144.023 69.4531 144.023 70.4844C144.023 71.5234 143.754 72.4609 143.215 73.2969C142.684 74.125 141.953 74.7773 141.023 75.2539C140.094 75.7227 139.059 75.957 137.918 75.957C136.785 75.957 135.75 75.7227 134.812 75.2539C133.883 74.7773 133.145 74.125 132.598 73.2969C132.059 72.4609 131.789 71.5234 131.789 70.4844C131.789 69.4531 132.059 68.5195 132.598 67.6836C133.145 66.8477 133.883 66.1953 134.812 65.7266C135.75 65.25 136.785 65.0117 137.918 65.0117ZM137.918 68.2461C137.465 68.2539 137.059 68.3398 136.699 68.5039C136.34 68.668 136.055 68.9219 135.844 69.2656C135.641 69.6016 135.539 70.0078 135.539 70.4844C135.539 70.9766 135.641 71.3906 135.844 71.7266C136.055 72.0547 136.34 72.3008 136.699 72.4648C137.059 72.6289 137.465 72.7148 137.918 72.7227C138.387 72.7148 138.805 72.6289 139.172 72.4648C139.547 72.3008 139.84 72.0547 140.051 71.7266C140.262 71.3906 140.367 70.9766 140.367 70.4844C140.367 70.0078 140.262 69.6016 140.051 69.2656C139.84 68.9219 139.547 68.668 139.172 68.5039C138.805 68.3398 138.387 68.2539 137.918 68.2461ZM149.426 85.3906H145.688V63.6406H149.426V85.3906ZM131.016 78.1836C133.539 78.1758 135.93 78.1289 138.188 78.043C140.445 77.9492 142.582 77.7695 144.598 77.5039L144.867 80.1875C143.414 80.4766 141.906 80.6953 140.344 80.8438C138.781 80.9844 137.301 81.0781 135.902 81.125C134.504 81.1641 133.012 81.1797 131.426 81.1719L131.016 78.1836Z"/>
</mask>
<path d="M68.0977 67.1328H71.2148V64.7656H74.9414V75.0312H64.3008V64.7656H68.0977V67.1328ZM71.2148 72.0547V70.0039H68.0977V72.0547H71.2148ZM78.9492 71.4102H74.1328V68.3516H78.9492V71.4102ZM81.9375 75.5469H78.1992V63.6406H81.9375V75.5469ZM70.8867 77.9141H78.1992V76.332H81.9375V85.0625H67.1836V76.332H70.8867V77.9141ZM78.1992 82.0742V80.7617H70.8867V82.0742H78.1992ZM101.578 79.332H97.8047V63.6875H101.578V79.332ZM104.285 72.7344H100.535V69.6641H104.285V72.7344ZM102.211 85.0273H87.1992V82.0273H102.211V85.0273ZM90.9727 83.4219H87.1992V77.668H90.9727V83.4219ZM90.3164 64.9648C91.4258 64.9648 92.4453 65.207 93.375 65.6914C94.3047 66.168 95.0352 66.8359 95.5664 67.6953C96.1055 68.5547 96.375 69.5156 96.375 70.5781C96.375 71.6328 96.1055 72.5898 95.5664 73.4492C95.0352 74.3086 94.3047 74.9844 93.375 75.4766C92.4453 75.9609 91.4258 76.2031 90.3164 76.2031C89.1992 76.2031 88.1719 75.9609 87.2344 75.4766C86.3047 74.9844 85.5664 74.3086 85.0195 73.4492C84.4805 72.5898 84.2109 71.6328 84.2109 70.5781C84.2109 69.5156 84.4805 68.5547 85.0195 67.6953C85.5664 66.8359 86.3047 66.168 87.2344 65.6914C88.1641 65.207 89.1914 64.9648 90.3164 64.9648ZM90.3164 68.2344C89.8633 68.2344 89.4531 68.3203 89.0859 68.4922C88.7266 68.6641 88.4375 68.9297 88.2188 69.2891C88 69.6406 87.8906 70.0703 87.8906 70.5781C87.8906 71.0781 88 71.5039 88.2188 71.8555C88.4375 72.1992 88.7266 72.4648 89.0859 72.6523C89.4531 72.832 89.8633 72.9219 90.3164 72.9219C90.7695 72.9219 91.1758 72.8359 91.5352 72.6641C91.9023 72.4844 92.1875 72.2188 92.3906 71.8672C92.6016 71.5078 92.707 71.0781 92.707 70.5781C92.707 70.0703 92.6016 69.6406 92.3906 69.2891C92.1875 68.9297 91.9023 68.6641 91.5352 68.4922C91.1758 68.3203 90.7695 68.2344 90.3164 68.2344ZM114.398 66.8867H117.645V64.6602H121.418V74.1289H110.672V64.6602H114.398V66.8867ZM117.645 71.2227V69.6758H114.398V71.2227H117.645ZM127.547 74.5742H123.773V63.6406H127.547V74.5742ZM130.254 70.5781H126.023V67.5664H130.254V70.5781ZM127.547 81.5469H116.555V83.7148H112.852V78.9102H123.797V78.125H112.828V75.2539H127.547V81.5469ZM128.062 85.2383H112.852V82.3203H128.062V85.2383ZM137.918 65.0117C139.059 65.0117 140.094 65.25 141.023 65.7266C141.953 66.1953 142.684 66.8477 143.215 67.6836C143.754 68.5195 144.023 69.4531 144.023 70.4844C144.023 71.5234 143.754 72.4609 143.215 73.2969C142.684 74.125 141.953 74.7773 141.023 75.2539C140.094 75.7227 139.059 75.957 137.918 75.957C136.785 75.957 135.75 75.7227 134.812 75.2539C133.883 74.7773 133.145 74.125 132.598 73.2969C132.059 72.4609 131.789 71.5234 131.789 70.4844C131.789 69.4531 132.059 68.5195 132.598 67.6836C133.145 66.8477 133.883 66.1953 134.812 65.7266C135.75 65.25 136.785 65.0117 137.918 65.0117ZM137.918 68.2461C137.465 68.2539 137.059 68.3398 136.699 68.5039C136.34 68.668 136.055 68.9219 135.844 69.2656C135.641 69.6016 135.539 70.0078 135.539 70.4844C135.539 70.9766 135.641 71.3906 135.844 71.7266C136.055 72.0547 136.34 72.3008 136.699 72.4648C137.059 72.6289 137.465 72.7148 137.918 72.7227C138.387 72.7148 138.805 72.6289 139.172 72.4648C139.547 72.3008 139.84 72.0547 140.051 71.7266C140.262 71.3906 140.367 70.9766 140.367 70.4844C140.367 70.0078 140.262 69.6016 140.051 69.2656C139.84 68.9219 139.547 68.668 139.172 68.5039C138.805 68.3398 138.387 68.2539 137.918 68.2461ZM149.426 85.3906H145.688V63.6406H149.426V85.3906ZM131.016 78.1836C133.539 78.1758 135.93 78.1289 138.188 78.043C140.445 77.9492 142.582 77.7695 144.598 77.5039L144.867 80.1875C143.414 80.4766 141.906 80.6953 140.344 80.8438C138.781 80.9844 137.301 81.0781 135.902 81.125C134.504 81.1641 133.012 81.1797 131.426 81.1719L131.016 78.1836Z" fill="#F6F6F6"/>
<path d="M68.0977 67.1328H67.0977V68.1328H68.0977V67.1328ZM71.2148 67.1328V68.1328H72.2148V67.1328H71.2148ZM71.2148 64.7656V63.7656H70.2148V64.7656H71.2148ZM74.9414 64.7656H75.9414V63.7656H74.9414V64.7656ZM74.9414 75.0312V76.0312H75.9414V75.0312H74.9414ZM64.3008 75.0312H63.3008V76.0312H64.3008V75.0312ZM64.3008 64.7656V63.7656H63.3008V64.7656H64.3008ZM68.0977 64.7656H69.0977V63.7656H68.0977V64.7656ZM71.2148 72.0547V73.0547H72.2148V72.0547H71.2148ZM71.2148 70.0039H72.2148V69.0039H71.2148V70.0039ZM68.0977 70.0039V69.0039H67.0977V70.0039H68.0977ZM68.0977 72.0547H67.0977V73.0547H68.0977V72.0547ZM78.9492 71.4102V72.4102H79.9492V71.4102H78.9492ZM74.1328 71.4102H73.1328V72.4102H74.1328V71.4102ZM74.1328 68.3516V67.3516H73.1328V68.3516H74.1328ZM78.9492 68.3516H79.9492V67.3516H78.9492V68.3516ZM81.9375 75.5469V76.5469H82.9375V75.5469H81.9375ZM78.1992 75.5469H77.1992V76.5469H78.1992V75.5469ZM78.1992 63.6406V62.6406H77.1992V63.6406H78.1992ZM81.9375 63.6406H82.9375V62.6406H81.9375V63.6406ZM70.8867 77.9141H69.8867V78.9141H70.8867V77.9141ZM78.1992 77.9141V78.9141H79.1992V77.9141H78.1992ZM78.1992 76.332V75.332H77.1992V76.332H78.1992ZM81.9375 76.332H82.9375V75.332H81.9375V76.332ZM81.9375 85.0625V86.0625H82.9375V85.0625H81.9375ZM67.1836 85.0625H66.1836V86.0625H67.1836V85.0625ZM67.1836 76.332V75.332H66.1836V76.332H67.1836ZM70.8867 76.332H71.8867V75.332H70.8867V76.332ZM78.1992 82.0742V83.0742H79.1992V82.0742H78.1992ZM78.1992 80.7617H79.1992V79.7617H78.1992V80.7617ZM70.8867 80.7617V79.7617H69.8867V80.7617H70.8867ZM70.8867 82.0742H69.8867V83.0742H70.8867V82.0742ZM68.0977 68.1328H71.2148V66.1328H68.0977V68.1328ZM72.2148 67.1328V64.7656H70.2148V67.1328H72.2148ZM71.2148 65.7656H74.9414V63.7656H71.2148V65.7656ZM73.9414 64.7656V75.0312H75.9414V64.7656H73.9414ZM74.9414 74.0312H64.3008V76.0312H74.9414V74.0312ZM65.3008 75.0312V64.7656H63.3008V75.0312H65.3008ZM64.3008 65.7656H68.0977V63.7656H64.3008V65.7656ZM67.0977 64.7656V67.1328H69.0977V64.7656H67.0977ZM72.2148 72.0547V70.0039H70.2148V72.0547H72.2148ZM71.2148 69.0039H68.0977V71.0039H71.2148V69.0039ZM67.0977 70.0039V72.0547H69.0977V70.0039H67.0977ZM68.0977 73.0547H71.2148V71.0547H68.0977V73.0547ZM78.9492 70.4102H74.1328V72.4102H78.9492V70.4102ZM75.1328 71.4102V68.3516H73.1328V71.4102H75.1328ZM74.1328 69.3516H78.9492V67.3516H74.1328V69.3516ZM77.9492 68.3516V71.4102H79.9492V68.3516H77.9492ZM81.9375 74.5469H78.1992V76.5469H81.9375V74.5469ZM79.1992 75.5469V63.6406H77.1992V75.5469H79.1992ZM78.1992 64.6406H81.9375V62.6406H78.1992V64.6406ZM80.9375 63.6406V75.5469H82.9375V63.6406H80.9375ZM70.8867 78.9141H78.1992V76.9141H70.8867V78.9141ZM79.1992 77.9141V76.332H77.1992V77.9141H79.1992ZM78.1992 77.332H81.9375V75.332H78.1992V77.332ZM80.9375 76.332V85.0625H82.9375V76.332H80.9375ZM81.9375 84.0625H67.1836V86.0625H81.9375V84.0625ZM68.1836 85.0625V76.332H66.1836V85.0625H68.1836ZM67.1836 77.332H70.8867V75.332H67.1836V77.332ZM69.8867 76.332V77.9141H71.8867V76.332H69.8867ZM79.1992 82.0742V80.7617H77.1992V82.0742H79.1992ZM78.1992 79.7617H70.8867V81.7617H78.1992V79.7617ZM69.8867 80.7617V82.0742H71.8867V80.7617H69.8867ZM70.8867 83.0742H78.1992V81.0742H70.8867V83.0742ZM101.578 79.332V80.332H102.578V79.332H101.578ZM97.8047 79.332H96.8047V80.332H97.8047V79.332ZM97.8047 63.6875V62.6875H96.8047V63.6875H97.8047ZM101.578 63.6875H102.578V62.6875H101.578V63.6875ZM104.285 72.7344V73.7344H105.285V72.7344H104.285ZM100.535 72.7344H99.5352V73.7344H100.535V72.7344ZM100.535 69.6641V68.6641H99.5352V69.6641H100.535ZM104.285 69.6641H105.285V68.6641H104.285V69.6641ZM102.211 85.0273V86.0273H103.211V85.0273H102.211ZM87.1992 85.0273H86.1992V86.0273H87.1992V85.0273ZM87.1992 82.0273V81.0273H86.1992V82.0273H87.1992ZM102.211 82.0273H103.211V81.0273H102.211V82.0273ZM90.9727 83.4219V84.4219H91.9727V83.4219H90.9727ZM87.1992 83.4219H86.1992V84.4219H87.1992V83.4219ZM87.1992 77.668V76.668H86.1992V77.668H87.1992ZM90.9727 77.668H91.9727V76.668H90.9727V77.668ZM93.375 65.6914L92.9129 66.5783L92.9188 66.5813L93.375 65.6914ZM95.5664 67.6953L94.7158 68.2211L94.7193 68.2267L95.5664 67.6953ZM95.5664 73.4492L94.7193 72.9178L94.7158 72.9234L95.5664 73.4492ZM93.375 75.4766L93.8371 76.3634L93.8429 76.3603L93.375 75.4766ZM87.2344 75.4766L86.7665 76.3604L86.7754 76.365L87.2344 75.4766ZM85.0195 73.4492L84.1724 73.9806L84.1759 73.9861L85.0195 73.4492ZM85.0195 67.6953L84.1759 67.1584L84.1724 67.1639L85.0195 67.6953ZM87.2344 65.6914L87.6905 66.5813L87.6964 66.5783L87.2344 65.6914ZM89.0859 68.4922L88.662 67.5865L88.6545 67.5901L89.0859 68.4922ZM88.2188 69.2891L89.0678 69.8174L89.0729 69.809L88.2188 69.2891ZM88.2188 71.8555L87.3696 72.3838L87.3751 72.3923L88.2188 71.8555ZM89.0859 72.6523L88.6234 73.5389L88.6348 73.5449L88.6464 73.5506L89.0859 72.6523ZM91.5352 72.6641L91.9666 73.5662L91.9747 73.5623L91.5352 72.6641ZM92.3906 71.8672L91.5282 71.361L91.5248 71.3669L92.3906 71.8672ZM92.3906 69.2891L91.5201 69.7811L91.5265 69.7924L91.5331 69.8036L92.3906 69.2891ZM91.5352 68.4922L91.1037 69.3944L91.1112 69.3979L91.5352 68.4922ZM101.578 78.332H97.8047V80.332H101.578V78.332ZM98.8047 79.332V63.6875H96.8047V79.332H98.8047ZM97.8047 64.6875H101.578V62.6875H97.8047V64.6875ZM100.578 63.6875V79.332H102.578V63.6875H100.578ZM104.285 71.7344H100.535V73.7344H104.285V71.7344ZM101.535 72.7344V69.6641H99.5352V72.7344H101.535ZM100.535 70.6641H104.285V68.6641H100.535V70.6641ZM103.285 69.6641V72.7344H105.285V69.6641H103.285ZM102.211 84.0273H87.1992V86.0273H102.211V84.0273ZM88.1992 85.0273V82.0273H86.1992V85.0273H88.1992ZM87.1992 83.0273H102.211V81.0273H87.1992V83.0273ZM101.211 82.0273V85.0273H103.211V82.0273H101.211ZM90.9727 82.4219H87.1992V84.4219H90.9727V82.4219ZM88.1992 83.4219V77.668H86.1992V83.4219H88.1992ZM87.1992 78.668H90.9727V76.668H87.1992V78.668ZM89.9727 77.668V83.4219H91.9727V77.668H89.9727ZM90.3164 65.9648C91.2746 65.9648 92.1342 66.1726 92.9129 66.5783L93.8371 64.8046C92.7564 64.2415 91.577 63.9648 90.3164 63.9648V65.9648ZM92.9188 66.5813C93.6921 66.9777 94.2838 67.5222 94.7158 68.2211L96.417 67.1695C95.7865 66.1496 94.9173 65.3582 93.8312 64.8015L92.9188 66.5813ZM94.7193 68.2267C95.1536 68.9191 95.375 69.6943 95.375 70.5781H97.375C97.375 69.337 97.0573 68.1903 96.4135 67.1639L94.7193 68.2267ZM95.375 70.5781C95.375 71.4527 95.1544 72.2242 94.7193 72.9178L96.4135 73.9806C97.0566 72.9555 97.375 71.813 97.375 70.5781H95.375ZM94.7158 72.9234C94.282 73.6252 93.6864 74.1802 92.9071 74.5928L93.8429 76.3603C94.9229 75.7886 95.7883 74.992 96.417 73.975L94.7158 72.9234ZM92.9129 74.5897C92.1342 74.9954 91.2746 75.2031 90.3164 75.2031V77.2031C91.577 77.2031 92.7564 76.9265 93.8371 76.3634L92.9129 74.5897ZM90.3164 75.2031C89.3493 75.2031 88.4807 74.9949 87.6934 74.5881L86.7754 76.365C87.8631 76.927 89.0491 77.2031 90.3164 77.2031V75.2031ZM87.7023 74.5928C86.9206 74.1789 86.3139 73.6206 85.8632 72.9123L84.1759 73.9861C84.8189 74.9966 85.6888 75.7898 86.7665 76.3603L87.7023 74.5928ZM85.8667 72.9178C85.4316 72.2242 85.2109 71.4527 85.2109 70.5781H83.2109C83.2109 71.813 83.5294 72.9555 84.1724 73.9806L85.8667 72.9178ZM85.2109 70.5781C85.2109 69.6943 85.4323 68.9191 85.8667 68.2267L84.1724 67.1639C83.5286 68.1903 83.2109 69.337 83.2109 70.5781H85.2109ZM85.8632 68.2322C86.3121 67.5268 86.9149 66.9789 87.6905 66.5813L86.7782 64.8015C85.6945 65.357 84.8208 66.145 84.1759 67.1584L85.8632 68.2322ZM87.6964 66.5783C88.4731 66.1736 89.3402 65.9648 90.3164 65.9648V63.9648C89.0426 63.9648 87.855 64.2405 86.7723 64.8046L87.6964 66.5783ZM90.3164 67.2344C89.7341 67.2344 89.1767 67.3456 88.662 67.5865L89.5099 69.3979C89.7295 69.2951 89.9924 69.2344 90.3164 69.2344V67.2344ZM88.6545 67.5901C88.1101 67.8504 87.6782 68.2538 87.3646 68.7691L89.0729 69.809C89.1968 69.6056 89.3431 69.4777 89.5174 69.3943L88.6545 67.5901ZM87.3697 68.7608C87.0321 69.3033 86.8906 69.9259 86.8906 70.5781H88.8906C88.8906 70.2147 88.9679 69.9779 89.0678 69.8174L87.3697 68.7608ZM86.8906 70.5781C86.8906 71.2259 87.0335 71.8435 87.3697 72.3838L89.0678 71.3272C88.9665 71.1643 88.8906 70.9304 88.8906 70.5781H86.8906ZM87.3751 72.3923C87.6875 72.8833 88.1076 73.2699 88.6234 73.5389L89.5485 71.7658C89.3455 71.6598 89.1875 71.5152 89.0624 71.3186L87.3751 72.3923ZM88.6464 73.5506C89.1647 73.8042 89.7276 73.9219 90.3164 73.9219V71.9219C89.9989 71.9219 89.7416 71.8599 89.5255 71.7541L88.6464 73.5506ZM90.3164 73.9219C90.8983 73.9219 91.4551 73.8108 91.9666 73.5662L91.1037 71.7619C90.8964 71.861 90.6408 71.9219 90.3164 71.9219V73.9219ZM91.9747 73.5623C92.5191 73.2959 92.9532 72.8923 93.2565 72.3675L91.5248 71.3669C91.4218 71.5452 91.2856 71.6729 91.0956 71.7658L91.9747 73.5623ZM93.253 72.3734C93.5706 71.8324 93.707 71.2204 93.707 70.5781H91.707C91.707 70.9358 91.6326 71.1832 91.5282 71.361L93.253 72.3734ZM93.707 70.5781C93.707 69.9321 93.5722 69.3147 93.2481 68.7746L91.5331 69.8036C91.6309 69.9666 91.707 70.2086 91.707 70.5781H93.707ZM93.2612 68.797C92.9578 68.2602 92.5182 67.8482 91.9591 67.5865L91.1112 69.3979C91.2865 69.4799 91.4172 69.5992 91.5201 69.7811L93.2612 68.797ZM91.9666 67.5901C91.4551 67.3454 90.8983 67.2344 90.3164 67.2344V69.2344C90.6408 69.2344 90.8964 69.2952 91.1037 69.3943L91.9666 67.5901ZM114.398 66.8867H113.398V67.8867H114.398V66.8867ZM117.645 66.8867V67.8867H118.645V66.8867H117.645ZM117.645 64.6602V63.6602H116.645V64.6602H117.645ZM121.418 64.6602H122.418V63.6602H121.418V64.6602ZM121.418 74.1289V75.1289H122.418V74.1289H121.418ZM110.672 74.1289H109.672V75.1289H110.672V74.1289ZM110.672 64.6602V63.6602H109.672V64.6602H110.672ZM114.398 64.6602H115.398V63.6602H114.398V64.6602ZM117.645 71.2227V72.2227H118.645V71.2227H117.645ZM117.645 69.6758H118.645V68.6758H117.645V69.6758ZM114.398 69.6758V68.6758H113.398V69.6758H114.398ZM114.398 71.2227H113.398V72.2227H114.398V71.2227ZM127.547 74.5742V75.5742H128.547V74.5742H127.547ZM123.773 74.5742H122.773V75.5742H123.773V74.5742ZM123.773 63.6406V62.6406H122.773V63.6406H123.773ZM127.547 63.6406H128.547V62.6406H127.547V63.6406ZM130.254 70.5781V71.5781H131.254V70.5781H130.254ZM126.023 70.5781H125.023V71.5781H126.023V70.5781ZM126.023 67.5664V66.5664H125.023V67.5664H126.023ZM130.254 67.5664H131.254V66.5664H130.254V67.5664ZM127.547 81.5469V82.5469H128.547V81.5469H127.547ZM116.555 81.5469V80.5469H115.555V81.5469H116.555ZM116.555 83.7148V84.7148H117.555V83.7148H116.555ZM112.852 83.7148H111.852V84.7148H112.852V83.7148ZM112.852 78.9102V77.9102H111.852V78.9102H112.852ZM123.797 78.9102V79.9102H124.797V78.9102H123.797ZM123.797 78.125H124.797V77.125H123.797V78.125ZM112.828 78.125H111.828V79.125H112.828V78.125ZM112.828 75.2539V74.2539H111.828V75.2539H112.828ZM127.547 75.2539H128.547V74.2539H127.547V75.2539ZM128.062 85.2383V86.2383H129.062V85.2383H128.062ZM112.852 85.2383H111.852V86.2383H112.852V85.2383ZM112.852 82.3203V81.3203H111.852V82.3203H112.852ZM128.062 82.3203H129.062V81.3203H128.062V82.3203ZM114.398 67.8867H117.645V65.8867H114.398V67.8867ZM118.645 66.8867V64.6602H116.645V66.8867H118.645ZM117.645 65.6602H121.418V63.6602H117.645V65.6602ZM120.418 64.6602V74.1289H122.418V64.6602H120.418ZM121.418 73.1289H110.672V75.1289H121.418V73.1289ZM111.672 74.1289V64.6602H109.672V74.1289H111.672ZM110.672 65.6602H114.398V63.6602H110.672V65.6602ZM113.398 64.6602V66.8867H115.398V64.6602H113.398ZM118.645 71.2227V69.6758H116.645V71.2227H118.645ZM117.645 68.6758H114.398V70.6758H117.645V68.6758ZM113.398 69.6758V71.2227H115.398V69.6758H113.398ZM114.398 72.2227H117.645V70.2227H114.398V72.2227ZM127.547 73.5742H123.773V75.5742H127.547V73.5742ZM124.773 74.5742V63.6406H122.773V74.5742H124.773ZM123.773 64.6406H127.547V62.6406H123.773V64.6406ZM126.547 63.6406V74.5742H128.547V63.6406H126.547ZM130.254 69.5781H126.023V71.5781H130.254V69.5781ZM127.023 70.5781V67.5664H125.023V70.5781H127.023ZM126.023 68.5664H130.254V66.5664H126.023V68.5664ZM129.254 67.5664V70.5781H131.254V67.5664H129.254ZM127.547 80.5469H116.555V82.5469H127.547V80.5469ZM115.555 81.5469V83.7148H117.555V81.5469H115.555ZM116.555 82.7148H112.852V84.7148H116.555V82.7148ZM113.852 83.7148V78.9102H111.852V83.7148H113.852ZM112.852 79.9102H123.797V77.9102H112.852V79.9102ZM124.797 78.9102V78.125H122.797V78.9102H124.797ZM123.797 77.125H112.828V79.125H123.797V77.125ZM113.828 78.125V75.2539H111.828V78.125H113.828ZM112.828 76.2539H127.547V74.2539H112.828V76.2539ZM126.547 75.2539V81.5469H128.547V75.2539H126.547ZM128.062 84.2383H112.852V86.2383H128.062V84.2383ZM113.852 85.2383V82.3203H111.852V85.2383H113.852ZM112.852 83.3203H128.062V81.3203H112.852V83.3203ZM127.062 82.3203V85.2383H129.062V82.3203H127.062ZM141.023 65.7266L140.567 66.6165L140.573 66.6195L141.023 65.7266ZM143.215 67.6836L142.371 68.22L142.374 68.2255L143.215 67.6836ZM143.215 73.2969L142.374 72.7549L142.373 72.7569L143.215 73.2969ZM141.023 75.2539L141.474 76.1468L141.48 76.1438L141.023 75.2539ZM134.812 75.2539L134.356 76.1438L134.365 76.1483L134.812 75.2539ZM132.598 73.2969L131.757 73.8389L131.763 73.8479L132.598 73.2969ZM132.598 67.6836L131.761 67.1361L131.757 67.1416L132.598 67.6836ZM134.812 65.7266L135.263 66.6195L135.266 66.618L134.812 65.7266ZM137.918 68.2461L137.935 67.2462L137.918 67.246L137.901 67.2462L137.918 68.2461ZM135.844 69.2656L134.991 68.7426L134.988 68.7482L135.844 69.2656ZM135.844 71.7266L134.988 72.244L134.995 72.2558L135.003 72.2673L135.844 71.7266ZM137.918 72.7227L137.901 73.7225L137.918 73.7228L137.935 73.7225L137.918 72.7227ZM139.172 72.4648L138.771 71.5487L138.764 71.5518L139.172 72.4648ZM140.051 71.7266L140.892 72.2674L140.898 72.2583L140.051 71.7266ZM140.051 69.2656L139.198 69.7887L139.204 69.7974L140.051 69.2656ZM139.172 68.5039L138.764 69.4169L138.771 69.4201L139.172 68.5039ZM149.426 85.3906V86.3906H150.426V85.3906H149.426ZM145.688 85.3906H144.688V86.3906H145.688V85.3906ZM145.688 63.6406V62.6406H144.688V63.6406H145.688ZM149.426 63.6406H150.426V62.6406H149.426V63.6406ZM131.016 78.1836L131.013 77.1836L129.869 77.1871L130.025 78.3196L131.016 78.1836ZM138.188 78.043L138.226 79.0423L138.229 79.0421L138.188 78.043ZM144.598 77.5039L145.593 77.404L145.49 76.3777L144.467 76.5125L144.598 77.5039ZM144.867 80.1875L145.062 81.1683L145.953 80.9911L145.862 80.0876L144.867 80.1875ZM140.344 80.8438L140.433 81.8397L140.438 81.8393L140.344 80.8438ZM135.902 81.125L135.93 82.1246L135.936 82.1244L135.902 81.125ZM131.426 81.1719L130.435 81.3079L130.553 82.1676L131.421 82.1719L131.426 81.1719ZM137.918 66.0117C138.915 66.0117 139.791 66.2187 140.567 66.6165L141.48 64.8367C140.396 64.2813 139.202 64.0117 137.918 64.0117V66.0117ZM140.573 66.6195C141.351 67.0114 141.941 67.5441 142.371 68.22L144.059 67.1472C143.426 66.1512 142.556 65.3792 141.474 64.8336L140.573 66.6195ZM142.374 68.2255C142.805 68.8938 143.023 69.6379 143.023 70.4844H145.023C145.023 69.2683 144.702 68.1453 144.055 67.1416L142.374 68.2255ZM143.023 70.4844C143.023 71.3402 142.805 72.088 142.374 72.7549L144.055 73.8388C144.703 72.8339 145.023 71.7066 145.023 70.4844H143.023ZM142.373 72.7569C141.943 73.4271 141.35 73.9628 140.567 74.364L141.48 76.1438C142.556 75.5919 143.424 74.8229 144.057 73.8368L142.373 72.7569ZM140.573 74.361C139.796 74.7528 138.917 74.957 137.918 74.957V76.957C139.2 76.957 140.391 76.6925 141.474 76.1468L140.573 74.361ZM137.918 74.957C136.928 74.957 136.047 74.7533 135.26 74.3595L134.365 76.1483C135.453 76.692 136.643 76.957 137.918 76.957V74.957ZM135.269 74.364C134.484 73.9617 133.879 73.4227 133.432 72.7458L131.763 73.8479C132.41 74.8273 133.282 75.593 134.356 76.1438L135.269 74.364ZM133.438 72.7549C133.008 72.088 132.789 71.3402 132.789 70.4844H130.789C130.789 71.7066 131.109 72.8339 131.757 73.8388L133.438 72.7549ZM132.789 70.4844C132.789 69.6379 133.007 68.8938 133.438 68.2255L131.757 67.1416C131.11 68.1453 130.789 69.2683 130.789 70.4844H132.789ZM133.434 68.2311C133.881 67.5486 134.483 67.0126 135.263 66.6195L134.362 64.8336C133.283 65.3781 132.408 66.1467 131.761 67.1361L133.434 68.2311ZM135.266 66.618C136.052 66.2182 136.93 66.0117 137.918 66.0117V64.0117C136.64 64.0117 135.448 64.2818 134.359 64.8351L135.266 66.618ZM137.901 67.2462C137.33 67.2561 136.785 67.3653 136.284 67.5942L137.115 69.4136C137.332 69.3144 137.599 69.2517 137.935 69.2459L137.901 67.2462ZM136.284 67.5942C135.74 67.8427 135.304 68.2332 134.991 68.7426L136.696 69.7886C136.805 69.6106 136.94 69.4933 137.115 69.4136L136.284 67.5942ZM134.988 68.7482C134.672 69.2706 134.539 69.8645 134.539 70.4844H136.539C136.539 70.1511 136.609 69.9325 136.699 69.783L134.988 68.7482ZM134.539 70.4844C134.539 71.1131 134.669 71.7169 134.988 72.244L136.699 71.2091C136.612 71.0644 136.539 70.84 136.539 70.4844H134.539ZM135.003 72.2673C135.319 72.7589 135.753 73.1319 136.284 73.3745L137.115 71.5552C136.927 71.4696 136.791 71.3505 136.685 71.1858L135.003 72.2673ZM136.284 73.3745C136.785 73.6035 137.33 73.7127 137.901 73.7225L137.935 71.7228C137.599 71.717 137.332 71.6543 137.115 71.5552L136.284 73.3745ZM137.935 73.7225C138.516 73.7128 139.071 73.6053 139.58 73.3779L138.764 71.5518C138.539 71.6525 138.257 71.7169 137.901 71.7228L137.935 73.7225ZM139.573 73.381C140.119 73.142 140.569 72.7697 140.892 72.2673L139.21 71.1858C139.111 71.3397 138.975 71.4595 138.771 71.5487L139.573 73.381ZM140.898 72.2583C141.23 71.7287 141.367 71.1195 141.367 70.4844H139.367C139.367 70.8336 139.293 71.0526 139.204 71.1948L140.898 72.2583ZM141.367 70.4844C141.367 69.8579 141.227 69.2586 140.898 68.7339L139.204 69.7974C139.296 69.9445 139.367 70.1577 139.367 70.4844H141.367ZM140.903 68.7426C140.584 68.222 140.132 67.8324 139.573 67.5877L138.771 69.4201C138.962 69.5036 139.096 69.6217 139.198 69.7886L140.903 68.7426ZM139.58 67.5909C139.071 67.3634 138.516 67.2559 137.935 67.2462L137.901 69.246C138.257 69.2519 138.539 69.3163 138.764 69.4169L139.58 67.5909ZM149.426 84.3906H145.688V86.3906H149.426V84.3906ZM146.688 85.3906V63.6406H144.688V85.3906H146.688ZM145.688 64.6406H149.426V62.6406H145.688V64.6406ZM148.426 63.6406V85.3906H150.426V63.6406H148.426ZM131.019 79.1836C133.552 79.1757 135.955 79.1287 138.226 79.0422L138.149 77.0437C135.905 77.1291 133.526 77.1758 131.013 77.1836L131.019 79.1836ZM138.229 79.0421C140.513 78.9473 142.68 78.7653 144.728 78.4953L144.467 76.5125C142.484 76.7738 140.377 76.9512 138.146 77.0438L138.229 79.0421ZM143.603 77.6038L143.872 80.2874L145.862 80.0876L145.593 77.404L143.603 77.6038ZM144.672 79.2067C143.254 79.4888 141.78 79.7028 140.249 79.8482L140.438 81.8393C142.033 81.6878 143.574 81.4643 145.062 81.1683L144.672 79.2067ZM140.254 79.8478C138.708 79.9869 137.246 80.0794 135.869 80.1256L135.936 82.1244C137.355 82.0769 138.854 81.9818 140.433 81.8397L140.254 79.8478ZM135.874 80.1254C134.488 80.1641 133.007 80.1797 131.431 80.1719L131.421 82.1719C133.016 82.1797 134.52 82.164 135.93 82.1246L135.874 80.1254ZM132.416 81.0359L132.006 78.0476L130.025 78.3196L130.435 81.3079L132.416 81.0359Z" fill="#0E0E0E" mask="url(#path-2-outside-1_347_1040)"/>
<path d="M47.1406 163.582H45.6172V146.219H47.1406V163.582ZM49.9531 154.578H46.75V153.289H49.9531V154.578ZM42.6484 148.094C42.6419 149.78 42.362 151.375 41.8086 152.879C41.2617 154.376 40.3958 155.76 39.2109 157.029C38.026 158.292 36.5156 159.376 34.6797 160.281L33.8203 159.07C35.4284 158.27 36.776 157.329 37.8633 156.248C38.957 155.161 39.7741 153.956 40.3145 152.635C40.8613 151.313 41.138 149.884 41.1445 148.348V148.094H42.6484ZM41.9258 149.383H34.6211V148.094H41.9258V149.383ZM56.5547 148.914C56.5547 150.014 56.3561 151.046 55.959 152.01C55.5618 152.967 54.9987 153.8 54.2695 154.51C53.5469 155.213 52.707 155.75 51.75 156.121L50.9297 154.891C51.7891 154.572 52.5475 154.113 53.2051 153.514C53.8626 152.908 54.3737 152.212 54.7383 151.424C55.1029 150.636 55.2852 149.799 55.2852 148.914V147.117H56.5547V148.914ZM56.7891 149.031C56.7891 149.806 56.9746 150.555 57.3457 151.277C57.7168 151.993 58.2279 152.625 58.8789 153.172C59.5299 153.719 60.2721 154.135 61.1055 154.422L60.2656 155.633C59.3411 155.294 58.5241 154.796 57.8145 154.139C57.1048 153.481 56.5482 152.713 56.1445 151.834C55.7409 150.955 55.5391 150.021 55.5391 149.031V147.117H56.7891V149.031ZM64.5625 156.785H63.0391V146.219H64.5625V156.785ZM67.1797 152.039H64.1328V150.75H67.1797V152.039ZM58.9961 157.234C60.181 157.234 61.2031 157.358 62.0625 157.605C62.9219 157.853 63.5794 158.214 64.0352 158.689C64.4909 159.158 64.7188 159.721 64.7188 160.379C64.7188 161.049 64.4909 161.619 64.0352 162.088C63.5794 162.563 62.9219 162.924 62.0625 163.172C61.2031 163.419 60.181 163.543 58.9961 163.543C57.8047 163.543 56.776 163.419 55.9102 163.172C55.0508 162.924 54.39 162.563 53.9277 162.088C53.4655 161.613 53.2344 161.043 53.2344 160.379C53.2344 159.721 53.4655 159.158 53.9277 158.689C54.39 158.214 55.054 157.853 55.9199 157.605C56.7858 157.358 57.8112 157.234 58.9961 157.234ZM58.9961 158.465C58.1302 158.465 57.3783 158.543 56.7402 158.699C56.1087 158.855 55.6204 159.077 55.2754 159.363C54.9368 159.65 54.7708 159.988 54.7773 160.379C54.7708 160.783 54.9368 161.131 55.2754 161.424C55.6204 161.717 56.1087 161.941 56.7402 162.098C57.3717 162.254 58.1237 162.332 58.9961 162.332C59.8685 162.332 60.6237 162.254 61.2617 162.098C61.8997 161.941 62.388 161.717 62.7266 161.424C63.0651 161.131 63.2344 160.783 63.2344 160.379C63.2344 159.988 63.0651 159.646 62.7266 159.354C62.388 159.061 61.8965 158.839 61.252 158.689C60.6139 158.54 59.862 158.465 58.9961 158.465ZM73.957 147.488C74.8555 147.488 75.6595 147.661 76.3691 148.006C77.0788 148.351 77.6322 148.833 78.0293 149.451C78.4264 150.07 78.625 150.776 78.625 151.57C78.625 152.365 78.4264 153.071 78.0293 153.689C77.6322 154.308 77.0788 154.79 76.3691 155.135C75.6595 155.48 74.8555 155.652 73.957 155.652C73.0521 155.652 72.2415 155.48 71.5254 155.135C70.8158 154.79 70.2624 154.308 69.8652 153.689C69.4681 153.071 69.2695 152.365 69.2695 151.57C69.2695 150.776 69.4681 150.07 69.8652 149.451C70.2624 148.833 70.8158 148.351 71.5254 148.006C72.2415 147.661 73.0521 147.488 73.957 147.488ZM73.957 148.836C73.3451 148.836 72.7982 148.95 72.3164 149.178C71.8346 149.406 71.457 149.731 71.1836 150.154C70.9102 150.571 70.7734 151.043 70.7734 151.57C70.7734 152.104 70.9102 152.576 71.1836 152.986C71.457 153.396 71.8346 153.719 72.3164 153.953C72.7982 154.188 73.3451 154.305 73.957 154.305C74.5625 154.305 75.1061 154.188 75.5879 153.953C76.0762 153.719 76.4538 153.396 76.7207 152.986C76.9876 152.576 77.1211 152.104 77.1211 151.57C77.1211 151.043 76.9876 150.571 76.7207 150.154C76.4538 149.731 76.0762 149.406 75.5879 149.178C75.1061 148.95 74.5625 148.836 73.957 148.836ZM82.5117 163.621H80.9883V146.219H82.5117V163.621ZM68.3711 158.484C70.5391 158.491 72.5671 158.458 74.4551 158.387C76.3431 158.315 78.1367 158.152 79.8359 157.898L79.9531 159.031C78.7292 159.259 77.4564 159.428 76.1348 159.539C74.8132 159.643 73.5762 159.712 72.4238 159.744C71.278 159.777 69.9987 159.793 68.5859 159.793L68.3711 158.484ZM103.879 148.328H92.5898V147.078H103.879V148.328ZM106.477 154.52H90.5781V153.27H106.477V154.52ZM99.25 158.25H97.7266V154.109H99.25V158.25ZM104.387 148.328C104.387 149.324 104.354 150.239 104.289 151.072C104.224 151.899 104.068 152.846 103.82 153.914L102.316 153.719C102.486 153.009 102.609 152.348 102.688 151.736C102.766 151.118 102.814 150.571 102.834 150.096C102.854 149.62 102.863 149.07 102.863 148.445V148.328V147.078H104.387V148.328ZM104.504 163.582H102.961V158.992H92.2188V157.723H104.504V163.582ZM114.445 159.5H112.902V156.629H114.445V159.5ZM122.102 163.582H120.578V146.219H122.102V163.582ZM108.684 158.953C110.845 158.934 112.785 158.888 114.504 158.816C116.223 158.745 117.863 158.608 119.426 158.406L119.543 159.578C117.818 159.858 116.024 160.044 114.162 160.135C112.3 160.219 110.311 160.262 108.195 160.262L107.961 158.953H108.684ZM118.977 149.617H108.332V148.367H118.977V149.617ZM113.645 150.613C114.478 150.613 115.214 150.743 115.852 151.004C116.49 151.264 116.981 151.642 117.326 152.137C117.671 152.625 117.844 153.191 117.844 153.836C117.844 154.474 117.671 155.034 117.326 155.516C116.981 155.997 116.486 156.368 115.842 156.629C115.204 156.889 114.471 157.02 113.645 157.02C112.818 157.02 112.089 156.889 111.457 156.629C110.832 156.368 110.344 155.997 109.992 155.516C109.647 155.034 109.478 154.474 109.484 153.836C109.478 153.191 109.647 152.625 109.992 152.137C110.344 151.642 110.832 151.264 111.457 151.004C112.089 150.743 112.818 150.613 113.645 150.613ZM113.645 151.805C113.111 151.805 112.639 151.889 112.229 152.059C111.818 152.228 111.496 152.469 111.262 152.781C111.027 153.087 110.91 153.439 110.91 153.836C110.91 154.233 111.024 154.581 111.252 154.881C111.48 155.174 111.802 155.405 112.219 155.574C112.635 155.737 113.111 155.815 113.645 155.809C114.178 155.815 114.654 155.737 115.07 155.574C115.487 155.405 115.809 155.174 116.037 154.881C116.265 154.581 116.379 154.233 116.379 153.836C116.379 153.439 116.265 153.087 116.037 152.781C115.809 152.469 115.487 152.228 115.07 152.059C114.654 151.889 114.178 151.805 113.645 151.805ZM114.445 149.031H112.902V146.238H114.445V149.031ZM135.852 147.488C136.75 147.488 137.554 147.661 138.264 148.006C138.973 148.351 139.527 148.833 139.924 149.451C140.321 150.07 140.52 150.776 140.52 151.57C140.52 152.365 140.321 153.071 139.924 153.689C139.527 154.308 138.973 154.79 138.264 155.135C137.554 155.48 136.75 155.652 135.852 155.652C134.947 155.652 134.136 155.48 133.42 155.135C132.71 154.79 132.157 154.308 131.76 153.689C131.363 153.071 131.164 152.365 131.164 151.57C131.164 150.776 131.363 150.07 131.76 149.451C132.157 148.833 132.71 148.351 133.42 148.006C134.136 147.661 134.947 147.488 135.852 147.488ZM135.852 148.836C135.24 148.836 134.693 148.95 134.211 149.178C133.729 149.406 133.352 149.731 133.078 150.154C132.805 150.571 132.668 151.043 132.668 151.57C132.668 152.104 132.805 152.576 133.078 152.986C133.352 153.396 133.729 153.719 134.211 153.953C134.693 154.188 135.24 154.305 135.852 154.305C136.457 154.305 137.001 154.188 137.482 153.953C137.971 153.719 138.348 153.396 138.615 152.986C138.882 152.576 139.016 152.104 139.016 151.57C139.016 151.043 138.882 150.571 138.615 150.154C138.348 149.731 137.971 149.406 137.482 149.178C137.001 148.95 136.457 148.836 135.852 148.836ZM144.406 163.621H142.883V146.219H144.406V163.621ZM130.266 158.484C132.434 158.491 134.462 158.458 136.35 158.387C138.238 158.315 140.031 158.152 141.73 157.898L141.848 159.031C140.624 159.259 139.351 159.428 138.029 159.539C136.708 159.643 135.471 159.712 134.318 159.744C133.173 159.777 131.893 159.793 130.48 159.793L130.266 158.484ZM153.996 158.816H152.453V154.949H153.996V158.816ZM161.77 159.422H160.227V146.238H161.77V159.422ZM162.199 163.211H149.855V161.922H162.199V163.211ZM151.398 162.293H149.855V158.133H151.398V162.293ZM147.355 154.285C149.68 154.272 151.737 154.236 153.527 154.178C155.318 154.113 157.03 153.979 158.664 153.777L158.762 154.891C157.076 155.158 155.308 155.333 153.459 155.418C151.61 155.503 149.647 155.542 147.57 155.535L147.355 154.285ZM160.637 157.625H156.633V156.512H160.637V157.625ZM153.059 146.941C153.898 146.941 154.644 147.065 155.295 147.312C155.952 147.56 156.46 147.915 156.818 148.377C157.176 148.839 157.355 149.37 157.355 149.969C157.355 150.581 157.176 151.111 156.818 151.561C156.46 152.01 155.956 152.358 155.305 152.605C154.654 152.853 153.905 152.977 153.059 152.977C152.206 152.977 151.454 152.853 150.803 152.605C150.158 152.358 149.657 152.01 149.299 151.561C148.941 151.111 148.762 150.581 148.762 149.969C148.762 149.37 148.941 148.839 149.299 148.377C149.657 147.915 150.161 147.56 150.812 147.312C151.464 147.065 152.212 146.941 153.059 146.941ZM153.059 148.113C152.499 148.107 152.004 148.182 151.574 148.338C151.145 148.488 150.809 148.706 150.568 148.992C150.334 149.279 150.22 149.604 150.227 149.969C150.22 150.34 150.334 150.669 150.568 150.955C150.809 151.235 151.145 151.453 151.574 151.609C152.004 151.766 152.499 151.844 153.059 151.844C153.605 151.844 154.094 151.766 154.523 151.609C154.953 151.453 155.288 151.235 155.529 150.955C155.77 150.669 155.891 150.34 155.891 149.969C155.891 149.604 155.77 149.279 155.529 148.992C155.288 148.706 154.953 148.488 154.523 148.338C154.094 148.182 153.605 148.107 153.059 148.113ZM179.055 163.621H177.512V146.219H179.055V163.621ZM169.816 147.566C170.676 147.566 171.441 147.814 172.111 148.309C172.782 148.803 173.306 149.51 173.684 150.428C174.061 151.346 174.25 152.41 174.25 153.621C174.25 154.832 174.061 155.893 173.684 156.805C173.306 157.716 172.782 158.419 172.111 158.914C171.441 159.409 170.676 159.656 169.816 159.656C168.957 159.656 168.192 159.409 167.521 158.914C166.851 158.419 166.327 157.716 165.949 156.805C165.572 155.893 165.383 154.832 165.383 153.621C165.383 152.41 165.572 151.346 165.949 150.428C166.327 149.51 166.851 148.803 167.521 148.309C168.192 147.814 168.957 147.566 169.816 147.566ZM169.816 148.934C169.243 148.934 168.732 149.129 168.283 149.52C167.834 149.91 167.486 150.46 167.238 151.17C166.991 151.88 166.867 152.697 166.867 153.621C166.867 154.552 166.991 155.372 167.238 156.082C167.486 156.785 167.834 157.329 168.283 157.713C168.732 158.097 169.243 158.289 169.816 158.289C170.396 158.289 170.907 158.097 171.35 157.713C171.799 157.329 172.147 156.785 172.395 156.082C172.642 155.372 172.766 154.552 172.766 153.621C172.766 152.69 172.642 151.873 172.395 151.17C172.147 150.46 171.799 149.91 171.35 149.52C170.907 149.129 170.396 148.934 169.816 148.934ZM44.0547 178.988H35.1289V177.719H44.0547V178.988ZM40.2461 182.758H38.7227V178.715H40.2461V182.758ZM43.9766 173.129H36.6328V178.188H35.1289V171.879H43.9766V173.129ZM47.9414 187.621H46.418V170.219H47.9414V187.621ZM33.8008 182.523C35.9492 182.523 37.9772 182.491 39.8848 182.426C41.7923 182.361 43.5859 182.23 45.2656 182.035L45.3828 183.188C44.1784 183.363 42.9219 183.497 41.6133 183.588C40.3112 183.673 39.0417 183.734 37.8047 183.773C36.5742 183.806 35.3112 183.819 34.0156 183.812L33.8008 182.523ZM55.6562 171.566C56.4961 171.566 57.2448 171.814 57.9023 172.309C58.5664 172.803 59.0807 173.51 59.4453 174.428C59.8099 175.346 59.9922 176.41 59.9922 177.621C59.9922 178.839 59.8099 179.903 59.4453 180.814C59.0807 181.719 58.5664 182.419 57.9023 182.914C57.2448 183.409 56.4961 183.656 55.6562 183.656C54.8034 183.656 54.0449 183.409 53.3809 182.914C52.7233 182.419 52.2122 181.719 51.8477 180.814C51.4831 179.903 51.3008 178.839 51.3008 177.621C51.3008 176.41 51.4831 175.346 51.8477 174.428C52.2122 173.51 52.7233 172.803 53.3809 172.309C54.0449 171.814 54.8034 171.566 55.6562 171.566ZM55.6562 172.934C55.0898 172.934 54.5885 173.129 54.1523 173.52C53.7227 173.91 53.3841 174.46 53.1367 175.17C52.8893 175.873 52.7656 176.69 52.7656 177.621C52.7656 178.552 52.8893 179.372 53.1367 180.082C53.3841 180.785 53.7227 181.329 54.1523 181.713C54.5885 182.097 55.0898 182.289 55.6562 182.289C56.2161 182.289 56.7174 182.097 57.1602 181.713C57.6029 181.329 57.9447 180.782 58.1855 180.072C58.4264 179.363 58.5469 178.546 58.5469 177.621C58.5469 176.697 58.4264 175.88 58.1855 175.17C57.9447 174.46 57.6029 173.91 57.1602 173.52C56.7174 173.129 56.2161 172.934 55.6562 172.934ZM65.3828 187.621H63.8594V170.219H65.3828V187.621ZM64.543 178.129H59.4844V176.859H64.543V178.129ZM84.1719 185.355H68.2734V184.086H84.1719V185.355ZM76.9258 184.477H75.4219V179.887H76.9258V184.477ZM71.6914 174.594H80.7148V171.449H82.2188V180.336H70.1484V171.449H71.6914V174.594ZM80.7148 179.086V175.844H71.6914V179.086H80.7148ZM99.6016 176.723H87.707V175.492H99.6016V176.723ZM101.438 180.336H85.5391V179.086H101.438V180.336ZM89.2305 176.117H87.707V170.863H89.2305V176.117ZM99.6992 187.152H87.6094V185.883H99.6992V187.152ZM89.1328 186.254H87.6094V182.113H89.1328V186.254ZM113.781 174.887C113.781 176.176 113.56 177.426 113.117 178.637C112.674 179.848 112.069 180.922 111.301 181.859C110.533 182.79 109.68 183.493 108.742 183.969L107.766 182.68C108.625 182.289 109.416 181.687 110.139 180.873C110.861 180.059 111.434 179.128 111.857 178.08C112.287 177.025 112.505 175.961 112.512 174.887V171.723H113.781V174.887ZM114.035 174.887C114.035 175.915 114.247 176.934 114.67 177.943C115.093 178.952 115.663 179.854 116.379 180.648C117.102 181.436 117.889 182.022 118.742 182.406L117.805 183.617C116.867 183.161 116.014 182.488 115.246 181.596C114.478 180.704 113.869 179.675 113.42 178.51C112.971 177.344 112.746 176.137 112.746 174.887V171.723H114.035V174.887ZM122.18 187.621H120.637V170.219H122.18V187.621ZM138.723 182.934H137.18V170.219H138.723V182.934ZM141.34 176.801H138.234V175.512H141.34V176.801ZM134.035 171.566C134.035 173.031 133.703 174.376 133.039 175.6C132.375 176.817 131.428 177.878 130.197 178.783C128.967 179.682 127.512 180.395 125.832 180.922L125.168 179.691C126.652 179.229 127.935 178.63 129.016 177.895C130.096 177.152 130.93 176.303 131.516 175.346C132.102 174.382 132.395 173.35 132.395 172.25V171.566H134.035ZM133.195 172.855H125.891V171.566H133.195V172.855ZM139.523 187.211H127.844V185.922H139.523V187.211ZM129.367 186.43H127.844V181.645H129.367V186.43ZM145.109 182.016H143.469L143.332 171.859H145.246L145.109 182.016ZM144.289 186.117C144.061 186.117 143.85 186.059 143.654 185.941C143.465 185.824 143.312 185.671 143.195 185.482C143.085 185.287 143.033 185.076 143.039 184.848C143.033 184.626 143.085 184.418 143.195 184.223C143.312 184.027 143.465 183.874 143.654 183.764C143.85 183.653 144.061 183.598 144.289 183.598C144.517 183.598 144.725 183.653 144.914 183.764C145.109 183.874 145.262 184.027 145.373 184.223C145.484 184.418 145.539 184.626 145.539 184.848C145.539 185.076 145.484 185.287 145.373 185.482C145.262 185.671 145.109 185.824 144.914 185.941C144.725 186.059 144.517 186.117 144.289 186.117ZM33.3516 210L38.5273 195.859H40.3828L45.5586 210H43.7031L39.5039 198.145H39.3867L35.1875 210H33.3516ZM43.0781 204.473V206.016H35.832V204.473H43.0781ZM49.2305 210H47.4727V195.859H49.2305V210ZM70.5391 203.613H58.5469V202.363H70.5391V203.613ZM72.4141 209.395H56.5156V208.105H72.4141V209.395ZM65.168 208.633H63.6641V202.91H65.168V208.633ZM70.3633 196.895H60.0898V202.949H58.5469V195.645H70.3633V196.895ZM89.6797 205.469H73.7812V204.18H89.6797V205.469ZM82.4336 211.582H80.9297V204.941H82.4336V211.582ZM81.6914 194.922C82.9023 194.922 83.9701 195.078 84.8945 195.391C85.819 195.703 86.5352 196.149 87.043 196.729C87.5508 197.301 87.8047 197.975 87.8047 198.75C87.8047 199.512 87.5508 200.179 87.043 200.752C86.5352 201.318 85.8158 201.755 84.8848 202.061C83.9603 202.367 82.8958 202.52 81.6914 202.52C80.4805 202.52 79.416 202.367 78.498 202.061C77.5801 201.755 76.8639 201.318 76.3496 200.752C75.8353 200.179 75.5781 199.512 75.5781 198.75C75.5781 197.975 75.8353 197.301 76.3496 196.729C76.8639 196.149 77.5801 195.703 78.498 195.391C79.416 195.078 80.4805 194.922 81.6914 194.922ZM81.6914 196.172C80.793 196.172 80.002 196.276 79.3184 196.484C78.6348 196.693 78.1009 196.995 77.7168 197.393C77.3392 197.783 77.1536 198.236 77.1602 198.75C77.1536 199.258 77.3392 199.704 77.7168 200.088C78.1009 200.472 78.6348 200.768 79.3184 200.977C80.002 201.185 80.793 201.289 81.6914 201.289C82.5898 201.289 83.3809 201.185 84.0645 200.977C84.748 200.768 85.2819 200.472 85.666 200.088C86.0501 199.704 86.2422 199.258 86.2422 198.75C86.2422 198.236 86.0534 197.783 85.6758 197.393C85.2982 196.995 84.7643 196.693 84.0742 196.484C83.3841 196.276 82.5898 196.172 81.6914 196.172ZM100.129 207.227H92.1016V195.938H100.129V207.227ZM93.6055 205.977H98.625V197.168H93.6055V205.977ZM105.402 211.621H103.859V194.219H105.402V211.621ZM127.395 204.883H125.91V194.219H127.395V204.883ZM129.602 200H126.574V198.711H129.602V200ZM115.188 198.223H117.238V195.488H118.527V203.477H113.898V195.488H115.188V198.223ZM117.238 202.227V199.473H115.188V202.227H117.238ZM120.949 198.223H123V195.488H124.289V203.477H119.641V195.488H120.949V198.223ZM123 202.227V199.473H120.949V202.227H123ZM121.691 205.195C122.896 205.195 123.934 205.319 124.807 205.566C125.686 205.814 126.359 206.178 126.828 206.66C127.303 207.135 127.544 207.708 127.551 208.379C127.544 209.043 127.303 209.613 126.828 210.088C126.359 210.563 125.686 210.924 124.807 211.172C123.934 211.419 122.896 211.543 121.691 211.543C120.48 211.543 119.439 211.419 118.566 211.172C117.694 210.924 117.023 210.563 116.555 210.088C116.086 209.613 115.852 209.043 115.852 208.379C115.852 207.708 116.086 207.135 116.555 206.66C117.023 206.178 117.694 205.814 118.566 205.566C119.445 205.319 120.487 205.195 121.691 205.195ZM121.691 206.387C120.793 206.393 120.025 206.478 119.387 206.641C118.749 206.797 118.257 207.025 117.912 207.324C117.574 207.617 117.408 207.969 117.414 208.379C117.408 208.783 117.574 209.131 117.912 209.424C118.257 209.717 118.749 209.941 119.387 210.098C120.031 210.254 120.799 210.332 121.691 210.332C122.57 210.332 123.332 210.254 123.977 210.098C124.628 209.941 125.126 209.717 125.471 209.424C125.822 209.131 126.001 208.783 126.008 208.379C126.001 207.969 125.822 207.617 125.471 207.324C125.126 207.025 124.631 206.797 123.986 206.641C123.342 206.478 122.577 206.393 121.691 206.387ZM143.918 196.406H132.609V195.137H143.918V196.406ZM146.496 203.281H130.676V201.992H146.496V203.281ZM144.426 196.582C144.413 197.617 144.374 198.561 144.309 199.414C144.243 200.267 144.094 201.25 143.859 202.363L142.336 202.266C142.512 201.484 142.639 200.752 142.717 200.068C142.801 199.385 142.854 198.799 142.873 198.311C142.893 197.822 142.909 197.214 142.922 196.484V196.387V195.137H144.426V196.387V196.582ZM139.074 205.723C139.074 206.725 138.775 207.627 138.176 208.428C137.577 209.229 136.773 209.889 135.764 210.41C134.761 210.938 133.651 211.302 132.434 211.504L131.848 210.312C132.909 210.156 133.889 209.86 134.787 209.424C135.692 208.988 136.411 208.451 136.945 207.812C137.479 207.174 137.746 206.478 137.746 205.723V204.883H139.074V205.723ZM139.289 205.723C139.289 206.478 139.559 207.174 140.1 207.812C140.64 208.451 141.359 208.988 142.258 209.424C143.156 209.86 144.133 210.156 145.188 210.312L144.621 211.504C143.404 211.302 142.29 210.938 141.281 210.41C140.279 209.889 139.475 209.232 138.869 208.438C138.264 207.637 137.961 206.732 137.961 205.723V204.883H139.289V205.723ZM162.277 211.621H160.734V194.219H162.277V211.621ZM153.039 195.566C153.898 195.566 154.663 195.814 155.334 196.309C156.005 196.803 156.529 197.51 156.906 198.428C157.284 199.346 157.473 200.41 157.473 201.621C157.473 202.832 157.284 203.893 156.906 204.805C156.529 205.716 156.005 206.419 155.334 206.914C154.663 207.409 153.898 207.656 153.039 207.656C152.18 207.656 151.415 207.409 150.744 206.914C150.074 206.419 149.549 205.716 149.172 204.805C148.794 203.893 148.605 202.832 148.605 201.621C148.605 200.41 148.794 199.346 149.172 198.428C149.549 197.51 150.074 196.803 150.744 196.309C151.415 195.814 152.18 195.566 153.039 195.566ZM153.039 196.934C152.466 196.934 151.955 197.129 151.506 197.52C151.057 197.91 150.708 198.46 150.461 199.17C150.214 199.88 150.09 200.697 150.09 201.621C150.09 202.552 150.214 203.372 150.461 204.082C150.708 204.785 151.057 205.329 151.506 205.713C151.955 206.097 152.466 206.289 153.039 206.289C153.618 206.289 154.13 206.097 154.572 205.713C155.021 205.329 155.37 204.785 155.617 204.082C155.865 203.372 155.988 202.552 155.988 201.621C155.988 200.69 155.865 199.873 155.617 199.17C155.37 198.46 155.021 197.91 154.572 197.52C154.13 197.129 153.618 196.934 153.039 196.934ZM171.262 207.109H169.719V202.988H171.262V207.109ZM170.48 195.352C171.366 195.358 172.16 195.534 172.863 195.879C173.566 196.217 174.117 196.696 174.514 197.314C174.911 197.933 175.109 198.639 175.109 199.434C175.109 200.228 174.911 200.931 174.514 201.543C174.117 202.155 173.563 202.633 172.854 202.979C172.15 203.324 171.359 203.496 170.48 203.496C169.582 203.496 168.781 203.324 168.078 202.979C167.375 202.633 166.828 202.155 166.438 201.543C166.047 200.931 165.852 200.228 165.852 199.434C165.852 198.639 166.047 197.933 166.438 197.314C166.828 196.696 167.375 196.217 168.078 195.879C168.781 195.534 169.582 195.358 170.48 195.352ZM170.48 196.68C169.875 196.68 169.335 196.797 168.859 197.031C168.391 197.266 168.02 197.591 167.746 198.008C167.479 198.424 167.349 198.9 167.355 199.434C167.349 199.967 167.479 200.443 167.746 200.859C168.02 201.276 168.391 201.602 168.859 201.836C169.335 202.07 169.875 202.188 170.48 202.188C171.073 202.188 171.604 202.07 172.072 201.836C172.548 201.602 172.919 201.276 173.186 200.859C173.459 200.443 173.599 199.967 173.605 199.434C173.599 198.9 173.459 198.424 173.186 198.008C172.919 197.591 172.548 197.266 172.072 197.031C171.604 196.797 171.073 196.68 170.48 196.68ZM178.664 211.582H177.141V194.219H178.664V211.582ZM181.496 202.715H178.254V201.387H181.496V202.715ZM165.871 206.523C167.915 206.504 169.755 206.462 171.389 206.396C173.029 206.331 174.576 206.204 176.027 206.016L176.125 207.168C174.986 207.363 173.788 207.51 172.531 207.607C171.281 207.705 170.077 207.767 168.918 207.793C167.759 207.812 166.548 207.819 165.285 207.812L165.031 206.523H165.871ZM40.8027 229.439H38.6543V226.305H40.8027V229.439ZM38.459 230.641H46.1348V229.01H48.2637V235.514H36.3105V229.01H38.459V230.641ZM46.1348 233.785V232.301H38.459V233.785H46.1348ZM48.2637 228.258H46.1055V218.102H48.2637V228.258ZM33.6152 225.611C35.9655 225.618 38.0423 225.595 39.8457 225.543C41.6491 225.484 43.3874 225.351 45.0605 225.143L45.1777 226.676C43.472 226.969 41.7174 227.158 39.9141 227.242C38.1172 227.32 36.1055 227.359 33.8789 227.359L33.6152 225.611ZM40.1973 219.303C40.1908 220.182 39.9954 220.992 39.6113 221.734C39.2272 222.47 38.6641 223.105 37.9219 223.639C37.1797 224.173 36.2878 224.557 35.2461 224.791L34.2793 223.111C35.1712 222.929 35.9297 222.649 36.5547 222.271C37.1797 221.887 37.6517 221.441 37.9707 220.934C38.2962 220.419 38.459 219.876 38.459 219.303V218.531H40.1973V219.303ZM40.6855 219.303C40.6855 219.837 40.8451 220.344 41.1641 220.826C41.4896 221.301 41.9616 221.718 42.5801 222.076C43.1986 222.434 43.9408 222.701 44.8066 222.877L43.8789 224.508C42.8372 224.293 41.9453 223.938 41.2031 223.443C40.4674 222.949 39.9043 222.35 39.5137 221.646C39.1296 220.937 38.9408 220.156 38.9473 219.303V218.531H40.6855V219.303ZM63.8984 221.441H52.541V219.693H63.8984V221.441ZM66.9551 233.453H50.8809V231.686H66.9551V233.453ZM58.957 232.594H56.8184V225.533H58.957V232.594ZM65.2754 221.607C65.2689 223.059 65.2266 224.384 65.1484 225.582C65.0703 226.773 64.8848 228.16 64.5918 229.742L62.3945 229.508C62.6029 228.46 62.7559 227.47 62.8535 226.539C62.9577 225.602 63.0228 224.778 63.0488 224.068C63.0749 223.359 63.0879 222.509 63.0879 221.52V221.402V219.693H65.2754V221.402V221.607ZM88.2441 235.719H86.1543V218.082H88.2441V235.719ZM86.877 226.783H83.752V224.996H86.877V226.783ZM84.3574 234.889H82.2969V218.385H84.3574V234.889ZM77.9512 222.594C77.9512 224.091 77.8145 225.462 77.541 226.705C77.2676 227.942 76.8346 229.042 76.2422 230.006C75.6497 230.963 74.888 231.715 73.957 232.262L72.6191 230.592C73.472 230.117 74.1719 229.475 74.7188 228.668C75.2721 227.861 75.6725 226.949 75.9199 225.934C76.1738 224.911 76.2975 223.798 76.291 222.594V220.807H77.9512V222.594ZM78.4004 222.594C78.4069 223.688 78.5371 224.71 78.791 225.66C79.0514 226.604 79.4518 227.451 79.9922 228.199C80.5391 228.948 81.2357 229.54 82.082 229.977L80.8223 231.637C79.8783 231.129 79.1003 230.426 78.4883 229.527C77.8828 228.629 77.4368 227.594 77.1504 226.422C76.8704 225.25 76.7305 223.974 76.7305 222.594V220.807H78.4004V222.594ZM81.291 221.764H73.166V220.006H81.291V221.764ZM96.0469 229.625C96.0404 230.491 95.8874 231.311 95.5879 232.086C95.2884 232.861 94.8392 233.548 94.2402 234.146C93.6478 234.745 92.9154 235.201 92.043 235.514L90.959 233.893C91.6947 233.645 92.3197 233.297 92.834 232.848C93.3483 232.392 93.7324 231.887 93.9863 231.334C94.2402 230.781 94.3704 230.211 94.377 229.625V228.766H96.0469V229.625ZM96.4863 229.625C96.4798 230.224 96.5872 230.807 96.8086 231.373C97.0365 231.939 97.3815 232.457 97.8438 232.926C98.3125 233.388 98.8952 233.762 99.5918 234.049L98.7227 235.66C97.8438 235.341 97.1178 234.866 96.5449 234.234C95.9785 233.609 95.5651 232.903 95.3047 232.115C95.0508 231.321 94.9271 230.491 94.9336 229.625V228.766H96.4863V229.625ZM102.482 229.625C102.476 230.432 102.339 231.233 102.072 232.027C101.805 232.822 101.389 233.541 100.822 234.186C100.256 234.837 99.556 235.328 98.7227 235.66L97.8145 234.049C98.4915 233.749 99.0645 233.352 99.5332 232.857C100.002 232.363 100.35 231.835 100.578 231.275C100.806 230.715 100.92 230.165 100.92 229.625V228.766H102.482V229.625ZM103.049 229.625C103.042 230.25 103.166 230.842 103.42 231.402C103.674 231.962 104.055 232.46 104.562 232.896C105.077 233.333 105.708 233.665 106.457 233.893L105.402 235.514C104.51 235.214 103.765 234.771 103.166 234.186C102.567 233.6 102.118 232.919 101.818 232.145C101.525 231.363 101.382 230.523 101.389 229.625V228.766H103.049V229.625ZM99.6113 227.027H91.1152V219.205H99.6113V227.027ZM93.2441 225.309H97.4727V220.943H93.2441V225.309ZM104.904 228.17H102.727V218.102H104.904V228.17ZM122.717 235.719H120.666V218.082H122.717V235.719ZM117.395 226.764H113.322V225.035H117.395V226.764ZM118.977 234.908H116.926V218.512H118.977V234.908ZM115.178 220.24C115.171 221.933 114.953 223.486 114.523 224.898C114.094 226.311 113.394 227.62 112.424 228.824C111.46 230.022 110.184 231.083 108.596 232.008L107.355 230.465C108.703 229.664 109.797 228.775 110.637 227.799C111.483 226.816 112.098 225.738 112.482 224.566C112.867 223.395 113.062 222.096 113.068 220.67V220.24H115.178ZM113.801 221.998H108.254V220.24H113.801V221.998ZM132.521 221.402H136.467V218.99H138.605V227.184H130.344V218.99H132.521V221.402ZM136.467 225.445V223.082H132.521V225.445H136.467ZM142.688 224.01H138.088V222.213H142.688V224.01ZM144.328 227.74H142.16V218.082H144.328V227.74ZM134.855 230.309H142.16V228.502H144.318V235.494H132.697V228.502H134.855V230.309ZM142.16 233.736V231.998H134.855V233.736H142.16ZM160.754 230.992H158.586V218.092H160.754V230.992ZM163.225 225.055H160.109V223.258H163.225V225.055ZM161.447 235.406H149.445V233.629H161.447V235.406ZM151.604 234.4H149.445V229.645H151.604V234.4ZM151.779 219.254C152.671 219.254 153.479 219.446 154.201 219.83C154.93 220.208 155.5 220.735 155.91 221.412C156.327 222.083 156.538 222.844 156.545 223.697C156.538 224.544 156.327 225.305 155.91 225.982C155.5 226.653 154.93 227.18 154.201 227.564C153.479 227.949 152.671 228.141 151.779 228.141C150.9 228.141 150.096 227.949 149.367 227.564C148.638 227.18 148.065 226.65 147.648 225.973C147.232 225.296 147.023 224.537 147.023 223.697C147.023 222.844 147.232 222.083 147.648 221.412C148.065 220.735 148.635 220.208 149.357 219.83C150.087 219.446 150.894 219.254 151.779 219.254ZM151.779 221.158C151.291 221.158 150.845 221.262 150.441 221.471C150.044 221.673 149.729 221.969 149.494 222.359C149.266 222.743 149.152 223.189 149.152 223.697C149.152 224.199 149.266 224.641 149.494 225.025C149.729 225.403 150.044 225.699 150.441 225.914C150.845 226.129 151.291 226.236 151.779 226.236C152.281 226.236 152.73 226.132 153.127 225.924C153.531 225.709 153.846 225.41 154.074 225.025C154.309 224.641 154.426 224.199 154.426 223.697C154.426 223.189 154.309 222.743 154.074 222.359C153.846 221.969 153.531 221.673 153.127 221.471C152.73 221.262 152.281 221.158 151.779 221.158ZM172.16 218.365C173.488 218.365 174.628 218.479 175.578 218.707C176.535 218.935 177.261 219.277 177.756 219.732C178.251 220.182 178.498 220.729 178.498 221.373C178.498 222.031 178.251 222.587 177.756 223.043C177.261 223.499 176.538 223.844 175.588 224.078C174.637 224.306 173.495 224.423 172.16 224.43C170.812 224.423 169.663 224.306 168.713 224.078C167.762 223.844 167.036 223.499 166.535 223.043C166.034 222.587 165.783 222.031 165.783 221.373C165.783 220.729 166.034 220.182 166.535 219.732C167.036 219.277 167.762 218.935 168.713 218.707C169.67 218.479 170.819 218.365 172.16 218.365ZM172.16 219.957C171.255 219.957 170.497 220.012 169.885 220.123C169.279 220.234 168.82 220.396 168.508 220.611C168.202 220.82 168.052 221.074 168.059 221.373C168.052 221.699 168.202 221.969 168.508 222.184C168.82 222.392 169.273 222.548 169.865 222.652C170.464 222.757 171.229 222.809 172.16 222.809C173.085 222.809 173.846 222.757 174.445 222.652C175.051 222.548 175.507 222.392 175.812 222.184C176.118 221.969 176.271 221.699 176.271 221.373C176.271 221.074 176.118 220.82 175.812 220.611C175.507 220.396 175.044 220.234 174.426 220.123C173.814 220.012 173.059 219.957 172.16 219.957ZM180.197 227.115H164.123V225.377H180.197V227.115ZM178.205 232.613H168.166V234.381H166.018V231.08H176.057V229.898H166.008V228.297H178.205V232.613ZM178.684 235.582H166.018V233.922H178.684V235.582ZM36.3301 245.109H40.4512V242.863H42.6191V250.559H34.1914V242.863H36.3301V245.109ZM40.4512 248.83V246.75H36.3301V248.83H40.4512ZM47.5117 251.115H45.3438V242.082H47.5117V251.115ZM49.9824 247.424H46.5938V245.646H49.9824V247.424ZM47.5117 256.447H38.127V258.742H35.9883V254.865H45.3438V253.527H35.959V251.828H47.5117V256.447ZM48.0684 259.582H35.9883V257.854H48.0684V259.582ZM56.6035 243.293C57.5215 243.293 58.3483 243.475 59.084 243.84C59.8262 244.204 60.4056 244.712 60.8223 245.363C61.2389 246.014 61.4473 246.75 61.4473 247.57C61.4473 248.397 61.2389 249.136 60.8223 249.787C60.4056 250.432 59.8262 250.936 59.084 251.301C58.3483 251.665 57.5215 251.848 56.6035 251.848C55.6855 251.848 54.8555 251.665 54.1133 251.301C53.3776 250.936 52.7982 250.432 52.375 249.787C51.9583 249.136 51.75 248.397 51.75 247.57C51.75 246.75 51.9583 246.014 52.375 245.363C52.7982 244.712 53.3776 244.204 54.1133 243.84C54.8555 243.475 55.6855 243.293 56.6035 243.293ZM56.6035 245.178C56.0892 245.184 55.627 245.285 55.2168 245.48C54.8066 245.669 54.4844 245.946 54.25 246.311C54.0156 246.675 53.8984 247.095 53.8984 247.57C53.8984 248.052 54.0156 248.472 54.25 248.83C54.4844 249.188 54.8066 249.465 55.2168 249.66C55.627 249.855 56.0892 249.956 56.6035 249.963C57.1243 249.956 57.5898 249.855 58 249.66C58.4167 249.465 58.7389 249.188 58.9668 248.83C59.2012 248.472 59.3184 248.052 59.3184 247.57C59.3184 247.095 59.2012 246.675 58.9668 246.311C58.7389 245.946 58.4167 245.669 58 245.48C57.5898 245.285 57.1243 245.184 56.6035 245.178ZM65.5684 259.768H63.4199V242.082H65.5684V259.768ZM50.9492 254.289C53.0911 254.289 55.1061 254.253 56.9941 254.182C58.8822 254.104 60.6693 253.944 62.3555 253.703L62.5215 255.285C61.304 255.513 60.0378 255.686 58.7227 255.803C57.4076 255.913 56.1706 255.985 55.0117 256.018C53.8594 256.05 52.5964 256.066 51.2227 256.066L50.9492 254.289ZM76.7598 246.633H68.127V244.895H76.7598V246.633ZM72.4629 247.561C73.2051 247.561 73.8691 247.736 74.4551 248.088C75.041 248.439 75.4967 248.928 75.8223 249.553C76.1543 250.178 76.3236 250.887 76.3301 251.682C76.3236 252.482 76.1543 253.199 75.8223 253.83C75.4967 254.455 75.041 254.947 74.4551 255.305C73.8691 255.663 73.2051 255.842 72.4629 255.842C71.7337 255.842 71.0729 255.663 70.4805 255.305C69.8945 254.947 69.4355 254.455 69.1035 253.83C68.778 253.199 68.6152 252.482 68.6152 251.682C68.6152 250.894 68.7812 250.188 69.1133 249.562C69.4453 248.931 69.9043 248.439 70.4902 248.088C71.0762 247.736 71.7337 247.561 72.4629 247.561ZM72.4629 249.367C72.0853 249.367 71.75 249.465 71.457 249.66C71.1706 249.849 70.9427 250.119 70.7734 250.471C70.6107 250.816 70.5326 251.219 70.5391 251.682C70.5326 252.15 70.6107 252.557 70.7734 252.902C70.9427 253.241 71.1706 253.505 71.457 253.693C71.75 253.882 72.0853 253.977 72.4629 253.977C72.8405 253.977 73.1758 253.882 73.4688 253.693C73.7682 253.505 73.9993 253.241 74.1621 252.902C74.3314 252.557 74.416 252.15 74.416 251.682C74.416 251.219 74.3314 250.816 74.1621 250.471C73.9993 250.119 73.7682 249.849 73.4688 249.66C73.1758 249.465 72.8405 249.367 72.4629 249.367ZM83.332 259.719H81.2617V242.082H83.332V259.719ZM81.9453 251.096H78.8496V249.348H81.9453V251.096ZM79.543 258.928H77.502V242.463H79.543V258.928ZM73.5371 245.979H71.3984V242.59H73.5371V245.979ZM88.4785 245.881H93.0879V243.508H95.2559V251.564H86.3496V243.508H88.4785V245.881ZM93.0879 249.846V247.531H88.4785V249.846H93.0879ZM91.8965 254.982H89.7188V251.047H91.8965V254.982ZM99.3281 259.719H97.1602V242.082H99.3281V259.719ZM101.887 251.066H98.6836V249.26H101.887V251.066ZM85.9199 254.523C88.0749 254.517 89.9531 254.484 91.5547 254.426C93.1628 254.367 94.696 254.24 96.1543 254.045L96.3008 255.637C95.168 255.832 93.9896 255.979 92.7656 256.076C91.5482 256.167 90.3926 256.229 89.2988 256.262C88.2116 256.294 86.9974 256.311 85.6562 256.311H85.5391L85.2363 254.523H85.9199ZM108.605 256.164H106.467V251.105H108.605V256.164ZM115.139 256.164H112.951V251.105H115.139V256.164ZM118.869 257.6H102.736V255.812H118.869V257.6ZM110.773 243.029C112.03 243.029 113.156 243.225 114.152 243.615C115.148 243.999 115.93 244.546 116.496 245.256C117.062 245.965 117.346 246.779 117.346 247.697C117.346 248.622 117.062 249.436 116.496 250.139C115.936 250.842 115.155 251.389 114.152 251.779C113.156 252.163 112.03 252.355 110.773 252.355C109.504 252.355 108.371 252.163 107.375 251.779C106.385 251.389 105.607 250.842 105.041 250.139C104.481 249.436 104.201 248.622 104.201 247.697C104.201 246.779 104.481 245.965 105.041 245.256C105.607 244.546 106.385 243.999 107.375 243.615C108.371 243.225 109.504 243.029 110.773 243.029ZM110.773 244.768C109.888 244.761 109.11 244.875 108.439 245.109C107.769 245.344 107.248 245.686 106.877 246.135C106.512 246.577 106.33 247.098 106.33 247.697C106.33 248.296 106.512 248.82 106.877 249.27C107.248 249.712 107.769 250.057 108.439 250.305C109.11 250.546 109.888 250.666 110.773 250.666C111.639 250.666 112.408 250.542 113.078 250.295C113.749 250.048 114.27 249.702 114.641 249.26C115.018 248.817 115.207 248.296 115.207 247.697C115.207 247.098 115.018 246.577 114.641 246.135C114.27 245.686 113.749 245.344 113.078 245.109C112.408 244.875 111.639 244.761 110.773 244.768ZM122.16 258.156C121.88 258.156 121.623 258.088 121.389 257.951C121.161 257.814 120.979 257.629 120.842 257.395C120.705 257.16 120.64 256.906 120.646 256.633C120.64 256.366 120.705 256.118 120.842 255.891C120.979 255.656 121.161 255.474 121.389 255.344C121.623 255.207 121.88 255.139 122.16 255.139C122.427 255.139 122.674 255.207 122.902 255.344C123.137 255.474 123.322 255.656 123.459 255.891C123.596 256.118 123.664 256.366 123.664 256.633C123.664 256.906 123.596 257.16 123.459 257.395C123.322 257.629 123.137 257.814 122.902 257.951C122.674 258.088 122.427 258.156 122.16 258.156Z" fill="#464646"/>
<defs>
<filter id="filter0_bd_347_1040" x="-76" y="-80" width="366" height="772" filterUnits="userSpaceOnUse" color-interpolation-filters="sRGB">
<feFlood flood-opacity="0" result="BackgroundImageFix"/>
<feGaussianBlur in="BackgroundImageFix" stdDeviation="40"/>
<feComposite in2="SourceAlpha" operator="in" result="effect1_backgroundBlur_347_1040"/>
<feColorMatrix in="SourceAlpha" type="matrix" values="0 0 0 0 0 0 0 0 0 0 0 0 0 0 0 0 0 0 127 0" result="hardAlpha"/>
<feOffset dy="3.6"/>
<feGaussianBlur stdDeviation="1.8"/>
<feComposite in2="hardAlpha" operator="out"/>
<feColorMatrix type="matrix" values="0 0 0 0 0 0 0 0 0 0 0 0 0 0 0 0 0 0 0.25 0"/>
<feBlend mode="normal" in2="effect1_backgroundBlur_347_1040" result="effect2_dropShadow_347_1040"/>
<feBlend mode="normal" in="SourceGraphic" in2="effect2_dropShadow_347_1040" result="shape"/>
</filter>
<linearGradient id="paint0_linear_347_1040" x1="107" y1="-45.5" x2="107" y2="612" gradientUnits="userSpaceOnUse">
<stop stop-color="#D8F5DD"/>
<stop offset="1" stop-color="#D8F5DD" stop-opacity="0"/>
</linearGradient>
</defs>
</svg>
