<svg xmlns="http://www.w3.org/2000/svg" width="197" height="74" viewBox="0 0 197 74" fill="none">
<g filter="url(#filter0_bd_400_2277)">
<path d="M4 18C4 8.05887 12.0589 0 22 0H175C184.941 0 193 8.05888 193 18V64C193 65.1046 192.105 66 191 66H6C4.89543 66 4 65.1046 4 64V18Z" fill="url(#paint0_linear_400_2277)"/>
<path d="M78.2285 15.0801H66.8125V12.6191H78.2285V15.0801ZM81.3438 21.1836H64.8594V18.7031H81.3438V21.1836ZM74.6348 23.9961H71.4902V20.4609H74.6348V23.9961ZM79.5273 14.1035C79.5273 15.1973 79.4948 16.1706 79.4297 17.0234C79.3711 17.8698 79.2214 18.8138 78.9805 19.8555L75.875 19.5527C76.0247 18.8757 76.1354 18.2344 76.207 17.6289C76.2852 17.0234 76.334 16.4831 76.3535 16.0078C76.3796 15.5326 76.3958 14.9564 76.4023 14.2793V14.1035V12.6191H79.5273V14.1035ZM79.4785 29.9336H76.334V25.7148H66.4609V23.2832H79.4785V29.9336ZM89.5371 25.8516H86.4219V22.9414H89.5371V25.8516ZM97.5254 29.9336H94.4102V11.8672H97.5254V29.9336ZM82.8867 24.6602C85.1263 24.6536 87.0762 24.6211 88.7363 24.5625C90.3965 24.5039 92.0046 24.3704 93.5605 24.1621L93.7461 26.4668C92.0273 26.7663 90.276 26.9616 88.4922 27.0527C86.7083 27.1374 84.7389 27.1797 82.584 27.1797L82.1836 24.6602H82.8867ZM93.4434 16.1836H82.5352V13.7617H93.4434V16.1836ZM87.9746 16.6914C88.873 16.6914 89.6738 16.8379 90.377 17.1309C91.0866 17.4173 91.6367 17.821 92.0273 18.3418C92.4245 18.8561 92.623 19.4453 92.623 20.1094C92.623 20.7734 92.4245 21.3659 92.0273 21.8867C91.6367 22.401 91.0866 22.8047 90.377 23.0977C89.6738 23.3906 88.873 23.5371 87.9746 23.5371C87.0892 23.5371 86.2982 23.3906 85.6016 23.0977C84.9049 22.8047 84.3581 22.401 83.9609 21.8867C83.5703 21.3659 83.375 20.7734 83.375 20.1094C83.375 19.4453 83.5703 18.8561 83.9609 18.3418C84.3581 17.821 84.9049 17.4173 85.6016 17.1309C86.2982 16.8379 87.0892 16.6914 87.9746 16.6914ZM87.9746 19.0352C87.6491 19.0417 87.3659 19.084 87.125 19.1621C86.8906 19.2337 86.7051 19.3509 86.5684 19.5137C86.4316 19.6764 86.3633 19.875 86.3633 20.1094C86.3633 20.3568 86.4316 20.5586 86.5684 20.7148C86.7051 20.8711 86.8906 20.9883 87.125 21.0664C87.3659 21.1445 87.6491 21.1836 87.9746 21.1836C88.3132 21.1836 88.6061 21.1445 88.8535 21.0664C89.1074 20.9883 89.2995 20.8711 89.4297 20.7148C89.5599 20.5586 89.625 20.3568 89.625 20.1094C89.625 19.875 89.5599 19.6764 89.4297 19.5137C89.2995 19.3509 89.1074 19.2337 88.8535 19.1621C88.6061 19.084 88.3132 19.0417 87.9746 19.0352ZM89.5664 15.1777H86.4219V11.9941H89.5664V15.1777ZM105.221 13.0098C106.171 13.0098 107.034 13.2083 107.809 13.6055C108.583 13.9961 109.192 14.5397 109.635 15.2363C110.084 15.9329 110.309 16.7109 110.309 17.5703C110.309 18.4362 110.084 19.2174 109.635 19.9141C109.192 20.6042 108.583 21.1478 107.809 21.5449C107.034 21.9355 106.171 22.1309 105.221 22.1309C104.277 22.1309 103.414 21.9355 102.633 21.5449C101.858 21.1478 101.243 20.6042 100.787 19.9141C100.338 19.2174 100.113 18.4362 100.113 17.5703C100.113 16.7109 100.338 15.9329 100.787 15.2363C101.243 14.5397 101.858 13.9961 102.633 13.6055C103.414 13.2083 104.277 13.0098 105.221 13.0098ZM105.221 15.7051C104.843 15.7116 104.505 15.7832 104.205 15.9199C103.906 16.0566 103.668 16.2682 103.492 16.5547C103.323 16.8346 103.238 17.1732 103.238 17.5703C103.238 17.9805 103.323 18.3255 103.492 18.6055C103.668 18.8789 103.906 19.084 104.205 19.2207C104.505 19.3574 104.843 19.429 105.221 19.4355C105.611 19.429 105.96 19.3574 106.266 19.2207C106.578 19.084 106.822 18.8789 106.998 18.6055C107.174 18.3255 107.262 17.9805 107.262 17.5703C107.262 17.1732 107.174 16.8346 106.998 16.5547C106.822 16.2682 106.578 16.0566 106.266 15.9199C105.96 15.7832 105.611 15.7116 105.221 15.7051ZM114.811 29.9922H111.695V11.8672H114.811V29.9922ZM99.4688 23.9863C101.572 23.9798 103.564 23.9408 105.445 23.8691C107.327 23.791 109.107 23.6413 110.787 23.4199L111.012 25.6562C109.801 25.8971 108.544 26.0794 107.242 26.2031C105.94 26.3203 104.706 26.3984 103.541 26.4375C102.376 26.4701 101.132 26.4831 99.8105 26.4766L99.4688 23.9863ZM124.322 25.1875H121.178V21.2227H124.322V25.1875ZM132.242 25.5H129.117V11.9062H132.242V25.5ZM132.623 29.6895H118.746V27.1895H132.623V29.6895ZM121.891 27.834H118.746V24.2109H121.891V27.834ZM116.646 19.6797C119.049 19.6536 121.148 19.6048 122.945 19.5332C124.749 19.4616 126.48 19.3216 128.141 19.1133L128.297 21.3496C126.559 21.6491 124.739 21.8542 122.838 21.9648C120.943 22.069 118.997 22.1211 116.998 22.1211L116.646 19.6797ZM129.781 24.3477H125.836V22.2578H129.781V24.3477ZM122.486 12.4434C123.346 12.4368 124.12 12.5736 124.811 12.8535C125.507 13.1335 126.048 13.5241 126.432 14.0254C126.822 14.5267 127.018 15.0931 127.018 15.7246C127.018 16.3626 126.822 16.9258 126.432 17.4141C126.048 17.9023 125.51 18.2832 124.82 18.5566C124.13 18.8236 123.352 18.957 122.486 18.957C121.594 18.957 120.803 18.8236 120.113 18.5566C119.423 18.2832 118.883 17.9056 118.492 17.4238C118.102 16.9355 117.906 16.3691 117.906 15.7246C117.906 15.0931 118.102 14.5267 118.492 14.0254C118.883 13.5176 119.423 13.127 120.113 12.8535C120.81 12.5736 121.601 12.4368 122.486 12.4434ZM122.486 14.6992C122.154 14.7057 121.868 14.7448 121.627 14.8164C121.393 14.8815 121.207 14.9922 121.07 15.1484C120.934 15.2982 120.865 15.4902 120.865 15.7246C120.865 15.959 120.934 16.1478 121.07 16.291C121.207 16.4342 121.393 16.5417 121.627 16.6133C121.868 16.6849 122.154 16.7207 122.486 16.7207C122.799 16.7207 123.069 16.6849 123.297 16.6133C123.531 16.5417 123.714 16.4342 123.844 16.291C123.974 16.1413 124.039 15.9525 124.039 15.7246C124.039 15.4967 123.974 15.3047 123.844 15.1484C123.714 14.9922 123.531 14.8815 123.297 14.8164C123.069 14.7448 122.799 14.7057 122.486 14.6992Z" fill="#5379C2"/>
</g>
<defs>
<filter id="filter0_bd_400_2277" x="-16" y="-20" width="229" height="106" filterUnits="userSpaceOnUse" color-interpolation-filters="sRGB">
<feFlood flood-opacity="0" result="BackgroundImageFix"/>
<feGaussianBlur in="BackgroundImageFix" stdDeviation="10"/>
<feComposite in2="SourceAlpha" operator="in" result="effect1_backgroundBlur_400_2277"/>
<feColorMatrix in="SourceAlpha" type="matrix" values="0 0 0 0 0 0 0 0 0 0 0 0 0 0 0 0 0 0 127 0" result="hardAlpha"/>
<feOffset dy="4"/>
<feGaussianBlur stdDeviation="2"/>
<feComposite in2="hardAlpha" operator="out"/>
<feColorMatrix type="matrix" values="0 0 0 0 0 0 0 0 0 0 0 0 0 0 0 0 0 0 0.25 0"/>
<feBlend mode="normal" in2="effect1_backgroundBlur_400_2277" result="effect2_dropShadow_400_2277"/>
<feBlend mode="normal" in="SourceGraphic" in2="effect2_dropShadow_400_2277" result="shape"/>
</filter>
<linearGradient id="paint0_linear_400_2277" x1="98.5" y1="0" x2="98.5" y2="66" gradientUnits="userSpaceOnUse">
<stop stop-color="#F6F6F6"/>
<stop offset="1" stop-color="#F6F6F6" stop-opacity="0"/>
</linearGradient>
</defs>
</svg>