<svg width="214" height="620" viewBox="0 0 214 620" fill="none" xmlns="http://www.w3.org/2000/svg">
<g filter="url(#filter0_bd_359_1278)">
<rect x="4" width="206" height="612" rx="103" fill="url(#paint0_linear_359_1278)" shape-rendering="crispEdges"/>
</g>
<path d="M66.9961 68.1289H72.2695V65.0703H74.4609V74.75H64.7812V65.0703H66.9961V68.1289ZM72.2695 72.957V69.8633H66.9961V72.957H72.2695ZM79.6523 70.8711H73.8867V69.0312H79.6523V70.8711ZM81.2812 75.4766H79.0547V63.9805H81.2812V75.4766ZM69.8086 78.793H79.0547V76.4375H81.2578V84.7109H67.582V76.4375H69.8086V78.793ZM79.0547 82.8945V80.5508H69.8086V82.8945H79.0547ZM101.016 79.4141H98.8008V63.9922H101.016V79.4141ZM104.074 72.1133H100.336V70.2617H104.074V72.1133ZM101.906 84.5703H87.7148V82.7305H101.906V84.5703ZM89.918 83.4922H87.7148V77.8086H89.918V83.4922ZM90.4219 65.4219C91.4688 65.4219 92.418 65.6445 93.2695 66.0898C94.1289 66.5352 94.8008 67.1562 95.2852 67.9531C95.7695 68.75 96.0156 69.6484 96.0234 70.6484C96.0156 71.6562 95.7695 72.5586 95.2852 73.3555C94.8008 74.1445 94.1289 74.7656 93.2695 75.2188C92.418 75.6641 91.4688 75.8867 90.4219 75.8867C89.375 75.8867 88.4258 75.6641 87.5742 75.2188C86.7227 74.7656 86.0508 74.1406 85.5586 73.3438C85.0742 72.5469 84.832 71.6484 84.832 70.6484C84.832 69.6484 85.0742 68.75 85.5586 67.9531C86.0508 67.1562 86.7188 66.5352 87.5625 66.0898C88.4141 65.6445 89.3672 65.4219 90.4219 65.4219ZM90.4219 67.3672C89.7891 67.3672 89.2109 67.5039 88.6875 67.7773C88.1719 68.0508 87.7617 68.4414 87.457 68.9492C87.1602 69.4492 87.0117 70.0156 87.0117 70.6484C87.0117 71.2891 87.1602 71.8594 87.457 72.3594C87.7617 72.8516 88.1719 73.2383 88.6875 73.5195C89.2109 73.793 89.7891 73.9297 90.4219 73.9297C91.0703 73.9297 91.6523 73.793 92.168 73.5195C92.6914 73.2383 93.1016 72.8516 93.3984 72.3594C93.6953 71.8594 93.8438 71.2891 93.8438 70.6484C93.8438 70.0078 93.6953 69.4375 93.3984 68.9375C93.1016 68.4375 92.6914 68.0508 92.168 67.7773C91.6523 67.5039 91.0703 67.3672 90.4219 67.3672ZM130.312 76.7773H111.094V74.9961H130.312V76.7773ZM121.992 80.6445H119.789V75.8867H121.992V80.6445ZM128.18 84.5703H113.484V82.7305H128.18V84.5703ZM115.688 83.457H113.484V78.793H115.688V83.457ZM115.84 67.1914H125.566V64.6602H127.77V73.1328H113.637V64.6602H115.84V67.1914ZM125.566 71.3516V68.8672H115.84V71.3516H125.566ZM147.539 70.0742H142.711V68.2344H147.539V70.0742ZM138.867 67.2148C138.867 68.5664 138.633 69.8281 138.164 71C137.703 72.1719 137.031 73.1914 136.148 74.0586C135.273 74.918 134.234 75.5781 133.031 76.0391L131.824 74.2227C132.91 73.8555 133.844 73.3203 134.625 72.6172C135.414 71.9062 136.012 71.0898 136.418 70.168C136.832 69.2461 137.043 68.2617 137.051 67.2148V65.0703H138.867V67.2148ZM139.254 67.3203C139.254 68.2656 139.457 69.1641 139.863 70.0156C140.277 70.8672 140.863 71.625 141.621 72.2891C142.387 72.9531 143.285 73.457 144.316 73.8008L143.109 75.582C141.953 75.1602 140.953 74.5391 140.109 73.7188C139.266 72.8984 138.613 71.9414 138.152 70.8477C137.699 69.7461 137.473 68.5703 137.473 67.3203V65.0703H139.254V67.3203ZM149.367 84.9805H147.141V79.2969H135.141V77.5156H149.367V84.9805ZM149.367 76.4375H147.141V63.9805H149.367V76.4375Z" fill="#0E0E0E"/>
<defs>
<filter id="filter0_bd_359_1278" x="-76" y="-80" width="366" height="772" filterUnits="userSpaceOnUse" color-interpolation-filters="sRGB">
<feFlood flood-opacity="0" result="BackgroundImageFix"/>
<feGaussianBlur in="BackgroundImageFix" stdDeviation="40"/>
<feComposite in2="SourceAlpha" operator="in" result="effect1_backgroundBlur_359_1278"/>
<feColorMatrix in="SourceAlpha" type="matrix" values="0 0 0 0 0 0 0 0 0 0 0 0 0 0 0 0 0 0 127 0" result="hardAlpha"/>
<feOffset dy="3.6"/>
<feGaussianBlur stdDeviation="1.8"/>
<feComposite in2="hardAlpha" operator="out"/>
<feColorMatrix type="matrix" values="0 0 0 0 0 0 0 0 0 0 0 0 0 0 0 0 0 0 0.25 0"/>
<feBlend mode="normal" in2="effect1_backgroundBlur_359_1278" result="effect2_dropShadow_359_1278"/>
<feBlend mode="normal" in="SourceGraphic" in2="effect2_dropShadow_359_1278" result="shape"/>
</filter>
<linearGradient id="paint0_linear_359_1278" x1="107" y1="0" x2="107" y2="612" gradientUnits="userSpaceOnUse">
<stop offset="0.06" stop-color="#F6F6F6" stop-opacity="0.9"/>
<stop offset="1" stop-color="#F6F6F6" stop-opacity="0"/>
</linearGradient>
</defs>
</svg>
