<svg xmlns="http://www.w3.org/2000/svg" width="207" height="267" viewBox="0 0 207 267" fill="none">
<g filter="url(#filter0_d_400_2332)">
<g filter="url(#filter1_df_400_2332)">
<path d="M199.257 157.164C199.924 169.054 185.602 179.528 167.268 180.556C148.934 181.585 133.53 172.779 132.863 160.888C132.196 148.997 146.518 138.524 164.853 137.495C183.187 136.467 198.59 145.273 199.257 157.164Z" fill="url(#paint0_linear_400_2332)"/>
</g>
<g filter="url(#filter2_df_400_2332)">
<path d="M156.118 198.328C175.137 154.047 147.796 128.093 113.188 113.228C81.3914 99.5709 46.7081 104.14 32.4592 144.738C20.2709 179.464 61.5808 229.663 72.3285 241.915C73.8665 243.669 76.1701 244.438 78.4466 243.931C92.5471 240.789 143.56 227.564 156.118 198.328Z" fill="url(#paint1_linear_400_2332)"/>
</g>
<g filter="url(#filter3_df_400_2332)">
<path d="M17.6722 90.6812C17.6722 144.54 60.9434 159.131 107.029 159.131C149.371 159.131 186.157 139.143 182.572 91.1705C179.443 49.2969 105.904 15.45 89.7865 8.51967C87.8068 7.66843 85.61 7.87483 83.8048 9.05163C70.7422 17.5669 17.6722 54.3949 17.6722 90.6812Z" fill="url(#paint2_linear_400_2332)"/>
</g>
<g filter="url(#filter4_dif_400_2332)">
<path d="M40.4818 103.704C40.4818 128.269 68.1569 148.183 102.296 148.183C136.435 148.183 164.11 128.269 164.11 103.704C164.11 79.1389 136.435 59.2251 102.296 59.2251C68.1569 59.2251 40.4818 79.1389 40.4818 103.704Z" fill="url(#paint3_linear_400_2332)"/>
</g>
<g filter="url(#filter5_f_400_2332)">
<path d="M137.612 104.887C132 104.887 127.45 108.022 127.45 111.888C127.45 115.754 132 118.888 137.612 118.888C143.224 118.888 147.774 115.754 147.774 111.888C147.774 108.022 143.224 104.887 137.612 104.887Z" fill="url(#paint4_linear_400_2332)"/>
</g>
<g filter="url(#filter6_f_400_2332)">
<path d="M75.7386 104.887C81.3507 104.887 85.9003 108.022 85.9003 111.888C85.9003 115.754 81.3507 118.888 75.7386 118.888C70.1264 118.888 65.5769 115.754 65.5769 111.888C65.5769 108.022 70.1264 104.887 75.7386 104.887Z" fill="url(#paint5_linear_400_2332)"/>
</g>
<g filter="url(#filter7_f_400_2332)">
<path d="M119.773 98.5646C119.773 103.803 123.412 108.049 127.902 108.049C132.392 108.049 136.031 103.803 136.031 98.5646C136.031 93.3266 132.392 89.0804 127.902 89.0804C123.412 89.0804 119.773 93.3266 119.773 98.5646Z" fill="#5379C2"/>
</g>
<g filter="url(#filter8_f_400_2332)">
<path d="M124.289 103.045C124.289 105.104 126.892 105.339 127.902 105.339C128.912 105.339 131.515 105.104 131.515 103.045C131.515 101.847 129.897 103.619 127.902 103.619C125.906 103.619 124.289 101.847 124.289 103.045Z" fill="#C4E4C9"/>
</g>
<g filter="url(#filter9_f_400_2332)">
<path d="M124.289 94.9516C124.289 96.947 125.704 98.5646 127.45 98.5646C129.196 98.5646 130.612 96.947 130.612 94.9516C130.612 92.9562 129.196 91.3386 127.45 91.3386C125.704 91.3386 124.289 92.9562 124.289 94.9516Z" fill="#F6F6F6"/>
</g>
<g filter="url(#filter10_f_400_2332)">
<path d="M76.8678 98.5646C76.8678 103.803 80.5074 108.049 84.9971 108.049C89.4868 108.049 93.1265 103.803 93.1265 98.5646C93.1265 93.3266 89.4868 89.0804 84.9971 89.0804C80.5074 89.0804 76.8678 93.3266 76.8678 98.5646Z" fill="#5379C2"/>
</g>
<g filter="url(#filter11_f_400_2332)">
<path d="M81.384 103.045C81.384 105.104 83.987 105.339 84.9971 105.339C86.0071 105.339 88.6101 105.104 88.6101 103.045C88.6101 101.847 86.9925 103.619 84.9971 103.619C83.0016 103.619 81.384 101.847 81.384 103.045Z" fill="#C4E4C9"/>
</g>
<g filter="url(#filter12_f_400_2332)">
<path d="M81.8403 94.9516C81.8403 96.947 83.2557 98.5646 85.0017 98.5646C86.7477 98.5646 88.1631 96.947 88.1631 94.9516C88.1631 92.9561 86.7477 91.3385 85.0017 91.3385C83.2557 91.3385 81.8403 92.9561 81.8403 94.9516Z" fill="#F6F6F6"/>
</g>
<g filter="url(#filter13_f_400_2332)">
<path fill-rule="evenodd" clip-rule="evenodd" d="M127.67 84.824C127.04 84.824 126.53 85.2779 126.53 85.8378L126.53 89.8928C126.53 90.4527 127.04 90.9066 127.67 90.9066C128.3 90.9066 128.811 90.4527 128.811 89.8928L128.811 85.8378C128.811 85.2779 128.3 84.824 127.67 84.824Z" fill="#547AC3"/>
</g>
<g filter="url(#filter14_f_400_2332)">
<path fill-rule="evenodd" clip-rule="evenodd" d="M85.0921 84.824C84.4623 84.824 83.9517 85.2779 83.9517 85.8378L83.9517 89.8928C83.9517 90.4527 84.4623 90.9066 85.0921 90.9066C85.722 90.9066 86.2326 90.4527 86.2326 89.8928L86.2326 85.8378C86.2326 85.2779 85.722 84.824 85.0921 84.824Z" fill="#547AC3"/>
</g>
<g filter="url(#filter15_df_400_2332)">
<path fill-rule="evenodd" clip-rule="evenodd" d="M109.956 172.453L103.716 163.073C103.148 162.218 103.752 161.073 104.779 161.059L118.347 160.881C119.374 160.868 120.008 161.997 119.462 162.867L113.412 172.501L122.603 205.565C122.662 205.776 122.638 206.001 122.537 206.195L113.112 224.305C112.794 224.916 111.924 224.928 111.59 224.325L101.693 206.469C101.587 206.277 101.558 206.053 101.611 205.84L109.956 172.453Z" fill="#FFC634"/>
</g>
<g filter="url(#filter16_df_400_2332)">
<path fill-rule="evenodd" clip-rule="evenodd" d="M111.183 161.949C111.376 161.811 111.632 161.801 111.836 161.921L134.308 175.219C134.561 175.368 134.885 175.313 135.074 175.088L157.02 148.913C157.424 148.432 156.904 147.731 156.322 147.967C137.215 155.734 127.976 157.384 119.616 158.878C117.201 159.309 114.86 159.727 112.376 160.276C112.339 160.284 112.304 160.288 112.266 160.289C97.4158 160.686 63.0693 154.575 49.6931 151.493C49.0075 151.335 48.5356 152.452 49.1297 152.829L88.3558 177.717C88.5617 177.848 88.8261 177.841 89.0248 177.699L111.183 161.949Z" fill="#F6F6F6"/>
</g>
<g filter="url(#filter17_f_400_2332)">
<path d="M113.465 114.033C113.465 111.713 111.584 109.833 109.265 109.833H107.465C105.145 109.833 103.265 111.713 103.265 114.033V120.333C103.265 123.15 105.548 125.433 108.365 125.433C111.181 125.433 113.465 123.15 113.465 120.333V114.033Z" fill="#567CC5"/>
</g>
<g filter="url(#filter18_f_400_2332)">
<path d="M111.196 112.083C111.196 111.834 110.995 111.633 110.746 111.633H106.246C105.998 111.633 105.796 111.834 105.796 112.083C105.796 112.829 106.401 113.433 107.146 113.433H109.846C110.592 113.433 111.196 112.829 111.196 112.083Z" fill="#F6F6F6"/>
</g>
<g filter="url(#filter19_df_400_2332)">
<path d="M28.9286 183.912C38.5011 190.997 55.1177 184.776 66.0429 170.017C76.9681 155.258 78.0647 137.549 68.4922 130.463C58.9197 123.377 42.303 129.598 31.3779 144.357C20.4527 159.117 19.3561 176.826 28.9286 183.912Z" fill="url(#paint6_linear_400_2332)"/>
</g>
</g>
<defs>
<filter id="filter0_d_400_2332" x="0.672119" y="0" width="205.608" height="260.085" filterUnits="userSpaceOnUse" color-interpolation-filters="sRGB">
<feFlood flood-opacity="0" result="BackgroundImageFix"/>
<feColorMatrix in="SourceAlpha" type="matrix" values="0 0 0 0 0 0 0 0 0 0 0 0 0 0 0 0 0 0 127 0" result="hardAlpha"/>
<feOffset dx="-5" dy="4"/>
<feGaussianBlur stdDeviation="6"/>
<feComposite in2="hardAlpha" operator="out"/>
<feColorMatrix type="matrix" values="0 0 0 0 0 0 0 0 0 0 0 0 0 0 0 0 0 0 0.2 0"/>
<feBlend mode="normal" in2="BackgroundImageFix" result="effect1_dropShadow_400_2332"/>
<feBlend mode="normal" in="SourceGraphic" in2="effect1_dropShadow_400_2332" result="shape"/>
</filter>
<filter id="filter1_df_400_2332" x="131.32" y="136.045" width="69.4802" height="47.6342" filterUnits="userSpaceOnUse" color-interpolation-filters="sRGB">
<feFlood flood-opacity="0" result="BackgroundImageFix"/>
<feColorMatrix in="SourceAlpha" type="matrix" values="0 0 0 0 0 0 0 0 0 0 0 0 0 0 0 0 0 0 127 0" result="hardAlpha"/>
<feOffset dy="1.52064"/>
<feGaussianBlur stdDeviation="0.76032"/>
<feComposite in2="hardAlpha" operator="out"/>
<feColorMatrix type="matrix" values="0 0 0 0 0 0 0 0 0 0 0 0 0 0 0 0 0 0 0.25 0"/>
<feBlend mode="normal" in2="BackgroundImageFix" result="effect1_dropShadow_400_2332"/>
<feBlend mode="normal" in="SourceGraphic" in2="effect1_dropShadow_400_2332" result="shape"/>
<feGaussianBlur stdDeviation="0.684288" result="effect2_foregroundBlur_400_2332"/>
</filter>
<filter id="filter2_df_400_2332" x="25.67" y="103.562" width="141.253" height="146.91" filterUnits="userSpaceOnUse" color-interpolation-filters="sRGB">
<feFlood flood-opacity="0" result="BackgroundImageFix"/>
<feColorMatrix in="SourceAlpha" type="matrix" values="0 0 0 0 0 0 0 0 0 0 0 0 0 0 0 0 0 0 127 0" result="hardAlpha"/>
<feOffset dy="1.82477"/>
<feGaussianBlur stdDeviation="2.28096"/>
<feComposite in2="hardAlpha" operator="out"/>
<feColorMatrix type="matrix" values="0 0 0 0 0 0 0 0 0 0 0 0 0 0 0 0 0 0 0.25 0"/>
<feBlend mode="normal" in2="BackgroundImageFix" result="effect1_dropShadow_400_2332"/>
<feBlend mode="normal" in="SourceGraphic" in2="effect1_dropShadow_400_2332" result="shape"/>
<feGaussianBlur stdDeviation="0.912384" result="effect2_foregroundBlur_400_2332"/>
</filter>
<filter id="filter3_df_400_2332" x="15.8474" y="6.17523" width="168.867" height="155.997" filterUnits="userSpaceOnUse" color-interpolation-filters="sRGB">
<feFlood flood-opacity="0" result="BackgroundImageFix"/>
<feColorMatrix in="SourceAlpha" type="matrix" values="0 0 0 0 0 0 0 0 0 0 0 0 0 0 0 0 0 0 127 0" result="hardAlpha"/>
<feOffset dx="0.38016" dy="1.52064"/>
<feGaussianBlur stdDeviation="0.76032"/>
<feComposite in2="hardAlpha" operator="out"/>
<feColorMatrix type="matrix" values="0 0 0 0 0 0 0 0 0 0 0 0 0 0 0 0 0 0 0.25 0"/>
<feBlend mode="normal" in2="BackgroundImageFix" result="effect1_dropShadow_400_2332"/>
<feBlend mode="normal" in="SourceGraphic" in2="effect1_dropShadow_400_2332" result="shape"/>
<feGaussianBlur stdDeviation="0.912384" result="effect2_foregroundBlur_400_2332"/>
</filter>
<filter id="filter4_dif_400_2332" x="35.92" y="56.488" width="132.752" height="98.0813" filterUnits="userSpaceOnUse" color-interpolation-filters="sRGB">
<feFlood flood-opacity="0" result="BackgroundImageFix"/>
<feColorMatrix in="SourceAlpha" type="matrix" values="0 0 0 0 0 0 0 0 0 0 0 0 0 0 0 0 0 0 127 0" result="hardAlpha"/>
<feOffset dy="1.82477"/>
<feGaussianBlur stdDeviation="2.28096"/>
<feComposite in2="hardAlpha" operator="out"/>
<feColorMatrix type="matrix" values="0 0 0 0 0 0 0 0 0 0 0 0 0 0 0 0 0 0 0.1 0"/>
<feBlend mode="normal" in2="BackgroundImageFix" result="effect1_dropShadow_400_2332"/>
<feBlend mode="normal" in="SourceGraphic" in2="effect1_dropShadow_400_2332" result="shape"/>
<feColorMatrix in="SourceAlpha" type="matrix" values="0 0 0 0 0 0 0 0 0 0 0 0 0 0 0 0 0 0 127 0" result="hardAlpha"/>
<feOffset dy="1.82477"/>
<feGaussianBlur stdDeviation="6.84288"/>
<feComposite in2="hardAlpha" operator="arithmetic" k2="-1" k3="1"/>
<feColorMatrix type="matrix" values="0 0 0 0 0 0 0 0 0 0 0 0 0 0 0 0 0 0 0.2 0"/>
<feBlend mode="normal" in2="shape" result="effect2_innerShadow_400_2332"/>
<feGaussianBlur stdDeviation="0.228096" result="effect3_foregroundBlur_400_2332"/>
</filter>
<filter id="filter5_f_400_2332" x="125.192" y="102.629" width="24.8395" height="18.5168" filterUnits="userSpaceOnUse" color-interpolation-filters="sRGB">
<feFlood flood-opacity="0" result="BackgroundImageFix"/>
<feBlend mode="normal" in="SourceGraphic" in2="BackgroundImageFix" result="shape"/>
<feGaussianBlur stdDeviation="1.12908" result="effect1_foregroundBlur_400_2332"/>
</filter>
<filter id="filter6_f_400_2332" x="63.3188" y="102.629" width="24.8395" height="18.5168" filterUnits="userSpaceOnUse" color-interpolation-filters="sRGB">
<feFlood flood-opacity="0" result="BackgroundImageFix"/>
<feBlend mode="normal" in="SourceGraphic" in2="BackgroundImageFix" result="shape"/>
<feGaussianBlur stdDeviation="1.12908" result="effect1_foregroundBlur_400_2332"/>
</filter>
<filter id="filter7_f_400_2332" x="118.869" y="88.1772" width="18.0653" height="20.775" filterUnits="userSpaceOnUse" color-interpolation-filters="sRGB">
<feFlood flood-opacity="0" result="BackgroundImageFix"/>
<feBlend mode="normal" in="SourceGraphic" in2="BackgroundImageFix" result="shape"/>
<feGaussianBlur stdDeviation="0.45163" result="effect1_foregroundBlur_400_2332"/>
</filter>
<filter id="filter8_f_400_2332" x="122.934" y="101.274" width="9.93585" height="5.41956" filterUnits="userSpaceOnUse" color-interpolation-filters="sRGB">
<feFlood flood-opacity="0" result="BackgroundImageFix"/>
<feBlend mode="normal" in="SourceGraphic" in2="BackgroundImageFix" result="shape"/>
<feGaussianBlur stdDeviation="0.677445" result="effect1_foregroundBlur_400_2332"/>
</filter>
<filter id="filter9_f_400_2332" x="123.837" y="90.8869" width="7.22601" height="8.12933" filterUnits="userSpaceOnUse" color-interpolation-filters="sRGB">
<feFlood flood-opacity="0" result="BackgroundImageFix"/>
<feBlend mode="normal" in="SourceGraphic" in2="BackgroundImageFix" result="shape"/>
<feGaussianBlur stdDeviation="0.225815" result="effect1_foregroundBlur_400_2332"/>
</filter>
<filter id="filter10_f_400_2332" x="75.9644" y="88.1772" width="18.0653" height="20.775" filterUnits="userSpaceOnUse" color-interpolation-filters="sRGB">
<feFlood flood-opacity="0" result="BackgroundImageFix"/>
<feBlend mode="normal" in="SourceGraphic" in2="BackgroundImageFix" result="shape"/>
<feGaussianBlur stdDeviation="0.45163" result="effect1_foregroundBlur_400_2332"/>
</filter>
<filter id="filter11_f_400_2332" x="80.0291" y="101.274" width="9.93585" height="5.41956" filterUnits="userSpaceOnUse" color-interpolation-filters="sRGB">
<feFlood flood-opacity="0" result="BackgroundImageFix"/>
<feBlend mode="normal" in="SourceGraphic" in2="BackgroundImageFix" result="shape"/>
<feGaussianBlur stdDeviation="0.677445" result="effect1_foregroundBlur_400_2332"/>
</filter>
<filter id="filter12_f_400_2332" x="81.3887" y="90.8869" width="7.22601" height="8.12933" filterUnits="userSpaceOnUse" color-interpolation-filters="sRGB">
<feFlood flood-opacity="0" result="BackgroundImageFix"/>
<feBlend mode="normal" in="SourceGraphic" in2="BackgroundImageFix" result="shape"/>
<feGaussianBlur stdDeviation="0.225815" result="effect1_foregroundBlur_400_2332"/>
</filter>
<filter id="filter13_f_400_2332" x="125.738" y="84.032" width="3.86501" height="7.66657" filterUnits="userSpaceOnUse" color-interpolation-filters="sRGB">
<feFlood flood-opacity="0" result="BackgroundImageFix"/>
<feBlend mode="normal" in="SourceGraphic" in2="BackgroundImageFix" result="shape"/>
<feGaussianBlur stdDeviation="0.396" result="effect1_foregroundBlur_400_2332"/>
</filter>
<filter id="filter14_f_400_2332" x="83.1597" y="84.032" width="3.86501" height="7.66657" filterUnits="userSpaceOnUse" color-interpolation-filters="sRGB">
<feFlood flood-opacity="0" result="BackgroundImageFix"/>
<feBlend mode="normal" in="SourceGraphic" in2="BackgroundImageFix" result="shape"/>
<feGaussianBlur stdDeviation="0.396" result="effect1_foregroundBlur_400_2332"/>
</filter>
<filter id="filter15_df_400_2332" x="98.5852" y="159.681" width="25.8496" height="68.6891" filterUnits="userSpaceOnUse" color-interpolation-filters="sRGB">
<feFlood flood-opacity="0" result="BackgroundImageFix"/>
<feColorMatrix in="SourceAlpha" type="matrix" values="0 0 0 0 0 0 0 0 0 0 0 0 0 0 0 0 0 0 127 0" result="hardAlpha"/>
<feOffset dx="-0.6" dy="1.2"/>
<feGaussianBlur stdDeviation="1.2"/>
<feComposite in2="hardAlpha" operator="out"/>
<feColorMatrix type="matrix" values="0 0 0 0 0 0 0 0 0 0 0 0 0 0 0 0 0 0 0.2 0"/>
<feBlend mode="normal" in2="BackgroundImageFix" result="effect1_dropShadow_400_2332"/>
<feBlend mode="normal" in="SourceGraphic" in2="effect1_dropShadow_400_2332" result="shape"/>
<feGaussianBlur stdDeviation="0.36" result="effect2_foregroundBlur_400_2332"/>
</filter>
<filter id="filter16_df_400_2332" x="44.0589" y="143.72" width="117.904" height="39.4905" filterUnits="userSpaceOnUse" color-interpolation-filters="sRGB">
<feFlood flood-opacity="0" result="BackgroundImageFix"/>
<feColorMatrix in="SourceAlpha" type="matrix" values="0 0 0 0 0 0 0 0 0 0 0 0 0 0 0 0 0 0 127 0" result="hardAlpha"/>
<feOffset dy="0.6"/>
<feGaussianBlur stdDeviation="2.4"/>
<feComposite in2="hardAlpha" operator="out"/>
<feColorMatrix type="matrix" values="0 0 0 0 0 0 0 0 0 0 0 0 0 0 0 0 0 0 0.2 0"/>
<feBlend mode="normal" in2="BackgroundImageFix" result="effect1_dropShadow_400_2332"/>
<feBlend mode="normal" in="SourceGraphic" in2="effect1_dropShadow_400_2332" result="shape"/>
<feGaussianBlur stdDeviation="0.3" result="effect2_foregroundBlur_400_2332"/>
</filter>
<filter id="filter17_f_400_2332" x="102.605" y="109.173" width="11.52" height="16.9201" filterUnits="userSpaceOnUse" color-interpolation-filters="sRGB">
<feFlood flood-opacity="0" result="BackgroundImageFix"/>
<feBlend mode="normal" in="SourceGraphic" in2="BackgroundImageFix" result="shape"/>
<feGaussianBlur stdDeviation="0.33" result="effect1_foregroundBlur_400_2332"/>
</filter>
<filter id="filter18_f_400_2332" x="105.454" y="111.291" width="6.08419" height="2.48429" filterUnits="userSpaceOnUse" color-interpolation-filters="sRGB">
<feFlood flood-opacity="0" result="BackgroundImageFix"/>
<feBlend mode="normal" in="SourceGraphic" in2="BackgroundImageFix" result="shape"/>
<feGaussianBlur stdDeviation="0.171072" result="effect1_foregroundBlur_400_2332"/>
</filter>
<filter id="filter19_df_400_2332" x="17.8473" y="124.799" width="61.7264" height="68.4265" filterUnits="userSpaceOnUse" color-interpolation-filters="sRGB">
<feFlood flood-opacity="0" result="BackgroundImageFix"/>
<feColorMatrix in="SourceAlpha" type="matrix" values="0 0 0 0 0 0 0 0 0 0 0 0 0 0 0 0 0 0 127 0" result="hardAlpha"/>
<feOffset dy="1.82477"/>
<feGaussianBlur stdDeviation="2.28096"/>
<feComposite in2="hardAlpha" operator="out"/>
<feColorMatrix type="matrix" values="0 0 0 0 0 0 0 0 0 0 0 0 0 0 0 0 0 0 0.2 0"/>
<feBlend mode="normal" in2="BackgroundImageFix" result="effect1_dropShadow_400_2332"/>
<feBlend mode="normal" in="SourceGraphic" in2="effect1_dropShadow_400_2332" result="shape"/>
<feGaussianBlur stdDeviation="0.57024" result="effect2_foregroundBlur_400_2332"/>
</filter>
<linearGradient id="paint0_linear_400_2332" x1="179.434" y1="139.382" x2="151.902" y2="180.121" gradientUnits="userSpaceOnUse">
<stop stop-color="#E3FEE8"/>
<stop offset="1" stop-color="#9BC7A3"/>
</linearGradient>
<linearGradient id="paint1_linear_400_2332" x1="119.313" y1="140.843" x2="-52.6917" y2="231.513" gradientUnits="userSpaceOnUse">
<stop stop-color="#D8F5DD"/>
<stop offset="1" stop-color="#709C78"/>
</linearGradient>
<linearGradient id="paint2_linear_400_2332" x1="128.004" y1="12.0164" x2="41.226" y2="226.072" gradientUnits="userSpaceOnUse">
<stop stop-color="#D8F5DD"/>
<stop offset="1" stop-color="#709C78"/>
</linearGradient>
<linearGradient id="paint3_linear_400_2332" x1="102.296" y1="59.2251" x2="102.296" y2="250.631" gradientUnits="userSpaceOnUse">
<stop stop-color="#F6F6F6"/>
<stop offset="1" stop-color="#5379C2"/>
</linearGradient>
<linearGradient id="paint4_linear_400_2332" x1="132.734" y1="106.888" x2="141.63" y2="119.478" gradientUnits="userSpaceOnUse">
<stop stop-color="#FFDEDE"/>
<stop offset="1" stop-color="#FFDEDE" stop-opacity="0.8"/>
</linearGradient>
<linearGradient id="paint5_linear_400_2332" x1="80.6162" y1="106.888" x2="71.7207" y2="119.478" gradientUnits="userSpaceOnUse">
<stop stop-color="#FFDEDE"/>
<stop offset="1" stop-color="#FFDEDE" stop-opacity="0.8"/>
</linearGradient>
<linearGradient id="paint6_linear_400_2332" x1="30.8936" y1="139.326" x2="81.0896" y2="180.815" gradientUnits="userSpaceOnUse">
<stop stop-color="#A9CDAF"/>
<stop offset="0.512719" stop-color="#D9F6DE"/>
<stop offset="1" stop-color="#ACCFB2"/>
</linearGradient>
</defs>
</svg>