<svg xmlns="http://www.w3.org/2000/svg" width="479" height="454" viewBox="0 0 479 454" fill="none">
<g filter="url(#filter0_d_385_2202)">
<g filter="url(#filter1_df_385_2202)">
<path d="M39.9785 325.017C22.3173 315.957 19.3244 286.537 33.2937 259.306C47.2629 232.075 72.9044 217.345 90.5656 226.405C108.227 235.465 111.22 264.884 97.2504 292.115C83.2812 319.346 57.6397 334.077 39.9785 325.017Z" fill="url(#paint0_linear_385_2202)"/>
</g>
<g filter="url(#filter2_df_385_2202)">
<path d="M74.2081 340.661C42.5087 266.859 88.0781 223.602 145.758 198.828C198.752 176.066 256.557 183.681 280.306 251.344C300.619 309.222 231.77 392.886 213.857 413.307C211.293 416.229 207.454 417.512 203.66 416.666C180.159 411.43 95.1372 389.388 74.2081 340.661Z" fill="url(#paint1_linear_385_2202)"/>
</g>
<g filter="url(#filter3_df_385_2202)">
<path d="M304.951 161.25C304.951 251.014 232.832 275.333 156.023 275.333C85.4535 275.333 24.1433 242.019 30.118 162.065C35.3331 92.276 157.898 35.8644 184.76 24.3139C188.06 22.8951 191.721 23.2391 194.73 25.2005C216.501 39.3925 304.951 100.773 304.951 161.25Z" fill="url(#paint2_linear_385_2202)"/>
</g>
<g filter="url(#filter4_dif_385_2202)">
<path d="M266.934 182.954C266.934 223.896 220.809 257.085 163.911 257.085C107.013 257.085 60.8877 223.896 60.8877 182.954C60.8877 142.013 107.013 108.823 163.911 108.823C220.809 108.823 266.934 142.013 266.934 182.954Z" fill="url(#paint3_linear_385_2202)"/>
</g>
<g filter="url(#filter5_f_385_2202)">
<path d="M105.05 184.927C114.404 184.927 121.987 190.15 121.987 196.594C121.987 203.037 114.404 208.261 105.05 208.261C95.6968 208.261 88.1143 203.037 88.1143 196.594C88.1143 190.15 95.6968 184.927 105.05 184.927Z" fill="url(#paint4_linear_385_2202)"/>
</g>
<g filter="url(#filter6_f_385_2202)">
<path d="M208.173 184.927C198.819 184.927 191.237 190.15 191.237 196.594C191.237 203.037 198.819 208.261 208.173 208.261C217.526 208.261 225.109 203.037 225.109 196.594C225.109 190.15 217.526 184.927 208.173 184.927Z" fill="url(#paint5_linear_385_2202)"/>
</g>
<g filter="url(#filter7_f_385_2202)">
<path d="M138.2 200.328C138.2 206.889 146.178 212.208 156.02 212.208C165.862 212.208 173.84 206.889 173.84 200.328" stroke="#557BC4" stroke-width="4.4352" stroke-linecap="round"/>
</g>
<g filter="url(#filter8_f_385_2202)">
<path fill-rule="evenodd" clip-rule="evenodd" d="M137.55 170.253C138.157 170.566 138.157 171.434 137.55 171.747L112.316 184.739C111.241 185.293 109.883 184.937 109.283 183.944C108.683 182.951 109.069 181.697 110.144 181.143L128.393 171.747C129 171.434 129 170.566 128.393 170.253L110.144 160.857C109.069 160.303 108.683 159.049 109.283 158.056C109.883 157.063 111.241 156.707 112.316 157.261L137.55 170.253Z" fill="#5379C2"/>
</g>
<g filter="url(#filter9_f_385_2202)">
<path fill-rule="evenodd" clip-rule="evenodd" d="M174.45 170.253C173.843 170.566 173.843 171.434 174.45 171.747L199.684 184.739C200.759 185.293 202.117 184.937 202.717 183.944C203.317 182.951 202.931 181.697 201.856 181.143L183.607 171.747C183 171.434 183 170.566 183.607 170.253L201.856 160.857C202.931 160.303 203.317 159.049 202.717 158.056C202.117 157.063 200.759 156.707 199.684 157.261L174.45 170.253Z" fill="#5379C2"/>
</g>
<g filter="url(#filter10_f_385_2202)">
<path d="M446.976 111.349C451.361 114.689 449.299 121.679 443.803 122.104L308.14 132.6C303.95 132.925 300.734 128.952 301.923 124.921L329.339 31.979C330.528 27.948 335.386 26.3569 338.729 28.9034L446.976 111.349Z" fill="url(#paint6_linear_385_2202)"/>
</g>
<g filter="url(#filter11_f_385_2202)">
<rect x="326.147" y="14.155" width="15" height="335.142" rx="7" transform="rotate(16.4352 326.147 14.155)" fill="url(#paint7_linear_385_2202)"/>
</g>
<g filter="url(#filter12_df_385_2202)">
<path d="M217.069 305.702C205.986 289.235 217.583 262.033 242.972 244.943C268.362 227.854 297.929 227.349 309.012 243.816C320.096 260.282 308.499 287.485 283.109 304.574C257.72 321.664 228.153 322.169 217.069 305.702Z" fill="url(#paint8_linear_385_2202)"/>
</g>
</g>
<defs>
<filter id="filter0_d_385_2202" x="0.738045" y="0.00765514" width="477.65" height="453.874" filterUnits="userSpaceOnUse" color-interpolation-filters="sRGB">
<feFlood flood-opacity="0" result="BackgroundImageFix"/>
<feColorMatrix in="SourceAlpha" type="matrix" values="0 0 0 0 0 0 0 0 0 0 0 0 0 0 0 0 0 0 127 0" result="hardAlpha"/>
<feOffset dx="2.64" dy="10.56"/>
<feGaussianBlur stdDeviation="13.2"/>
<feComposite in2="hardAlpha" operator="out"/>
<feColorMatrix type="matrix" values="0 0 0 0 0 0 0 0 0 0 0 0 0 0 0 0 0 0 0.2 0"/>
<feBlend mode="normal" in2="BackgroundImageFix" result="effect1_dropShadow_385_2202"/>
<feBlend mode="normal" in="SourceGraphic" in2="effect1_dropShadow_385_2202" result="shape"/>
</filter>
<filter id="filter1_df_385_2202" x="21.9636" y="221.452" width="86.6167" height="111.305" filterUnits="userSpaceOnUse" color-interpolation-filters="sRGB">
<feFlood flood-opacity="0" result="BackgroundImageFix"/>
<feColorMatrix in="SourceAlpha" type="matrix" values="0 0 0 0 0 0 0 0 0 0 0 0 0 0 0 0 0 0 127 0" result="hardAlpha"/>
<feOffset dy="2.5344"/>
<feGaussianBlur stdDeviation="1.2672"/>
<feComposite in2="hardAlpha" operator="out"/>
<feColorMatrix type="matrix" values="0 0 0 0 0 0 0 0 0 0 0 0 0 0 0 0 0 0 0.25 0"/>
<feBlend mode="normal" in2="BackgroundImageFix" result="effect1_dropShadow_385_2202"/>
<feBlend mode="normal" in="SourceGraphic" in2="effect1_dropShadow_385_2202" result="shape"/>
<feGaussianBlur stdDeviation="1.14048" result="effect2_foregroundBlur_385_2202"/>
</filter>
<filter id="filter2_df_385_2202" x="56.2" y="182.717" width="235.421" height="244.85" filterUnits="userSpaceOnUse" color-interpolation-filters="sRGB">
<feFlood flood-opacity="0" result="BackgroundImageFix"/>
<feColorMatrix in="SourceAlpha" type="matrix" values="0 0 0 0 0 0 0 0 0 0 0 0 0 0 0 0 0 0 127 0" result="hardAlpha"/>
<feOffset dy="3.04128"/>
<feGaussianBlur stdDeviation="3.8016"/>
<feComposite in2="hardAlpha" operator="out"/>
<feColorMatrix type="matrix" values="0 0 0 0 0 0 0 0 0 0 0 0 0 0 0 0 0 0 0.25 0"/>
<feBlend mode="normal" in2="BackgroundImageFix" result="effect1_dropShadow_385_2202"/>
<feBlend mode="normal" in="SourceGraphic" in2="effect1_dropShadow_385_2202" result="shape"/>
<feGaussianBlur stdDeviation="1.52064" result="effect2_foregroundBlur_385_2202"/>
</filter>
<filter id="filter3_df_385_2202" x="26.6736" y="20.4065" width="281.445" height="259.995" filterUnits="userSpaceOnUse" color-interpolation-filters="sRGB">
<feFlood flood-opacity="0" result="BackgroundImageFix"/>
<feColorMatrix in="SourceAlpha" type="matrix" values="0 0 0 0 0 0 0 0 0 0 0 0 0 0 0 0 0 0 127 0" result="hardAlpha"/>
<feOffset dx="0.6336" dy="2.5344"/>
<feGaussianBlur stdDeviation="1.2672"/>
<feComposite in2="hardAlpha" operator="out"/>
<feColorMatrix type="matrix" values="0 0 0 0 0 0 0 0 0 0 0 0 0 0 0 0 0 0 0.25 0"/>
<feBlend mode="normal" in2="BackgroundImageFix" result="effect1_dropShadow_385_2202"/>
<feBlend mode="normal" in="SourceGraphic" in2="effect1_dropShadow_385_2202" result="shape"/>
<feGaussianBlur stdDeviation="1.52064" result="effect2_foregroundBlur_385_2202"/>
</filter>
<filter id="filter4_dif_385_2202" x="53.2845" y="104.261" width="221.253" height="163.469" filterUnits="userSpaceOnUse" color-interpolation-filters="sRGB">
<feFlood flood-opacity="0" result="BackgroundImageFix"/>
<feColorMatrix in="SourceAlpha" type="matrix" values="0 0 0 0 0 0 0 0 0 0 0 0 0 0 0 0 0 0 127 0" result="hardAlpha"/>
<feOffset dy="3.04128"/>
<feGaussianBlur stdDeviation="3.8016"/>
<feComposite in2="hardAlpha" operator="out"/>
<feColorMatrix type="matrix" values="0 0 0 0 0 0 0 0 0 0 0 0 0 0 0 0 0 0 0.1 0"/>
<feBlend mode="normal" in2="BackgroundImageFix" result="effect1_dropShadow_385_2202"/>
<feBlend mode="normal" in="SourceGraphic" in2="effect1_dropShadow_385_2202" result="shape"/>
<feColorMatrix in="SourceAlpha" type="matrix" values="0 0 0 0 0 0 0 0 0 0 0 0 0 0 0 0 0 0 127 0" result="hardAlpha"/>
<feOffset dy="3.04128"/>
<feGaussianBlur stdDeviation="11.4048"/>
<feComposite in2="hardAlpha" operator="arithmetic" k2="-1" k3="1"/>
<feColorMatrix type="matrix" values="0 0 0 0 0 0 0 0 0 0 0 0 0 0 0 0 0 0 0.2 0"/>
<feBlend mode="normal" in2="shape" result="effect2_innerShadow_385_2202"/>
<feGaussianBlur stdDeviation="0.38016" result="effect3_foregroundBlur_385_2202"/>
</filter>
<filter id="filter5_f_385_2202" x="84.3507" y="181.163" width="41.3992" height="30.8614" filterUnits="userSpaceOnUse" color-interpolation-filters="sRGB">
<feFlood flood-opacity="0" result="BackgroundImageFix"/>
<feBlend mode="normal" in="SourceGraphic" in2="BackgroundImageFix" result="shape"/>
<feGaussianBlur stdDeviation="1.88179" result="effect1_foregroundBlur_385_2202"/>
</filter>
<filter id="filter6_f_385_2202" x="187.473" y="181.163" width="41.3992" height="30.8614" filterUnits="userSpaceOnUse" color-interpolation-filters="sRGB">
<feFlood flood-opacity="0" result="BackgroundImageFix"/>
<feBlend mode="normal" in="SourceGraphic" in2="BackgroundImageFix" result="shape"/>
<feGaussianBlur stdDeviation="1.88179" result="effect1_foregroundBlur_385_2202"/>
</filter>
<filter id="filter7_f_385_2202" x="134.662" y="196.79" width="42.7152" height="18.9553" filterUnits="userSpaceOnUse" color-interpolation-filters="sRGB">
<feFlood flood-opacity="0" result="BackgroundImageFix"/>
<feBlend mode="normal" in="SourceGraphic" in2="BackgroundImageFix" result="shape"/>
<feGaussianBlur stdDeviation="0.66" result="effect1_foregroundBlur_385_2202"/>
</filter>
<filter id="filter8_f_385_2202" x="107.8" y="155.8" width="31.4049" height="30.4" filterUnits="userSpaceOnUse" color-interpolation-filters="sRGB">
<feFlood flood-opacity="0" result="BackgroundImageFix"/>
<feBlend mode="normal" in="SourceGraphic" in2="BackgroundImageFix" result="shape"/>
<feGaussianBlur stdDeviation="0.6" result="effect1_foregroundBlur_385_2202"/>
</filter>
<filter id="filter9_f_385_2202" x="172.795" y="155.8" width="31.4049" height="30.4" filterUnits="userSpaceOnUse" color-interpolation-filters="sRGB">
<feFlood flood-opacity="0" result="BackgroundImageFix"/>
<feBlend mode="normal" in="SourceGraphic" in2="BackgroundImageFix" result="shape"/>
<feGaussianBlur stdDeviation="0.6" result="effect1_foregroundBlur_385_2202"/>
</filter>
<filter id="filter10_f_385_2202" x="300.673" y="26.6731" width="149.675" height="106.946" filterUnits="userSpaceOnUse" color-interpolation-filters="sRGB">
<feFlood flood-opacity="0" result="BackgroundImageFix"/>
<feBlend mode="normal" in="SourceGraphic" in2="BackgroundImageFix" result="shape"/>
<feGaussianBlur stdDeviation="0.5" result="effect1_foregroundBlur_385_2202"/>
</filter>
<filter id="filter11_f_385_2202" x="232.018" y="14.8477" width="107.824" height="324.307" filterUnits="userSpaceOnUse" color-interpolation-filters="sRGB">
<feFlood flood-opacity="0" result="BackgroundImageFix"/>
<feBlend mode="normal" in="SourceGraphic" in2="BackgroundImageFix" result="shape"/>
<feGaussianBlur stdDeviation="0.5" result="effect1_foregroundBlur_385_2202"/>
</filter>
<filter id="filter12_df_385_2202" x="205.264" y="227.227" width="115.554" height="101.147" filterUnits="userSpaceOnUse" color-interpolation-filters="sRGB">
<feFlood flood-opacity="0" result="BackgroundImageFix"/>
<feColorMatrix in="SourceAlpha" type="matrix" values="0 0 0 0 0 0 0 0 0 0 0 0 0 0 0 0 0 0 127 0" result="hardAlpha"/>
<feOffset dy="3.04128"/>
<feGaussianBlur stdDeviation="3.8016"/>
<feComposite in2="hardAlpha" operator="out"/>
<feColorMatrix type="matrix" values="0 0 0 0 0 0 0 0 0 0 0 0 0 0 0 0 0 0 0.2 0"/>
<feBlend mode="normal" in2="BackgroundImageFix" result="effect1_dropShadow_385_2202"/>
<feBlend mode="normal" in="SourceGraphic" in2="effect1_dropShadow_385_2202" result="shape"/>
<feGaussianBlur stdDeviation="0.9504" result="effect2_foregroundBlur_385_2202"/>
</filter>
<linearGradient id="paint0_linear_385_2202" x1="8.00024" y1="276" x2="91.5002" y2="266" gradientUnits="userSpaceOnUse">
<stop stop-color="#E3FEE8"/>
<stop offset="1" stop-color="#9BC7A3"/>
</linearGradient>
<linearGradient id="paint1_linear_385_2202" x1="135.549" y1="244.853" x2="422.224" y2="395.97" gradientUnits="userSpaceOnUse">
<stop stop-color="#D8F5DD"/>
<stop offset="1" stop-color="#709C78"/>
</linearGradient>
<linearGradient id="paint2_linear_385_2202" x1="121.065" y1="30.1418" x2="265.694" y2="386.901" gradientUnits="userSpaceOnUse">
<stop stop-color="#D8F5DD"/>
<stop offset="1" stop-color="#709C78"/>
</linearGradient>
<linearGradient id="paint3_linear_385_2202" x1="163.911" y1="108.823" x2="163.911" y2="427.833" gradientUnits="userSpaceOnUse">
<stop stop-color="#F6F6F6"/>
<stop offset="1" stop-color="#5379C2"/>
</linearGradient>
<linearGradient id="paint4_linear_385_2202" x1="113.18" y1="188.26" x2="98.3539" y2="209.243" gradientUnits="userSpaceOnUse">
<stop stop-color="#FFDEDE"/>
<stop offset="1" stop-color="#FFDEDE" stop-opacity="0.8"/>
</linearGradient>
<linearGradient id="paint5_linear_385_2202" x1="200.043" y1="188.26" x2="214.869" y2="209.243" gradientUnits="userSpaceOnUse">
<stop stop-color="#FFDEDE"/>
<stop offset="1" stop-color="#FFDEDE" stop-opacity="0.8"/>
</linearGradient>
<linearGradient id="paint6_linear_385_2202" x1="473.889" y1="125.133" x2="304.601" y2="75.1961" gradientUnits="userSpaceOnUse">
<stop stop-color="#FFE194"/>
<stop offset="1" stop-color="#FFC634"/>
</linearGradient>
<linearGradient id="paint7_linear_385_2202" x1="326.147" y1="157.303" x2="341.147" y2="157.303" gradientUnits="userSpaceOnUse">
<stop stop-color="#D9D9D9"/>
<stop offset="1" stop-color="#A3A3A3"/>
</linearGradient>
<linearGradient id="paint8_linear_385_2202" x1="291.451" y1="305.756" x2="226.116" y2="219.085" gradientUnits="userSpaceOnUse">
<stop stop-color="#A9CDAF"/>
<stop offset="0.512719" stop-color="#D9F6DE"/>
<stop offset="1" stop-color="#ACCFB2"/>
</linearGradient>
</defs>
</svg>