<svg xmlns="http://www.w3.org/2000/svg" width="561" height="258" viewBox="0 0 561 258" fill="none">
<g filter="url(#filter0_b_624_39)">
<path fill-rule="evenodd" clip-rule="evenodd" d="M123.539 0.347778C55.8014 0.347778 0.88916 55.2601 0.88916 122.998C0.88916 190.736 55.8014 245.648 123.539 245.648H415.052C436.607 245.648 456.862 240.088 474.463 230.324C475.362 229.825 476.469 229.911 477.28 230.541C493.832 243.394 519.522 254.585 557.701 257.608C560.646 257.842 561.546 252.844 558.834 251.673C538.019 242.69 514.224 226.246 510.283 201.568C510.174 200.886 510.373 200.189 510.805 199.65C527.635 178.653 537.702 152.001 537.702 122.998C537.702 55.2601 482.79 0.347778 415.052 0.347778H123.539Z" fill="#F6F6F6" fill-opacity="0.5"/>
</g>
<path d="M133.383 59.0566H131.402V36.4844H133.383V59.0566ZM137.039 47.3516H132.875V45.6758H137.039V47.3516ZM127.543 38.9219C127.535 41.1139 127.171 43.1875 126.451 45.1426C125.74 47.0892 124.615 48.8877 123.074 50.5381C121.534 52.18 119.57 53.5892 117.184 54.7656L116.066 53.1914C118.157 52.1504 119.909 50.9274 121.322 49.5225C122.744 48.109 123.806 46.5433 124.509 44.8252C125.22 43.1071 125.579 41.2493 125.588 39.252V38.9219H127.543ZM126.604 40.5977H117.107V38.9219H126.604V40.5977ZM145.621 39.9883C145.621 41.4186 145.363 42.7601 144.847 44.0127C144.33 45.2568 143.598 46.3402 142.65 47.2627C141.711 48.1768 140.619 48.875 139.375 49.3574L138.309 47.7578C139.426 47.3431 140.412 46.7464 141.267 45.9678C142.121 45.1807 142.786 44.2751 143.26 43.251C143.734 42.2269 143.971 41.1393 143.971 39.9883V37.6523H145.621V39.9883ZM145.926 40.1406C145.926 41.1478 146.167 42.1211 146.649 43.0605C147.132 43.9915 147.796 44.8125 148.643 45.5234C149.489 46.2344 150.454 46.776 151.537 47.1484L150.445 48.7227C149.243 48.2826 148.181 47.6351 147.259 46.7803C146.336 45.9255 145.613 44.9268 145.088 43.7842C144.563 42.6416 144.301 41.4271 144.301 40.1406V37.6523H145.926V40.1406ZM156.031 50.2207H154.051V36.4844H156.031V50.2207ZM159.434 44.0508H155.473V42.375H159.434V44.0508ZM148.795 50.8047C150.335 50.8047 151.664 50.9655 152.781 51.2871C153.898 51.6087 154.753 52.0785 155.346 52.6963C155.938 53.3057 156.234 54.0378 156.234 54.8926C156.234 55.7643 155.938 56.5049 155.346 57.1143C154.753 57.7321 153.898 58.2018 152.781 58.5234C151.664 58.8451 150.335 59.0059 148.795 59.0059C147.246 59.0059 145.909 58.8451 144.783 58.5234C143.666 58.2018 142.807 57.7321 142.206 57.1143C141.605 56.4964 141.305 55.7559 141.305 54.8926C141.305 54.0378 141.605 53.3057 142.206 52.6963C142.807 52.0785 143.67 51.6087 144.796 51.2871C145.922 50.9655 147.255 50.8047 148.795 50.8047ZM148.795 52.4043C147.669 52.4043 146.692 52.5059 145.862 52.709C145.041 52.9121 144.407 53.1999 143.958 53.5723C143.518 53.9447 143.302 54.3848 143.311 54.8926C143.302 55.4173 143.518 55.8701 143.958 56.251C144.407 56.6318 145.041 56.9238 145.862 57.127C146.683 57.3301 147.661 57.4316 148.795 57.4316C149.929 57.4316 150.911 57.3301 151.74 57.127C152.57 56.9238 153.204 56.6318 153.645 56.251C154.085 55.8701 154.305 55.4173 154.305 54.8926C154.305 54.3848 154.085 53.9404 153.645 53.5596C153.204 53.1787 152.565 52.891 151.728 52.6963C150.898 52.5016 149.921 52.4043 148.795 52.4043ZM168.244 38.1348C169.412 38.1348 170.457 38.359 171.38 38.8076C172.302 39.2562 173.022 39.8825 173.538 40.6865C174.054 41.4906 174.312 42.4089 174.312 43.4414C174.312 44.474 174.054 45.3923 173.538 46.1963C173.022 47.0003 172.302 47.6266 171.38 48.0752C170.457 48.5238 169.412 48.748 168.244 48.748C167.068 48.748 166.014 48.5238 165.083 48.0752C164.16 47.6266 163.441 47.0003 162.925 46.1963C162.409 45.3923 162.15 44.474 162.15 43.4414C162.15 42.4089 162.409 41.4906 162.925 40.6865C163.441 39.8825 164.16 39.2562 165.083 38.8076C166.014 38.359 167.068 38.1348 168.244 38.1348ZM168.244 39.8867C167.449 39.8867 166.738 40.0348 166.111 40.3311C165.485 40.6273 164.994 41.0505 164.639 41.6006C164.283 42.1423 164.105 42.7559 164.105 43.4414C164.105 44.1354 164.283 44.749 164.639 45.2822C164.994 45.8154 165.485 46.2344 166.111 46.5391C166.738 46.8438 167.449 46.9961 168.244 46.9961C169.031 46.9961 169.738 46.8438 170.364 46.5391C170.999 46.2344 171.49 45.8154 171.837 45.2822C172.184 44.749 172.357 44.1354 172.357 43.4414C172.357 42.7559 172.184 42.1423 171.837 41.6006C171.49 41.0505 170.999 40.6273 170.364 40.3311C169.738 40.0348 169.031 39.8867 168.244 39.8867ZM179.365 59.1074H177.385V36.4844H179.365V59.1074ZM160.982 52.4297C163.801 52.4382 166.437 52.3958 168.892 52.3027C171.346 52.2096 173.678 51.998 175.887 51.668L176.039 53.1406C174.448 53.4368 172.793 53.6569 171.075 53.8008C169.357 53.9362 167.749 54.0251 166.251 54.0674C164.761 54.1097 163.098 54.1309 161.262 54.1309L160.982 52.4297ZM207.143 39.2266H192.467V37.6016H207.143V39.2266ZM210.52 47.2754H189.852V45.6504H210.52V47.2754ZM201.125 52.125H199.145V46.7422H201.125V52.125ZM207.803 39.2266C207.803 40.5215 207.76 41.7106 207.676 42.7939C207.591 43.8688 207.388 45.1003 207.066 46.4883L205.111 46.2344C205.331 45.3118 205.492 44.4528 205.594 43.6572C205.695 42.8532 205.759 42.1423 205.784 41.5244C205.81 40.9066 205.822 40.1914 205.822 39.3789V39.2266V37.6016H207.803V39.2266ZM207.955 59.0566H205.949V53.0898H191.984V51.4395H207.955V59.0566ZM220.879 53.75H218.873V50.0176H220.879V53.75ZM230.832 59.0566H228.852V36.4844H230.832V59.0566ZM213.389 53.0391C216.199 53.0137 218.721 52.9544 220.955 52.8613C223.189 52.7682 225.322 52.5905 227.354 52.3281L227.506 53.8516C225.263 54.2155 222.931 54.4567 220.511 54.5752C218.09 54.6852 215.505 54.7402 212.754 54.7402L212.449 53.0391H213.389ZM226.77 40.9023H212.932V39.2773H226.77V40.9023ZM219.838 42.1973C220.921 42.1973 221.878 42.3665 222.707 42.7051C223.536 43.0436 224.175 43.5345 224.624 44.1777C225.073 44.8125 225.297 45.5488 225.297 46.3867C225.297 47.2161 225.073 47.944 224.624 48.5703C224.175 49.1966 223.532 49.679 222.694 50.0176C221.865 50.3561 220.913 50.5254 219.838 50.5254C218.763 50.5254 217.815 50.3561 216.994 50.0176C216.182 49.679 215.547 49.1966 215.09 48.5703C214.641 47.944 214.421 47.2161 214.43 46.3867C214.421 45.5488 214.641 44.8125 215.09 44.1777C215.547 43.5345 216.182 43.0436 216.994 42.7051C217.815 42.3665 218.763 42.1973 219.838 42.1973ZM219.838 43.7461C219.144 43.7461 218.53 43.8561 217.997 44.0762C217.464 44.2962 217.045 44.6094 216.74 45.0156C216.436 45.4134 216.283 45.8704 216.283 46.3867C216.283 46.903 216.431 47.3558 216.728 47.7451C217.024 48.126 217.443 48.4264 217.984 48.6465C218.526 48.8581 219.144 48.9596 219.838 48.9512C220.532 48.9596 221.15 48.8581 221.691 48.6465C222.233 48.4264 222.652 48.126 222.948 47.7451C223.244 47.3558 223.393 46.903 223.393 46.3867C223.393 45.8704 223.244 45.4134 222.948 45.0156C222.652 44.6094 222.233 44.2962 221.691 44.0762C221.15 43.8561 220.532 43.7461 219.838 43.7461ZM220.879 40.1406H218.873V36.5098H220.879V40.1406ZM248.707 38.1348C249.875 38.1348 250.92 38.359 251.843 38.8076C252.765 39.2562 253.485 39.8825 254.001 40.6865C254.517 41.4906 254.775 42.4089 254.775 43.4414C254.775 44.474 254.517 45.3923 254.001 46.1963C253.485 47.0003 252.765 47.6266 251.843 48.0752C250.92 48.5238 249.875 48.748 248.707 48.748C247.531 48.748 246.477 48.5238 245.546 48.0752C244.623 47.6266 243.904 47.0003 243.388 46.1963C242.871 45.3923 242.613 44.474 242.613 43.4414C242.613 42.4089 242.871 41.4906 243.388 40.6865C243.904 39.8825 244.623 39.2562 245.546 38.8076C246.477 38.359 247.531 38.1348 248.707 38.1348ZM248.707 39.8867C247.911 39.8867 247.201 40.0348 246.574 40.3311C245.948 40.6273 245.457 41.0505 245.102 41.6006C244.746 42.1423 244.568 42.7559 244.568 43.4414C244.568 44.1354 244.746 44.749 245.102 45.2822C245.457 45.8154 245.948 46.2344 246.574 46.5391C247.201 46.8438 247.911 46.9961 248.707 46.9961C249.494 46.9961 250.201 46.8438 250.827 46.5391C251.462 46.2344 251.953 45.8154 252.3 45.2822C252.647 44.749 252.82 44.1354 252.82 43.4414C252.82 42.7559 252.647 42.1423 252.3 41.6006C251.953 41.0505 251.462 40.6273 250.827 40.3311C250.201 40.0348 249.494 39.8867 248.707 39.8867ZM259.828 59.1074H257.848V36.4844H259.828V59.1074ZM241.445 52.4297C244.264 52.4382 246.9 52.3958 249.354 52.3027C251.809 52.2096 254.141 51.998 256.35 51.668L256.502 53.1406C254.911 53.4368 253.256 53.6569 251.538 53.8008C249.82 53.9362 248.212 54.0251 246.714 54.0674C245.224 54.1097 243.561 54.1309 241.725 54.1309L241.445 52.4297ZM272.295 52.8613H270.289V47.834H272.295V52.8613ZM282.4 53.6484H280.395V36.5098H282.4V53.6484ZM282.959 58.5742H266.912V56.8984H282.959V58.5742ZM268.918 57.3809H266.912V51.9727H268.918V57.3809ZM263.662 46.9707C266.684 46.9538 269.358 46.9072 271.686 46.8311C274.013 46.7464 276.239 46.5729 278.363 46.3105L278.49 47.7578C276.298 48.1048 274 48.3333 271.597 48.4434C269.193 48.5534 266.641 48.6042 263.941 48.5957L263.662 46.9707ZM280.928 51.3125H275.723V49.8652H280.928V51.3125ZM271.076 37.4238C272.168 37.4238 273.137 37.5846 273.983 37.9062C274.838 38.2279 275.498 38.6891 275.964 39.29C276.429 39.891 276.662 40.5807 276.662 41.3594C276.662 42.1549 276.429 42.8447 275.964 43.4287C275.498 44.0127 274.842 44.4655 273.996 44.7871C273.15 45.1087 272.176 45.2695 271.076 45.2695C269.967 45.2695 268.99 45.1087 268.144 44.7871C267.306 44.4655 266.654 44.0127 266.188 43.4287C265.723 42.8447 265.49 42.1549 265.49 41.3594C265.49 40.5807 265.723 39.891 266.188 39.29C266.654 38.6891 267.31 38.2279 268.156 37.9062C269.003 37.5846 269.976 37.4238 271.076 37.4238ZM271.076 38.9473C270.348 38.9388 269.705 39.0361 269.146 39.2393C268.588 39.4339 268.152 39.7174 267.839 40.0898C267.534 40.4622 267.386 40.8854 267.395 41.3594C267.386 41.8418 267.534 42.2692 267.839 42.6416C268.152 43.0055 268.588 43.2891 269.146 43.4922C269.705 43.6953 270.348 43.7969 271.076 43.7969C271.787 43.7969 272.422 43.6953 272.98 43.4922C273.539 43.2891 273.975 43.0055 274.288 42.6416C274.601 42.2692 274.758 41.8418 274.758 41.3594C274.758 40.8854 274.601 40.4622 274.288 40.0898C273.975 39.7174 273.539 39.4339 272.98 39.2393C272.422 39.0361 271.787 38.9388 271.076 38.9473ZM304.871 59.1074H302.865V36.4844H304.871V59.1074ZM292.861 38.2363C293.979 38.2363 294.973 38.5579 295.845 39.2012C296.716 39.8444 297.398 40.7627 297.889 41.9561C298.38 43.1494 298.625 44.5332 298.625 46.1074C298.625 47.6816 298.38 49.0612 297.889 50.2461C297.398 51.431 296.716 52.3451 295.845 52.9883C294.973 53.6315 293.979 53.9531 292.861 53.9531C291.744 53.9531 290.75 53.6315 289.878 52.9883C289.006 52.3451 288.325 51.431 287.834 50.2461C287.343 49.0612 287.098 47.6816 287.098 46.1074C287.098 44.5332 287.343 43.1494 287.834 41.9561C288.325 40.7627 289.006 39.8444 289.878 39.2012C290.75 38.5579 291.744 38.2363 292.861 38.2363ZM292.861 40.0137C292.117 40.0137 291.452 40.2676 290.868 40.7754C290.284 41.2832 289.831 41.9984 289.51 42.9209C289.188 43.8434 289.027 44.9056 289.027 46.1074C289.027 47.3177 289.188 48.3841 289.51 49.3066C289.831 50.2207 290.284 50.9274 290.868 51.4268C291.452 51.9261 292.117 52.1758 292.861 52.1758C293.615 52.1758 294.279 51.9261 294.854 51.4268C295.438 50.9274 295.891 50.2207 296.213 49.3066C296.535 48.3841 296.695 47.3177 296.695 46.1074C296.695 44.8971 296.535 43.835 296.213 42.9209C295.891 41.9984 295.438 41.2832 294.854 40.7754C294.279 40.2676 293.615 40.0137 292.861 40.0137ZM328.713 47.8848H317.109V46.2344H328.713V47.8848ZM323.762 52.7852H321.781V47.5293H323.762V52.7852ZM328.611 40.2676H319.064V46.8438H317.109V38.6426H328.611V40.2676ZM333.766 59.1074H331.785V36.4844H333.766V59.1074ZM315.383 52.4805C318.176 52.4805 320.812 52.4382 323.292 52.3535C325.772 52.2689 328.104 52.0996 330.287 51.8457L330.439 53.3438C328.874 53.5723 327.24 53.7458 325.539 53.8643C323.846 53.9743 322.196 54.0547 320.588 54.1055C318.988 54.1478 317.346 54.1647 315.662 54.1562L315.383 52.4805ZM343.795 38.2363C344.887 38.2363 345.86 38.5579 346.715 39.2012C347.578 39.8444 348.247 40.7627 348.721 41.9561C349.195 43.1494 349.432 44.5332 349.432 46.1074C349.432 47.6901 349.195 49.0739 348.721 50.2588C348.247 51.4352 347.578 52.3451 346.715 52.9883C345.86 53.6315 344.887 53.9531 343.795 53.9531C342.686 53.9531 341.7 53.6315 340.837 52.9883C339.982 52.3451 339.318 51.4352 338.844 50.2588C338.37 49.0739 338.133 47.6901 338.133 46.1074C338.133 44.5332 338.37 43.1494 338.844 41.9561C339.318 40.7627 339.982 39.8444 340.837 39.2012C341.7 38.5579 342.686 38.2363 343.795 38.2363ZM343.795 40.0137C343.059 40.0137 342.407 40.2676 341.84 40.7754C341.281 41.2832 340.841 41.9984 340.52 42.9209C340.198 43.835 340.037 44.8971 340.037 46.1074C340.037 47.3177 340.198 48.3841 340.52 49.3066C340.841 50.2207 341.281 50.9274 341.84 51.4268C342.407 51.9261 343.059 52.1758 343.795 52.1758C344.523 52.1758 345.174 51.9261 345.75 51.4268C346.326 50.9274 346.77 50.2165 347.083 49.2939C347.396 48.3714 347.553 47.3092 347.553 46.1074C347.553 44.9056 347.396 43.8434 347.083 42.9209C346.77 41.9984 346.326 41.2832 345.75 40.7754C345.174 40.2676 344.523 40.0137 343.795 40.0137ZM356.439 59.1074H354.459V36.4844H356.439V59.1074ZM355.348 46.7676H348.771V45.1172H355.348V46.7676Z" fill="#0E0E0E"/>
<path d="M123.569 72.2451C123.569 73.6331 123.328 74.9238 122.846 76.1172C122.372 77.3021 121.648 78.3389 120.675 79.2275C119.71 80.1077 118.517 80.7637 117.095 81.1953L115.546 78.6309C116.748 78.2754 117.755 77.7676 118.567 77.1074C119.388 76.4473 119.993 75.7025 120.383 74.873C120.781 74.0352 120.979 73.1592 120.979 72.2451V71.4072H123.569V72.2451ZM124.191 72.2451C124.191 73.0745 124.386 73.8743 124.775 74.6445C125.173 75.4062 125.774 76.0918 126.578 76.7012C127.391 77.3105 128.398 77.776 129.6 78.0977L128.127 80.5859C126.697 80.2051 125.491 79.6042 124.509 78.7832C123.527 77.9538 122.791 76.9805 122.3 75.8633C121.809 74.7461 121.563 73.54 121.563 72.2451V71.4072H124.191V72.2451ZM128.851 72.1689H116.32V69.6172H128.851V72.1689ZM124.229 70.709H120.979V67.167H124.229V70.709ZM132.761 76.0283H128.216V73.375H132.761V76.0283ZM135.147 82.998H131.897V67.2051H135.147V82.998ZM128.495 81.9824C128.495 83.2943 128.135 84.5299 127.416 85.6895C126.705 86.849 125.668 87.8307 124.306 88.6348C122.951 89.4388 121.348 89.972 119.494 90.2344L118.352 87.708C119.883 87.4795 121.204 87.0648 122.312 86.4639C123.43 85.8545 124.276 85.1562 124.852 84.3691C125.436 83.582 125.732 82.7865 125.74 81.9824V81.6143H128.495V81.9824ZM129.054 81.9824C129.054 82.8372 129.333 83.6582 129.892 84.4453C130.459 85.2324 131.297 85.918 132.405 86.502C133.522 87.0859 134.881 87.488 136.48 87.708L135.211 90.2344C133.349 89.972 131.749 89.4473 130.412 88.6602C129.075 87.873 128.051 86.904 127.34 85.7529C126.637 84.6019 126.29 83.3451 126.299 81.9824V81.6143H129.054V81.9824ZM161.211 75.9775H155.193V73.375H161.211V75.9775ZM163.648 84.293H160.424V67.2559H163.648V84.293ZM164.144 89.9424H148.262V87.3271H164.144V89.9424ZM151.537 88.8125H148.262V82.5918H151.537V88.8125ZM148.414 72.2959H152.959V68.7666H156.171V80.6494H145.151V68.7666H148.414V72.2959ZM152.959 78.085V74.7715H148.414V78.085H152.959ZM187.109 90.3359H184.05V67.2051H187.109V90.3359ZM185.192 78.834H181.46V76.2061H185.192V78.834ZM182.526 89.2695H179.53V67.5605H182.526V89.2695ZM171.05 73.667C171.041 75.4105 170.965 76.9635 170.821 78.3262C170.677 79.6803 170.368 80.971 169.895 82.1982C169.429 83.4255 168.748 84.4157 167.851 85.1689L166.048 83.0107C166.852 82.3337 167.461 81.5042 167.876 80.5225C168.291 79.5322 168.562 78.5166 168.688 77.4756C168.815 76.4261 168.883 75.2201 168.892 73.8574V73.667V71.458H171.05V73.667ZM171.659 73.667C171.651 74.9788 171.701 76.1764 171.812 77.2598C171.922 78.3346 172.18 79.4053 172.586 80.4717C172.992 81.5381 173.61 82.4521 174.439 83.2139L172.903 85.4229C171.93 84.6357 171.194 83.5905 170.694 82.2871C170.203 80.9837 169.886 79.638 169.742 78.25C169.607 76.862 169.543 75.3343 169.552 73.667V71.458H171.659V73.667ZM176.242 73.667C176.234 75.3766 176.162 76.9212 176.026 78.3008C175.891 79.6719 175.578 81.0049 175.087 82.2998C174.596 83.5863 173.868 84.6273 172.903 85.4229L171.38 83.2139C172.201 82.4521 172.81 81.555 173.208 80.5225C173.614 79.4814 173.868 78.4489 173.97 77.4248C174.08 76.3923 174.139 75.1862 174.147 73.8066V73.667V71.458H176.242V73.667ZM176.928 73.667C176.919 75.0635 176.974 76.2949 177.093 77.3613C177.22 78.4277 177.491 79.4645 177.905 80.4717C178.32 81.4788 178.938 82.3252 179.759 83.0107L177.981 85.1689C177.084 84.4157 176.395 83.4297 175.912 82.2109C175.438 80.9837 175.121 79.6846 174.96 78.3135C174.808 76.9339 174.736 75.3851 174.744 73.667V71.458H176.928V73.667ZM172.649 72.3848H166.873V69.7949H172.649V72.3848ZM178.629 72.3848H173.195V69.7949H178.629V72.3848ZM199.373 71.3564H203.918V68.4111H207.13V79.2148H196.11V68.4111H199.373V71.3564ZM203.918 76.625V73.8447H199.373V76.625H203.918ZM212.106 75.1523H206.381V72.499H212.106V75.1523ZM214.607 79.8877H211.383V67.2051H214.607V79.8877ZM202.407 82.96H211.383V80.8271H214.595V90.0439H199.195V80.8271H202.407V82.96ZM211.383 87.4414V85.4609H202.407V87.4414H211.383ZM235.936 84.0645H232.698V67.2432H235.936V84.0645ZM239.059 76.5488H234.996V73.8828H239.059V76.5488ZM236.761 89.9424H220.942V87.3271H236.761V89.9424ZM224.18 88.4951H220.942V82.2998H224.18V88.4951ZM224.091 68.7158C225.259 68.7158 226.325 68.9655 227.29 69.4648C228.263 69.9642 229.025 70.6624 229.575 71.5596C230.125 72.4567 230.405 73.4639 230.413 74.5811C230.405 75.6982 230.125 76.7054 229.575 77.6025C229.025 78.4912 228.263 79.1895 227.29 79.6973C226.325 80.2051 225.259 80.459 224.091 80.459C222.923 80.459 221.856 80.2051 220.892 79.6973C219.927 79.1895 219.161 78.4912 218.594 77.6025C218.035 76.7054 217.756 75.6982 217.756 74.5811C217.756 73.4639 218.035 72.4567 218.594 71.5596C219.161 70.6624 219.923 69.9642 220.879 69.4648C221.844 68.9655 222.914 68.7158 224.091 68.7158ZM224.091 71.5342C223.507 71.5342 222.974 71.6569 222.491 71.9023C222.017 72.1393 221.641 72.4906 221.361 72.9561C221.082 73.4215 220.942 73.9632 220.942 74.5811C220.942 75.1989 221.082 75.7363 221.361 76.1934C221.641 76.6504 222.017 77.0059 222.491 77.2598C222.974 77.5052 223.507 77.6279 224.091 77.6279C224.692 77.6279 225.229 77.5052 225.703 77.2598C226.186 77.0143 226.562 76.6631 226.833 76.2061C227.112 75.7406 227.252 75.1989 227.252 74.5811C227.252 73.9548 227.112 73.4131 226.833 72.9561C226.562 72.4906 226.186 72.1393 225.703 71.9023C225.229 71.6569 224.692 71.5342 224.091 71.5342ZM250.611 67.5605C252.38 67.5605 253.891 67.7129 255.144 68.0176C256.405 68.3138 257.361 68.7581 258.013 69.3506C258.673 69.9346 259.003 70.6455 259.003 71.4834C259.003 72.3382 258.673 73.0618 258.013 73.6543C257.361 74.2467 256.409 74.6953 255.156 75C253.904 75.3047 252.389 75.457 250.611 75.457C248.834 75.457 247.315 75.3047 246.054 75C244.801 74.6953 243.84 74.2467 243.172 73.6543C242.512 73.0618 242.182 72.3382 242.182 71.4834C242.182 70.6455 242.512 69.9346 243.172 69.3506C243.84 68.7581 244.801 68.3138 246.054 68.0176C247.315 67.7129 248.834 67.5605 250.611 67.5605ZM250.611 69.9219C249.477 69.9219 248.538 69.9811 247.793 70.0996C247.057 70.2181 246.502 70.3958 246.13 70.6328C245.757 70.8613 245.576 71.1449 245.584 71.4834C245.576 71.8558 245.753 72.1605 246.117 72.3975C246.49 72.6344 247.035 72.8079 247.755 72.918C248.483 73.0195 249.435 73.0745 250.611 73.083C251.796 73.0745 252.753 73.0195 253.48 72.918C254.217 72.8079 254.763 72.6387 255.118 72.4102C255.482 72.1732 255.664 71.8643 255.664 71.4834C255.664 71.1449 255.482 70.8613 255.118 70.6328C254.754 70.3958 254.196 70.2181 253.442 70.0996C252.689 69.9811 251.745 69.9219 250.611 69.9219ZM261.161 79.126H240.087V76.5615H261.161V79.126ZM258.584 86.3496H245.711V88.4316H242.524V84.0898H255.385V82.8203H242.512V80.4463H258.584V86.3496ZM259.193 90.1709H242.524V87.7461H259.193V90.1709ZM272.46 71.0137H277.195V68.2588H280.445V78.3516H269.248V68.2588H272.46V71.0137ZM277.195 75.7998V73.4385H272.46V75.7998H277.195ZM286.895 78.9863H283.657V67.2051H286.895V78.9863ZM290.018 74.3525H285.549V71.7246H290.018V74.3525ZM286.895 86.1338H274.796V88.9014H271.609V83.8105H283.67V82.3633H271.571V79.8623H286.895V86.1338ZM287.567 90.1709H271.609V87.6318H287.567V90.1709ZM298.523 68.7666C299.725 68.7666 300.813 69.012 301.786 69.5029C302.768 69.9854 303.534 70.6582 304.084 71.5215C304.643 72.3848 304.922 73.3581 304.922 74.4414C304.922 75.5332 304.643 76.5107 304.084 77.374C303.534 78.2288 302.768 78.9017 301.786 79.3926C300.813 79.875 299.725 80.1162 298.523 80.1162C297.313 80.1162 296.217 79.875 295.235 79.3926C294.262 78.9017 293.496 78.2288 292.938 77.374C292.379 76.5107 292.1 75.5332 292.1 74.4414C292.1 73.3581 292.379 72.3848 292.938 71.5215C293.496 70.6582 294.262 69.9854 295.235 69.5029C296.217 69.012 297.313 68.7666 298.523 68.7666ZM298.523 71.5596C297.906 71.568 297.355 71.6865 296.873 71.915C296.391 72.1351 296.01 72.4652 295.73 72.9053C295.451 73.3454 295.312 73.8574 295.312 74.4414C295.312 75.0423 295.451 75.5586 295.73 75.9902C296.01 76.4134 296.391 76.7393 296.873 76.9678C297.355 77.1963 297.906 77.3148 298.523 77.3232C299.141 77.3148 299.696 77.1963 300.187 76.9678C300.686 76.7393 301.071 76.4134 301.342 75.9902C301.621 75.5586 301.761 75.0423 301.761 74.4414C301.761 73.8574 301.621 73.3454 301.342 72.9053C301.071 72.4652 300.686 72.1351 300.187 71.915C299.696 71.6865 299.141 71.568 298.523 71.5596ZM310.444 90.3994H307.232V67.2051H310.444V90.3994ZM291.135 83.0361C293.894 83.0361 296.496 82.9896 298.942 82.8965C301.397 82.8034 303.724 82.6045 305.925 82.2998L306.153 84.623C304.571 84.9362 302.929 85.1689 301.228 85.3213C299.526 85.4652 297.923 85.5583 296.416 85.6006C294.91 85.6429 293.276 85.6641 291.516 85.6641L291.135 83.0361ZM324.65 73.3242H313.466V70.7471H324.65V73.3242ZM319.103 74.3652C320.076 74.3652 320.948 74.598 321.718 75.0635C322.496 75.529 323.102 76.1807 323.533 77.0186C323.965 77.848 324.181 78.7917 324.181 79.8496C324.181 80.916 323.965 81.8639 323.533 82.6934C323.102 83.5228 322.496 84.1787 321.718 84.6611C320.948 85.1351 320.076 85.3721 319.103 85.3721C318.138 85.3721 317.266 85.1351 316.487 84.6611C315.709 84.1787 315.104 83.5228 314.672 82.6934C314.24 81.8555 314.024 80.9076 314.024 79.8496C314.024 78.8001 314.24 77.8607 314.672 77.0312C315.112 76.1934 315.717 75.5417 316.487 75.0762C317.266 74.6022 318.138 74.3652 319.103 74.3652ZM319.103 77.0566C318.654 77.0566 318.26 77.1667 317.922 77.3867C317.592 77.6068 317.334 77.9284 317.147 78.3516C316.961 78.7747 316.872 79.2741 316.881 79.8496C316.872 80.4251 316.961 80.9202 317.147 81.335C317.334 81.7497 317.592 82.0671 317.922 82.2871C318.26 82.5072 318.65 82.6172 319.09 82.6172C319.538 82.6172 319.932 82.5072 320.271 82.2871C320.609 82.0671 320.871 81.7497 321.058 81.335C321.252 80.9202 321.35 80.4251 321.35 79.8496C321.35 79.2741 321.252 78.7747 321.058 78.3516C320.871 77.9284 320.605 77.6068 320.258 77.3867C319.919 77.1667 319.534 77.0566 319.103 77.0566ZM333.486 90.3359H330.401V67.2051H333.486V90.3359ZM331.43 79.2148H327.545V76.6377H331.43V79.2148ZM328.535 89.3457H325.501V67.6875H328.535V89.3457ZM320.689 72.3721H317.503V67.8652H320.689V72.3721ZM357.112 87.6445H335.987V85.0293H357.112V87.6445ZM348.099 85.6768H344.912V80.0146H348.099V85.6768ZM341.472 72.2959H351.539V68.6904H354.764V80.7383H338.222V68.6904H341.472V72.2959ZM351.539 78.1484V74.8604H341.472V78.1484H351.539ZM371.56 77.6787H367.624V75.0254H371.56V77.6787ZM365.199 73.1973C365.199 75.0085 365.013 76.7223 364.641 78.3389C364.277 79.9469 363.705 81.3984 362.927 82.6934C362.157 83.9798 361.179 84.9827 359.994 85.7021L358.014 83.29C359.105 82.6214 360.003 81.7539 360.705 80.6875C361.408 79.6126 361.915 78.4447 362.229 77.1836C362.55 75.9225 362.711 74.5938 362.711 73.1973V69.2109H365.199V73.1973ZM365.847 73.0449C365.847 74.416 365.982 75.6982 366.253 76.8916C366.524 78.0765 366.972 79.1768 367.599 80.1924C368.225 81.1995 369.042 82.029 370.049 82.6807L368.297 85.1689C367.12 84.458 366.168 83.4762 365.44 82.2236C364.713 80.971 364.192 79.5788 363.879 78.0469C363.566 76.5065 363.413 74.8392 363.422 73.0449V69.2109H365.847V73.0449ZM378.479 90.3359H375.368V67.2051H378.479V90.3359ZM373.642 89.2695H370.607V67.5605H373.642V89.2695ZM388.851 85.4736H385.639V78.9863H388.851V85.4736ZM397.356 85.4736H394.094V78.9863H397.356V85.4736ZM402.054 87.6318H380.929V84.9785H402.054V87.6318ZM391.453 68.3477C393.12 68.3477 394.61 68.6058 395.922 69.1221C397.242 69.6383 398.275 70.3662 399.02 71.3057C399.773 72.2451 400.149 73.3242 400.149 74.543C400.149 75.7786 399.777 76.862 399.032 77.793C398.287 78.724 397.255 79.4476 395.935 79.9639C394.614 80.4801 393.12 80.7383 391.453 80.7383C389.786 80.7383 388.292 80.4801 386.972 79.9639C385.66 79.4476 384.632 78.724 383.887 77.793C383.142 76.862 382.77 75.7786 382.77 74.543C382.77 73.3242 383.142 72.2451 383.887 71.3057C384.632 70.3662 385.66 69.6383 386.972 69.1221C388.292 68.6058 389.786 68.3477 391.453 68.3477ZM391.453 70.9121C390.344 70.9036 389.38 71.0433 388.559 71.3311C387.738 71.6188 387.099 72.0378 386.642 72.5879C386.193 73.138 385.969 73.7897 385.969 74.543C385.969 75.2962 386.193 75.9521 386.642 76.5107C387.099 77.0609 387.738 77.484 388.559 77.7803C389.388 78.0765 390.353 78.2288 391.453 78.2373C392.545 78.2288 393.506 78.0765 394.335 77.7803C395.164 77.4756 395.808 77.0482 396.265 76.498C396.722 75.9479 396.95 75.2962 396.95 74.543C396.95 73.7897 396.722 73.138 396.265 72.5879C395.808 72.0378 395.164 71.6188 394.335 71.3311C393.506 71.0433 392.545 70.9036 391.453 70.9121ZM406.37 88.2285C405.989 88.2285 405.634 88.1354 405.304 87.9492C404.974 87.7546 404.711 87.4922 404.517 87.1621C404.33 86.832 404.242 86.4723 404.25 86.083C404.242 85.7021 404.33 85.3509 404.517 85.0293C404.711 84.7077 404.974 84.4538 405.304 84.2676C405.634 84.0814 405.989 83.9883 406.37 83.9883C406.743 83.9883 407.094 84.0814 407.424 84.2676C407.754 84.4538 408.012 84.7119 408.198 85.042C408.393 85.3636 408.494 85.7106 408.503 86.083C408.494 86.4723 408.393 86.832 408.198 87.1621C408.012 87.4922 407.754 87.7546 407.424 87.9492C407.094 88.1354 406.743 88.2285 406.37 88.2285Z" fill="#464646"/>
<path d="M126.832 125.684C126.832 126.979 126.413 128.168 125.575 129.251C124.737 130.326 123.637 131.227 122.274 131.955C120.912 132.674 119.46 133.165 117.92 133.428L117.133 131.854C118.462 131.659 119.735 131.261 120.954 130.66C122.181 130.051 123.176 129.31 123.938 128.438C124.699 127.567 125.08 126.648 125.08 125.684V124.719H126.832V125.684ZM127.314 125.684C127.314 126.648 127.695 127.567 128.457 128.438C129.219 129.31 130.209 130.051 131.428 130.66C132.655 131.261 133.933 131.659 135.262 131.854L134.525 133.428C132.968 133.165 131.508 132.674 130.146 131.955C128.783 131.227 127.683 130.326 126.845 129.251C126.007 128.168 125.588 126.979 125.588 125.684V124.719H127.314V125.684ZM127.137 145.057H125.182V136.424H127.137V145.057ZM136.48 137.008H115.914V135.357H136.48V137.008ZM134.525 125.531H117.844V123.906H134.525V125.531ZM157.682 145.057H155.777V122.484H157.682V145.057ZM151.842 132.26H147.424V130.635H151.842V132.26ZM153.111 143.889H151.232V123.043H153.111V143.889ZM144.656 128.934C144.648 130.559 144.428 132.129 143.996 133.644C143.573 135.159 142.964 136.521 142.168 137.731C141.381 138.933 140.45 139.868 139.375 140.537L138.105 139.039C139.13 138.43 140.018 137.592 140.771 136.525C141.533 135.459 142.109 134.27 142.498 132.958C142.896 131.646 143.09 130.305 143.082 128.934V125.988H144.656V128.934ZM145.012 128.934C145.012 130.245 145.206 131.523 145.596 132.768C145.985 134.003 146.544 135.129 147.271 136.145C147.999 137.152 148.871 137.947 149.887 138.531L148.668 140.004C147.585 139.352 146.658 138.459 145.888 137.325C145.118 136.183 144.525 134.892 144.11 133.453C143.704 132.006 143.505 130.499 143.514 128.934V125.988H145.012V128.934ZM149.15 126.801H138.74V125.15H149.15V126.801ZM184.824 129.492H179.061V127.816H184.824V129.492ZM174.744 126.674C174.744 128.104 174.486 129.45 173.97 130.711C173.453 131.964 172.717 133.064 171.761 134.012C170.813 134.951 169.717 135.671 168.473 136.17L167.406 134.545C168.523 134.13 169.518 133.525 170.39 132.729C171.261 131.925 171.938 131.003 172.421 129.962C172.903 128.912 173.145 127.816 173.145 126.674V123.881H174.744V126.674ZM175.1 126.75C175.1 127.791 175.337 128.798 175.811 129.771C176.285 130.736 176.94 131.595 177.778 132.349C178.625 133.093 179.594 133.665 180.686 134.062L179.568 135.611C178.383 135.146 177.33 134.473 176.407 133.593C175.485 132.704 174.77 131.672 174.262 130.495C173.754 129.319 173.5 128.07 173.5 126.75V123.881H175.1V126.75ZM186.094 139.42H184.088V122.51H186.094V139.42ZM186.602 144.574H171.494V142.898H186.602V144.574ZM173.5 143.635H171.494V137.49H173.5V143.635ZM192.289 133.326C194.16 133.326 195.696 133.284 196.897 133.199C198.099 133.115 199.314 132.954 200.541 132.717L200.744 134.367C199.483 134.613 198.247 134.778 197.037 134.862C195.827 134.947 194.244 134.993 192.289 135.002H190.867V133.326H192.289ZM199.627 125.811H192.771V134.215H190.867V124.135H199.627V125.811ZM199.373 130.203H192.162V128.629H199.373V130.203ZM209.021 136.195H207.117V122.51H209.021V136.195ZM207.727 130.025H203.385V128.4H207.727V130.025ZM203.943 136.043H202.09V122.941H203.943V136.043ZM209.021 145.057H207.066V138.988H193.812V137.363H209.021V145.057ZM238.221 126.725H219.914V125.074H238.221V126.725ZM239.516 138.76H218.848V137.109H239.516V138.76ZM230.096 145.107H228.141V138.43H230.096V145.107ZM229.131 128.02C230.654 128.02 231.97 128.163 233.079 128.451C234.188 128.739 235.034 129.171 235.618 129.746C236.202 130.313 236.494 130.999 236.494 131.803C236.494 132.59 236.202 133.263 235.618 133.821C235.034 134.371 234.188 134.799 233.079 135.104C231.97 135.4 230.654 135.552 229.131 135.561C227.59 135.552 226.27 135.4 225.17 135.104C224.07 134.799 223.223 134.371 222.631 133.821C222.047 133.263 221.759 132.59 221.768 131.803C221.759 130.999 222.047 130.313 222.631 129.746C223.223 129.171 224.07 128.739 225.17 128.451C226.27 128.163 227.59 128.02 229.131 128.02ZM229.131 129.543C228.014 129.543 227.057 129.632 226.262 129.81C225.466 129.987 224.857 130.245 224.434 130.584C224.019 130.923 223.816 131.329 223.824 131.803C223.816 132.268 224.019 132.666 224.434 132.996C224.857 133.318 225.466 133.567 226.262 133.745C227.057 133.923 228.014 134.012 229.131 134.012C230.231 134.012 231.179 133.923 231.975 133.745C232.77 133.567 233.375 133.318 233.79 132.996C234.213 132.666 234.429 132.268 234.438 131.803C234.429 131.329 234.213 130.923 233.79 130.584C233.375 130.245 232.77 129.987 231.975 129.81C231.179 129.632 230.231 129.543 229.131 129.543ZM230.096 126.166H228.141V122.357H230.096V126.166ZM267.115 145.057H265.16V122.484H267.115V145.057ZM265.744 133.377H261.326V131.676H265.744V133.377ZM261.91 143.889H260.031V122.992H261.91V143.889ZM250.967 138.252H248.986V125.252H250.967V138.252ZM250.383 137.439C251.729 137.448 253.045 137.401 254.331 137.3C255.626 137.19 256.967 136.991 258.355 136.703L258.609 138.48C257.12 138.751 255.711 138.942 254.382 139.052C253.062 139.162 251.729 139.217 250.383 139.217H248.986V137.439H250.383ZM277.398 134.418H275.418V130.152H277.398V134.418ZM285.777 134.418H283.797V130.152H285.777V134.418ZM290.881 135.307H270.314V133.656H290.881V135.307ZM280.598 137.033C282.206 137.033 283.594 137.186 284.762 137.49C285.93 137.795 286.818 138.248 287.428 138.849C288.046 139.441 288.359 140.165 288.367 141.02C288.359 141.874 288.046 142.594 287.428 143.178C286.818 143.77 285.93 144.223 284.762 144.536C283.602 144.849 282.214 145.006 280.598 145.006C278.964 145.006 277.563 144.849 276.396 144.536C275.236 144.223 274.347 143.77 273.729 143.178C273.112 142.594 272.803 141.874 272.803 141.02C272.803 140.165 273.112 139.441 273.729 138.849C274.347 138.248 275.236 137.795 276.396 137.49C277.563 137.186 278.964 137.033 280.598 137.033ZM280.598 138.557C279.396 138.565 278.363 138.667 277.5 138.861C276.637 139.048 275.972 139.327 275.507 139.699C275.05 140.072 274.826 140.512 274.834 141.02C274.826 141.527 275.05 141.963 275.507 142.327C275.972 142.691 276.637 142.97 277.5 143.165C278.363 143.36 279.396 143.457 280.598 143.457C281.783 143.457 282.807 143.36 283.67 143.165C284.533 142.97 285.198 142.691 285.663 142.327C286.129 141.963 286.361 141.527 286.361 141.02C286.361 140.512 286.129 140.072 285.663 139.699C285.198 139.327 284.533 139.048 283.67 138.861C282.815 138.667 281.791 138.565 280.598 138.557ZM280.598 122.916C282.231 122.916 283.645 123.081 284.838 123.411C286.04 123.741 286.962 124.224 287.605 124.858C288.249 125.485 288.57 126.234 288.57 127.105C288.57 127.977 288.249 128.726 287.605 129.353C286.962 129.97 286.04 130.444 284.838 130.774C283.645 131.104 282.231 131.27 280.598 131.27C278.947 131.27 277.521 131.104 276.319 130.774C275.126 130.444 274.208 129.97 273.564 129.353C272.921 128.726 272.6 127.977 272.6 127.105C272.6 126.234 272.921 125.485 273.564 124.858C274.208 124.224 275.126 123.741 276.319 123.411C277.521 123.081 278.947 122.916 280.598 122.916ZM280.598 124.49C279.37 124.49 278.308 124.596 277.411 124.808C276.522 125.019 275.841 125.32 275.367 125.709C274.893 126.098 274.656 126.564 274.656 127.105C274.656 127.647 274.893 128.113 275.367 128.502C275.841 128.891 276.522 129.192 277.411 129.403C278.308 129.615 279.37 129.721 280.598 129.721C281.816 129.721 282.87 129.615 283.759 129.403C284.647 129.192 285.333 128.891 285.815 128.502C286.298 128.113 286.539 127.647 286.539 127.105C286.539 126.572 286.298 126.111 285.815 125.722C285.333 125.324 284.643 125.019 283.746 124.808C282.857 124.596 281.808 124.49 280.598 124.49ZM303.068 122.891C304.736 122.891 306.166 123.039 307.359 123.335C308.561 123.631 309.475 124.071 310.102 124.655C310.728 125.239 311.041 125.946 311.041 126.775C311.041 127.622 310.728 128.341 310.102 128.934C309.475 129.526 308.565 129.975 307.372 130.279C306.179 130.576 304.744 130.728 303.068 130.736C301.384 130.728 299.945 130.576 298.752 130.279C297.567 129.975 296.657 129.526 296.022 128.934C295.388 128.341 295.07 127.622 295.07 126.775C295.07 125.946 295.388 125.239 296.022 124.655C296.657 124.071 297.571 123.631 298.765 123.335C299.958 123.039 301.393 122.891 303.068 122.891ZM303.068 124.389C301.824 124.389 300.758 124.486 299.869 124.681C298.989 124.875 298.312 125.15 297.838 125.506C297.372 125.861 297.144 126.285 297.152 126.775C297.144 127.292 297.372 127.736 297.838 128.108C298.312 128.472 298.989 128.747 299.869 128.934C300.758 129.12 301.824 129.213 303.068 129.213C304.312 129.213 305.379 129.12 306.268 128.934C307.165 128.747 307.846 128.472 308.312 128.108C308.777 127.744 309.01 127.3 309.01 126.775C309.01 126.285 308.777 125.861 308.312 125.506C307.846 125.15 307.165 124.875 306.268 124.681C305.37 124.486 304.304 124.389 303.068 124.389ZM313.352 133.885H292.785V132.26H313.352V133.885ZM310.711 140.893H297.305V143.635H295.324V139.42H308.756V137.363H295.273V135.84H310.711V140.893ZM311.396 144.803H295.324V143.229H311.396V144.803ZM329.068 126.674C329.068 128.028 328.806 129.298 328.281 130.482C327.757 131.667 327.016 132.696 326.06 133.567C325.112 134.439 324.016 135.104 322.771 135.561L321.705 134.012C322.822 133.614 323.817 133.047 324.688 132.311C325.56 131.566 326.237 130.707 326.72 129.733C327.211 128.76 327.46 127.74 327.469 126.674V124.82H329.068V126.674ZM329.424 126.674C329.424 127.664 329.657 128.616 330.122 129.53C330.588 130.436 331.239 131.244 332.077 131.955C332.915 132.658 333.884 133.199 334.984 133.58L333.969 135.129C332.733 134.689 331.65 134.05 330.719 133.212C329.788 132.374 329.068 131.392 328.561 130.267C328.053 129.141 327.799 127.943 327.799 126.674V124.82H329.424V126.674ZM334.502 125.709H322.314V124.084H334.502V125.709ZM339.428 136.094H337.447V122.484H339.428V136.094ZM342.83 130.152H338.869V128.451H342.83V130.152ZM339.428 145.057H337.447V138.912H324.65V137.287H339.428V145.057ZM351.666 126.115C351.666 127.554 351.404 128.896 350.879 130.14C350.354 131.384 349.614 132.463 348.657 133.377C347.701 134.291 346.588 134.985 345.318 135.459L344.227 133.834C345.378 133.428 346.393 132.84 347.273 132.069C348.154 131.299 348.831 130.402 349.305 129.378C349.787 128.354 350.033 127.266 350.041 126.115V123.779H351.666V126.115ZM352.021 126.039C352.013 127.097 352.242 128.104 352.707 129.061C353.181 130.008 353.841 130.846 354.688 131.574C355.534 132.302 356.507 132.852 357.607 133.225L356.49 134.773C355.28 134.316 354.214 133.66 353.291 132.806C352.377 131.951 351.662 130.948 351.146 129.797C350.629 128.637 350.371 127.385 350.371 126.039V123.779H352.021V126.039ZM362.965 135.865H360.959V122.484H362.965V135.865ZM355.475 136.525C357.032 136.525 358.378 136.69 359.512 137.021C360.646 137.351 361.518 137.837 362.127 138.48C362.736 139.124 363.041 139.894 363.041 140.791C363.041 141.68 362.736 142.437 362.127 143.063C361.518 143.698 360.646 144.181 359.512 144.511C358.378 144.841 357.032 145.006 355.475 145.006C353.909 145.006 352.559 144.841 351.425 144.511C350.299 144.181 349.432 143.698 348.822 143.063C348.213 142.437 347.908 141.68 347.908 140.791C347.908 139.894 348.213 139.124 348.822 138.48C349.432 137.837 350.299 137.351 351.425 137.021C352.559 136.69 353.909 136.525 355.475 136.525ZM355.475 138.1C354.324 138.1 353.329 138.205 352.491 138.417C351.653 138.629 351.01 138.938 350.562 139.344C350.113 139.75 349.889 140.232 349.889 140.791C349.889 141.333 350.113 141.798 350.562 142.188C351.01 142.577 351.653 142.877 352.491 143.089C353.329 143.3 354.324 143.406 355.475 143.406C356.617 143.406 357.607 143.3 358.445 143.089C359.292 142.877 359.939 142.577 360.388 142.188C360.836 141.798 361.061 141.333 361.061 140.791C361.061 140.232 360.836 139.75 360.388 139.344C359.939 138.938 359.292 138.629 358.445 138.417C357.607 138.205 356.617 138.1 355.475 138.1ZM361.391 128.984H355.932V127.334H361.391V128.984ZM384.191 145.057H382.211V122.484H384.191V145.057ZM387.975 133.453H383.734V131.803H387.975V133.453ZM380.027 127.766H366.596V126.115H380.027V127.766ZM373.426 129.645C374.475 129.645 375.419 129.865 376.257 130.305C377.095 130.745 377.751 131.358 378.225 132.146C378.707 132.933 378.952 133.826 378.961 134.824C378.952 135.831 378.707 136.729 378.225 137.516C377.751 138.294 377.095 138.904 376.257 139.344C375.419 139.784 374.475 140.004 373.426 140.004C372.368 140.004 371.416 139.784 370.569 139.344C369.731 138.904 369.076 138.294 368.602 137.516C368.128 136.729 367.891 135.831 367.891 134.824C367.891 133.826 368.128 132.933 368.602 132.146C369.076 131.358 369.731 130.745 370.569 130.305C371.416 129.865 372.368 129.645 373.426 129.645ZM373.426 131.32C372.732 131.32 372.11 131.468 371.56 131.765C371.009 132.061 370.578 132.48 370.265 133.021C369.951 133.555 369.795 134.156 369.795 134.824C369.795 135.501 369.951 136.102 370.265 136.627C370.578 137.152 371.009 137.566 371.56 137.871C372.11 138.167 372.732 138.311 373.426 138.303C374.111 138.311 374.729 138.167 375.279 137.871C375.838 137.566 376.27 137.152 376.574 136.627C376.887 136.102 377.048 135.501 377.057 134.824C377.048 134.156 376.887 133.555 376.574 133.021C376.27 132.48 375.838 132.061 375.279 131.765C374.729 131.468 374.111 131.32 373.426 131.32ZM374.391 126.877H372.41V122.764H374.391V126.877ZM406.51 128.146H400.111V126.471H406.51V128.146ZM406.561 132.971H400.111V131.32H406.561V132.971ZM400.619 135.002H390.26V124.465H400.619V135.002ZM392.24 133.402H398.664V126.115H392.24V133.402ZM407.906 138.988H405.9V122.51H407.906V138.988ZM408.414 144.574H393.307V142.898H408.414V144.574ZM395.312 143.635H393.307V137.516H395.312V143.635ZM413.391 148.205H411.512L412.908 141.299H415.371L413.391 148.205ZM134.627 176.107H132.621V153.484H134.627V176.107ZM133.23 163.361H127.67V161.711H133.23V163.361ZM123.354 160.188C123.345 161.753 123.053 163.298 122.478 164.821C121.91 166.336 121.136 167.69 120.154 168.884C119.181 170.077 118.106 170.979 116.93 171.588L115.711 170.039C116.794 169.514 117.797 168.727 118.72 167.678C119.642 166.628 120.374 165.448 120.916 164.136C121.458 162.815 121.729 161.499 121.729 160.188V156.684H123.354V160.188ZM123.734 160.188C123.734 161.415 124.005 162.659 124.547 163.92C125.089 165.173 125.816 166.298 126.73 167.297C127.645 168.296 128.643 169.04 129.727 169.531L128.533 171.131C127.348 170.547 126.269 169.684 125.296 168.541C124.323 167.39 123.552 166.087 122.985 164.631C122.418 163.167 122.135 161.686 122.135 160.188V156.684H123.734V160.188ZM128.914 157.471H116.574V155.82H128.914V157.471ZM163.115 167.348H161.186V153.484H163.115V167.348ZM165.984 161H162.049V159.324H165.984V161ZM147.246 158.689H149.912V155.135H151.588V165.52H145.57V155.135H147.246V158.689ZM149.912 163.895V160.314H147.246V163.895H149.912ZM154.736 158.689H157.402V155.135H159.078V165.52H153.035V155.135H154.736V158.689ZM157.402 163.895V160.314H154.736V163.895H157.402ZM155.701 167.754C157.267 167.754 158.617 167.915 159.751 168.236C160.894 168.558 161.77 169.032 162.379 169.658C162.997 170.276 163.31 171.021 163.318 171.893C163.31 172.756 162.997 173.496 162.379 174.114C161.77 174.732 160.894 175.202 159.751 175.523C158.617 175.845 157.267 176.006 155.701 176.006C154.127 176.006 152.773 175.845 151.639 175.523C150.505 175.202 149.633 174.732 149.023 174.114C148.414 173.496 148.109 172.756 148.109 171.893C148.109 171.021 148.414 170.276 149.023 169.658C149.633 169.032 150.505 168.558 151.639 168.236C152.781 167.915 154.135 167.754 155.701 167.754ZM155.701 169.303C154.533 169.311 153.535 169.421 152.705 169.633C151.876 169.836 151.237 170.132 150.788 170.521C150.348 170.902 150.132 171.359 150.141 171.893C150.132 172.417 150.348 172.87 150.788 173.251C151.237 173.632 151.876 173.924 152.705 174.127C153.543 174.33 154.542 174.432 155.701 174.432C156.844 174.432 157.834 174.33 158.672 174.127C159.518 173.924 160.166 173.632 160.614 173.251C161.071 172.87 161.304 172.417 161.312 171.893C161.304 171.359 161.071 170.902 160.614 170.521C160.166 170.132 159.522 169.836 158.685 169.633C157.847 169.421 156.852 169.311 155.701 169.303ZM184.596 156.328H169.895V154.678H184.596V156.328ZM187.947 165.266H167.381V163.59H187.947V165.266ZM185.256 156.557C185.239 157.902 185.188 159.13 185.104 160.238C185.019 161.347 184.824 162.625 184.52 164.072L182.539 163.945C182.768 162.93 182.933 161.978 183.034 161.089C183.144 160.2 183.212 159.438 183.237 158.804C183.263 158.169 183.284 157.378 183.301 156.43V156.303V154.678H185.256V156.303V156.557ZM178.299 168.439C178.299 169.743 177.91 170.915 177.131 171.956C176.352 172.997 175.307 173.856 173.995 174.533C172.692 175.219 171.249 175.693 169.666 175.955L168.904 174.406C170.284 174.203 171.558 173.818 172.726 173.251C173.902 172.684 174.837 171.986 175.531 171.156C176.225 170.327 176.572 169.421 176.572 168.439V167.348H178.299V168.439ZM178.578 168.439C178.578 169.421 178.929 170.327 179.632 171.156C180.334 171.986 181.27 172.684 182.438 173.251C183.605 173.818 184.875 174.203 186.246 174.406L185.51 175.955C183.927 175.693 182.48 175.219 181.168 174.533C179.865 173.856 178.819 173.001 178.032 171.969C177.245 170.928 176.852 169.751 176.852 168.439V167.348H178.578V168.439ZM208.463 176.107H206.457V153.484H208.463V176.107ZM196.453 155.236C197.57 155.236 198.565 155.558 199.437 156.201C200.308 156.844 200.99 157.763 201.48 158.956C201.971 160.149 202.217 161.533 202.217 163.107C202.217 164.682 201.971 166.061 201.48 167.246C200.99 168.431 200.308 169.345 199.437 169.988C198.565 170.632 197.57 170.953 196.453 170.953C195.336 170.953 194.341 170.632 193.47 169.988C192.598 169.345 191.917 168.431 191.426 167.246C190.935 166.061 190.689 164.682 190.689 163.107C190.689 161.533 190.935 160.149 191.426 158.956C191.917 157.763 192.598 156.844 193.47 156.201C194.341 155.558 195.336 155.236 196.453 155.236ZM196.453 157.014C195.708 157.014 195.044 157.268 194.46 157.775C193.876 158.283 193.423 158.998 193.102 159.921C192.78 160.843 192.619 161.906 192.619 163.107C192.619 164.318 192.78 165.384 193.102 166.307C193.423 167.221 193.876 167.927 194.46 168.427C195.044 168.926 195.708 169.176 196.453 169.176C197.206 169.176 197.871 168.926 198.446 168.427C199.03 167.927 199.483 167.221 199.805 166.307C200.126 165.384 200.287 164.318 200.287 163.107C200.287 161.897 200.126 160.835 199.805 159.921C199.483 158.998 199.03 158.283 198.446 157.775C197.871 157.268 197.206 157.014 196.453 157.014ZM229.791 176.057H227.811V153.484H229.791V176.057ZM233.447 164.352H229.283V162.676H233.447V164.352ZM223.951 155.922C223.943 158.114 223.579 160.188 222.859 162.143C222.148 164.089 221.023 165.888 219.482 167.538C217.942 169.18 215.979 170.589 213.592 171.766L212.475 170.191C214.565 169.15 216.317 167.927 217.73 166.522C219.152 165.109 220.215 163.543 220.917 161.825C221.628 160.107 221.988 158.249 221.996 156.252V155.922H223.951ZM223.012 157.598H213.516V155.922H223.012V157.598ZM244.441 158.156H250.738V154.652H252.693V164.986H242.461V154.652H244.441V158.156ZM250.738 163.361V159.73H244.441V163.361H250.738ZM258.635 160.721H252.135V159.045H258.635V160.721ZM260.031 165.824H258.025V153.484H260.031V165.824ZM247.488 169.684H258.025V166.916H260.006V175.752H245.482V166.916H247.488V169.684ZM258.025 174.102V171.283H247.488V174.102H258.025ZM281.436 170.141H279.455V153.484H281.436V170.141ZM284.838 162.041H280.801V160.365H284.838V162.041ZM282.477 175.574H267.318V173.898H282.477V175.574ZM269.273 174.559H267.318V168.414H269.273V174.559ZM270.137 155.084C271.254 155.084 272.265 155.321 273.171 155.795C274.076 156.269 274.783 156.929 275.291 157.775C275.807 158.613 276.07 159.57 276.078 160.645C276.07 161.719 275.807 162.68 275.291 163.526C274.783 164.364 274.076 165.02 273.171 165.494C272.265 165.968 271.254 166.205 270.137 166.205C269.028 166.205 268.021 165.968 267.115 165.494C266.218 165.02 265.511 164.36 264.995 163.514C264.479 162.667 264.221 161.711 264.221 160.645C264.221 159.57 264.479 158.613 264.995 157.775C265.511 156.929 266.218 156.269 267.115 155.795C268.012 155.321 269.02 155.084 270.137 155.084ZM270.137 156.836C269.4 156.836 268.728 156.997 268.118 157.318C267.517 157.64 267.043 158.093 266.696 158.677C266.349 159.261 266.176 159.917 266.176 160.645C266.176 161.372 266.349 162.024 266.696 162.6C267.043 163.175 267.517 163.628 268.118 163.958C268.728 164.288 269.4 164.453 270.137 164.453C270.89 164.453 271.567 164.288 272.168 163.958C272.777 163.628 273.256 163.175 273.603 162.6C273.95 162.024 274.123 161.372 274.123 160.645C274.123 159.908 273.95 159.252 273.603 158.677C273.256 158.093 272.777 157.64 272.168 157.318C271.567 156.997 270.89 156.836 270.137 156.836ZM300.732 166.307H298.727V162.879H300.732V166.307ZM299.666 154.551C300.758 154.551 301.727 154.737 302.573 155.109C303.428 155.482 304.092 156.007 304.566 156.684C305.04 157.352 305.277 158.131 305.277 159.02C305.277 159.883 305.04 160.649 304.566 161.317C304.092 161.986 303.428 162.507 302.573 162.879C301.727 163.251 300.758 163.438 299.666 163.438C298.574 163.438 297.605 163.251 296.759 162.879C295.921 162.507 295.265 161.986 294.791 161.317C294.317 160.649 294.08 159.883 294.08 159.02C294.08 158.131 294.317 157.352 294.791 156.684C295.265 156.007 295.921 155.482 296.759 155.109C297.605 154.737 298.574 154.551 299.666 154.551ZM299.666 156.1C298.938 156.1 298.295 156.222 297.736 156.468C297.178 156.713 296.738 157.056 296.416 157.496C296.103 157.936 295.951 158.444 295.959 159.02C295.951 159.587 296.103 160.09 296.416 160.53C296.738 160.962 297.178 161.3 297.736 161.546C298.295 161.791 298.938 161.914 299.666 161.914C300.394 161.914 301.041 161.791 301.608 161.546C302.175 161.3 302.616 160.962 302.929 160.53C303.242 160.09 303.398 159.587 303.398 159.02C303.398 158.444 303.242 157.932 302.929 157.483C302.616 157.035 302.175 156.692 301.608 156.455C301.041 156.218 300.394 156.1 299.666 156.1ZM310.406 170.775H308.4V153.51H310.406V170.775ZM313.783 162.854H309.568V161.152H313.783V162.854ZM311.219 175.549H296.061V173.873H311.219V175.549ZM298.066 174.635H296.061V169.277H298.066V174.635ZM292.76 165.748C295.257 165.765 297.724 165.723 300.161 165.621C302.599 165.511 304.863 165.299 306.953 164.986L307.105 166.484C304.973 166.865 302.73 167.115 300.377 167.233C298.033 167.352 295.578 167.407 293.014 167.398L292.76 165.748ZM322.67 157.115C322.67 158.554 322.408 159.896 321.883 161.14C321.358 162.384 320.618 163.463 319.661 164.377C318.705 165.291 317.592 165.985 316.322 166.459L315.23 164.834C316.382 164.428 317.397 163.84 318.277 163.069C319.158 162.299 319.835 161.402 320.309 160.378C320.791 159.354 321.036 158.266 321.045 157.115V154.779H322.67V157.115ZM323.025 157.039C323.017 158.097 323.245 159.104 323.711 160.061C324.185 161.008 324.845 161.846 325.691 162.574C326.538 163.302 327.511 163.852 328.611 164.225L327.494 165.773C326.284 165.316 325.217 164.66 324.295 163.806C323.381 162.951 322.666 161.948 322.149 160.797C321.633 159.637 321.375 158.385 321.375 157.039V154.779H323.025V157.039ZM333.969 166.865H331.963V153.484H333.969V166.865ZM326.479 167.525C328.036 167.525 329.382 167.69 330.516 168.021C331.65 168.351 332.521 168.837 333.131 169.48C333.74 170.124 334.045 170.894 334.045 171.791C334.045 172.68 333.74 173.437 333.131 174.063C332.521 174.698 331.65 175.181 330.516 175.511C329.382 175.841 328.036 176.006 326.479 176.006C324.913 176.006 323.563 175.841 322.429 175.511C321.303 175.181 320.436 174.698 319.826 174.063C319.217 173.437 318.912 172.68 318.912 171.791C318.912 170.894 319.217 170.124 319.826 169.48C320.436 168.837 321.303 168.351 322.429 168.021C323.563 167.69 324.913 167.525 326.479 167.525ZM326.479 169.1C325.327 169.1 324.333 169.205 323.495 169.417C322.657 169.629 322.014 169.938 321.565 170.344C321.117 170.75 320.893 171.232 320.893 171.791C320.893 172.333 321.117 172.798 321.565 173.188C322.014 173.577 322.657 173.877 323.495 174.089C324.333 174.3 325.327 174.406 326.479 174.406C327.621 174.406 328.611 174.3 329.449 174.089C330.296 173.877 330.943 173.577 331.392 173.188C331.84 172.798 332.064 172.333 332.064 171.791C332.064 171.232 331.84 170.75 331.392 170.344C330.943 169.938 330.296 169.629 329.449 169.417C328.611 169.205 327.621 169.1 326.479 169.1ZM332.395 159.984H326.936V158.334H332.395V159.984ZM355.195 176.057H353.215V153.484H355.195V176.057ZM358.979 164.453H354.738V162.803H358.979V164.453ZM351.031 158.766H337.6V157.115H351.031V158.766ZM344.43 160.645C345.479 160.645 346.423 160.865 347.261 161.305C348.099 161.745 348.755 162.358 349.229 163.146C349.711 163.933 349.956 164.826 349.965 165.824C349.956 166.831 349.711 167.729 349.229 168.516C348.755 169.294 348.099 169.904 347.261 170.344C346.423 170.784 345.479 171.004 344.43 171.004C343.372 171.004 342.42 170.784 341.573 170.344C340.735 169.904 340.079 169.294 339.605 168.516C339.132 167.729 338.895 166.831 338.895 165.824C338.895 164.826 339.132 163.933 339.605 163.146C340.079 162.358 340.735 161.745 341.573 161.305C342.42 160.865 343.372 160.645 344.43 160.645ZM344.43 162.32C343.736 162.32 343.114 162.468 342.563 162.765C342.013 163.061 341.582 163.48 341.269 164.021C340.955 164.555 340.799 165.156 340.799 165.824C340.799 166.501 340.955 167.102 341.269 167.627C341.582 168.152 342.013 168.566 342.563 168.871C343.114 169.167 343.736 169.311 344.43 169.303C345.115 169.311 345.733 169.167 346.283 168.871C346.842 168.566 347.273 168.152 347.578 167.627C347.891 167.102 348.052 166.501 348.061 165.824C348.052 165.156 347.891 164.555 347.578 164.021C347.273 163.48 346.842 163.061 346.283 162.765C345.733 162.468 345.115 162.32 344.43 162.32ZM345.395 157.877H343.414V153.764H345.395V157.877ZM378.453 161.939H362.99V160.34H378.453V161.939ZM380.84 166.637H360.172V165.012H380.84V166.637ZM364.971 161.152H362.99V154.322H364.971V161.152ZM378.58 175.498H362.863V173.848H378.58V175.498ZM364.844 174.33H362.863V168.947H364.844V174.33ZM407.906 168.795H405.9V153.51H407.906V168.795ZM406.332 161.533H400.949V159.857H406.332V161.533ZM400.848 155.287C400.848 157.191 400.437 158.926 399.616 160.492C398.795 162.049 397.606 163.404 396.049 164.555C394.5 165.697 392.638 166.62 390.463 167.322L389.574 165.723C391.495 165.13 393.142 164.36 394.513 163.412C395.892 162.464 396.946 161.368 397.674 160.124C398.402 158.88 398.766 157.53 398.766 156.074V155.287H400.848ZM400.162 156.912H390.691V155.287H400.162V156.912ZM401.305 167.855C401.305 169.252 400.915 170.513 400.137 171.639C399.358 172.756 398.321 173.683 397.026 174.419C395.731 175.155 394.305 175.676 392.748 175.98L391.936 174.406C393.29 174.169 394.551 173.742 395.719 173.124C396.887 172.506 397.822 171.74 398.524 170.826C399.235 169.912 399.595 168.922 399.604 167.855V166.814H401.305V167.855ZM401.559 167.855C401.559 168.913 401.91 169.891 402.612 170.788C403.315 171.677 404.242 172.43 405.393 173.048C406.544 173.657 407.796 174.085 409.15 174.33L408.312 175.93C406.781 175.633 405.371 175.117 404.085 174.381C402.807 173.653 401.783 172.73 401.013 171.613C400.243 170.496 399.857 169.243 399.857 167.855V166.814H401.559V167.855ZM421.947 153.891C423.615 153.891 425.045 154.039 426.238 154.335C427.44 154.631 428.354 155.071 428.98 155.655C429.607 156.239 429.92 156.946 429.92 157.775C429.92 158.622 429.607 159.341 428.98 159.934C428.354 160.526 427.444 160.975 426.251 161.279C425.058 161.576 423.623 161.728 421.947 161.736C420.263 161.728 418.824 161.576 417.631 161.279C416.446 160.975 415.536 160.526 414.901 159.934C414.267 159.341 413.949 158.622 413.949 157.775C413.949 156.946 414.267 156.239 414.901 155.655C415.536 155.071 416.45 154.631 417.644 154.335C418.837 154.039 420.271 153.891 421.947 153.891ZM421.947 155.389C420.703 155.389 419.637 155.486 418.748 155.681C417.868 155.875 417.191 156.15 416.717 156.506C416.251 156.861 416.023 157.285 416.031 157.775C416.023 158.292 416.251 158.736 416.717 159.108C417.191 159.472 417.868 159.747 418.748 159.934C419.637 160.12 420.703 160.213 421.947 160.213C423.191 160.213 424.258 160.12 425.146 159.934C426.044 159.747 426.725 159.472 427.19 159.108C427.656 158.744 427.889 158.3 427.889 157.775C427.889 157.285 427.656 156.861 427.19 156.506C426.725 156.15 426.044 155.875 425.146 155.681C424.249 155.486 423.183 155.389 421.947 155.389ZM432.23 164.885H411.664V163.26H432.23V164.885ZM429.59 171.893H416.184V174.635H414.203V170.42H427.635V168.363H414.152V166.84H429.59V171.893ZM430.275 175.803H414.203V174.229H430.275V175.803ZM124.775 199.236H122.795V194.971H124.775V199.236ZM121.5 201.014H132.443V198.551H134.398V206.752H119.52V198.551H121.5V201.014ZM132.443 205.127V202.588H121.5V205.127H132.443ZM134.398 197.459H132.418V184.51H134.398V197.459ZM115.939 194.387C119.029 194.387 121.741 194.353 124.077 194.285C126.422 194.209 128.686 194.031 130.869 193.752L130.996 195.174C128.762 195.546 126.477 195.783 124.141 195.885C121.813 195.986 119.173 196.037 116.219 196.037L115.939 194.387ZM124.166 186.186C124.158 187.252 123.887 188.242 123.354 189.156C122.829 190.07 122.092 190.862 121.145 191.53C120.197 192.19 119.105 192.677 117.869 192.99L116.955 191.416C118.047 191.162 119.012 190.777 119.85 190.261C120.696 189.744 121.356 189.135 121.83 188.433C122.304 187.73 122.541 186.981 122.541 186.186V185.043H124.166V186.186ZM124.572 186.186C124.572 186.939 124.809 187.65 125.283 188.318C125.757 188.979 126.413 189.55 127.251 190.032C128.089 190.515 129.049 190.874 130.133 191.111L129.27 192.635C128.017 192.347 126.917 191.898 125.969 191.289C125.021 190.68 124.28 189.939 123.747 189.067C123.214 188.196 122.947 187.235 122.947 186.186V185.043H124.572V186.186ZM157.707 207.057H155.803V184.484H157.707V207.057ZM151.639 195.377H145.85V193.752H151.639V195.377ZM152.959 205.914H151.055V185.094H152.959V205.914ZM148.135 187.379C148.126 189.393 147.826 191.298 147.233 193.092C146.649 194.886 145.723 196.558 144.453 198.106C143.184 199.655 141.559 201.014 139.578 202.182L138.41 200.734C140.162 199.693 141.618 198.5 142.777 197.154C143.945 195.8 144.804 194.336 145.354 192.762C145.913 191.188 146.197 189.512 146.205 187.734V187.379H148.135ZM146.967 189.029H139.375V187.379H146.967V189.029ZM185.611 196.697H170.021V195.072H185.611V196.697ZM188.049 204.213H167.381V202.537H188.049V204.213ZM178.629 203.223H176.674V195.783H178.629V203.223ZM185.383 187.963H172.027V195.834H170.021V186.338H185.383V187.963ZM197.672 201.242H195.666V195.885H197.672V201.242ZM196.656 185.957C197.807 185.965 198.84 186.194 199.754 186.643C200.668 187.083 201.383 187.705 201.899 188.509C202.416 189.313 202.674 190.231 202.674 191.264C202.674 192.296 202.416 193.21 201.899 194.006C201.383 194.801 200.664 195.424 199.741 195.872C198.827 196.321 197.799 196.545 196.656 196.545C195.488 196.545 194.447 196.321 193.533 195.872C192.619 195.424 191.908 194.801 191.4 194.006C190.893 193.21 190.639 192.296 190.639 191.264C190.639 190.231 190.893 189.313 191.4 188.509C191.908 187.705 192.619 187.083 193.533 186.643C194.447 186.194 195.488 185.965 196.656 185.957ZM196.656 187.684C195.869 187.684 195.167 187.836 194.549 188.141C193.939 188.445 193.457 188.868 193.102 189.41C192.755 189.952 192.585 190.57 192.594 191.264C192.585 191.958 192.755 192.576 193.102 193.117C193.457 193.659 193.939 194.082 194.549 194.387C195.167 194.691 195.869 194.844 196.656 194.844C197.426 194.844 198.116 194.691 198.726 194.387C199.343 194.082 199.826 193.659 200.173 193.117C200.528 192.576 200.71 191.958 200.719 191.264C200.71 190.57 200.528 189.952 200.173 189.41C199.826 188.868 199.343 188.445 198.726 188.141C198.116 187.836 197.426 187.684 196.656 187.684ZM207.295 207.057H205.314V184.484H207.295V207.057ZM210.977 195.529H206.762V193.803H210.977V195.529ZM190.664 200.48C193.322 200.455 195.713 200.4 197.837 200.315C199.97 200.231 201.98 200.066 203.867 199.82L203.994 201.318C202.513 201.572 200.956 201.763 199.322 201.89C197.697 202.017 196.132 202.097 194.625 202.131C193.118 202.156 191.544 202.165 189.902 202.156L189.572 200.48H190.664ZM223.57 198.576H221.615V195.098H223.57V198.576ZM232.889 195.555H212.322V193.93H232.889V195.555ZM230.248 202.969H216.842V205.635H214.861V201.496H228.293V199.363H214.811V197.84H230.248V202.969ZM230.934 206.803H214.861V205.229H230.934V206.803ZM223.215 186.566C223.215 187.692 222.796 188.699 221.958 189.588C221.12 190.468 220.007 191.183 218.619 191.733C217.24 192.284 215.733 192.643 214.1 192.812L213.439 191.289C214.836 191.162 216.148 190.883 217.375 190.451C218.611 190.011 219.601 189.457 220.346 188.788C221.099 188.111 221.48 187.37 221.488 186.566V185.906H223.215V186.566ZM223.748 186.566C223.74 187.362 224.108 188.098 224.853 188.775C225.606 189.452 226.6 190.011 227.836 190.451C229.072 190.883 230.392 191.162 231.797 191.289L231.137 192.812C229.503 192.643 227.993 192.284 226.604 191.733C225.225 191.183 224.112 190.468 223.266 189.588C222.428 188.699 222.013 187.692 222.021 186.566V185.906H223.748V186.566ZM231.061 186.871H214.201V185.297H231.061V186.871ZM254.115 207.057H252.211V184.484H254.115V207.057ZM248.047 195.377H242.258V193.752H248.047V195.377ZM249.367 205.914H247.463V185.094H249.367V205.914ZM244.543 187.379C244.535 189.393 244.234 191.298 243.642 193.092C243.058 194.886 242.131 196.558 240.861 198.106C239.592 199.655 237.967 201.014 235.986 202.182L234.818 200.734C236.57 199.693 238.026 198.5 239.186 197.154C240.354 195.8 241.213 194.336 241.763 192.762C242.321 191.188 242.605 189.512 242.613 187.734V187.379H244.543ZM243.375 189.029H235.783V187.379H243.375V189.029ZM264.348 202.893H262.393V196.139H264.348V202.893ZM272.803 202.893H270.797V196.139H272.803V202.893ZM277.932 204.162H257.264V202.486H277.932V204.162ZM267.547 185.906C269.146 185.915 270.568 186.16 271.812 186.643C273.065 187.117 274.043 187.798 274.745 188.687C275.448 189.567 275.799 190.578 275.799 191.721C275.799 192.872 275.448 193.883 274.745 194.755C274.043 195.627 273.065 196.304 271.812 196.786C270.568 197.269 269.146 197.51 267.547 197.51C265.947 197.51 264.521 197.269 263.269 196.786C262.024 196.304 261.051 195.627 260.349 194.755C259.646 193.883 259.295 192.872 259.295 191.721C259.295 190.578 259.646 189.567 260.349 188.687C261.051 187.798 262.024 187.117 263.269 186.643C264.521 186.16 265.947 185.915 267.547 185.906ZM267.547 187.557C266.32 187.548 265.224 187.717 264.259 188.064C263.302 188.403 262.558 188.89 262.024 189.524C261.491 190.159 261.225 190.891 261.225 191.721C261.225 192.55 261.491 193.282 262.024 193.917C262.558 194.552 263.302 195.047 264.259 195.402C265.224 195.758 266.32 195.936 267.547 195.936C268.766 195.936 269.853 195.758 270.81 195.402C271.766 195.047 272.515 194.552 273.057 193.917C273.598 193.282 273.869 192.55 273.869 191.721C273.869 190.891 273.598 190.159 273.057 189.524C272.515 188.89 271.766 188.403 270.81 188.064C269.853 187.717 268.766 187.548 267.547 187.557ZM283.213 199.82H281.08L280.902 186.617H283.391L283.213 199.82ZM282.146 205.152C281.85 205.152 281.575 205.076 281.321 204.924C281.076 204.771 280.877 204.573 280.725 204.327C280.581 204.073 280.513 203.798 280.521 203.502C280.513 203.214 280.581 202.943 280.725 202.689C280.877 202.436 281.076 202.237 281.321 202.093C281.575 201.949 281.85 201.877 282.146 201.877C282.443 201.877 282.714 201.949 282.959 202.093C283.213 202.237 283.412 202.436 283.556 202.689C283.7 202.943 283.771 203.214 283.771 203.502C283.771 203.798 283.7 204.073 283.556 204.327C283.412 204.573 283.213 204.771 282.959 204.924C282.714 205.076 282.443 205.152 282.146 205.152Z" fill="#0E0E0E"/>
<defs>
<filter id="filter0_b_624_39" x="-49.0068" y="-49.5482" width="659.359" height="357.06" filterUnits="userSpaceOnUse" color-interpolation-filters="sRGB">
<feFlood flood-opacity="0" result="BackgroundImageFix"/>
<feGaussianBlur in="BackgroundImageFix" stdDeviation="24.948"/>
<feComposite in2="SourceAlpha" operator="in" result="effect1_backgroundBlur_624_39"/>
<feBlend mode="normal" in="SourceGraphic" in2="effect1_backgroundBlur_624_39" result="shape"/>
</filter>
</defs>
</svg>