<svg width="233" height="267" viewBox="0 0 233 267" fill="none" xmlns="http://www.w3.org/2000/svg">
<g filter="url(#filter0_d_817_234)">
<g filter="url(#filter1_df_817_234)">
<path d="M202.257 157.163C202.924 169.054 188.602 179.528 170.268 180.556C151.934 181.584 136.53 172.779 135.863 160.888C135.196 148.997 149.518 138.523 167.853 137.495C186.187 136.467 201.59 145.273 202.257 157.163Z" fill="url(#paint0_linear_817_234)"/>
</g>
<g filter="url(#filter2_df_817_234)">
<path d="M159.118 198.328C178.137 154.047 150.796 128.093 116.188 113.228C84.3914 99.5709 49.7081 104.14 35.4592 144.738C23.2709 179.464 64.5808 229.663 75.3285 241.915C76.8665 243.669 79.1701 244.438 81.4466 243.931C95.5471 240.789 146.56 227.564 159.118 198.328Z" fill="url(#paint1_linear_817_234)"/>
</g>
<g filter="url(#filter3_df_817_234)">
<path d="M20.6722 90.6812C20.6722 144.54 63.9434 159.131 110.029 159.131C152.371 159.131 189.157 139.143 185.572 91.1705C182.443 49.2969 108.904 15.45 92.7865 8.51967C90.8068 7.66843 88.61 7.87483 86.8048 9.05163C73.7422 17.5669 20.6722 54.3949 20.6722 90.6812Z" fill="url(#paint2_linear_817_234)"/>
</g>
<g filter="url(#filter4_dif_817_234)">
<path d="M43.4818 103.704C43.4818 128.269 71.1569 148.183 105.296 148.183C139.435 148.183 167.11 128.269 167.11 103.704C167.11 79.1389 139.435 59.2251 105.296 59.2251C71.1569 59.2251 43.4818 79.1389 43.4818 103.704Z" fill="url(#paint3_linear_817_234)"/>
</g>
<g filter="url(#filter5_f_817_234)">
<path d="M140.612 104.887C135 104.887 130.45 108.022 130.45 111.888C130.45 115.754 135 118.888 140.612 118.888C146.224 118.888 150.774 115.754 150.774 111.888C150.774 108.022 146.224 104.887 140.612 104.887Z" fill="url(#paint4_linear_817_234)"/>
</g>
<g filter="url(#filter6_f_817_234)">
<path d="M78.7386 104.887C84.3507 104.887 88.9003 108.022 88.9003 111.888C88.9003 115.754 84.3507 118.888 78.7386 118.888C73.1264 118.888 68.5769 115.754 68.5769 111.888C68.5769 108.022 73.1264 104.887 78.7386 104.887Z" fill="url(#paint5_linear_817_234)"/>
</g>
<g filter="url(#filter7_f_817_234)">
<path d="M122.773 98.5646C122.773 103.803 126.412 108.049 130.902 108.049C135.392 108.049 139.031 103.803 139.031 98.5646C139.031 93.3266 135.392 89.0803 130.902 89.0803C126.412 89.0803 122.773 93.3266 122.773 98.5646Z" fill="#5379C2"/>
</g>
<g filter="url(#filter8_f_817_234)">
<path d="M127.289 103.045C127.289 105.104 129.892 105.339 130.902 105.339C131.912 105.339 134.515 105.104 134.515 103.045C134.515 101.847 132.897 103.619 130.902 103.619C128.906 103.619 127.289 101.847 127.289 103.045Z" fill="#C4E4C9"/>
</g>
<g filter="url(#filter9_f_817_234)">
<path d="M127.289 94.9514C127.289 96.9468 128.704 98.5645 130.45 98.5645C132.196 98.5645 133.612 96.9468 133.612 94.9514C133.612 92.956 132.196 91.3384 130.45 91.3384C128.704 91.3384 127.289 92.956 127.289 94.9514Z" fill="#F6F6F6"/>
</g>
<g filter="url(#filter10_f_817_234)">
<path d="M79.8678 98.5646C79.8678 103.803 83.5074 108.049 87.9971 108.049C92.4868 108.049 96.1265 103.803 96.1265 98.5646C96.1265 93.3266 92.4868 89.0803 87.9971 89.0803C83.5074 89.0803 79.8678 93.3266 79.8678 98.5646Z" fill="#5379C2"/>
</g>
<g filter="url(#filter11_f_817_234)">
<path d="M84.384 103.045C84.384 105.104 86.987 105.339 87.9971 105.339C89.0071 105.339 91.6101 105.104 91.6101 103.045C91.6101 101.847 89.9925 103.619 87.9971 103.619C86.0016 103.619 84.384 101.847 84.384 103.045Z" fill="#C4E4C9"/>
</g>
<g filter="url(#filter12_f_817_234)">
<path d="M84.8403 94.9514C84.8403 96.9468 86.2557 98.5645 88.0017 98.5645C89.7477 98.5645 91.1631 96.9468 91.1631 94.9514C91.1631 92.956 89.7477 91.3384 88.0017 91.3384C86.2557 91.3384 84.8403 92.956 84.8403 94.9514Z" fill="#F6F6F6"/>
</g>
<g filter="url(#filter13_f_817_234)">
<path fill-rule="evenodd" clip-rule="evenodd" d="M130.67 84.824C130.04 84.824 129.53 85.2779 129.53 85.8377L129.53 89.8928C129.53 90.4527 130.04 90.9065 130.67 90.9065C131.3 90.9065 131.811 90.4527 131.811 89.8928L131.811 85.8377C131.811 85.2779 131.3 84.824 130.67 84.824Z" fill="#547AC3"/>
</g>
<g filter="url(#filter14_f_817_234)">
<path fill-rule="evenodd" clip-rule="evenodd" d="M88.0921 84.824C87.4623 84.824 86.9517 85.2779 86.9517 85.8377L86.9517 89.8928C86.9517 90.4527 87.4623 90.9065 88.0921 90.9065C88.722 90.9065 89.2326 90.4527 89.2326 89.8928L89.2326 85.8377C89.2326 85.2779 88.722 84.824 88.0921 84.824Z" fill="#547AC3"/>
</g>
<g filter="url(#filter15_df_817_234)">
<path d="M42.7628 133.377C30.9257 132.064 19.689 145.796 17.6649 164.047C15.6409 182.298 23.5959 198.158 35.433 199.47C47.2701 200.783 58.5068 187.052 60.5308 168.801C62.5549 150.549 54.5998 134.69 42.7628 133.377Z" fill="url(#paint6_linear_817_234)"/>
</g>
<g filter="url(#filter16_df_817_234)">
<g filter="url(#filter17_f_817_234)">
<path d="M117.86 157.143C114.906 159.004 115.074 163.366 118.163 164.994L130.351 171.416C133.44 173.044 137.133 170.717 136.998 167.228L136.466 153.462C136.331 149.973 132.47 147.938 129.515 149.8L117.86 157.143Z" fill="#FFC634"/>
</g>
<g filter="url(#filter18_f_817_234)">
<path d="M111.193 157.401C114.282 159.029 114.451 163.39 111.497 165.252L99.8412 172.595C96.8869 174.456 93.0254 172.422 92.8906 168.932L92.3586 155.167C92.2237 151.678 95.9166 149.351 99.0058 150.979L111.193 157.401Z" fill="url(#paint7_linear_817_234)"/>
</g>
<g filter="url(#filter19_f_817_234)">
<rect width="29.0065" height="1.89173" rx="0.945864" transform="matrix(-0.999254 0.0386189 0.0386189 0.999254 129.437 159.365)" fill="#DDA71C"/>
</g>
<g filter="url(#filter20_df_817_234)">
<circle cx="5.35989" cy="5.35989" r="5.35989" transform="matrix(-0.999254 0.0386189 0.0386189 0.999254 119.815 155.319)" fill="#FFC634"/>
</g>
</g>
<g filter="url(#filter21_f_817_234)">
<path d="M100.08 114.36C100.08 117.939 104.432 120.84 109.8 120.84C115.168 120.84 119.52 117.939 119.52 114.36" stroke="#557BC4" stroke-width="2.4192" stroke-linecap="round"/>
</g>
<g filter="url(#filter22_df_817_234)">
<path fill-rule="evenodd" clip-rule="evenodd" d="M224.824 79.7994C226.075 80.3841 226.203 82.7529 225.111 85.0902L189.105 162.113C188.012 164.451 186.113 165.871 184.862 165.287C183.611 164.702 183.483 162.333 184.575 159.996L220.581 82.9728C221.674 80.6355 223.573 79.2147 224.824 79.7994Z" fill="url(#paint8_linear_817_234)"/>
</g>
</g>
<defs>
<filter id="filter0_d_817_234" x="0.350342" y="0" width="232.503" height="260.084" filterUnits="userSpaceOnUse" color-interpolation-filters="sRGB">
<feFlood flood-opacity="0" result="BackgroundImageFix"/>
<feColorMatrix in="SourceAlpha" type="matrix" values="0 0 0 0 0 0 0 0 0 0 0 0 0 0 0 0 0 0 127 0" result="hardAlpha"/>
<feOffset dx="-5" dy="4"/>
<feGaussianBlur stdDeviation="6"/>
<feComposite in2="hardAlpha" operator="out"/>
<feColorMatrix type="matrix" values="0 0 0 0 0 0 0 0 0 0 0 0 0 0 0 0 0 0 0.2 0"/>
<feBlend mode="normal" in2="BackgroundImageFix" result="effect1_dropShadow_817_234"/>
<feBlend mode="normal" in="SourceGraphic" in2="effect1_dropShadow_817_234" result="shape"/>
</filter>
<filter id="filter1_df_817_234" x="134.32" y="136.045" width="69.4802" height="47.6342" filterUnits="userSpaceOnUse" color-interpolation-filters="sRGB">
<feFlood flood-opacity="0" result="BackgroundImageFix"/>
<feColorMatrix in="SourceAlpha" type="matrix" values="0 0 0 0 0 0 0 0 0 0 0 0 0 0 0 0 0 0 127 0" result="hardAlpha"/>
<feOffset dy="1.52064"/>
<feGaussianBlur stdDeviation="0.76032"/>
<feComposite in2="hardAlpha" operator="out"/>
<feColorMatrix type="matrix" values="0 0 0 0 0 0 0 0 0 0 0 0 0 0 0 0 0 0 0.25 0"/>
<feBlend mode="normal" in2="BackgroundImageFix" result="effect1_dropShadow_817_234"/>
<feBlend mode="normal" in="SourceGraphic" in2="effect1_dropShadow_817_234" result="shape"/>
<feGaussianBlur stdDeviation="0.684288" result="effect2_foregroundBlur_817_234"/>
</filter>
<filter id="filter2_df_817_234" x="28.67" y="103.561" width="141.253" height="146.91" filterUnits="userSpaceOnUse" color-interpolation-filters="sRGB">
<feFlood flood-opacity="0" result="BackgroundImageFix"/>
<feColorMatrix in="SourceAlpha" type="matrix" values="0 0 0 0 0 0 0 0 0 0 0 0 0 0 0 0 0 0 127 0" result="hardAlpha"/>
<feOffset dy="1.82477"/>
<feGaussianBlur stdDeviation="2.28096"/>
<feComposite in2="hardAlpha" operator="out"/>
<feColorMatrix type="matrix" values="0 0 0 0 0 0 0 0 0 0 0 0 0 0 0 0 0 0 0.25 0"/>
<feBlend mode="normal" in2="BackgroundImageFix" result="effect1_dropShadow_817_234"/>
<feBlend mode="normal" in="SourceGraphic" in2="effect1_dropShadow_817_234" result="shape"/>
<feGaussianBlur stdDeviation="0.912384" result="effect2_foregroundBlur_817_234"/>
</filter>
<filter id="filter3_df_817_234" x="18.8474" y="6.17523" width="168.867" height="155.997" filterUnits="userSpaceOnUse" color-interpolation-filters="sRGB">
<feFlood flood-opacity="0" result="BackgroundImageFix"/>
<feColorMatrix in="SourceAlpha" type="matrix" values="0 0 0 0 0 0 0 0 0 0 0 0 0 0 0 0 0 0 127 0" result="hardAlpha"/>
<feOffset dx="0.38016" dy="1.52064"/>
<feGaussianBlur stdDeviation="0.76032"/>
<feComposite in2="hardAlpha" operator="out"/>
<feColorMatrix type="matrix" values="0 0 0 0 0 0 0 0 0 0 0 0 0 0 0 0 0 0 0.25 0"/>
<feBlend mode="normal" in2="BackgroundImageFix" result="effect1_dropShadow_817_234"/>
<feBlend mode="normal" in="SourceGraphic" in2="effect1_dropShadow_817_234" result="shape"/>
<feGaussianBlur stdDeviation="0.912384" result="effect2_foregroundBlur_817_234"/>
</filter>
<filter id="filter4_dif_817_234" x="38.92" y="56.4879" width="132.752" height="98.0814" filterUnits="userSpaceOnUse" color-interpolation-filters="sRGB">
<feFlood flood-opacity="0" result="BackgroundImageFix"/>
<feColorMatrix in="SourceAlpha" type="matrix" values="0 0 0 0 0 0 0 0 0 0 0 0 0 0 0 0 0 0 127 0" result="hardAlpha"/>
<feOffset dy="1.82477"/>
<feGaussianBlur stdDeviation="2.28096"/>
<feComposite in2="hardAlpha" operator="out"/>
<feColorMatrix type="matrix" values="0 0 0 0 0 0 0 0 0 0 0 0 0 0 0 0 0 0 0.1 0"/>
<feBlend mode="normal" in2="BackgroundImageFix" result="effect1_dropShadow_817_234"/>
<feBlend mode="normal" in="SourceGraphic" in2="effect1_dropShadow_817_234" result="shape"/>
<feColorMatrix in="SourceAlpha" type="matrix" values="0 0 0 0 0 0 0 0 0 0 0 0 0 0 0 0 0 0 127 0" result="hardAlpha"/>
<feOffset dy="1.82477"/>
<feGaussianBlur stdDeviation="6.84288"/>
<feComposite in2="hardAlpha" operator="arithmetic" k2="-1" k3="1"/>
<feColorMatrix type="matrix" values="0 0 0 0 0 0 0 0 0 0 0 0 0 0 0 0 0 0 0.2 0"/>
<feBlend mode="normal" in2="shape" result="effect2_innerShadow_817_234"/>
<feGaussianBlur stdDeviation="0.228096" result="effect3_foregroundBlur_817_234"/>
</filter>
<filter id="filter5_f_817_234" x="128.192" y="102.629" width="24.8395" height="18.5168" filterUnits="userSpaceOnUse" color-interpolation-filters="sRGB">
<feFlood flood-opacity="0" result="BackgroundImageFix"/>
<feBlend mode="normal" in="SourceGraphic" in2="BackgroundImageFix" result="shape"/>
<feGaussianBlur stdDeviation="1.12908" result="effect1_foregroundBlur_817_234"/>
</filter>
<filter id="filter6_f_817_234" x="66.3188" y="102.629" width="24.8395" height="18.5168" filterUnits="userSpaceOnUse" color-interpolation-filters="sRGB">
<feFlood flood-opacity="0" result="BackgroundImageFix"/>
<feBlend mode="normal" in="SourceGraphic" in2="BackgroundImageFix" result="shape"/>
<feGaussianBlur stdDeviation="1.12908" result="effect1_foregroundBlur_817_234"/>
</filter>
<filter id="filter7_f_817_234" x="121.869" y="88.1771" width="18.0653" height="20.775" filterUnits="userSpaceOnUse" color-interpolation-filters="sRGB">
<feFlood flood-opacity="0" result="BackgroundImageFix"/>
<feBlend mode="normal" in="SourceGraphic" in2="BackgroundImageFix" result="shape"/>
<feGaussianBlur stdDeviation="0.45163" result="effect1_foregroundBlur_817_234"/>
</filter>
<filter id="filter8_f_817_234" x="125.934" y="101.274" width="9.93585" height="5.4195" filterUnits="userSpaceOnUse" color-interpolation-filters="sRGB">
<feFlood flood-opacity="0" result="BackgroundImageFix"/>
<feBlend mode="normal" in="SourceGraphic" in2="BackgroundImageFix" result="shape"/>
<feGaussianBlur stdDeviation="0.677445" result="effect1_foregroundBlur_817_234"/>
</filter>
<filter id="filter9_f_817_234" x="126.837" y="90.8867" width="7.22601" height="8.12933" filterUnits="userSpaceOnUse" color-interpolation-filters="sRGB">
<feFlood flood-opacity="0" result="BackgroundImageFix"/>
<feBlend mode="normal" in="SourceGraphic" in2="BackgroundImageFix" result="shape"/>
<feGaussianBlur stdDeviation="0.225815" result="effect1_foregroundBlur_817_234"/>
</filter>
<filter id="filter10_f_817_234" x="78.9644" y="88.1771" width="18.0653" height="20.775" filterUnits="userSpaceOnUse" color-interpolation-filters="sRGB">
<feFlood flood-opacity="0" result="BackgroundImageFix"/>
<feBlend mode="normal" in="SourceGraphic" in2="BackgroundImageFix" result="shape"/>
<feGaussianBlur stdDeviation="0.45163" result="effect1_foregroundBlur_817_234"/>
</filter>
<filter id="filter11_f_817_234" x="83.0291" y="101.274" width="9.93585" height="5.4195" filterUnits="userSpaceOnUse" color-interpolation-filters="sRGB">
<feFlood flood-opacity="0" result="BackgroundImageFix"/>
<feBlend mode="normal" in="SourceGraphic" in2="BackgroundImageFix" result="shape"/>
<feGaussianBlur stdDeviation="0.677445" result="effect1_foregroundBlur_817_234"/>
</filter>
<filter id="filter12_f_817_234" x="84.3887" y="90.8867" width="7.22601" height="8.12933" filterUnits="userSpaceOnUse" color-interpolation-filters="sRGB">
<feFlood flood-opacity="0" result="BackgroundImageFix"/>
<feBlend mode="normal" in="SourceGraphic" in2="BackgroundImageFix" result="shape"/>
<feGaussianBlur stdDeviation="0.225815" result="effect1_foregroundBlur_817_234"/>
</filter>
<filter id="filter13_f_817_234" x="128.738" y="84.032" width="3.86501" height="7.66652" filterUnits="userSpaceOnUse" color-interpolation-filters="sRGB">
<feFlood flood-opacity="0" result="BackgroundImageFix"/>
<feBlend mode="normal" in="SourceGraphic" in2="BackgroundImageFix" result="shape"/>
<feGaussianBlur stdDeviation="0.396" result="effect1_foregroundBlur_817_234"/>
</filter>
<filter id="filter14_f_817_234" x="86.1597" y="84.032" width="3.86501" height="7.66652" filterUnits="userSpaceOnUse" color-interpolation-filters="sRGB">
<feFlood flood-opacity="0" result="BackgroundImageFix"/>
<feBlend mode="normal" in="SourceGraphic" in2="BackgroundImageFix" result="shape"/>
<feGaussianBlur stdDeviation="0.396" result="effect1_foregroundBlur_817_234"/>
</filter>
<filter id="filter15_df_817_234" x="12.7884" y="130.553" width="52.619" height="75.3907" filterUnits="userSpaceOnUse" color-interpolation-filters="sRGB">
<feFlood flood-opacity="0" result="BackgroundImageFix"/>
<feColorMatrix in="SourceAlpha" type="matrix" values="0 0 0 0 0 0 0 0 0 0 0 0 0 0 0 0 0 0 127 0" result="hardAlpha"/>
<feOffset dy="1.82477"/>
<feGaussianBlur stdDeviation="2.28096"/>
<feComposite in2="hardAlpha" operator="out"/>
<feColorMatrix type="matrix" values="0 0 0 0 0 0 0 0 0 0 0 0 0 0 0 0 0 0 0.2 0"/>
<feBlend mode="normal" in2="BackgroundImageFix" result="effect1_dropShadow_817_234"/>
<feBlend mode="normal" in="SourceGraphic" in2="effect1_dropShadow_817_234" result="shape"/>
<feGaussianBlur stdDeviation="0.57024" result="effect2_foregroundBlur_817_234"/>
</filter>
<filter id="filter16_df_817_234" x="88.386" y="147.961" width="51.4505" height="31.0088" filterUnits="userSpaceOnUse" color-interpolation-filters="sRGB">
<feFlood flood-opacity="0" result="BackgroundImageFix"/>
<feColorMatrix in="SourceAlpha" type="matrix" values="0 0 0 0 0 0 0 0 0 0 0 0 0 0 0 0 0 0 127 0" result="hardAlpha"/>
<feOffset dx="-0.567" dy="2.268"/>
<feGaussianBlur stdDeviation="1.701"/>
<feComposite in2="hardAlpha" operator="out"/>
<feColorMatrix type="matrix" values="0 0 0 0 0 0 0 0 0 0 0 0 0 0 0 0 0 0 0.25 0"/>
<feBlend mode="normal" in2="BackgroundImageFix" result="effect1_dropShadow_817_234"/>
<feBlend mode="normal" in="SourceGraphic" in2="effect1_dropShadow_817_234" result="shape"/>
<feGaussianBlur stdDeviation="0.567" result="effect2_foregroundBlur_817_234"/>
</filter>
<filter id="filter17_f_817_234" x="115.175" y="148.528" width="22.3935" height="23.9848" filterUnits="userSpaceOnUse" color-interpolation-filters="sRGB">
<feFlood flood-opacity="0" result="BackgroundImageFix"/>
<feBlend mode="normal" in="SourceGraphic" in2="BackgroundImageFix" result="shape"/>
<feGaussianBlur stdDeviation="0.2835" result="effect1_foregroundBlur_817_234"/>
</filter>
<filter id="filter18_f_817_234" x="91.788" y="149.882" width="22.3938" height="23.9851" filterUnits="userSpaceOnUse" color-interpolation-filters="sRGB">
<feFlood flood-opacity="0" result="BackgroundImageFix"/>
<feBlend mode="normal" in="SourceGraphic" in2="BackgroundImageFix" result="shape"/>
<feGaussianBlur stdDeviation="0.2835" result="effect1_foregroundBlur_817_234"/>
</filter>
<filter id="filter19_f_817_234" x="99.921" y="158.834" width="30.1203" height="4.07272" filterUnits="userSpaceOnUse" color-interpolation-filters="sRGB">
<feFlood flood-opacity="0" result="BackgroundImageFix"/>
<feBlend mode="normal" in="SourceGraphic" in2="BackgroundImageFix" result="shape"/>
<feGaussianBlur stdDeviation="0.2835" result="effect1_foregroundBlur_817_234"/>
</filter>
<filter id="filter20_df_817_234" x="106.471" y="153.821" width="16.39" height="16.39" filterUnits="userSpaceOnUse" color-interpolation-filters="sRGB">
<feFlood flood-opacity="0" result="BackgroundImageFix"/>
<feColorMatrix in="SourceAlpha" type="matrix" values="0 0 0 0 0 0 0 0 0 0 0 0 0 0 0 0 0 0 127 0" result="hardAlpha"/>
<feOffset dy="1.134"/>
<feGaussianBlur stdDeviation="1.4175"/>
<feComposite in2="hardAlpha" operator="out"/>
<feColorMatrix type="matrix" values="0 0 0 0 0 0 0 0 0 0 0 0 0 0 0 0 0 0 0.3 0"/>
<feBlend mode="normal" in2="BackgroundImageFix" result="effect1_dropShadow_817_234"/>
<feBlend mode="normal" in="SourceGraphic" in2="effect1_dropShadow_817_234" result="shape"/>
<feGaussianBlur stdDeviation="0.2835" result="effect2_foregroundBlur_817_234"/>
</filter>
<filter id="filter21_f_817_234" x="98.1504" y="112.43" width="23.2994" height="10.3394" filterUnits="userSpaceOnUse" color-interpolation-filters="sRGB">
<feFlood flood-opacity="0" result="BackgroundImageFix"/>
<feBlend mode="normal" in="SourceGraphic" in2="BackgroundImageFix" result="shape"/>
<feGaussianBlur stdDeviation="0.36" result="effect1_foregroundBlur_817_234"/>
</filter>
<filter id="filter22_df_817_234" x="179.833" y="73.668" width="50.0203" height="93.7502" filterUnits="userSpaceOnUse" color-interpolation-filters="sRGB">
<feFlood flood-opacity="0" result="BackgroundImageFix"/>
<feColorMatrix in="SourceAlpha" type="matrix" values="0 0 0 0 0 0 0 0 0 0 0 0 0 0 0 0 0 0 127 0" result="hardAlpha"/>
<feOffset dy="-2"/>
<feGaussianBlur stdDeviation="2"/>
<feComposite in2="hardAlpha" operator="out"/>
<feColorMatrix type="matrix" values="0 0 0 0 0 0 0 0 0 0 0 0 0 0 0 0 0 0 0.25 0"/>
<feBlend mode="normal" in2="BackgroundImageFix" result="effect1_dropShadow_817_234"/>
<feBlend mode="normal" in="SourceGraphic" in2="effect1_dropShadow_817_234" result="shape"/>
<feGaussianBlur stdDeviation="0.5" result="effect2_foregroundBlur_817_234"/>
</filter>
<linearGradient id="paint0_linear_817_234" x1="182.434" y1="139.382" x2="154.902" y2="180.121" gradientUnits="userSpaceOnUse">
<stop stop-color="#E3FEE8"/>
<stop offset="1" stop-color="#9BC7A3"/>
</linearGradient>
<linearGradient id="paint1_linear_817_234" x1="122.313" y1="140.843" x2="-49.6917" y2="231.513" gradientUnits="userSpaceOnUse">
<stop stop-color="#D8F5DD"/>
<stop offset="1" stop-color="#709C78"/>
</linearGradient>
<linearGradient id="paint2_linear_817_234" x1="131.004" y1="12.0164" x2="44.226" y2="226.072" gradientUnits="userSpaceOnUse">
<stop stop-color="#D8F5DD"/>
<stop offset="1" stop-color="#709C78"/>
</linearGradient>
<linearGradient id="paint3_linear_817_234" x1="105.296" y1="59.2251" x2="105.296" y2="250.631" gradientUnits="userSpaceOnUse">
<stop stop-color="#F6F6F6"/>
<stop offset="1" stop-color="#5379C2"/>
</linearGradient>
<linearGradient id="paint4_linear_817_234" x1="135.734" y1="106.887" x2="144.63" y2="119.477" gradientUnits="userSpaceOnUse">
<stop stop-color="#FFDEDE"/>
<stop offset="1" stop-color="#FFDEDE" stop-opacity="0.8"/>
</linearGradient>
<linearGradient id="paint5_linear_817_234" x1="83.6162" y1="106.887" x2="74.7207" y2="119.477" gradientUnits="userSpaceOnUse">
<stop stop-color="#FFDEDE"/>
<stop offset="1" stop-color="#FFDEDE" stop-opacity="0.8"/>
</linearGradient>
<linearGradient id="paint6_linear_817_234" x1="63.4789" y1="172.907" x2="-0.770619" y2="162.277" gradientUnits="userSpaceOnUse">
<stop stop-color="#A9CDAF"/>
<stop offset="0.512719" stop-color="#D9F6DE"/>
<stop offset="1" stop-color="#ACCFB2"/>
</linearGradient>
<linearGradient id="paint7_linear_817_234" x1="118.144" y1="161.063" x2="84.1181" y2="162.378" gradientUnits="userSpaceOnUse">
<stop stop-color="#FFC634"/>
<stop offset="1" stop-color="#FFC634"/>
</linearGradient>
<linearGradient id="paint8_linear_817_234" x1="205" y1="116" x2="210.5" y2="118.5" gradientUnits="userSpaceOnUse">
<stop stop-color="#FFC634"/>
<stop offset="0.5" stop-color="#FFE090"/>
<stop offset="1" stop-color="#FFC634"/>
</linearGradient>
</defs>
</svg>
