<svg width="214" height="620" viewBox="0 0 214 620" fill="none" xmlns="http://www.w3.org/2000/svg">
<g filter="url(#filter0_bd_347_1043)">
<rect x="4" width="206" height="612" rx="103" fill="url(#paint0_linear_347_1043)" shape-rendering="crispEdges"/>
</g>
<mask id="path-2-outside-1_347_1043" maskUnits="userSpaceOnUse" x="63" y="62" width="88" height="25" fill="black">
<rect fill="white" x="63" y="62" width="88" height="25"/>
<path d="M68.0977 67.1328H71.2148V64.7656H74.9414V75.0312H64.3008V64.7656H68.0977V67.1328ZM71.2148 72.0547V70.0039H68.0977V72.0547H71.2148ZM78.9492 71.4102H74.1328V68.3516H78.9492V71.4102ZM81.9375 75.5469H78.1992V63.6406H81.9375V75.5469ZM70.8867 77.9141H78.1992V76.332H81.9375V85.0625H67.1836V76.332H70.8867V77.9141ZM78.1992 82.0742V80.7617H70.8867V82.0742H78.1992ZM101.578 79.332H97.8047V63.6875H101.578V79.332ZM104.285 72.7344H100.535V69.6641H104.285V72.7344ZM102.211 85.0273H87.1992V82.0273H102.211V85.0273ZM90.9727 83.4219H87.1992V77.668H90.9727V83.4219ZM90.3164 64.9648C91.4258 64.9648 92.4453 65.207 93.375 65.6914C94.3047 66.168 95.0352 66.8359 95.5664 67.6953C96.1055 68.5547 96.375 69.5156 96.375 70.5781C96.375 71.6328 96.1055 72.5898 95.5664 73.4492C95.0352 74.3086 94.3047 74.9844 93.375 75.4766C92.4453 75.9609 91.4258 76.2031 90.3164 76.2031C89.1992 76.2031 88.1719 75.9609 87.2344 75.4766C86.3047 74.9844 85.5664 74.3086 85.0195 73.4492C84.4805 72.5898 84.2109 71.6328 84.2109 70.5781C84.2109 69.5156 84.4805 68.5547 85.0195 67.6953C85.5664 66.8359 86.3047 66.168 87.2344 65.6914C88.1641 65.207 89.1914 64.9648 90.3164 64.9648ZM90.3164 68.2344C89.8633 68.2344 89.4531 68.3203 89.0859 68.4922C88.7266 68.6641 88.4375 68.9297 88.2188 69.2891C88 69.6406 87.8906 70.0703 87.8906 70.5781C87.8906 71.0781 88 71.5039 88.2188 71.8555C88.4375 72.1992 88.7266 72.4648 89.0859 72.6523C89.4531 72.832 89.8633 72.9219 90.3164 72.9219C90.7695 72.9219 91.1758 72.8359 91.5352 72.6641C91.9023 72.4844 92.1875 72.2188 92.3906 71.8672C92.6016 71.5078 92.707 71.0781 92.707 70.5781C92.707 70.0703 92.6016 69.6406 92.3906 69.2891C92.1875 68.9297 91.9023 68.6641 91.5352 68.4922C91.1758 68.3203 90.7695 68.2344 90.3164 68.2344ZM129.984 77.4688H110.203V74.5508H129.984V77.4688ZM122.273 80.4805H118.57V76.1328H122.273V80.4805ZM127.828 85.0273H112.371V82.0273H127.828V85.0273ZM116.098 83.3398H112.371V78.957H116.098V83.3398ZM116.355 66.2891H123.75V64.3438H127.477V73.4141H112.664V64.3438H116.355V66.2891ZM123.75 70.4844V69.043H116.355V70.4844H123.75ZM146.074 70.4141H142.078V67.3672H146.074V70.4141ZM138.773 66.7227C138.773 68.2305 138.566 69.625 138.152 70.9062C137.738 72.1875 137.078 73.3047 136.172 74.2578C135.266 75.2109 134.109 75.9219 132.703 76.3906L130.676 73.4023C131.902 73.0352 132.887 72.5078 133.629 71.8203C134.379 71.125 134.91 70.3477 135.223 69.4883C135.535 68.6289 135.691 67.707 135.691 66.7227V64.7891H138.773V66.7227ZM139.523 66.9688C139.516 67.8828 139.656 68.7344 139.945 69.5234C140.242 70.3047 140.734 71.0117 141.422 71.6445C142.109 72.2773 143.027 72.7656 144.176 73.1094L142.219 76.0977C140.867 75.6523 139.766 74.9805 138.914 74.082C138.07 73.1836 137.453 72.1328 137.062 70.9297C136.68 69.7266 136.492 68.4062 136.5 66.9688V64.7891H139.523V66.9688ZM149.391 85.3203H145.652V80.4102H134.309V77.4453H149.391V85.3203ZM149.391 76.6133H145.652V63.6406H149.391V76.6133Z"/>
</mask>
<path d="M68.0977 67.1328H71.2148V64.7656H74.9414V75.0312H64.3008V64.7656H68.0977V67.1328ZM71.2148 72.0547V70.0039H68.0977V72.0547H71.2148ZM78.9492 71.4102H74.1328V68.3516H78.9492V71.4102ZM81.9375 75.5469H78.1992V63.6406H81.9375V75.5469ZM70.8867 77.9141H78.1992V76.332H81.9375V85.0625H67.1836V76.332H70.8867V77.9141ZM78.1992 82.0742V80.7617H70.8867V82.0742H78.1992ZM101.578 79.332H97.8047V63.6875H101.578V79.332ZM104.285 72.7344H100.535V69.6641H104.285V72.7344ZM102.211 85.0273H87.1992V82.0273H102.211V85.0273ZM90.9727 83.4219H87.1992V77.668H90.9727V83.4219ZM90.3164 64.9648C91.4258 64.9648 92.4453 65.207 93.375 65.6914C94.3047 66.168 95.0352 66.8359 95.5664 67.6953C96.1055 68.5547 96.375 69.5156 96.375 70.5781C96.375 71.6328 96.1055 72.5898 95.5664 73.4492C95.0352 74.3086 94.3047 74.9844 93.375 75.4766C92.4453 75.9609 91.4258 76.2031 90.3164 76.2031C89.1992 76.2031 88.1719 75.9609 87.2344 75.4766C86.3047 74.9844 85.5664 74.3086 85.0195 73.4492C84.4805 72.5898 84.2109 71.6328 84.2109 70.5781C84.2109 69.5156 84.4805 68.5547 85.0195 67.6953C85.5664 66.8359 86.3047 66.168 87.2344 65.6914C88.1641 65.207 89.1914 64.9648 90.3164 64.9648ZM90.3164 68.2344C89.8633 68.2344 89.4531 68.3203 89.0859 68.4922C88.7266 68.6641 88.4375 68.9297 88.2188 69.2891C88 69.6406 87.8906 70.0703 87.8906 70.5781C87.8906 71.0781 88 71.5039 88.2188 71.8555C88.4375 72.1992 88.7266 72.4648 89.0859 72.6523C89.4531 72.832 89.8633 72.9219 90.3164 72.9219C90.7695 72.9219 91.1758 72.8359 91.5352 72.6641C91.9023 72.4844 92.1875 72.2188 92.3906 71.8672C92.6016 71.5078 92.707 71.0781 92.707 70.5781C92.707 70.0703 92.6016 69.6406 92.3906 69.2891C92.1875 68.9297 91.9023 68.6641 91.5352 68.4922C91.1758 68.3203 90.7695 68.2344 90.3164 68.2344ZM129.984 77.4688H110.203V74.5508H129.984V77.4688ZM122.273 80.4805H118.57V76.1328H122.273V80.4805ZM127.828 85.0273H112.371V82.0273H127.828V85.0273ZM116.098 83.3398H112.371V78.957H116.098V83.3398ZM116.355 66.2891H123.75V64.3438H127.477V73.4141H112.664V64.3438H116.355V66.2891ZM123.75 70.4844V69.043H116.355V70.4844H123.75ZM146.074 70.4141H142.078V67.3672H146.074V70.4141ZM138.773 66.7227C138.773 68.2305 138.566 69.625 138.152 70.9062C137.738 72.1875 137.078 73.3047 136.172 74.2578C135.266 75.2109 134.109 75.9219 132.703 76.3906L130.676 73.4023C131.902 73.0352 132.887 72.5078 133.629 71.8203C134.379 71.125 134.91 70.3477 135.223 69.4883C135.535 68.6289 135.691 67.707 135.691 66.7227V64.7891H138.773V66.7227ZM139.523 66.9688C139.516 67.8828 139.656 68.7344 139.945 69.5234C140.242 70.3047 140.734 71.0117 141.422 71.6445C142.109 72.2773 143.027 72.7656 144.176 73.1094L142.219 76.0977C140.867 75.6523 139.766 74.9805 138.914 74.082C138.07 73.1836 137.453 72.1328 137.062 70.9297C136.68 69.7266 136.492 68.4062 136.5 66.9688V64.7891H139.523V66.9688ZM149.391 85.3203H145.652V80.4102H134.309V77.4453H149.391V85.3203ZM149.391 76.6133H145.652V63.6406H149.391V76.6133Z" fill="#F6F6F6"/>
<path d="M68.0977 67.1328H67.0977V68.1328H68.0977V67.1328ZM71.2148 67.1328V68.1328H72.2148V67.1328H71.2148ZM71.2148 64.7656V63.7656H70.2148V64.7656H71.2148ZM74.9414 64.7656H75.9414V63.7656H74.9414V64.7656ZM74.9414 75.0312V76.0312H75.9414V75.0312H74.9414ZM64.3008 75.0312H63.3008V76.0312H64.3008V75.0312ZM64.3008 64.7656V63.7656H63.3008V64.7656H64.3008ZM68.0977 64.7656H69.0977V63.7656H68.0977V64.7656ZM71.2148 72.0547V73.0547H72.2148V72.0547H71.2148ZM71.2148 70.0039H72.2148V69.0039H71.2148V70.0039ZM68.0977 70.0039V69.0039H67.0977V70.0039H68.0977ZM68.0977 72.0547H67.0977V73.0547H68.0977V72.0547ZM78.9492 71.4102V72.4102H79.9492V71.4102H78.9492ZM74.1328 71.4102H73.1328V72.4102H74.1328V71.4102ZM74.1328 68.3516V67.3516H73.1328V68.3516H74.1328ZM78.9492 68.3516H79.9492V67.3516H78.9492V68.3516ZM81.9375 75.5469V76.5469H82.9375V75.5469H81.9375ZM78.1992 75.5469H77.1992V76.5469H78.1992V75.5469ZM78.1992 63.6406V62.6406H77.1992V63.6406H78.1992ZM81.9375 63.6406H82.9375V62.6406H81.9375V63.6406ZM70.8867 77.9141H69.8867V78.9141H70.8867V77.9141ZM78.1992 77.9141V78.9141H79.1992V77.9141H78.1992ZM78.1992 76.332V75.332H77.1992V76.332H78.1992ZM81.9375 76.332H82.9375V75.332H81.9375V76.332ZM81.9375 85.0625V86.0625H82.9375V85.0625H81.9375ZM67.1836 85.0625H66.1836V86.0625H67.1836V85.0625ZM67.1836 76.332V75.332H66.1836V76.332H67.1836ZM70.8867 76.332H71.8867V75.332H70.8867V76.332ZM78.1992 82.0742V83.0742H79.1992V82.0742H78.1992ZM78.1992 80.7617H79.1992V79.7617H78.1992V80.7617ZM70.8867 80.7617V79.7617H69.8867V80.7617H70.8867ZM70.8867 82.0742H69.8867V83.0742H70.8867V82.0742ZM68.0977 68.1328H71.2148V66.1328H68.0977V68.1328ZM72.2148 67.1328V64.7656H70.2148V67.1328H72.2148ZM71.2148 65.7656H74.9414V63.7656H71.2148V65.7656ZM73.9414 64.7656V75.0312H75.9414V64.7656H73.9414ZM74.9414 74.0312H64.3008V76.0312H74.9414V74.0312ZM65.3008 75.0312V64.7656H63.3008V75.0312H65.3008ZM64.3008 65.7656H68.0977V63.7656H64.3008V65.7656ZM67.0977 64.7656V67.1328H69.0977V64.7656H67.0977ZM72.2148 72.0547V70.0039H70.2148V72.0547H72.2148ZM71.2148 69.0039H68.0977V71.0039H71.2148V69.0039ZM67.0977 70.0039V72.0547H69.0977V70.0039H67.0977ZM68.0977 73.0547H71.2148V71.0547H68.0977V73.0547ZM78.9492 70.4102H74.1328V72.4102H78.9492V70.4102ZM75.1328 71.4102V68.3516H73.1328V71.4102H75.1328ZM74.1328 69.3516H78.9492V67.3516H74.1328V69.3516ZM77.9492 68.3516V71.4102H79.9492V68.3516H77.9492ZM81.9375 74.5469H78.1992V76.5469H81.9375V74.5469ZM79.1992 75.5469V63.6406H77.1992V75.5469H79.1992ZM78.1992 64.6406H81.9375V62.6406H78.1992V64.6406ZM80.9375 63.6406V75.5469H82.9375V63.6406H80.9375ZM70.8867 78.9141H78.1992V76.9141H70.8867V78.9141ZM79.1992 77.9141V76.332H77.1992V77.9141H79.1992ZM78.1992 77.332H81.9375V75.332H78.1992V77.332ZM80.9375 76.332V85.0625H82.9375V76.332H80.9375ZM81.9375 84.0625H67.1836V86.0625H81.9375V84.0625ZM68.1836 85.0625V76.332H66.1836V85.0625H68.1836ZM67.1836 77.332H70.8867V75.332H67.1836V77.332ZM69.8867 76.332V77.9141H71.8867V76.332H69.8867ZM79.1992 82.0742V80.7617H77.1992V82.0742H79.1992ZM78.1992 79.7617H70.8867V81.7617H78.1992V79.7617ZM69.8867 80.7617V82.0742H71.8867V80.7617H69.8867ZM70.8867 83.0742H78.1992V81.0742H70.8867V83.0742ZM101.578 79.332V80.332H102.578V79.332H101.578ZM97.8047 79.332H96.8047V80.332H97.8047V79.332ZM97.8047 63.6875V62.6875H96.8047V63.6875H97.8047ZM101.578 63.6875H102.578V62.6875H101.578V63.6875ZM104.285 72.7344V73.7344H105.285V72.7344H104.285ZM100.535 72.7344H99.5352V73.7344H100.535V72.7344ZM100.535 69.6641V68.6641H99.5352V69.6641H100.535ZM104.285 69.6641H105.285V68.6641H104.285V69.6641ZM102.211 85.0273V86.0273H103.211V85.0273H102.211ZM87.1992 85.0273H86.1992V86.0273H87.1992V85.0273ZM87.1992 82.0273V81.0273H86.1992V82.0273H87.1992ZM102.211 82.0273H103.211V81.0273H102.211V82.0273ZM90.9727 83.4219V84.4219H91.9727V83.4219H90.9727ZM87.1992 83.4219H86.1992V84.4219H87.1992V83.4219ZM87.1992 77.668V76.668H86.1992V77.668H87.1992ZM90.9727 77.668H91.9727V76.668H90.9727V77.668ZM93.375 65.6914L92.9129 66.5783L92.9188 66.5813L93.375 65.6914ZM95.5664 67.6953L94.7158 68.2211L94.7193 68.2267L95.5664 67.6953ZM95.5664 73.4492L94.7193 72.9178L94.7158 72.9234L95.5664 73.4492ZM93.375 75.4766L93.8371 76.3634L93.8429 76.3603L93.375 75.4766ZM87.2344 75.4766L86.7665 76.3604L86.7754 76.365L87.2344 75.4766ZM85.0195 73.4492L84.1724 73.9806L84.1759 73.9861L85.0195 73.4492ZM85.0195 67.6953L84.1759 67.1584L84.1724 67.1639L85.0195 67.6953ZM87.2344 65.6914L87.6905 66.5813L87.6964 66.5783L87.2344 65.6914ZM89.0859 68.4922L88.662 67.5865L88.6545 67.5901L89.0859 68.4922ZM88.2188 69.2891L89.0678 69.8174L89.0729 69.809L88.2188 69.2891ZM88.2188 71.8555L87.3696 72.3838L87.3751 72.3923L88.2188 71.8555ZM89.0859 72.6523L88.6234 73.5389L88.6348 73.5449L88.6464 73.5506L89.0859 72.6523ZM91.5352 72.6641L91.9666 73.5662L91.9747 73.5623L91.5352 72.6641ZM92.3906 71.8672L91.5282 71.361L91.5248 71.3669L92.3906 71.8672ZM92.3906 69.2891L91.5201 69.7811L91.5265 69.7924L91.5331 69.8036L92.3906 69.2891ZM91.5352 68.4922L91.1037 69.3944L91.1112 69.3979L91.5352 68.4922ZM101.578 78.332H97.8047V80.332H101.578V78.332ZM98.8047 79.332V63.6875H96.8047V79.332H98.8047ZM97.8047 64.6875H101.578V62.6875H97.8047V64.6875ZM100.578 63.6875V79.332H102.578V63.6875H100.578ZM104.285 71.7344H100.535V73.7344H104.285V71.7344ZM101.535 72.7344V69.6641H99.5352V72.7344H101.535ZM100.535 70.6641H104.285V68.6641H100.535V70.6641ZM103.285 69.6641V72.7344H105.285V69.6641H103.285ZM102.211 84.0273H87.1992V86.0273H102.211V84.0273ZM88.1992 85.0273V82.0273H86.1992V85.0273H88.1992ZM87.1992 83.0273H102.211V81.0273H87.1992V83.0273ZM101.211 82.0273V85.0273H103.211V82.0273H101.211ZM90.9727 82.4219H87.1992V84.4219H90.9727V82.4219ZM88.1992 83.4219V77.668H86.1992V83.4219H88.1992ZM87.1992 78.668H90.9727V76.668H87.1992V78.668ZM89.9727 77.668V83.4219H91.9727V77.668H89.9727ZM90.3164 65.9648C91.2746 65.9648 92.1342 66.1726 92.9129 66.5783L93.8371 64.8046C92.7564 64.2415 91.577 63.9648 90.3164 63.9648V65.9648ZM92.9188 66.5813C93.6921 66.9777 94.2838 67.5222 94.7158 68.2211L96.417 67.1695C95.7865 66.1496 94.9173 65.3582 93.8312 64.8015L92.9188 66.5813ZM94.7193 68.2267C95.1536 68.9191 95.375 69.6943 95.375 70.5781H97.375C97.375 69.337 97.0573 68.1903 96.4135 67.1639L94.7193 68.2267ZM95.375 70.5781C95.375 71.4527 95.1544 72.2242 94.7193 72.9178L96.4135 73.9806C97.0566 72.9555 97.375 71.813 97.375 70.5781H95.375ZM94.7158 72.9234C94.282 73.6252 93.6864 74.1802 92.9071 74.5928L93.8429 76.3603C94.9229 75.7886 95.7883 74.992 96.417 73.975L94.7158 72.9234ZM92.9129 74.5897C92.1342 74.9954 91.2746 75.2031 90.3164 75.2031V77.2031C91.577 77.2031 92.7564 76.9265 93.8371 76.3634L92.9129 74.5897ZM90.3164 75.2031C89.3493 75.2031 88.4807 74.9949 87.6934 74.5881L86.7754 76.365C87.8631 76.927 89.0491 77.2031 90.3164 77.2031V75.2031ZM87.7023 74.5928C86.9206 74.1789 86.3139 73.6206 85.8632 72.9123L84.1759 73.9861C84.8189 74.9966 85.6888 75.7898 86.7665 76.3603L87.7023 74.5928ZM85.8667 72.9178C85.4316 72.2242 85.2109 71.4527 85.2109 70.5781H83.2109C83.2109 71.813 83.5294 72.9555 84.1724 73.9806L85.8667 72.9178ZM85.2109 70.5781C85.2109 69.6943 85.4323 68.9191 85.8667 68.2267L84.1724 67.1639C83.5286 68.1903 83.2109 69.337 83.2109 70.5781H85.2109ZM85.8632 68.2322C86.3121 67.5268 86.9149 66.9789 87.6905 66.5813L86.7782 64.8015C85.6945 65.357 84.8208 66.145 84.1759 67.1584L85.8632 68.2322ZM87.6964 66.5783C88.4731 66.1736 89.3402 65.9648 90.3164 65.9648V63.9648C89.0426 63.9648 87.855 64.2405 86.7723 64.8046L87.6964 66.5783ZM90.3164 67.2344C89.7341 67.2344 89.1767 67.3456 88.662 67.5865L89.5099 69.3979C89.7295 69.2951 89.9924 69.2344 90.3164 69.2344V67.2344ZM88.6545 67.5901C88.1101 67.8504 87.6782 68.2538 87.3646 68.7691L89.0729 69.809C89.1968 69.6056 89.3431 69.4777 89.5174 69.3943L88.6545 67.5901ZM87.3697 68.7608C87.0321 69.3033 86.8906 69.9259 86.8906 70.5781H88.8906C88.8906 70.2147 88.9679 69.9779 89.0678 69.8174L87.3697 68.7608ZM86.8906 70.5781C86.8906 71.2259 87.0335 71.8435 87.3697 72.3838L89.0678 71.3272C88.9665 71.1643 88.8906 70.9304 88.8906 70.5781H86.8906ZM87.3751 72.3923C87.6875 72.8833 88.1076 73.2699 88.6234 73.5389L89.5485 71.7658C89.3455 71.6598 89.1875 71.5152 89.0624 71.3186L87.3751 72.3923ZM88.6464 73.5506C89.1647 73.8042 89.7276 73.9219 90.3164 73.9219V71.9219C89.9989 71.9219 89.7416 71.8599 89.5255 71.7541L88.6464 73.5506ZM90.3164 73.9219C90.8983 73.9219 91.4551 73.8108 91.9666 73.5662L91.1037 71.7619C90.8964 71.861 90.6408 71.9219 90.3164 71.9219V73.9219ZM91.9747 73.5623C92.5191 73.2959 92.9532 72.8923 93.2565 72.3675L91.5248 71.3669C91.4218 71.5452 91.2856 71.6729 91.0956 71.7658L91.9747 73.5623ZM93.253 72.3734C93.5706 71.8324 93.707 71.2204 93.707 70.5781H91.707C91.707 70.9358 91.6326 71.1832 91.5282 71.361L93.253 72.3734ZM93.707 70.5781C93.707 69.9321 93.5722 69.3147 93.2481 68.7746L91.5331 69.8036C91.6309 69.9666 91.707 70.2086 91.707 70.5781H93.707ZM93.2612 68.797C92.9578 68.2602 92.5182 67.8482 91.9591 67.5865L91.1112 69.3979C91.2865 69.4799 91.4172 69.5992 91.5201 69.7811L93.2612 68.797ZM91.9666 67.5901C91.4551 67.3454 90.8983 67.2344 90.3164 67.2344V69.2344C90.6408 69.2344 90.8964 69.2952 91.1037 69.3943L91.9666 67.5901ZM129.984 77.4688V78.4688H130.984V77.4688H129.984ZM110.203 77.4688H109.203V78.4688H110.203V77.4688ZM110.203 74.5508V73.5508H109.203V74.5508H110.203ZM129.984 74.5508H130.984V73.5508H129.984V74.5508ZM122.273 80.4805V81.4805H123.273V80.4805H122.273ZM118.57 80.4805H117.57V81.4805H118.57V80.4805ZM118.57 76.1328V75.1328H117.57V76.1328H118.57ZM122.273 76.1328H123.273V75.1328H122.273V76.1328ZM127.828 85.0273V86.0273H128.828V85.0273H127.828ZM112.371 85.0273H111.371V86.0273H112.371V85.0273ZM112.371 82.0273V81.0273H111.371V82.0273H112.371ZM127.828 82.0273H128.828V81.0273H127.828V82.0273ZM116.098 83.3398V84.3398H117.098V83.3398H116.098ZM112.371 83.3398H111.371V84.3398H112.371V83.3398ZM112.371 78.957V77.957H111.371V78.957H112.371ZM116.098 78.957H117.098V77.957H116.098V78.957ZM116.355 66.2891H115.355V67.2891H116.355V66.2891ZM123.75 66.2891V67.2891H124.75V66.2891H123.75ZM123.75 64.3438V63.3438H122.75V64.3438H123.75ZM127.477 64.3438H128.477V63.3438H127.477V64.3438ZM127.477 73.4141V74.4141H128.477V73.4141H127.477ZM112.664 73.4141H111.664V74.4141H112.664V73.4141ZM112.664 64.3438V63.3438H111.664V64.3438H112.664ZM116.355 64.3438H117.355V63.3438H116.355V64.3438ZM123.75 70.4844V71.4844H124.75V70.4844H123.75ZM123.75 69.043H124.75V68.043H123.75V69.043ZM116.355 69.043V68.043H115.355V69.043H116.355ZM116.355 70.4844H115.355V71.4844H116.355V70.4844ZM129.984 76.4688H110.203V78.4688H129.984V76.4688ZM111.203 77.4688V74.5508H109.203V77.4688H111.203ZM110.203 75.5508H129.984V73.5508H110.203V75.5508ZM128.984 74.5508V77.4688H130.984V74.5508H128.984ZM122.273 79.4805H118.57V81.4805H122.273V79.4805ZM119.57 80.4805V76.1328H117.57V80.4805H119.57ZM118.57 77.1328H122.273V75.1328H118.57V77.1328ZM121.273 76.1328V80.4805H123.273V76.1328H121.273ZM127.828 84.0273H112.371V86.0273H127.828V84.0273ZM113.371 85.0273V82.0273H111.371V85.0273H113.371ZM112.371 83.0273H127.828V81.0273H112.371V83.0273ZM126.828 82.0273V85.0273H128.828V82.0273H126.828ZM116.098 82.3398H112.371V84.3398H116.098V82.3398ZM113.371 83.3398V78.957H111.371V83.3398H113.371ZM112.371 79.957H116.098V77.957H112.371V79.957ZM115.098 78.957V83.3398H117.098V78.957H115.098ZM116.355 67.2891H123.75V65.2891H116.355V67.2891ZM124.75 66.2891V64.3438H122.75V66.2891H124.75ZM123.75 65.3438H127.477V63.3438H123.75V65.3438ZM126.477 64.3438V73.4141H128.477V64.3438H126.477ZM127.477 72.4141H112.664V74.4141H127.477V72.4141ZM113.664 73.4141V64.3438H111.664V73.4141H113.664ZM112.664 65.3438H116.355V63.3438H112.664V65.3438ZM115.355 64.3438V66.2891H117.355V64.3438H115.355ZM124.75 70.4844V69.043H122.75V70.4844H124.75ZM123.75 68.043H116.355V70.043H123.75V68.043ZM115.355 69.043V70.4844H117.355V69.043H115.355ZM116.355 71.4844H123.75V69.4844H116.355V71.4844ZM146.074 70.4141V71.4141H147.074V70.4141H146.074ZM142.078 70.4141H141.078V71.4141H142.078V70.4141ZM142.078 67.3672V66.3672H141.078V67.3672H142.078ZM146.074 67.3672H147.074V66.3672H146.074V67.3672ZM132.703 76.3906L131.876 76.952L132.301 77.5788L133.019 77.3393L132.703 76.3906ZM130.676 73.4023L130.389 72.4443L129.083 72.8354L129.848 73.9638L130.676 73.4023ZM133.629 71.8203L134.308 72.5539L134.309 72.5536L133.629 71.8203ZM135.691 64.7891V63.7891H134.691V64.7891H135.691ZM138.773 64.7891H139.773V63.7891H138.773V64.7891ZM139.523 66.9688L140.523 66.9773V66.9688H139.523ZM139.945 69.5234L139.006 69.8674L139.011 69.8787L139.945 69.5234ZM144.176 73.1094L145.012 73.6572L145.747 72.5358L144.463 72.1514L144.176 73.1094ZM142.219 76.0977L141.906 77.0474L142.635 77.2876L143.055 76.6455L142.219 76.0977ZM138.914 74.082L138.185 74.7666L138.188 74.77L138.914 74.082ZM137.062 70.9297L136.11 71.2329L136.111 71.2385L137.062 70.9297ZM136.5 66.9688L137.5 66.9742V66.9688H136.5ZM136.5 64.7891V63.7891H135.5V64.7891H136.5ZM139.523 64.7891H140.523V63.7891H139.523V64.7891ZM149.391 85.3203V86.3203H150.391V85.3203H149.391ZM145.652 85.3203H144.652V86.3203H145.652V85.3203ZM145.652 80.4102H146.652V79.4102H145.652V80.4102ZM134.309 80.4102H133.309V81.4102H134.309V80.4102ZM134.309 77.4453V76.4453H133.309V77.4453H134.309ZM149.391 77.4453H150.391V76.4453H149.391V77.4453ZM149.391 76.6133V77.6133H150.391V76.6133H149.391ZM145.652 76.6133H144.652V77.6133H145.652V76.6133ZM145.652 63.6406V62.6406H144.652V63.6406H145.652ZM149.391 63.6406H150.391V62.6406H149.391V63.6406ZM146.074 69.4141H142.078V71.4141H146.074V69.4141ZM143.078 70.4141V67.3672H141.078V70.4141H143.078ZM142.078 68.3672H146.074V66.3672H142.078V68.3672ZM145.074 67.3672V70.4141H147.074V67.3672H145.074ZM137.773 66.7227C137.773 68.1384 137.579 69.4279 137.201 70.5987L139.104 71.2138C139.554 69.8221 139.773 68.3225 139.773 66.7227H137.773ZM137.201 70.5987C136.832 71.7409 136.248 72.7268 135.447 73.5688L136.897 74.9469C137.909 73.8825 138.645 72.6341 139.104 71.2138L137.201 70.5987ZM135.447 73.5688C134.667 74.3888 133.658 75.0183 132.387 75.4419L133.019 77.3393C134.561 76.8254 135.864 76.0331 136.897 74.9469L135.447 73.5688ZM133.531 75.8292L131.503 72.8409L129.848 73.9638L131.876 76.952L133.531 75.8292ZM130.963 74.3603C132.298 73.9606 133.428 73.3691 134.308 72.5539L132.949 71.0867C132.345 71.6466 131.507 72.1097 130.389 72.4443L130.963 74.3603ZM134.309 72.5536C135.161 71.7633 135.789 70.8557 136.162 69.83L134.283 69.1465C134.031 69.8396 133.596 70.4867 132.949 71.087L134.309 72.5536ZM136.162 69.83C136.518 68.853 136.691 67.8146 136.691 66.7227H134.691C134.691 67.5994 134.553 68.4048 134.283 69.1465L136.162 69.83ZM136.691 66.7227V64.7891H134.691V66.7227H136.691ZM135.691 65.7891H138.773V63.7891H135.691V65.7891ZM137.773 64.7891V66.7227H139.773V64.7891H137.773ZM138.523 66.9602C138.515 67.9839 138.672 68.9559 139.006 69.8674L140.884 69.1795C140.64 68.5128 140.517 67.7817 140.523 66.9773L138.523 66.9602ZM139.011 69.8787C139.369 70.8214 139.957 71.6549 140.745 72.3803L142.099 70.9088C141.512 70.3685 141.116 69.788 140.88 69.1682L139.011 69.8787ZM140.745 72.3803C141.571 73.1407 142.635 73.692 143.889 74.0674L144.463 72.1514C143.42 71.8392 142.648 71.414 142.099 70.9088L140.745 72.3803ZM143.339 72.5615L141.382 75.5498L143.055 76.6455L145.012 73.6572L143.339 72.5615ZM142.532 75.1479C141.314 74.7465 140.362 74.1556 139.64 73.3941L138.188 74.77C139.17 75.8054 140.421 76.5581 141.906 77.0474L142.532 75.1479ZM139.643 73.3975C138.903 72.6093 138.36 71.6877 138.014 70.6209L136.111 71.2385C136.546 72.5779 137.238 73.7579 138.185 74.7666L139.643 73.3975ZM138.015 70.6265C137.668 69.5359 137.493 68.3212 137.5 66.9742L135.5 66.9633C135.492 68.4913 135.691 69.9172 136.11 71.2329L138.015 70.6265ZM137.5 66.9688V64.7891H135.5V66.9688H137.5ZM136.5 65.7891H139.523V63.7891H136.5V65.7891ZM138.523 64.7891V66.9688H140.523V64.7891H138.523ZM149.391 84.3203H145.652V86.3203H149.391V84.3203ZM146.652 85.3203V80.4102H144.652V85.3203H146.652ZM145.652 79.4102H134.309V81.4102H145.652V79.4102ZM135.309 80.4102V77.4453H133.309V80.4102H135.309ZM134.309 78.4453H149.391V76.4453H134.309V78.4453ZM148.391 77.4453V85.3203H150.391V77.4453H148.391ZM149.391 75.6133H145.652V77.6133H149.391V75.6133ZM146.652 76.6133V63.6406H144.652V76.6133H146.652ZM145.652 64.6406H149.391V62.6406H145.652V64.6406ZM148.391 63.6406V76.6133H150.391V63.6406H148.391Z" fill="black" mask="url(#path-2-outside-1_347_1043)"/>
<path d="M48.0977 159.48H46.5547V146.238H48.0977V159.48ZM47.1992 152.137H43.5469V150.867H47.1992V152.137ZM47.1992 155.75H43.5469V154.5H47.1992V155.75ZM43.5469 149.617H33.7227V148.367H43.5469V149.617ZM38.6836 150.574C39.4518 150.574 40.1354 150.711 40.7344 150.984C41.3333 151.258 41.8021 151.648 42.1406 152.156C42.4792 152.658 42.6484 153.237 42.6484 153.895C42.6484 154.546 42.4792 155.122 42.1406 155.623C41.8021 156.124 41.3333 156.515 40.7344 156.795C40.1354 157.075 39.4518 157.215 38.6836 157.215C37.9154 157.215 37.235 157.075 36.6426 156.795C36.0501 156.515 35.5846 156.124 35.2461 155.623C34.9141 155.122 34.7513 154.546 34.7578 153.895C34.7513 153.237 34.9141 152.658 35.2461 152.156C35.5846 151.648 36.0501 151.258 36.6426 150.984C37.235 150.711 37.9154 150.574 38.6836 150.574ZM38.6836 151.785C38.1953 151.792 37.7591 151.886 37.375 152.068C36.9974 152.244 36.7044 152.492 36.4961 152.811C36.2878 153.123 36.1836 153.484 36.1836 153.895C36.1836 154.305 36.2878 154.669 36.4961 154.988C36.7044 155.301 36.9974 155.545 37.375 155.721C37.7591 155.896 38.1953 155.984 38.6836 155.984C39.1719 155.984 39.6048 155.896 39.9824 155.721C40.3665 155.545 40.666 155.301 40.8809 154.988C41.0957 154.669 41.2031 154.305 41.2031 153.895C41.2031 153.484 41.0957 153.12 40.8809 152.801C40.666 152.475 40.3665 152.228 39.9824 152.059C39.6048 151.883 39.1719 151.792 38.6836 151.785ZM39.4648 149.168H37.9414V146.219H39.4648V149.168ZM48.4883 163.211H36.8672V161.922H48.4883V163.211ZM38.4102 162.547H36.8672V158.309H38.4102V162.547ZM65.9102 163.582H64.4258V146.219H65.9102V163.582ZM64.9922 154.559H61.6133V153.25H64.9922V154.559ZM62.0625 162.703H60.5977V146.59H62.0625V162.703ZM55.832 150.965C55.8385 152.345 55.6855 153.621 55.373 154.793C55.0671 155.965 54.6081 156.997 53.9961 157.889C53.3906 158.774 52.6484 159.474 51.7695 159.988L50.8125 158.816C51.6328 158.361 52.3327 157.742 52.9121 156.961C53.4915 156.18 53.9245 155.281 54.2109 154.266C54.5039 153.243 54.6471 152.143 54.6406 150.965V148.914H55.832V150.965ZM56.125 150.965C56.125 152.033 56.2715 153.038 56.5645 153.982C56.8574 154.926 57.2871 155.763 57.8535 156.492C58.4199 157.221 59.1068 157.794 59.9141 158.211L58.9961 159.402C58.1172 158.921 57.3717 158.26 56.7598 157.42C56.1543 156.58 55.6953 155.61 55.3828 154.51C55.0768 153.41 54.9271 152.228 54.9336 150.965V148.914H56.125V150.965ZM59.3477 149.578H51.2227V148.289H59.3477V149.578ZM89.1719 157.469H73.2734V156.18H89.1719V157.469ZM81.9258 163.582H80.4219V156.941H81.9258V163.582ZM81.1836 146.922C82.3945 146.922 83.4622 147.078 84.3867 147.391C85.3112 147.703 86.0273 148.149 86.5352 148.729C87.043 149.301 87.2969 149.975 87.2969 150.75C87.2969 151.512 87.043 152.179 86.5352 152.752C86.0273 153.318 85.3079 153.755 84.377 154.061C83.4525 154.367 82.388 154.52 81.1836 154.52C79.9727 154.52 78.9082 154.367 77.9902 154.061C77.0723 153.755 76.3561 153.318 75.8418 152.752C75.3275 152.179 75.0703 151.512 75.0703 150.75C75.0703 149.975 75.3275 149.301 75.8418 148.729C76.3561 148.149 77.0723 147.703 77.9902 147.391C78.9082 147.078 79.9727 146.922 81.1836 146.922ZM81.1836 148.172C80.2852 148.172 79.4941 148.276 78.8105 148.484C78.127 148.693 77.5931 148.995 77.209 149.393C76.8314 149.783 76.6458 150.236 76.6523 150.75C76.6458 151.258 76.8314 151.704 77.209 152.088C77.5931 152.472 78.127 152.768 78.8105 152.977C79.4941 153.185 80.2852 153.289 81.1836 153.289C82.082 153.289 82.873 153.185 83.5566 152.977C84.2402 152.768 84.7741 152.472 85.1582 152.088C85.5423 151.704 85.7344 151.258 85.7344 150.75C85.7344 150.236 85.5456 149.783 85.168 149.393C84.7904 148.995 84.2565 148.693 83.5664 148.484C82.8763 148.276 82.082 148.172 81.1836 148.172ZM104.914 163.621H103.391V146.219H104.914V163.621ZM93.0391 158.113C94.6146 158.12 96.0794 158.077 97.4336 157.986C98.7943 157.895 100.22 157.729 101.711 157.488L101.867 158.777C100.357 159.012 98.9115 159.174 97.5312 159.266C96.151 159.357 94.6536 159.402 93.0391 159.402H91.5938V158.113H93.0391ZM99.6406 154.012H93.1562V158.602H91.5938V152.762H98.0977V149.109H91.5547V147.84H99.6406V154.012ZM126.184 148.328H114.895V147.078H126.184V148.328ZM128.781 154.52H112.883V153.27H128.781V154.52ZM121.555 158.25H120.031V154.109H121.555V158.25ZM126.691 148.328C126.691 149.324 126.659 150.239 126.594 151.072C126.529 151.899 126.372 152.846 126.125 153.914L124.621 153.719C124.79 153.009 124.914 152.348 124.992 151.736C125.07 151.118 125.119 150.571 125.139 150.096C125.158 149.62 125.168 149.07 125.168 148.445V148.328V147.078H126.691V148.328ZM126.809 163.582H125.266V158.992H114.523V157.723H126.809V163.582ZM136.75 159.5H135.207V156.629H136.75V159.5ZM144.406 163.582H142.883V146.219H144.406V163.582ZM130.988 158.953C133.15 158.934 135.09 158.888 136.809 158.816C138.527 158.745 140.168 158.608 141.73 158.406L141.848 159.578C140.122 159.858 138.329 160.044 136.467 160.135C134.605 160.219 132.616 160.262 130.5 160.262L130.266 158.953H130.988ZM141.281 149.617H130.637V148.367H141.281V149.617ZM135.949 150.613C136.783 150.613 137.518 150.743 138.156 151.004C138.794 151.264 139.286 151.642 139.631 152.137C139.976 152.625 140.148 153.191 140.148 153.836C140.148 154.474 139.976 155.034 139.631 155.516C139.286 155.997 138.791 156.368 138.146 156.629C137.508 156.889 136.776 157.02 135.949 157.02C135.122 157.02 134.393 156.889 133.762 156.629C133.137 156.368 132.648 155.997 132.297 155.516C131.952 155.034 131.783 154.474 131.789 153.836C131.783 153.191 131.952 152.625 132.297 152.137C132.648 151.642 133.137 151.264 133.762 151.004C134.393 150.743 135.122 150.613 135.949 150.613ZM135.949 151.805C135.415 151.805 134.943 151.889 134.533 152.059C134.123 152.228 133.801 152.469 133.566 152.781C133.332 153.087 133.215 153.439 133.215 153.836C133.215 154.233 133.329 154.581 133.557 154.881C133.785 155.174 134.107 155.405 134.523 155.574C134.94 155.737 135.415 155.815 135.949 155.809C136.483 155.815 136.958 155.737 137.375 155.574C137.792 155.405 138.114 155.174 138.342 154.881C138.57 154.581 138.684 154.233 138.684 153.836C138.684 153.439 138.57 153.087 138.342 152.781C138.114 152.469 137.792 152.228 137.375 152.059C136.958 151.889 136.483 151.805 135.949 151.805ZM136.75 149.031H135.207V146.238H136.75V149.031ZM157.902 154.266H154.562V152.996H157.902V154.266ZM162.336 163.582H160.852V146.219H162.336V163.582ZM158.84 162.703H157.375V146.59H158.84V162.703ZM151.398 147.684C152.147 147.684 152.801 147.931 153.361 148.426C153.928 148.921 154.367 149.624 154.68 150.535C154.992 151.44 155.148 152.501 155.148 153.719C155.148 154.936 154.992 156.001 154.68 156.912C154.367 157.817 153.928 158.517 153.361 159.012C152.801 159.507 152.147 159.754 151.398 159.754C150.65 159.754 149.995 159.507 149.436 159.012C148.882 158.517 148.449 157.817 148.137 156.912C147.824 156.001 147.668 154.936 147.668 153.719C147.668 152.501 147.824 151.44 148.137 150.535C148.449 149.624 148.882 148.921 149.436 148.426C149.995 147.931 150.65 147.684 151.398 147.684ZM151.398 149.129C150.93 149.129 150.523 149.314 150.178 149.686C149.833 150.057 149.566 150.59 149.377 151.287C149.195 151.977 149.107 152.788 149.113 153.719C149.107 154.65 149.195 155.46 149.377 156.15C149.566 156.834 149.833 157.365 150.178 157.742C150.529 158.113 150.936 158.296 151.398 158.289C151.867 158.296 152.277 158.113 152.629 157.742C152.98 157.365 153.247 156.834 153.43 156.15C153.612 155.46 153.703 154.65 153.703 153.719C153.703 152.788 153.612 151.977 153.43 151.287C153.247 150.59 152.98 150.057 152.629 149.686C152.277 149.314 151.867 149.129 151.398 149.129ZM38.4102 171.371C39.2826 171.371 40.0605 171.625 40.7441 172.133C41.4342 172.641 41.9681 173.367 42.3457 174.311C42.7298 175.255 42.9219 176.352 42.9219 177.602C42.9219 178.865 42.7298 179.968 42.3457 180.912C41.9681 181.85 41.4342 182.576 40.7441 183.09C40.0605 183.598 39.2826 183.852 38.4102 183.852C37.5247 183.852 36.7402 183.598 36.0566 183.09C35.373 182.576 34.8392 181.85 34.4551 180.912C34.071 179.968 33.8789 178.865 33.8789 177.602C33.8789 176.352 34.071 175.255 34.4551 174.311C34.8392 173.367 35.373 172.641 36.0566 172.133C36.7402 171.625 37.5247 171.371 38.4102 171.371ZM38.4102 173.324C37.9219 173.324 37.4954 173.497 37.1309 173.842C36.7663 174.18 36.4798 174.672 36.2715 175.316C36.0632 175.961 35.959 176.723 35.959 177.602C35.959 178.493 36.0632 179.262 36.2715 179.906C36.4798 180.551 36.7663 181.042 37.1309 181.381C37.4954 181.719 37.9219 181.885 38.4102 181.879C38.8919 181.885 39.3184 181.719 39.6895 181.381C40.0671 181.042 40.3568 180.551 40.5586 179.906C40.7604 179.262 40.8613 178.493 40.8613 177.602C40.8613 176.723 40.7604 175.961 40.5586 175.316C40.3568 174.665 40.0671 174.171 39.6895 173.832C39.3184 173.493 38.8919 173.324 38.4102 173.324ZM48.3809 187.768H46.2324V170.082H48.3809V187.768ZM47.1699 178.334H42.2578V176.576H47.1699V178.334ZM66.291 187.406H53.6934V185.629H66.291V187.406ZM55.8711 186.674H53.6934V181.801H55.8711V186.674ZM65.8125 182.875H63.6836V170.102H65.8125V182.875ZM65.4902 176.576H60.9785V174.828H65.4902V176.576ZM52.0527 178.549C52.834 178.542 53.5176 178.516 54.1035 178.471C54.6895 178.419 55.2982 178.327 55.9297 178.197L56.1152 179.955C55.4967 180.092 54.9141 180.18 54.3672 180.219C53.8268 180.251 53.1693 180.268 52.3945 180.268H52.0527H51.2324V178.549H52.0527ZM55.793 173.217H53.3516V178.949H51.2324V171.459H55.793V173.217ZM57.6289 178.549C58.7292 178.542 59.5983 178.513 60.2363 178.461C60.8743 178.409 61.5059 178.308 62.1309 178.158L62.3262 179.926C61.6751 180.069 61.0273 180.163 60.3828 180.209C59.7448 180.248 58.8268 180.268 57.6289 180.268H56.6914V178.549H57.6289ZM61.6328 173.217H58.8496V178.891H56.6914V171.459H61.6328V173.217ZM75.9004 173.402H79.8457V170.99H81.9844V179.184H73.7227V170.99H75.9004V173.402ZM79.8457 177.445V175.082H75.9004V177.445H79.8457ZM86.0664 176.01H81.4668V174.213H86.0664V176.01ZM87.707 179.74H85.5391V170.082H87.707V179.74ZM78.2344 182.309H85.5391V180.502H87.6973V187.494H76.0762V180.502H78.2344V182.309ZM85.5391 185.736V183.998H78.2344V185.736H85.5391ZM104.133 182.992H101.965V170.092H104.133V182.992ZM106.604 177.055H103.488V175.258H106.604V177.055ZM104.826 187.406H92.8242V185.629H104.826V187.406ZM94.9824 186.4H92.8242V181.645H94.9824V186.4ZM95.1582 171.254C96.0501 171.254 96.8574 171.446 97.5801 171.83C98.3092 172.208 98.8789 172.735 99.2891 173.412C99.7057 174.083 99.9173 174.844 99.9238 175.697C99.9173 176.544 99.7057 177.305 99.2891 177.982C98.8789 178.653 98.3092 179.18 97.5801 179.564C96.8574 179.949 96.0501 180.141 95.1582 180.141C94.2793 180.141 93.4753 179.949 92.7461 179.564C92.0169 179.18 91.444 178.65 91.0273 177.973C90.6107 177.296 90.4023 176.537 90.4023 175.697C90.4023 174.844 90.6107 174.083 91.0273 173.412C91.444 172.735 92.0137 172.208 92.7363 171.83C93.4655 171.446 94.2728 171.254 95.1582 171.254ZM95.1582 173.158C94.6699 173.158 94.224 173.262 93.8203 173.471C93.4232 173.673 93.1074 173.969 92.873 174.359C92.6452 174.743 92.5312 175.189 92.5312 175.697C92.5312 176.199 92.6452 176.641 92.873 177.025C93.1074 177.403 93.4232 177.699 93.8203 177.914C94.224 178.129 94.6699 178.236 95.1582 178.236C95.6595 178.236 96.1087 178.132 96.5059 177.924C96.9095 177.709 97.2253 177.41 97.4531 177.025C97.6875 176.641 97.8047 176.199 97.8047 175.697C97.8047 175.189 97.6875 174.743 97.4531 174.359C97.2253 173.969 96.9095 173.673 96.5059 173.471C96.1087 173.262 95.6595 173.158 95.1582 173.158ZM123.605 178.861H107.502V177.152H123.605V178.861ZM121.682 176.02H109.543V174.291H121.682V176.02ZM121.535 172.25H111.721V175.736H109.543V170.531H121.535V172.25ZM121.584 184.516H111.545V186.322H109.396V182.953H119.436V181.732H109.387V180.082H121.584V184.516ZM122.062 187.562H109.396V185.854H122.062V187.562ZM139.465 187.768H137.268V170.082H139.465V187.768ZM129.953 171.371C130.839 171.371 131.63 171.625 132.326 172.133C133.023 172.641 133.566 173.37 133.957 174.32C134.348 175.264 134.543 176.358 134.543 177.602C134.543 178.858 134.348 179.958 133.957 180.902C133.566 181.846 133.023 182.576 132.326 183.09C131.63 183.598 130.839 183.852 129.953 183.852C129.061 183.852 128.267 183.598 127.57 183.09C126.874 182.576 126.327 181.846 125.93 180.902C125.533 179.958 125.337 178.858 125.344 177.602C125.337 176.358 125.533 175.264 125.93 174.32C126.327 173.37 126.874 172.641 127.57 172.133C128.267 171.625 129.061 171.371 129.953 171.371ZM129.953 173.324C129.452 173.324 129.009 173.493 128.625 173.832C128.247 174.171 127.954 174.665 127.746 175.316C127.544 175.961 127.443 176.723 127.443 177.602C127.443 178.493 127.544 179.262 127.746 179.906C127.954 180.551 128.247 181.042 128.625 181.381C129.009 181.719 129.452 181.885 129.953 181.879C130.448 181.885 130.884 181.719 131.262 181.381C131.639 181.042 131.932 180.551 132.141 179.906C132.349 179.262 132.453 178.493 132.453 177.602C132.453 176.716 132.349 175.954 132.141 175.316C131.932 174.672 131.639 174.18 131.262 173.842C130.884 173.497 130.448 173.324 129.953 173.324ZM155.314 172.348C155.314 173.305 155.031 174.184 154.465 174.984C153.905 175.785 153.104 176.452 152.062 176.986C151.021 177.514 149.81 177.865 148.43 178.041L147.639 176.303C148.798 176.173 149.813 175.909 150.686 175.512C151.564 175.108 152.235 174.633 152.697 174.086C153.16 173.533 153.391 172.953 153.391 172.348V171.879H155.314V172.348ZM156.33 172.348C156.33 172.953 156.564 173.533 157.033 174.086C157.502 174.639 158.173 175.115 159.045 175.512C159.924 175.909 160.946 176.173 162.111 176.303L161.301 178.041C159.914 177.865 158.7 177.514 157.658 176.986C156.617 176.452 155.812 175.788 155.246 174.994C154.68 174.193 154.393 173.311 154.387 172.348V171.879H156.33V172.348ZM161.467 172.621H148.293V170.873H161.467V172.621ZM161.096 187.406H148.82V185.629H161.096V187.406ZM150.998 186.312H148.82V182.338H150.998V186.312ZM162.932 181.146H146.838V179.389H162.932V181.146ZM155.92 180.131H153.781V176.771H155.92V180.131ZM179.436 187.719H177.346V170.082H179.436V187.719ZM178.068 178.783H174.943V176.996H178.068V178.783ZM175.549 186.889H173.488V170.385H175.549V186.889ZM169.143 174.594C169.143 176.091 169.006 177.462 168.732 178.705C168.459 179.942 168.026 181.042 167.434 182.006C166.841 182.963 166.079 183.715 165.148 184.262L163.811 182.592C164.663 182.117 165.363 181.475 165.91 180.668C166.464 179.861 166.864 178.949 167.111 177.934C167.365 176.911 167.489 175.798 167.482 174.594V172.807H169.143V174.594ZM169.592 174.594C169.598 175.688 169.729 176.71 169.982 177.66C170.243 178.604 170.643 179.451 171.184 180.199C171.73 180.948 172.427 181.54 173.273 181.977L172.014 183.637C171.07 183.129 170.292 182.426 169.68 181.527C169.074 180.629 168.628 179.594 168.342 178.422C168.062 177.25 167.922 175.974 167.922 174.594V172.807H169.592V174.594ZM172.482 173.764H164.357V172.006H172.482V173.764ZM47.4141 211.719H45.2656V194.082H47.4141V211.719ZM50.1387 202.91H46.9258V201.123H50.1387V202.91ZM43.8984 198.535H33.498V196.787H43.8984V198.535ZM38.752 199.678C39.5918 199.678 40.3503 199.857 41.0273 200.215C41.7044 200.566 42.235 201.058 42.6191 201.689C43.0033 202.321 43.1986 203.037 43.2051 203.838C43.1986 204.639 43.0033 205.355 42.6191 205.986C42.235 206.618 41.7044 207.109 41.0273 207.461C40.3503 207.812 39.5918 207.988 38.752 207.988C37.9056 207.988 37.1439 207.812 36.4668 207.461C35.7897 207.109 35.2591 206.618 34.875 205.986C34.4974 205.355 34.3086 204.639 34.3086 203.838C34.3086 203.037 34.4974 202.321 34.875 201.689C35.2591 201.058 35.7897 200.566 36.4668 200.215C37.1439 199.857 37.9056 199.678 38.752 199.678ZM38.752 201.465C38.2962 201.465 37.8893 201.562 37.5312 201.758C37.1732 201.953 36.89 202.233 36.6816 202.598C36.4798 202.956 36.3789 203.369 36.3789 203.838C36.3789 204.313 36.4798 204.73 36.6816 205.088C36.89 205.439 37.1732 205.713 37.5312 205.908C37.8893 206.104 38.2962 206.198 38.752 206.191C39.2077 206.198 39.6146 206.104 39.9727 205.908C40.3372 205.713 40.6172 205.439 40.8125 205.088C41.0143 204.73 41.1185 204.313 41.125 203.838C41.1185 203.369 41.0143 202.956 40.8125 202.598C40.6172 202.233 40.3372 201.953 39.9727 201.758C39.6146 201.562 39.2077 201.465 38.752 201.465ZM39.8262 197.49H37.668V194.336H39.8262V197.49ZM65.1777 200.791H52.9316V199.082H65.1777V200.791ZM66.9941 204.561H50.8613V202.842H66.9941V204.561ZM55.0996 199.941H52.9316V194.727H55.0996V199.941ZM65.2852 211.318H52.7852V209.561H65.2852V211.318ZM54.9727 210.059H52.7852V206.133H54.9727V210.059ZM74.377 199.082C74.377 200.417 74.1686 201.702 73.752 202.939C73.3418 204.176 72.7559 205.273 71.9941 206.23C71.2324 207.181 70.3438 207.897 69.3281 208.379L68.0684 206.67C68.9798 206.253 69.7773 205.641 70.4609 204.834C71.151 204.02 71.6816 203.115 72.0527 202.119C72.4238 201.117 72.6094 200.104 72.6094 199.082V196.758H74.377V199.082ZM74.8164 199.082C74.8164 200.072 74.9987 201.038 75.3633 201.982C75.7344 202.92 76.2617 203.766 76.9453 204.521C77.6354 205.277 78.4395 205.846 79.3574 206.23L78.1758 207.939C77.1276 207.484 76.2194 206.807 75.4512 205.908C74.6895 205.003 74.1035 203.965 73.6934 202.793C73.2897 201.621 73.0911 200.384 73.0977 199.082V196.758H74.8164V199.082ZM78.6836 197.607H68.7324V195.83H78.6836V197.607ZM82.8438 211.719H80.6465V194.082H82.8438V211.719ZM90.2266 210L95.4023 195.859H97.2578L102.434 210H100.578L96.3789 198.145H96.2617L92.0625 210H90.2266ZM99.9531 204.473V206.016H92.707V204.473H99.9531ZM106.105 210H104.348V195.859H106.105V210ZM127.414 203.613H115.422V202.363H127.414V203.613ZM129.289 209.395H113.391V208.105H129.289V209.395ZM122.043 208.633H120.539V202.91H122.043V208.633ZM127.238 196.895H116.965V202.949H115.422V195.645H127.238V196.895ZM146.555 205.469H130.656V204.18H146.555V205.469ZM139.309 211.582H137.805V204.941H139.309V211.582ZM138.566 194.922C139.777 194.922 140.845 195.078 141.77 195.391C142.694 195.703 143.41 196.149 143.918 196.729C144.426 197.301 144.68 197.975 144.68 198.75C144.68 199.512 144.426 200.179 143.918 200.752C143.41 201.318 142.691 201.755 141.76 202.061C140.835 202.367 139.771 202.52 138.566 202.52C137.355 202.52 136.291 202.367 135.373 202.061C134.455 201.755 133.739 201.318 133.225 200.752C132.71 200.179 132.453 199.512 132.453 198.75C132.453 197.975 132.71 197.301 133.225 196.729C133.739 196.149 134.455 195.703 135.373 195.391C136.291 195.078 137.355 194.922 138.566 194.922ZM138.566 196.172C137.668 196.172 136.877 196.276 136.193 196.484C135.51 196.693 134.976 196.995 134.592 197.393C134.214 197.783 134.029 198.236 134.035 198.75C134.029 199.258 134.214 199.704 134.592 200.088C134.976 200.472 135.51 200.768 136.193 200.977C136.877 201.185 137.668 201.289 138.566 201.289C139.465 201.289 140.256 201.185 140.939 200.977C141.623 200.768 142.157 200.472 142.541 200.088C142.925 199.704 143.117 199.258 143.117 198.75C143.117 198.236 142.928 197.783 142.551 197.393C142.173 196.995 141.639 196.693 140.949 196.484C140.259 196.276 139.465 196.172 138.566 196.172ZM157.004 207.227H148.977V195.938H157.004V207.227ZM150.48 205.977H155.5V197.168H150.48V205.977ZM162.277 211.621H160.734V194.219H162.277V211.621ZM47.707 228.883H46.2227V218.219H47.707V228.883ZM49.9141 224H46.8867V222.711H49.9141V224ZM35.5 222.223H37.5508V219.488H38.8398V227.477H34.2109V219.488H35.5V222.223ZM37.5508 226.227V223.473H35.5V226.227H37.5508ZM41.2617 222.223H43.3125V219.488H44.6016V227.477H39.9531V219.488H41.2617V222.223ZM43.3125 226.227V223.473H41.2617V226.227H43.3125ZM42.0039 229.195C43.2083 229.195 44.2467 229.319 45.1191 229.566C45.998 229.814 46.6719 230.178 47.1406 230.66C47.6159 231.135 47.8568 231.708 47.8633 232.379C47.8568 233.043 47.6159 233.613 47.1406 234.088C46.6719 234.563 45.998 234.924 45.1191 235.172C44.2467 235.419 43.2083 235.543 42.0039 235.543C40.793 235.543 39.7513 235.419 38.8789 235.172C38.0065 234.924 37.3359 234.563 36.8672 234.088C36.3984 233.613 36.1641 233.043 36.1641 232.379C36.1641 231.708 36.3984 231.135 36.8672 230.66C37.3359 230.178 38.0065 229.814 38.8789 229.566C39.7578 229.319 40.7995 229.195 42.0039 229.195ZM42.0039 230.387C41.1055 230.393 40.3372 230.478 39.6992 230.641C39.0612 230.797 38.5697 231.025 38.2246 231.324C37.8861 231.617 37.7201 231.969 37.7266 232.379C37.7201 232.783 37.8861 233.131 38.2246 233.424C38.5697 233.717 39.0612 233.941 39.6992 234.098C40.3438 234.254 41.112 234.332 42.0039 234.332C42.8828 234.332 43.6445 234.254 44.2891 234.098C44.9401 233.941 45.4382 233.717 45.7832 233.424C46.1348 233.131 46.3138 232.783 46.3203 232.379C46.3138 231.969 46.1348 231.617 45.7832 231.324C45.4382 231.025 44.9434 230.797 44.2988 230.641C43.6543 230.478 42.8893 230.393 42.0039 230.387ZM64.2305 220.406H52.9219V219.137H64.2305V220.406ZM66.8086 227.281H50.9883V225.992H66.8086V227.281ZM64.7383 220.582C64.7253 221.617 64.6862 222.561 64.6211 223.414C64.556 224.267 64.4062 225.25 64.1719 226.363L62.6484 226.266C62.8242 225.484 62.9512 224.752 63.0293 224.068C63.1139 223.385 63.166 222.799 63.1855 222.311C63.2051 221.822 63.2214 221.214 63.2344 220.484V220.387V219.137H64.7383V220.387V220.582ZM59.3867 229.723C59.3867 230.725 59.0872 231.627 58.4883 232.428C57.8893 233.229 57.0853 233.889 56.0762 234.41C55.0736 234.938 53.9635 235.302 52.7461 235.504L52.1602 234.312C53.2214 234.156 54.2012 233.86 55.0996 233.424C56.0046 232.988 56.724 232.451 57.2578 231.812C57.7917 231.174 58.0586 230.478 58.0586 229.723V228.883H59.3867V229.723ZM59.6016 229.723C59.6016 230.478 59.8717 231.174 60.4121 231.812C60.9525 232.451 61.6719 232.988 62.5703 233.424C63.4688 233.86 64.4453 234.156 65.5 234.312L64.9336 235.504C63.7161 235.302 62.6029 234.938 61.5938 234.41C60.5911 233.889 59.7871 233.232 59.1816 232.438C58.5762 231.637 58.2734 230.732 58.2734 229.723V228.883H59.6016V229.723ZM82.5898 235.621H81.0469V218.219H82.5898V235.621ZM73.3516 219.566C74.2109 219.566 74.9759 219.814 75.6465 220.309C76.3171 220.803 76.8411 221.51 77.2188 222.428C77.5964 223.346 77.7852 224.41 77.7852 225.621C77.7852 226.832 77.5964 227.893 77.2188 228.805C76.8411 229.716 76.3171 230.419 75.6465 230.914C74.9759 231.409 74.2109 231.656 73.3516 231.656C72.4922 231.656 71.7272 231.409 71.0566 230.914C70.3861 230.419 69.862 229.716 69.4844 228.805C69.1068 227.893 68.918 226.832 68.918 225.621C68.918 224.41 69.1068 223.346 69.4844 222.428C69.862 221.51 70.3861 220.803 71.0566 220.309C71.7272 219.814 72.4922 219.566 73.3516 219.566ZM73.3516 220.934C72.7786 220.934 72.2676 221.129 71.8184 221.52C71.3691 221.91 71.0208 222.46 70.7734 223.17C70.526 223.88 70.4023 224.697 70.4023 225.621C70.4023 226.552 70.526 227.372 70.7734 228.082C71.0208 228.785 71.3691 229.329 71.8184 229.713C72.2676 230.097 72.7786 230.289 73.3516 230.289C73.931 230.289 74.4421 230.097 74.8848 229.713C75.334 229.329 75.6823 228.785 75.9297 228.082C76.1771 227.372 76.3008 226.552 76.3008 225.621C76.3008 224.69 76.1771 223.873 75.9297 223.17C75.6823 222.46 75.334 221.91 74.8848 221.52C74.4421 221.129 73.931 220.934 73.3516 220.934ZM91.5742 231.109H90.0312V226.988H91.5742V231.109ZM90.793 219.352C91.6784 219.358 92.4727 219.534 93.1758 219.879C93.8789 220.217 94.429 220.696 94.8262 221.314C95.2233 221.933 95.4219 222.639 95.4219 223.434C95.4219 224.228 95.2233 224.931 94.8262 225.543C94.429 226.155 93.8757 226.633 93.166 226.979C92.4629 227.324 91.6719 227.496 90.793 227.496C89.8945 227.496 89.0938 227.324 88.3906 226.979C87.6875 226.633 87.1406 226.155 86.75 225.543C86.3594 224.931 86.1641 224.228 86.1641 223.434C86.1641 222.639 86.3594 221.933 86.75 221.314C87.1406 220.696 87.6875 220.217 88.3906 219.879C89.0938 219.534 89.8945 219.358 90.793 219.352ZM90.793 220.68C90.1875 220.68 89.6471 220.797 89.1719 221.031C88.7031 221.266 88.332 221.591 88.0586 222.008C87.7917 222.424 87.6615 222.9 87.668 223.434C87.6615 223.967 87.7917 224.443 88.0586 224.859C88.332 225.276 88.7031 225.602 89.1719 225.836C89.6471 226.07 90.1875 226.188 90.793 226.188C91.3854 226.188 91.916 226.07 92.3848 225.836C92.86 225.602 93.2311 225.276 93.498 224.859C93.7715 224.443 93.9115 223.967 93.918 223.434C93.9115 222.9 93.7715 222.424 93.498 222.008C93.2311 221.591 92.86 221.266 92.3848 221.031C91.916 220.797 91.3854 220.68 90.793 220.68ZM98.9766 235.582H97.4531V218.219H98.9766V235.582ZM101.809 226.715H98.5664V225.387H101.809V226.715ZM86.1836 230.523C88.2279 230.504 90.0671 230.462 91.7012 230.396C93.3418 230.331 94.888 230.204 96.3398 230.016L96.4375 231.168C95.2982 231.363 94.1003 231.51 92.8438 231.607C91.5938 231.705 90.3893 231.767 89.2305 231.793C88.0716 231.812 86.8607 231.819 85.5977 231.812L85.3438 230.523H86.1836ZM121.438 227.066H119.914V218.219H121.438V227.066ZM124.055 223.277H120.754V221.988H124.055V223.277ZM121.438 232.125H111.906V234.781H110.402V230.953H119.914V229.117H110.363V227.887H121.438V232.125ZM122.082 235.348H110.402V234.117H122.082V235.348ZM112.707 218.863C113.573 218.863 114.348 219.026 115.031 219.352C115.721 219.677 116.258 220.133 116.643 220.719C117.027 221.298 117.219 221.962 117.219 222.711C117.219 223.46 117.027 224.127 116.643 224.713C116.258 225.292 115.721 225.748 115.031 226.08C114.348 226.412 113.573 226.578 112.707 226.578C111.848 226.578 111.076 226.412 110.393 226.08C109.709 225.748 109.172 225.292 108.781 224.713C108.391 224.127 108.195 223.46 108.195 222.711C108.195 221.962 108.391 221.298 108.781 220.719C109.172 220.133 109.709 219.677 110.393 219.352C111.076 219.026 111.848 218.863 112.707 218.863ZM112.707 220.152C112.134 220.146 111.62 220.253 111.164 220.475C110.708 220.689 110.35 220.992 110.09 221.383C109.829 221.773 109.699 222.216 109.699 222.711C109.699 223.212 109.829 223.661 110.09 224.059C110.35 224.449 110.708 224.758 111.164 224.986C111.62 225.214 112.134 225.328 112.707 225.328C113.28 225.328 113.798 225.214 114.26 224.986C114.722 224.758 115.08 224.449 115.334 224.059C115.588 223.661 115.715 223.212 115.715 222.711C115.715 222.216 115.588 221.773 115.334 221.383C115.08 220.992 114.719 220.689 114.25 220.475C113.788 220.253 113.273 220.146 112.707 220.152ZM129.797 219.566C130.643 219.566 131.398 219.814 132.062 220.309C132.727 220.803 133.244 221.51 133.615 222.428C133.993 223.346 134.185 224.41 134.191 225.621C134.185 226.832 133.993 227.893 133.615 228.805C133.244 229.716 132.727 230.419 132.062 230.914C131.398 231.409 130.643 231.656 129.797 231.656C128.944 231.656 128.186 231.409 127.521 230.914C126.864 230.419 126.35 229.719 125.979 228.814C125.607 227.903 125.422 226.839 125.422 225.621C125.422 224.41 125.607 223.346 125.979 222.428C126.35 221.51 126.864 220.803 127.521 220.309C128.186 219.814 128.944 219.566 129.797 219.566ZM129.797 220.934C129.23 220.934 128.726 221.129 128.283 221.52C127.847 221.91 127.502 222.46 127.248 223.17C126.994 223.873 126.867 224.69 126.867 225.621C126.867 226.552 126.994 227.372 127.248 228.082C127.502 228.785 127.847 229.329 128.283 229.713C128.726 230.097 129.23 230.289 129.797 230.289C130.37 230.289 130.878 230.097 131.32 229.713C131.763 229.329 132.105 228.785 132.346 228.082C132.587 227.372 132.707 226.552 132.707 225.621C132.707 224.69 132.587 223.873 132.346 223.17C132.105 222.46 131.763 221.91 131.32 221.52C130.878 221.129 130.37 220.934 129.797 220.934ZM138.586 235.582H137.062V218.219H138.586V235.582ZM141.496 226.48H138.234V225.152H141.496V226.48ZM144.914 222.32H150.559V219.664H152.082V227.477H143.391V219.664H144.914V222.32ZM150.559 226.227V223.512H144.914V226.227H150.559ZM148.508 231.09H146.965V227.027H148.508V231.09ZM155.852 235.582H154.328V218.219H155.852V235.582ZM158.684 226.812H155.441V225.523H158.684V226.812ZM142.531 230.719C144.758 230.706 146.714 230.67 148.4 230.611C150.087 230.546 151.691 230.413 153.215 230.211L153.312 231.363C152.186 231.546 151.005 231.682 149.768 231.773C148.537 231.865 147.362 231.93 146.242 231.969C145.122 232.001 143.905 232.021 142.59 232.027H142.473L142.219 230.719H142.531ZM165.168 232.379H163.664V227.184H165.168V232.379ZM171.672 232.379H170.129V227.184H171.672V232.379ZM175.617 233.355H159.719V232.066H175.617V233.355ZM167.629 219.312C168.859 219.319 169.953 219.508 170.91 219.879C171.874 220.243 172.626 220.768 173.166 221.451C173.706 222.128 173.977 222.906 173.977 223.785C173.977 224.671 173.706 225.449 173.166 226.119C172.626 226.79 171.874 227.311 170.91 227.682C169.953 228.053 168.859 228.238 167.629 228.238C166.398 228.238 165.301 228.053 164.338 227.682C163.381 227.311 162.632 226.79 162.092 226.119C161.551 225.449 161.281 224.671 161.281 223.785C161.281 222.906 161.551 222.128 162.092 221.451C162.632 220.768 163.381 220.243 164.338 219.879C165.301 219.508 166.398 219.319 167.629 219.312ZM167.629 220.582C166.685 220.576 165.842 220.706 165.1 220.973C164.364 221.233 163.791 221.607 163.381 222.096C162.971 222.584 162.766 223.147 162.766 223.785C162.766 224.423 162.971 224.986 163.381 225.475C163.791 225.963 164.364 226.344 165.1 226.617C165.842 226.891 166.685 227.027 167.629 227.027C168.566 227.027 169.403 226.891 170.139 226.617C170.874 226.344 171.451 225.963 171.867 225.475C172.284 224.986 172.492 224.423 172.492 223.785C172.492 223.147 172.284 222.584 171.867 222.096C171.451 221.607 170.874 221.233 170.139 220.973C169.403 220.706 168.566 220.576 167.629 220.582ZM178.84 234.117C178.612 234.117 178.4 234.059 178.205 233.941C178.016 233.824 177.863 233.671 177.746 233.482C177.635 233.287 177.583 233.076 177.59 232.848C177.583 232.626 177.635 232.418 177.746 232.223C177.863 232.027 178.016 231.874 178.205 231.764C178.4 231.653 178.612 231.598 178.84 231.598C179.068 231.598 179.276 231.653 179.465 231.764C179.66 231.874 179.813 232.027 179.924 232.223C180.035 232.418 180.09 232.626 180.09 232.848C180.09 233.076 180.035 233.287 179.924 233.482C179.813 233.671 179.66 233.824 179.465 233.941C179.276 234.059 179.068 234.117 178.84 234.117Z" fill="#464646"/>
<defs>
<filter id="filter0_bd_347_1043" x="-76" y="-80" width="366" height="772" filterUnits="userSpaceOnUse" color-interpolation-filters="sRGB">
<feFlood flood-opacity="0" result="BackgroundImageFix"/>
<feGaussianBlur in="BackgroundImageFix" stdDeviation="40"/>
<feComposite in2="SourceAlpha" operator="in" result="effect1_backgroundBlur_347_1043"/>
<feColorMatrix in="SourceAlpha" type="matrix" values="0 0 0 0 0 0 0 0 0 0 0 0 0 0 0 0 0 0 127 0" result="hardAlpha"/>
<feOffset dy="3.6"/>
<feGaussianBlur stdDeviation="1.8"/>
<feComposite in2="hardAlpha" operator="out"/>
<feColorMatrix type="matrix" values="0 0 0 0 0 0 0 0 0 0 0 0 0 0 0 0 0 0 0.25 0"/>
<feBlend mode="normal" in2="effect1_backgroundBlur_347_1043" result="effect2_dropShadow_347_1043"/>
<feBlend mode="normal" in="SourceGraphic" in2="effect2_dropShadow_347_1043" result="shape"/>
</filter>
<linearGradient id="paint0_linear_347_1043" x1="107" y1="-45.5" x2="107" y2="612" gradientUnits="userSpaceOnUse">
<stop stop-color="#D8F5DD"/>
<stop offset="1" stop-color="#D8F5DD" stop-opacity="0"/>
</linearGradient>
</defs>
</svg>
