<svg width="249" height="267" viewBox="0 0 249 267" fill="none" xmlns="http://www.w3.org/2000/svg">
<g filter="url(#filter0_d_817_263)">
<g filter="url(#filter1_df_817_263)">
<path d="M30.8316 157.163C30.1646 169.054 44.4867 179.528 62.8209 180.556C81.1551 181.584 96.5587 172.779 97.2256 160.888C97.8926 148.997 83.5705 138.523 65.2363 137.495C46.9021 136.467 31.4986 145.273 30.8316 157.163Z" fill="url(#paint0_linear_817_263)"/>
</g>
<g filter="url(#filter2_df_817_263)">
<path d="M73.9711 198.328C54.9515 154.047 82.2931 128.093 116.901 113.228C148.697 99.5709 183.381 104.14 197.63 144.738C209.818 179.464 168.508 229.663 157.76 241.915C156.222 243.669 153.919 244.438 151.642 243.931C137.542 240.789 86.5286 227.564 73.9711 198.328Z" fill="url(#paint1_linear_817_263)"/>
</g>
<g filter="url(#filter3_df_817_263)">
<path d="M212.417 90.6812C212.417 144.54 169.145 159.131 123.06 159.131C80.7183 159.131 43.9322 139.143 47.517 91.1705C50.6461 49.2969 124.185 15.45 140.302 8.51967C142.282 7.66843 144.479 7.87483 146.284 9.05163C159.347 17.5669 212.417 54.3949 212.417 90.6812Z" fill="url(#paint2_linear_817_263)"/>
</g>
<g filter="url(#filter4_dif_817_263)">
<path d="M189.607 103.704C189.607 128.269 161.932 148.183 127.793 148.183C93.6541 148.183 65.979 128.269 65.979 103.704C65.979 79.1389 93.6541 59.2251 127.793 59.2251C161.932 59.2251 189.607 79.1389 189.607 103.704Z" fill="url(#paint3_linear_817_263)"/>
</g>
<g filter="url(#filter5_f_817_263)">
<path d="M92.4769 104.887C98.089 104.887 102.639 108.022 102.639 111.888C102.639 115.754 98.089 118.888 92.4769 118.888C86.8647 118.888 82.3152 115.754 82.3152 111.888C82.3152 108.022 86.8647 104.887 92.4769 104.887Z" fill="url(#paint4_linear_817_263)"/>
</g>
<g filter="url(#filter6_f_817_263)">
<path d="M154.35 104.887C148.738 104.887 144.188 108.022 144.188 111.888C144.188 115.754 148.738 118.888 154.35 118.888C159.962 118.888 164.512 115.754 164.512 111.888C164.512 108.022 159.962 104.887 154.35 104.887Z" fill="url(#paint5_linear_817_263)"/>
</g>
<g filter="url(#filter7_f_817_263)">
<path d="M110.316 98.5646C110.316 103.803 106.677 108.049 102.187 108.049C97.6972 108.049 94.0576 103.803 94.0576 98.5646C94.0576 93.3266 97.6972 89.0803 102.187 89.0803C106.677 89.0803 110.316 93.3266 110.316 98.5646Z" fill="#5379C2"/>
</g>
<g filter="url(#filter8_f_817_263)">
<path d="M105.8 103.045C105.8 105.104 103.197 105.339 102.187 105.339C101.177 105.339 98.574 105.104 98.574 103.045C98.574 101.847 100.192 103.619 102.187 103.619C104.182 103.619 105.8 101.847 105.8 103.045Z" fill="#C4E4C9"/>
</g>
<g filter="url(#filter9_f_817_263)">
<path d="M105.8 94.9514C105.8 96.9468 104.384 98.5645 102.638 98.5645C100.892 98.5645 99.4771 96.9468 99.4771 94.9514C99.4771 92.956 100.892 91.3384 102.638 91.3384C104.384 91.3384 105.8 92.956 105.8 94.9514Z" fill="#F6F6F6"/>
</g>
<g filter="url(#filter10_f_817_263)">
<path fill-rule="evenodd" clip-rule="evenodd" d="M102.419 84.824C103.049 84.824 103.559 85.2779 103.559 85.8377L103.559 89.8928C103.559 90.4527 103.049 90.9065 102.419 90.9065C101.789 90.9065 101.278 90.4527 101.278 89.8928L101.278 85.8377C101.278 85.2779 101.789 84.824 102.419 84.824Z" fill="#547AC3"/>
</g>
<g filter="url(#filter11_df_817_263)">
<path d="M176.432 165.291C169.014 155.974 174.646 139.149 189.011 127.711C203.377 116.273 221.036 114.553 228.454 123.87C235.873 133.187 230.241 150.012 215.876 161.451C201.51 172.889 183.851 174.608 176.432 165.291Z" fill="url(#paint6_linear_817_263)"/>
</g>
<g filter="url(#filter12_df_817_263)">
<g filter="url(#filter13_f_817_263)">
<path d="M115.229 157.143C118.183 159.004 118.015 163.366 114.926 164.994L102.738 171.416C99.649 173.044 95.9561 170.717 96.0909 167.228L96.6229 153.462C96.7578 149.973 100.619 147.938 103.574 149.8L115.229 157.143Z" fill="#FFC634"/>
</g>
<g filter="url(#filter14_f_817_263)">
<path d="M121.896 157.401C118.806 159.029 118.638 163.39 121.592 165.252L133.248 172.595C136.202 174.456 140.063 172.422 140.198 168.932L140.73 155.167C140.865 151.678 137.172 149.351 134.083 150.979L121.896 157.401Z" fill="url(#paint7_linear_817_263)"/>
</g>
<g filter="url(#filter15_f_817_263)">
<rect x="103.652" y="159.365" width="29.0065" height="1.89173" rx="0.945864" transform="rotate(2.21325 103.652 159.365)" fill="#DDA71C"/>
</g>
<g filter="url(#filter16_df_817_263)">
<circle cx="118.423" cy="160.882" r="5.35989" transform="rotate(2.21325 118.423 160.882)" fill="#FFC634"/>
</g>
</g>
<g filter="url(#filter17_df_817_263)">
<path fill-rule="evenodd" clip-rule="evenodd" d="M8.26478 79.7994C7.01398 80.3841 6.88574 82.7529 7.97835 85.0902L43.984 162.113C45.0766 164.451 46.9763 165.871 48.2271 165.287C49.4779 164.702 49.6062 162.333 48.5136 159.996L12.5079 82.9728C11.4153 80.6355 9.51557 79.2147 8.26478 79.7994Z" fill="url(#paint8_linear_817_263)"/>
</g>
<g filter="url(#filter18_f_817_263)">
<path fill-rule="evenodd" clip-rule="evenodd" d="M145.492 88C146.104 88 146.601 88.4413 146.601 88.9856L146.601 92.928C146.601 93.4723 146.104 93.9136 145.492 93.9136C144.879 93.9136 144.383 93.4723 144.383 92.928L144.383 88.9856C144.383 88.4413 144.879 88 145.492 88Z" fill="#547AC3"/>
</g>
<g filter="url(#filter19_f_817_263)">
<path d="M154.002 100.956C154.002 97.0774 150.196 93.9333 145.501 93.9333C140.806 93.9333 137 97.0774 137 100.956" stroke="#557BC4" stroke-width="2.5872" stroke-linecap="round"/>
</g>
<g filter="url(#filter20_f_817_263)">
<path d="M115.774 112.443C115.774 112.093 116.058 111.81 116.408 111.81H130.366C130.716 111.81 131 112.093 131 112.443V120.046C131 123.546 128.163 126.382 124.664 126.382H122.11C118.611 126.382 115.774 123.546 115.774 120.046V112.443Z" fill="#567CC5"/>
</g>
<g filter="url(#filter21_f_817_263)">
<path d="M119.235 113.647C119.235 113.332 119.49 113.077 119.805 113.077H126.969C127.284 113.077 127.54 113.332 127.54 113.647C127.54 114.592 126.774 115.358 125.829 115.358H120.946C120.001 115.358 119.235 114.592 119.235 113.647Z" fill="#F6F6F6"/>
</g>
</g>
<defs>
<filter id="filter0_d_817_263" x="0.23584" y="0" width="248.488" height="260.084" filterUnits="userSpaceOnUse" color-interpolation-filters="sRGB">
<feFlood flood-opacity="0" result="BackgroundImageFix"/>
<feColorMatrix in="SourceAlpha" type="matrix" values="0 0 0 0 0 0 0 0 0 0 0 0 0 0 0 0 0 0 127 0" result="hardAlpha"/>
<feOffset dx="5" dy="4"/>
<feGaussianBlur stdDeviation="6"/>
<feComposite in2="hardAlpha" operator="out"/>
<feColorMatrix type="matrix" values="0 0 0 0 0 0 0 0 0 0 0 0 0 0 0 0 0 0 0.2 0"/>
<feBlend mode="normal" in2="BackgroundImageFix" result="effect1_dropShadow_817_263"/>
<feBlend mode="normal" in="SourceGraphic" in2="effect1_dropShadow_817_263" result="shape"/>
</filter>
<filter id="filter1_df_817_263" x="29.2884" y="136.045" width="69.4802" height="47.6342" filterUnits="userSpaceOnUse" color-interpolation-filters="sRGB">
<feFlood flood-opacity="0" result="BackgroundImageFix"/>
<feColorMatrix in="SourceAlpha" type="matrix" values="0 0 0 0 0 0 0 0 0 0 0 0 0 0 0 0 0 0 127 0" result="hardAlpha"/>
<feOffset dy="1.52064"/>
<feGaussianBlur stdDeviation="0.76032"/>
<feComposite in2="hardAlpha" operator="out"/>
<feColorMatrix type="matrix" values="0 0 0 0 0 0 0 0 0 0 0 0 0 0 0 0 0 0 0.25 0"/>
<feBlend mode="normal" in2="BackgroundImageFix" result="effect1_dropShadow_817_263"/>
<feBlend mode="normal" in="SourceGraphic" in2="effect1_dropShadow_817_263" result="shape"/>
<feGaussianBlur stdDeviation="0.684288" result="effect2_foregroundBlur_817_263"/>
</filter>
<filter id="filter2_df_817_263" x="63.1664" y="103.561" width="141.253" height="146.91" filterUnits="userSpaceOnUse" color-interpolation-filters="sRGB">
<feFlood flood-opacity="0" result="BackgroundImageFix"/>
<feColorMatrix in="SourceAlpha" type="matrix" values="0 0 0 0 0 0 0 0 0 0 0 0 0 0 0 0 0 0 127 0" result="hardAlpha"/>
<feOffset dy="1.82477"/>
<feGaussianBlur stdDeviation="2.28096"/>
<feComposite in2="hardAlpha" operator="out"/>
<feColorMatrix type="matrix" values="0 0 0 0 0 0 0 0 0 0 0 0 0 0 0 0 0 0 0.25 0"/>
<feBlend mode="normal" in2="BackgroundImageFix" result="effect1_dropShadow_817_263"/>
<feBlend mode="normal" in="SourceGraphic" in2="effect1_dropShadow_817_263" result="shape"/>
<feGaussianBlur stdDeviation="0.912384" result="effect2_foregroundBlur_817_263"/>
</filter>
<filter id="filter3_df_817_263" x="45.4504" y="6.17523" width="168.867" height="155.997" filterUnits="userSpaceOnUse" color-interpolation-filters="sRGB">
<feFlood flood-opacity="0" result="BackgroundImageFix"/>
<feColorMatrix in="SourceAlpha" type="matrix" values="0 0 0 0 0 0 0 0 0 0 0 0 0 0 0 0 0 0 127 0" result="hardAlpha"/>
<feOffset dx="0.38016" dy="1.52064"/>
<feGaussianBlur stdDeviation="0.76032"/>
<feComposite in2="hardAlpha" operator="out"/>
<feColorMatrix type="matrix" values="0 0 0 0 0 0 0 0 0 0 0 0 0 0 0 0 0 0 0.25 0"/>
<feBlend mode="normal" in2="BackgroundImageFix" result="effect1_dropShadow_817_263"/>
<feBlend mode="normal" in="SourceGraphic" in2="effect1_dropShadow_817_263" result="shape"/>
<feGaussianBlur stdDeviation="0.912384" result="effect2_foregroundBlur_817_263"/>
</filter>
<filter id="filter4_dif_817_263" x="61.4171" y="56.4879" width="132.752" height="98.0814" filterUnits="userSpaceOnUse" color-interpolation-filters="sRGB">
<feFlood flood-opacity="0" result="BackgroundImageFix"/>
<feColorMatrix in="SourceAlpha" type="matrix" values="0 0 0 0 0 0 0 0 0 0 0 0 0 0 0 0 0 0 127 0" result="hardAlpha"/>
<feOffset dy="1.82477"/>
<feGaussianBlur stdDeviation="2.28096"/>
<feComposite in2="hardAlpha" operator="out"/>
<feColorMatrix type="matrix" values="0 0 0 0 0 0 0 0 0 0 0 0 0 0 0 0 0 0 0.1 0"/>
<feBlend mode="normal" in2="BackgroundImageFix" result="effect1_dropShadow_817_263"/>
<feBlend mode="normal" in="SourceGraphic" in2="effect1_dropShadow_817_263" result="shape"/>
<feColorMatrix in="SourceAlpha" type="matrix" values="0 0 0 0 0 0 0 0 0 0 0 0 0 0 0 0 0 0 127 0" result="hardAlpha"/>
<feOffset dy="1.82477"/>
<feGaussianBlur stdDeviation="6.84288"/>
<feComposite in2="hardAlpha" operator="arithmetic" k2="-1" k3="1"/>
<feColorMatrix type="matrix" values="0 0 0 0 0 0 0 0 0 0 0 0 0 0 0 0 0 0 0.2 0"/>
<feBlend mode="normal" in2="shape" result="effect2_innerShadow_817_263"/>
<feGaussianBlur stdDeviation="0.228096" result="effect3_foregroundBlur_817_263"/>
</filter>
<filter id="filter5_f_817_263" x="80.057" y="102.629" width="24.8395" height="18.5168" filterUnits="userSpaceOnUse" color-interpolation-filters="sRGB">
<feFlood flood-opacity="0" result="BackgroundImageFix"/>
<feBlend mode="normal" in="SourceGraphic" in2="BackgroundImageFix" result="shape"/>
<feGaussianBlur stdDeviation="1.12908" result="effect1_foregroundBlur_817_263"/>
</filter>
<filter id="filter6_f_817_263" x="141.93" y="102.629" width="24.8395" height="18.5168" filterUnits="userSpaceOnUse" color-interpolation-filters="sRGB">
<feFlood flood-opacity="0" result="BackgroundImageFix"/>
<feBlend mode="normal" in="SourceGraphic" in2="BackgroundImageFix" result="shape"/>
<feGaussianBlur stdDeviation="1.12908" result="effect1_foregroundBlur_817_263"/>
</filter>
<filter id="filter7_f_817_263" x="93.1544" y="88.1771" width="18.0653" height="20.775" filterUnits="userSpaceOnUse" color-interpolation-filters="sRGB">
<feFlood flood-opacity="0" result="BackgroundImageFix"/>
<feBlend mode="normal" in="SourceGraphic" in2="BackgroundImageFix" result="shape"/>
<feGaussianBlur stdDeviation="0.45163" result="effect1_foregroundBlur_817_263"/>
</filter>
<filter id="filter8_f_817_263" x="97.2191" y="101.274" width="9.93585" height="5.4195" filterUnits="userSpaceOnUse" color-interpolation-filters="sRGB">
<feFlood flood-opacity="0" result="BackgroundImageFix"/>
<feBlend mode="normal" in="SourceGraphic" in2="BackgroundImageFix" result="shape"/>
<feGaussianBlur stdDeviation="0.677445" result="effect1_foregroundBlur_817_263"/>
</filter>
<filter id="filter9_f_817_263" x="99.0254" y="90.8867" width="7.22601" height="8.12933" filterUnits="userSpaceOnUse" color-interpolation-filters="sRGB">
<feFlood flood-opacity="0" result="BackgroundImageFix"/>
<feBlend mode="normal" in="SourceGraphic" in2="BackgroundImageFix" result="shape"/>
<feGaussianBlur stdDeviation="0.225815" result="effect1_foregroundBlur_817_263"/>
</filter>
<filter id="filter10_f_817_263" x="100.486" y="84.032" width="3.86501" height="7.66652" filterUnits="userSpaceOnUse" color-interpolation-filters="sRGB">
<feFlood flood-opacity="0" result="BackgroundImageFix"/>
<feBlend mode="normal" in="SourceGraphic" in2="BackgroundImageFix" result="shape"/>
<feGaussianBlur stdDeviation="0.396" result="effect1_foregroundBlur_817_263"/>
</filter>
<filter id="filter11_df_817_263" x="168.601" y="115.131" width="67.6854" height="62.5494" filterUnits="userSpaceOnUse" color-interpolation-filters="sRGB">
<feFlood flood-opacity="0" result="BackgroundImageFix"/>
<feColorMatrix in="SourceAlpha" type="matrix" values="0 0 0 0 0 0 0 0 0 0 0 0 0 0 0 0 0 0 127 0" result="hardAlpha"/>
<feOffset dy="1.82477"/>
<feGaussianBlur stdDeviation="2.28096"/>
<feComposite in2="hardAlpha" operator="out"/>
<feColorMatrix type="matrix" values="0 0 0 0 0 0 0 0 0 0 0 0 0 0 0 0 0 0 0.2 0"/>
<feBlend mode="normal" in2="BackgroundImageFix" result="effect1_dropShadow_817_263"/>
<feBlend mode="normal" in="SourceGraphic" in2="effect1_dropShadow_817_263" result="shape"/>
<feGaussianBlur stdDeviation="0.57024" result="effect2_foregroundBlur_817_263"/>
</filter>
<filter id="filter12_df_817_263" x="92.1184" y="147.961" width="51.4505" height="31.0088" filterUnits="userSpaceOnUse" color-interpolation-filters="sRGB">
<feFlood flood-opacity="0" result="BackgroundImageFix"/>
<feColorMatrix in="SourceAlpha" type="matrix" values="0 0 0 0 0 0 0 0 0 0 0 0 0 0 0 0 0 0 127 0" result="hardAlpha"/>
<feOffset dx="-0.567" dy="2.268"/>
<feGaussianBlur stdDeviation="1.701"/>
<feComposite in2="hardAlpha" operator="out"/>
<feColorMatrix type="matrix" values="0 0 0 0 0 0 0 0 0 0 0 0 0 0 0 0 0 0 0.25 0"/>
<feBlend mode="normal" in2="BackgroundImageFix" result="effect1_dropShadow_817_263"/>
<feBlend mode="normal" in="SourceGraphic" in2="effect1_dropShadow_817_263" result="shape"/>
<feGaussianBlur stdDeviation="0.567" result="effect2_foregroundBlur_817_263"/>
</filter>
<filter id="filter13_f_817_263" x="95.5204" y="148.528" width="22.3938" height="23.9848" filterUnits="userSpaceOnUse" color-interpolation-filters="sRGB">
<feFlood flood-opacity="0" result="BackgroundImageFix"/>
<feBlend mode="normal" in="SourceGraphic" in2="BackgroundImageFix" result="shape"/>
<feGaussianBlur stdDeviation="0.2835" result="effect1_foregroundBlur_817_263"/>
</filter>
<filter id="filter14_f_817_263" x="118.907" y="149.882" width="22.3938" height="23.9851" filterUnits="userSpaceOnUse" color-interpolation-filters="sRGB">
<feFlood flood-opacity="0" result="BackgroundImageFix"/>
<feBlend mode="normal" in="SourceGraphic" in2="BackgroundImageFix" result="shape"/>
<feGaussianBlur stdDeviation="0.2835" result="effect1_foregroundBlur_817_263"/>
</filter>
<filter id="filter15_f_817_263" x="103.048" y="158.834" width="30.1206" height="4.07272" filterUnits="userSpaceOnUse" color-interpolation-filters="sRGB">
<feFlood flood-opacity="0" result="BackgroundImageFix"/>
<feBlend mode="normal" in="SourceGraphic" in2="BackgroundImageFix" result="shape"/>
<feGaussianBlur stdDeviation="0.2835" result="effect1_foregroundBlur_817_263"/>
</filter>
<filter id="filter16_df_817_263" x="110.228" y="153.821" width="16.3897" height="16.39" filterUnits="userSpaceOnUse" color-interpolation-filters="sRGB">
<feFlood flood-opacity="0" result="BackgroundImageFix"/>
<feColorMatrix in="SourceAlpha" type="matrix" values="0 0 0 0 0 0 0 0 0 0 0 0 0 0 0 0 0 0 127 0" result="hardAlpha"/>
<feOffset dy="1.134"/>
<feGaussianBlur stdDeviation="1.4175"/>
<feComposite in2="hardAlpha" operator="out"/>
<feColorMatrix type="matrix" values="0 0 0 0 0 0 0 0 0 0 0 0 0 0 0 0 0 0 0.3 0"/>
<feBlend mode="normal" in2="BackgroundImageFix" result="effect1_dropShadow_817_263"/>
<feBlend mode="normal" in="SourceGraphic" in2="effect1_dropShadow_817_263" result="shape"/>
<feGaussianBlur stdDeviation="0.2835" result="effect2_foregroundBlur_817_263"/>
</filter>
<filter id="filter17_df_817_263" x="3.23584" y="73.668" width="50.0203" height="93.7502" filterUnits="userSpaceOnUse" color-interpolation-filters="sRGB">
<feFlood flood-opacity="0" result="BackgroundImageFix"/>
<feColorMatrix in="SourceAlpha" type="matrix" values="0 0 0 0 0 0 0 0 0 0 0 0 0 0 0 0 0 0 127 0" result="hardAlpha"/>
<feOffset dy="-2"/>
<feGaussianBlur stdDeviation="2"/>
<feComposite in2="hardAlpha" operator="out"/>
<feColorMatrix type="matrix" values="0 0 0 0 0 0 0 0 0 0 0 0 0 0 0 0 0 0 0.25 0"/>
<feBlend mode="normal" in2="BackgroundImageFix" result="effect1_dropShadow_817_263"/>
<feBlend mode="normal" in="SourceGraphic" in2="effect1_dropShadow_817_263" result="shape"/>
<feGaussianBlur stdDeviation="0.5" result="effect2_foregroundBlur_817_263"/>
</filter>
<filter id="filter18_f_817_263" x="144.013" y="87.6304" width="2.95697" height="6.65277" filterUnits="userSpaceOnUse" color-interpolation-filters="sRGB">
<feFlood flood-opacity="0" result="BackgroundImageFix"/>
<feBlend mode="normal" in="SourceGraphic" in2="BackgroundImageFix" result="shape"/>
<feGaussianBlur stdDeviation="0.1848" result="effect1_foregroundBlur_817_263"/>
</filter>
<filter id="filter19_f_817_263" x="135.337" y="92.27" width="20.3281" height="10.3488" filterUnits="userSpaceOnUse" color-interpolation-filters="sRGB">
<feFlood flood-opacity="0" result="BackgroundImageFix"/>
<feBlend mode="normal" in="SourceGraphic" in2="BackgroundImageFix" result="shape"/>
<feGaussianBlur stdDeviation="0.1848" result="effect1_foregroundBlur_817_263"/>
</filter>
<filter id="filter20_f_817_263" x="115.141" y="111.176" width="16.4928" height="15.84" filterUnits="userSpaceOnUse" color-interpolation-filters="sRGB">
<feFlood flood-opacity="0" result="BackgroundImageFix"/>
<feBlend mode="normal" in="SourceGraphic" in2="BackgroundImageFix" result="shape"/>
<feGaussianBlur stdDeviation="0.3168" result="effect1_foregroundBlur_817_263"/>
</filter>
<filter id="filter21_f_817_263" x="118.906" y="112.748" width="8.9616" height="2.93792" filterUnits="userSpaceOnUse" color-interpolation-filters="sRGB">
<feFlood flood-opacity="0" result="BackgroundImageFix"/>
<feBlend mode="normal" in="SourceGraphic" in2="BackgroundImageFix" result="shape"/>
<feGaussianBlur stdDeviation="0.164229" result="effect1_foregroundBlur_817_263"/>
</filter>
<linearGradient id="paint0_linear_817_263" x1="50.6551" y1="139.382" x2="78.1871" y2="180.121" gradientUnits="userSpaceOnUse">
<stop stop-color="#E3FEE8"/>
<stop offset="1" stop-color="#9BC7A3"/>
</linearGradient>
<linearGradient id="paint1_linear_817_263" x1="110.775" y1="140.843" x2="282.781" y2="231.513" gradientUnits="userSpaceOnUse">
<stop stop-color="#D8F5DD"/>
<stop offset="1" stop-color="#709C78"/>
</linearGradient>
<linearGradient id="paint2_linear_817_263" x1="102.085" y1="12.0164" x2="188.863" y2="226.072" gradientUnits="userSpaceOnUse">
<stop stop-color="#D8F5DD"/>
<stop offset="1" stop-color="#709C78"/>
</linearGradient>
<linearGradient id="paint3_linear_817_263" x1="127.793" y1="59.2251" x2="127.793" y2="250.631" gradientUnits="userSpaceOnUse">
<stop stop-color="#F6F6F6"/>
<stop offset="1" stop-color="#5379C2"/>
</linearGradient>
<linearGradient id="paint4_linear_817_263" x1="97.3545" y1="106.887" x2="88.459" y2="119.477" gradientUnits="userSpaceOnUse">
<stop stop-color="#FFDEDE"/>
<stop offset="1" stop-color="#FFDEDE" stop-opacity="0.8"/>
</linearGradient>
<linearGradient id="paint5_linear_817_263" x1="149.472" y1="106.887" x2="158.368" y2="119.477" gradientUnits="userSpaceOnUse">
<stop stop-color="#FFDEDE"/>
<stop offset="1" stop-color="#FFDEDE" stop-opacity="0.8"/>
</linearGradient>
<linearGradient id="paint6_linear_817_263" x1="220.921" y1="161.757" x2="177.69" y2="113.054" gradientUnits="userSpaceOnUse">
<stop stop-color="#A9CDAF"/>
<stop offset="0.512719" stop-color="#D9F6DE"/>
<stop offset="1" stop-color="#ACCFB2"/>
</linearGradient>
<linearGradient id="paint7_linear_817_263" x1="114.945" y1="161.063" x2="148.971" y2="162.378" gradientUnits="userSpaceOnUse">
<stop stop-color="#FFC634"/>
<stop offset="1" stop-color="#FFC634"/>
</linearGradient>
<linearGradient id="paint8_linear_817_263" x1="28.0889" y1="116" x2="22.5889" y2="118.5" gradientUnits="userSpaceOnUse">
<stop stop-color="#FFC634"/>
<stop offset="0.5" stop-color="#FFE090"/>
<stop offset="1" stop-color="#FFC634"/>
</linearGradient>
</defs>
</svg>
