<svg xmlns="http://www.w3.org/2000/svg" width="516" height="248" viewBox="0 0 516 248" fill="none">
<g filter="url(#filter0_b_624_40)">
<path fill-rule="evenodd" clip-rule="evenodd" d="M108 0C48.3532 0 0 48.3532 0 108C0 167.647 48.3533 216 108 216H407C412.781 216 418.456 215.546 423.991 214.671C424.771 214.548 425.558 214.786 426.137 215.324C442.201 230.264 469.431 244.182 512.704 247.609C515.649 247.842 516.544 242.843 513.831 241.672C495.403 233.718 474.64 219.917 467.387 199.731C467.011 198.687 467.426 197.534 468.338 196.903C496.53 177.416 515 144.865 515 108C515 48.3532 466.647 0 407 0H108Z" fill="#F6F6F6" fill-opacity="0.5"/>
</g>
<path d="M124.195 50.8652H108.58V49.2402H124.195V50.8652ZM126.582 57.2383H105.914V55.5879H126.582V57.2383ZM117.188 56.3496H115.207V50.0781H117.188V56.3496ZM123.941 40.9883H110.611V49.875H108.58V39.3379H123.941V40.9883ZM123.459 45.8379H109.977V44.2129H123.459V45.8379ZM149.027 52.0332H128.359V50.3828H149.027V52.0332ZM146.844 59.8281H131.102V58.1777H146.844V59.8281ZM133.107 58.6602H131.102V53.5566H133.107V58.6602ZM139.658 51.1191H137.703V47.1328H139.658V51.1191ZM146.361 43.8066H133.031V46.8789H131.051V42.334H144.355V39.8203H130.975V38.2207H146.361V43.8066ZM146.844 47.8945H131.051V46.3203H146.844V47.8945ZM162.205 41.623H151.896V39.998H162.205V41.623ZM157.457 54.0898H155.502V46.4473H157.457V54.0898ZM163.373 41.3438C163.365 42.7148 163.318 44.0775 163.233 45.4316C163.157 46.7858 162.984 48.3516 162.713 50.1289L160.707 49.9512C160.995 48.1992 161.177 46.6631 161.253 45.3428C161.329 44.014 161.367 42.6641 161.367 41.293V41.166V39.998H163.373V41.166V41.3438ZM168.273 60.0566H166.293V37.4844H168.273V60.0566ZM171.93 48.6562H167.74V46.9297H171.93V48.6562ZM150.627 53.4297C153.369 53.4128 155.912 53.362 158.257 53.2773C160.601 53.1842 162.806 53.015 164.871 52.7695L164.973 54.2676C162.831 54.5977 160.567 54.8219 158.181 54.9404C155.794 55.0505 153.361 55.097 150.881 55.0801L150.627 53.4297ZM200.494 52.8203H179.826V51.1699H200.494V52.8203ZM191.1 60.0566H189.145V51.627H191.1V60.0566ZM198.158 48.834H182.594V47.209H198.158V48.834ZM197.904 40.1758H184.574V47.6914H182.594V38.5508H197.904V40.1758ZM197.371 44.416H183.99V42.8164H197.371V44.416ZM210.092 56.1973H208.086V49.6973H210.092V56.1973ZM217.074 56.1973H215.094V49.6973H217.074V56.1973ZM222.99 57.2891H202.322V55.6387H222.99V57.2891ZM221.01 41.2422H204.15V39.5918H221.01V41.2422ZM220.959 50.2559H204.201V48.6055H220.959V50.2559ZM209.711 48.9609H207.73V40.9121H209.711V48.9609ZM217.43 48.9609H215.475V40.9121H217.43V48.9609ZM250.031 49.0371H248.025V37.4844H250.031V49.0371ZM243.023 38.627C243.023 40.4805 242.604 42.1351 241.767 43.5908C240.929 45.0381 239.714 46.2611 238.123 47.2598C236.54 48.25 234.636 49.0117 232.41 49.5449L231.699 47.8945C233.654 47.4375 235.313 46.8112 236.676 46.0156C238.047 45.2201 239.088 44.2806 239.799 43.1973C240.51 42.1055 240.865 40.8952 240.865 39.5664V38.627H243.023ZM241.754 40.2773H232.842V38.627H241.754V40.2773ZM248.355 42.3848H242.211V40.7852H248.355V42.3848ZM248.229 46.6758H242.008V45.1016H248.229V46.6758ZM250.031 55.5625H237.438V59.2188H235.457V54.0391H248.025V51.6777H235.406V50.0527H250.031V55.5625ZM250.793 59.8535H235.457V58.2031H250.793V59.8535ZM265.139 41.623H254.83V39.998H265.139V41.623ZM260.391 54.0898H258.436V46.4473H260.391V54.0898ZM266.307 41.3438C266.298 42.7148 266.252 44.0775 266.167 45.4316C266.091 46.7858 265.917 48.3516 265.646 50.1289L263.641 49.9512C263.928 48.1992 264.11 46.6631 264.187 45.3428C264.263 44.014 264.301 42.6641 264.301 41.293V41.166V39.998H266.307V41.166V41.3438ZM271.207 60.0566H269.227V37.4844H271.207V60.0566ZM274.863 48.6562H270.674V46.9297H274.863V48.6562ZM253.561 53.4297C256.303 53.4128 258.846 53.362 261.19 53.2773C263.535 53.1842 265.74 53.015 267.805 52.7695L267.906 54.2676C265.765 54.5977 263.501 54.8219 261.114 54.9404C258.728 55.0505 256.294 55.097 253.814 55.0801L253.561 53.4297ZM294.516 45.9395H279.053V44.3398H294.516V45.9395ZM296.902 50.6367H276.234V49.0117H296.902V50.6367ZM281.033 45.1523H279.053V38.3223H281.033V45.1523ZM294.643 59.498H278.926V57.8477H294.643V59.498ZM280.906 58.3301H278.926V52.9473H280.906V58.3301Z" fill="#0E0E0E"/>
<path d="M324.337 48.9102H321.125V37.2051H324.337V48.9102ZM324.362 56.1846H312.086V58.5713H308.925V53.7852H321.138V52.4395H308.874V49.9258H324.362V56.1846ZM324.997 60.1709H308.925V57.6318H324.997V60.1709ZM313.216 39.5029C313.207 40.9671 312.953 42.334 312.454 43.6035C311.955 44.873 311.201 45.9818 310.194 46.9297C309.196 47.8691 307.973 48.5547 306.525 48.9863L304.926 46.4473C306.17 46.0749 307.211 45.5332 308.049 44.8223C308.887 44.1029 309.505 43.2861 309.902 42.3721C310.309 41.458 310.516 40.5016 310.524 39.5029V37.7383H313.216V39.5029ZM313.889 39.5029C313.88 40.4762 314.071 41.3945 314.46 42.2578C314.858 43.1211 315.463 43.8913 316.275 44.5684C317.088 45.237 318.108 45.7448 319.335 46.0918L317.748 48.5928C316.309 48.1696 315.099 47.5094 314.117 46.6123C313.135 45.7152 312.399 44.6615 311.908 43.4512C311.417 42.2409 311.172 40.9248 311.172 39.5029V37.7383H313.889V39.5029ZM347.468 60.3359H344.421V37.2051H347.468V60.3359ZM340.562 47.7676H336.664V45.165H340.562V47.7676ZM342.745 59.2822H339.711V37.6113H342.745V59.2822ZM334.138 43.4131C334.129 45.2158 333.943 46.9297 333.579 48.5547C333.215 50.1797 332.648 51.6439 331.878 52.9473C331.116 54.2507 330.147 55.262 328.971 55.9814L327.016 53.5947C328.099 52.9261 328.992 52.0544 329.694 50.9795C330.397 49.8962 330.905 48.7155 331.218 47.4375C331.531 46.151 331.688 44.8096 331.688 43.4131V40.9883H334.138V43.4131ZM334.811 43.4131C334.811 44.7757 334.963 46.0664 335.268 47.2852C335.572 48.5039 336.063 49.6211 336.74 50.6367C337.426 51.6439 338.306 52.4564 339.381 53.0742L337.489 55.4482C336.304 54.7542 335.335 53.7936 334.582 52.5664C333.829 51.3392 333.279 49.9554 332.932 48.415C332.593 46.8662 332.424 45.1989 332.424 43.4131V40.9883H334.811V43.4131ZM338.314 42.1689H327.892V39.5791H338.314V42.1689ZM371.106 57.7715H349.981V55.1182H371.106V57.7715ZM362.093 56.2227H358.906V50.7383H362.093V56.2227ZM368.669 46.3838H355.644V50.332H352.419V43.8447H365.47V41.3311H352.381V38.7285H368.669V46.3838ZM369.215 51.6143H352.419V48.9863H369.215V51.6143ZM123.916 91.2979H120.666V68.2051H123.916V91.2979ZM127.179 79.7578H123.078V77.0918H127.179V79.7578ZM117.746 70.5918C117.738 72.9954 117.391 75.2171 116.705 77.2568C116.028 79.2965 114.915 81.1712 113.366 82.8809C111.817 84.5905 109.786 86.0632 107.272 87.2988L105.444 84.8232C107.509 83.7822 109.215 82.6016 110.561 81.2812C111.906 79.9525 112.909 78.4587 113.569 76.7998C114.229 75.1325 114.564 73.2578 114.572 71.1758V70.5918H117.746ZM116.197 73.2451H106.739V70.5918H116.197V73.2451ZM135.964 71.5439C135.964 73.1182 135.727 74.5781 135.253 75.9238C134.787 77.2695 134.076 78.4417 133.12 79.4404C132.164 80.4307 130.979 81.167 129.565 81.6494L127.826 79.1104C129.062 78.6872 130.09 78.0905 130.911 77.3203C131.732 76.5417 132.337 75.6615 132.727 74.6797C133.116 73.6979 133.315 72.6527 133.323 71.5439V69.4492H135.964V71.5439ZM136.573 71.8613C136.573 72.8346 136.764 73.7529 137.145 74.6162C137.534 75.4795 138.122 76.2497 138.909 76.9268C139.705 77.5954 140.691 78.1159 141.867 78.4883L140.141 81.002C138.786 80.5534 137.648 79.8805 136.726 78.9834C135.803 78.0778 135.109 77.0199 134.644 75.8096C134.178 74.5993 133.95 73.2832 133.958 71.8613V69.4492H136.573V71.8613ZM146.488 81.9287H143.251V68.2051H146.488V81.9287ZM149.611 76.3301H145.574V73.626H149.611V76.3301ZM138.909 82.3984C140.5 82.3984 141.88 82.5762 143.048 82.9316C144.224 83.2786 145.126 83.7907 145.752 84.4678C146.387 85.1364 146.704 85.932 146.704 86.8545C146.704 87.7939 146.387 88.598 145.752 89.2666C145.126 89.9352 144.224 90.4473 143.048 90.8027C141.88 91.1582 140.5 91.3359 138.909 91.3359C137.293 91.3359 135.888 91.1582 134.694 90.8027C133.509 90.4473 132.595 89.9352 131.952 89.2666C131.309 88.598 130.987 87.7939 130.987 86.8545C130.987 85.932 131.309 85.1364 131.952 84.4678C132.595 83.7907 133.509 83.2786 134.694 82.9316C135.888 82.5762 137.293 82.3984 138.909 82.3984ZM138.909 84.9375C137.902 84.929 137.051 85.001 136.357 85.1533C135.663 85.2972 135.134 85.513 134.771 85.8008C134.415 86.0885 134.242 86.4398 134.25 86.8545C134.242 87.2861 134.415 87.6458 134.771 87.9336C135.126 88.2214 135.646 88.4372 136.332 88.5811C137.026 88.7249 137.885 88.7969 138.909 88.7969C139.916 88.7969 140.763 88.7249 141.448 88.5811C142.134 88.4372 142.65 88.2214 142.997 87.9336C143.344 87.6458 143.518 87.2861 143.518 86.8545C143.518 86.4398 143.34 86.0885 142.984 85.8008C142.637 85.5046 142.121 85.2845 141.436 85.1406C140.75 84.9967 139.908 84.929 138.909 84.9375ZM174.012 71.8105H159.234V69.2461H174.012V71.8105ZM177.782 79.7959H156.657V77.2061H177.782V79.7959ZM168.794 83.9219H165.544V79.0215H168.794V83.9219ZM175.281 71.0488C175.281 72.4199 175.239 73.6556 175.154 74.7559C175.078 75.8477 174.879 77.0791 174.558 78.4502L171.358 78.1074C171.562 77.2103 171.714 76.3639 171.815 75.5684C171.917 74.7728 171.98 74.0661 172.006 73.4482C172.031 72.8304 172.048 72.0983 172.057 71.252V71.0488V69.2461H175.281V71.0488ZM175.307 91.3359H172.057V85.6484H158.765V83.0967H175.307V91.3359ZM188.319 86.0293H185.095V82.2588H188.319V86.0293ZM198.526 91.3359H195.314V68.2051H198.526V91.3359ZM180.131 84.8105C183.008 84.7936 185.539 84.7471 187.723 84.6709C189.915 84.5863 192.022 84.4085 194.045 84.1377L194.248 86.5371C192.014 86.9264 189.716 87.1803 187.354 87.2988C184.993 87.4089 182.424 87.4639 179.648 87.4639L179.217 84.8105H180.131ZM193.715 73.3467H179.674V70.8076H193.715V73.3467ZM186.682 74.2607C187.816 74.2607 188.823 74.4427 189.703 74.8066C190.592 75.1621 191.277 75.6699 191.76 76.3301C192.251 76.9902 192.496 77.7477 192.496 78.6025C192.496 79.4489 192.251 80.2021 191.76 80.8623C191.277 81.514 190.592 82.0218 189.703 82.3857C188.823 82.7497 187.816 82.9316 186.682 82.9316C185.564 82.9316 184.57 82.7497 183.698 82.3857C182.826 82.0218 182.145 81.514 181.654 80.8623C181.172 80.2021 180.931 79.4489 180.931 78.6025C180.931 77.7477 181.172 76.9902 181.654 76.3301C182.145 75.6699 182.826 75.1621 183.698 74.8066C184.57 74.4427 185.564 74.2607 186.682 74.2607ZM186.682 76.7109C186.157 76.7109 185.691 76.7871 185.285 76.9395C184.887 77.0833 184.574 77.2992 184.346 77.5869C184.117 77.8747 184.003 78.2132 184.003 78.6025C184.003 79.0003 184.113 79.3389 184.333 79.6182C184.562 79.889 184.879 80.1006 185.285 80.2529C185.691 80.3968 186.157 80.4688 186.682 80.4688C187.223 80.4688 187.701 80.3968 188.116 80.2529C188.531 80.1006 188.848 79.889 189.068 79.6182C189.288 79.3389 189.398 79.0003 189.398 78.6025C189.398 78.2132 189.288 77.8747 189.068 77.5869C188.848 77.2992 188.531 77.0833 188.116 76.9395C187.701 76.7871 187.223 76.7109 186.682 76.7109ZM188.345 72.2549H185.095V68.3193H188.345V72.2549ZM214.776 79.3643H210.917V76.7744H214.776V79.3643ZM221.619 91.3359H218.509V68.2051H221.619V91.3359ZM216.808 90.2695H213.748V68.5605H216.808V90.2695ZM206.816 69.8682C207.832 69.8682 208.725 70.2067 209.495 70.8838C210.274 71.5609 210.87 72.5299 211.285 73.791C211.708 75.0521 211.92 76.5332 211.92 78.2344C211.92 79.944 211.708 81.4336 211.285 82.7031C210.87 83.9642 210.274 84.9375 209.495 85.623C208.725 86.3001 207.832 86.6387 206.816 86.6387C205.801 86.6387 204.916 86.3001 204.163 85.623C203.41 84.9375 202.822 83.9642 202.398 82.7031C201.984 81.4336 201.776 79.944 201.776 78.2344C201.776 76.5332 201.984 75.0521 202.398 73.791C202.822 72.5299 203.41 71.5609 204.163 70.8838C204.916 70.2067 205.801 69.8682 206.816 69.8682ZM206.816 72.9404C206.376 72.9404 206.004 73.1351 205.699 73.5244C205.395 73.9137 205.162 74.5062 205.001 75.3018C204.84 76.0889 204.764 77.0664 204.772 78.2344C204.764 79.4023 204.84 80.3841 205.001 81.1797C205.162 81.9668 205.395 82.555 205.699 82.9443C206.012 83.3337 206.385 83.5283 206.816 83.5283C207.265 83.5283 207.646 83.3337 207.959 82.9443C208.281 82.555 208.522 81.9668 208.683 81.1797C208.852 80.3926 208.937 79.4108 208.937 78.2344C208.937 77.0664 208.852 76.0889 208.683 75.3018C208.522 74.5062 208.281 73.9137 207.959 73.5244C207.646 73.1351 207.265 72.9404 206.816 72.9404ZM247.302 73.8418H240.421V71.2773H247.302V73.8418ZM247.302 78.9961H240.421V76.4189H247.302V78.9961ZM236.523 69.4619C237.666 69.4619 238.703 69.7031 239.634 70.1855C240.565 70.668 241.297 71.3451 241.83 72.2168C242.363 73.0801 242.634 74.0492 242.643 75.124C242.634 76.1989 242.363 77.1637 241.83 78.0186C241.297 78.8734 240.561 79.5462 239.621 80.0371C238.69 80.528 237.658 80.7734 236.523 80.7734C235.364 80.7734 234.314 80.528 233.375 80.0371C232.444 79.5462 231.708 78.8734 231.166 78.0186C230.633 77.1637 230.366 76.1989 230.366 75.124C230.366 74.0492 230.633 73.0801 231.166 72.2168C231.708 71.3451 232.444 70.668 233.375 70.1855C234.314 69.7031 235.364 69.4619 236.523 69.4619ZM236.523 72.2422C235.923 72.2422 235.389 72.3564 234.924 72.585C234.458 72.805 234.094 73.1351 233.832 73.5752C233.57 74.0153 233.438 74.5316 233.438 75.124C233.438 75.708 233.57 76.2201 233.832 76.6602C234.094 77.1003 234.458 77.443 234.924 77.6885C235.389 77.9255 235.923 78.0439 236.523 78.0439C237.099 78.0439 237.615 77.9255 238.072 77.6885C238.538 77.443 238.897 77.1003 239.151 76.6602C239.414 76.2201 239.545 75.708 239.545 75.124C239.545 74.5316 239.414 74.0153 239.151 73.5752C238.897 73.1351 238.542 72.805 238.085 72.585C237.628 72.3564 237.107 72.2422 236.523 72.2422ZM249.549 81.7637H246.324V68.2051H249.549V81.7637ZM241.652 82.2461C243.277 82.2461 244.687 82.4238 245.88 82.7793C247.082 83.1348 248.004 83.6553 248.647 84.3408C249.291 85.0264 249.617 85.8431 249.625 86.791C249.617 87.7305 249.291 88.5387 248.647 89.2158C248.004 89.9014 247.082 90.4261 245.88 90.79C244.687 91.154 243.277 91.3359 241.652 91.3359C240.027 91.3359 238.618 91.154 237.425 90.79C236.24 90.4261 235.326 89.9014 234.683 89.2158C234.039 88.5387 233.718 87.7305 233.718 86.791C233.718 85.8431 234.039 85.0264 234.683 84.3408C235.326 83.6553 236.24 83.1348 237.425 82.7793C238.618 82.4238 240.027 82.2461 241.652 82.2461ZM241.652 84.709C240.62 84.7174 239.748 84.7979 239.037 84.9502C238.335 85.1025 237.797 85.3353 237.425 85.6484C237.061 85.9531 236.883 86.334 236.892 86.791C236.883 87.2311 237.061 87.6035 237.425 87.9082C237.797 88.2044 238.335 88.4329 239.037 88.5938C239.748 88.7461 240.62 88.8223 241.652 88.8223C242.702 88.8223 243.582 88.7461 244.293 88.5938C245.004 88.4329 245.541 88.2044 245.905 87.9082C246.269 87.6035 246.451 87.2311 246.451 86.791C246.451 86.334 246.269 85.9531 245.905 85.6484C245.541 85.3353 245.004 85.1025 244.293 84.9502C243.582 84.7979 242.702 84.7174 241.652 84.709ZM273.886 74.2227H269.874V71.5947H273.886V74.2227ZM273.886 79.2246H269.874V76.584H273.886V79.2246ZM270.877 82.9062H267.64V68.2051H270.877V82.9062ZM263.323 83.1094C264.906 83.1094 266.281 83.2744 267.449 83.6045C268.626 83.9261 269.531 84.4001 270.166 85.0264C270.809 85.6527 271.131 86.389 271.131 87.2354C271.131 88.0817 270.809 88.8096 270.166 89.4189C269.531 90.0368 268.626 90.5107 267.449 90.8408C266.281 91.1709 264.906 91.3359 263.323 91.3359C261.715 91.3359 260.323 91.1709 259.146 90.8408C257.97 90.5107 257.069 90.0368 256.442 89.4189C255.816 88.8096 255.503 88.0817 255.503 87.2354C255.503 86.3805 255.816 85.6442 256.442 85.0264C257.069 84.4001 257.97 83.9261 259.146 83.6045C260.323 83.2744 261.715 83.1094 263.323 83.1094ZM263.323 85.585C262.299 85.585 261.449 85.6442 260.771 85.7627C260.094 85.8812 259.578 86.0632 259.223 86.3086C258.876 86.554 258.706 86.863 258.715 87.2354C258.706 87.5993 258.876 87.9082 259.223 88.1621C259.578 88.4076 260.099 88.598 260.784 88.7334C261.478 88.8604 262.325 88.9238 263.323 88.9238C264.313 88.9238 265.147 88.8604 265.824 88.7334C266.501 88.598 267.009 88.4076 267.348 88.1621C267.695 87.9082 267.868 87.5993 267.868 87.2354C267.868 86.863 267.695 86.554 267.348 86.3086C267.009 86.0632 266.501 85.8812 265.824 85.7627C265.156 85.6442 264.322 85.585 263.323 85.585ZM266.256 72.9658H252.532V70.4395H266.256V72.9658ZM259.413 73.7402C260.513 73.7402 261.491 73.918 262.346 74.2734C263.209 74.6204 263.882 75.1113 264.364 75.7461C264.855 76.3724 265.101 77.0918 265.101 77.9043C265.101 78.7253 264.859 79.4489 264.377 80.0752C263.895 80.693 263.222 81.1755 262.358 81.5225C261.504 81.8695 260.522 82.043 259.413 82.043C258.287 82.043 257.289 81.8695 256.417 81.5225C255.554 81.1755 254.881 80.693 254.398 80.0752C253.916 79.4489 253.675 78.7253 253.675 77.9043C253.675 77.0918 253.916 76.3724 254.398 75.7461C254.881 75.1113 255.554 74.6204 256.417 74.2734C257.289 73.918 258.287 73.7402 259.413 73.7402ZM259.413 76.1016C258.888 76.11 258.431 76.182 258.042 76.3174C257.653 76.4528 257.352 76.6559 257.141 76.9268C256.929 77.1976 256.823 77.5234 256.823 77.9043C256.823 78.2767 256.929 78.5941 257.141 78.8564C257.352 79.1104 257.653 79.305 258.042 79.4404C258.431 79.5758 258.888 79.6393 259.413 79.6309C259.929 79.6393 260.382 79.5758 260.771 79.4404C261.169 79.305 261.478 79.1104 261.698 78.8564C261.918 78.5941 262.028 78.2767 262.028 77.9043C262.028 77.5234 261.918 77.1976 261.698 76.9268C261.478 76.6559 261.169 76.4528 260.771 76.3174C260.382 76.182 259.929 76.11 259.413 76.1016ZM261.025 71.8105H257.788V68.0908H261.025V71.8105ZM285.553 68.5605C287.322 68.5605 288.832 68.7129 290.085 69.0176C291.346 69.3138 292.302 69.7581 292.954 70.3506C293.614 70.9346 293.944 71.6455 293.944 72.4834C293.944 73.3382 293.614 74.0618 292.954 74.6543C292.302 75.2467 291.35 75.6953 290.098 76C288.845 76.3047 287.33 76.457 285.553 76.457C283.775 76.457 282.256 76.3047 280.995 76C279.743 75.6953 278.782 75.2467 278.113 74.6543C277.453 74.0618 277.123 73.3382 277.123 72.4834C277.123 71.6455 277.453 70.9346 278.113 70.3506C278.782 69.7581 279.743 69.3138 280.995 69.0176C282.256 68.7129 283.775 68.5605 285.553 68.5605ZM285.553 70.9219C284.419 70.9219 283.479 70.9811 282.734 71.0996C281.998 71.2181 281.444 71.3958 281.071 71.6328C280.699 71.8613 280.517 72.1449 280.525 72.4834C280.517 72.8558 280.695 73.1605 281.059 73.3975C281.431 73.6344 281.977 73.8079 282.696 73.918C283.424 74.0195 284.376 74.0745 285.553 74.083C286.738 74.0745 287.694 74.0195 288.422 73.918C289.158 73.8079 289.704 73.6387 290.06 73.4102C290.424 73.1732 290.605 72.8643 290.605 72.4834C290.605 72.1449 290.424 71.8613 290.06 71.6328C289.696 71.3958 289.137 71.2181 288.384 71.0996C287.631 70.9811 286.687 70.9219 285.553 70.9219ZM296.103 80.126H275.028V77.5615H296.103V80.126ZM293.525 87.3496H280.652V89.4316H277.466V85.0898H290.326V83.8203H277.453V81.4463H293.525V87.3496ZM294.135 91.1709H277.466V88.7461H294.135V91.1709ZM315.831 85.8262H304.659V70.3252H315.831V85.8262ZM307.884 83.2617H312.67V72.8516H307.884V83.2617ZM322.852 91.3994H319.563V68.2051H322.852V91.3994ZM345.31 85.1533H342.072V68.2559H345.31V85.1533ZM345.944 90.9424H329.834V88.3271H345.944V90.9424ZM333.109 89.8506H329.834V83.6553H333.109V89.8506ZM334.366 73.6133C334.358 75.0267 334.108 76.3428 333.617 77.5615C333.126 78.7803 332.382 79.8382 331.383 80.7354C330.393 81.6325 329.178 82.2884 327.739 82.7031L326.178 80.1895C327.413 79.8255 328.446 79.3092 329.275 78.6406C330.105 77.9635 330.714 77.1934 331.104 76.3301C331.501 75.4668 331.7 74.5612 331.7 73.6133V72.7754H334.366V73.6133ZM334.95 73.6133C334.942 74.502 335.141 75.3525 335.547 76.165C335.962 76.9691 336.584 77.6927 337.413 78.3359C338.243 78.9707 339.271 79.4531 340.498 79.7832L338.962 82.3223C337.506 81.916 336.279 81.2855 335.28 80.4307C334.29 79.5674 333.545 78.556 333.046 77.3965C332.555 76.2285 332.314 74.9674 332.322 73.6133V72.7754H334.95V73.6133ZM339.686 73.4482H326.978V70.9219H339.686V73.4482ZM334.976 72.001H331.7V68.3574H334.976V72.001ZM366.777 80.5957H363.54V68.2051H366.777V80.5957ZM369.9 75.8857H365.863V73.2197H369.9V75.8857ZM351.276 77.4346C353.951 77.4346 356.007 77.3923 357.446 77.3076C358.894 77.2145 360.29 77.0241 361.636 76.7363L361.991 79.3135C360.595 79.6097 359.139 79.8086 357.624 79.9102C356.118 80.0033 354.002 80.054 351.276 80.0625H349.334V77.4346H351.276ZM359.655 72.2041H352.571V79.1865H349.334V69.627H359.655V72.2041ZM354.831 83.8711H363.54V81.7002H366.777V91.0439H351.606V81.7002H354.831V83.8711ZM363.54 88.4668V86.3975H354.831V88.4668H363.54ZM390.34 91.3359H387.128V68.2051H390.34V91.3359ZM375.359 84.7852H372.16V70.4268H375.359V84.7852ZM374.204 82.8809C376.032 82.8809 377.869 82.8005 379.714 82.6396C381.567 82.4788 383.408 82.2207 385.236 81.8652L385.643 84.5439C383.73 84.9333 381.826 85.2126 379.93 85.3818C378.034 85.5511 376.125 85.6357 374.204 85.6357H372.16V82.8809H374.204ZM411.617 91.3994H408.367V68.2051H411.617V91.3994ZM415.045 79.4531H410.906V76.7998H415.045V79.4531ZM396.256 83.1094C398.346 83.1178 400.2 83.0671 401.816 82.957C403.433 82.847 405.062 82.6523 406.704 82.373L407.06 85.0898C405.392 85.3691 403.738 85.5553 402.096 85.6484C400.462 85.7415 398.516 85.7839 396.256 85.7754H394.301V83.1094H396.256ZM405.143 72.9912H397.538V84.4297H394.301V70.3633H405.143V72.9912ZM418.841 89.2285C418.46 89.2285 418.104 89.1354 417.774 88.9492C417.444 88.7546 417.182 88.4922 416.987 88.1621C416.801 87.832 416.712 87.4723 416.721 87.083C416.712 86.7021 416.801 86.3509 416.987 86.0293C417.182 85.7077 417.444 85.4538 417.774 85.2676C418.104 85.0814 418.46 84.9883 418.841 84.9883C419.213 84.9883 419.564 85.0814 419.895 85.2676C420.225 85.4538 420.483 85.7119 420.669 86.042C420.864 86.3636 420.965 86.7106 420.974 87.083C420.965 87.4723 420.864 87.832 420.669 88.1621C420.483 88.4922 420.225 88.7546 419.895 88.9492C419.564 89.1354 419.213 89.2285 418.841 89.2285Z" fill="#464646"/>
<path d="M124.627 135.037H122.621V123.484H124.627V135.037ZM117.619 124.627C117.619 126.48 117.2 128.135 116.362 129.591C115.524 131.038 114.31 132.261 112.719 133.26C111.136 134.25 109.232 135.012 107.006 135.545L106.295 133.895C108.25 133.438 109.909 132.811 111.271 132.016C112.643 131.22 113.684 130.281 114.395 129.197C115.105 128.105 115.461 126.895 115.461 125.566V124.627H117.619ZM116.35 126.277H107.438V124.627H116.35V126.277ZM122.951 128.385H116.807V126.785H122.951V128.385ZM122.824 132.676H116.604V131.102H122.824V132.676ZM124.627 141.562H112.033V145.219H110.053V140.039H122.621V137.678H110.002V136.053H124.627V141.562ZM125.389 145.854H110.053V144.203H125.389V145.854ZM139.734 127.623H129.426V125.998H139.734V127.623ZM134.986 140.09H133.031V132.447H134.986V140.09ZM140.902 127.344C140.894 128.715 140.847 130.077 140.763 131.432C140.687 132.786 140.513 134.352 140.242 136.129L138.236 135.951C138.524 134.199 138.706 132.663 138.782 131.343C138.858 130.014 138.896 128.664 138.896 127.293V127.166V125.998H140.902V127.166V127.344ZM145.803 146.057H143.822V123.484H145.803V146.057ZM149.459 134.656H145.27V132.93H149.459V134.656ZM128.156 139.43C130.898 139.413 133.442 139.362 135.786 139.277C138.131 139.184 140.335 139.015 142.4 138.77L142.502 140.268C140.361 140.598 138.097 140.822 135.71 140.94C133.323 141.05 130.89 141.097 128.41 141.08L128.156 139.43ZM171.498 135.545H150.83V133.971H171.498V135.545ZM168.908 142.146H155.35V144.838H153.344V140.775H166.928V138.846H153.318V137.348H168.908V142.146ZM169.645 145.752H153.344V144.305H169.645V145.752ZM168.832 128.842H155.502V131.33H153.521V127.471H166.826V125.617H153.445V124.17H168.832V128.842ZM169.238 132.27H153.521V130.822H169.238V132.27ZM187.85 136.967H185.869V134.098H187.85V136.967ZM197.473 138.643H195.467V123.51H197.473V138.643ZM200.85 132.016H196.635V130.34H200.85V132.016ZM179.928 136.332C182.746 136.332 185.298 136.29 187.583 136.205C189.868 136.12 192.031 135.926 194.07 135.621L194.248 137.068C192.073 137.449 189.826 137.695 187.507 137.805C185.188 137.915 182.678 137.965 179.979 137.957L179.75 136.332H179.928ZM197.473 146.057H195.467V141.359H182.518V139.76H197.473V146.057ZM193.385 127.09H180.309V125.566H193.385V127.09ZM186.834 127.953C187.892 127.953 188.819 128.089 189.614 128.359C190.418 128.63 191.036 129.015 191.468 129.515C191.908 130.014 192.132 130.602 192.141 131.279C192.132 131.973 191.908 132.57 191.468 133.069C191.036 133.569 190.423 133.958 189.627 134.237C188.831 134.517 187.9 134.656 186.834 134.656C185.776 134.656 184.849 134.517 184.054 134.237C183.267 133.958 182.653 133.569 182.213 133.069C181.773 132.562 181.553 131.965 181.553 131.279C181.553 130.602 181.773 130.014 182.213 129.515C182.653 129.015 183.271 128.63 184.066 128.359C184.862 128.089 185.785 127.953 186.834 127.953ZM186.834 129.375C186.148 129.367 185.548 129.438 185.031 129.591C184.523 129.735 184.134 129.955 183.863 130.251C183.592 130.539 183.457 130.882 183.457 131.279C183.457 131.669 183.592 132.011 183.863 132.308C184.134 132.604 184.523 132.837 185.031 133.006C185.548 133.167 186.148 133.243 186.834 133.234C187.52 133.243 188.116 133.167 188.624 133.006C189.14 132.837 189.538 132.604 189.817 132.308C190.097 132.011 190.236 131.669 190.236 131.279C190.236 130.882 190.097 130.539 189.817 130.251C189.538 129.955 189.14 129.735 188.624 129.591C188.116 129.438 187.52 129.367 186.834 129.375ZM187.85 126.354H185.869V123.307H187.85V126.354ZM220.959 140.014H218.979V123.51H220.959V140.014ZM221.67 145.574H206.385V143.898H221.67V145.574ZM208.365 144.457H206.385V138.338H208.365V144.457ZM208.771 125.084C209.889 125.084 210.896 125.321 211.793 125.795C212.69 126.269 213.397 126.925 213.913 127.763C214.429 128.601 214.688 129.553 214.688 130.619C214.688 131.694 214.429 132.655 213.913 133.501C213.397 134.339 212.69 134.995 211.793 135.469C210.896 135.943 209.889 136.18 208.771 136.18C207.654 136.18 206.647 135.943 205.75 135.469C204.853 134.995 204.146 134.339 203.63 133.501C203.114 132.655 202.855 131.694 202.855 130.619C202.855 129.553 203.114 128.601 203.63 127.763C204.146 126.925 204.853 126.269 205.75 125.795C206.647 125.321 207.654 125.084 208.771 125.084ZM208.771 126.836C208.018 126.836 207.337 126.997 206.728 127.318C206.127 127.64 205.653 128.089 205.306 128.664C204.967 129.24 204.802 129.891 204.811 130.619C204.802 131.355 204.967 132.016 205.306 132.6C205.653 133.175 206.127 133.624 206.728 133.945C207.337 134.267 208.018 134.428 208.771 134.428C209.516 134.428 210.189 134.267 210.79 133.945C211.391 133.624 211.865 133.175 212.212 132.6C212.559 132.016 212.732 131.355 212.732 130.619C212.732 129.891 212.559 129.24 212.212 128.664C211.865 128.089 211.391 127.64 210.79 127.318C210.189 126.997 209.516 126.836 208.771 126.836ZM242.439 140.42H240.459V123.51H242.439V140.42ZM245.842 132.625H241.805V130.949H245.842V132.625ZM238.301 127.902H224.844V126.277H238.301V127.902ZM231.572 129.146C232.639 129.146 233.582 129.32 234.403 129.667C235.224 130.014 235.859 130.505 236.308 131.14C236.765 131.774 236.997 132.515 237.006 133.361C236.997 134.199 236.765 134.936 236.308 135.57C235.859 136.197 235.224 136.679 234.403 137.018C233.582 137.356 232.639 137.525 231.572 137.525C230.489 137.525 229.537 137.356 228.716 137.018C227.895 136.679 227.26 136.197 226.812 135.57C226.363 134.936 226.139 134.199 226.139 133.361C226.139 132.515 226.363 131.774 226.812 131.14C227.26 130.505 227.895 130.014 228.716 129.667C229.537 129.32 230.489 129.146 231.572 129.146ZM231.572 130.721C230.87 130.721 230.248 130.826 229.706 131.038C229.173 131.25 228.762 131.559 228.475 131.965C228.187 132.363 228.043 132.828 228.043 133.361C228.043 133.886 228.187 134.343 228.475 134.732C228.762 135.122 229.173 135.426 229.706 135.646C230.248 135.858 230.87 135.96 231.572 135.951C232.266 135.96 232.884 135.858 233.426 135.646C233.967 135.426 234.382 135.122 234.67 134.732C234.966 134.343 235.118 133.886 235.127 133.361C235.118 132.828 234.966 132.363 234.67 131.965C234.382 131.559 233.967 131.25 233.426 131.038C232.884 130.826 232.266 130.721 231.572 130.721ZM232.562 127.115H230.582V123.51H232.562V127.115ZM243.48 145.574H228.322V143.898H243.48V145.574ZM230.277 144.584H228.322V139.074H230.277V144.584ZM262.295 145.371H260.314V136.23H262.295V145.371ZM272.4 146.082H270.445V123.51H272.4V146.082ZM253.688 135.799C254.551 135.799 255.211 135.79 255.668 135.773C258.199 135.757 260.539 135.71 262.688 135.634C264.847 135.549 266.891 135.401 268.82 135.189L268.922 136.713C267.348 136.924 265.714 137.09 264.021 137.208C262.329 137.318 260.683 137.394 259.083 137.437C257.492 137.479 255.837 137.5 254.119 137.5H253.941L253.688 135.799ZM267.094 132.93H255.846V131.254H267.094V132.93ZM266.789 126.404H257.852V132.193H255.846V124.779H266.789V126.404ZM123.383 177.107H121.402V154.484H123.383V177.107ZM127.166 165.098H122.926V163.422H127.166V165.098ZM108.682 169.77C110.899 169.761 112.799 169.702 114.382 169.592C115.965 169.473 117.577 169.262 119.219 168.957L119.473 170.684C117.797 170.988 116.155 171.191 114.547 171.293C112.947 171.395 110.992 171.445 108.682 171.445H106.904V169.77H108.682ZM117.441 158.344H108.885V170.531H106.904V156.693H117.441V158.344ZM138.668 154.992C140.301 154.992 141.715 155.161 142.908 155.5C144.11 155.839 145.033 156.334 145.676 156.985C146.319 157.629 146.641 158.395 146.641 159.283C146.641 160.163 146.319 160.921 145.676 161.556C145.033 162.19 144.11 162.673 142.908 163.003C141.715 163.333 140.301 163.498 138.668 163.498C137.035 163.498 135.617 163.333 134.415 163.003C133.222 162.673 132.299 162.19 131.647 161.556C130.996 160.921 130.67 160.163 130.67 159.283C130.67 158.395 130.996 157.629 131.647 156.985C132.299 156.334 133.222 155.839 134.415 155.5C135.617 155.161 137.035 154.992 138.668 154.992ZM138.668 156.592C137.458 156.592 136.404 156.698 135.507 156.909C134.618 157.121 133.933 157.43 133.45 157.836C132.968 158.242 132.727 158.725 132.727 159.283C132.727 159.825 132.968 160.29 133.45 160.68C133.933 161.069 134.618 161.374 135.507 161.594C136.404 161.814 137.458 161.924 138.668 161.924C139.87 161.924 140.919 161.814 141.816 161.594C142.714 161.374 143.403 161.069 143.886 160.68C144.368 160.29 144.609 159.825 144.609 159.283C144.609 158.725 144.368 158.242 143.886 157.836C143.403 157.43 142.714 157.121 141.816 156.909C140.919 156.698 139.87 156.592 138.668 156.592ZM146.438 176.752H130.898V169.338H146.438V176.752ZM132.879 175.127H144.482V170.938H132.879V175.127ZM148.951 167.104H128.385V165.453H148.951V167.104ZM160.504 159.156H166.801V155.652H168.756V165.986H158.523V155.652H160.504V159.156ZM166.801 164.361V160.73H160.504V164.361H166.801ZM174.697 161.721H168.197V160.045H174.697V161.721ZM176.094 166.824H174.088V154.484H176.094V166.824ZM163.551 170.684H174.088V167.916H176.068V176.752H161.545V167.916H163.551V170.684ZM174.088 175.102V172.283H163.551V175.102H174.088ZM197.498 171.141H195.518V154.484H197.498V171.141ZM200.9 163.041H196.863V161.365H200.9V163.041ZM198.539 176.574H183.381V174.898H198.539V176.574ZM185.336 175.559H183.381V169.414H185.336V175.559ZM186.199 156.084C187.316 156.084 188.328 156.321 189.233 156.795C190.139 157.269 190.846 157.929 191.354 158.775C191.87 159.613 192.132 160.57 192.141 161.645C192.132 162.719 191.87 163.68 191.354 164.526C190.846 165.364 190.139 166.02 189.233 166.494C188.328 166.968 187.316 167.205 186.199 167.205C185.09 167.205 184.083 166.968 183.178 166.494C182.281 166.02 181.574 165.36 181.058 164.514C180.541 163.667 180.283 162.711 180.283 161.645C180.283 160.57 180.541 159.613 181.058 158.775C181.574 157.929 182.281 157.269 183.178 156.795C184.075 156.321 185.082 156.084 186.199 156.084ZM186.199 157.836C185.463 157.836 184.79 157.997 184.181 158.318C183.58 158.64 183.106 159.093 182.759 159.677C182.412 160.261 182.238 160.917 182.238 161.645C182.238 162.372 182.412 163.024 182.759 163.6C183.106 164.175 183.58 164.628 184.181 164.958C184.79 165.288 185.463 165.453 186.199 165.453C186.952 165.453 187.63 165.288 188.23 164.958C188.84 164.628 189.318 164.175 189.665 163.6C190.012 163.024 190.186 162.372 190.186 161.645C190.186 160.908 190.012 160.252 189.665 159.677C189.318 159.093 188.84 158.64 188.23 158.318C187.63 157.997 186.952 157.836 186.199 157.836ZM215.906 164.945H211.564V163.295H215.906V164.945ZM221.67 177.057H219.74V154.484H221.67V177.057ZM217.125 175.914H215.221V154.967H217.125V175.914ZM207.451 156.389C208.424 156.389 209.275 156.71 210.003 157.354C210.739 157.997 211.311 158.911 211.717 160.096C212.123 161.272 212.326 162.652 212.326 164.234C212.326 165.817 212.123 167.201 211.717 168.386C211.311 169.562 210.739 170.472 210.003 171.115C209.275 171.758 208.424 172.08 207.451 172.08C206.478 172.08 205.627 171.758 204.899 171.115C204.18 170.472 203.617 169.562 203.211 168.386C202.805 167.201 202.602 165.817 202.602 164.234C202.602 162.652 202.805 161.272 203.211 160.096C203.617 158.911 204.18 157.997 204.899 157.354C205.627 156.71 206.478 156.389 207.451 156.389ZM207.451 158.268C206.842 158.268 206.313 158.509 205.864 158.991C205.416 159.474 205.069 160.168 204.823 161.073C204.586 161.97 204.472 163.024 204.48 164.234C204.472 165.445 204.586 166.498 204.823 167.396C205.069 168.284 205.416 168.974 205.864 169.465C206.321 169.947 206.85 170.184 207.451 170.176C208.061 170.184 208.594 169.947 209.051 169.465C209.508 168.974 209.855 168.284 210.092 167.396C210.329 166.498 210.447 165.445 210.447 164.234C210.447 163.024 210.329 161.97 210.092 161.073C209.855 160.168 209.508 159.474 209.051 158.991C208.594 158.509 208.061 158.268 207.451 158.268ZM248.432 157.125H241.906V155.5H248.432V157.125ZM251.885 166.875H231.344V165.225H251.885V166.875ZM243.049 166.012H241.068V160.68H243.049V166.012ZM249.549 156.465C249.549 157.548 249.511 158.623 249.435 159.689C249.358 160.747 249.176 161.958 248.889 163.32L246.934 163.066C247.137 162.135 247.289 161.268 247.391 160.464C247.492 159.66 247.551 158.97 247.568 158.395C247.585 157.819 247.594 157.201 247.594 156.541V156.465V155.5H249.549V156.465ZM249.32 176.93H247.289V170.912H233.578V169.287H249.32V176.93ZM239.139 157.125H233.121V155.5H239.139V157.125ZM240.002 156.363C239.993 157.023 239.968 157.662 239.926 158.28C239.892 158.898 239.799 159.647 239.646 160.527C239.494 161.408 239.266 162.347 238.961 163.346L237.057 163.066C237.353 162.068 237.573 161.145 237.717 160.299C237.869 159.452 237.962 158.737 237.996 158.153C238.03 157.561 238.047 156.964 238.047 156.363V156.262V155.5H240.002V156.262V156.363ZM267.678 159.182C267.678 160.451 267.411 161.636 266.878 162.736C266.345 163.837 265.596 164.789 264.631 165.593C263.666 166.397 262.557 167.002 261.305 167.408L260.314 165.834C261.432 165.495 262.426 164.992 263.298 164.323C264.17 163.655 264.847 162.88 265.329 162C265.812 161.111 266.053 160.172 266.053 159.182V158.217H267.678V159.182ZM268.008 159.182C268.008 160.096 268.245 160.963 268.719 161.784C269.193 162.605 269.849 163.333 270.687 163.968C271.533 164.594 272.51 165.072 273.619 165.402L272.68 166.977C271.427 166.587 270.327 166.007 269.379 165.237C268.431 164.467 267.695 163.566 267.17 162.533C266.645 161.492 266.383 160.375 266.383 159.182V158.217H268.008V159.182ZM273.111 158.775H260.949V157.176H273.111V158.775ZM268.059 157.811H266.053V154.383H268.059V157.811ZM277.961 167.865H275.98V154.484H277.961V167.865ZM281.363 161.898H277.402V160.223H281.363V161.898ZM277.961 176.752H263.717V168.906H277.961V176.752ZM265.672 175.127H275.98V170.48H265.672V175.127ZM300 161.213H293.043V159.537H300V161.213ZM300 168.348H293.043V166.697H300V168.348ZM288.854 156.236C289.945 156.236 290.919 156.558 291.773 157.201C292.637 157.844 293.305 158.763 293.779 159.956C294.253 161.149 294.49 162.533 294.49 164.107C294.49 165.69 294.253 167.074 293.779 168.259C293.305 169.435 292.637 170.345 291.773 170.988C290.919 171.632 289.945 171.953 288.854 171.953C287.745 171.953 286.759 171.632 285.896 170.988C285.041 170.345 284.376 169.435 283.902 168.259C283.428 167.074 283.191 165.69 283.191 164.107C283.191 162.533 283.428 161.149 283.902 159.956C284.376 158.763 285.041 157.844 285.896 157.201C286.759 156.558 287.745 156.236 288.854 156.236ZM288.854 158.014C288.117 158.014 287.465 158.268 286.898 158.775C286.34 159.283 285.9 159.998 285.578 160.921C285.257 161.835 285.096 162.897 285.096 164.107C285.096 165.318 285.257 166.384 285.578 167.307C285.9 168.221 286.34 168.927 286.898 169.427C287.465 169.926 288.117 170.176 288.854 170.176C289.581 170.176 290.233 169.926 290.809 169.427C291.384 168.927 291.828 168.216 292.142 167.294C292.455 166.371 292.611 165.309 292.611 164.107C292.611 162.906 292.455 161.843 292.142 160.921C291.828 159.998 291.384 159.283 290.809 158.775C290.233 158.268 289.581 158.014 288.854 158.014ZM301.498 177.107H299.518V154.484H301.498V177.107ZM316.529 160.02H305.205V158.395H316.529V160.02ZM310.867 161.543C311.807 161.543 312.645 161.763 313.381 162.203C314.126 162.643 314.705 163.253 315.12 164.031C315.543 164.801 315.759 165.682 315.768 166.672C315.759 167.671 315.543 168.559 315.12 169.338C314.705 170.117 314.126 170.73 313.381 171.179C312.645 171.627 311.807 171.852 310.867 171.852C309.945 171.852 309.111 171.627 308.366 171.179C307.63 170.73 307.054 170.117 306.64 169.338C306.225 168.559 306.018 167.671 306.018 166.672C306.018 165.69 306.229 164.81 306.652 164.031C307.076 163.253 307.651 162.643 308.379 162.203C309.115 161.763 309.945 161.543 310.867 161.543ZM310.867 163.219C310.275 163.227 309.746 163.384 309.28 163.688C308.815 163.985 308.451 164.395 308.188 164.92C307.926 165.436 307.795 166.02 307.795 166.672C307.795 167.332 307.926 167.92 308.188 168.437C308.451 168.953 308.815 169.359 309.28 169.655C309.746 169.951 310.275 170.1 310.867 170.1C311.46 170.1 311.993 169.951 312.467 169.655C312.941 169.359 313.313 168.953 313.584 168.437C313.855 167.92 313.99 167.332 313.99 166.672C313.99 166.02 313.855 165.436 313.584 164.92C313.313 164.395 312.941 163.985 312.467 163.688C311.993 163.384 311.46 163.227 310.867 163.219ZM324.477 177.057H322.572V154.484H324.477V177.057ZM323.207 165.656H318.891V164.006H323.207V165.656ZM319.576 175.939H317.697V155.043H319.576V175.939ZM311.883 159.385H309.902V155.17H311.883V159.385ZM348.395 174.162H327.727V172.512H348.395V174.162ZM338.975 173.02H337.02V167.053H338.975V173.02ZM332.17 160.172H343.9V156.084H345.855V167.637H330.164V156.084H332.17V160.172ZM343.9 166.012V161.797H332.17V166.012H343.9ZM363.604 164.285H359.16V162.584H363.604V164.285ZM356.545 160.984C356.545 162.533 356.329 164.044 355.897 165.517C355.466 166.981 354.844 168.297 354.031 169.465C353.227 170.624 352.288 171.53 351.213 172.182L349.943 170.684C350.959 170.091 351.848 169.279 352.609 168.246C353.371 167.214 353.955 166.071 354.361 164.818C354.768 163.557 354.971 162.279 354.971 160.984V156.617H356.545V160.984ZM356.9 160.908C356.9 162.118 357.091 163.325 357.472 164.526C357.853 165.72 358.398 166.812 359.109 167.802C359.829 168.792 360.675 169.575 361.648 170.15L360.506 171.699C359.439 171.056 358.517 170.163 357.738 169.021C356.96 167.878 356.367 166.604 355.961 165.199C355.563 163.794 355.368 162.364 355.377 160.908V156.617H356.9V160.908ZM369.545 177.057H367.615V154.484H369.545V177.057ZM364.873 175.914H362.994V154.967H364.873V175.914ZM379.752 172.893H377.797V166.139H379.752V172.893ZM388.207 172.893H386.201V166.139H388.207V172.893ZM393.336 174.162H372.668V172.486H393.336V174.162ZM382.951 155.906C384.551 155.915 385.973 156.16 387.217 156.643C388.469 157.117 389.447 157.798 390.149 158.687C390.852 159.567 391.203 160.578 391.203 161.721C391.203 162.872 390.852 163.883 390.149 164.755C389.447 165.627 388.469 166.304 387.217 166.786C385.973 167.269 384.551 167.51 382.951 167.51C381.352 167.51 379.925 167.269 378.673 166.786C377.429 166.304 376.455 165.627 375.753 164.755C375.05 163.883 374.699 162.872 374.699 161.721C374.699 160.578 375.05 159.567 375.753 158.687C376.455 157.798 377.429 157.117 378.673 156.643C379.925 156.16 381.352 155.915 382.951 155.906ZM382.951 157.557C381.724 157.548 380.628 157.717 379.663 158.064C378.707 158.403 377.962 158.89 377.429 159.524C376.896 160.159 376.629 160.891 376.629 161.721C376.629 162.55 376.896 163.282 377.429 163.917C377.962 164.552 378.707 165.047 379.663 165.402C380.628 165.758 381.724 165.936 382.951 165.936C384.17 165.936 385.257 165.758 386.214 165.402C387.17 165.047 387.919 164.552 388.461 163.917C389.003 163.282 389.273 162.55 389.273 161.721C389.273 160.891 389.003 160.159 388.461 159.524C387.919 158.89 387.17 158.403 386.214 158.064C385.257 157.717 384.17 157.548 382.951 157.557ZM398.617 169.82H396.484L396.307 156.617H398.795L398.617 169.82ZM397.551 175.152C397.255 175.152 396.979 175.076 396.726 174.924C396.48 174.771 396.281 174.573 396.129 174.327C395.985 174.073 395.917 173.798 395.926 173.502C395.917 173.214 395.985 172.943 396.129 172.689C396.281 172.436 396.48 172.237 396.726 172.093C396.979 171.949 397.255 171.877 397.551 171.877C397.847 171.877 398.118 171.949 398.363 172.093C398.617 172.237 398.816 172.436 398.96 172.689C399.104 172.943 399.176 173.214 399.176 173.502C399.176 173.798 399.104 174.073 398.96 174.327C398.816 174.573 398.617 174.771 398.363 174.924C398.118 175.076 397.847 175.152 397.551 175.152Z" fill="#0E0E0E"/>
<defs>
<filter id="filter0_b_624_40" x="-49.896" y="-49.896" width="615.248" height="347.408" filterUnits="userSpaceOnUse" color-interpolation-filters="sRGB">
<feFlood flood-opacity="0" result="BackgroundImageFix"/>
<feGaussianBlur in="BackgroundImageFix" stdDeviation="24.948"/>
<feComposite in2="SourceAlpha" operator="in" result="effect1_backgroundBlur_624_40"/>
<feBlend mode="normal" in="SourceGraphic" in2="effect1_backgroundBlur_624_40" result="shape"/>
</filter>
</defs>
</svg>