<svg xmlns="http://www.w3.org/2000/svg" width="593" height="245" viewBox="0 0 593 245" fill="none">
<g filter="url(#filter0_b_359_1858)">
<path fill-rule="evenodd" clip-rule="evenodd" d="M102.5 1C46.4431 1 1 46.4431 1 102.5C1 158.557 46.4431 204 102.5 204H485.785C486.478 204 487.131 204.282 487.61 204.783C503.968 221.887 535.232 239.345 589.276 243.234C592.254 243.449 593.108 238.334 590.331 237.24C569.348 228.969 545.652 214.415 538.614 192.983C538.255 191.891 538.753 190.714 539.745 190.133C569.81 172.514 590 139.865 590 102.5C590 46.4431 544.557 1 488.5 1H102.5Z" fill="#F6F6F6" fill-opacity="0.5"/>
<path d="M538.614 192.983L537.824 193.242L538.614 192.983ZM539.745 190.133L539.324 189.416L539.324 189.416L539.745 190.133ZM589.276 243.234L589.217 244.064L589.276 243.234ZM590.331 237.24L590.026 238.013L590.331 237.24ZM487.61 204.783L488.211 204.208L487.61 204.783ZM1.8316 102.5C1.8316 46.9024 46.9024 1.8316 102.5 1.8316V0.1684C45.9838 0.1684 0.1684 45.9838 0.1684 102.5H1.8316ZM102.5 203.168C46.9024 203.168 1.8316 158.098 1.8316 102.5H0.1684C0.1684 159.016 45.9838 204.832 102.5 204.832V203.168ZM485.785 203.168H102.5V204.832H485.785V203.168ZM589.336 242.405C535.446 238.527 504.394 221.129 488.211 204.208L487.009 205.358C503.542 222.645 535.019 240.164 589.217 244.064L589.336 242.405ZM537.824 193.242C541.412 204.168 549.227 213.291 558.732 220.703C568.239 228.117 579.485 233.859 590.026 238.013L590.636 236.466C580.193 232.35 569.1 226.679 559.754 219.391C550.406 212.101 542.854 203.23 539.404 192.723L537.824 193.242ZM589.168 102.5C589.168 139.558 569.146 171.939 539.324 189.416L540.165 190.85C570.475 173.088 590.832 140.172 590.832 102.5H589.168ZM488.5 1.8316C544.098 1.8316 589.168 46.9024 589.168 102.5H590.832C590.832 45.9838 545.016 0.1684 488.5 0.1684V1.8316ZM102.5 1.8316H488.5V0.1684H102.5V1.8316ZM539.404 192.723C539.177 192.034 539.483 191.25 540.165 190.85L539.324 189.416C538.023 190.178 537.333 191.748 537.824 193.242L539.404 192.723ZM589.217 244.064C591.315 244.215 592.506 242.469 592.781 240.869C593.057 239.266 592.534 237.214 590.636 236.466L590.026 238.013C590.906 238.36 591.344 239.412 591.142 240.587C590.94 241.764 590.215 242.468 589.336 242.405L589.217 244.064ZM485.785 204.832C486.248 204.832 486.685 205.019 487.009 205.358L488.211 204.208C487.577 203.545 486.707 203.168 485.785 203.168V204.832Z" fill="#F6F6F6"/>
</g>
<defs>
<filter id="filter0_b_359_1858" x="-49.7275" y="-49.7275" width="692.473" height="343.696" filterUnits="userSpaceOnUse" color-interpolation-filters="sRGB">
<feFlood flood-opacity="0" result="BackgroundImageFix"/>
<feGaussianBlur in="BackgroundImageFix" stdDeviation="24.948"/>
<feComposite in2="SourceAlpha" operator="in" result="effect1_backgroundBlur_359_1858"/>
<feBlend mode="normal" in="SourceGraphic" in2="effect1_backgroundBlur_359_1858" result="shape"/>
</filter>
</defs>
</svg>