<svg width="214" height="620" viewBox="0 0 214 620" fill="none" xmlns="http://www.w3.org/2000/svg">
<g filter="url(#filter0_bd_347_1041)">
<rect x="4" width="206" height="612" rx="103" fill="url(#paint0_linear_347_1041)" shape-rendering="crispEdges"/>
</g>
<mask id="path-2-outside-1_347_1041" maskUnits="userSpaceOnUse" x="61" y="62" width="89" height="25" fill="black">
<rect fill="white" x="61" y="62" width="89" height="25"/>
<path d="M80.625 77.0117H65.0859V74.0703H80.625V77.0117ZM82.6992 83.0938H62.918V80.1289H82.6992V83.0938ZM74.6953 81.3828H70.9219V75.5117H74.6953V81.3828ZM80.5078 67.9648H68.9062V75.2305H65.0859V64.9766H80.5078V67.9648ZM79.9688 72.4531H67.8164V69.5469H79.9688V72.4531ZM103.418 78.3594H83.6367V75.3711H103.418V78.3594ZM101.602 85.6602H86.0273V82.6953H101.602V85.6602ZM89.7891 83.6094H86.0273V79.2266H89.7891V83.6094ZM95.3906 76.7773H91.6641V72.4648H95.3906V76.7773ZM101.133 70.4023H89.7539V72.2422H86.0273V67.7891H97.3594V66.8633H86.0039V63.9922H101.133V70.4023ZM101.496 74.1758H86.0273V71.375H101.496V74.1758ZM117.199 68.0469C117.199 69.3594 116.992 70.5703 116.578 71.6797C116.164 72.7812 115.5 73.7422 114.586 74.5625C113.672 75.375 112.5 75.9609 111.07 76.3203L109.312 73.4375C110.484 73.1406 111.438 72.7109 112.172 72.1484C112.906 71.5781 113.43 70.9453 113.742 70.25C114.055 69.5547 114.211 68.8203 114.211 68.0469V67.3555H117.199V68.0469ZM117.961 68.0469C117.961 68.75 118.117 69.4258 118.43 70.0742C118.742 70.7148 119.262 71.3047 119.988 71.8438C120.715 72.375 121.664 72.7852 122.836 73.0742L121.125 75.9688C119.688 75.625 118.504 75.0625 117.574 74.2812C116.652 73.4922 115.977 72.5703 115.547 71.5156C115.117 70.4531 114.906 69.2969 114.914 68.0469V67.3555H117.961V68.0469ZM121.992 68.5156H110.191V65.5742H121.992V68.5156ZM117.984 66.8867H114.211V63.5703H117.984V66.8867ZM126.949 76.2617H123.176V63.6406H126.949V76.2617ZM129.656 71.5273H125.883V68.4805H129.656V71.5273ZM126.949 85.1211H112.477V77.1055H126.949V85.1211ZM116.203 82.1211H123.246V80.0703H116.203V82.1211ZM145.664 70.8477H140.039V67.8594H145.664V70.8477ZM145.664 77.457H140.039V74.4688H145.664V77.457ZM136.406 65.082C137.516 65.082 138.504 65.4023 139.371 66.043C140.246 66.6758 140.926 67.5859 141.41 68.7734C141.902 69.9531 142.148 71.3281 142.148 72.8984C142.148 74.4844 141.902 75.875 141.41 77.0703C140.926 78.2578 140.246 79.1719 139.371 79.8125C138.504 80.4453 137.516 80.7617 136.406 80.7617C135.297 80.7617 134.309 80.4453 133.441 79.8125C132.574 79.1719 131.891 78.2578 131.391 77.0703C130.898 75.875 130.652 74.4844 130.652 72.8984C130.652 71.3281 130.898 69.9531 131.391 68.7734C131.891 67.5859 132.574 66.6758 133.441 66.043C134.309 65.4023 135.297 65.082 136.406 65.082ZM136.406 68.4922C135.977 68.4844 135.602 68.6445 135.281 68.9727C134.961 69.293 134.711 69.7852 134.531 70.4492C134.352 71.1055 134.266 71.9219 134.273 72.8984C134.266 73.8906 134.352 74.7188 134.531 75.3828C134.711 76.0391 134.961 76.5312 135.281 76.8594C135.602 77.1797 135.977 77.3359 136.406 77.3281C136.859 77.3359 137.246 77.1797 137.566 76.8594C137.895 76.5312 138.145 76.0391 138.316 75.3828C138.488 74.7266 138.574 73.8984 138.574 72.8984C138.574 71.9141 138.488 71.0898 138.316 70.4258C138.145 69.7617 137.895 69.2734 137.566 68.9609C137.246 68.6406 136.859 68.4844 136.406 68.4922ZM148.84 85.3906H145.102V63.6406H148.84V85.3906Z"/>
</mask>
<path d="M80.625 77.0117H65.0859V74.0703H80.625V77.0117ZM82.6992 83.0938H62.918V80.1289H82.6992V83.0938ZM74.6953 81.3828H70.9219V75.5117H74.6953V81.3828ZM80.5078 67.9648H68.9062V75.2305H65.0859V64.9766H80.5078V67.9648ZM79.9688 72.4531H67.8164V69.5469H79.9688V72.4531ZM103.418 78.3594H83.6367V75.3711H103.418V78.3594ZM101.602 85.6602H86.0273V82.6953H101.602V85.6602ZM89.7891 83.6094H86.0273V79.2266H89.7891V83.6094ZM95.3906 76.7773H91.6641V72.4648H95.3906V76.7773ZM101.133 70.4023H89.7539V72.2422H86.0273V67.7891H97.3594V66.8633H86.0039V63.9922H101.133V70.4023ZM101.496 74.1758H86.0273V71.375H101.496V74.1758ZM117.199 68.0469C117.199 69.3594 116.992 70.5703 116.578 71.6797C116.164 72.7812 115.5 73.7422 114.586 74.5625C113.672 75.375 112.5 75.9609 111.07 76.3203L109.312 73.4375C110.484 73.1406 111.438 72.7109 112.172 72.1484C112.906 71.5781 113.43 70.9453 113.742 70.25C114.055 69.5547 114.211 68.8203 114.211 68.0469V67.3555H117.199V68.0469ZM117.961 68.0469C117.961 68.75 118.117 69.4258 118.43 70.0742C118.742 70.7148 119.262 71.3047 119.988 71.8438C120.715 72.375 121.664 72.7852 122.836 73.0742L121.125 75.9688C119.688 75.625 118.504 75.0625 117.574 74.2812C116.652 73.4922 115.977 72.5703 115.547 71.5156C115.117 70.4531 114.906 69.2969 114.914 68.0469V67.3555H117.961V68.0469ZM121.992 68.5156H110.191V65.5742H121.992V68.5156ZM117.984 66.8867H114.211V63.5703H117.984V66.8867ZM126.949 76.2617H123.176V63.6406H126.949V76.2617ZM129.656 71.5273H125.883V68.4805H129.656V71.5273ZM126.949 85.1211H112.477V77.1055H126.949V85.1211ZM116.203 82.1211H123.246V80.0703H116.203V82.1211ZM145.664 70.8477H140.039V67.8594H145.664V70.8477ZM145.664 77.457H140.039V74.4688H145.664V77.457ZM136.406 65.082C137.516 65.082 138.504 65.4023 139.371 66.043C140.246 66.6758 140.926 67.5859 141.41 68.7734C141.902 69.9531 142.148 71.3281 142.148 72.8984C142.148 74.4844 141.902 75.875 141.41 77.0703C140.926 78.2578 140.246 79.1719 139.371 79.8125C138.504 80.4453 137.516 80.7617 136.406 80.7617C135.297 80.7617 134.309 80.4453 133.441 79.8125C132.574 79.1719 131.891 78.2578 131.391 77.0703C130.898 75.875 130.652 74.4844 130.652 72.8984C130.652 71.3281 130.898 69.9531 131.391 68.7734C131.891 67.5859 132.574 66.6758 133.441 66.043C134.309 65.4023 135.297 65.082 136.406 65.082ZM136.406 68.4922C135.977 68.4844 135.602 68.6445 135.281 68.9727C134.961 69.293 134.711 69.7852 134.531 70.4492C134.352 71.1055 134.266 71.9219 134.273 72.8984C134.266 73.8906 134.352 74.7188 134.531 75.3828C134.711 76.0391 134.961 76.5312 135.281 76.8594C135.602 77.1797 135.977 77.3359 136.406 77.3281C136.859 77.3359 137.246 77.1797 137.566 76.8594C137.895 76.5312 138.145 76.0391 138.316 75.3828C138.488 74.7266 138.574 73.8984 138.574 72.8984C138.574 71.9141 138.488 71.0898 138.316 70.4258C138.145 69.7617 137.895 69.2734 137.566 68.9609C137.246 68.6406 136.859 68.4844 136.406 68.4922ZM148.84 85.3906H145.102V63.6406H148.84V85.3906Z" fill="#F6F6F6"/>
<path d="M80.625 77.0117V78.0117H81.625V77.0117H80.625ZM65.0859 77.0117H64.0859V78.0117H65.0859V77.0117ZM65.0859 74.0703V73.0703H64.0859V74.0703H65.0859ZM80.625 74.0703H81.625V73.0703H80.625V74.0703ZM82.6992 83.0938V84.0938H83.6992V83.0938H82.6992ZM62.918 83.0938H61.918V84.0938H62.918V83.0938ZM62.918 80.1289V79.1289H61.918V80.1289H62.918ZM82.6992 80.1289H83.6992V79.1289H82.6992V80.1289ZM74.6953 81.3828V82.3828H75.6953V81.3828H74.6953ZM70.9219 81.3828H69.9219V82.3828H70.9219V81.3828ZM70.9219 75.5117V74.5117H69.9219V75.5117H70.9219ZM74.6953 75.5117H75.6953V74.5117H74.6953V75.5117ZM80.5078 67.9648V68.9648H81.5078V67.9648H80.5078ZM68.9062 67.9648V66.9648H67.9062V67.9648H68.9062ZM68.9062 75.2305V76.2305H69.9062V75.2305H68.9062ZM65.0859 75.2305H64.0859V76.2305H65.0859V75.2305ZM65.0859 64.9766V63.9766H64.0859V64.9766H65.0859ZM80.5078 64.9766H81.5078V63.9766H80.5078V64.9766ZM79.9688 72.4531V73.4531H80.9688V72.4531H79.9688ZM67.8164 72.4531H66.8164V73.4531H67.8164V72.4531ZM67.8164 69.5469V68.5469H66.8164V69.5469H67.8164ZM79.9688 69.5469H80.9688V68.5469H79.9688V69.5469ZM80.625 76.0117H65.0859V78.0117H80.625V76.0117ZM66.0859 77.0117V74.0703H64.0859V77.0117H66.0859ZM65.0859 75.0703H80.625V73.0703H65.0859V75.0703ZM79.625 74.0703V77.0117H81.625V74.0703H79.625ZM82.6992 82.0938H62.918V84.0938H82.6992V82.0938ZM63.918 83.0938V80.1289H61.918V83.0938H63.918ZM62.918 81.1289H82.6992V79.1289H62.918V81.1289ZM81.6992 80.1289V83.0938H83.6992V80.1289H81.6992ZM74.6953 80.3828H70.9219V82.3828H74.6953V80.3828ZM71.9219 81.3828V75.5117H69.9219V81.3828H71.9219ZM70.9219 76.5117H74.6953V74.5117H70.9219V76.5117ZM73.6953 75.5117V81.3828H75.6953V75.5117H73.6953ZM80.5078 66.9648H68.9062V68.9648H80.5078V66.9648ZM67.9062 67.9648V75.2305H69.9062V67.9648H67.9062ZM68.9062 74.2305H65.0859V76.2305H68.9062V74.2305ZM66.0859 75.2305V64.9766H64.0859V75.2305H66.0859ZM65.0859 65.9766H80.5078V63.9766H65.0859V65.9766ZM79.5078 64.9766V67.9648H81.5078V64.9766H79.5078ZM79.9688 71.4531H67.8164V73.4531H79.9688V71.4531ZM68.8164 72.4531V69.5469H66.8164V72.4531H68.8164ZM67.8164 70.5469H79.9688V68.5469H67.8164V70.5469ZM78.9688 69.5469V72.4531H80.9688V69.5469H78.9688ZM103.418 78.3594V79.3594H104.418V78.3594H103.418ZM83.6367 78.3594H82.6367V79.3594H83.6367V78.3594ZM83.6367 75.3711V74.3711H82.6367V75.3711H83.6367ZM103.418 75.3711H104.418V74.3711H103.418V75.3711ZM101.602 85.6602V86.6602H102.602V85.6602H101.602ZM86.0273 85.6602H85.0273V86.6602H86.0273V85.6602ZM86.0273 82.6953V81.6953H85.0273V82.6953H86.0273ZM101.602 82.6953H102.602V81.6953H101.602V82.6953ZM89.7891 83.6094V84.6094H90.7891V83.6094H89.7891ZM86.0273 83.6094H85.0273V84.6094H86.0273V83.6094ZM86.0273 79.2266V78.2266H85.0273V79.2266H86.0273ZM89.7891 79.2266H90.7891V78.2266H89.7891V79.2266ZM95.3906 76.7773V77.7773H96.3906V76.7773H95.3906ZM91.6641 76.7773H90.6641V77.7773H91.6641V76.7773ZM91.6641 72.4648V71.4648H90.6641V72.4648H91.6641ZM95.3906 72.4648H96.3906V71.4648H95.3906V72.4648ZM101.133 70.4023V71.4023H102.133V70.4023H101.133ZM89.7539 70.4023V69.4023H88.7539V70.4023H89.7539ZM89.7539 72.2422V73.2422H90.7539V72.2422H89.7539ZM86.0273 72.2422H85.0273V73.2422H86.0273V72.2422ZM86.0273 67.7891V66.7891H85.0273V67.7891H86.0273ZM97.3594 67.7891V68.7891H98.3594V67.7891H97.3594ZM97.3594 66.8633H98.3594V65.8633H97.3594V66.8633ZM86.0039 66.8633H85.0039V67.8633H86.0039V66.8633ZM86.0039 63.9922V62.9922H85.0039V63.9922H86.0039ZM101.133 63.9922H102.133V62.9922H101.133V63.9922ZM101.496 74.1758V75.1758H102.496V74.1758H101.496ZM86.0273 74.1758H85.0273V75.1758H86.0273V74.1758ZM86.0273 71.375V70.375H85.0273V71.375H86.0273ZM101.496 71.375H102.496V70.375H101.496V71.375ZM103.418 77.3594H83.6367V79.3594H103.418V77.3594ZM84.6367 78.3594V75.3711H82.6367V78.3594H84.6367ZM83.6367 76.3711H103.418V74.3711H83.6367V76.3711ZM102.418 75.3711V78.3594H104.418V75.3711H102.418ZM101.602 84.6602H86.0273V86.6602H101.602V84.6602ZM87.0273 85.6602V82.6953H85.0273V85.6602H87.0273ZM86.0273 83.6953H101.602V81.6953H86.0273V83.6953ZM100.602 82.6953V85.6602H102.602V82.6953H100.602ZM89.7891 82.6094H86.0273V84.6094H89.7891V82.6094ZM87.0273 83.6094V79.2266H85.0273V83.6094H87.0273ZM86.0273 80.2266H89.7891V78.2266H86.0273V80.2266ZM88.7891 79.2266V83.6094H90.7891V79.2266H88.7891ZM95.3906 75.7773H91.6641V77.7773H95.3906V75.7773ZM92.6641 76.7773V72.4648H90.6641V76.7773H92.6641ZM91.6641 73.4648H95.3906V71.4648H91.6641V73.4648ZM94.3906 72.4648V76.7773H96.3906V72.4648H94.3906ZM101.133 69.4023H89.7539V71.4023H101.133V69.4023ZM88.7539 70.4023V72.2422H90.7539V70.4023H88.7539ZM89.7539 71.2422H86.0273V73.2422H89.7539V71.2422ZM87.0273 72.2422V67.7891H85.0273V72.2422H87.0273ZM86.0273 68.7891H97.3594V66.7891H86.0273V68.7891ZM98.3594 67.7891V66.8633H96.3594V67.7891H98.3594ZM97.3594 65.8633H86.0039V67.8633H97.3594V65.8633ZM87.0039 66.8633V63.9922H85.0039V66.8633H87.0039ZM86.0039 64.9922H101.133V62.9922H86.0039V64.9922ZM100.133 63.9922V70.4023H102.133V63.9922H100.133ZM101.496 73.1758H86.0273V75.1758H101.496V73.1758ZM87.0273 74.1758V71.375H85.0273V74.1758H87.0273ZM86.0273 72.375H101.496V70.375H86.0273V72.375ZM100.496 71.375V74.1758H102.496V71.375H100.496ZM116.578 71.6797L117.514 72.0315L117.515 72.0294L116.578 71.6797ZM114.586 74.5625L115.25 75.3099L115.254 75.3067L114.586 74.5625ZM111.07 76.3203L110.217 76.8409L110.6 77.4697L111.314 77.2901L111.07 76.3203ZM109.312 73.4375L109.067 72.4681L107.753 72.801L108.459 73.9581L109.312 73.4375ZM112.172 72.1484L112.78 72.9423L112.785 72.9382L112.172 72.1484ZM114.211 67.3555V66.3555H113.211V67.3555H114.211ZM117.199 67.3555H118.199V66.3555H117.199V67.3555ZM118.43 70.0742L117.529 70.5084L117.531 70.5126L118.43 70.0742ZM119.988 71.8438L119.392 72.6469L119.398 72.651L119.988 71.8438ZM122.836 73.0742L123.697 73.5831L124.381 72.4254L123.075 72.1033L122.836 73.0742ZM121.125 75.9688L120.892 76.9413L121.61 77.113L121.986 76.4776L121.125 75.9688ZM117.574 74.2812L116.924 75.041L116.931 75.0468L117.574 74.2812ZM115.547 71.5156L114.62 71.8905L114.621 71.8929L115.547 71.5156ZM114.914 68.0469L115.914 68.0531V68.0469H114.914ZM114.914 67.3555V66.3555H113.914V67.3555H114.914ZM117.961 67.3555H118.961V66.3555H117.961V67.3555ZM121.992 68.5156V69.5156H122.992V68.5156H121.992ZM110.191 68.5156H109.191V69.5156H110.191V68.5156ZM110.191 65.5742V64.5742H109.191V65.5742H110.191ZM121.992 65.5742H122.992V64.5742H121.992V65.5742ZM117.984 66.8867V67.8867H118.984V66.8867H117.984ZM114.211 66.8867H113.211V67.8867H114.211V66.8867ZM114.211 63.5703V62.5703H113.211V63.5703H114.211ZM117.984 63.5703H118.984V62.5703H117.984V63.5703ZM126.949 76.2617V77.2617H127.949V76.2617H126.949ZM123.176 76.2617H122.176V77.2617H123.176V76.2617ZM123.176 63.6406V62.6406H122.176V63.6406H123.176ZM126.949 63.6406H127.949V62.6406H126.949V63.6406ZM129.656 71.5273V72.5273H130.656V71.5273H129.656ZM125.883 71.5273H124.883V72.5273H125.883V71.5273ZM125.883 68.4805V67.4805H124.883V68.4805H125.883ZM129.656 68.4805H130.656V67.4805H129.656V68.4805ZM126.949 85.1211V86.1211H127.949V85.1211H126.949ZM112.477 85.1211H111.477V86.1211H112.477V85.1211ZM112.477 77.1055V76.1055H111.477V77.1055H112.477ZM126.949 77.1055H127.949V76.1055H126.949V77.1055ZM116.203 82.1211H115.203V83.1211H116.203V82.1211ZM123.246 82.1211V83.1211H124.246V82.1211H123.246ZM123.246 80.0703H124.246V79.0703H123.246V80.0703ZM116.203 80.0703V79.0703H115.203V80.0703H116.203ZM116.199 68.0469C116.199 69.2529 116.009 70.344 115.641 71.33L117.515 72.0294C117.975 70.7967 118.199 69.4659 118.199 68.0469H116.199ZM115.642 71.3278C115.287 72.2723 114.718 73.1005 113.918 73.8183L115.254 75.3067C116.282 74.3839 117.041 73.2902 117.514 72.0315L115.642 71.3278ZM113.922 73.8151C113.15 74.5009 112.132 75.0223 110.827 75.3505L111.314 77.2901C112.868 76.8995 114.194 76.2491 115.25 75.3099L113.922 73.8151ZM111.924 75.7997L110.166 72.9169L108.459 73.9581L110.217 76.8409L111.924 75.7997ZM109.558 74.4069C110.823 74.0864 111.91 73.6084 112.78 72.9423L111.564 71.3546C110.965 71.8135 110.146 72.1948 109.067 72.4681L109.558 74.4069ZM112.785 72.9382C113.621 72.2894 114.262 71.5338 114.654 70.6599L112.83 69.8401C112.598 70.3569 112.192 70.8668 111.559 71.3586L112.785 72.9382ZM114.654 70.6599C115.026 69.8338 115.211 68.9595 115.211 68.0469H113.211C113.211 68.6811 113.084 69.2756 112.83 69.8401L114.654 70.6599ZM115.211 68.0469V67.3555H113.211V68.0469H115.211ZM114.211 68.3555H117.199V66.3555H114.211V68.3555ZM116.199 67.3555V68.0469H118.199V67.3555H116.199ZM116.961 68.0469C116.961 68.904 117.153 69.7278 117.529 70.5084L119.331 69.6401C119.082 69.1237 118.961 68.596 118.961 68.0469H116.961ZM117.531 70.5126C117.93 71.3309 118.571 72.0373 119.392 72.6468L120.584 71.0407C119.953 70.572 119.554 70.0988 119.328 69.6358L117.531 70.5126ZM119.398 72.651C120.259 73.2805 121.339 73.7349 122.596 74.0451L123.075 72.1033C121.989 71.8354 121.171 71.4695 120.579 71.0365L119.398 72.651ZM121.975 72.5654L120.264 75.4599L121.986 76.4776L123.697 73.5831L121.975 72.5654ZM121.358 74.9962C120.039 74.6808 119.005 74.1775 118.218 73.5157L116.931 75.0468C118.003 75.9475 119.336 76.5692 120.892 76.9413L121.358 74.9962ZM118.224 73.5215C117.416 72.8292 116.839 72.0358 116.473 71.1383L114.621 71.8929C115.115 73.1049 115.889 74.1552 116.924 75.041L118.224 73.5215ZM116.474 71.1407C116.097 70.2099 115.907 69.1844 115.914 68.0531L113.914 68.0406C113.906 69.4093 114.137 70.6964 114.62 71.8905L116.474 71.1407ZM115.914 68.0469V67.3555H113.914V68.0469H115.914ZM114.914 68.3555H117.961V66.3555H114.914V68.3555ZM116.961 67.3555V68.0469H118.961V67.3555H116.961ZM121.992 67.5156H110.191V69.5156H121.992V67.5156ZM111.191 68.5156V65.5742H109.191V68.5156H111.191ZM110.191 66.5742H121.992V64.5742H110.191V66.5742ZM120.992 65.5742V68.5156H122.992V65.5742H120.992ZM117.984 65.8867H114.211V67.8867H117.984V65.8867ZM115.211 66.8867V63.5703H113.211V66.8867H115.211ZM114.211 64.5703H117.984V62.5703H114.211V64.5703ZM116.984 63.5703V66.8867H118.984V63.5703H116.984ZM126.949 75.2617H123.176V77.2617H126.949V75.2617ZM124.176 76.2617V63.6406H122.176V76.2617H124.176ZM123.176 64.6406H126.949V62.6406H123.176V64.6406ZM125.949 63.6406V76.2617H127.949V63.6406H125.949ZM129.656 70.5273H125.883V72.5273H129.656V70.5273ZM126.883 71.5273V68.4805H124.883V71.5273H126.883ZM125.883 69.4805H129.656V67.4805H125.883V69.4805ZM128.656 68.4805V71.5273H130.656V68.4805H128.656ZM126.949 84.1211H112.477V86.1211H126.949V84.1211ZM113.477 85.1211V77.1055H111.477V85.1211H113.477ZM112.477 78.1055H126.949V76.1055H112.477V78.1055ZM125.949 77.1055V85.1211H127.949V77.1055H125.949ZM116.203 83.1211H123.246V81.1211H116.203V83.1211ZM124.246 82.1211V80.0703H122.246V82.1211H124.246ZM123.246 79.0703H116.203V81.0703H123.246V79.0703ZM115.203 80.0703V82.1211H117.203V80.0703H115.203ZM145.664 70.8477V71.8477H146.664V70.8477H145.664ZM140.039 70.8477H139.039V71.8477H140.039V70.8477ZM140.039 67.8594V66.8594H139.039V67.8594H140.039ZM145.664 67.8594H146.664V66.8594H145.664V67.8594ZM145.664 77.457V78.457H146.664V77.457H145.664ZM140.039 77.457H139.039V78.457H140.039V77.457ZM140.039 74.4688V73.4688H139.039V74.4688H140.039ZM145.664 74.4688H146.664V73.4688H145.664V74.4688ZM139.371 66.043L138.777 66.8473L138.785 66.8533L139.371 66.043ZM141.41 68.7734L140.484 69.1511L140.487 69.1585L141.41 68.7734ZM141.41 77.0703L140.485 76.6896L140.484 76.6926L141.41 77.0703ZM139.371 79.8125L139.961 80.6203L139.962 80.6194L139.371 79.8125ZM133.441 79.8125L132.847 80.6168L132.852 80.6203L133.441 79.8125ZM131.391 77.0703L130.466 77.4511L130.469 77.4584L131.391 77.0703ZM131.391 68.7734L130.469 68.3854L130.468 68.3884L131.391 68.7734ZM133.441 66.043L134.031 66.8508L134.036 66.8473L133.441 66.043ZM136.406 68.4922L136.388 69.492L136.406 69.4923L136.423 69.492L136.406 68.4922ZM135.281 68.9727L135.988 69.6798L135.997 69.6712L135.281 68.9727ZM134.531 70.4492L135.496 70.7133L135.497 70.7104L134.531 70.4492ZM134.273 72.8984L135.273 72.9063L135.273 72.8984L135.273 72.8904L134.273 72.8984ZM134.531 75.3828L133.566 75.644L133.567 75.6469L134.531 75.3828ZM135.281 76.8594L134.566 77.558L134.574 77.5665L135.281 76.8594ZM136.406 77.3281L136.423 76.3283L136.406 76.328L136.388 76.3283L136.406 77.3281ZM137.566 68.9609L136.859 69.668L136.868 69.6767L136.877 69.6851L137.566 68.9609ZM148.84 85.3906V86.3906H149.84V85.3906H148.84ZM145.102 85.3906H144.102V86.3906H145.102V85.3906ZM145.102 63.6406V62.6406H144.102V63.6406H145.102ZM148.84 63.6406H149.84V62.6406H148.84V63.6406ZM145.664 69.8477H140.039V71.8477H145.664V69.8477ZM141.039 70.8477V67.8594H139.039V70.8477H141.039ZM140.039 68.8594H145.664V66.8594H140.039V68.8594ZM144.664 67.8594V70.8477H146.664V67.8594H144.664ZM145.664 76.457H140.039V78.457H145.664V76.457ZM141.039 77.457V74.4688H139.039V77.457H141.039ZM140.039 75.4688H145.664V73.4688H140.039V75.4688ZM144.664 74.4688V77.457H146.664V74.4688H144.664ZM136.406 66.082C137.308 66.082 138.087 66.3377 138.777 66.8473L139.965 65.2386C138.921 64.467 137.723 64.082 136.406 64.082V66.082ZM138.785 66.8533C139.482 67.3574 140.057 68.1039 140.484 69.1511L142.336 68.3958C141.794 67.068 141.01 65.9942 139.957 65.2327L138.785 66.8533ZM140.487 69.1585C140.918 70.1917 141.148 71.431 141.148 72.8984H143.148C143.148 71.2253 142.886 69.7145 142.333 68.3884L140.487 69.1585ZM141.148 72.8984C141.148 74.3825 140.918 75.6391 140.485 76.6896L142.335 77.4511C142.887 76.1109 143.148 74.5862 143.148 72.8984H141.148ZM140.484 76.6926C140.057 77.7405 139.481 78.4929 138.78 79.0056L139.962 80.6194C141.011 79.8509 141.795 78.7752 142.336 77.448L140.484 76.6926ZM138.782 79.0047C138.092 79.5082 137.311 79.7617 136.406 79.7617V81.7617C137.72 81.7617 138.916 81.3824 139.961 80.6203L138.782 79.0047ZM136.406 79.7617C135.501 79.7617 134.721 79.5082 134.031 79.0047L132.852 80.6203C133.896 81.3824 135.093 81.7617 136.406 81.7617V79.7617ZM134.036 79.0082C133.339 78.4935 132.756 77.7366 132.312 76.6823L130.469 77.4584C131.025 78.7791 131.81 79.8502 132.847 80.6168L134.036 79.0082ZM132.315 76.6896C131.883 75.6391 131.652 74.3825 131.652 72.8984H129.652C129.652 74.5862 129.914 76.1109 130.466 77.4511L132.315 76.6896ZM131.652 72.8984C131.652 71.431 131.882 70.1917 132.314 69.1585L130.468 68.3884C129.914 69.7145 129.652 71.2253 129.652 72.8984H131.652ZM132.312 69.1615C132.756 68.1078 133.337 67.3568 134.031 66.8508L132.852 65.2352C131.811 65.9948 131.025 67.0641 130.469 68.3854L132.312 69.1615ZM134.036 66.8473C134.725 66.3377 135.504 66.082 136.406 66.082V64.082C135.09 64.082 133.892 64.467 132.847 65.2386L134.036 66.8473ZM136.424 67.4924C135.699 67.4792 135.064 67.7635 134.566 68.2741L135.997 69.6712C136.139 69.5256 136.254 69.4896 136.388 69.492L136.424 67.4924ZM134.574 68.2655C134.082 68.7574 133.769 69.4359 133.566 70.188L135.497 70.7104C135.652 70.1344 135.84 69.8286 135.988 69.6798L134.574 68.2655ZM133.567 70.1851C133.355 70.9593 133.265 71.8743 133.273 72.9064L135.273 72.8904C135.266 71.9695 135.348 71.2517 135.496 70.7133L133.567 70.1851ZM133.273 72.8906C133.265 73.9372 133.355 74.863 133.566 75.644L135.497 75.1216C135.349 74.5745 135.266 73.844 135.273 72.9063L133.273 72.8906ZM133.567 75.6469C133.771 76.3934 134.083 77.0637 134.566 77.5579L135.997 76.1608C135.839 75.9988 135.651 75.6847 135.496 75.1187L133.567 75.6469ZM134.574 77.5665C135.075 78.0672 135.707 78.341 136.424 78.328L136.388 76.3283C136.246 76.3309 136.128 76.2922 135.988 76.1523L134.574 77.5665ZM136.389 78.328C137.113 78.3405 137.761 78.0787 138.274 77.5665L136.859 76.1523C136.731 76.2807 136.606 76.3314 136.423 76.3283L136.389 78.328ZM138.274 77.5665C138.772 77.0679 139.086 76.3899 139.284 75.6362L137.349 75.1295C137.203 75.6883 137.017 75.9946 136.859 76.1523L138.274 77.5665ZM139.284 75.6362C139.485 74.8682 139.574 73.9476 139.574 72.8984H137.574C137.574 73.8493 137.492 74.5849 137.349 75.1295L139.284 75.6362ZM139.574 72.8984C139.574 71.8628 139.485 70.9481 139.285 70.1752L137.348 70.6763C137.492 71.2316 137.574 71.9653 137.574 72.8984H139.574ZM139.285 70.1752C139.088 69.4166 138.772 68.7281 138.256 68.2368L136.877 69.6851C137.017 69.8188 137.201 70.1068 137.348 70.6763L139.285 70.1752ZM138.274 68.2538C137.761 67.7417 137.113 67.4799 136.389 67.4923L136.423 69.492C136.606 69.4889 136.731 69.5396 136.859 69.668L138.274 68.2538ZM148.84 84.3906H145.102V86.3906H148.84V84.3906ZM146.102 85.3906V63.6406H144.102V85.3906H146.102ZM145.102 64.6406H148.84V62.6406H145.102V64.6406ZM147.84 63.6406V85.3906H149.84V63.6406H147.84Z" fill="black" mask="url(#path-2-outside-1_347_1041)"/>
<path d="M33.3516 162L38.5273 147.859H40.3828L45.5586 162H43.7031L39.5039 150.145H39.3867L35.1875 162H33.3516ZM43.0781 156.473V158.016H35.832V156.473H43.0781ZM49.2305 162H47.4727V147.859H49.2305V162ZM69.9531 163.582H68.4297V146.219H69.9531V163.582ZM72.7656 154.578H69.5625V153.289H72.7656V154.578ZM65.4609 148.094C65.4544 149.78 65.1745 151.375 64.6211 152.879C64.0742 154.376 63.2083 155.76 62.0234 157.029C60.8385 158.292 59.3281 159.376 57.4922 160.281L56.6328 159.07C58.2409 158.27 59.5885 157.329 60.6758 156.248C61.7695 155.161 62.5866 153.956 63.127 152.635C63.6738 151.313 63.9505 149.884 63.957 148.348V148.094H65.4609ZM64.7383 149.383H57.4336V148.094H64.7383V149.383ZM79.3672 148.914C79.3672 150.014 79.1686 151.046 78.7715 152.01C78.3743 152.967 77.8112 153.8 77.082 154.51C76.3594 155.213 75.5195 155.75 74.5625 156.121L73.7422 154.891C74.6016 154.572 75.36 154.113 76.0176 153.514C76.6751 152.908 77.1862 152.212 77.5508 151.424C77.9154 150.636 78.0977 149.799 78.0977 148.914V147.117H79.3672V148.914ZM79.6016 149.031C79.6016 149.806 79.7871 150.555 80.1582 151.277C80.5293 151.993 81.0404 152.625 81.6914 153.172C82.3424 153.719 83.0846 154.135 83.918 154.422L83.0781 155.633C82.1536 155.294 81.3366 154.796 80.627 154.139C79.9173 153.481 79.3607 152.713 78.957 151.834C78.5534 150.955 78.3516 150.021 78.3516 149.031V147.117H79.6016V149.031ZM87.375 156.785H85.8516V146.219H87.375V156.785ZM89.9922 152.039H86.9453V150.75H89.9922V152.039ZM81.8086 157.234C82.9935 157.234 84.0156 157.358 84.875 157.605C85.7344 157.853 86.3919 158.214 86.8477 158.689C87.3034 159.158 87.5312 159.721 87.5312 160.379C87.5312 161.049 87.3034 161.619 86.8477 162.088C86.3919 162.563 85.7344 162.924 84.875 163.172C84.0156 163.419 82.9935 163.543 81.8086 163.543C80.6172 163.543 79.5885 163.419 78.7227 163.172C77.8633 162.924 77.2025 162.563 76.7402 162.088C76.278 161.613 76.0469 161.043 76.0469 160.379C76.0469 159.721 76.278 159.158 76.7402 158.689C77.2025 158.214 77.8665 157.853 78.7324 157.605C79.5983 157.358 80.6237 157.234 81.8086 157.234ZM81.8086 158.465C80.9427 158.465 80.1908 158.543 79.5527 158.699C78.9212 158.855 78.4329 159.077 78.0879 159.363C77.7493 159.65 77.5833 159.988 77.5898 160.379C77.5833 160.783 77.7493 161.131 78.0879 161.424C78.4329 161.717 78.9212 161.941 79.5527 162.098C80.1842 162.254 80.9362 162.332 81.8086 162.332C82.681 162.332 83.4362 162.254 84.0742 162.098C84.7122 161.941 85.2005 161.717 85.5391 161.424C85.8776 161.131 86.0469 160.783 86.0469 160.379C86.0469 159.988 85.8776 159.646 85.5391 159.354C85.2005 159.061 84.709 158.839 84.0645 158.689C83.4264 158.54 82.6745 158.465 81.8086 158.465ZM101.789 147.488C102.688 147.488 103.492 147.661 104.201 148.006C104.911 148.351 105.464 148.833 105.861 149.451C106.258 150.07 106.457 150.776 106.457 151.57C106.457 152.365 106.258 153.071 105.861 153.689C105.464 154.308 104.911 154.79 104.201 155.135C103.492 155.48 102.688 155.652 101.789 155.652C100.884 155.652 100.074 155.48 99.3574 155.135C98.6478 154.79 98.0944 154.308 97.6973 153.689C97.3001 153.071 97.1016 152.365 97.1016 151.57C97.1016 150.776 97.3001 150.07 97.6973 149.451C98.0944 148.833 98.6478 148.351 99.3574 148.006C100.074 147.661 100.884 147.488 101.789 147.488ZM101.789 148.836C101.177 148.836 100.63 148.95 100.148 149.178C99.6667 149.406 99.2891 149.731 99.0156 150.154C98.7422 150.571 98.6055 151.043 98.6055 151.57C98.6055 152.104 98.7422 152.576 99.0156 152.986C99.2891 153.396 99.6667 153.719 100.148 153.953C100.63 154.188 101.177 154.305 101.789 154.305C102.395 154.305 102.938 154.188 103.42 153.953C103.908 153.719 104.286 153.396 104.553 152.986C104.82 152.576 104.953 152.104 104.953 151.57C104.953 151.043 104.82 150.571 104.553 150.154C104.286 149.731 103.908 149.406 103.42 149.178C102.938 148.95 102.395 148.836 101.789 148.836ZM110.344 163.621H108.82V146.219H110.344V163.621ZM96.2031 158.484C98.3711 158.491 100.399 158.458 102.287 158.387C104.175 158.315 105.969 158.152 107.668 157.898L107.785 159.031C106.561 159.259 105.288 159.428 103.967 159.539C102.645 159.643 101.408 159.712 100.256 159.744C99.11 159.777 97.8307 159.793 96.418 159.793L96.2031 158.484ZM119.934 158.816H118.391V154.949H119.934V158.816ZM127.707 159.422H126.164V146.238H127.707V159.422ZM128.137 163.211H115.793V161.922H128.137V163.211ZM117.336 162.293H115.793V158.133H117.336V162.293ZM113.293 154.285C115.617 154.272 117.674 154.236 119.465 154.178C121.255 154.113 122.967 153.979 124.602 153.777L124.699 154.891C123.013 155.158 121.245 155.333 119.396 155.418C117.548 155.503 115.585 155.542 113.508 155.535L113.293 154.285ZM126.574 157.625H122.57V156.512H126.574V157.625ZM118.996 146.941C119.836 146.941 120.581 147.065 121.232 147.312C121.89 147.56 122.398 147.915 122.756 148.377C123.114 148.839 123.293 149.37 123.293 149.969C123.293 150.581 123.114 151.111 122.756 151.561C122.398 152.01 121.893 152.358 121.242 152.605C120.591 152.853 119.842 152.977 118.996 152.977C118.143 152.977 117.391 152.853 116.74 152.605C116.096 152.358 115.594 152.01 115.236 151.561C114.878 151.111 114.699 150.581 114.699 149.969C114.699 149.37 114.878 148.839 115.236 148.377C115.594 147.915 116.099 147.56 116.75 147.312C117.401 147.065 118.15 146.941 118.996 146.941ZM118.996 148.113C118.436 148.107 117.941 148.182 117.512 148.338C117.082 148.488 116.747 148.706 116.506 148.992C116.271 149.279 116.158 149.604 116.164 149.969C116.158 150.34 116.271 150.669 116.506 150.955C116.747 151.235 117.082 151.453 117.512 151.609C117.941 151.766 118.436 151.844 118.996 151.844C119.543 151.844 120.031 151.766 120.461 151.609C120.891 151.453 121.226 151.235 121.467 150.955C121.708 150.669 121.828 150.34 121.828 149.969C121.828 149.604 121.708 149.279 121.467 148.992C121.226 148.706 120.891 148.488 120.461 148.338C120.031 148.182 119.543 148.107 118.996 148.113ZM146.516 154.754H130.676V153.523H146.516V154.754ZM144.621 152.098H132.785V150.848H144.621V152.098ZM144.445 148.055H134.328V151.824H132.785V146.824H144.445V148.055ZM144.465 160.34H134.152V162.566H132.629V159.188H142.961V157.508H132.59V156.316H144.465V160.34ZM144.992 163.387H132.629V162.137H144.992V163.387ZM156.691 149.402H148.762V148.152H156.691V149.402ZM153.039 158.992H151.535V153.113H153.039V158.992ZM157.59 149.188C157.583 150.242 157.548 151.29 157.482 152.332C157.424 153.374 157.29 154.578 157.082 155.945L155.539 155.809C155.76 154.461 155.9 153.279 155.959 152.264C156.018 151.242 156.047 150.203 156.047 149.148V149.051V148.152H157.59V149.051V149.188ZM161.359 163.582H159.836V146.219H161.359V163.582ZM164.172 154.812H160.949V153.484H164.172V154.812ZM147.785 158.484C149.895 158.471 151.851 158.432 153.654 158.367C155.458 158.296 157.154 158.165 158.742 157.977L158.82 159.129C157.173 159.383 155.432 159.555 153.596 159.646C151.76 159.731 149.888 159.767 147.98 159.754L147.785 158.484ZM35.9492 173.461H41.0078V170.961H42.5312V178.52H34.4453V170.961H35.9492V173.461ZM41.0078 177.27V174.652H35.9492V177.27H41.0078ZM47.2773 179.203H45.7539V170.219H47.2773V179.203ZM49.8945 175.277H46.5938V173.988H49.8945V175.277ZM47.2773 184.223H37.7461V186.84H36.2422V183.051H45.7539V181.254H36.2031V180.023H47.2773V184.223ZM47.9219 187.387H36.2422V186.137H47.9219V187.387ZM56.6719 171.488C57.5703 171.488 58.3743 171.661 59.084 172.006C59.7936 172.351 60.347 172.833 60.7441 173.451C61.1413 174.07 61.3398 174.776 61.3398 175.57C61.3398 176.365 61.1413 177.071 60.7441 177.689C60.347 178.308 59.7936 178.79 59.084 179.135C58.3743 179.48 57.5703 179.652 56.6719 179.652C55.7669 179.652 54.9564 179.48 54.2402 179.135C53.5306 178.79 52.9772 178.308 52.5801 177.689C52.1829 177.071 51.9844 176.365 51.9844 175.57C51.9844 174.776 52.1829 174.07 52.5801 173.451C52.9772 172.833 53.5306 172.351 54.2402 172.006C54.9564 171.661 55.7669 171.488 56.6719 171.488ZM56.6719 172.836C56.0599 172.836 55.513 172.95 55.0312 173.178C54.5495 173.406 54.1719 173.731 53.8984 174.154C53.625 174.571 53.4883 175.043 53.4883 175.57C53.4883 176.104 53.625 176.576 53.8984 176.986C54.1719 177.396 54.5495 177.719 55.0312 177.953C55.513 178.188 56.0599 178.305 56.6719 178.305C57.2773 178.305 57.821 178.188 58.3027 177.953C58.791 177.719 59.1686 177.396 59.4355 176.986C59.7025 176.576 59.8359 176.104 59.8359 175.57C59.8359 175.043 59.7025 174.571 59.4355 174.154C59.1686 173.731 58.791 173.406 58.3027 173.178C57.821 172.95 57.2773 172.836 56.6719 172.836ZM65.2266 187.621H63.7031V170.219H65.2266V187.621ZM51.0859 182.484C53.2539 182.491 55.2819 182.458 57.1699 182.387C59.0579 182.315 60.8516 182.152 62.5508 181.898L62.668 183.031C61.444 183.259 60.1712 183.428 58.8496 183.539C57.528 183.643 56.291 183.712 55.1387 183.744C53.9928 183.777 52.7135 183.793 51.3008 183.793L51.0859 182.484ZM81.8477 183.246H80.3242V170.238H81.8477V183.246ZM84.4648 177.25H81.3594V175.961H84.4648V177.25ZM78.6641 173.617H68.3125V172.367H78.6641V173.617ZM73.4883 174.574C74.3086 174.574 75.0345 174.708 75.666 174.975C76.2975 175.242 76.7858 175.619 77.1309 176.107C77.4824 176.596 77.6615 177.165 77.668 177.816C77.6615 178.461 77.4824 179.027 77.1309 179.516C76.7858 179.997 76.2975 180.368 75.666 180.629C75.0345 180.889 74.3086 181.02 73.4883 181.02C72.6549 181.02 71.9225 180.889 71.291 180.629C70.6595 180.368 70.1712 179.997 69.8262 179.516C69.4811 179.027 69.3086 178.461 69.3086 177.816C69.3086 177.165 69.4811 176.596 69.8262 176.107C70.1712 175.619 70.6595 175.242 71.291 174.975C71.9225 174.708 72.6549 174.574 73.4883 174.574ZM73.4883 175.785C72.9479 175.785 72.4694 175.867 72.0527 176.029C71.6426 176.192 71.3268 176.43 71.1055 176.742C70.8841 177.048 70.7734 177.406 70.7734 177.816C70.7734 178.22 70.8841 178.572 71.1055 178.871C71.3268 179.171 71.6426 179.405 72.0527 179.574C72.4694 179.737 72.9479 179.815 73.4883 179.809C74.0221 179.815 74.4974 179.737 74.9141 179.574C75.3307 179.405 75.6497 179.171 75.8711 178.871C76.099 178.572 76.2161 178.22 76.2227 177.816C76.2161 177.406 76.099 177.048 75.8711 176.742C75.6497 176.43 75.3307 176.192 74.9141 176.029C74.4974 175.867 74.0221 175.785 73.4883 175.785ZM74.25 173.012H72.7266V170.238H74.25V173.012ZM82.6484 187.211H70.9883V185.922H82.6484V187.211ZM72.4922 186.449H70.9883V182.211H72.4922V186.449ZM92.9805 173.812H97.8242V171.117H99.3281V179.066H91.457V171.117H92.9805V173.812ZM97.8242 177.816V175.023H92.9805V177.816H97.8242ZM103.898 175.785H98.8984V174.496H103.898V175.785ZM104.973 179.711H103.43V170.219H104.973V179.711ZM95.3242 182.68H103.43V180.551H104.953V187.348H93.7812V180.551H95.3242V182.68ZM103.43 186.078V183.91H95.3242V186.078H103.43ZM121.438 183.031H119.914V170.219H121.438V183.031ZM124.055 176.801H120.949V175.512H124.055V176.801ZM122.238 187.211H110.578V185.922H122.238V187.211ZM112.082 186.43H110.578V181.703H112.082V186.43ZM112.746 171.449C113.605 171.449 114.383 171.632 115.08 171.996C115.777 172.361 116.32 172.868 116.711 173.52C117.108 174.164 117.31 174.9 117.316 175.727C117.31 176.553 117.108 177.292 116.711 177.943C116.32 178.588 115.777 179.092 115.08 179.457C114.383 179.822 113.605 180.004 112.746 180.004C111.893 180.004 111.118 179.822 110.422 179.457C109.732 179.092 109.188 178.585 108.791 177.934C108.394 177.283 108.195 176.547 108.195 175.727C108.195 174.9 108.394 174.164 108.791 173.52C109.188 172.868 109.732 172.361 110.422 171.996C111.112 171.632 111.887 171.449 112.746 171.449ZM112.746 172.797C112.18 172.797 111.662 172.921 111.193 173.168C110.731 173.415 110.367 173.764 110.1 174.213C109.833 174.662 109.699 175.167 109.699 175.727C109.699 176.286 109.833 176.788 110.1 177.23C110.367 177.673 110.731 178.021 111.193 178.275C111.662 178.529 112.18 178.656 112.746 178.656C113.326 178.656 113.846 178.529 114.309 178.275C114.777 178.021 115.145 177.673 115.412 177.23C115.679 176.788 115.812 176.286 115.812 175.727C115.812 175.16 115.679 174.656 115.412 174.213C115.145 173.764 114.777 173.415 114.309 173.168C113.846 172.921 113.326 172.797 112.746 172.797ZM135.598 178.266H132.258V176.996H135.598V178.266ZM140.031 187.582H138.547V170.219H140.031V187.582ZM136.535 186.703H135.07V170.59H136.535V186.703ZM129.094 171.684C129.842 171.684 130.497 171.931 131.057 172.426C131.623 172.921 132.062 173.624 132.375 174.535C132.688 175.44 132.844 176.501 132.844 177.719C132.844 178.936 132.688 180.001 132.375 180.912C132.062 181.817 131.623 182.517 131.057 183.012C130.497 183.507 129.842 183.754 129.094 183.754C128.345 183.754 127.691 183.507 127.131 183.012C126.577 182.517 126.145 181.817 125.832 180.912C125.52 180.001 125.363 178.936 125.363 177.719C125.363 176.501 125.52 175.44 125.832 174.535C126.145 173.624 126.577 172.921 127.131 172.426C127.691 171.931 128.345 171.684 129.094 171.684ZM129.094 173.129C128.625 173.129 128.218 173.314 127.873 173.686C127.528 174.057 127.261 174.59 127.072 175.287C126.89 175.977 126.802 176.788 126.809 177.719C126.802 178.65 126.89 179.46 127.072 180.15C127.261 180.834 127.528 181.365 127.873 181.742C128.225 182.113 128.632 182.296 129.094 182.289C129.562 182.296 129.973 182.113 130.324 181.742C130.676 181.365 130.943 180.834 131.125 180.15C131.307 179.46 131.398 178.65 131.398 177.719C131.398 176.788 131.307 175.977 131.125 175.287C130.943 174.59 130.676 174.057 130.324 173.686C129.973 173.314 129.562 173.129 129.094 173.129ZM162.297 187.582H160.832V170.219H162.297V187.582ZM161.223 178.48H157.824V177.211H161.223V178.48ZM158.273 186.684H156.867V170.609H158.273V186.684ZM149.211 181.977C150.624 181.977 151.799 181.944 152.736 181.879C153.68 181.814 154.634 181.684 155.598 181.488L155.734 182.777C154.758 182.979 153.794 183.113 152.844 183.178C151.893 183.243 150.682 183.279 149.211 183.285H148.098V181.977H149.211ZM154.602 173.617H149.621V182.582H148.098V172.348H154.602V173.617ZM173.41 174.477H164.699V173.227H173.41V174.477ZM169.055 175.648C169.777 175.648 170.422 175.818 170.988 176.156C171.561 176.495 172.007 176.964 172.326 177.562C172.652 178.155 172.818 178.832 172.824 179.594C172.818 180.362 172.652 181.046 172.326 181.645C172.007 182.243 171.561 182.715 170.988 183.061C170.422 183.406 169.777 183.578 169.055 183.578C168.345 183.578 167.704 183.406 167.131 183.061C166.564 182.715 166.122 182.243 165.803 181.645C165.484 181.046 165.324 180.362 165.324 179.594C165.324 178.839 165.487 178.161 165.812 177.562C166.138 176.964 166.581 176.495 167.141 176.156C167.707 175.818 168.345 175.648 169.055 175.648ZM169.055 176.938C168.599 176.944 168.192 177.064 167.834 177.299C167.476 177.527 167.196 177.842 166.994 178.246C166.792 178.643 166.691 179.092 166.691 179.594C166.691 180.102 166.792 180.554 166.994 180.951C167.196 181.348 167.476 181.661 167.834 181.889C168.192 182.117 168.599 182.23 169.055 182.23C169.51 182.23 169.921 182.117 170.285 181.889C170.65 181.661 170.936 181.348 171.145 180.951C171.353 180.554 171.457 180.102 171.457 179.594C171.457 179.092 171.353 178.643 171.145 178.246C170.936 177.842 170.65 177.527 170.285 177.299C169.921 177.064 169.51 176.944 169.055 176.938ZM179.523 187.582H178.059V170.219H179.523V187.582ZM178.547 178.812H175.227V177.543H178.547V178.812ZM175.754 186.723H174.309V170.648H175.754V186.723ZM169.836 173.988H168.312V170.746H169.836V173.988ZM39.4746 199.082C39.4746 200.391 39.2695 201.663 38.8594 202.9C38.4557 204.137 37.8763 205.241 37.1211 206.211C36.3659 207.181 35.4902 207.904 34.4941 208.379L33.2148 206.67C34.1198 206.24 34.9173 205.618 35.6074 204.805C36.2975 203.984 36.8249 203.076 37.1895 202.08C37.5605 201.084 37.7493 200.085 37.7559 199.082V196.758H39.4746V199.082ZM39.9238 199.082C39.9173 200.02 40.0898 200.957 40.4414 201.895C40.793 202.826 41.3008 203.675 41.9648 204.443C42.6354 205.212 43.4232 205.807 44.3281 206.23L43.1074 207.939C42.1113 207.471 41.2422 206.777 40.5 205.859C39.7578 204.935 39.1882 203.883 38.791 202.705C38.3939 201.527 38.1953 200.319 38.1953 199.082V196.758H39.9238V199.082ZM43.6152 197.607H33.8984V195.83H43.6152V197.607ZM47.4141 211.719H45.2461V194.082H47.4141V211.719ZM50.1387 202.783H46.9258V200.957H50.1387V202.783ZM56.9355 211.719H54.709V205.137H56.9355V211.719ZM63.0488 211.719H60.8516V205.137H63.0488V211.719ZM66.9941 205.742H50.8613V203.984H66.9941V205.742ZM58.8789 194.717C60.1289 194.717 61.2324 194.88 62.1895 195.205C63.153 195.531 63.9017 195.99 64.4355 196.582C64.9694 197.174 65.2363 197.865 65.2363 198.652C65.2363 199.434 64.9694 200.114 64.4355 200.693C63.9017 201.273 63.153 201.722 62.1895 202.041C61.2324 202.36 60.1289 202.52 58.8789 202.52C57.6289 202.52 56.5254 202.36 55.5684 202.041C54.6178 201.722 53.8757 201.273 53.3418 200.693C52.8079 200.114 52.541 199.434 52.541 198.652C52.541 197.865 52.8079 197.174 53.3418 196.582C53.8757 195.99 54.6178 195.531 55.5684 195.205C56.5254 194.88 57.6289 194.717 58.8789 194.717ZM58.8789 196.455C58.0456 196.462 57.3197 196.553 56.7012 196.729C56.0892 196.898 55.6139 197.148 55.2754 197.48C54.9434 197.806 54.7806 198.197 54.7871 198.652C54.7806 199.095 54.9434 199.479 55.2754 199.805C55.6139 200.124 56.0892 200.368 56.7012 200.537C57.3197 200.706 58.0456 200.791 58.8789 200.791C59.7122 200.791 60.4382 200.706 61.0566 200.537C61.6751 200.368 62.1536 200.124 62.4922 199.805C62.8307 199.486 63 199.102 63 198.652C63 198.197 62.8307 197.806 62.4922 197.48C62.1536 197.148 61.6751 196.898 61.0566 196.729C60.4447 196.553 59.7188 196.462 58.8789 196.455ZM84.2793 204.668H68.1465V202.949H84.2793V204.668ZM77.2773 203.75H75.1289V201.006H77.2773V203.75ZM72.3848 206.738H80.1875V205.4H82.3262V211.514H70.2168V205.4H72.3848V206.738ZM80.1875 209.824V208.389H72.3848V209.824H80.1875ZM82.2871 198.77H72.3457V200.908H70.1875V197.207H80.0996V196.055H70.1387V194.385H82.2871V198.77ZM82.6289 201.66H70.1875V200H82.6289V201.66ZM100.666 211.719H98.6152V194.082H100.666V211.719ZM95.3438 202.764H91.2715V201.035H95.3438V202.764ZM96.9258 210.908H94.875V194.512H96.9258V210.908ZM93.127 196.24C93.1204 197.933 92.9023 199.486 92.4727 200.898C92.043 202.311 91.3431 203.62 90.373 204.824C89.4095 206.022 88.1335 207.083 86.5449 208.008L85.3047 206.465C86.6523 205.664 87.7461 204.775 88.5859 203.799C89.4323 202.816 90.0475 201.738 90.4316 200.566C90.8158 199.395 91.0111 198.096 91.0176 196.67V196.24H93.127ZM91.75 197.998H86.2031V196.24H91.75V197.998ZM121.838 204.707H109.455V202.979H121.838V204.707ZM123.635 209.678H107.502V207.93H123.635V209.678ZM116.623 208.701H114.455V203.848H116.623V208.701ZM121.682 197.139H111.662V203.662H109.455V195.381H121.682V197.139ZM121.281 200.869H111.008V199.15H121.281V200.869ZM140.9 205.693H124.768V203.945H140.9V205.693ZM139.289 211.729H126.828V209.98H139.289V211.729ZM129.006 210.508H126.828V206.689H129.006V210.508ZM133.898 204.756H131.75V201.475H133.898V204.756ZM138.908 199.248H128.967V201.279H126.809V197.695H136.721V196.23H126.76V194.531H138.908V199.248ZM139.25 202.393H126.809V200.732H139.25V202.393ZM150.109 194.365C151.438 194.365 152.577 194.479 153.527 194.707C154.484 194.935 155.21 195.277 155.705 195.732C156.2 196.182 156.447 196.729 156.447 197.373C156.447 198.031 156.2 198.587 155.705 199.043C155.21 199.499 154.488 199.844 153.537 200.078C152.587 200.306 151.444 200.423 150.109 200.43C148.762 200.423 147.613 200.306 146.662 200.078C145.712 199.844 144.986 199.499 144.484 199.043C143.983 198.587 143.732 198.031 143.732 197.373C143.732 196.729 143.983 196.182 144.484 195.732C144.986 195.277 145.712 194.935 146.662 194.707C147.619 194.479 148.768 194.365 150.109 194.365ZM150.109 195.957C149.204 195.957 148.446 196.012 147.834 196.123C147.229 196.234 146.77 196.396 146.457 196.611C146.151 196.82 146.001 197.074 146.008 197.373C146.001 197.699 146.151 197.969 146.457 198.184C146.77 198.392 147.222 198.548 147.814 198.652C148.413 198.757 149.178 198.809 150.109 198.809C151.034 198.809 151.796 198.757 152.395 198.652C153 198.548 153.456 198.392 153.762 198.184C154.068 197.969 154.221 197.699 154.221 197.373C154.221 197.074 154.068 196.82 153.762 196.611C153.456 196.396 152.993 196.234 152.375 196.123C151.763 196.012 151.008 195.957 150.109 195.957ZM158.146 203.115H142.072V201.377H158.146V203.115ZM156.154 208.613H146.115V210.381H143.967V207.08H154.006V205.898H143.957V204.297H156.154V208.613ZM156.633 211.582H143.967V209.922H156.633V211.582ZM50.0312 226.676H46.8574V224.889H50.0312V226.676ZM47.4141 235.709H45.2461V218.082H47.4141V235.709ZM36.3691 230.729H34.2012V219.791H36.3691V230.729ZM35.6953 229.537C37.056 229.544 38.4134 229.485 39.7676 229.361C41.1217 229.238 42.4922 229.036 43.8789 228.756L44.123 230.572C42.7298 230.852 41.3398 231.051 39.9531 231.168C38.5664 231.279 37.1471 231.334 35.6953 231.334H34.2012V229.537H35.6953ZM65.2461 225.504H52.9023V223.746H65.2461V225.504ZM67.0137 229.508H50.8809V227.721H67.0137V229.508ZM59.9434 235.719H57.7656V228.736H59.9434V235.719ZM55.0605 224.596H52.9023V218.922H55.0605V224.596ZM72.9805 219.371C73.8529 219.371 74.6309 219.625 75.3145 220.133C76.0046 220.641 76.5384 221.367 76.916 222.311C77.3001 223.255 77.4922 224.352 77.4922 225.602C77.4922 226.865 77.3001 227.968 76.916 228.912C76.5384 229.85 76.0046 230.576 75.3145 231.09C74.6309 231.598 73.8529 231.852 72.9805 231.852C72.0951 231.852 71.3105 231.598 70.627 231.09C69.9434 230.576 69.4095 229.85 69.0254 228.912C68.6413 227.968 68.4492 226.865 68.4492 225.602C68.4492 224.352 68.6413 223.255 69.0254 222.311C69.4095 221.367 69.9434 220.641 70.627 220.133C71.3105 219.625 72.0951 219.371 72.9805 219.371ZM72.9805 221.324C72.4922 221.324 72.0658 221.497 71.7012 221.842C71.3366 222.18 71.0501 222.672 70.8418 223.316C70.6335 223.961 70.5293 224.723 70.5293 225.602C70.5293 226.493 70.6335 227.262 70.8418 227.906C71.0501 228.551 71.3366 229.042 71.7012 229.381C72.0658 229.719 72.4922 229.885 72.9805 229.879C73.4622 229.885 73.8887 229.719 74.2598 229.381C74.6374 229.042 74.9271 228.551 75.1289 227.906C75.3307 227.262 75.4316 226.493 75.4316 225.602C75.4316 224.723 75.3307 223.961 75.1289 223.316C74.9271 222.665 74.6374 222.171 74.2598 221.832C73.8887 221.493 73.4622 221.324 72.9805 221.324ZM82.9512 235.768H80.8027V218.082H82.9512V235.768ZM81.7402 226.334H76.8281V224.576H81.7402V226.334ZM101.584 233.609H85.4512V231.832H101.584V233.609ZM94.543 232.301H92.4043V227.867H94.543V232.301ZM89.3965 222.145H97.5703V219.254H99.7285V228.385H87.2188V219.254H89.3965V222.145ZM97.5703 226.646V223.873H89.3965V226.646H97.5703ZM107.473 219.371C108.352 219.371 109.136 219.625 109.826 220.133C110.523 220.641 111.066 221.37 111.457 222.32C111.854 223.264 112.056 224.358 112.062 225.602C112.056 226.858 111.854 227.958 111.457 228.902C111.066 229.846 110.523 230.576 109.826 231.09C109.136 231.598 108.352 231.852 107.473 231.852C106.581 231.852 105.786 231.598 105.09 231.09C104.4 230.576 103.859 229.85 103.469 228.912C103.078 227.968 102.883 226.865 102.883 225.602C102.883 224.358 103.078 223.264 103.469 222.32C103.859 221.37 104.4 220.641 105.09 220.133C105.786 219.625 106.581 219.371 107.473 219.371ZM107.473 221.324C106.978 221.324 106.542 221.497 106.164 221.842C105.793 222.18 105.5 222.672 105.285 223.316C105.07 223.954 104.966 224.716 104.973 225.602C104.966 226.493 105.07 227.262 105.285 227.906C105.5 228.551 105.793 229.042 106.164 229.381C106.542 229.719 106.978 229.885 107.473 229.879C107.967 229.885 108.404 229.719 108.781 229.381C109.165 229.042 109.458 228.551 109.66 227.906C109.862 227.262 109.963 226.493 109.963 225.602C109.963 224.716 109.862 223.951 109.66 223.307C109.458 222.662 109.165 222.171 108.781 221.832C108.404 221.493 107.967 221.324 107.473 221.324ZM116.555 235.719H114.387V218.082H116.555V235.719ZM119.279 226.695H116.066V224.869H119.279V226.695ZM125.891 232.164H123.752V227.105H125.891V232.164ZM132.424 232.164H130.236V227.105H132.424V232.164ZM136.154 233.6H120.021V231.812H136.154V233.6ZM128.059 219.029C129.315 219.029 130.441 219.225 131.438 219.615C132.434 219.999 133.215 220.546 133.781 221.256C134.348 221.965 134.631 222.779 134.631 223.697C134.631 224.622 134.348 225.436 133.781 226.139C133.221 226.842 132.44 227.389 131.438 227.779C130.441 228.163 129.315 228.355 128.059 228.355C126.789 228.355 125.656 228.163 124.66 227.779C123.671 227.389 122.893 226.842 122.326 226.139C121.766 225.436 121.486 224.622 121.486 223.697C121.486 222.779 121.766 221.965 122.326 221.256C122.893 220.546 123.671 219.999 124.66 219.615C125.656 219.225 126.789 219.029 128.059 219.029ZM128.059 220.768C127.173 220.761 126.395 220.875 125.725 221.109C125.054 221.344 124.533 221.686 124.162 222.135C123.798 222.577 123.615 223.098 123.615 223.697C123.615 224.296 123.798 224.82 124.162 225.27C124.533 225.712 125.054 226.057 125.725 226.305C126.395 226.546 127.173 226.666 128.059 226.666C128.924 226.666 129.693 226.542 130.363 226.295C131.034 226.048 131.555 225.702 131.926 225.26C132.303 224.817 132.492 224.296 132.492 223.697C132.492 223.098 132.303 222.577 131.926 222.135C131.555 221.686 131.034 221.344 130.363 221.109C129.693 220.875 128.924 220.761 128.059 220.768ZM139.445 234.156C139.165 234.156 138.908 234.088 138.674 233.951C138.446 233.814 138.264 233.629 138.127 233.395C137.99 233.16 137.925 232.906 137.932 232.633C137.925 232.366 137.99 232.118 138.127 231.891C138.264 231.656 138.446 231.474 138.674 231.344C138.908 231.207 139.165 231.139 139.445 231.139C139.712 231.139 139.96 231.207 140.188 231.344C140.422 231.474 140.607 231.656 140.744 231.891C140.881 232.118 140.949 232.366 140.949 232.633C140.949 232.906 140.881 233.16 140.744 233.395C140.607 233.629 140.422 233.814 140.188 233.951C139.96 234.088 139.712 234.156 139.445 234.156Z" fill="#464646"/>
<defs>
<filter id="filter0_bd_347_1041" x="-76" y="-80" width="366" height="772" filterUnits="userSpaceOnUse" color-interpolation-filters="sRGB">
<feFlood flood-opacity="0" result="BackgroundImageFix"/>
<feGaussianBlur in="BackgroundImageFix" stdDeviation="40"/>
<feComposite in2="SourceAlpha" operator="in" result="effect1_backgroundBlur_347_1041"/>
<feColorMatrix in="SourceAlpha" type="matrix" values="0 0 0 0 0 0 0 0 0 0 0 0 0 0 0 0 0 0 127 0" result="hardAlpha"/>
<feOffset dy="3.6"/>
<feGaussianBlur stdDeviation="1.8"/>
<feComposite in2="hardAlpha" operator="out"/>
<feColorMatrix type="matrix" values="0 0 0 0 0 0 0 0 0 0 0 0 0 0 0 0 0 0 0.25 0"/>
<feBlend mode="normal" in2="effect1_backgroundBlur_347_1041" result="effect2_dropShadow_347_1041"/>
<feBlend mode="normal" in="SourceGraphic" in2="effect2_dropShadow_347_1041" result="shape"/>
</filter>
<linearGradient id="paint0_linear_347_1041" x1="107" y1="-45.5" x2="107" y2="612" gradientUnits="userSpaceOnUse">
<stop stop-color="#D8F5DD"/>
<stop offset="1" stop-color="#D8F5DD" stop-opacity="0"/>
</linearGradient>
</defs>
</svg>
