<svg xmlns="http://www.w3.org/2000/svg" width="197" height="74" viewBox="0 0 197 74" fill="none">
<g filter="url(#filter0_bd_400_2277)">
<path d="M4 18C4 8.05887 12.0589 0 22 0H175C184.941 0 193 8.05888 193 18V64C193 65.1046 192.105 66 191 66H6C4.89543 66 4 65.1046 4 64V18Z" fill="url(#paint0_linear_400_2277)"/>
<path d="M52.7129 28L57.4102 13.8594H62.459L67.1562 28H63.1426L59.998 17.6582H59.8809L56.7266 28H52.7129ZM63.7871 22.4141V25.2168H56.0234V22.4141H63.7871ZM72.2734 28H68.5625V13.8594H72.2734V28ZM91.3848 15.0801H79.9688V12.6191H91.3848V15.0801ZM94.5 21.1836H78.0156V18.7031H94.5V21.1836ZM87.791 23.9961H84.6465V20.4609H87.791V23.9961ZM92.6836 14.1035C92.6836 15.1973 92.651 16.1706 92.5859 17.0234C92.5273 17.8698 92.3776 18.8138 92.1367 19.8555L89.0312 19.5527C89.181 18.8757 89.2917 18.2344 89.3633 17.6289C89.4414 17.0234 89.4902 16.4831 89.5098 16.0078C89.5358 15.5326 89.5521 14.9564 89.5586 14.2793V14.1035V12.6191H92.6836V14.1035ZM92.6348 29.9336H89.4902V25.7148H79.6172V23.2832H92.6348V29.9336ZM102.693 25.8516H99.5781V22.9414H102.693V25.8516ZM110.682 29.9336H107.566V11.8672H110.682V29.9336ZM96.043 24.6602C98.2826 24.6536 100.232 24.6211 101.893 24.5625C103.553 24.5039 105.161 24.3704 106.717 24.1621L106.902 26.4668C105.184 26.7663 103.432 26.9616 101.648 27.0527C99.8646 27.1374 97.8952 27.1797 95.7402 27.1797L95.3398 24.6602H96.043ZM106.6 16.1836H95.6914V13.7617H106.6V16.1836ZM101.131 16.6914C102.029 16.6914 102.83 16.8379 103.533 17.1309C104.243 17.4173 104.793 17.821 105.184 18.3418C105.581 18.8561 105.779 19.4453 105.779 20.1094C105.779 20.7734 105.581 21.3659 105.184 21.8867C104.793 22.401 104.243 22.8047 103.533 23.0977C102.83 23.3906 102.029 23.5371 101.131 23.5371C100.245 23.5371 99.4544 23.3906 98.7578 23.0977C98.0612 22.8047 97.5143 22.401 97.1172 21.8867C96.7266 21.3659 96.5312 20.7734 96.5312 20.1094C96.5312 19.4453 96.7266 18.8561 97.1172 18.3418C97.5143 17.821 98.0612 17.4173 98.7578 17.1309C99.4544 16.8379 100.245 16.6914 101.131 16.6914ZM101.131 19.0352C100.805 19.0417 100.522 19.084 100.281 19.1621C100.047 19.2337 99.8613 19.3509 99.7246 19.5137C99.5879 19.6764 99.5195 19.875 99.5195 20.1094C99.5195 20.3568 99.5879 20.5586 99.7246 20.7148C99.8613 20.8711 100.047 20.9883 100.281 21.0664C100.522 21.1445 100.805 21.1836 101.131 21.1836C101.469 21.1836 101.762 21.1445 102.01 21.0664C102.264 20.9883 102.456 20.8711 102.586 20.7148C102.716 20.5586 102.781 20.3568 102.781 20.1094C102.781 19.875 102.716 19.6764 102.586 19.5137C102.456 19.3509 102.264 19.2337 102.01 19.1621C101.762 19.084 101.469 19.0417 101.131 19.0352ZM102.723 15.1777H99.5781V11.9941H102.723V15.1777ZM118.377 13.0098C119.327 13.0098 120.19 13.2083 120.965 13.6055C121.74 13.9961 122.348 14.5397 122.791 15.2363C123.24 15.9329 123.465 16.7109 123.465 17.5703C123.465 18.4362 123.24 19.2174 122.791 19.9141C122.348 20.6042 121.74 21.1478 120.965 21.5449C120.19 21.9355 119.327 22.1309 118.377 22.1309C117.433 22.1309 116.57 21.9355 115.789 21.5449C115.014 21.1478 114.399 20.6042 113.943 19.9141C113.494 19.2174 113.27 18.4362 113.27 17.5703C113.27 16.7109 113.494 15.9329 113.943 15.2363C114.399 14.5397 115.014 13.9961 115.789 13.6055C116.57 13.2083 117.433 13.0098 118.377 13.0098ZM118.377 15.7051C117.999 15.7116 117.661 15.7832 117.361 15.9199C117.062 16.0566 116.824 16.2682 116.648 16.5547C116.479 16.8346 116.395 17.1732 116.395 17.5703C116.395 17.9805 116.479 18.3255 116.648 18.6055C116.824 18.8789 117.062 19.084 117.361 19.2207C117.661 19.3574 117.999 19.429 118.377 19.4355C118.768 19.429 119.116 19.3574 119.422 19.2207C119.734 19.084 119.979 18.8789 120.154 18.6055C120.33 18.3255 120.418 17.9805 120.418 17.5703C120.418 17.1732 120.33 16.8346 120.154 16.5547C119.979 16.2682 119.734 16.0566 119.422 15.9199C119.116 15.7832 118.768 15.7116 118.377 15.7051ZM127.967 29.9922H124.852V11.8672H127.967V29.9922ZM112.625 23.9863C114.728 23.9798 116.72 23.9408 118.602 23.8691C120.483 23.791 122.264 23.6413 123.943 23.4199L124.168 25.6562C122.957 25.8971 121.701 26.0794 120.398 26.2031C119.096 26.3203 117.863 26.3984 116.697 26.4375C115.532 26.4701 114.288 26.4831 112.967 26.4766L112.625 23.9863ZM137.479 25.1875H134.334V21.2227H137.479V25.1875ZM145.398 25.5H142.273V11.9062H145.398V25.5ZM145.779 29.6895H131.902V27.1895H145.779V29.6895ZM135.047 27.834H131.902V24.2109H135.047V27.834ZM129.803 19.6797C132.205 19.6536 134.305 19.6048 136.102 19.5332C137.905 19.4616 139.637 19.3216 141.297 19.1133L141.453 21.3496C139.715 21.6491 137.895 21.8542 135.994 21.9648C134.1 22.069 132.153 22.1211 130.154 22.1211L129.803 19.6797ZM142.938 24.3477H138.992V22.2578H142.938V24.3477ZM135.643 12.4434C136.502 12.4368 137.277 12.5736 137.967 12.8535C138.663 13.1335 139.204 13.5241 139.588 14.0254C139.979 14.5267 140.174 15.0931 140.174 15.7246C140.174 16.3626 139.979 16.9258 139.588 17.4141C139.204 17.9023 138.667 18.2832 137.977 18.5566C137.286 18.8236 136.508 18.957 135.643 18.957C134.751 18.957 133.96 18.8236 133.27 18.5566C132.579 18.2832 132.039 17.9056 131.648 17.4238C131.258 16.9355 131.062 16.3691 131.062 15.7246C131.062 15.0931 131.258 14.5267 131.648 14.0254C132.039 13.5176 132.579 13.127 133.27 12.8535C133.966 12.5736 134.757 12.4368 135.643 12.4434ZM135.643 14.6992C135.311 14.7057 135.024 14.7448 134.783 14.8164C134.549 14.8815 134.363 14.9922 134.227 15.1484C134.09 15.2982 134.021 15.4902 134.021 15.7246C134.021 15.959 134.09 16.1478 134.227 16.291C134.363 16.4342 134.549 16.5417 134.783 16.6133C135.024 16.6849 135.311 16.7207 135.643 16.7207C135.955 16.7207 136.225 16.6849 136.453 16.6133C136.688 16.5417 136.87 16.4342 137 16.291C137.13 16.1413 137.195 15.9525 137.195 15.7246C137.195 15.4967 137.13 15.3047 137 15.1484C136.87 14.9922 136.688 14.8815 136.453 14.8164C136.225 14.7448 135.955 14.7057 135.643 14.6992Z" fill="#5379C2"/>
</g>
<defs>
<filter id="filter0_bd_400_2277" x="-16" y="-20" width="229" height="106" filterUnits="userSpaceOnUse" color-interpolation-filters="sRGB">
<feFlood flood-opacity="0" result="BackgroundImageFix"/>
<feGaussianBlur in="BackgroundImageFix" stdDeviation="10"/>
<feComposite in2="SourceAlpha" operator="in" result="effect1_backgroundBlur_400_2277"/>
<feColorMatrix in="SourceAlpha" type="matrix" values="0 0 0 0 0 0 0 0 0 0 0 0 0 0 0 0 0 0 127 0" result="hardAlpha"/>
<feOffset dy="4"/>
<feGaussianBlur stdDeviation="2"/>
<feComposite in2="hardAlpha" operator="out"/>
<feColorMatrix type="matrix" values="0 0 0 0 0 0 0 0 0 0 0 0 0 0 0 0 0 0 0.25 0"/>
<feBlend mode="normal" in2="effect1_backgroundBlur_400_2277" result="effect2_dropShadow_400_2277"/>
<feBlend mode="normal" in="SourceGraphic" in2="effect2_dropShadow_400_2277" result="shape"/>
</filter>
<linearGradient id="paint0_linear_400_2277" x1="98.5" y1="0" x2="98.5" y2="66" gradientUnits="userSpaceOnUse">
<stop stop-color="#F6F6F6"/>
<stop offset="1" stop-color="#F6F6F6" stop-opacity="0"/>
</linearGradient>
</defs>
</svg>