<svg width="214" height="620" viewBox="0 0 214 620" fill="none" xmlns="http://www.w3.org/2000/svg">
<g filter="url(#filter0_bd_176_640)">
<rect x="4" width="206" height="612" rx="103" fill="url(#paint0_linear_176_640)" shape-rendering="crispEdges"/>
</g>
<path d="M66.9961 68.1289H72.2695V65.0703H74.4609V74.75H64.7812V65.0703H66.9961V68.1289ZM72.2695 72.957V69.8633H66.9961V72.957H72.2695ZM79.6523 70.8711H73.8867V69.0312H79.6523V70.8711ZM81.2812 75.4766H79.0547V63.9805H81.2812V75.4766ZM69.8086 78.793H79.0547V76.4375H81.2578V84.7109H67.582V76.4375H69.8086V78.793ZM79.0547 82.8945V80.5508H69.8086V82.8945H79.0547ZM101.016 79.4141H98.8008V63.9922H101.016V79.4141ZM104.074 72.1133H100.336V70.2617H104.074V72.1133ZM101.906 84.5703H87.7148V82.7305H101.906V84.5703ZM89.918 83.4922H87.7148V77.8086H89.918V83.4922ZM90.4219 65.4219C91.4688 65.4219 92.418 65.6445 93.2695 66.0898C94.1289 66.5352 94.8008 67.1562 95.2852 67.9531C95.7695 68.75 96.0156 69.6484 96.0234 70.6484C96.0156 71.6562 95.7695 72.5586 95.2852 73.3555C94.8008 74.1445 94.1289 74.7656 93.2695 75.2188C92.418 75.6641 91.4688 75.8867 90.4219 75.8867C89.375 75.8867 88.4258 75.6641 87.5742 75.2188C86.7227 74.7656 86.0508 74.1406 85.5586 73.3438C85.0742 72.5469 84.832 71.6484 84.832 70.6484C84.832 69.6484 85.0742 68.75 85.5586 67.9531C86.0508 67.1562 86.7188 66.5352 87.5625 66.0898C88.4141 65.6445 89.3672 65.4219 90.4219 65.4219ZM90.4219 67.3672C89.7891 67.3672 89.2109 67.5039 88.6875 67.7773C88.1719 68.0508 87.7617 68.4414 87.457 68.9492C87.1602 69.4492 87.0117 70.0156 87.0117 70.6484C87.0117 71.2891 87.1602 71.8594 87.457 72.3594C87.7617 72.8516 88.1719 73.2383 88.6875 73.5195C89.2109 73.793 89.7891 73.9297 90.4219 73.9297C91.0703 73.9297 91.6523 73.793 92.168 73.5195C92.6914 73.2383 93.1016 72.8516 93.3984 72.3594C93.6953 71.8594 93.8438 71.2891 93.8438 70.6484C93.8438 70.0078 93.6953 69.4375 93.3984 68.9375C93.1016 68.4375 92.6914 68.0508 92.168 67.7773C91.6523 67.5039 91.0703 67.3672 90.4219 67.3672ZM114.117 67.7422H119.613V64.8945H121.84V74.0469H111.926V64.8945H114.117V67.7422ZM119.613 72.2656V69.4414H114.117V72.2656H119.613ZM127.617 74.7852H125.402V63.9805H127.617V74.7852ZM130.676 70.2266H126.656V68.3867H130.676V70.2266ZM127.617 81.0078H116.273V83.9492H114.082V79.3555H125.402V77.4688H114.047V75.7109H127.617V81.0078ZM128.344 84.7812H114.082V83H128.344V84.7812ZM138.715 65.4688C139.801 65.4688 140.777 65.6836 141.645 66.1133C142.512 66.5352 143.188 67.1289 143.672 67.8945C144.164 68.6523 144.41 69.5156 144.41 70.4844C144.41 71.4531 144.164 72.3203 143.672 73.0859C143.188 73.8438 142.512 74.4375 141.645 74.8672C140.777 75.2891 139.801 75.5 138.715 75.5C137.613 75.5 136.625 75.2891 135.75 74.8672C134.883 74.4375 134.203 73.8438 133.711 73.0859C133.227 72.3203 132.984 71.4531 132.984 70.4844C132.984 69.5156 133.227 68.6523 133.711 67.8945C134.203 67.1289 134.883 66.5352 135.75 66.1133C136.625 65.6836 137.613 65.4688 138.715 65.4688ZM138.715 67.4141C138.035 67.4141 137.426 67.5391 136.887 67.7891C136.355 68.0391 135.938 68.4023 135.633 68.8789C135.328 69.3477 135.176 69.8828 135.176 70.4844C135.176 71.0938 135.328 71.6289 135.633 72.0898C135.938 72.5508 136.355 72.9102 136.887 73.168C137.426 73.4258 138.035 73.5547 138.715 73.5547C139.387 73.5547 139.992 73.4258 140.531 73.168C141.07 72.9102 141.488 72.5508 141.785 72.0898C142.09 71.6289 142.242 71.0938 142.242 70.4844C142.242 69.8828 142.09 69.3477 141.785 68.8789C141.488 68.4023 141.07 68.0391 140.531 67.7891C139.992 67.5391 139.387 67.4141 138.715 67.4141ZM149.227 85.0391H147.012V63.9805H149.227V85.0391ZM131.965 78.6641C134.551 78.6641 136.977 78.6211 139.242 78.5352C141.508 78.4492 143.656 78.2578 145.688 77.9609L145.852 79.5898C144.391 79.8633 142.867 80.0664 141.281 80.1992C139.703 80.332 138.223 80.418 136.84 80.457C135.457 80.4961 133.93 80.5156 132.258 80.5156L131.965 78.6641Z" fill="#0E0E0E"/>
<defs>
<filter id="filter0_bd_176_640" x="-76" y="-80" width="366" height="772" filterUnits="userSpaceOnUse" color-interpolation-filters="sRGB">
<feFlood flood-opacity="0" result="BackgroundImageFix"/>
<feGaussianBlur in="BackgroundImageFix" stdDeviation="40"/>
<feComposite in2="SourceAlpha" operator="in" result="effect1_backgroundBlur_176_640"/>
<feColorMatrix in="SourceAlpha" type="matrix" values="0 0 0 0 0 0 0 0 0 0 0 0 0 0 0 0 0 0 127 0" result="hardAlpha"/>
<feOffset dy="3.6"/>
<feGaussianBlur stdDeviation="1.8"/>
<feComposite in2="hardAlpha" operator="out"/>
<feColorMatrix type="matrix" values="0 0 0 0 0 0 0 0 0 0 0 0 0 0 0 0 0 0 0.25 0"/>
<feBlend mode="normal" in2="effect1_backgroundBlur_176_640" result="effect2_dropShadow_176_640"/>
<feBlend mode="normal" in="SourceGraphic" in2="effect2_dropShadow_176_640" result="shape"/>
</filter>
<linearGradient id="paint0_linear_176_640" x1="107" y1="0" x2="107" y2="612" gradientUnits="userSpaceOnUse">
<stop offset="0.06" stop-color="#F6F6F6" stop-opacity="0.9"/>
<stop offset="1" stop-color="#F6F6F6" stop-opacity="0"/>
</linearGradient>
</defs>
</svg>
