<svg width="282" height="329" viewBox="0 0 282 329" fill="none" xmlns="http://www.w3.org/2000/svg">
<g filter="url(#filter0_df_359_1327)">
<path d="M86.1226 197.831C78.358 210.709 55.9674 211.443 36.1117 199.471C16.2561 187.499 6.45439 167.355 14.219 154.477C21.9836 141.599 44.3743 140.865 64.2299 152.837C84.0856 164.809 93.8873 184.954 86.1226 197.831Z" fill="url(#paint0_linear_359_1327)"/>
</g>
<g filter="url(#filter1_df_359_1327)">
<path d="M73.2437 243.431C49.229 187.521 83.7513 154.751 127.448 135.982C167.595 118.738 211.387 124.507 229.378 175.767C244.767 219.614 192.609 282.995 179.038 298.466C177.096 300.68 174.188 301.651 171.313 301.011C153.51 297.044 89.0991 280.346 73.2437 243.431Z" fill="url(#paint1_linear_359_1327)"/>
</g>
<g filter="url(#filter2_df_359_1327)">
<path d="M239.715 107.396C239.715 175.398 185.08 193.822 126.891 193.822C73.4292 193.822 26.9821 168.584 31.5084 108.013C35.4592 55.1426 128.311 12.4065 148.662 3.65615C151.161 2.58135 153.935 2.84196 156.214 4.32781C172.707 15.0794 239.715 61.5794 239.715 107.396Z" fill="url(#paint2_linear_359_1327)"/>
</g>
<g filter="url(#filter3_dif_359_1327)">
<path d="M210.915 123.838C210.915 154.855 175.972 179.998 132.867 179.998C89.7622 179.998 54.819 154.855 54.819 123.838C54.819 92.8219 89.7622 67.6782 132.867 67.6782C175.972 67.6782 210.915 92.8219 210.915 123.838Z" fill="url(#paint3_linear_359_1327)"/>
</g>
<g filter="url(#filter4_f_359_1327)">
<path d="M88.2759 125.333C95.3619 125.333 101.106 129.29 101.106 134.172C101.106 139.053 95.3619 143.01 88.2759 143.01C81.1899 143.01 75.4455 139.053 75.4455 134.172C75.4455 129.29 81.1899 125.333 88.2759 125.333Z" fill="url(#paint4_linear_359_1327)"/>
</g>
<g filter="url(#filter5_f_359_1327)">
<path d="M166.399 125.333C159.313 125.333 153.568 129.29 153.568 134.172C153.568 139.053 159.313 143.01 166.399 143.01C173.485 143.01 179.229 139.053 179.229 134.172C179.229 129.29 173.485 125.333 166.399 125.333Z" fill="url(#paint5_linear_359_1327)"/>
</g>
<g filter="url(#filter6_df_359_1327)">
<path d="M202.129 203.728C191.586 193.005 196.443 171.135 212.976 154.881C229.51 138.626 251.459 134.141 262.001 144.864C272.544 155.587 267.687 177.457 251.154 193.712C234.62 209.967 212.671 214.451 202.129 203.728Z" fill="url(#paint6_linear_359_1327)"/>
</g>
<g filter="url(#filter7_f_359_1327)">
<path fill-rule="evenodd" clip-rule="evenodd" d="M100.948 99.9341C101.744 99.9341 102.388 100.507 102.388 101.214L102.388 106.334C102.388 107.041 101.744 107.614 100.948 107.614C100.153 107.614 99.5084 107.041 99.5084 106.334L99.5084 101.214C99.5084 100.507 100.153 99.9341 100.948 99.9341Z" fill="#547AC3"/>
</g>
<g filter="url(#filter8_f_359_1327)">
<path fill-rule="evenodd" clip-rule="evenodd" d="M154.708 99.9341C155.504 99.9341 156.148 100.507 156.148 101.214L156.148 106.334C156.148 107.041 155.504 107.614 154.708 107.614C153.913 107.614 153.268 107.041 153.268 106.334L153.268 101.214C153.268 100.507 153.913 99.9341 154.708 99.9341Z" fill="#547AC3"/>
</g>
<g filter="url(#filter9_f_359_1327)">
<path d="M112 116.76C112 111.723 107.057 107.64 100.96 107.64C94.8627 107.64 89.9199 111.723 89.9199 116.76" stroke="#557BC4" stroke-width="3.36" stroke-linecap="round"/>
</g>
<g filter="url(#filter10_f_359_1327)">
<path d="M165.76 116.76C165.76 111.723 160.817 107.64 154.72 107.64C148.623 107.64 143.68 111.723 143.68 116.76" stroke="#557BC4" stroke-width="3.36" stroke-linecap="round"/>
</g>
<g filter="url(#filter11_f_359_1327)">
<path fill-rule="evenodd" clip-rule="evenodd" d="M114.537 140.952C113.993 139.802 113.677 138.558 113.636 137.257C113.633 137.15 113.691 137.056 113.778 137.006C113.691 137.056 113.633 137.15 113.636 137.257C113.658 137.938 113.755 138.604 113.92 139.248C114.07 139.834 114.277 140.402 114.536 140.949L114.537 140.952ZM114.558 140.996L114.56 141C115.661 143.293 117.673 145.206 120.227 146.434C117.671 145.205 115.658 143.291 114.558 140.996ZM113.92 132.936C111.554 132.936 109.528 134.88 109.606 137.383C109.88 146.12 118.217 151.944 126.88 151.944C135.543 151.944 143.88 146.12 144.153 137.383C144.232 134.881 142.206 132.936 139.84 132.936L113.92 132.936Z" fill="#557BC4"/>
</g>
<g filter="url(#filter12_f_359_1327)">
<path d="M119.968 135.672C119.968 135.115 120.419 134.664 120.976 134.664H131.632C132.189 134.664 132.64 135.115 132.64 135.672C132.64 137.342 131.286 138.696 129.616 138.696H122.992C121.322 138.696 119.968 137.342 119.968 135.672Z" fill="#F6F6F6"/>
</g>
<defs>
<filter id="filter0_df_359_1327" x="9.63748" y="142.589" width="81.0667" height="69.2421" filterUnits="userSpaceOnUse" color-interpolation-filters="sRGB">
<feFlood flood-opacity="0" result="BackgroundImageFix"/>
<feColorMatrix in="SourceAlpha" type="matrix" values="0 0 0 0 0 0 0 0 0 0 0 0 0 0 0 0 0 0 127 0" result="hardAlpha"/>
<feOffset dy="1.92"/>
<feGaussianBlur stdDeviation="0.96"/>
<feComposite in2="hardAlpha" operator="out"/>
<feColorMatrix type="matrix" values="0 0 0 0 0 0 0 0 0 0 0 0 0 0 0 0 0 0 0.25 0"/>
<feBlend mode="normal" in2="BackgroundImageFix" result="effect1_dropShadow_359_1327"/>
<feBlend mode="normal" in="SourceGraphic" in2="effect1_dropShadow_359_1327" result="shape"/>
<feGaussianBlur stdDeviation="0.864" result="effect2_foregroundBlur_359_1327"/>
</filter>
<filter id="filter1_df_359_1327" x="59.6014" y="123.777" width="178.349" height="185.492" filterUnits="userSpaceOnUse" color-interpolation-filters="sRGB">
<feFlood flood-opacity="0" result="BackgroundImageFix"/>
<feColorMatrix in="SourceAlpha" type="matrix" values="0 0 0 0 0 0 0 0 0 0 0 0 0 0 0 0 0 0 127 0" result="hardAlpha"/>
<feOffset dy="2.304"/>
<feGaussianBlur stdDeviation="2.88"/>
<feComposite in2="hardAlpha" operator="out"/>
<feColorMatrix type="matrix" values="0 0 0 0 0 0 0 0 0 0 0 0 0 0 0 0 0 0 0.25 0"/>
<feBlend mode="normal" in2="BackgroundImageFix" result="effect1_dropShadow_359_1327"/>
<feBlend mode="normal" in="SourceGraphic" in2="effect1_dropShadow_359_1327" result="shape"/>
<feGaussianBlur stdDeviation="1.152" result="effect2_foregroundBlur_359_1327"/>
</filter>
<filter id="filter2_df_359_1327" x="28.899" y="0.696" width="213.216" height="196.966" filterUnits="userSpaceOnUse" color-interpolation-filters="sRGB">
<feFlood flood-opacity="0" result="BackgroundImageFix"/>
<feColorMatrix in="SourceAlpha" type="matrix" values="0 0 0 0 0 0 0 0 0 0 0 0 0 0 0 0 0 0 127 0" result="hardAlpha"/>
<feOffset dx="0.48" dy="1.92"/>
<feGaussianBlur stdDeviation="0.96"/>
<feComposite in2="hardAlpha" operator="out"/>
<feColorMatrix type="matrix" values="0 0 0 0 0 0 0 0 0 0 0 0 0 0 0 0 0 0 0.25 0"/>
<feBlend mode="normal" in2="BackgroundImageFix" result="effect1_dropShadow_359_1327"/>
<feBlend mode="normal" in="SourceGraphic" in2="effect1_dropShadow_359_1327" result="shape"/>
<feGaussianBlur stdDeviation="1.152" result="effect2_foregroundBlur_359_1327"/>
</filter>
<filter id="filter3_dif_359_1327" x="49.059" y="64.2222" width="167.616" height="123.84" filterUnits="userSpaceOnUse" color-interpolation-filters="sRGB">
<feFlood flood-opacity="0" result="BackgroundImageFix"/>
<feColorMatrix in="SourceAlpha" type="matrix" values="0 0 0 0 0 0 0 0 0 0 0 0 0 0 0 0 0 0 127 0" result="hardAlpha"/>
<feOffset dy="2.304"/>
<feGaussianBlur stdDeviation="2.88"/>
<feComposite in2="hardAlpha" operator="out"/>
<feColorMatrix type="matrix" values="0 0 0 0 0 0 0 0 0 0 0 0 0 0 0 0 0 0 0.1 0"/>
<feBlend mode="normal" in2="BackgroundImageFix" result="effect1_dropShadow_359_1327"/>
<feBlend mode="normal" in="SourceGraphic" in2="effect1_dropShadow_359_1327" result="shape"/>
<feColorMatrix in="SourceAlpha" type="matrix" values="0 0 0 0 0 0 0 0 0 0 0 0 0 0 0 0 0 0 127 0" result="hardAlpha"/>
<feOffset dy="2.304"/>
<feGaussianBlur stdDeviation="8.64"/>
<feComposite in2="hardAlpha" operator="arithmetic" k2="-1" k3="1"/>
<feColorMatrix type="matrix" values="0 0 0 0 0 0 0 0 0 0 0 0 0 0 0 0 0 0 0.2 0"/>
<feBlend mode="normal" in2="shape" result="effect2_innerShadow_359_1327"/>
<feGaussianBlur stdDeviation="0.288" result="effect3_foregroundBlur_359_1327"/>
</filter>
<filter id="filter4_f_359_1327" x="72.5943" y="122.482" width="31.3632" height="23.3799" filterUnits="userSpaceOnUse" color-interpolation-filters="sRGB">
<feFlood flood-opacity="0" result="BackgroundImageFix"/>
<feBlend mode="normal" in="SourceGraphic" in2="BackgroundImageFix" result="shape"/>
<feGaussianBlur stdDeviation="1.4256" result="effect1_foregroundBlur_359_1327"/>
</filter>
<filter id="filter5_f_359_1327" x="150.717" y="122.482" width="31.3632" height="23.3799" filterUnits="userSpaceOnUse" color-interpolation-filters="sRGB">
<feFlood flood-opacity="0" result="BackgroundImageFix"/>
<feBlend mode="normal" in="SourceGraphic" in2="BackgroundImageFix" result="shape"/>
<feGaussianBlur stdDeviation="1.4256" result="effect1_foregroundBlur_359_1327"/>
</filter>
<filter id="filter6_df_359_1327" x="190.796" y="135.577" width="82.5378" height="82.0464" filterUnits="userSpaceOnUse" color-interpolation-filters="sRGB">
<feFlood flood-opacity="0" result="BackgroundImageFix"/>
<feColorMatrix in="SourceAlpha" type="matrix" values="0 0 0 0 0 0 0 0 0 0 0 0 0 0 0 0 0 0 127 0" result="hardAlpha"/>
<feOffset dy="2.304"/>
<feGaussianBlur stdDeviation="2.88"/>
<feComposite in2="hardAlpha" operator="out"/>
<feColorMatrix type="matrix" values="0 0 0 0 0 0 0 0 0 0 0 0 0 0 0 0 0 0 0.2 0"/>
<feBlend mode="normal" in2="BackgroundImageFix" result="effect1_dropShadow_359_1327"/>
<feBlend mode="normal" in="SourceGraphic" in2="effect1_dropShadow_359_1327" result="shape"/>
<feGaussianBlur stdDeviation="0.72" result="effect2_foregroundBlur_359_1327"/>
</filter>
<filter id="filter7_f_359_1327" x="99.0284" y="99.4541" width="3.84" height="8.63993" filterUnits="userSpaceOnUse" color-interpolation-filters="sRGB">
<feFlood flood-opacity="0" result="BackgroundImageFix"/>
<feBlend mode="normal" in="SourceGraphic" in2="BackgroundImageFix" result="shape"/>
<feGaussianBlur stdDeviation="0.24" result="effect1_foregroundBlur_359_1327"/>
</filter>
<filter id="filter8_f_359_1327" x="152.788" y="99.4541" width="3.84" height="8.63993" filterUnits="userSpaceOnUse" color-interpolation-filters="sRGB">
<feFlood flood-opacity="0" result="BackgroundImageFix"/>
<feBlend mode="normal" in="SourceGraphic" in2="BackgroundImageFix" result="shape"/>
<feGaussianBlur stdDeviation="0.24" result="effect1_foregroundBlur_359_1327"/>
</filter>
<filter id="filter9_f_359_1327" x="87.7599" y="105.48" width="26.4" height="13.44" filterUnits="userSpaceOnUse" color-interpolation-filters="sRGB">
<feFlood flood-opacity="0" result="BackgroundImageFix"/>
<feBlend mode="normal" in="SourceGraphic" in2="BackgroundImageFix" result="shape"/>
<feGaussianBlur stdDeviation="0.24" result="effect1_foregroundBlur_359_1327"/>
</filter>
<filter id="filter10_f_359_1327" x="141.52" y="105.48" width="26.4" height="13.44" filterUnits="userSpaceOnUse" color-interpolation-filters="sRGB">
<feFlood flood-opacity="0" result="BackgroundImageFix"/>
<feBlend mode="normal" in="SourceGraphic" in2="BackgroundImageFix" result="shape"/>
<feGaussianBlur stdDeviation="0.24" result="effect1_foregroundBlur_359_1327"/>
</filter>
<filter id="filter11_f_359_1327" x="109.028" y="132.36" width="35.7034" height="20.1601" filterUnits="userSpaceOnUse" color-interpolation-filters="sRGB">
<feFlood flood-opacity="0" result="BackgroundImageFix"/>
<feBlend mode="normal" in="SourceGraphic" in2="BackgroundImageFix" result="shape"/>
<feGaussianBlur stdDeviation="0.288" result="effect1_foregroundBlur_359_1327"/>
</filter>
<filter id="filter12_f_359_1327" x="119.392" y="134.088" width="13.824" height="5.18398" filterUnits="userSpaceOnUse" color-interpolation-filters="sRGB">
<feFlood flood-opacity="0" result="BackgroundImageFix"/>
<feBlend mode="normal" in="SourceGraphic" in2="BackgroundImageFix" result="shape"/>
<feGaussianBlur stdDeviation="0.288" result="effect1_foregroundBlur_359_1327"/>
</filter>
<linearGradient id="paint0_linear_359_1327" x1="64.2299" y1="152.837" x2="36.1117" y2="199.471" gradientUnits="userSpaceOnUse">
<stop stop-color="#E3FEE8"/>
<stop offset="1" stop-color="#9BC7A3"/>
</linearGradient>
<linearGradient id="paint1_linear_359_1327" x1="119.714" y1="170.849" x2="336.892" y2="285.332" gradientUnits="userSpaceOnUse">
<stop stop-color="#D8F5DD"/>
<stop offset="1" stop-color="#709C78"/>
</linearGradient>
<linearGradient id="paint2_linear_359_1327" x1="100.408" y1="8.07123" x2="209.975" y2="278.343" gradientUnits="userSpaceOnUse">
<stop stop-color="#D8F5DD"/>
<stop offset="1" stop-color="#709C78"/>
</linearGradient>
<linearGradient id="paint3_linear_359_1327" x1="132.867" y1="67.6782" x2="132.867" y2="309.353" gradientUnits="userSpaceOnUse">
<stop stop-color="#F6F6F6"/>
<stop offset="1" stop-color="#5379C2"/>
</linearGradient>
<linearGradient id="paint4_linear_359_1327" x1="94.4345" y1="127.858" x2="83.2028" y2="143.755" gradientUnits="userSpaceOnUse">
<stop stop-color="#FFDEDE"/>
<stop offset="1" stop-color="#FFDEDE" stop-opacity="0.8"/>
</linearGradient>
<linearGradient id="paint5_linear_359_1327" x1="160.24" y1="127.858" x2="171.472" y2="143.755" gradientUnits="userSpaceOnUse">
<stop stop-color="#FFDEDE"/>
<stop offset="1" stop-color="#FFDEDE" stop-opacity="0.8"/>
</linearGradient>
<linearGradient id="paint6_linear_359_1327" x1="257.53" y1="193.433" x2="196.83" y2="137.966" gradientUnits="userSpaceOnUse">
<stop stop-color="#A9CDAF"/>
<stop offset="0.512719" stop-color="#D9F6DE"/>
<stop offset="1" stop-color="#ACCFB2"/>
</linearGradient>
</defs>
</svg>
