<svg width="370" height="140" viewBox="0 0 370 140" fill="none" xmlns="http://www.w3.org/2000/svg">
<g filter="url(#filter0_b_347_1059)">
<path fill-rule="evenodd" clip-rule="evenodd" d="M51 1C23.3858 1 1 23.3858 1 51C1 78.6142 23.3858 101 51 101H271.924C272.62 101 273.218 101.477 273.416 102.143C277.02 114.281 294.442 135.096 339.768 138.518C341.549 138.652 342.09 135.611 340.439 134.931C326.655 129.252 310.817 118.631 309.578 102.532C309.513 101.695 310.194 101 311.033 101H319C346.614 101 369 78.6142 369 51C369 23.3858 346.614 1 319 1H51Z" fill="#F6F6F6" fill-opacity="0.5"/>
<path d="M309.578 102.532L310.076 102.493L309.578 102.532ZM339.768 138.518L339.73 139.016L339.768 138.518ZM340.439 134.931L340.63 134.468L340.439 134.931ZM273.416 102.143L272.937 102.286L273.416 102.143ZM1.5 51C1.5 23.6619 23.6619 1.5 51 1.5V0.5C23.1096 0.5 0.5 23.1096 0.5 51H1.5ZM51 100.5C23.6619 100.5 1.5 78.3381 1.5 51H0.5C0.5 78.8904 23.1096 101.5 51 101.5V100.5ZM271.924 100.5H51V101.5H271.924V100.5ZM339.806 138.019C294.619 134.608 277.423 113.882 273.896 102.001L272.937 102.286C276.617 114.681 294.266 135.584 339.73 139.016L339.806 138.019ZM309.079 102.57C309.712 110.784 314.068 117.574 319.965 123.007C325.86 128.437 333.323 132.54 340.249 135.393L340.63 134.468C333.771 131.643 326.423 127.595 320.643 122.271C314.865 116.949 310.683 110.378 310.076 102.493L309.079 102.57ZM319 100.5H311.033V101.5H319V100.5ZM368.5 51C368.5 78.3381 346.338 100.5 319 100.5V101.5C346.89 101.5 369.5 78.8904 369.5 51H368.5ZM319 1.5C346.338 1.5 368.5 23.6619 368.5 51H369.5C369.5 23.1096 346.89 0.5 319 0.5V1.5ZM51 1.5H319V0.5H51V1.5ZM310.076 102.493C310.035 101.964 310.467 101.5 311.033 101.5V100.5C309.92 100.5 308.991 101.426 309.079 102.57L310.076 102.493ZM339.73 139.016C340.984 139.111 341.707 138.076 341.882 137.12C342.058 136.162 341.757 134.933 340.63 134.468L340.249 135.393C340.772 135.609 341.027 136.241 340.899 136.94C340.771 137.64 340.333 138.059 339.806 138.019L339.73 139.016ZM271.924 101.5C272.384 101.5 272.798 101.816 272.937 102.286L273.896 102.001C273.639 101.137 272.856 100.5 271.924 100.5V101.5Z" fill="#F6F6F6"/>
</g>
<path d="M54.7197 48.5293H53.0498V32.7354H54.7197V48.5293ZM53.5156 39.7666H49.8066V38.3955H53.5156V39.7666ZM46.8535 37.165C46.8477 38.3311 46.6572 39.4619 46.2822 40.5576C45.9131 41.6533 45.3916 42.6318 44.7178 43.4932C44.0439 44.3486 43.2734 44.9961 42.4062 45.4355L41.4043 44.1348C42.1895 43.7598 42.8955 43.2031 43.5225 42.4648C44.1494 41.7266 44.6357 40.8975 44.9814 39.9775C45.333 39.0518 45.5088 38.1143 45.5088 37.165V35.0469H46.8535V37.165ZM47.2051 37.165C47.2051 38.0615 47.3779 38.9521 47.7236 39.8369C48.0752 40.7158 48.5615 41.5068 49.1826 42.21C49.8037 42.9072 50.5098 43.4316 51.3008 43.7832L50.3164 45.1191C49.4434 44.6973 48.6699 44.0732 47.9961 43.2471C47.3281 42.4209 46.8066 41.4834 46.4316 40.4346C46.0625 39.3799 45.8779 38.29 45.8779 37.165V35.0469H47.2051V37.165ZM50.7031 35.6885H42.0283V34.335H50.7031V35.6885ZM69.8984 38.6768H59.0264V37.3584H69.8984V38.6768ZM71.5332 42.0078H57.1191V40.6719H71.5332V42.0078ZM60.6875 38.0264H59.0264V33.3154H60.6875V38.0264ZM69.9863 48.1162H58.9209V46.7451H69.9863V48.1162ZM60.5908 47.1406H58.9209V43.5107H60.5908V47.1406ZM84.374 42.5527C85.4521 42.5527 86.3838 42.667 87.1689 42.8955C87.96 43.124 88.5635 43.4639 88.9795 43.915C89.3955 44.3604 89.6035 44.8906 89.6035 45.5059C89.6035 46.127 89.3955 46.6602 88.9795 47.1055C88.5635 47.5508 87.96 47.8906 87.1689 48.125C86.3838 48.3652 85.4521 48.4883 84.374 48.4941C83.2842 48.4883 82.3438 48.3652 81.5527 48.125C80.7617 47.8906 80.1523 47.5508 79.7246 47.1055C79.3027 46.6602 79.0918 46.127 79.0918 45.5059C79.0918 44.8906 79.3027 44.3604 79.7246 43.915C80.1523 43.4639 80.7617 43.124 81.5527 42.8955C82.3496 42.667 83.29 42.5527 84.374 42.5527ZM84.374 43.8623C83.6182 43.8623 82.9707 43.9268 82.4316 44.0557C81.8926 44.1846 81.4795 44.3721 81.1924 44.6182C80.9053 44.8643 80.7646 45.1602 80.7705 45.5059C80.7646 45.8516 80.9053 46.1475 81.1924 46.3936C81.4795 46.6396 81.8926 46.8301 82.4316 46.9648C82.9766 47.0996 83.624 47.167 84.374 47.167C85.1299 47.167 85.7773 47.0996 86.3164 46.9648C86.8555 46.8301 87.2656 46.6396 87.5469 46.3936C87.834 46.1475 87.9775 45.8516 87.9775 45.5059C87.9775 45.1602 87.834 44.8643 87.5469 44.6182C87.2656 44.3721 86.8555 44.1846 86.3164 44.0557C85.7773 43.9268 85.1299 43.8623 84.374 43.8623ZM89.4629 42.1484H87.8018V32.7354H89.4629V42.1484ZM91.7568 38.0088H88.9971V36.6025H91.7568V38.0088ZM79.3379 35.9961H83.46V33.7285H85.1299V41.041H77.6943V33.7285H79.3379V35.9961ZM83.46 39.7051V37.3057H79.3379V39.7051H83.46ZM99.9307 42.5527C101.009 42.5527 101.94 42.667 102.726 42.8955C103.517 43.124 104.12 43.4639 104.536 43.915C104.952 44.3604 105.16 44.8906 105.16 45.5059C105.16 46.127 104.952 46.6602 104.536 47.1055C104.12 47.5508 103.517 47.8906 102.726 48.125C101.94 48.3652 101.009 48.4883 99.9307 48.4941C98.8408 48.4883 97.9004 48.3652 97.1094 48.125C96.3184 47.8906 95.709 47.5508 95.2812 47.1055C94.8594 46.6602 94.6484 46.127 94.6484 45.5059C94.6484 44.8906 94.8594 44.3604 95.2812 43.915C95.709 43.4639 96.3184 43.124 97.1094 42.8955C97.9062 42.667 98.8467 42.5527 99.9307 42.5527ZM99.9307 43.8623C99.1748 43.8623 98.5273 43.9268 97.9883 44.0557C97.4492 44.1846 97.0361 44.3721 96.749 44.6182C96.4619 44.8643 96.3213 45.1602 96.3271 45.5059C96.3213 45.8516 96.4619 46.1475 96.749 46.3936C97.0361 46.6396 97.4492 46.8301 97.9883 46.9648C98.5332 47.0996 99.1807 47.167 99.9307 47.167C100.687 47.167 101.334 47.0996 101.873 46.9648C102.412 46.8301 102.822 46.6396 103.104 46.3936C103.391 46.1475 103.534 45.8516 103.534 45.5059C103.534 45.1602 103.391 44.8643 103.104 44.6182C102.822 44.3721 102.412 44.1846 101.873 44.0557C101.334 43.9268 100.687 43.8623 99.9307 43.8623ZM105.02 42.1484H103.358V32.7354H105.02V42.1484ZM107.313 38.0088H104.554V36.6025H107.313V38.0088ZM94.8945 35.9961H99.0166V33.7285H100.687V41.041H93.251V33.7285H94.8945V35.9961ZM99.0166 39.7051V37.3057H94.8945V39.7051H99.0166ZM120.189 34.8271H110.003V33.4912H120.189V34.8271ZM122.615 40.3906H108.201V39.0371H122.615V40.3906ZM116.208 43.5811H114.547V39.96H116.208V43.5811ZM120.787 34.6514C120.787 35.5654 120.758 36.4004 120.699 37.1562C120.641 37.9062 120.5 38.7588 120.277 39.7139L118.643 39.5205C118.789 38.8877 118.897 38.2959 118.968 37.7451C119.038 37.1885 119.082 36.6963 119.1 36.2686C119.117 35.8408 119.126 35.3428 119.126 34.7744V34.6514V33.4912H120.787V34.6514ZM120.866 48.4854H119.188V44.4248H109.678V43.0713H120.866V48.4854ZM135.746 34.8271H125.56V33.4912H135.746V34.8271ZM138.172 40.3906H123.758V39.0371H138.172V40.3906ZM131.765 43.5811H130.104V39.96H131.765V43.5811ZM136.344 34.6514C136.344 35.5654 136.314 36.4004 136.256 37.1562C136.197 37.9062 136.057 38.7588 135.834 39.7139L134.199 39.5205C134.346 38.8877 134.454 38.2959 134.524 37.7451C134.595 37.1885 134.639 36.6963 134.656 36.2686C134.674 35.8408 134.683 35.3428 134.683 34.7744V34.6514V33.4912H136.344V34.6514ZM136.423 48.4854H134.744V44.4248H125.234V43.0713H136.423V48.4854ZM144.456 33.8516C145.271 33.8516 146.003 34.0127 146.653 34.335C147.304 34.6514 147.811 35.0967 148.174 35.6709C148.543 36.2393 148.728 36.8867 148.728 37.6133C148.728 38.3398 148.543 38.9902 148.174 39.5645C147.811 40.1328 147.304 40.5781 146.653 40.9004C146.003 41.2168 145.271 41.375 144.456 41.375C143.63 41.375 142.889 41.2168 142.232 40.9004C141.582 40.5781 141.072 40.1328 140.703 39.5645C140.34 38.9902 140.158 38.3398 140.158 37.6133C140.158 36.8867 140.34 36.2393 140.703 35.6709C141.072 35.0967 141.582 34.6514 142.232 34.335C142.889 34.0127 143.63 33.8516 144.456 33.8516ZM144.456 35.3105C143.946 35.3105 143.489 35.4043 143.085 35.5918C142.687 35.7793 142.373 36.0518 142.145 36.4092C141.916 36.7607 141.802 37.1621 141.802 37.6133C141.802 38.0703 141.916 38.4717 142.145 38.8174C142.373 39.1631 142.687 39.4326 143.085 39.626C143.489 39.8193 143.946 39.916 144.456 39.916C144.96 39.916 145.414 39.8193 145.818 39.626C146.223 39.4326 146.536 39.1631 146.759 38.8174C146.987 38.4717 147.102 38.0703 147.102 37.6133C147.102 37.1621 146.987 36.7607 146.759 36.4092C146.536 36.0518 146.223 35.7793 145.818 35.5918C145.414 35.4043 144.96 35.3105 144.456 35.3105ZM152.34 48.5293H150.679V32.7354H152.34V48.5293ZM139.394 43.748C141.333 43.748 143.152 43.7158 144.852 43.6514C146.551 43.5869 148.162 43.4434 149.686 43.2207L149.809 44.4424C148.713 44.6475 147.57 44.7998 146.381 44.8994C145.197 44.999 144.087 45.0635 143.05 45.0928C142.013 45.1221 140.867 45.1367 139.613 45.1367L139.394 43.748ZM159.02 47L163.59 34.2734H165.831L170.41 47H168.345L164.759 36.6025H164.653L161.059 47H159.02ZM168.011 42.0166V43.6338H161.401V42.0166H168.011ZM173.979 47H172.045V34.2734H173.979V47ZM193.016 41.3574H182.047V40.0127H193.016V41.3574ZM194.668 46.5693H180.254V45.1895H194.668V46.5693ZM188.243 45.6992H186.608V40.6104H188.243V45.6992ZM192.866 35.3105H183.726V40.6279H182.047V33.9746H192.866V35.3105ZM210.207 43.0801H195.793V41.6914H210.207V43.0801ZM203.782 48.4941H202.139V42.5352H203.782V48.4941ZM202.965 33.333C204.072 33.333 205.051 33.4766 205.9 33.7637C206.75 34.0508 207.406 34.4609 207.869 34.9941C208.338 35.5215 208.572 36.1396 208.572 36.8486C208.572 37.54 208.338 38.1465 207.869 38.668C207.406 39.1895 206.747 39.5908 205.892 39.8721C205.042 40.1533 204.066 40.2939 202.965 40.2939C201.857 40.2939 200.882 40.1533 200.038 39.8721C199.194 39.5908 198.535 39.1895 198.061 38.668C197.592 38.1465 197.357 37.54 197.357 36.8486C197.357 36.1396 197.592 35.5215 198.061 34.9941C198.535 34.4609 199.194 34.0508 200.038 33.7637C200.882 33.4766 201.857 33.333 202.965 33.333ZM202.965 34.6865C202.186 34.6865 201.503 34.7715 200.917 34.9414C200.331 35.1113 199.877 35.3633 199.555 35.6973C199.232 36.0254 199.074 36.4092 199.08 36.8486C199.074 37.2764 199.232 37.6514 199.555 37.9736C199.877 38.29 200.331 38.5361 200.917 38.7119C201.503 38.8818 202.186 38.9668 202.965 38.9668C203.744 38.9668 204.427 38.8818 205.013 38.7119C205.599 38.5361 206.053 38.29 206.375 37.9736C206.703 37.6514 206.867 37.2764 206.867 36.8486C206.867 36.4092 206.706 36.0254 206.384 35.6973C206.067 35.3633 205.613 35.1113 205.021 34.9414C204.43 34.7715 203.744 34.6865 202.965 34.6865ZM219.638 44.6006H212.246V34.2559H219.638V44.6006ZM213.89 43.2646H218.003V35.5742H213.89V43.2646ZM224.419 48.5293H222.74V32.7354H224.419V48.5293ZM232.628 33.7285H236.732V35.2051H234.412V49.0918H236.732V50.5859H232.628V33.7285ZM250.584 42.3506H248.967V32.7354H250.584V42.3506ZM252.438 38.0703H249.696V36.6904H252.438V38.0703ZM239.501 36.1895H241.074V33.8604H242.454V41.1729H238.121V33.8604H239.501V36.1895ZM241.074 39.8281V37.5166H239.501V39.8281H241.074ZM244.739 36.1895H246.304V33.8604H247.684V41.1729H243.342V33.8604H244.739V36.1895ZM246.304 39.8281V37.5166H244.739V39.8281H246.304ZM245.319 42.6318C246.421 42.6318 247.376 42.7461 248.185 42.9746C248.993 43.1973 249.614 43.5283 250.048 43.9678C250.481 44.4072 250.701 44.9346 250.707 45.5498C250.701 46.1592 250.481 46.6836 250.048 47.123C249.614 47.5625 248.993 47.8965 248.185 48.125C247.376 48.3535 246.421 48.4678 245.319 48.4678C244.206 48.4678 243.245 48.3535 242.437 48.125C241.634 47.8965 241.016 47.5625 240.582 47.123C240.148 46.6836 239.932 46.1592 239.932 45.5498C239.932 44.9346 240.148 44.4072 240.582 43.9678C241.016 43.5283 241.634 43.1973 242.437 42.9746C243.245 42.7461 244.206 42.6318 245.319 42.6318ZM245.319 43.9062C244.528 43.9121 243.86 43.9795 243.315 44.1084C242.771 44.2373 242.352 44.4248 242.059 44.6709C241.771 44.9111 241.631 45.2041 241.637 45.5498C241.631 45.8896 241.771 46.1797 242.059 46.4199C242.352 46.6602 242.771 46.8447 243.315 46.9736C243.866 47.1025 244.534 47.167 245.319 47.167C246.087 47.167 246.746 47.1025 247.297 46.9736C247.854 46.8447 248.278 46.6602 248.571 46.4199C248.87 46.1797 249.022 45.8896 249.028 45.5498C249.022 45.2041 248.87 44.9111 248.571 44.6709C248.278 44.4248 247.856 44.2373 247.306 44.1084C246.755 43.9795 246.093 43.9121 245.319 43.9062ZM265.253 34.8975H255.058V33.5439H265.253V34.8975ZM267.652 41.0762H253.309V39.6963H267.652V41.0762ZM265.815 34.8447C265.804 35.7646 265.769 36.6113 265.71 37.3848C265.657 38.1582 265.528 39.0488 265.323 40.0566L263.662 39.9775C263.814 39.2744 263.926 38.6152 263.996 38C264.072 37.3848 264.119 36.8545 264.137 36.4092C264.154 35.9639 264.169 35.4189 264.181 34.7744V34.6689V33.5439H265.815V34.6689V34.8447ZM261.025 43.1152C261.025 44.0293 260.762 44.8555 260.234 45.5938C259.713 46.3262 258.992 46.9355 258.072 47.4219C257.152 47.9082 256.104 48.2393 254.926 48.415L254.311 47.123C255.324 46.9883 256.232 46.7275 257.035 46.3408C257.838 45.9541 258.462 45.4824 258.907 44.9258C259.358 44.3691 259.581 43.7656 259.575 43.1152V42.4209H261.025V43.1152ZM261.263 43.1152C261.257 43.7656 261.482 44.3691 261.939 44.9258C262.396 45.4824 263.023 45.9541 263.82 46.3408C264.623 46.7275 265.528 46.9883 266.536 47.123L265.938 48.415C264.761 48.2393 263.709 47.9082 262.783 47.4219C261.863 46.9355 261.137 46.3262 260.604 45.5938C260.076 44.8613 259.812 44.0352 259.812 43.1152V42.4209H261.263V43.1152ZM281.917 48.5293H280.238V32.7354H281.917V48.5293ZM273.479 33.9219C274.265 33.9219 274.965 34.1475 275.58 34.5986C276.195 35.0498 276.676 35.6943 277.021 36.5322C277.367 37.3701 277.54 38.3428 277.54 39.4502C277.54 40.5635 277.367 41.5391 277.021 42.377C276.676 43.209 276.195 43.8506 275.58 44.3018C274.965 44.7529 274.265 44.9785 273.479 44.9785C272.694 44.9785 271.991 44.7529 271.37 44.3018C270.755 43.8506 270.274 43.209 269.929 42.377C269.583 41.5391 269.41 40.5635 269.41 39.4502C269.41 38.3428 269.583 37.3701 269.929 36.5322C270.274 35.6943 270.755 35.0498 271.37 34.5986C271.991 34.1475 272.694 33.9219 273.479 33.9219ZM273.479 35.416C272.999 35.416 272.571 35.5801 272.196 35.9082C271.821 36.2363 271.531 36.7051 271.326 37.3145C271.121 37.9238 271.021 38.6357 271.027 39.4502C271.021 40.2705 271.121 40.9854 271.326 41.5947C271.531 42.1982 271.821 42.6641 272.196 42.9922C272.571 43.3145 272.999 43.4756 273.479 43.4756C273.96 43.4756 274.385 43.3145 274.754 42.9922C275.129 42.6641 275.419 42.1982 275.624 41.5947C275.829 40.9854 275.932 40.2705 275.932 39.4502C275.932 38.6357 275.829 37.9238 275.624 37.3145C275.419 36.7051 275.129 36.2363 274.754 35.9082C274.385 35.5801 273.96 35.416 273.479 35.416ZM288.386 33.7285V50.5859H284.281V49.0918H286.602V35.2051H284.281V33.7285H288.386ZM300.172 40.1357H297.271V38.7734H300.172V40.1357ZM304.408 48.4854H302.8V32.7354H304.408V48.4854ZM301.2 47.7119H299.618V33.0342H301.2V47.7119ZM294.433 33.9922C295.112 33.9922 295.71 34.2207 296.226 34.6777C296.747 35.1289 297.148 35.7734 297.43 36.6113C297.717 37.4434 297.86 38.4219 297.86 39.5469C297.86 40.6719 297.717 41.6533 297.43 42.4912C297.148 43.3291 296.747 43.9766 296.226 44.4336C295.71 44.8848 295.112 45.1104 294.433 45.1104C293.747 45.1104 293.149 44.8848 292.64 44.4336C292.136 43.9766 291.74 43.3291 291.453 42.4912C291.172 41.6533 291.031 40.6719 291.031 39.5469C291.031 38.4219 291.172 37.4434 291.453 36.6113C291.74 35.7734 292.136 35.1289 292.64 34.6777C293.149 34.2207 293.747 33.9922 294.433 33.9922ZM294.433 35.5742C294.046 35.5742 293.715 35.7295 293.439 36.04C293.164 36.3506 292.95 36.8076 292.798 37.4111C292.651 38.0088 292.581 38.7207 292.587 39.5469C292.581 40.373 292.651 41.085 292.798 41.6826C292.95 42.2744 293.164 42.7285 293.439 43.0449C293.721 43.3613 294.052 43.5166 294.433 43.5107C294.813 43.5166 295.145 43.3613 295.426 43.0449C295.713 42.7285 295.93 42.2744 296.076 41.6826C296.229 41.0908 296.305 40.3789 296.305 39.5469C296.305 38.7207 296.229 38.0088 296.076 37.4111C295.93 36.8076 295.713 36.3506 295.426 36.04C295.145 35.7295 294.813 35.5742 294.433 35.5742ZM311.51 45.4443H309.866V40.8301H311.51V45.4443ZM317.381 45.4443H315.702V40.8301H317.381V45.4443ZM320.826 46.5254H306.412V45.1455H320.826V46.5254ZM313.593 33.6494C314.712 33.6553 315.711 33.8281 316.59 34.168C317.475 34.5078 318.163 34.9912 318.655 35.6182C319.153 36.2393 319.402 36.9541 319.402 37.7627C319.402 38.583 319.153 39.3008 318.655 39.916C318.163 40.5312 317.475 41.0117 316.59 41.3574C315.711 41.6973 314.712 41.8672 313.593 41.8672C312.468 41.8672 311.466 41.6973 310.587 41.3574C309.708 41.0117 309.02 40.5312 308.521 39.916C308.023 39.3008 307.774 38.583 307.774 37.7627C307.774 36.9541 308.023 36.2393 308.521 35.6182C309.02 34.9912 309.708 34.5078 310.587 34.168C311.466 33.8281 312.468 33.6553 313.593 33.6494ZM313.593 35.0029C312.767 34.9971 312.037 35.1084 311.404 35.3369C310.771 35.5596 310.279 35.8818 309.928 36.3037C309.582 36.7197 309.409 37.2061 309.409 37.7627C309.409 38.3193 309.582 38.8086 309.928 39.2305C310.279 39.6523 310.771 39.9805 311.404 40.2148C312.043 40.4434 312.772 40.5605 313.593 40.5664C314.407 40.5605 315.131 40.4434 315.764 40.2148C316.396 39.9805 316.889 39.6523 317.24 39.2305C317.598 38.8086 317.776 38.3193 317.776 37.7627C317.776 37.2061 317.598 36.7197 317.24 36.3037C316.889 35.8818 316.396 35.5596 315.764 35.3369C315.131 35.1084 314.407 34.9971 313.593 35.0029ZM323.762 47.123C323.533 47.123 323.322 47.0674 323.129 46.9561C322.941 46.8389 322.792 46.6865 322.681 46.499C322.569 46.3057 322.517 46.0947 322.522 45.8662C322.517 45.6436 322.569 45.4385 322.681 45.251C322.792 45.0576 322.941 44.9082 323.129 44.8027C323.322 44.6914 323.533 44.6357 323.762 44.6357C323.984 44.6357 324.189 44.6914 324.377 44.8027C324.57 44.9082 324.723 45.0576 324.834 45.251C324.945 45.4443 325.001 45.6494 325.001 45.8662C325.001 46.0947 324.945 46.3057 324.834 46.499C324.723 46.6865 324.57 46.8389 324.377 46.9561C324.189 47.0674 323.984 47.123 323.762 47.123ZM54.3418 62.3574H43.373V61.0127H54.3418V62.3574ZM55.9941 67.5693H41.5801V66.1895H55.9941V67.5693ZM49.5693 66.6992H47.9346V61.6104H49.5693V66.6992ZM54.1924 56.3105H45.0518V61.6279H43.373V54.9746H54.1924V56.3105ZM65.126 64.4844H63.4824V61.8213H65.126V64.4844ZM64.3174 54.0078C65.4658 54.0078 66.4619 54.1279 67.3057 54.3682C68.1494 54.6084 68.7969 54.9541 69.248 55.4053C69.7051 55.8506 69.9336 56.3867 69.9336 57.0137C69.9336 57.623 69.7051 58.1504 69.248 58.5957C68.7969 59.041 68.1494 59.3809 67.3057 59.6152C66.4619 59.8496 65.4658 59.9668 64.3174 59.9668C63.1689 59.9668 62.1699 59.8496 61.3203 59.6152C60.4766 59.3809 59.8232 59.041 59.3604 58.5957C58.9033 58.1504 58.6748 57.623 58.6748 57.0137C58.6748 56.3926 58.9033 55.8564 59.3604 55.4053C59.8232 54.9541 60.4766 54.6084 61.3203 54.3682C62.1699 54.1279 63.1689 54.0078 64.3174 54.0078ZM64.3174 55.3086C63.5088 55.3086 62.8115 55.376 62.2256 55.5107C61.6396 55.6396 61.1885 55.833 60.8721 56.0908C60.5615 56.3486 60.4062 56.6562 60.4062 57.0137C60.4062 57.3594 60.5615 57.6553 60.8721 57.9014C61.1885 58.1475 61.6367 58.3379 62.2168 58.4727C62.8027 58.6016 63.5029 58.666 64.3174 58.666C65.1143 58.666 65.8057 58.6016 66.3916 58.4727C66.9834 58.3379 67.4346 58.1475 67.7451 57.9014C68.0615 57.6553 68.2197 57.3594 68.2197 57.0137C68.2197 56.6562 68.0615 56.3486 67.7451 56.0908C67.4346 55.833 66.9834 55.6396 66.3916 55.5107C65.8057 55.376 65.1143 55.3086 64.3174 55.3086ZM69.749 69.292H58.8594V64.0449H69.749V69.292ZM60.5117 67.9385H68.1143V65.3809H60.5117V67.9385ZM71.498 62.3926H57.1367V61.0303H71.498V62.3926ZM85.7451 69.5293H84.0664V53.7354H85.7451V69.5293ZM77.3076 54.9219C78.0928 54.9219 78.793 55.1475 79.4082 55.5986C80.0234 56.0498 80.5039 56.6943 80.8496 57.5322C81.1953 58.3701 81.3682 59.3428 81.3682 60.4502C81.3682 61.5635 81.1953 62.5391 80.8496 63.377C80.5039 64.209 80.0234 64.8506 79.4082 65.3018C78.793 65.7529 78.0928 65.9785 77.3076 65.9785C76.5225 65.9785 75.8193 65.7529 75.1982 65.3018C74.583 64.8506 74.1025 64.209 73.7568 63.377C73.4111 62.5391 73.2383 61.5635 73.2383 60.4502C73.2383 59.3428 73.4111 58.3701 73.7568 57.5322C74.1025 56.6943 74.583 56.0498 75.1982 55.5986C75.8193 55.1475 76.5225 54.9219 77.3076 54.9219ZM77.3076 56.416C76.8271 56.416 76.3994 56.5801 76.0244 56.9082C75.6494 57.2363 75.3594 57.7051 75.1543 58.3145C74.9492 58.9238 74.8496 59.6357 74.8555 60.4502C74.8496 61.2705 74.9492 61.9854 75.1543 62.5947C75.3594 63.1982 75.6494 63.6641 76.0244 63.9922C76.3994 64.3145 76.8271 64.4756 77.3076 64.4756C77.7881 64.4756 78.2129 64.3145 78.582 63.9922C78.957 63.6641 79.2471 63.1982 79.4521 62.5947C79.6572 61.9854 79.7598 61.2705 79.7598 60.4502C79.7598 59.6357 79.6572 58.9238 79.4521 58.3145C79.2471 57.7051 78.957 57.2363 78.582 56.9082C78.2129 56.5801 77.7881 56.416 77.3076 56.416ZM105.731 61.8916H104.053V53.7354H105.731V61.8916ZM105.731 66.5146H96.9775V68.7646H95.334V65.2842H104.079V63.9219H95.29V62.6035H105.731V66.5146ZM106.285 69.3359H95.334V68H106.285V69.3359ZM101.882 56.0908H93.3477V54.7812H101.882V56.0908ZM92.9082 60.0635C94.7188 60.0518 96.4385 60.0166 98.0674 59.958C99.7021 59.8936 101.214 59.7764 102.603 59.6064L102.682 60.8193C101.24 61.042 99.6904 61.1973 98.0322 61.2852C96.3799 61.373 94.7393 61.4141 93.1104 61.4082L92.9082 60.0635ZM96.4238 60.6963H94.8154V55.3789H96.4238V60.6963ZM100.379 60.6963H98.7793V55.3789H100.379V60.6963ZM113.299 66.4443H111.655V61.8301H113.299V66.4443ZM119.17 66.4443H117.491V61.8301H119.17V66.4443ZM122.615 67.5254H108.201V66.1455H122.615V67.5254ZM115.382 54.6494C116.501 54.6553 117.5 54.8281 118.379 55.168C119.264 55.5078 119.952 55.9912 120.444 56.6182C120.942 57.2393 121.191 57.9541 121.191 58.7627C121.191 59.583 120.942 60.3008 120.444 60.916C119.952 61.5312 119.264 62.0117 118.379 62.3574C117.5 62.6973 116.501 62.8672 115.382 62.8672C114.257 62.8672 113.255 62.6973 112.376 62.3574C111.497 62.0117 110.809 61.5312 110.311 60.916C109.812 60.3008 109.563 59.583 109.563 58.7627C109.563 57.9541 109.812 57.2393 110.311 56.6182C110.809 55.9912 111.497 55.5078 112.376 55.168C113.255 54.8281 114.257 54.6553 115.382 54.6494ZM115.382 56.0029C114.556 55.9971 113.826 56.1084 113.193 56.3369C112.561 56.5596 112.068 56.8818 111.717 57.3037C111.371 57.7197 111.198 58.2061 111.198 58.7627C111.198 59.3193 111.371 59.8086 111.717 60.2305C112.068 60.6523 112.561 60.9805 113.193 61.2148C113.832 61.4434 114.562 61.5605 115.382 61.5664C116.196 61.5605 116.92 61.4434 117.553 61.2148C118.186 60.9805 118.678 60.6523 119.029 60.2305C119.387 59.8086 119.565 59.3193 119.565 58.7627C119.565 58.2061 119.387 57.7197 119.029 57.3037C118.678 56.8818 118.186 56.5596 117.553 56.3369C116.92 56.1084 116.196 55.9971 115.382 56.0029ZM136.027 69.4854H134.375V53.7354H136.027V69.4854ZM138.567 61.5049H135.649V60.125H138.567V61.5049ZM133.004 57.5674H123.67V56.2051H133.004V57.5674ZM128.407 58.7363C129.146 58.7363 129.811 58.8916 130.402 59.2021C131 59.5127 131.469 59.9463 131.809 60.5029C132.148 61.0596 132.321 61.6895 132.327 62.3926C132.321 63.1074 132.148 63.7432 131.809 64.2998C131.469 64.8506 131 65.2812 130.402 65.5918C129.811 65.9023 129.146 66.0576 128.407 66.0576C127.657 66.0576 126.983 65.9023 126.386 65.5918C125.794 65.2812 125.328 64.8506 124.988 64.2998C124.654 63.7432 124.487 63.1074 124.487 62.3926C124.487 61.6895 124.654 61.0596 124.988 60.5029C125.328 59.9463 125.794 59.5127 126.386 59.2021C126.983 58.8916 127.657 58.7363 128.407 58.7363ZM128.407 60.1162C127.962 60.1162 127.563 60.2129 127.212 60.4062C126.86 60.5938 126.582 60.8633 126.377 61.2148C126.178 61.5605 126.078 61.9531 126.078 62.3926C126.078 62.8438 126.178 63.2393 126.377 63.5791C126.582 63.9189 126.86 64.1855 127.212 64.3789C127.563 64.5723 127.962 64.666 128.407 64.6602C128.847 64.666 129.242 64.5723 129.594 64.3789C129.951 64.1855 130.227 63.9189 130.42 63.5791C130.619 63.2393 130.722 62.8438 130.728 62.3926C130.722 61.9531 130.619 61.5605 130.42 61.2148C130.227 60.8633 129.951 60.5938 129.594 60.4062C129.242 60.2129 128.847 60.1162 128.407 60.1162ZM129.225 56.7852H127.563V53.9463H129.225V56.7852ZM144.799 57.7432C144.799 58.9854 144.608 60.1719 144.228 61.3027C143.847 62.4336 143.311 63.4326 142.619 64.2998C141.928 65.167 141.131 65.8232 140.229 66.2686L139.183 64.8711C140.003 64.5078 140.732 63.957 141.371 63.2188C142.016 62.4805 142.517 61.6338 142.874 60.6787C143.231 59.7236 143.413 58.7451 143.419 57.7432V55.0449H144.799V57.7432ZM145.098 57.7432C145.092 58.6982 145.268 59.6328 145.625 60.5469C145.982 61.4609 146.478 62.2783 147.11 62.999C147.743 63.7139 148.461 64.2471 149.264 64.5986L148.262 65.9258C147.365 65.498 146.571 64.8711 145.88 64.0449C145.194 63.2129 144.658 62.2549 144.271 61.1709C143.891 60.0811 143.703 58.9385 143.709 57.7432V55.0449H145.098V57.7432ZM152.366 69.5293H150.688V53.7354H152.366V69.5293ZM166.815 57.7959H162.509V56.416H166.815V57.7959ZM166.868 61.1621H162.509V59.8086H166.868V61.1621ZM162.904 62.542H155.583V55.0889H162.904V62.542ZM157.244 61.2236H161.261V56.4424H157.244V61.2236ZM168.002 65.2402H166.332V53.7529H168.002V65.2402ZM168.354 69.1777H157.71V67.7979H168.354V69.1777ZM159.397 68.4482H157.71V64.1943H159.397V68.4482ZM187.004 59.4219H182.741V58.0508H187.004V59.4219ZM187.953 65.3281H186.283V53.7529H187.953V65.3281ZM188.375 69.1777H177.723V67.7979H188.375V69.1777ZM179.401 68.4219H177.723V64.1504H179.401V68.4219ZM179.182 54.7461C179.943 54.7461 180.635 54.9131 181.256 55.2471C181.883 55.5811 182.375 56.0469 182.732 56.6445C183.096 57.2363 183.28 57.9102 183.286 58.666C183.28 59.416 183.096 60.0898 182.732 60.6875C182.375 61.2852 181.883 61.7539 181.256 62.0938C180.635 62.4336 179.943 62.6035 179.182 62.6035C178.396 62.6035 177.69 62.4336 177.063 62.0938C176.442 61.7539 175.95 61.2881 175.587 60.6963C175.229 60.0986 175.051 59.4219 175.051 58.666C175.051 57.9102 175.229 57.2363 175.587 56.6445C175.95 56.0469 176.442 55.5811 177.063 55.2471C177.69 54.9131 178.396 54.7461 179.182 54.7461ZM179.182 56.2051C178.695 56.2051 178.262 56.3076 177.881 56.5127C177.5 56.7178 177.198 57.0078 176.976 57.3828C176.753 57.752 176.642 58.1797 176.642 58.666C176.642 59.1523 176.753 59.583 176.976 59.958C177.198 60.333 177.5 60.6289 177.881 60.8457C178.268 61.0566 178.701 61.1621 179.182 61.1621C179.65 61.1621 180.075 61.0566 180.456 60.8457C180.843 60.6289 181.145 60.333 181.361 59.958C181.578 59.583 181.687 59.1523 181.687 58.666C181.687 58.1855 181.578 57.7578 181.361 57.3828C181.145 57.0078 180.846 56.7178 180.465 56.5127C180.084 56.3076 179.656 56.2051 179.182 56.2051ZM203.896 69.4854H202.314V53.7354H203.896V69.4854ZM199.607 60.6787H196.663V59.334H199.607V60.6787ZM200.697 68.7031H199.124V54.0869H200.697V68.7031ZM194.809 58.1387C194.803 59.3047 194.659 60.4268 194.378 61.5049C194.097 62.5771 193.684 63.5439 193.139 64.4053C192.6 65.2607 191.946 65.9258 191.179 66.4004L190.142 65.1523C190.862 64.7188 191.478 64.1328 191.987 63.3945C192.503 62.6504 192.887 61.8271 193.139 60.9248C193.391 60.0225 193.517 59.0938 193.517 58.1387V56.2227H194.809V58.1387ZM195.125 58.1387C195.125 59.0586 195.248 59.9463 195.494 60.8018C195.746 61.6572 196.118 62.4365 196.61 63.1396C197.108 63.8369 197.715 64.3906 198.43 64.8008L197.428 66.0312C196.654 65.5684 196.004 64.9326 195.477 64.124C194.949 63.3154 194.551 62.4014 194.281 61.3818C194.012 60.3564 193.88 59.2754 193.886 58.1387V56.2227H195.125V58.1387ZM197.841 56.873H190.634V55.5107H197.841V56.873ZM220.314 62.9814H205.936V61.6367H220.314V62.9814ZM218.688 60.0459H207.737V58.6924H218.688V60.0459ZM218.548 55.7305H209.39V59.167H207.737V54.3857H218.548V55.7305ZM218.803 69.1514H207.755V67.7803H218.803V69.1514ZM209.407 68.1494H207.755V64.5195H209.407V68.1494ZM226.968 58.3848C226.962 59.5273 226.763 60.6377 226.37 61.7158C225.983 62.7939 225.444 63.752 224.753 64.5898C224.067 65.4277 223.294 66.0576 222.433 66.4795L221.448 65.1699C222.233 64.8008 222.939 64.2529 223.566 63.5264C224.199 62.7998 224.694 61.9883 225.052 61.0918C225.415 60.1895 225.597 59.2871 225.597 58.3848V56.0469H226.968V58.3848ZM227.284 58.3848C227.284 59.2578 227.463 60.1221 227.82 60.9775C228.184 61.8271 228.679 62.5889 229.306 63.2627C229.938 63.9307 230.653 64.4346 231.45 64.7744L230.527 66.084C229.631 65.6914 228.837 65.1025 228.146 64.3174C227.454 63.5264 226.915 62.6182 226.528 61.5928C226.142 60.5674 225.951 59.498 225.957 58.3848V56.0469H227.284V58.3848ZM230.888 56.7061H222.002V55.335H230.888V56.7061ZM234.544 69.4854H232.865V53.7354H234.544V69.4854ZM249.433 63.667H247.771V61.2939H249.433V63.667ZM244.985 55.3613H252.28V53.9902H253.933V59.2021H243.333V53.9902H244.985V55.3613ZM252.28 57.9277V56.6006H244.985V57.9277H252.28ZM255.805 61.7158H241.443V60.3447H255.805V61.7158ZM253.985 66.7256H244.827V68.5186H243.184V65.5303H252.351V64.3174H243.157V63.0693H253.985V66.7256ZM254.442 69.3359H243.184V68.0439H254.442V69.3359ZM270.113 69.5293H268.461V53.7354H270.113V69.5293ZM268.848 61.0479H265.578V59.668H268.848V61.0479ZM258.819 64.3701C260.337 64.3701 261.623 64.3379 262.678 64.2734C263.738 64.209 264.813 64.0771 265.903 63.8779L266.035 65.2666C264.922 65.46 263.814 65.5918 262.713 65.6621C261.617 65.7324 260.319 65.7705 258.819 65.7764H257.589V64.3701H258.819ZM264.646 60.8018H259.25V64.8096H257.589V59.4482H263.021V56.5215H257.536V55.1592H264.646V60.8018ZM280.247 55.9678C280.247 56.8818 279.969 57.7197 279.412 58.4814C278.855 59.2373 278.103 59.8701 277.153 60.3799C276.204 60.8896 275.152 61.2354 273.998 61.417L273.356 60.1074C274.341 59.9727 275.249 59.7002 276.081 59.29C276.913 58.874 277.572 58.376 278.059 57.7959C278.545 57.2158 278.788 56.6064 278.788 55.9678V55.3613H280.247V55.9678ZM280.687 55.9678C280.687 56.6064 280.927 57.2158 281.407 57.7959C281.894 58.376 282.553 58.874 283.385 59.29C284.217 59.7002 285.128 59.9727 286.118 60.1074L285.512 61.417C284.346 61.2354 283.285 60.8896 282.33 60.3799C281.381 59.8701 280.628 59.2373 280.071 58.4814C279.515 57.7197 279.236 56.8818 279.236 55.9678V55.3613H280.687V55.9678ZM280.528 69.4941H278.885V63.5439H280.528V69.4941ZM286.918 63.9834H272.557V62.6211H286.918V63.9834ZM285.573 56.0117H273.884V54.6758H285.573V56.0117ZM297.324 60.6699H294.371V59.2725H297.324V60.6699ZM292.604 58.1123C292.604 59.249 292.461 60.3418 292.174 61.3906C291.893 62.4395 291.474 63.3828 290.917 64.2207C290.366 65.0527 289.707 65.7031 288.939 66.1719L287.894 64.9238C288.614 64.4961 289.232 63.9219 289.748 63.2012C290.264 62.4746 290.65 61.6748 290.908 60.8018C291.172 59.9287 291.304 59.0322 291.304 58.1123V55.1768H292.604V58.1123ZM292.912 58.042C292.912 58.9209 293.032 59.7734 293.272 60.5996C293.513 61.4258 293.87 62.1846 294.345 62.876C294.819 63.5674 295.396 64.1211 296.076 64.5371L295.145 65.8203C294.383 65.3633 293.738 64.7275 293.211 63.9131C292.684 63.0928 292.291 62.1816 292.033 61.1797C291.775 60.1777 291.649 59.1318 291.655 58.042V55.1768H292.912V58.042ZM301.666 69.4854H300.058V53.7354H301.666V69.4854ZM298.396 68.7119H296.823V54.0342H298.396V68.7119ZM308.768 66.4443H307.124V61.8301H308.768V66.4443ZM314.639 66.4443H312.96V61.8301H314.639V66.4443ZM318.084 67.5254H303.67V66.1455H318.084V67.5254ZM310.851 54.6494C311.97 54.6553 312.969 54.8281 313.848 55.168C314.732 55.5078 315.421 55.9912 315.913 56.6182C316.411 57.2393 316.66 57.9541 316.66 58.7627C316.66 59.583 316.411 60.3008 315.913 60.916C315.421 61.5312 314.732 62.0117 313.848 62.3574C312.969 62.6973 311.97 62.8672 310.851 62.8672C309.726 62.8672 308.724 62.6973 307.845 62.3574C306.966 62.0117 306.277 61.5312 305.779 60.916C305.281 60.3008 305.032 59.583 305.032 58.7627C305.032 57.9541 305.281 57.2393 305.779 56.6182C306.277 55.9912 306.966 55.5078 307.845 55.168C308.724 54.8281 309.726 54.6553 310.851 54.6494ZM310.851 56.0029C310.024 55.9971 309.295 56.1084 308.662 56.3369C308.029 56.5596 307.537 56.8818 307.186 57.3037C306.84 57.7197 306.667 58.2061 306.667 58.7627C306.667 59.3193 306.84 59.8086 307.186 60.2305C307.537 60.6523 308.029 60.9805 308.662 61.2148C309.301 61.4434 310.03 61.5605 310.851 61.5664C311.665 61.5605 312.389 61.4434 313.021 61.2148C313.654 60.9805 314.146 60.6523 314.498 60.2305C314.855 59.8086 315.034 59.3193 315.034 58.7627C315.034 58.2061 314.855 57.7197 314.498 57.3037C314.146 56.8818 313.654 56.5596 313.021 56.3369C312.389 56.1084 311.665 55.9971 310.851 56.0029ZM321.969 64.3438H320.237L320.07 55.2734H322.127L321.969 64.3438ZM321.099 68.123C320.876 68.123 320.668 68.0674 320.475 67.9561C320.287 67.8389 320.135 67.6865 320.018 67.499C319.906 67.3057 319.854 67.0947 319.859 66.8662C319.854 66.6436 319.906 66.4385 320.018 66.251C320.135 66.0576 320.287 65.9082 320.475 65.8027C320.668 65.6914 320.876 65.6357 321.099 65.6357C321.321 65.6357 321.526 65.6914 321.714 65.8027C321.907 65.9082 322.06 66.0576 322.171 66.251C322.282 66.4443 322.341 66.6494 322.347 66.8662C322.341 67.0947 322.282 67.3057 322.171 67.499C322.06 67.6865 321.907 67.8389 321.714 67.9561C321.526 68.0674 321.321 68.123 321.099 68.123Z" fill="#464646"/>
<defs>
<filter id="filter0_b_347_1059" x="-29.5" y="-29.5" width="429" height="198.522" filterUnits="userSpaceOnUse" color-interpolation-filters="sRGB">
<feFlood flood-opacity="0" result="BackgroundImageFix"/>
<feGaussianBlur in="BackgroundImageFix" stdDeviation="15"/>
<feComposite in2="SourceAlpha" operator="in" result="effect1_backgroundBlur_347_1059"/>
<feBlend mode="normal" in="SourceGraphic" in2="effect1_backgroundBlur_347_1059" result="shape"/>
</filter>
</defs>
</svg>
