<svg width="329" height="447" viewBox="0 0 329 447" fill="none" xmlns="http://www.w3.org/2000/svg">
<g filter="url(#filter0_d_359_1702)">
<g filter="url(#filter1_df_359_1702)">
<path d="M69.1285 333.661C37.4291 259.859 82.9985 216.603 140.679 191.828C193.672 169.066 251.478 176.681 275.226 244.344C295.54 302.222 226.69 385.886 208.777 406.307C206.214 409.229 202.374 410.512 198.58 409.666C175.08 404.43 90.0576 382.388 69.1285 333.661Z" fill="url(#paint0_linear_359_1702)"/>
</g>
<g filter="url(#filter2_df_359_1702)">
<path d="M299.871 154.25C299.871 244.014 227.753 268.333 150.943 268.333C80.3743 268.333 19.0641 235.019 25.0387 155.065C30.2539 85.276 152.819 28.8644 179.681 17.3139C182.98 15.8951 186.642 16.2391 189.651 18.2005C211.422 32.3925 299.871 93.7725 299.871 154.25Z" fill="url(#paint1_linear_359_1702)"/>
</g>
<g filter="url(#filter3_dif_359_1702)">
<path d="M261.855 175.954C261.855 216.896 215.73 250.085 158.832 250.085C101.934 250.085 55.8087 216.896 55.8087 175.954C55.8087 135.013 101.934 101.823 158.832 101.823C215.73 101.823 261.855 135.013 261.855 175.954Z" fill="url(#paint2_linear_359_1702)"/>
</g>
<g filter="url(#filter4_f_359_1702)">
<path d="M99.9715 177.927C109.325 177.927 116.908 183.15 116.908 189.594C116.908 196.038 109.325 201.261 99.9715 201.261C90.618 201.261 83.0354 196.038 83.0354 189.594C83.0354 183.15 90.618 177.927 99.9715 177.927Z" fill="url(#paint3_linear_359_1702)"/>
</g>
<g filter="url(#filter5_f_359_1702)">
<path d="M203.094 177.927C193.74 177.927 186.158 183.15 186.158 189.594C186.158 196.038 193.74 201.261 203.094 201.261C212.447 201.261 220.03 196.038 220.03 189.594C220.03 183.15 212.447 177.927 203.094 177.927Z" fill="url(#paint4_linear_359_1702)"/>
</g>
<g filter="url(#filter6_f_359_1702)">
<path d="M129.704 167.389C129.704 176.119 123.638 183.196 116.155 183.196C108.672 183.196 102.606 176.119 102.606 167.389C102.606 158.659 108.672 151.582 116.155 151.582C123.638 151.582 129.704 158.659 129.704 167.389Z" fill="#5379C2"/>
</g>
<g filter="url(#filter7_f_359_1702)">
<path d="M122.177 174.857C122.177 178.288 117.838 178.68 116.155 178.68C114.472 178.68 110.133 178.288 110.133 174.857C110.133 172.859 112.829 175.812 116.155 175.812C119.481 175.812 122.177 172.859 122.177 174.857Z" fill="#C4E4C9"/>
</g>
<g filter="url(#filter8_f_359_1702)">
<path d="M122.177 161.367C122.177 164.693 119.818 167.389 116.908 167.389C113.998 167.389 111.639 164.693 111.639 161.367C111.639 158.041 113.998 155.345 116.908 155.345C119.818 155.345 122.177 158.041 122.177 161.367Z" fill="#F6F6F6"/>
</g>
<g filter="url(#filter9_f_359_1702)">
<path d="M201.212 167.389C201.212 176.119 195.146 183.196 187.663 183.196C180.18 183.196 174.114 176.119 174.114 167.389C174.114 158.659 180.18 151.582 187.663 151.582C195.146 151.582 201.212 158.659 201.212 167.389Z" fill="#5379C2"/>
</g>
<g filter="url(#filter10_f_359_1702)">
<path d="M193.685 174.857C193.685 178.288 189.346 178.68 187.663 178.68C185.98 178.68 181.641 178.288 181.641 174.857C181.641 172.859 184.337 175.812 187.663 175.812C190.989 175.812 193.685 172.859 193.685 174.857Z" fill="#C4E4C9"/>
</g>
<g filter="url(#filter11_f_359_1702)">
<path d="M192.924 161.367C192.924 164.693 190.565 167.389 187.655 167.389C184.745 167.389 182.386 164.693 182.386 161.367C182.386 158.041 184.745 155.345 187.655 155.345C190.565 155.345 192.924 158.041 192.924 161.367Z" fill="#F6F6F6"/>
</g>
<g filter="url(#filter12_f_359_1702)">
<path d="M133.12 193.328C133.12 199.889 141.099 205.208 150.94 205.208C160.782 205.208 168.76 199.889 168.76 193.328" stroke="#557BC4" stroke-width="4.4352" stroke-linecap="round"/>
</g>
<g filter="url(#filter13_d_359_1702)">
<path d="M100.908 328.782L219.295 214.229C219.924 213.621 220.927 213.637 221.535 214.266L255.681 249.555C256.289 250.183 256.272 251.186 255.644 251.795L137.257 366.348L85.5966 381.925C84.3641 382.297 83.2266 381.121 83.6386 379.902L100.908 328.782Z" fill="url(#paint5_linear_359_1702)"/>
<path fill-rule="evenodd" clip-rule="evenodd" d="M137.257 366.348L85.5966 381.925C84.3642 382.297 83.2266 381.121 83.6386 379.902L100.908 328.782L137.257 366.348Z" fill="url(#paint6_linear_359_1702)"/>
<path d="M88.0979 366.702L83.6386 379.902C83.2266 381.121 84.3642 382.297 85.5966 381.925L98.9363 377.903C100.072 377.56 100.442 376.137 99.6173 375.285L90.7369 366.107C89.9121 365.255 88.4775 365.578 88.0979 366.702Z" fill="#464646"/>
</g>
<g filter="url(#filter14_df_359_1702)">
<path d="M282.387 242.254C297.238 255.424 292.815 284.663 272.509 307.561C252.203 330.459 223.702 338.346 208.851 325.175C194 312.005 198.423 282.766 218.729 259.868C239.035 236.97 267.536 229.084 282.387 242.254Z" fill="url(#paint7_linear_359_1702)"/>
</g>
<g filter="url(#filter15_df_359_1702)">
<path d="M49.2214 244.522C33.5915 256.757 36.2143 286.212 55.0797 310.312C73.9451 334.411 101.909 344.028 117.539 331.793C133.169 319.557 130.546 290.102 111.681 266.003C92.8152 241.904 64.8513 232.286 49.2214 244.522Z" fill="url(#paint8_linear_359_1702)"/>
</g>
<g filter="url(#filter16_f_359_1702)">
<path fill-rule="evenodd" clip-rule="evenodd" d="M116.542 144.488C117.592 144.488 118.443 145.244 118.443 146.177L118.443 152.936C118.443 153.869 117.592 154.625 116.542 154.625C115.492 154.625 114.641 153.869 114.641 152.936L114.641 146.177C114.641 145.244 115.492 144.488 116.542 144.488Z" fill="#547AC3"/>
</g>
<g filter="url(#filter17_f_359_1702)">
<path fill-rule="evenodd" clip-rule="evenodd" d="M187.505 144.488C188.555 144.488 189.406 145.244 189.406 146.177L189.406 152.936C189.406 153.869 188.555 154.625 187.505 154.625C186.455 154.625 185.604 153.869 185.604 152.936L185.604 146.177C185.604 145.244 186.455 144.488 187.505 144.488Z" fill="#547AC3"/>
</g>
<g filter="url(#filter18_df_359_1702)">
<path d="M140.381 168.248C140.381 183.736 126.98 196.628 110.021 196.628C93.0623 196.628 79.661 183.736 79.661 168.248C79.661 152.76 93.0623 139.868 110.021 139.868C126.98 139.868 140.381 152.76 140.381 168.248Z" stroke="#FFC634" stroke-width="6.6"/>
<path d="M222.221 168.248C222.221 183.736 208.82 196.628 191.861 196.628C174.902 196.628 161.501 183.736 161.501 168.248C161.501 152.76 174.902 139.868 191.861 139.868C208.82 139.868 222.221 152.76 222.221 168.248Z" stroke="#FFC634" stroke-width="6.6"/>
<path d="M141.041 168.248H161.501" stroke="#FFC634" stroke-width="6.6"/>
</g>
</g>
<defs>
<filter id="filter0_d_359_1702" x="0.875619" y="0.607753" width="328.036" height="446.274" filterUnits="userSpaceOnUse" color-interpolation-filters="sRGB">
<feFlood flood-opacity="0" result="BackgroundImageFix"/>
<feColorMatrix in="SourceAlpha" type="matrix" values="0 0 0 0 0 0 0 0 0 0 0 0 0 0 0 0 0 0 127 0" result="hardAlpha"/>
<feOffset dx="2.64" dy="10.56"/>
<feGaussianBlur stdDeviation="13.2"/>
<feComposite in2="hardAlpha" operator="out"/>
<feColorMatrix type="matrix" values="0 0 0 0 0 0 0 0 0 0 0 0 0 0 0 0 0 0 0.2 0"/>
<feBlend mode="normal" in2="BackgroundImageFix" result="effect1_dropShadow_359_1702"/>
<feBlend mode="normal" in="SourceGraphic" in2="effect1_dropShadow_359_1702" result="shape"/>
</filter>
<filter id="filter1_df_359_1702" x="51.1206" y="175.717" width="235.421" height="244.85" filterUnits="userSpaceOnUse" color-interpolation-filters="sRGB">
<feFlood flood-opacity="0" result="BackgroundImageFix"/>
<feColorMatrix in="SourceAlpha" type="matrix" values="0 0 0 0 0 0 0 0 0 0 0 0 0 0 0 0 0 0 127 0" result="hardAlpha"/>
<feOffset dy="3.04128"/>
<feGaussianBlur stdDeviation="3.8016"/>
<feComposite in2="hardAlpha" operator="out"/>
<feColorMatrix type="matrix" values="0 0 0 0 0 0 0 0 0 0 0 0 0 0 0 0 0 0 0.25 0"/>
<feBlend mode="normal" in2="BackgroundImageFix" result="effect1_dropShadow_359_1702"/>
<feBlend mode="normal" in="SourceGraphic" in2="effect1_dropShadow_359_1702" result="shape"/>
<feGaussianBlur stdDeviation="1.52064" result="effect2_foregroundBlur_359_1702"/>
</filter>
<filter id="filter2_df_359_1702" x="21.5943" y="13.4065" width="281.445" height="259.995" filterUnits="userSpaceOnUse" color-interpolation-filters="sRGB">
<feFlood flood-opacity="0" result="BackgroundImageFix"/>
<feColorMatrix in="SourceAlpha" type="matrix" values="0 0 0 0 0 0 0 0 0 0 0 0 0 0 0 0 0 0 127 0" result="hardAlpha"/>
<feOffset dx="0.6336" dy="2.5344"/>
<feGaussianBlur stdDeviation="1.2672"/>
<feComposite in2="hardAlpha" operator="out"/>
<feColorMatrix type="matrix" values="0 0 0 0 0 0 0 0 0 0 0 0 0 0 0 0 0 0 0.25 0"/>
<feBlend mode="normal" in2="BackgroundImageFix" result="effect1_dropShadow_359_1702"/>
<feBlend mode="normal" in="SourceGraphic" in2="effect1_dropShadow_359_1702" result="shape"/>
<feGaussianBlur stdDeviation="1.52064" result="effect2_foregroundBlur_359_1702"/>
</filter>
<filter id="filter3_dif_359_1702" x="48.2055" y="97.2611" width="221.253" height="163.469" filterUnits="userSpaceOnUse" color-interpolation-filters="sRGB">
<feFlood flood-opacity="0" result="BackgroundImageFix"/>
<feColorMatrix in="SourceAlpha" type="matrix" values="0 0 0 0 0 0 0 0 0 0 0 0 0 0 0 0 0 0 127 0" result="hardAlpha"/>
<feOffset dy="3.04128"/>
<feGaussianBlur stdDeviation="3.8016"/>
<feComposite in2="hardAlpha" operator="out"/>
<feColorMatrix type="matrix" values="0 0 0 0 0 0 0 0 0 0 0 0 0 0 0 0 0 0 0.1 0"/>
<feBlend mode="normal" in2="BackgroundImageFix" result="effect1_dropShadow_359_1702"/>
<feBlend mode="normal" in="SourceGraphic" in2="effect1_dropShadow_359_1702" result="shape"/>
<feColorMatrix in="SourceAlpha" type="matrix" values="0 0 0 0 0 0 0 0 0 0 0 0 0 0 0 0 0 0 127 0" result="hardAlpha"/>
<feOffset dy="3.04128"/>
<feGaussianBlur stdDeviation="11.4048"/>
<feComposite in2="hardAlpha" operator="arithmetic" k2="-1" k3="1"/>
<feColorMatrix type="matrix" values="0 0 0 0 0 0 0 0 0 0 0 0 0 0 0 0 0 0 0.2 0"/>
<feBlend mode="normal" in2="shape" result="effect2_innerShadow_359_1702"/>
<feGaussianBlur stdDeviation="0.38016" result="effect3_foregroundBlur_359_1702"/>
</filter>
<filter id="filter4_f_359_1702" x="79.2718" y="174.163" width="41.3994" height="30.8614" filterUnits="userSpaceOnUse" color-interpolation-filters="sRGB">
<feFlood flood-opacity="0" result="BackgroundImageFix"/>
<feBlend mode="normal" in="SourceGraphic" in2="BackgroundImageFix" result="shape"/>
<feGaussianBlur stdDeviation="1.88179" result="effect1_foregroundBlur_359_1702"/>
</filter>
<filter id="filter5_f_359_1702" x="182.394" y="174.163" width="41.3994" height="30.8614" filterUnits="userSpaceOnUse" color-interpolation-filters="sRGB">
<feFlood flood-opacity="0" result="BackgroundImageFix"/>
<feBlend mode="normal" in="SourceGraphic" in2="BackgroundImageFix" result="shape"/>
<feGaussianBlur stdDeviation="1.88179" result="effect1_foregroundBlur_359_1702"/>
</filter>
<filter id="filter6_f_359_1702" x="101.101" y="150.076" width="30.1086" height="34.625" filterUnits="userSpaceOnUse" color-interpolation-filters="sRGB">
<feFlood flood-opacity="0" result="BackgroundImageFix"/>
<feBlend mode="normal" in="SourceGraphic" in2="BackgroundImageFix" result="shape"/>
<feGaussianBlur stdDeviation="0.752717" result="effect1_foregroundBlur_359_1702"/>
</filter>
<filter id="filter7_f_359_1702" x="107.875" y="171.905" width="16.5598" height="9.03266" filterUnits="userSpaceOnUse" color-interpolation-filters="sRGB">
<feFlood flood-opacity="0" result="BackgroundImageFix"/>
<feBlend mode="normal" in="SourceGraphic" in2="BackgroundImageFix" result="shape"/>
<feGaussianBlur stdDeviation="1.12908" result="effect1_foregroundBlur_359_1702"/>
</filter>
<filter id="filter8_f_359_1702" x="110.886" y="154.593" width="12.0435" height="13.5489" filterUnits="userSpaceOnUse" color-interpolation-filters="sRGB">
<feFlood flood-opacity="0" result="BackgroundImageFix"/>
<feBlend mode="normal" in="SourceGraphic" in2="BackgroundImageFix" result="shape"/>
<feGaussianBlur stdDeviation="0.376358" result="effect1_foregroundBlur_359_1702"/>
</filter>
<filter id="filter9_f_359_1702" x="172.609" y="150.076" width="30.1086" height="34.625" filterUnits="userSpaceOnUse" color-interpolation-filters="sRGB">
<feFlood flood-opacity="0" result="BackgroundImageFix"/>
<feBlend mode="normal" in="SourceGraphic" in2="BackgroundImageFix" result="shape"/>
<feGaussianBlur stdDeviation="0.752717" result="effect1_foregroundBlur_359_1702"/>
</filter>
<filter id="filter10_f_359_1702" x="179.383" y="171.905" width="16.5598" height="9.03266" filterUnits="userSpaceOnUse" color-interpolation-filters="sRGB">
<feFlood flood-opacity="0" result="BackgroundImageFix"/>
<feBlend mode="normal" in="SourceGraphic" in2="BackgroundImageFix" result="shape"/>
<feGaussianBlur stdDeviation="1.12908" result="effect1_foregroundBlur_359_1702"/>
</filter>
<filter id="filter11_f_359_1702" x="181.634" y="154.593" width="12.0435" height="13.5489" filterUnits="userSpaceOnUse" color-interpolation-filters="sRGB">
<feFlood flood-opacity="0" result="BackgroundImageFix"/>
<feBlend mode="normal" in="SourceGraphic" in2="BackgroundImageFix" result="shape"/>
<feGaussianBlur stdDeviation="0.376358" result="effect1_foregroundBlur_359_1702"/>
</filter>
<filter id="filter12_f_359_1702" x="129.583" y="189.79" width="42.7152" height="18.9553" filterUnits="userSpaceOnUse" color-interpolation-filters="sRGB">
<feFlood flood-opacity="0" result="BackgroundImageFix"/>
<feBlend mode="normal" in="SourceGraphic" in2="BackgroundImageFix" result="shape"/>
<feGaussianBlur stdDeviation="0.66" result="effect1_foregroundBlur_359_1702"/>
</filter>
<filter id="filter13_d_359_1702" x="74.0486" y="210.616" width="191.582" height="187.219" filterUnits="userSpaceOnUse" color-interpolation-filters="sRGB">
<feFlood flood-opacity="0" result="BackgroundImageFix"/>
<feColorMatrix in="SourceAlpha" type="matrix" values="0 0 0 0 0 0 0 0 0 0 0 0 0 0 0 0 0 0 127 0" result="hardAlpha"/>
<feOffset dy="6.336"/>
<feGaussianBlur stdDeviation="4.752"/>
<feComposite in2="hardAlpha" operator="out"/>
<feColorMatrix type="matrix" values="0 0 0 0 0 0 0 0 0 0 0 0 0 0 0 0 0 0 0.2 0"/>
<feBlend mode="normal" in2="BackgroundImageFix" result="effect1_dropShadow_359_1702"/>
<feBlend mode="normal" in="SourceGraphic" in2="effect1_dropShadow_359_1702" result="shape"/>
</filter>
<filter id="filter14_df_359_1702" x="192.461" y="231.316" width="106.316" height="110.881" filterUnits="userSpaceOnUse" color-interpolation-filters="sRGB">
<feFlood flood-opacity="0" result="BackgroundImageFix"/>
<feColorMatrix in="SourceAlpha" type="matrix" values="0 0 0 0 0 0 0 0 0 0 0 0 0 0 0 0 0 0 127 0" result="hardAlpha"/>
<feOffset dy="3.04128"/>
<feGaussianBlur stdDeviation="3.8016"/>
<feComposite in2="hardAlpha" operator="out"/>
<feColorMatrix type="matrix" values="0 0 0 0 0 0 0 0 0 0 0 0 0 0 0 0 0 0 0.2 0"/>
<feBlend mode="normal" in2="BackgroundImageFix" result="effect1_dropShadow_359_1702"/>
<feBlend mode="normal" in="SourceGraphic" in2="effect1_dropShadow_359_1702" result="shape"/>
<feGaussianBlur stdDeviation="0.9504" result="effect2_foregroundBlur_359_1702"/>
</filter>
<filter id="filter15_df_359_1702" x="36.4854" y="236.929" width="93.7895" height="105.245" filterUnits="userSpaceOnUse" color-interpolation-filters="sRGB">
<feFlood flood-opacity="0" result="BackgroundImageFix"/>
<feColorMatrix in="SourceAlpha" type="matrix" values="0 0 0 0 0 0 0 0 0 0 0 0 0 0 0 0 0 0 127 0" result="hardAlpha"/>
<feOffset dy="2.5344"/>
<feGaussianBlur stdDeviation="1.2672"/>
<feComposite in2="hardAlpha" operator="out"/>
<feColorMatrix type="matrix" values="0 0 0 0 0 0 0 0 0 0 0 0 0 0 0 0 0 0 0.25 0"/>
<feBlend mode="normal" in2="BackgroundImageFix" result="effect1_dropShadow_359_1702"/>
<feBlend mode="normal" in="SourceGraphic" in2="effect1_dropShadow_359_1702" result="shape"/>
<feGaussianBlur stdDeviation="1.14048" result="effect2_foregroundBlur_359_1702"/>
</filter>
<filter id="filter16_f_359_1702" x="113.321" y="143.168" width="6.44164" height="12.7776" filterUnits="userSpaceOnUse" color-interpolation-filters="sRGB">
<feFlood flood-opacity="0" result="BackgroundImageFix"/>
<feBlend mode="normal" in="SourceGraphic" in2="BackgroundImageFix" result="shape"/>
<feGaussianBlur stdDeviation="0.66" result="effect1_foregroundBlur_359_1702"/>
</filter>
<filter id="filter17_f_359_1702" x="184.284" y="143.168" width="6.44164" height="12.7776" filterUnits="userSpaceOnUse" color-interpolation-filters="sRGB">
<feFlood flood-opacity="0" result="BackgroundImageFix"/>
<feBlend mode="normal" in="SourceGraphic" in2="BackgroundImageFix" result="shape"/>
<feGaussianBlur stdDeviation="0.66" result="effect1_foregroundBlur_359_1702"/>
</filter>
<filter id="filter18_df_359_1702" x="69.761" y="135.248" width="162.36" height="76.56" filterUnits="userSpaceOnUse" color-interpolation-filters="sRGB">
<feFlood flood-opacity="0" result="BackgroundImageFix"/>
<feColorMatrix in="SourceAlpha" type="matrix" values="0 0 0 0 0 0 0 0 0 0 0 0 0 0 0 0 0 0 127 0" result="hardAlpha"/>
<feOffset dy="5.28"/>
<feGaussianBlur stdDeviation="3.3"/>
<feComposite in2="hardAlpha" operator="out"/>
<feColorMatrix type="matrix" values="0 0 0 0 0 0 0 0 0 0 0 0 0 0 0 0 0 0 0.2 0"/>
<feBlend mode="normal" in2="BackgroundImageFix" result="effect1_dropShadow_359_1702"/>
<feBlend mode="normal" in="SourceGraphic" in2="effect1_dropShadow_359_1702" result="shape"/>
<feGaussianBlur stdDeviation="0.66" result="effect2_foregroundBlur_359_1702"/>
</filter>
<linearGradient id="paint0_linear_359_1702" x1="130.469" y1="237.853" x2="417.144" y2="388.97" gradientUnits="userSpaceOnUse">
<stop stop-color="#D8F5DD"/>
<stop offset="1" stop-color="#709C78"/>
</linearGradient>
<linearGradient id="paint1_linear_359_1702" x1="115.986" y1="23.1418" x2="260.615" y2="379.901" gradientUnits="userSpaceOnUse">
<stop stop-color="#D8F5DD"/>
<stop offset="1" stop-color="#709C78"/>
</linearGradient>
<linearGradient id="paint2_linear_359_1702" x1="158.832" y1="101.823" x2="158.832" y2="420.833" gradientUnits="userSpaceOnUse">
<stop stop-color="#F6F6F6"/>
<stop offset="1" stop-color="#5379C2"/>
</linearGradient>
<linearGradient id="paint3_linear_359_1702" x1="108.101" y1="181.26" x2="93.2751" y2="202.244" gradientUnits="userSpaceOnUse">
<stop stop-color="#FFDEDE"/>
<stop offset="1" stop-color="#FFDEDE" stop-opacity="0.8"/>
</linearGradient>
<linearGradient id="paint4_linear_359_1702" x1="194.964" y1="181.26" x2="209.79" y2="202.244" gradientUnits="userSpaceOnUse">
<stop stop-color="#FFDEDE"/>
<stop offset="1" stop-color="#FFDEDE" stop-opacity="0.8"/>
</linearGradient>
<linearGradient id="paint5_linear_359_1702" x1="136.553" y1="278.864" x2="188.825" y2="331.928" gradientUnits="userSpaceOnUse">
<stop stop-color="#D8A41D"/>
<stop offset="0.0001" stop-color="#EFB217"/>
<stop offset="0.51" stop-color="#FFC634"/>
<stop offset="1" stop-color="#EFB217"/>
</linearGradient>
<linearGradient id="paint6_linear_359_1702" x1="117.545" y1="374.696" x2="89.8251" y2="343.808" gradientUnits="userSpaceOnUse">
<stop stop-color="#EDDAA9"/>
<stop offset="0.51" stop-color="#FFF0CB"/>
<stop offset="1" stop-color="#EDDAA9"/>
</linearGradient>
<linearGradient id="paint7_linear_359_1702" x1="210.357" y1="260.811" x2="295.299" y2="328.38" gradientUnits="userSpaceOnUse">
<stop stop-color="#A9CDAF"/>
<stop offset="0.512719" stop-color="#D9F6DE"/>
<stop offset="1" stop-color="#ACCFB2"/>
</linearGradient>
<linearGradient id="paint8_linear_359_1702" x1="111.681" y1="266.003" x2="55.0797" y2="310.312" gradientUnits="userSpaceOnUse">
<stop stop-color="#E3FEE8"/>
<stop offset="1" stop-color="#9BC7A3"/>
</linearGradient>
</defs>
</svg>
