<svg xmlns="http://www.w3.org/2000/svg" width="1131" height="22" viewBox="0 0 1131 22" fill="none">
<mask id="path-1-inside-1_241_63" fill="white">
<path d="M0 0H1131V12C1131 17.5228 1126.52 22 1121 22H10C4.47718 22 0 17.5228 0 12V0Z"/>
</mask>
<path d="M0 0H1131H0ZM1132 12C1132 18.0751 1127.08 23 1121 23H10C3.92487 23 -1 18.0751 -1 12H1C1 16.9706 5.02944 21 10 21H1121C1125.97 21 1130 16.9706 1130 12H1132ZM10 23C3.92487 23 -1 18.0751 -1 12V0H1V12C1 16.9706 5.02944 21 10 21V23ZM1132 0V12C1132 18.0751 1127.08 23 1121 23V21C1125.97 21 1130 16.9706 1130 12V0H1132Z" fill="#F6F6F6" mask="url(#path-1-inside-1_241_63)"/>
</svg>