<svg width="7" height="12" viewBox="0 0 7 12" fill="none" xmlns="http://www.w3.org/2000/svg">
<path d="M0.269638 10.9882C0.218133 11.0455 0.177868 11.1128 0.151141 11.1864C0.124414 11.26 0.111749 11.3384 0.113869 11.4172C0.11599 11.4959 0.132854 11.5734 0.163499 11.6453C0.194144 11.7172 0.23797 11.782 0.292474 11.8361C0.346978 11.8902 0.411094 11.9325 0.481159 11.9606C0.551225 11.9887 0.625868 12.002 0.700828 11.9998C0.775788 11.9975 0.849597 11.9798 0.918039 11.9476C0.986481 11.9154 1.04822 11.8694 1.09972 11.8122L5.95235 6.41533C6.05256 6.30399 6.1084 6.15659 6.1084 6.00337C6.1084 5.85015 6.05256 5.70275 5.95235 5.59141L1.09972 0.193979C1.04856 0.135477 0.986835 0.0882359 0.91814 0.0550003C0.849446 0.0217648 0.77515 0.00319862 0.699566 0.000377655C0.623983 -0.00244331 0.548619 0.01054 0.477852 0.0385704C0.407085 0.0666018 0.342327 0.109121 0.287338 0.163662C0.232348 0.218204 0.188225 0.283677 0.15753 0.35628C0.126835 0.428884 0.11018 0.50717 0.108534 0.586592C0.106887 0.666013 0.120281 0.744987 0.147937 0.818925C0.175594 0.892863 0.216962 0.960292 0.269638 1.0173L4.75232 6.00337L0.269638 10.9882Z" fill="#F6F6F6"/>
</svg>
