<svg width="28" height="28" viewBox="0 0 28 28" fill="none" xmlns="http://www.w3.org/2000/svg">
<path d="M10.1092 18.3575C10.395 18.5593 10.7357 18.6667 11.0845 18.6655V18.6608C11.4138 18.6615 11.7361 18.5655 12.0114 18.3846C12.2866 18.2038 12.5026 17.9461 12.6327 17.6435L13.3478 15.4688C13.5129 14.9761 13.7904 14.5286 14.1583 14.1617C14.5263 13.7948 14.9745 13.5186 15.4677 13.3548L17.542 12.6805C17.8767 12.5637 18.166 12.3441 18.3685 12.0531C18.571 11.7622 18.6765 11.4146 18.6697 11.0602C18.663 10.7057 18.5445 10.3625 18.3311 10.0794C18.1176 9.79629 17.8203 9.58786 17.4813 9.48383L15.4338 8.81883C14.9385 8.65403 14.4885 8.37597 14.1195 8.00677C13.7505 7.63756 13.4727 7.18738 13.3082 6.692L12.6338 4.61883C12.5162 4.28864 12.2987 4.00327 12.0115 3.80239C11.7242 3.6015 11.3815 3.49508 11.031 3.4979C10.6805 3.50073 10.3396 3.61265 10.0557 3.81814C9.77169 4.02362 9.55878 4.31245 9.44651 4.6445L8.76634 6.73517C8.60233 7.21614 8.33124 7.6536 7.97353 8.01454C7.61582 8.37549 7.18082 8.6505 6.70134 8.81883L4.62817 9.48383C4.29543 9.59897 4.00713 9.81546 3.80377 10.1029C3.60041 10.3903 3.49223 10.7343 3.49442 11.0864C3.49661 11.4384 3.60906 11.781 3.81597 12.0659C4.02288 12.3508 4.31386 12.5637 4.64801 12.6747L6.69434 13.3385C7.18957 13.5045 7.63942 13.7833 8.00833 14.1531C8.37725 14.5228 8.65513 14.9732 8.82001 15.4688L9.49434 17.5397C9.60984 17.8698 9.82451 18.1557 10.1092 18.3575ZM19.054 24.2445C18.8315 24.0857 18.6643 23.8614 18.5757 23.6028L18.193 22.4292C18.1195 22.2054 17.9945 22.002 17.8282 21.8353C17.6618 21.6685 17.4587 21.5431 17.2352 21.469L16.079 21.0922C15.8143 21.0029 15.5842 20.8331 15.4208 20.6065C15.2575 20.38 15.169 20.108 15.1678 19.8287C15.1679 19.5511 15.2545 19.2805 15.4158 19.0546C15.5771 18.8287 15.8049 18.6588 16.0673 18.5687L17.241 18.1883C17.4593 18.1108 17.6569 17.9842 17.8187 17.8184C17.9805 17.6525 18.1022 17.4518 18.1743 17.2317L18.5523 16.0755C18.6413 15.8139 18.8093 15.5864 19.0331 15.4244C19.257 15.2624 19.5256 15.1739 19.8019 15.1712C20.0782 15.1686 20.3485 15.2518 20.5755 15.4094C20.8024 15.567 20.9748 15.7912 21.0688 16.051L21.4527 17.234C21.5278 17.4558 21.6532 17.6572 21.8192 17.8224C21.9852 17.9875 22.1872 18.112 22.4093 18.186L23.5667 18.5628C23.8335 18.6463 24.0672 18.8116 24.2348 19.0353C24.4024 19.259 24.4953 19.5299 24.5003 19.8093C24.5053 20.0888 24.4223 20.3628 24.2628 20.5924C24.1034 20.8221 23.8758 20.9957 23.6122 21.0887L22.4292 21.4725C22.2067 21.5476 22.0048 21.6733 21.8392 21.8397C21.6735 22.0061 21.5488 22.2087 21.4748 22.4315L21.0992 23.5853C21.0082 23.8537 20.8355 24.087 20.6033 24.2503C20.3769 24.4113 20.1056 24.4974 19.8277 24.4963C19.5499 24.4953 19.2793 24.4072 19.054 24.2445Z" fill="#5379C2"/>
</svg>
