<svg xmlns="http://www.w3.org/2000/svg" width="214" height="461" viewBox="0 0 214 461" fill="none">
<g filter="url(#filter0_bd_839_48)">
<rect x="4" width="206" height="453" rx="103" fill="url(#paint0_linear_839_48)" shape-rendering="crispEdges"/>
</g>
<mask id="path-2-outside-1_839_48" maskUnits="userSpaceOnUse" x="64" y="56" width="85" height="54" fill="black">
<rect fill="white" x="64" y="56" width="85" height="54"/>
<path d="M81.5742 61.4961H67.875V58.543H81.5742V61.4961ZM85.3125 68.8203H65.5312V65.8438H85.3125V68.8203ZM77.2617 72.1953H73.4883V67.9531H77.2617V72.1953ZM83.1328 60.3242C83.1328 61.6367 83.0938 62.8047 83.0156 63.8281C82.9453 64.8438 82.7656 65.9766 82.4766 67.2266L78.75 66.8633C78.9297 66.0508 79.0625 65.2812 79.1484 64.5547C79.2422 63.8281 79.3008 63.1797 79.3242 62.6094C79.3555 62.0391 79.375 61.3477 79.3828 60.5352V60.3242V58.543H83.1328V60.3242ZM83.0742 79.3203H79.3008V74.2578H67.4531V71.3398H83.0742V79.3203ZM103.547 79.2734H99.7734V57.6406H103.547V79.2734ZM106.324 68.7148H102.562V65.6445H106.324V68.7148ZM97.6406 59.8086C97.6328 62.1602 97.3242 64.3047 96.7148 66.2422C96.1133 68.1797 95.0938 69.957 93.6562 71.5742C92.2188 73.1836 90.3008 74.5781 87.9023 75.7578L85.793 72.9102C87.6758 71.9492 89.2148 70.8867 90.4102 69.7227C91.6133 68.5508 92.5039 67.2148 93.082 65.7148C93.668 64.2148 93.9609 62.4805 93.9609 60.5117V59.8086H97.6406ZM95.8477 62.8555H87.1289V59.8086H95.8477V62.8555ZM118.957 65.1523H115.641V62.1758H118.957V65.1523ZM118.957 71.9492H115.641V68.9258H118.957V71.9492ZM125.906 79.3203H122.32V57.6406H125.906V79.3203ZM121.383 78.3945H117.879V57.8867H121.383V78.3945ZM111.879 59.0234C112.848 59.0234 113.699 59.3477 114.434 59.9961C115.176 60.6367 115.742 61.5625 116.133 62.7734C116.531 63.9844 116.73 65.4141 116.73 67.0625C116.73 68.7188 116.531 70.1562 116.133 71.375C115.742 72.5938 115.176 73.5312 114.434 74.1875C113.699 74.8438 112.848 75.1719 111.879 75.1719C110.918 75.1719 110.082 74.8438 109.371 74.1875C108.66 73.5312 108.105 72.5938 107.707 71.375C107.309 70.1562 107.109 68.7188 107.109 67.0625C107.109 65.4141 107.309 63.9844 107.707 62.7734C108.105 61.5625 108.66 60.6367 109.371 59.9961C110.082 59.3477 110.918 59.0234 111.879 59.0234ZM111.879 62.5977C111.559 62.5898 111.301 62.7383 111.105 63.043C110.91 63.3398 110.762 63.8203 110.66 64.4844C110.559 65.1484 110.508 66.0078 110.508 67.0625C110.508 68.125 110.559 68.9883 110.66 69.6523C110.762 70.3086 110.91 70.7891 111.105 71.0938C111.301 71.3906 111.559 71.543 111.879 71.5508C112.199 71.543 112.465 71.3867 112.676 71.082C112.887 70.7695 113.051 70.2852 113.168 69.6289C113.285 68.9727 113.344 68.1172 113.344 67.0625C113.344 66.0078 113.285 65.1484 113.168 64.4844C113.051 63.8203 112.883 63.3398 112.664 63.043C112.453 62.7383 112.191 62.5898 111.879 62.5977ZM135.492 61.1562C135.492 62.6719 135.277 64.0703 134.848 65.3516C134.418 66.6328 133.742 67.7539 132.82 68.7148C131.898 69.668 130.723 70.3711 129.293 70.8242L127.195 67.8594C128.453 67.5 129.465 66.9688 130.23 66.2656C130.996 65.5625 131.543 64.7773 131.871 63.9102C132.199 63.043 132.363 62.125 132.363 61.1562V59H135.492V61.1562ZM136.172 61.1328C136.172 62.0781 136.324 62.9648 136.629 63.793C136.941 64.6211 137.457 65.3672 138.176 66.0312C138.895 66.6875 139.844 67.1992 141.023 67.5664L139.031 70.4844C137.648 70.0469 136.52 69.3711 135.645 68.457C134.777 67.543 134.141 66.4688 133.734 65.2344C133.336 63.9922 133.141 62.625 133.148 61.1328V59H136.172V61.1328ZM145.078 73.4609H141.305V57.6875H145.078V73.4609ZM147.785 66.8516H144.035V63.7109H147.785V66.8516ZM145.758 79.0273H130.688V76.0273H145.758V79.0273ZM134.508 77.6562H130.688V71.8789H134.508V77.6562ZM104.695 102.508H100.957V86.6406H104.695V102.508ZM98.2969 91.0469H86.7305V88.0703H98.2969V91.0469ZM86.3203 97.293C88.8516 97.2852 91.0664 97.2578 92.9648 97.2109C94.8711 97.1562 96.6758 97.0312 98.3789 96.8359L98.5195 99.5547C96.7461 99.8516 94.8398 100.055 92.8008 100.164C90.7617 100.266 88.6914 100.316 86.5898 100.316L86.2031 97.293H86.3203ZM91.8281 97.6445H88.1953V90.707H91.8281V97.6445ZM96.7852 97.6445H93.2109V90.707H96.7852V97.6445ZM102.984 93.25H98.8359V90.2734H102.984V93.25ZM102.984 97.7734H98.8359V94.7148H102.984V97.7734ZM105.164 108.027H90V105.027H105.164V108.027ZM93.7969 107.418H90V101.395H93.7969V107.418ZM114.914 89.5117C114.906 91.0664 114.691 92.5 114.27 93.8125C113.848 95.125 113.172 96.2734 112.242 97.2578C111.312 98.2422 110.117 98.9688 108.656 99.4375L106.676 96.4375C107.934 96.0547 108.945 95.5078 109.711 94.7969C110.477 94.0781 111.02 93.2734 111.34 92.3828C111.668 91.4844 111.836 90.5273 111.844 89.5117V87.7305H114.914V89.5117ZM115.641 89.3008C115.641 90.3086 115.785 91.2344 116.074 92.0781C116.363 92.9219 116.855 93.6719 117.551 94.3281C118.254 94.9844 119.188 95.4844 120.352 95.8281L118.371 98.7578C116.98 98.2969 115.863 97.6133 115.02 96.707C114.176 95.793 113.57 94.7188 113.203 93.4844C112.844 92.25 112.664 90.8555 112.664 89.3008V87.7305H115.641V89.3008ZM125.438 99.2617H121.699V86.6406H125.438V99.2617ZM117.902 99.7773C119.465 99.7773 120.816 99.9492 121.957 100.293C123.098 100.637 123.973 101.129 124.582 101.77C125.191 102.41 125.5 103.176 125.508 104.066C125.5 104.973 125.191 105.746 124.582 106.387C123.973 107.035 123.098 107.523 121.957 107.852C120.816 108.188 119.465 108.355 117.902 108.355C116.348 108.355 115 108.188 113.859 107.852C112.727 107.523 111.855 107.035 111.246 106.387C110.645 105.746 110.344 104.973 110.344 104.066C110.344 103.184 110.645 102.422 111.246 101.781C111.855 101.133 112.727 100.637 113.859 100.293C115 99.9492 116.348 99.7773 117.902 99.7773ZM117.902 102.672C117.027 102.68 116.309 102.73 115.746 102.824C115.191 102.918 114.773 103.066 114.492 103.27C114.211 103.473 114.07 103.738 114.07 104.066C114.07 104.395 114.211 104.66 114.492 104.863C114.773 105.066 115.195 105.219 115.758 105.32C116.32 105.422 117.035 105.473 117.902 105.473C118.777 105.473 119.496 105.422 120.059 105.32C120.629 105.219 121.055 105.066 121.336 104.863C121.617 104.66 121.758 104.395 121.758 104.066C121.758 103.738 121.621 103.473 121.348 103.27C121.074 103.066 120.652 102.918 120.082 102.824C119.512 102.73 118.785 102.68 117.902 102.672ZM122.121 93.2617H118.125V90.2148H122.121V93.2617Z"/>
</mask>
<path d="M81.5742 61.4961H67.875V58.543H81.5742V61.4961ZM85.3125 68.8203H65.5312V65.8438H85.3125V68.8203ZM77.2617 72.1953H73.4883V67.9531H77.2617V72.1953ZM83.1328 60.3242C83.1328 61.6367 83.0938 62.8047 83.0156 63.8281C82.9453 64.8438 82.7656 65.9766 82.4766 67.2266L78.75 66.8633C78.9297 66.0508 79.0625 65.2812 79.1484 64.5547C79.2422 63.8281 79.3008 63.1797 79.3242 62.6094C79.3555 62.0391 79.375 61.3477 79.3828 60.5352V60.3242V58.543H83.1328V60.3242ZM83.0742 79.3203H79.3008V74.2578H67.4531V71.3398H83.0742V79.3203ZM103.547 79.2734H99.7734V57.6406H103.547V79.2734ZM106.324 68.7148H102.562V65.6445H106.324V68.7148ZM97.6406 59.8086C97.6328 62.1602 97.3242 64.3047 96.7148 66.2422C96.1133 68.1797 95.0938 69.957 93.6562 71.5742C92.2188 73.1836 90.3008 74.5781 87.9023 75.7578L85.793 72.9102C87.6758 71.9492 89.2148 70.8867 90.4102 69.7227C91.6133 68.5508 92.5039 67.2148 93.082 65.7148C93.668 64.2148 93.9609 62.4805 93.9609 60.5117V59.8086H97.6406ZM95.8477 62.8555H87.1289V59.8086H95.8477V62.8555ZM118.957 65.1523H115.641V62.1758H118.957V65.1523ZM118.957 71.9492H115.641V68.9258H118.957V71.9492ZM125.906 79.3203H122.32V57.6406H125.906V79.3203ZM121.383 78.3945H117.879V57.8867H121.383V78.3945ZM111.879 59.0234C112.848 59.0234 113.699 59.3477 114.434 59.9961C115.176 60.6367 115.742 61.5625 116.133 62.7734C116.531 63.9844 116.73 65.4141 116.73 67.0625C116.73 68.7188 116.531 70.1562 116.133 71.375C115.742 72.5938 115.176 73.5312 114.434 74.1875C113.699 74.8438 112.848 75.1719 111.879 75.1719C110.918 75.1719 110.082 74.8438 109.371 74.1875C108.66 73.5312 108.105 72.5938 107.707 71.375C107.309 70.1562 107.109 68.7188 107.109 67.0625C107.109 65.4141 107.309 63.9844 107.707 62.7734C108.105 61.5625 108.66 60.6367 109.371 59.9961C110.082 59.3477 110.918 59.0234 111.879 59.0234ZM111.879 62.5977C111.559 62.5898 111.301 62.7383 111.105 63.043C110.91 63.3398 110.762 63.8203 110.66 64.4844C110.559 65.1484 110.508 66.0078 110.508 67.0625C110.508 68.125 110.559 68.9883 110.66 69.6523C110.762 70.3086 110.91 70.7891 111.105 71.0938C111.301 71.3906 111.559 71.543 111.879 71.5508C112.199 71.543 112.465 71.3867 112.676 71.082C112.887 70.7695 113.051 70.2852 113.168 69.6289C113.285 68.9727 113.344 68.1172 113.344 67.0625C113.344 66.0078 113.285 65.1484 113.168 64.4844C113.051 63.8203 112.883 63.3398 112.664 63.043C112.453 62.7383 112.191 62.5898 111.879 62.5977ZM135.492 61.1562C135.492 62.6719 135.277 64.0703 134.848 65.3516C134.418 66.6328 133.742 67.7539 132.82 68.7148C131.898 69.668 130.723 70.3711 129.293 70.8242L127.195 67.8594C128.453 67.5 129.465 66.9688 130.23 66.2656C130.996 65.5625 131.543 64.7773 131.871 63.9102C132.199 63.043 132.363 62.125 132.363 61.1562V59H135.492V61.1562ZM136.172 61.1328C136.172 62.0781 136.324 62.9648 136.629 63.793C136.941 64.6211 137.457 65.3672 138.176 66.0312C138.895 66.6875 139.844 67.1992 141.023 67.5664L139.031 70.4844C137.648 70.0469 136.52 69.3711 135.645 68.457C134.777 67.543 134.141 66.4688 133.734 65.2344C133.336 63.9922 133.141 62.625 133.148 61.1328V59H136.172V61.1328ZM145.078 73.4609H141.305V57.6875H145.078V73.4609ZM147.785 66.8516H144.035V63.7109H147.785V66.8516ZM145.758 79.0273H130.688V76.0273H145.758V79.0273ZM134.508 77.6562H130.688V71.8789H134.508V77.6562ZM104.695 102.508H100.957V86.6406H104.695V102.508ZM98.2969 91.0469H86.7305V88.0703H98.2969V91.0469ZM86.3203 97.293C88.8516 97.2852 91.0664 97.2578 92.9648 97.2109C94.8711 97.1562 96.6758 97.0312 98.3789 96.8359L98.5195 99.5547C96.7461 99.8516 94.8398 100.055 92.8008 100.164C90.7617 100.266 88.6914 100.316 86.5898 100.316L86.2031 97.293H86.3203ZM91.8281 97.6445H88.1953V90.707H91.8281V97.6445ZM96.7852 97.6445H93.2109V90.707H96.7852V97.6445ZM102.984 93.25H98.8359V90.2734H102.984V93.25ZM102.984 97.7734H98.8359V94.7148H102.984V97.7734ZM105.164 108.027H90V105.027H105.164V108.027ZM93.7969 107.418H90V101.395H93.7969V107.418ZM114.914 89.5117C114.906 91.0664 114.691 92.5 114.27 93.8125C113.848 95.125 113.172 96.2734 112.242 97.2578C111.312 98.2422 110.117 98.9688 108.656 99.4375L106.676 96.4375C107.934 96.0547 108.945 95.5078 109.711 94.7969C110.477 94.0781 111.02 93.2734 111.34 92.3828C111.668 91.4844 111.836 90.5273 111.844 89.5117V87.7305H114.914V89.5117ZM115.641 89.3008C115.641 90.3086 115.785 91.2344 116.074 92.0781C116.363 92.9219 116.855 93.6719 117.551 94.3281C118.254 94.9844 119.188 95.4844 120.352 95.8281L118.371 98.7578C116.98 98.2969 115.863 97.6133 115.02 96.707C114.176 95.793 113.57 94.7188 113.203 93.4844C112.844 92.25 112.664 90.8555 112.664 89.3008V87.7305H115.641V89.3008ZM125.438 99.2617H121.699V86.6406H125.438V99.2617ZM117.902 99.7773C119.465 99.7773 120.816 99.9492 121.957 100.293C123.098 100.637 123.973 101.129 124.582 101.77C125.191 102.41 125.5 103.176 125.508 104.066C125.5 104.973 125.191 105.746 124.582 106.387C123.973 107.035 123.098 107.523 121.957 107.852C120.816 108.188 119.465 108.355 117.902 108.355C116.348 108.355 115 108.188 113.859 107.852C112.727 107.523 111.855 107.035 111.246 106.387C110.645 105.746 110.344 104.973 110.344 104.066C110.344 103.184 110.645 102.422 111.246 101.781C111.855 101.133 112.727 100.637 113.859 100.293C115 99.9492 116.348 99.7773 117.902 99.7773ZM117.902 102.672C117.027 102.68 116.309 102.73 115.746 102.824C115.191 102.918 114.773 103.066 114.492 103.27C114.211 103.473 114.07 103.738 114.07 104.066C114.07 104.395 114.211 104.66 114.492 104.863C114.773 105.066 115.195 105.219 115.758 105.32C116.32 105.422 117.035 105.473 117.902 105.473C118.777 105.473 119.496 105.422 120.059 105.32C120.629 105.219 121.055 105.066 121.336 104.863C121.617 104.66 121.758 104.395 121.758 104.066C121.758 103.738 121.621 103.473 121.348 103.27C121.074 103.066 120.652 102.918 120.082 102.824C119.512 102.73 118.785 102.68 117.902 102.672ZM122.121 93.2617H118.125V90.2148H122.121V93.2617Z" fill="#F6F6F6"/>
<path d="M81.5742 61.4961V62.4961H82.5742V61.4961H81.5742ZM67.875 61.4961H66.875V62.4961H67.875V61.4961ZM67.875 58.543V57.543H66.875V58.543H67.875ZM81.5742 58.543H82.5742V57.543H81.5742V58.543ZM85.3125 68.8203V69.8203H86.3125V68.8203H85.3125ZM65.5312 68.8203H64.5312V69.8203H65.5312V68.8203ZM65.5312 65.8438V64.8438H64.5312V65.8438H65.5312ZM85.3125 65.8438H86.3125V64.8438H85.3125V65.8438ZM77.2617 72.1953V73.1953H78.2617V72.1953H77.2617ZM73.4883 72.1953H72.4883V73.1953H73.4883V72.1953ZM73.4883 67.9531V66.9531H72.4883V67.9531H73.4883ZM77.2617 67.9531H78.2617V66.9531H77.2617V67.9531ZM83.0156 63.8281L82.0185 63.752L82.018 63.7591L83.0156 63.8281ZM82.4766 67.2266L82.3795 68.2218L83.2531 68.307L83.4509 67.4519L82.4766 67.2266ZM78.75 66.8633L77.7736 66.6473L77.5299 67.7491L78.653 67.8586L78.75 66.8633ZM79.1484 64.5547L78.1566 64.4267L78.1554 64.4372L79.1484 64.5547ZM79.3242 62.6094L78.3256 62.5547L78.3251 62.5683L79.3242 62.6094ZM79.3828 60.5352L80.3828 60.5448V60.5352H79.3828ZM79.3828 58.543V57.543H78.3828V58.543H79.3828ZM83.1328 58.543H84.1328V57.543H83.1328V58.543ZM83.0742 79.3203V80.3203H84.0742V79.3203H83.0742ZM79.3008 79.3203H78.3008V80.3203H79.3008V79.3203ZM79.3008 74.2578H80.3008V73.2578H79.3008V74.2578ZM67.4531 74.2578H66.4531V75.2578H67.4531V74.2578ZM67.4531 71.3398V70.3398H66.4531V71.3398H67.4531ZM83.0742 71.3398H84.0742V70.3398H83.0742V71.3398ZM81.5742 60.4961H67.875V62.4961H81.5742V60.4961ZM68.875 61.4961V58.543H66.875V61.4961H68.875ZM67.875 59.543H81.5742V57.543H67.875V59.543ZM80.5742 58.543V61.4961H82.5742V58.543H80.5742ZM85.3125 67.8203H65.5312V69.8203H85.3125V67.8203ZM66.5312 68.8203V65.8438H64.5312V68.8203H66.5312ZM65.5312 66.8438H85.3125V64.8438H65.5312V66.8438ZM84.3125 65.8438V68.8203H86.3125V65.8438H84.3125ZM77.2617 71.1953H73.4883V73.1953H77.2617V71.1953ZM74.4883 72.1953V67.9531H72.4883V72.1953H74.4883ZM73.4883 68.9531H77.2617V66.9531H73.4883V68.9531ZM76.2617 67.9531V72.1953H78.2617V67.9531H76.2617ZM82.1328 60.3242C82.1328 61.6179 82.0943 62.7597 82.0185 63.752L84.0127 63.9042C84.0932 62.8497 84.1328 61.6555 84.1328 60.3242H82.1328ZM82.018 63.7591C81.9521 64.7106 81.7824 65.7901 81.5023 67.0013L83.4509 67.4519C83.7489 66.1631 83.9385 64.9769 84.0132 63.8972L82.018 63.7591ZM82.5736 66.2313L78.847 65.868L78.653 67.8586L82.3795 68.2218L82.5736 66.2313ZM79.7264 67.0792C79.9123 66.2385 80.0512 65.4359 80.1415 64.6721L78.1554 64.4372C78.0738 65.1266 77.947 65.863 77.7736 66.6473L79.7264 67.0792ZM80.1402 64.6827C80.2367 63.9349 80.2985 63.2566 80.3234 62.6504L78.3251 62.5683C78.3031 63.1028 78.2477 63.7214 78.1567 64.4267L80.1402 64.6827ZM80.3227 62.6641C80.3551 62.074 80.3749 61.3666 80.3828 60.5448L78.3829 60.5255C78.3751 61.3287 78.3559 62.0042 78.3257 62.5547L80.3227 62.6641ZM80.3828 60.5352V60.3242H78.3828V60.5352H80.3828ZM80.3828 60.3242V58.543H78.3828V60.3242H80.3828ZM79.3828 59.543H83.1328V57.543H79.3828V59.543ZM82.1328 58.543V60.3242H84.1328V58.543H82.1328ZM83.0742 78.3203H79.3008V80.3203H83.0742V78.3203ZM80.3008 79.3203V74.2578H78.3008V79.3203H80.3008ZM79.3008 73.2578H67.4531V75.2578H79.3008V73.2578ZM68.4531 74.2578V71.3398H66.4531V74.2578H68.4531ZM67.4531 72.3398H83.0742V70.3398H67.4531V72.3398ZM82.0742 71.3398V79.3203H84.0742V71.3398H82.0742ZM103.547 79.2734V80.2734H104.547V79.2734H103.547ZM99.7734 79.2734H98.7734V80.2734H99.7734V79.2734ZM99.7734 57.6406V56.6406H98.7734V57.6406H99.7734ZM103.547 57.6406H104.547V56.6406H103.547V57.6406ZM106.324 68.7148V69.7148H107.324V68.7148H106.324ZM102.562 68.7148H101.562V69.7148H102.562V68.7148ZM102.562 65.6445V64.6445H101.562V65.6445H102.562ZM106.324 65.6445H107.324V64.6445H106.324V65.6445ZM97.6406 59.8086L98.6406 59.8119L98.644 58.8086H97.6406V59.8086ZM96.7148 66.2422L95.7609 65.9422L95.7598 65.9457L96.7148 66.2422ZM93.6562 71.5742L94.4021 72.2404L94.4037 72.2386L93.6562 71.5742ZM87.9023 75.7578L87.0988 76.353L87.5953 77.0233L88.3437 76.6551L87.9023 75.7578ZM85.793 72.9102L85.3384 72.0195L84.2864 72.5563L84.9894 73.5054L85.793 72.9102ZM90.4102 69.7227L91.1078 70.4391L91.1079 70.439L90.4102 69.7227ZM93.082 65.7148L92.1506 65.351L92.1489 65.3552L93.082 65.7148ZM93.9609 59.8086V58.8086H92.9609V59.8086H93.9609ZM95.8477 62.8555V63.8555H96.8477V62.8555H95.8477ZM87.1289 62.8555H86.1289V63.8555H87.1289V62.8555ZM87.1289 59.8086V58.8086H86.1289V59.8086H87.1289ZM95.8477 59.8086H96.8477V58.8086H95.8477V59.8086ZM103.547 78.2734H99.7734V80.2734H103.547V78.2734ZM100.773 79.2734V57.6406H98.7734V79.2734H100.773ZM99.7734 58.6406H103.547V56.6406H99.7734V58.6406ZM102.547 57.6406V79.2734H104.547V57.6406H102.547ZM106.324 67.7148H102.562V69.7148H106.324V67.7148ZM103.562 68.7148V65.6445H101.562V68.7148H103.562ZM102.562 66.6445H106.324V64.6445H102.562V66.6445ZM105.324 65.6445V68.7148H107.324V65.6445H105.324ZM96.6406 59.8053C96.6331 62.0717 96.3358 64.1144 95.7609 65.9422L97.6688 66.5422C98.3127 64.4949 98.6325 62.2486 98.6406 59.8119L96.6406 59.8053ZM95.7598 65.9457C95.2032 67.7383 94.2581 69.3919 92.9088 70.9099L94.4037 72.2386C95.9294 70.5222 97.0233 68.6211 97.6699 66.5387L95.7598 65.9457ZM92.9104 70.9081C91.5764 72.4016 89.7707 73.7245 87.461 74.8605L88.3437 76.6551C90.8309 75.4318 92.8611 73.9656 94.4021 72.2404L92.9104 70.9081ZM88.7059 75.1626L86.5965 72.3149L84.9894 73.5054L87.0988 76.353L88.7059 75.1626ZM86.2476 73.8009C88.197 72.8059 89.8245 71.6889 91.1078 70.4391L89.7125 69.0062C88.6052 70.0846 87.1545 71.0925 85.3384 72.0195L86.2476 73.8009ZM91.1079 70.439C92.4095 69.1712 93.3828 67.715 94.0151 66.0745L92.1489 65.3552C91.625 66.7147 90.817 67.9304 89.7124 69.0063L91.1079 70.439ZM94.0135 66.0787C94.6536 64.4401 94.9609 62.5781 94.9609 60.5117H92.9609C92.9609 62.3828 92.6824 63.9896 92.1506 65.351L94.0135 66.0787ZM94.9609 60.5117V59.8086H92.9609V60.5117H94.9609ZM93.9609 60.8086H97.6406V58.8086H93.9609V60.8086ZM95.8477 61.8555H87.1289V63.8555H95.8477V61.8555ZM88.1289 62.8555V59.8086H86.1289V62.8555H88.1289ZM87.1289 60.8086H95.8477V58.8086H87.1289V60.8086ZM94.8477 59.8086V62.8555H96.8477V59.8086H94.8477ZM118.957 65.1523V66.1523H119.957V65.1523H118.957ZM115.641 65.1523H114.641V66.1523H115.641V65.1523ZM115.641 62.1758V61.1758H114.641V62.1758H115.641ZM118.957 62.1758H119.957V61.1758H118.957V62.1758ZM118.957 71.9492V72.9492H119.957V71.9492H118.957ZM115.641 71.9492H114.641V72.9492H115.641V71.9492ZM115.641 68.9258V67.9258H114.641V68.9258H115.641ZM118.957 68.9258H119.957V67.9258H118.957V68.9258ZM125.906 79.3203V80.3203H126.906V79.3203H125.906ZM122.32 79.3203H121.32V80.3203H122.32V79.3203ZM122.32 57.6406V56.6406H121.32V57.6406H122.32ZM125.906 57.6406H126.906V56.6406H125.906V57.6406ZM121.383 78.3945V79.3945H122.383V78.3945H121.383ZM117.879 78.3945H116.879V79.3945H117.879V78.3945ZM117.879 57.8867V56.8867H116.879V57.8867H117.879ZM121.383 57.8867H122.383V56.8867H121.383V57.8867ZM114.434 59.9961L113.772 60.7457L113.78 60.7531L114.434 59.9961ZM116.133 62.7734L115.181 63.0804L115.183 63.086L116.133 62.7734ZM116.133 71.375L115.182 71.0643L115.181 71.0698L116.133 71.375ZM114.434 74.1875L113.771 73.4383L113.767 73.4418L114.434 74.1875ZM109.371 59.9961L110.041 60.739L110.045 60.7349L109.371 59.9961ZM111.879 62.5977L111.855 63.5974L111.879 63.598L111.904 63.5973L111.879 62.5977ZM111.105 63.043L111.941 63.5926L111.947 63.5826L111.105 63.043ZM110.66 69.6523L109.672 69.8035L109.672 69.8053L110.66 69.6523ZM111.105 71.0938L110.264 71.6335L110.27 71.6434L111.105 71.0938ZM111.879 71.5508L111.855 72.5505L111.879 72.5511L111.903 72.5505L111.879 71.5508ZM112.676 71.082L113.498 71.6513L113.505 71.6415L112.676 71.082ZM112.664 63.043L111.842 63.6122L111.85 63.6243L111.859 63.6362L112.664 63.043ZM118.957 64.1523H115.641V66.1523H118.957V64.1523ZM116.641 65.1523V62.1758H114.641V65.1523H116.641ZM115.641 63.1758H118.957V61.1758H115.641V63.1758ZM117.957 62.1758V65.1523H119.957V62.1758H117.957ZM118.957 70.9492H115.641V72.9492H118.957V70.9492ZM116.641 71.9492V68.9258H114.641V71.9492H116.641ZM115.641 69.9258H118.957V67.9258H115.641V69.9258ZM117.957 68.9258V71.9492H119.957V68.9258H117.957ZM125.906 78.3203H122.32V80.3203H125.906V78.3203ZM123.32 79.3203V57.6406H121.32V79.3203H123.32ZM122.32 58.6406H125.906V56.6406H122.32V58.6406ZM124.906 57.6406V79.3203H126.906V57.6406H124.906ZM121.383 77.3945H117.879V79.3945H121.383V77.3945ZM118.879 78.3945V57.8867H116.879V78.3945H118.879ZM117.879 58.8867H121.383V56.8867H117.879V58.8867ZM120.383 57.8867V78.3945H122.383V57.8867H120.383ZM111.879 60.0234C112.601 60.0234 113.218 60.2566 113.772 60.7457L115.095 59.2465C114.181 58.4387 113.094 58.0234 111.879 58.0234V60.0234ZM113.78 60.7531C114.348 61.2432 114.83 61.9931 115.181 63.0804L117.085 62.4664C116.654 61.1319 116.004 60.0303 115.087 59.2391L113.78 60.7531ZM115.183 63.086C115.54 64.1715 115.73 65.4908 115.73 67.0625H117.73C117.73 65.3373 117.522 63.7973 117.083 62.4609L115.183 63.086ZM115.73 67.0625C115.73 68.6423 115.54 69.9702 115.182 71.0643L117.083 71.6857C117.523 70.3423 117.73 68.7952 117.73 67.0625H115.73ZM115.181 71.0698C114.829 72.1662 114.345 72.9313 113.771 73.4384L115.096 74.9366C116.007 74.1312 116.655 73.0213 117.085 71.6802L115.181 71.0698ZM113.767 73.4418C113.213 73.9373 112.597 74.1719 111.879 74.1719V76.1719C113.098 76.1719 114.186 75.7502 115.1 74.9332L113.767 73.4418ZM111.879 74.1719C111.171 74.1719 110.577 73.9397 110.049 73.4527L108.693 74.9223C109.587 75.7478 110.665 76.1719 111.879 76.1719V74.1719ZM110.049 73.4527C109.498 72.9439 109.02 72.1717 108.658 71.0643L106.757 71.6857C107.191 73.0158 107.822 74.1186 108.693 74.9223L110.049 73.4527ZM108.658 71.0643C108.3 69.9702 108.109 68.6423 108.109 67.0625H106.109C106.109 68.7952 106.317 70.3423 106.757 71.6857L108.658 71.0643ZM108.109 67.0625C108.109 65.4908 108.3 64.1715 108.657 63.086L106.757 62.4609C106.317 63.7973 106.109 65.3373 106.109 67.0625H108.109ZM108.657 63.086C109.018 61.9874 109.495 61.2306 110.041 60.739L108.702 59.2532C107.825 60.0428 107.193 61.1376 106.757 62.4609L108.657 63.086ZM110.045 60.7349C110.572 60.2543 111.168 60.0234 111.879 60.0234V58.0234C110.668 58.0234 109.592 58.4411 108.697 59.2573L110.045 60.7349ZM111.903 61.598C111.183 61.5804 110.618 61.9499 110.264 62.5033L111.947 63.5826C111.977 63.5363 111.981 63.5485 111.944 63.5697C111.927 63.5799 111.907 63.5879 111.887 63.5928C111.867 63.5975 111.855 63.5974 111.855 63.5974L111.903 61.598ZM110.27 62.4934C109.953 62.9752 109.779 63.6314 109.672 64.3332L111.649 64.6356C111.744 64.0093 111.867 63.7044 111.941 63.5926L110.27 62.4934ZM109.672 64.3332C109.559 65.0671 109.508 65.9822 109.508 67.0625H111.508C111.508 66.0334 111.558 65.2298 111.649 64.6356L109.672 64.3332ZM109.508 67.0625C109.508 68.1501 109.559 69.0693 109.672 69.8035L111.649 69.5012C111.558 68.9072 111.508 68.0999 111.508 67.0625H109.508ZM109.672 69.8053C109.78 70.5033 109.954 71.1506 110.264 71.6334L111.947 70.5541C111.866 70.4275 111.743 70.1139 111.648 69.4994L109.672 69.8053ZM110.27 71.6434C110.623 72.1792 111.167 72.5337 111.855 72.5505L111.903 70.5511C111.9 70.551 111.905 70.5508 111.917 70.5541C111.93 70.5575 111.943 70.563 111.954 70.5697C111.965 70.5763 111.97 70.581 111.968 70.5791C111.966 70.577 111.956 70.5669 111.941 70.5441L110.27 71.6434ZM111.903 72.5505C112.596 72.5336 113.138 72.1716 113.498 71.6512L111.854 70.5128C111.834 70.5413 111.819 70.5569 111.812 70.5639C111.805 70.5707 111.805 70.5697 111.811 70.5658C111.818 70.5616 111.828 70.5572 111.839 70.5541C111.85 70.5511 111.856 70.551 111.855 70.5511L111.903 72.5505ZM113.505 71.6415C113.832 71.1563 114.027 70.5088 114.152 69.8047L112.184 69.4531C112.075 70.0616 111.941 70.3827 111.847 70.5226L113.505 71.6415ZM114.152 69.8047C114.284 69.0671 114.344 68.1464 114.344 67.0625H112.344C112.344 68.088 112.286 68.8782 112.184 69.4531L114.152 69.8047ZM114.344 67.0625C114.344 65.9782 114.284 65.0546 114.153 64.3106L112.183 64.6582C112.286 65.2423 112.344 66.0375 112.344 67.0625H114.344ZM114.153 64.3106C114.027 63.6006 113.827 62.9352 113.469 62.4498L111.859 63.6362C111.939 63.7445 112.074 64.04 112.183 64.6582L114.153 64.3106ZM113.486 62.4738C113.125 61.9515 112.57 61.5801 111.854 61.598L111.904 63.5973C111.899 63.5975 111.885 63.597 111.866 63.5924C111.847 63.5877 111.829 63.5805 111.816 63.573C111.79 63.5578 111.803 63.5554 111.842 63.6122L113.486 62.4738ZM132.82 68.7148L133.539 69.4101L133.542 69.4071L132.82 68.7148ZM129.293 70.8242L128.477 71.4018L128.899 71.9982L129.595 71.7775L129.293 70.8242ZM127.195 67.8594L126.921 66.8979L125.564 67.2854L126.379 68.4369L127.195 67.8594ZM132.363 59V58H131.363V59H132.363ZM135.492 59H136.492V58H135.492V59ZM136.629 63.793L135.69 64.1383L135.693 64.146L136.629 63.793ZM138.176 66.0312L137.497 66.7658L137.502 66.7697L138.176 66.0312ZM141.023 67.5664L141.849 68.1303L142.612 67.0135L141.321 66.6116L141.023 67.5664ZM139.031 70.4844L138.73 71.4378L139.438 71.662L139.857 71.0482L139.031 70.4844ZM135.645 68.457L134.919 69.1453L134.922 69.1485L135.645 68.457ZM133.734 65.2344L132.782 65.5398L132.784 65.547L133.734 65.2344ZM133.148 61.1328L134.148 61.138V61.1328H133.148ZM133.148 59V58H132.148V59H133.148ZM136.172 59H137.172V58H136.172V59ZM145.078 73.4609V74.4609H146.078V73.4609H145.078ZM141.305 73.4609H140.305V74.4609H141.305V73.4609ZM141.305 57.6875V56.6875H140.305V57.6875H141.305ZM145.078 57.6875H146.078V56.6875H145.078V57.6875ZM147.785 66.8516V67.8516H148.785V66.8516H147.785ZM144.035 66.8516H143.035V67.8516H144.035V66.8516ZM144.035 63.7109V62.7109H143.035V63.7109H144.035ZM147.785 63.7109H148.785V62.7109H147.785V63.7109ZM145.758 79.0273V80.0273H146.758V79.0273H145.758ZM130.688 79.0273H129.688V80.0273H130.688V79.0273ZM130.688 76.0273V75.0273H129.688V76.0273H130.688ZM145.758 76.0273H146.758V75.0273H145.758V76.0273ZM134.508 77.6562V78.6562H135.508V77.6562H134.508ZM130.688 77.6562H129.688V78.6562H130.688V77.6562ZM130.688 71.8789V70.8789H129.688V71.8789H130.688ZM134.508 71.8789H135.508V70.8789H134.508V71.8789ZM134.492 61.1562C134.492 62.5768 134.291 63.8665 133.9 65.0336L135.796 65.6695C136.264 64.2742 136.492 62.767 136.492 61.1562H134.492ZM133.9 65.0336C133.516 66.177 132.917 67.1698 132.099 68.0226L133.542 69.4071C134.568 68.338 135.32 67.0886 135.796 65.6695L133.9 65.0336ZM132.102 68.0196C131.309 68.8386 130.283 69.4613 128.991 69.871L129.595 71.7775C131.162 71.2809 132.487 70.4973 133.539 69.4101L132.102 68.0196ZM130.109 70.2466L128.012 67.2818L126.379 68.4369L128.477 71.4018L130.109 70.2466ZM127.47 68.8209C128.84 68.4296 130.001 67.8341 130.907 67.0022L129.554 65.5291C128.929 66.1034 128.067 66.5704 126.921 66.8979L127.47 68.8209ZM130.907 67.0022C131.773 66.2064 132.417 65.2941 132.806 64.264L130.936 63.5563C130.669 64.2606 130.219 64.9186 129.554 65.5291L130.907 67.0022ZM132.806 64.264C133.179 63.2788 133.363 62.2404 133.363 61.1562H131.363C131.363 62.0096 131.219 62.8072 130.936 63.5563L132.806 64.264ZM133.363 61.1562V59H131.363V61.1562H133.363ZM132.363 60H135.492V58H132.363V60ZM134.492 59V61.1562H136.492V59H134.492ZM135.172 61.1328C135.172 62.1875 135.342 63.1919 135.69 64.1383L137.567 63.4477C137.306 62.7378 137.172 61.9687 137.172 61.1328H135.172ZM135.693 64.146C136.066 65.1343 136.677 66.0075 137.497 66.7657L138.854 65.2968C138.238 64.7269 137.817 64.1078 137.565 63.4399L135.693 64.146ZM137.502 66.7697C138.354 67.5478 139.443 68.1218 140.726 68.5212L141.321 66.6116C140.244 66.2766 139.435 65.8272 138.85 65.2928L137.502 66.7697ZM140.198 67.0026L138.205 69.9205L139.857 71.0482L141.849 68.1303L140.198 67.0026ZM139.333 69.531C138.086 69.1366 137.11 68.5416 136.367 67.7655L134.922 69.1485C135.929 70.2006 137.21 70.9572 138.73 71.4378L139.333 69.531ZM136.37 67.7688C135.608 66.9652 135.046 66.0204 134.684 64.9218L132.784 65.547C133.235 66.9171 133.947 68.1207 134.919 69.1453L136.37 67.7688ZM134.687 64.9289C134.325 63.8004 134.141 62.5397 134.148 61.138L132.148 61.1276C132.14 62.7103 132.347 64.184 132.782 65.5398L134.687 64.9289ZM134.148 61.1328V59H132.148V61.1328H134.148ZM133.148 60H136.172V58H133.148V60ZM135.172 59V61.1328H137.172V59H135.172ZM145.078 72.4609H141.305V74.4609H145.078V72.4609ZM142.305 73.4609V57.6875H140.305V73.4609H142.305ZM141.305 58.6875H145.078V56.6875H141.305V58.6875ZM144.078 57.6875V73.4609H146.078V57.6875H144.078ZM147.785 65.8516H144.035V67.8516H147.785V65.8516ZM145.035 66.8516V63.7109H143.035V66.8516H145.035ZM144.035 64.7109H147.785V62.7109H144.035V64.7109ZM146.785 63.7109V66.8516H148.785V63.7109H146.785ZM145.758 78.0273H130.688V80.0273H145.758V78.0273ZM131.688 79.0273V76.0273H129.688V79.0273H131.688ZM130.688 77.0273H145.758V75.0273H130.688V77.0273ZM144.758 76.0273V79.0273H146.758V76.0273H144.758ZM134.508 76.6562H130.688V78.6562H134.508V76.6562ZM131.688 77.6562V71.8789H129.688V77.6562H131.688ZM130.688 72.8789H134.508V70.8789H130.688V72.8789ZM133.508 71.8789V77.6562H135.508V71.8789H133.508ZM104.695 102.508V103.508H105.695V102.508H104.695ZM100.957 102.508H99.957V103.508H100.957V102.508ZM100.957 86.6406V85.6406H99.957V86.6406H100.957ZM104.695 86.6406H105.695V85.6406H104.695V86.6406ZM98.2969 91.0469V92.0469H99.2969V91.0469H98.2969ZM86.7305 91.0469H85.7305V92.0469H86.7305V91.0469ZM86.7305 88.0703V87.0703H85.7305V88.0703H86.7305ZM98.2969 88.0703H99.2969V87.0703H98.2969V88.0703ZM86.3203 97.293V98.293L86.3234 98.293L86.3203 97.293ZM92.9648 97.2109L92.9895 98.2106L92.9935 98.2105L92.9648 97.2109ZM98.3789 96.8359L99.3776 96.7843L99.3226 95.7212L98.265 95.8424L98.3789 96.8359ZM98.5195 99.5547L98.6846 100.541L99.5643 100.394L99.5182 99.503L98.5195 99.5547ZM92.8008 100.164L92.8505 101.163L92.8543 101.163L92.8008 100.164ZM86.5898 100.316L85.5979 100.443L85.7096 101.316H86.5898V100.316ZM86.2031 97.293V96.293H85.0671L85.2112 97.4198L86.2031 97.293ZM91.8281 97.6445V98.6445H92.8281V97.6445H91.8281ZM88.1953 97.6445H87.1953V98.6445H88.1953V97.6445ZM88.1953 90.707V89.707H87.1953V90.707H88.1953ZM91.8281 90.707H92.8281V89.707H91.8281V90.707ZM96.7852 97.6445V98.6445H97.7852V97.6445H96.7852ZM93.2109 97.6445H92.2109V98.6445H93.2109V97.6445ZM93.2109 90.707V89.707H92.2109V90.707H93.2109ZM96.7852 90.707H97.7852V89.707H96.7852V90.707ZM102.984 93.25V94.25H103.984V93.25H102.984ZM98.8359 93.25H97.8359V94.25H98.8359V93.25ZM98.8359 90.2734V89.2734H97.8359V90.2734H98.8359ZM102.984 90.2734H103.984V89.2734H102.984V90.2734ZM102.984 97.7734V98.7734H103.984V97.7734H102.984ZM98.8359 97.7734H97.8359V98.7734H98.8359V97.7734ZM98.8359 94.7148V93.7148H97.8359V94.7148H98.8359ZM102.984 94.7148H103.984V93.7148H102.984V94.7148ZM105.164 108.027V109.027H106.164V108.027H105.164ZM90 108.027H89V109.027H90V108.027ZM90 105.027V104.027H89V105.027H90ZM105.164 105.027H106.164V104.027H105.164V105.027ZM93.7969 107.418V108.418H94.7969V107.418H93.7969ZM90 107.418H89V108.418H90V107.418ZM90 101.395V100.395H89V101.395H90ZM93.7969 101.395H94.7969V100.395H93.7969V101.395ZM104.695 101.508H100.957V103.508H104.695V101.508ZM101.957 102.508V86.6406H99.957V102.508H101.957ZM100.957 87.6406H104.695V85.6406H100.957V87.6406ZM103.695 86.6406V102.508H105.695V86.6406H103.695ZM98.2969 90.0469H86.7305V92.0469H98.2969V90.0469ZM87.7305 91.0469V88.0703H85.7305V91.0469H87.7305ZM86.7305 89.0703H98.2969V87.0703H86.7305V89.0703ZM97.2969 88.0703V91.0469H99.2969V88.0703H97.2969ZM86.3234 98.293C88.8596 98.2851 91.082 98.2577 92.9895 98.2106L92.9402 96.2112C91.0508 96.2579 88.8435 96.2852 86.3172 96.293L86.3234 98.293ZM92.9935 98.2105C94.9251 98.1551 96.7585 98.0283 98.4928 97.8294L98.265 95.8424C96.5931 96.0342 94.817 96.1574 92.9362 96.2113L92.9935 98.2105ZM97.3802 96.8876L97.5209 99.6063L99.5182 99.503L99.3776 96.7843L97.3802 96.8876ZM98.3544 98.5684C96.6225 98.8583 94.7538 99.0579 92.7472 99.1655L92.8543 101.163C94.9259 101.052 96.8697 100.845 98.6846 100.541L98.3544 98.5684ZM92.751 99.1653C90.729 99.266 88.6753 99.3164 86.5898 99.3164V101.316C88.7075 101.316 90.7944 101.265 92.8505 101.163L92.751 99.1653ZM87.5818 100.19L87.195 97.1661L85.2112 97.4198L85.5979 100.443L87.5818 100.19ZM86.2031 98.293H86.3203V96.293H86.2031V98.293ZM91.8281 96.6445H88.1953V98.6445H91.8281V96.6445ZM89.1953 97.6445V90.707H87.1953V97.6445H89.1953ZM88.1953 91.707H91.8281V89.707H88.1953V91.707ZM90.8281 90.707V97.6445H92.8281V90.707H90.8281ZM96.7852 96.6445H93.2109V98.6445H96.7852V96.6445ZM94.2109 97.6445V90.707H92.2109V97.6445H94.2109ZM93.2109 91.707H96.7852V89.707H93.2109V91.707ZM95.7852 90.707V97.6445H97.7852V90.707H95.7852ZM102.984 92.25H98.8359V94.25H102.984V92.25ZM99.8359 93.25V90.2734H97.8359V93.25H99.8359ZM98.8359 91.2734H102.984V89.2734H98.8359V91.2734ZM101.984 90.2734V93.25H103.984V90.2734H101.984ZM102.984 96.7734H98.8359V98.7734H102.984V96.7734ZM99.8359 97.7734V94.7148H97.8359V97.7734H99.8359ZM98.8359 95.7148H102.984V93.7148H98.8359V95.7148ZM101.984 94.7148V97.7734H103.984V94.7148H101.984ZM105.164 107.027H90V109.027H105.164V107.027ZM91 108.027V105.027H89V108.027H91ZM90 106.027H105.164V104.027H90V106.027ZM104.164 105.027V108.027H106.164V105.027H104.164ZM93.7969 106.418H90V108.418H93.7969V106.418ZM91 107.418V101.395H89V107.418H91ZM90 102.395H93.7969V100.395H90V102.395ZM92.7969 101.395V107.418H94.7969V101.395H92.7969ZM114.914 89.5117L115.914 89.5167V89.5117H114.914ZM108.656 99.4375L107.822 99.9884L108.24 100.621L108.962 100.39L108.656 99.4375ZM106.676 96.4375L106.385 95.4808L105.103 95.8708L105.841 96.9884L106.676 96.4375ZM109.711 94.7969L110.391 95.5297L110.395 95.5259L109.711 94.7969ZM111.34 92.3828L110.401 92.0398L110.399 92.0444L111.34 92.3828ZM111.844 89.5117L112.844 89.5194V89.5117H111.844ZM111.844 87.7305V86.7305H110.844V87.7305H111.844ZM114.914 87.7305H115.914V86.7305H114.914V87.7305ZM117.551 94.3281L116.864 95.0554L116.868 95.0592L117.551 94.3281ZM120.352 95.8281L121.18 96.3882L121.945 95.2561L120.635 94.8691L120.352 95.8281ZM118.371 98.7578L118.056 99.707L118.775 99.9453L119.2 99.3179L118.371 98.7578ZM115.02 96.707L114.285 97.3853L114.288 97.3885L115.02 96.707ZM113.203 93.4844L112.243 93.7639L112.245 93.7695L113.203 93.4844ZM112.664 87.7305V86.7305H111.664V87.7305H112.664ZM115.641 87.7305H116.641V86.7305H115.641V87.7305ZM125.438 99.2617V100.262H126.438V99.2617H125.438ZM121.699 99.2617H120.699V100.262H121.699V99.2617ZM121.699 86.6406V85.6406H120.699V86.6406H121.699ZM125.438 86.6406H126.438V85.6406H125.438V86.6406ZM125.508 104.066L126.508 104.075L126.508 104.066L126.508 104.058L125.508 104.066ZM124.582 106.387L123.857 105.697L123.853 105.702L124.582 106.387ZM121.957 107.852L121.681 106.891L121.675 106.892L121.957 107.852ZM113.859 107.852L114.142 106.892L114.138 106.891L113.859 107.852ZM111.246 106.387L110.517 107.071L110.517 107.072L111.246 106.387ZM111.246 101.781L110.517 101.096L110.517 101.097L111.246 101.781ZM113.859 100.293L113.571 99.3355L113.569 99.3361L113.859 100.293ZM117.902 102.672L117.911 101.672L117.902 101.672L117.893 101.672L117.902 102.672ZM115.746 102.824L115.582 101.838L115.579 101.838L115.746 102.824ZM120.059 105.32L119.883 104.336L119.881 104.336L120.059 105.32ZM122.121 93.2617V94.2617H123.121V93.2617H122.121ZM118.125 93.2617H117.125V94.2617H118.125V93.2617ZM118.125 90.2148V89.2148H117.125V90.2148H118.125ZM122.121 90.2148H123.121V89.2148H122.121V90.2148ZM113.914 89.5067C113.907 90.9721 113.704 92.3028 113.318 93.5065L115.222 94.1185C115.678 92.6972 115.906 91.1608 115.914 89.5167L113.914 89.5067ZM113.318 93.5065C112.94 94.6796 112.34 95.6973 111.515 96.5712L112.969 97.9444C114.003 96.8495 114.755 95.5704 115.222 94.1185L113.318 93.5065ZM111.515 96.5712C110.716 97.4173 109.673 98.0611 108.351 98.4853L108.962 100.39C110.562 99.8764 111.909 99.067 112.969 97.9444L111.515 96.5712ZM109.491 98.8866L107.51 95.8866L105.841 96.9884L107.822 99.9884L109.491 98.8866ZM106.967 97.3942C108.333 96.9783 109.49 96.3669 110.391 95.5297L109.03 94.0641C108.401 94.6487 107.534 95.1311 106.385 95.4808L106.967 97.3942ZM110.395 95.5259C111.263 94.7111 111.901 93.7762 112.281 92.7212L110.399 92.0444C110.138 92.7707 109.69 93.4452 109.027 94.0678L110.395 95.5259ZM112.279 92.7259C112.649 91.7134 112.835 90.6423 112.844 89.5194L110.844 89.504C110.837 90.4123 110.687 91.2553 110.401 92.0398L112.279 92.7259ZM112.844 89.5117V87.7305H110.844V89.5117H112.844ZM111.844 88.7305H114.914V86.7305H111.844V88.7305ZM113.914 87.7305V89.5117H115.914V87.7305H113.914ZM114.641 89.3008C114.641 90.4047 114.799 91.4416 115.128 92.4022L117.02 91.754C116.771 91.0272 116.641 90.2125 116.641 89.3008H114.641ZM115.128 92.4022C115.474 93.4104 116.06 94.296 116.864 95.0554L118.237 93.6009C117.651 93.0477 117.253 92.4334 117.02 91.754L115.128 92.4022ZM116.868 95.0592C117.711 95.8455 118.793 96.4107 120.068 96.7872L120.635 94.8691C119.582 94.5581 118.797 94.1233 118.233 93.5971L116.868 95.0592ZM119.523 95.2681L117.543 98.1978L119.2 99.3179L121.18 96.3882L119.523 95.2681ZM118.686 97.8086C117.425 97.3908 116.461 96.7883 115.751 96.0256L114.288 97.3885C115.265 98.4383 116.536 99.203 118.056 99.707L118.686 97.8086ZM115.754 96.0288C115.018 95.2309 114.487 94.2925 114.162 93.1993L112.245 93.7695C112.654 95.145 113.334 96.355 114.285 97.3853L115.754 96.0288ZM114.163 93.2048C113.835 92.0779 113.664 90.7799 113.664 89.3008H111.664C111.664 90.931 111.852 92.4221 112.243 93.7639L114.163 93.2048ZM113.664 89.3008V87.7305H111.664V89.3008H113.664ZM112.664 88.7305H115.641V86.7305H112.664V88.7305ZM114.641 87.7305V89.3008H116.641V87.7305H114.641ZM125.438 98.2617H121.699V100.262H125.438V98.2617ZM122.699 99.2617V86.6406H120.699V99.2617H122.699ZM121.699 87.6406H125.438V85.6406H121.699V87.6406ZM124.438 86.6406V99.2617H126.438V86.6406H124.438ZM117.902 100.777C119.396 100.777 120.645 100.942 121.668 101.25L122.246 99.3355C120.987 98.9563 119.534 98.7773 117.902 98.7773V100.777ZM121.668 101.25C122.698 101.561 123.402 101.98 123.857 102.459L125.307 101.08C124.543 100.278 123.497 99.7126 122.246 99.3355L121.668 101.25ZM123.857 102.459C124.291 102.914 124.502 103.436 124.508 104.075L126.508 104.058C126.498 102.916 126.092 101.906 125.307 101.08L123.857 102.459ZM124.508 104.058C124.502 104.717 124.287 105.246 123.857 105.698L125.307 107.076C126.096 106.247 126.498 105.228 126.508 104.075L124.508 104.058ZM123.853 105.702C123.402 106.183 122.704 106.596 121.681 106.891L122.233 108.813C123.491 108.451 124.544 107.888 125.311 107.072L123.853 105.702ZM121.675 106.892C120.649 107.194 119.397 107.355 117.902 107.355V109.355C119.532 109.355 120.984 109.181 122.24 108.811L121.675 106.892ZM117.902 107.355C116.416 107.355 115.168 107.194 114.142 106.892L113.577 108.811C114.832 109.181 116.28 109.355 117.902 109.355V107.355ZM114.138 106.891C113.123 106.597 112.428 106.184 111.975 105.702L110.517 107.072C111.283 107.886 112.331 108.45 113.581 108.812L114.138 106.891ZM111.975 105.702C111.554 105.253 111.344 104.727 111.344 104.066H109.344C109.344 105.218 109.736 106.239 110.517 107.071L111.975 105.702ZM111.344 104.066C111.344 103.437 111.549 102.92 111.975 102.466L110.517 101.097C109.741 101.924 109.344 102.931 109.344 104.066H111.344ZM111.975 102.466C112.431 101.98 113.131 101.559 114.15 101.25L113.569 99.3361C112.322 99.7144 111.28 100.285 110.517 101.096L111.975 102.466ZM114.148 101.25C115.171 100.942 116.417 100.777 117.902 100.777V98.7773C116.278 98.7773 114.829 98.9565 113.571 99.3355L114.148 101.25ZM117.893 101.672C116.991 101.68 116.215 101.732 115.582 101.838L115.91 103.811C116.402 103.729 117.064 103.679 117.911 103.672L117.893 101.672ZM115.579 101.838C114.957 101.943 114.366 102.127 113.907 102.459L115.078 104.08C115.181 104.006 115.426 103.893 115.913 103.81L115.579 101.838ZM113.907 102.459C113.383 102.837 113.07 103.396 113.07 104.066H115.07C115.07 104.056 115.071 104.056 115.07 104.062C115.069 104.066 115.068 104.07 115.066 104.075C115.064 104.08 115.062 104.084 115.06 104.089C115.054 104.099 115.05 104.103 115.051 104.103C115.052 104.102 115.059 104.094 115.078 104.08L113.907 102.459ZM113.07 104.066C113.07 104.737 113.383 105.295 113.907 105.674L115.078 104.053C115.059 104.039 115.052 104.031 115.051 104.03C115.05 104.03 115.054 104.034 115.06 104.044C115.062 104.048 115.064 104.053 115.066 104.058C115.068 104.063 115.069 104.067 115.07 104.07C115.071 104.077 115.07 104.077 115.07 104.066H113.07ZM113.907 105.674C114.363 106.004 114.954 106.191 115.58 106.304L115.935 104.336C115.436 104.246 115.184 104.129 115.078 104.053L113.907 105.674ZM115.58 106.304C116.223 106.42 117.003 106.473 117.902 106.473V104.473C117.068 104.473 116.418 104.423 115.935 104.336L115.58 106.304ZM117.902 106.473C118.809 106.473 119.593 106.421 120.236 106.304L119.881 104.336C119.399 104.423 118.746 104.473 117.902 104.473V106.473ZM120.234 106.305C120.866 106.192 121.463 106.005 121.921 105.674L120.75 104.053C120.647 104.128 120.392 104.245 119.883 104.336L120.234 106.305ZM121.921 105.674C122.445 105.295 122.758 104.737 122.758 104.066H120.758C120.758 104.077 120.757 104.077 120.758 104.07C120.759 104.067 120.76 104.063 120.762 104.058C120.764 104.053 120.766 104.048 120.769 104.044C120.774 104.034 120.778 104.03 120.777 104.03C120.776 104.031 120.769 104.039 120.75 104.053L121.921 105.674ZM122.758 104.066C122.758 103.408 122.46 102.85 121.944 102.467L120.751 104.072C120.768 104.085 120.774 104.092 120.775 104.092C120.775 104.092 120.774 104.091 120.772 104.089C120.77 104.086 120.768 104.083 120.766 104.079C120.764 104.075 120.762 104.07 120.761 104.066C120.759 104.062 120.758 104.059 120.758 104.056C120.757 104.052 120.758 104.054 120.758 104.066H122.758ZM121.944 102.467C121.483 102.124 120.876 101.941 120.244 101.837L119.92 103.811C120.428 103.895 120.666 104.009 120.751 104.072L121.944 102.467ZM120.244 101.837C119.604 101.732 118.822 101.68 117.911 101.672L117.893 103.672C118.749 103.679 119.419 103.729 119.92 103.811L120.244 101.837ZM122.121 92.2617H118.125V94.2617H122.121V92.2617ZM119.125 93.2617V90.2148H117.125V93.2617H119.125ZM118.125 91.2148H122.121V89.2148H118.125V91.2148ZM121.121 90.2148V93.2617H123.121V90.2148H121.121Z" fill="black" mask="url(#path-2-outside-1_839_48)"/>
<path d="M35.0039 159.328H23.7148V158.078H35.0039V159.328ZM37.6016 165.52H21.7031V164.27H37.6016V165.52ZM30.375 169.25H28.8516V165.109H30.375V169.25ZM35.5117 159.328C35.5117 160.324 35.4792 161.239 35.4141 162.072C35.349 162.899 35.1927 163.846 34.9453 164.914L33.4414 164.719C33.6107 164.009 33.7344 163.348 33.8125 162.736C33.8906 162.118 33.9395 161.571 33.959 161.096C33.9785 160.62 33.9883 160.07 33.9883 159.445V159.328V158.078H35.5117V159.328ZM35.6289 174.582H34.0859V169.992H23.3438V168.723H35.6289V174.582ZM52.4258 174.582H50.9023V157.219H52.4258V174.582ZM55.2383 165.578H52.0352V164.289H55.2383V165.578ZM47.9336 159.094C47.9271 160.78 47.6471 162.375 47.0938 163.879C46.5469 165.376 45.681 166.76 44.4961 168.029C43.3112 169.292 41.8008 170.376 39.9648 171.281L39.1055 170.07C40.7135 169.27 42.0612 168.329 43.1484 167.248C44.2422 166.161 45.0592 164.956 45.5996 163.635C46.1465 162.313 46.4232 160.884 46.4297 159.348V159.094H47.9336ZM47.2109 160.383H39.9062V159.094H47.2109V160.383ZM61.957 158.488C62.8555 158.488 63.6595 158.661 64.3691 159.006C65.0788 159.351 65.6322 159.833 66.0293 160.451C66.4264 161.07 66.625 161.776 66.625 162.57C66.625 163.365 66.4264 164.071 66.0293 164.689C65.6322 165.308 65.0788 165.79 64.3691 166.135C63.6595 166.48 62.8555 166.652 61.957 166.652C61.0521 166.652 60.2415 166.48 59.5254 166.135C58.8158 165.79 58.2624 165.308 57.8652 164.689C57.4681 164.071 57.2695 163.365 57.2695 162.57C57.2695 161.776 57.4681 161.07 57.8652 160.451C58.2624 159.833 58.8158 159.351 59.5254 159.006C60.2415 158.661 61.0521 158.488 61.957 158.488ZM61.957 159.836C61.3451 159.836 60.7982 159.95 60.3164 160.178C59.8346 160.406 59.457 160.731 59.1836 161.154C58.9102 161.571 58.7734 162.043 58.7734 162.57C58.7734 163.104 58.9102 163.576 59.1836 163.986C59.457 164.396 59.8346 164.719 60.3164 164.953C60.7982 165.188 61.3451 165.305 61.957 165.305C62.5625 165.305 63.1061 165.188 63.5879 164.953C64.0762 164.719 64.4538 164.396 64.7207 163.986C64.9876 163.576 65.1211 163.104 65.1211 162.57C65.1211 162.043 64.9876 161.571 64.7207 161.154C64.4538 160.731 64.0762 160.406 63.5879 160.178C63.1061 159.95 62.5625 159.836 61.957 159.836ZM70.5117 174.621H68.9883V157.219H70.5117V174.621ZM56.3711 169.484C58.5391 169.491 60.5671 169.458 62.4551 169.387C64.3431 169.315 66.1367 169.152 67.8359 168.898L67.9531 170.031C66.7292 170.259 65.4564 170.428 64.1348 170.539C62.8132 170.643 61.5762 170.712 60.4238 170.744C59.278 170.777 57.9987 170.793 56.5859 170.793L56.3711 169.484ZM84.1641 162.551C84.1641 163.729 83.9427 164.901 83.5 166.066C83.0573 167.225 82.4551 168.264 81.6934 169.182C80.9316 170.1 80.1081 170.786 79.2227 171.242L78.2852 170.031C79.112 169.628 79.8802 169.022 80.5898 168.215C81.306 167.408 81.8757 166.503 82.2988 165.5C82.7285 164.497 82.9466 163.514 82.9531 162.551V159.68H84.1641V162.551ZM84.457 162.551C84.4505 163.462 84.6458 164.387 85.043 165.324C85.4466 166.262 85.9935 167.111 86.6836 167.873C87.3737 168.628 88.1354 169.204 88.9688 169.602L88.0898 170.812C87.1849 170.37 86.3613 169.715 85.6191 168.85C84.8835 167.984 84.3008 167.001 83.8711 165.9C83.4414 164.794 83.2266 163.677 83.2266 162.551V159.68H84.457V162.551ZM88.3633 160.285H78.9102V159.016H88.3633V160.285ZM92.0156 174.582H90.4922V157.219H92.0156V174.582ZM94.9258 165.559H91.6641V164.25H94.9258V165.559ZM109.164 159.426H97.875V158.156H109.164V159.426ZM111.762 165.812H95.8633V164.543H111.762V165.812ZM109.672 159.445C109.672 160.454 109.639 161.372 109.574 162.199C109.509 163.02 109.353 163.964 109.105 165.031L107.582 164.934C107.758 164.217 107.885 163.544 107.963 162.912C108.048 162.281 108.1 161.727 108.119 161.252C108.139 160.77 108.148 160.207 108.148 159.562V159.445V158.156H109.672V159.445ZM109.75 174.348H97.8164V168.215H109.75V174.348ZM99.3398 173.098H108.227V169.426H99.3398V173.098ZM134.047 167.316H118.148V166.047H134.047V167.316ZM126.996 170.871H125.453V166.848H126.996V170.871ZM132.27 174.211H120.199V172.902H132.27V174.211ZM121.742 173.293H120.199V169.133H121.742V173.293ZM126.078 157.668C127.309 157.668 128.383 157.808 129.301 158.088C130.225 158.368 130.938 158.775 131.439 159.309C131.941 159.836 132.191 160.454 132.191 161.164C132.191 161.867 131.941 162.479 131.439 163C130.938 163.521 130.225 163.921 129.301 164.201C128.383 164.481 127.309 164.621 126.078 164.621C124.848 164.621 123.77 164.481 122.846 164.201C121.928 163.921 121.215 163.521 120.707 163C120.199 162.479 119.945 161.867 119.945 161.164C119.945 160.454 120.196 159.836 120.697 159.309C121.199 158.775 121.911 158.368 122.836 158.088C123.767 157.808 124.848 157.668 126.078 157.668ZM126.078 158.918C125.18 158.918 124.392 159.009 123.715 159.191C123.038 159.374 122.51 159.634 122.133 159.973C121.762 160.311 121.579 160.708 121.586 161.164C121.579 161.607 121.762 161.994 122.133 162.326C122.51 162.658 123.038 162.915 123.715 163.098C124.392 163.28 125.18 163.371 126.078 163.371C126.97 163.371 127.755 163.28 128.432 163.098C129.115 162.915 129.643 162.658 130.014 162.326C130.385 161.994 130.57 161.607 130.57 161.164C130.57 160.708 130.385 160.311 130.014 159.973C129.643 159.634 129.118 159.374 128.441 159.191C127.764 159.009 126.977 158.918 126.078 158.918ZM140.902 166.398H139.379V163.117H140.902V166.398ZM147.348 166.398H145.824V163.117H147.348V166.398ZM151.273 167.082H135.453V165.812H151.273V167.082ZM143.363 168.41C144.6 168.41 145.668 168.527 146.566 168.762C147.465 168.996 148.148 169.344 148.617 169.807C149.092 170.262 149.333 170.819 149.34 171.477C149.333 172.134 149.092 172.688 148.617 173.137C148.148 173.592 147.465 173.941 146.566 174.182C145.674 174.423 144.607 174.543 143.363 174.543C142.107 174.543 141.029 174.423 140.131 174.182C139.239 173.941 138.555 173.592 138.08 173.137C137.605 172.688 137.367 172.134 137.367 171.477C137.367 170.819 137.605 170.262 138.08 169.807C138.555 169.344 139.239 168.996 140.131 168.762C141.029 168.527 142.107 168.41 143.363 168.41ZM143.363 169.582C142.439 169.589 141.645 169.667 140.98 169.816C140.316 169.96 139.805 170.174 139.447 170.461C139.096 170.747 138.923 171.086 138.93 171.477C138.923 171.867 139.096 172.202 139.447 172.482C139.805 172.762 140.316 172.977 140.98 173.127C141.645 173.277 142.439 173.352 143.363 173.352C144.275 173.352 145.062 173.277 145.727 173.127C146.391 172.977 146.902 172.762 147.26 172.482C147.618 172.202 147.797 171.867 147.797 171.477C147.797 171.086 147.618 170.747 147.26 170.461C146.902 170.174 146.391 169.96 145.727 169.816C145.069 169.667 144.281 169.589 143.363 169.582ZM143.363 157.551C144.62 157.551 145.707 157.678 146.625 157.932C147.549 158.186 148.259 158.557 148.754 159.045C149.249 159.527 149.496 160.103 149.496 160.773C149.496 161.444 149.249 162.02 148.754 162.502C148.259 162.977 147.549 163.342 146.625 163.596C145.707 163.85 144.62 163.977 143.363 163.977C142.094 163.977 140.997 163.85 140.072 163.596C139.154 163.342 138.448 162.977 137.953 162.502C137.458 162.02 137.211 161.444 137.211 160.773C137.211 160.103 137.458 159.527 137.953 159.045C138.448 158.557 139.154 158.186 140.072 157.932C140.997 157.678 142.094 157.551 143.363 157.551ZM143.363 158.762C142.419 158.762 141.602 158.843 140.912 159.006C140.229 159.169 139.704 159.4 139.34 159.699C138.975 159.999 138.793 160.357 138.793 160.773C138.793 161.19 138.975 161.548 139.34 161.848C139.704 162.147 140.229 162.378 140.912 162.541C141.602 162.704 142.419 162.785 143.363 162.785C144.301 162.785 145.111 162.704 145.795 162.541C146.479 162.378 147.006 162.147 147.377 161.848C147.748 161.548 147.934 161.19 147.934 160.773C147.934 160.363 147.748 160.008 147.377 159.709C147.006 159.403 146.475 159.169 145.785 159.006C145.102 158.843 144.294 158.762 143.363 158.762ZM32.4062 187.332H28.5V186.062H32.4062V187.332ZM32.3867 191.688H28.3633V190.418H32.3867V191.688ZM36.5664 198.582H35.1016V181.219H36.5664V198.582ZM33.0508 197.703H31.5859V181.688H33.0508V197.703ZM29.1836 183.445C29.1771 184.995 28.946 186.46 28.4902 187.84C28.041 189.22 27.3281 190.506 26.3516 191.697C25.3815 192.882 24.138 193.927 22.6211 194.832L21.6836 193.719C23.0378 192.918 24.1608 192 25.0527 190.965C25.9447 189.923 26.6055 188.797 27.0352 187.586C27.4714 186.375 27.6927 185.086 27.6992 183.719V183.445H29.1836ZM28.3047 184.715H22.4648V183.445H28.3047V184.715ZM49.9062 183.992H39.6523V182.82H49.9062V183.992ZM44.7891 184.656C45.6094 184.656 46.332 184.76 46.957 184.969C47.582 185.177 48.0671 185.48 48.4121 185.877C48.7637 186.268 48.9427 186.727 48.9492 187.254C48.9427 187.775 48.7637 188.227 48.4121 188.611C48.0671 188.995 47.582 189.292 46.957 189.5C46.332 189.708 45.6094 189.812 44.7891 189.812C43.9557 189.812 43.2266 189.708 42.6016 189.5C41.9766 189.292 41.4915 188.995 41.1465 188.611C40.8079 188.227 40.6419 187.775 40.6484 187.254C40.6419 186.727 40.8079 186.268 41.1465 185.877C41.4915 185.48 41.9766 185.177 42.6016 184.969C43.2266 184.76 43.9557 184.656 44.7891 184.656ZM44.7891 185.75C44.2487 185.743 43.7734 185.802 43.3633 185.926C42.9596 186.043 42.6471 186.215 42.4258 186.443C42.2044 186.671 42.0938 186.941 42.0938 187.254C42.0938 187.547 42.2044 187.807 42.4258 188.035C42.6471 188.257 42.9629 188.429 43.373 188.553C43.7832 188.67 44.2552 188.725 44.7891 188.719C45.3164 188.725 45.7819 188.67 46.1855 188.553C46.5957 188.429 46.9115 188.257 47.1328 188.035C47.3542 187.807 47.4648 187.547 47.4648 187.254C47.4648 186.941 47.3542 186.671 47.1328 186.443C46.9115 186.215 46.599 186.043 46.1953 185.926C45.7917 185.802 45.3229 185.743 44.7891 185.75ZM45.5312 183.465H44.0078V181.121H45.5312V183.465ZM45.5312 191.57H44.0078V189.207H45.5312V191.57ZM53.3047 192.84H51.7617V181.277H53.3047V192.84ZM53.3047 198.582H51.7617V194.891H41.5859V193.66H53.3047V198.582ZM39.0664 191.062C41.2344 191.062 43.2396 191.03 45.082 190.965C46.931 190.893 48.6758 190.743 50.3164 190.516L50.4336 191.609C48.7409 191.889 46.9766 192.075 45.1406 192.166C43.3112 192.251 41.3646 192.293 39.3008 192.293L39.0664 191.062ZM64.1836 182.352C65.388 182.352 66.472 182.55 67.4355 182.947C68.4056 183.344 69.1641 183.904 69.7109 184.627C70.2578 185.35 70.5312 186.18 70.5312 187.117C70.5312 188.061 70.2578 188.898 69.7109 189.627C69.1641 190.35 68.4056 190.91 67.4355 191.307C66.472 191.697 65.388 191.889 64.1836 191.883C62.9792 191.889 61.8952 191.697 60.9316 191.307C59.9746 190.91 59.2194 190.35 58.666 189.627C58.1126 188.898 57.8359 188.061 57.8359 187.117C57.8359 186.18 58.1126 185.35 58.666 184.627C59.2194 183.904 59.9746 183.344 60.9316 182.947C61.8952 182.55 62.9792 182.352 64.1836 182.352ZM64.1836 183.602C63.2591 183.602 62.4258 183.748 61.6836 184.041C60.9414 184.334 60.3555 184.751 59.9258 185.291C59.5026 185.825 59.2943 186.434 59.3008 187.117C59.2943 187.807 59.5026 188.419 59.9258 188.953C60.3555 189.487 60.9382 189.9 61.6738 190.193C62.416 190.486 63.2526 190.633 64.1836 190.633C65.1081 190.633 65.9414 190.486 66.6836 190.193C67.4258 189.9 68.0052 189.487 68.4219 188.953C68.8385 188.419 69.0469 187.807 69.0469 187.117C69.0469 186.434 68.8353 185.825 68.4121 185.291C67.9889 184.751 67.4062 184.334 66.6641 184.041C65.9284 183.748 65.1016 183.602 64.1836 183.602ZM72.1719 196.277H56.2734V194.988H72.1719V196.277ZM89.457 196.434H73.5586V195.145H89.457V196.434ZM82.2109 195.711H80.707V191.414H82.2109V195.711ZM87.4453 187.762H77.0742V191.277H75.5508V186.512H85.9414V183.777H75.5117V182.508H87.4453V187.762ZM87.8555 191.863H75.5508V190.594H87.8555V191.863ZM92.1719 201.004H90.7266L91.8008 195.691H93.6953L92.1719 201.004ZM114.281 183.328H102.992V182.078H114.281V183.328ZM116.879 189.52H100.98V188.27H116.879V189.52ZM109.652 193.25H108.129V189.109H109.652V193.25ZM114.789 183.328C114.789 184.324 114.757 185.239 114.691 186.072C114.626 186.899 114.47 187.846 114.223 188.914L112.719 188.719C112.888 188.009 113.012 187.348 113.09 186.736C113.168 186.118 113.217 185.571 113.236 185.096C113.256 184.62 113.266 184.07 113.266 183.445V183.328V182.078H114.789V183.328ZM114.906 198.582H113.363V193.992H102.621V192.723H114.906V198.582ZM127.328 190.789H119.184V182.742H127.328V190.789ZM120.688 189.559H125.824V184.012H120.688V189.559ZM132.602 193.719H131.078V181.238H132.602V193.719ZM133.148 197.996H121.391V196.727H133.148V197.996ZM122.914 197.254H121.391V192.508H122.914V197.254ZM145.512 184.676C145.505 185.535 145.336 186.385 145.004 187.225C144.678 188.064 144.206 188.823 143.588 189.5C142.969 190.171 142.25 190.685 141.43 191.043L140.59 189.852C141.332 189.533 141.983 189.09 142.543 188.523C143.103 187.951 143.529 187.329 143.822 186.658C144.122 185.988 144.275 185.327 144.281 184.676V182.312H145.512V184.676ZM145.746 184.676C145.753 185.32 145.899 185.952 146.186 186.57C146.479 187.182 146.892 187.736 147.426 188.23C147.966 188.725 148.598 189.109 149.32 189.383L148.52 190.555C147.686 190.236 146.97 189.777 146.371 189.178C145.772 188.572 145.313 187.882 144.994 187.107C144.682 186.333 144.529 185.522 144.535 184.676V182.312H145.746V184.676ZM155.316 191.961H153.852V181.238H155.316V191.961ZM154.34 187.176H151.02V185.906H154.34V187.176ZM151.547 191.414H150.102V181.57H151.547V191.414ZM149.574 192.352C150.766 192.352 151.798 192.472 152.67 192.713C153.549 192.954 154.226 193.309 154.701 193.777C155.176 194.246 155.414 194.806 155.414 195.457C155.414 196.102 155.176 196.652 154.701 197.107C154.226 197.57 153.549 197.924 152.67 198.172C151.798 198.419 150.766 198.543 149.574 198.543C148.376 198.543 147.338 198.419 146.459 198.172C145.58 197.924 144.906 197.57 144.438 197.107C143.975 196.652 143.747 196.102 143.754 195.457C143.747 194.806 143.975 194.246 144.438 193.777C144.906 193.309 145.58 192.954 146.459 192.713C147.338 192.472 148.376 192.352 149.574 192.352ZM149.574 193.523C148.689 193.523 147.924 193.602 147.279 193.758C146.635 193.914 146.137 194.139 145.785 194.432C145.44 194.718 145.271 195.06 145.277 195.457C145.271 195.848 145.44 196.186 145.785 196.473C146.137 196.759 146.635 196.977 147.279 197.127C147.924 197.277 148.689 197.352 149.574 197.352C150.447 197.352 151.208 197.277 151.859 197.127C152.51 196.977 153.008 196.759 153.354 196.473C153.705 196.186 153.884 195.848 153.891 195.457C153.884 195.06 153.705 194.718 153.354 194.432C153.008 194.139 152.51 193.914 151.859 193.758C151.208 193.602 150.447 193.523 149.574 193.523ZM171.41 191.473H169.867V181.219H171.41V191.473ZM174.008 186.98H170.766V185.672H174.008V186.98ZM171.41 195.75H161.664V197.605H160.141V194.715H169.887V193.348H160.102V192.254H171.41V195.75ZM172.074 198.387H160.141V197.293H172.074V198.387ZM164.008 190.535H162.484V188.348H164.008V190.535ZM157.777 189.91C159.997 189.91 161.99 189.881 163.754 189.822C165.525 189.757 167.204 189.611 168.793 189.383L168.93 190.418C167.27 190.691 165.554 190.867 163.783 190.945C162.012 191.023 160.069 191.062 157.953 191.062L157.777 189.91ZM168.266 183.66H158.207V182.547H168.266V183.66ZM163.227 184.246C164.047 184.246 164.763 184.334 165.375 184.51C165.987 184.686 166.459 184.943 166.791 185.281C167.13 185.62 167.302 186.023 167.309 186.492C167.302 186.974 167.13 187.387 166.791 187.732C166.459 188.077 165.987 188.344 165.375 188.533C164.77 188.715 164.053 188.81 163.227 188.816C162.4 188.81 161.68 188.715 161.068 188.533C160.463 188.344 159.994 188.077 159.662 187.732C159.33 187.387 159.164 186.974 159.164 186.492C159.164 186.023 159.33 185.62 159.662 185.281C159.994 184.943 160.466 184.686 161.078 184.51C161.69 184.334 162.406 184.246 163.227 184.246ZM163.227 185.262C162.693 185.262 162.23 185.311 161.84 185.408C161.449 185.506 161.15 185.649 160.941 185.838C160.733 186.02 160.629 186.238 160.629 186.492C160.629 186.753 160.733 186.977 160.941 187.166C161.15 187.355 161.449 187.505 161.84 187.615C162.237 187.726 162.699 187.781 163.227 187.781C163.754 187.781 164.213 187.726 164.604 187.615C165.001 187.505 165.307 187.355 165.521 187.166C165.736 186.977 165.844 186.753 165.844 186.492C165.844 186.238 165.74 186.02 165.531 185.838C165.323 185.649 165.02 185.506 164.623 185.408C164.226 185.311 163.76 185.262 163.227 185.262ZM164.008 183.152H162.484V181.062H164.008V183.152ZM183.871 184.402H175.941V183.152H183.871V184.402ZM180.219 193.992H178.715V188.113H180.219V193.992ZM184.77 184.188C184.763 185.242 184.727 186.29 184.662 187.332C184.604 188.374 184.47 189.578 184.262 190.945L182.719 190.809C182.94 189.461 183.08 188.279 183.139 187.264C183.197 186.242 183.227 185.203 183.227 184.148V184.051V183.152H184.77V184.051V184.188ZM188.539 198.582H187.016V181.219H188.539V198.582ZM191.352 189.812H188.129V188.484H191.352V189.812ZM174.965 193.484C177.074 193.471 179.031 193.432 180.834 193.367C182.637 193.296 184.333 193.165 185.922 192.977L186 194.129C184.353 194.383 182.611 194.555 180.775 194.646C178.939 194.731 177.068 194.767 175.16 194.754L174.965 193.484ZM35.1406 222.621H33.6172V205.219H35.1406V222.621ZM38.0508 213.383H34.7891V212.094H38.0508V213.383ZM23.832 216.977C25.5378 216.97 26.9993 216.924 28.2168 216.84C29.4342 216.749 30.6745 216.586 31.9375 216.352L32.1328 217.68C30.8438 217.914 29.5807 218.07 28.3438 218.148C27.1133 218.227 25.6094 218.266 23.832 218.266H22.4648V216.977H23.832ZM30.5703 208.188H23.9883V217.562H22.4648V206.918H30.5703V208.188ZM55.1406 209.125H52.1133V207.855H55.1406V209.125ZM55.1406 212.836H52.1133V211.547H55.1406V212.836ZM43.8711 206.273C44.7435 206.273 45.528 206.443 46.2246 206.781C46.9212 207.12 47.4616 207.602 47.8457 208.227C48.2363 208.852 48.4349 209.561 48.4414 210.355C48.4349 211.15 48.2363 211.856 47.8457 212.475C47.4616 213.093 46.9212 213.575 46.2246 213.92C45.528 214.265 44.7435 214.438 43.8711 214.438C43.0052 214.438 42.224 214.262 41.5273 213.91C40.8372 213.559 40.2969 213.077 39.9062 212.465C39.5156 211.846 39.3203 211.143 39.3203 210.355C39.3203 209.561 39.5156 208.852 39.9062 208.227C40.2969 207.602 40.8372 207.12 41.5273 206.781C42.224 206.443 43.0052 206.273 43.8711 206.273ZM43.8711 207.582C43.2917 207.576 42.7676 207.689 42.2988 207.924C41.8366 208.152 41.4753 208.48 41.2148 208.91C40.9544 209.34 40.8242 209.822 40.8242 210.355C40.8242 210.896 40.9544 211.378 41.2148 211.801C41.4753 212.217 41.8366 212.546 42.2988 212.787C42.7676 213.021 43.2917 213.142 43.8711 213.148C44.457 213.142 44.9844 213.021 45.4531 212.787C45.9219 212.546 46.2865 212.217 46.5469 211.801C46.8073 211.378 46.9375 210.896 46.9375 210.355C46.9375 209.822 46.8073 209.34 46.5469 208.91C46.2865 208.48 45.9219 208.152 45.4531 207.924C44.9844 207.689 44.457 207.576 43.8711 207.582ZM52.5625 215.531H51.0391V205.219H52.5625V215.531ZM46.9961 216.059C48.1745 216.059 49.1934 216.189 50.0527 216.449C50.9186 216.71 51.5794 217.084 52.0352 217.572C52.4909 218.061 52.7188 218.643 52.7188 219.32C52.7188 219.991 52.4909 220.564 52.0352 221.039C51.5794 221.521 50.9186 221.892 50.0527 222.152C49.1934 222.413 48.1745 222.543 46.9961 222.543C45.8177 222.543 44.7956 222.413 43.9297 222.152C43.0703 221.892 42.4062 221.521 41.9375 221.039C41.4688 220.564 41.2344 219.991 41.2344 219.32C41.2344 218.643 41.4688 218.061 41.9375 217.572C42.4062 217.084 43.0703 216.71 43.9297 216.449C44.7956 216.189 45.8177 216.059 46.9961 216.059ZM46.9961 217.309C46.1302 217.309 45.3783 217.387 44.7402 217.543C44.1087 217.699 43.6204 217.93 43.2754 218.236C42.9368 218.542 42.7708 218.904 42.7773 219.32C42.7708 219.73 42.9368 220.085 43.2754 220.385C43.6204 220.678 44.1087 220.906 44.7402 221.068C45.3717 221.231 46.1237 221.312 46.9961 221.312C47.8685 221.312 48.6237 221.231 49.2617 221.068C49.8997 220.906 50.388 220.678 50.7266 220.385C51.0651 220.085 51.2344 219.73 51.2344 219.32C51.2344 218.904 51.0651 218.542 50.7266 218.236C50.388 217.93 49.8997 217.699 49.2617 217.543C48.6237 217.387 47.8685 217.309 46.9961 217.309ZM69.8477 218.246H68.3242V205.238H69.8477V218.246ZM72.4648 212.25H69.3594V210.961H72.4648V212.25ZM66.6641 208.617H56.3125V207.367H66.6641V208.617ZM61.4883 209.574C62.3086 209.574 63.0345 209.708 63.666 209.975C64.2975 210.242 64.7858 210.619 65.1309 211.107C65.4824 211.596 65.6615 212.165 65.668 212.816C65.6615 213.461 65.4824 214.027 65.1309 214.516C64.7858 214.997 64.2975 215.368 63.666 215.629C63.0345 215.889 62.3086 216.02 61.4883 216.02C60.6549 216.02 59.9225 215.889 59.291 215.629C58.6595 215.368 58.1712 214.997 57.8262 214.516C57.4811 214.027 57.3086 213.461 57.3086 212.816C57.3086 212.165 57.4811 211.596 57.8262 211.107C58.1712 210.619 58.6595 210.242 59.291 209.975C59.9225 209.708 60.6549 209.574 61.4883 209.574ZM61.4883 210.785C60.9479 210.785 60.4694 210.867 60.0527 211.029C59.6426 211.192 59.3268 211.43 59.1055 211.742C58.8841 212.048 58.7734 212.406 58.7734 212.816C58.7734 213.22 58.8841 213.572 59.1055 213.871C59.3268 214.171 59.6426 214.405 60.0527 214.574C60.4694 214.737 60.9479 214.815 61.4883 214.809C62.0221 214.815 62.4974 214.737 62.9141 214.574C63.3307 214.405 63.6497 214.171 63.8711 213.871C64.099 213.572 64.2161 213.22 64.2227 212.816C64.2161 212.406 64.099 212.048 63.8711 211.742C63.6497 211.43 63.3307 211.192 62.9141 211.029C62.4974 210.867 62.0221 210.785 61.4883 210.785ZM62.25 208.012H60.7266V205.238H62.25V208.012ZM70.6484 222.211H58.9883V220.922H70.6484V222.211ZM60.4922 221.449H58.9883V217.211H60.4922V221.449ZM84.1445 209.887C84.1445 211.137 83.9329 212.357 83.5098 213.549C83.0866 214.74 82.5039 215.805 81.7617 216.742C81.026 217.673 80.2057 218.383 79.3008 218.871L78.3242 217.641C79.1641 217.23 79.929 216.615 80.6191 215.795C81.3158 214.968 81.8659 214.037 82.2695 213.002C82.6797 211.967 82.888 210.928 82.8945 209.887V206.723H84.1445V209.887ZM84.3984 209.887C84.3984 210.883 84.6003 211.879 85.0039 212.875C85.4076 213.865 85.9512 214.75 86.6348 215.531C87.3184 216.312 88.0703 216.905 88.8906 217.309L87.9531 218.539C87.0547 218.07 86.2409 217.387 85.5117 216.488C84.7826 215.59 84.2064 214.568 83.7832 213.422C83.3665 212.27 83.1615 211.091 83.168 209.887V206.723H84.3984V209.887ZM92.0156 222.582H90.4922V205.219H92.0156V222.582ZM94.9258 213.598H91.6641V212.27H94.9258V213.598ZM109.379 210.648H104.672V209.379H109.379V210.648ZM100.648 206.039C101.501 206.039 102.266 206.208 102.943 206.547C103.627 206.885 104.161 207.361 104.545 207.973C104.936 208.578 105.134 209.268 105.141 210.043C105.134 210.824 104.936 211.521 104.545 212.133C104.161 212.745 103.627 213.22 102.943 213.559C102.266 213.897 101.501 214.066 100.648 214.066C99.776 214.066 98.998 213.897 98.3145 213.559C97.6309 213.22 97.097 212.745 96.7129 212.133C96.3288 211.521 96.1367 210.824 96.1367 210.043C96.1367 209.268 96.3288 208.578 96.7129 207.973C97.097 207.361 97.6309 206.885 98.3145 206.547C98.998 206.208 99.776 206.039 100.648 206.039ZM100.648 207.348C100.062 207.341 99.5384 207.452 99.0762 207.68C98.6139 207.901 98.2526 208.22 97.9922 208.637C97.7318 209.047 97.6016 209.516 97.6016 210.043C97.6016 210.564 97.7318 211.029 97.9922 211.439C98.2526 211.85 98.6139 212.175 99.0762 212.416C99.5384 212.657 100.062 212.777 100.648 212.777C101.221 212.777 101.739 212.657 102.201 212.416C102.663 212.175 103.021 211.85 103.275 211.439C103.529 211.029 103.656 210.564 103.656 210.043C103.656 209.516 103.529 209.047 103.275 208.637C103.021 208.22 102.663 207.901 102.201 207.68C101.745 207.452 101.228 207.341 100.648 207.348ZM110.258 214.535H108.715V205.219H110.258V214.535ZM100.609 217.621H108.715V215.414H110.258V222.348H99.0664V215.414H100.609V217.621ZM108.715 221.098V218.852H100.609V221.098H108.715ZM121.059 205.531C122.341 205.531 123.441 205.645 124.359 205.873C125.284 206.101 125.987 206.439 126.469 206.889C126.951 207.338 127.191 207.882 127.191 208.52C127.191 209.171 126.951 209.724 126.469 210.18C125.987 210.635 125.287 210.98 124.369 211.215C123.451 211.443 122.348 211.56 121.059 211.566C119.763 211.56 118.656 211.443 117.738 211.215C116.827 210.98 116.127 210.635 115.639 210.18C115.15 209.724 114.906 209.171 114.906 208.52C114.906 207.882 115.15 207.338 115.639 206.889C116.127 206.439 116.83 206.101 117.748 205.873C118.666 205.645 119.77 205.531 121.059 205.531ZM121.059 206.684C120.102 206.684 119.281 206.758 118.598 206.908C117.921 207.058 117.4 207.27 117.035 207.543C116.677 207.816 116.501 208.142 116.508 208.52C116.501 208.917 116.677 209.258 117.035 209.545C117.4 209.825 117.921 210.036 118.598 210.18C119.281 210.323 120.102 210.395 121.059 210.395C122.016 210.395 122.836 210.323 123.52 210.18C124.21 210.036 124.734 209.825 125.092 209.545C125.45 209.265 125.629 208.923 125.629 208.52C125.629 208.142 125.45 207.816 125.092 207.543C124.734 207.27 124.21 207.058 123.52 206.908C122.829 206.758 122.009 206.684 121.059 206.684ZM128.969 213.988H113.148V212.738H128.969V213.988ZM126.938 219.379H116.625V221.488H115.102V218.246H125.434V216.664H115.062V215.492H126.938V219.379ZM127.465 222.387H115.102V221.176H127.465V222.387ZM27.6406 234.551C27.6406 235.749 27.4128 236.93 26.957 238.096C26.5013 239.261 25.8893 240.296 25.1211 241.201C24.3594 242.106 23.526 242.786 22.6211 243.242L21.7031 242.031C22.5299 241.634 23.2982 241.035 24.0078 240.234C24.724 239.427 25.2969 238.522 25.7266 237.52C26.1562 236.517 26.3711 235.527 26.3711 234.551V231.68H27.6406V234.551ZM27.9141 234.551C27.9141 235.508 28.1289 236.462 28.5586 237.412C28.9883 238.356 29.5612 239.199 30.2773 239.941C30.9935 240.684 31.7747 241.237 32.6211 241.602L31.7617 242.812C30.8177 242.383 29.9583 241.745 29.1836 240.898C28.4154 240.052 27.8034 239.079 27.3477 237.979C26.8984 236.872 26.6771 235.729 26.6836 234.551V231.68H27.9141V234.551ZM32.0547 232.285H22.2695V231.016H32.0547V232.285ZM36.0195 246.582H34.4766V229.219H36.0195V246.582ZM45.5312 241.816H43.9883V237.949H45.5312V241.816ZM53.3047 242.422H51.7617V229.238H53.3047V242.422ZM53.7344 246.211H41.3906V244.922H53.7344V246.211ZM42.9336 245.293H41.3906V241.133H42.9336V245.293ZM38.8906 237.285C41.2148 237.272 43.2721 237.236 45.0625 237.178C46.8529 237.113 48.5651 236.979 50.1992 236.777L50.2969 237.891C48.6107 238.158 46.8431 238.333 44.9941 238.418C43.1452 238.503 41.1823 238.542 39.1055 238.535L38.8906 237.285ZM52.1719 240.625H48.168V239.512H52.1719V240.625ZM44.5938 229.941C45.4336 229.941 46.179 230.065 46.8301 230.312C47.4876 230.56 47.9954 230.915 48.3535 231.377C48.7116 231.839 48.8906 232.37 48.8906 232.969C48.8906 233.581 48.7116 234.111 48.3535 234.561C47.9954 235.01 47.4909 235.358 46.8398 235.605C46.1888 235.853 45.4401 235.977 44.5938 235.977C43.7409 235.977 42.9889 235.853 42.3379 235.605C41.6934 235.358 41.1921 235.01 40.834 234.561C40.4759 234.111 40.2969 233.581 40.2969 232.969C40.2969 232.37 40.4759 231.839 40.834 231.377C41.1921 230.915 41.6966 230.56 42.3477 230.312C42.9987 230.065 43.7474 229.941 44.5938 229.941ZM44.5938 231.113C44.0339 231.107 43.5391 231.182 43.1094 231.338C42.6797 231.488 42.3444 231.706 42.1035 231.992C41.8691 232.279 41.7552 232.604 41.7617 232.969C41.7552 233.34 41.8691 233.669 42.1035 233.955C42.3444 234.235 42.6797 234.453 43.1094 234.609C43.5391 234.766 44.0339 234.844 44.5938 234.844C45.1406 234.844 45.6289 234.766 46.0586 234.609C46.4883 234.453 46.8236 234.235 47.0645 233.955C47.3053 233.669 47.4258 233.34 47.4258 232.969C47.4258 232.604 47.3053 232.279 47.0645 231.992C46.8236 231.706 46.4883 231.488 46.0586 231.338C45.6289 231.182 45.1406 231.107 44.5938 231.113ZM69.7109 246.582H68.1875V229.219H69.7109V246.582ZM72.6211 237.656H69.3594V236.387H72.6211V237.656ZM66.5078 233.281H56.1758V232.012H66.5078V233.281ZM61.4297 234.727C62.237 234.727 62.9629 234.896 63.6074 235.234C64.252 235.573 64.7565 236.045 65.1211 236.65C65.4922 237.256 65.681 237.943 65.6875 238.711C65.681 239.486 65.4922 240.176 65.1211 240.781C64.7565 241.38 64.252 241.849 63.6074 242.188C62.9629 242.526 62.237 242.695 61.4297 242.695C60.6159 242.695 59.8835 242.526 59.2324 242.188C58.5879 241.849 58.0833 241.38 57.7188 240.781C57.3542 240.176 57.1719 239.486 57.1719 238.711C57.1719 237.943 57.3542 237.256 57.7188 236.65C58.0833 236.045 58.5879 235.573 59.2324 235.234C59.8835 234.896 60.6159 234.727 61.4297 234.727ZM61.4297 236.016C60.8958 236.016 60.4173 236.13 59.9941 236.357C59.571 236.585 59.2389 236.908 58.998 237.324C58.7572 237.734 58.6367 238.197 58.6367 238.711C58.6367 239.232 58.7572 239.694 58.998 240.098C59.2389 240.501 59.571 240.82 59.9941 241.055C60.4173 241.283 60.8958 241.393 61.4297 241.387C61.957 241.393 62.4323 241.283 62.8555 241.055C63.2852 240.82 63.6172 240.501 63.8516 240.098C64.0924 239.694 64.2161 239.232 64.2227 238.711C64.2161 238.197 64.0924 237.734 63.8516 237.324C63.6172 236.908 63.2852 236.585 62.8555 236.357C62.4323 236.13 61.957 236.016 61.4297 236.016ZM62.1719 232.598H60.6484V229.434H62.1719V232.598ZM87.6016 235.723H75.707V234.492H87.6016V235.723ZM89.4375 239.336H73.5391V238.086H89.4375V239.336ZM77.2305 235.117H75.707V229.863H77.2305V235.117ZM87.6992 246.152H75.6094V244.883H87.6992V246.152ZM77.1328 245.254H75.6094V241.113H77.1328V245.254ZM105.707 246.582H104.223V229.219H105.707V246.582ZM101.352 237.148H96.8984V235.859H101.352V237.148ZM102.152 245.684H100.688V229.648H102.152V245.684ZM92.6211 241.113C94.099 241.107 95.2936 241.071 96.2051 241.006C97.1165 240.934 98.0378 240.794 98.9688 240.586L99.125 241.895C98.1615 242.09 97.2077 242.223 96.2637 242.295C95.3197 242.36 94.1055 242.396 92.6211 242.402H91.5273V241.113H92.6211ZM98.0703 232.637H93.0117V241.602H91.5273V231.367H98.0703V232.637ZM118.715 233.887C118.715 235.137 118.503 236.357 118.08 237.549C117.657 238.74 117.074 239.805 116.332 240.742C115.596 241.673 114.776 242.383 113.871 242.871L112.895 241.641C113.734 241.23 114.499 240.615 115.189 239.795C115.886 238.968 116.436 238.037 116.84 237.002C117.25 235.967 117.458 234.928 117.465 233.887V230.723H118.715V233.887ZM118.969 233.887C118.969 234.883 119.171 235.879 119.574 236.875C119.978 237.865 120.521 238.75 121.205 239.531C121.889 240.312 122.641 240.905 123.461 241.309L122.523 242.539C121.625 242.07 120.811 241.387 120.082 240.488C119.353 239.59 118.777 238.568 118.354 237.422C117.937 236.27 117.732 235.091 117.738 233.887V230.723H118.969V233.887ZM126.586 246.582H125.062V229.219H126.586V246.582ZM129.496 237.598H126.234V236.27H129.496V237.598ZM135.883 238.398H134.359V235.117H135.883V238.398ZM142.328 238.398H140.805V235.117H142.328V238.398ZM146.254 239.082H130.434V237.812H146.254V239.082ZM138.344 240.41C139.581 240.41 140.648 240.527 141.547 240.762C142.445 240.996 143.129 241.344 143.598 241.807C144.073 242.262 144.314 242.819 144.32 243.477C144.314 244.134 144.073 244.688 143.598 245.137C143.129 245.592 142.445 245.941 141.547 246.182C140.655 246.423 139.587 246.543 138.344 246.543C137.087 246.543 136.01 246.423 135.111 246.182C134.219 245.941 133.536 245.592 133.061 245.137C132.585 244.688 132.348 244.134 132.348 243.477C132.348 242.819 132.585 242.262 133.061 241.807C133.536 241.344 134.219 240.996 135.111 240.762C136.01 240.527 137.087 240.41 138.344 240.41ZM138.344 241.582C137.419 241.589 136.625 241.667 135.961 241.816C135.297 241.96 134.786 242.174 134.428 242.461C134.076 242.747 133.904 243.086 133.91 243.477C133.904 243.867 134.076 244.202 134.428 244.482C134.786 244.762 135.297 244.977 135.961 245.127C136.625 245.277 137.419 245.352 138.344 245.352C139.255 245.352 140.043 245.277 140.707 245.127C141.371 244.977 141.882 244.762 142.24 244.482C142.598 244.202 142.777 243.867 142.777 243.477C142.777 243.086 142.598 242.747 142.24 242.461C141.882 242.174 141.371 241.96 140.707 241.816C140.049 241.667 139.262 241.589 138.344 241.582ZM138.344 229.551C139.6 229.551 140.688 229.678 141.605 229.932C142.53 230.186 143.24 230.557 143.734 231.045C144.229 231.527 144.477 232.103 144.477 232.773C144.477 233.444 144.229 234.02 143.734 234.502C143.24 234.977 142.53 235.342 141.605 235.596C140.688 235.85 139.6 235.977 138.344 235.977C137.074 235.977 135.977 235.85 135.053 235.596C134.135 235.342 133.428 234.977 132.934 234.502C132.439 234.02 132.191 233.444 132.191 232.773C132.191 232.103 132.439 231.527 132.934 231.045C133.428 230.557 134.135 230.186 135.053 229.932C135.977 229.678 137.074 229.551 138.344 229.551ZM138.344 230.762C137.4 230.762 136.583 230.843 135.893 231.006C135.209 231.169 134.685 231.4 134.32 231.699C133.956 231.999 133.773 232.357 133.773 232.773C133.773 233.19 133.956 233.548 134.32 233.848C134.685 234.147 135.209 234.378 135.893 234.541C136.583 234.704 137.4 234.785 138.344 234.785C139.281 234.785 140.092 234.704 140.775 234.541C141.459 234.378 141.986 234.147 142.357 233.848C142.729 233.548 142.914 233.19 142.914 232.773C142.914 232.363 142.729 232.008 142.357 231.709C141.986 231.403 141.456 231.169 140.766 231.006C140.082 230.843 139.275 230.762 138.344 230.762ZM158.07 237.988H149.145V236.719H158.07V237.988ZM154.262 241.758H152.738V237.715H154.262V241.758ZM157.992 232.129H150.648V237.188H149.145V230.879H157.992V232.129ZM161.957 246.621H160.434V229.219H161.957V246.621ZM147.816 241.523C149.965 241.523 151.993 241.491 153.9 241.426C155.808 241.361 157.602 241.23 159.281 241.035L159.398 242.188C158.194 242.363 156.938 242.497 155.629 242.588C154.327 242.673 153.057 242.734 151.82 242.773C150.59 242.806 149.327 242.819 148.031 242.812L147.816 241.523ZM179.047 235.723H167.152V234.492H179.047V235.723ZM180.883 239.336H164.984V238.086H180.883V239.336ZM168.676 235.117H167.152V229.863H168.676V235.117ZM179.145 246.152H167.055V244.883H179.145V246.152ZM168.578 245.254H167.055V241.113H168.578V245.254Z" fill="#0E0E0E"/>
<path d="M31.5371 259.049H28.627V256.803H31.5371V259.049ZM31.5371 264.635H28.627V262.359H31.5371V264.635ZM37.0547 270.865H34.3691V252.936H37.0547V270.865ZM33.3535 270.074H30.7168V253.18H33.3535V270.074ZM25.5117 254.156C26.3125 254.156 27.0124 254.42 27.6113 254.947C28.2168 255.475 28.6823 256.233 29.0078 257.223C29.3398 258.212 29.5059 259.378 29.5059 260.719C29.5059 262.066 29.3398 263.238 29.0078 264.234C28.6823 265.23 28.2168 265.995 27.6113 266.529C27.0124 267.063 26.3125 267.33 25.5117 267.33C24.724 267.33 24.0371 267.063 23.4512 266.529C22.8652 265.995 22.4095 265.23 22.084 264.234C21.7585 263.238 21.5957 262.066 21.5957 260.719C21.5957 259.378 21.7585 258.212 22.084 257.223C22.4095 256.233 22.8652 255.475 23.4512 254.947C24.0371 254.42 24.724 254.156 25.5117 254.156ZM25.5117 256.822C25.2057 256.816 24.9518 256.952 24.75 257.232C24.5547 257.506 24.4049 257.932 24.3008 258.512C24.1966 259.091 24.1445 259.827 24.1445 260.719C24.1445 261.617 24.1966 262.356 24.3008 262.936C24.4049 263.508 24.5547 263.935 24.75 264.215C24.9518 264.488 25.2057 264.625 25.5117 264.625C25.8242 264.625 26.0846 264.485 26.293 264.205C26.5013 263.919 26.6641 263.489 26.7812 262.916C26.8984 262.343 26.957 261.611 26.957 260.719C26.957 259.833 26.8984 259.101 26.7812 258.521C26.6641 257.936 26.498 257.506 26.2832 257.232C26.0749 256.952 25.8177 256.816 25.5117 256.822ZM45.0527 255.924C45.0462 257.154 44.8607 258.294 44.4961 259.342C44.1315 260.39 43.5684 261.305 42.8066 262.086C42.0449 262.861 41.0911 263.437 39.9453 263.814L38.3828 261.588C39.3919 261.288 40.2188 260.846 40.8633 260.26C41.5078 259.667 41.9766 259.003 42.2695 258.268C42.5625 257.532 42.709 256.751 42.709 255.924V254.059H45.0527V255.924ZM45.5508 255.924C45.5443 256.712 45.681 257.454 45.9609 258.15C46.2409 258.847 46.6868 259.472 47.2988 260.025C47.9108 260.579 48.6953 261.008 49.6523 261.314L48.168 263.502C47.0547 263.137 46.1335 262.584 45.4043 261.842C44.6816 261.1 44.1478 260.227 43.8027 259.225C43.4577 258.222 43.2852 257.122 43.2852 255.924V254.059H45.5508V255.924ZM53.0312 266.051H50.209V252.965H53.0312V266.051ZM55.3555 260.406H52.2402V258.053H55.3555V260.406ZM53.6465 270.592H41.2637V268.336H53.6465V270.592ZM44.125 269.547H41.2637V264.742H44.125V269.547ZM64.2129 253.189C65.5996 253.189 66.7845 253.307 67.7676 253.541C68.7507 253.775 69.4961 254.12 70.0039 254.576C70.5182 255.025 70.7754 255.576 70.7754 256.227C70.7754 256.884 70.5182 257.441 70.0039 257.896C69.4961 258.352 68.7507 258.697 67.7676 258.932C66.7845 259.166 65.5996 259.283 64.2129 259.283C62.8197 259.283 61.6315 259.166 60.6484 258.932C59.6654 258.697 58.9134 258.352 58.3926 257.896C57.8783 257.441 57.6211 256.884 57.6211 256.227C57.6211 255.576 57.8783 255.025 58.3926 254.576C58.9134 254.12 59.6654 253.775 60.6484 253.541C61.6315 253.307 62.8197 253.189 64.2129 253.189ZM64.2129 255.23C63.3665 255.23 62.6764 255.266 62.1426 255.338C61.6087 255.41 61.2116 255.52 60.9512 255.67C60.6973 255.82 60.5736 256.005 60.5801 256.227C60.5736 256.474 60.694 256.673 60.9414 256.822C61.1953 256.965 61.5794 257.07 62.0938 257.135C62.6146 257.193 63.321 257.226 64.2129 257.232C65.1048 257.226 65.8112 257.193 66.332 257.135C66.8594 257.07 67.2467 256.965 67.4941 256.822C67.7415 256.673 67.8652 256.474 67.8652 256.227C67.8652 256.005 67.7383 255.82 67.4844 255.67C67.2305 255.52 66.8333 255.41 66.293 255.338C65.7526 255.266 65.0592 255.23 64.2129 255.23ZM72.3867 262.242H56.0488V260.016H72.3867V262.242ZM70.4336 267.848H60.668V269.283H57.9043V265.904H67.6406V265.133H57.9043V263.092H70.4336V267.848ZM70.873 270.768H57.9043V268.678H70.873V270.768ZM93.4023 270.865H90.7168V252.936H93.4023V270.865ZM91.5762 261.988H88.6953V259.713H91.5762V261.988ZM89.3789 270.074H86.7324V253.18H89.3789V270.074ZM85.4824 266.471H78.2656V254.732H85.4824V266.471ZM80.8926 264.273H82.8555V256.939H80.8926V264.273ZM110.277 266.109H107.484V252.975H110.277V266.109ZM108.412 257.047H103.266V254.859H108.412V257.047ZM110.688 270.592H98.2461V268.336H110.688V270.592ZM101.088 269.488H98.2461V264.908H101.088V269.488ZM98.8711 262.486H96.0879V254.029H98.8711V262.486ZM97.543 261.617C98.9492 261.617 100.242 261.578 101.42 261.5C102.605 261.422 103.79 261.282 104.975 261.08L105.238 263.316C104.027 263.544 102.816 263.701 101.605 263.785C100.401 263.863 99.0469 263.899 97.543 263.893H96.0879V261.617H97.543ZM108.412 260.367H103.266V258.18H108.412V260.367ZM132.055 266.1H129.262V252.936H132.055V266.1ZM126.859 256.412H117.299V254.176H126.859V256.412ZM116.957 261.832C119.027 261.826 120.867 261.799 122.475 261.754C124.083 261.708 125.6 261.607 127.025 261.451L127.133 263.482C125.655 263.73 124.066 263.899 122.367 263.99C120.668 264.075 118.93 264.117 117.152 264.117L116.859 261.832H116.957ZM121.352 262.115H118.637V256.148H121.352V262.115ZM125.492 262.115H122.816V256.148H125.492V262.115ZM130.766 258.268H127.25V256.021H130.766V258.268ZM130.766 261.939H127.25V259.645H130.766V261.939ZM132.465 270.592H120.023V268.336H132.465V270.592ZM122.865 270.094H120.023V265.152H122.865V270.094ZM140.59 255.406C140.583 256.669 140.398 257.835 140.033 258.902C139.675 259.964 139.112 260.895 138.344 261.695C137.576 262.49 136.609 263.079 135.443 263.463L133.949 261.217C134.965 260.898 135.795 260.442 136.439 259.85C137.09 259.251 137.559 258.577 137.846 257.828C138.139 257.073 138.288 256.266 138.295 255.406V253.863H140.59V255.406ZM141.127 255.26C141.127 256.093 141.257 256.865 141.518 257.574C141.785 258.284 142.214 258.915 142.807 259.469C143.406 260.016 144.18 260.432 145.131 260.719L143.637 262.906C142.523 262.529 141.615 261.972 140.912 261.236C140.209 260.494 139.695 259.625 139.369 258.629C139.044 257.626 138.881 256.503 138.881 255.26V253.863H141.127V255.26ZM149.34 263.404H146.547V252.936H149.34V263.404ZM143.168 263.854C144.444 263.854 145.548 263.993 146.479 264.273C147.416 264.553 148.135 264.957 148.637 265.484C149.138 266.012 149.392 266.643 149.398 267.379C149.392 268.115 149.138 268.746 148.637 269.273C148.135 269.801 147.416 270.201 146.479 270.475C145.548 270.748 144.444 270.885 143.168 270.885C141.885 270.885 140.779 270.748 139.848 270.475C138.917 270.201 138.201 269.801 137.699 269.273C137.204 268.746 136.957 268.115 136.957 267.379C136.957 266.65 137.204 266.021 137.699 265.494C138.201 264.96 138.917 264.553 139.848 264.273C140.779 263.993 141.885 263.854 143.168 263.854ZM143.168 266.031C142.4 266.031 141.765 266.08 141.264 266.178C140.769 266.275 140.391 266.422 140.131 266.617C139.877 266.812 139.75 267.066 139.75 267.379C139.75 267.672 139.877 267.919 140.131 268.121C140.391 268.316 140.772 268.463 141.273 268.561C141.775 268.658 142.406 268.707 143.168 268.707C143.923 268.707 144.555 268.658 145.062 268.561C145.57 268.463 145.951 268.316 146.205 268.121C146.465 267.919 146.596 267.672 146.596 267.379C146.596 267.066 146.469 266.812 146.215 266.617C145.961 266.422 145.58 266.275 145.072 266.178C144.564 266.08 143.93 266.031 143.168 266.031ZM146.889 258.355H143.383V256.061H146.889V258.355ZM165.668 270.865H162.895V252.936H165.668V270.865ZM168.207 262.154H165.053V259.859H168.207V262.154ZM161.84 257.799H151.361V255.553H161.84V257.799ZM156.635 258.639C157.501 258.639 158.288 258.824 158.998 259.195C159.708 259.56 160.264 260.074 160.668 260.738C161.072 261.396 161.273 262.138 161.273 262.965C161.273 263.798 161.072 264.544 160.668 265.201C160.264 265.852 159.708 266.363 158.998 266.734C158.288 267.099 157.501 267.281 156.635 267.281C155.749 267.281 154.952 267.099 154.242 266.734C153.539 266.363 152.989 265.852 152.592 265.201C152.195 264.544 151.996 263.798 151.996 262.965C151.996 262.138 152.195 261.396 152.592 260.738C152.989 260.074 153.539 259.56 154.242 259.195C154.952 258.824 155.749 258.639 156.635 258.639ZM156.635 260.914C156.251 260.921 155.912 261.005 155.619 261.168C155.326 261.324 155.095 261.559 154.926 261.871C154.763 262.177 154.682 262.542 154.682 262.965C154.682 263.395 154.763 263.762 154.926 264.068C155.095 264.374 155.326 264.605 155.619 264.762C155.912 264.918 156.251 264.999 156.635 265.006C157.012 264.999 157.348 264.918 157.641 264.762C157.934 264.605 158.161 264.374 158.324 264.068C158.487 263.762 158.568 263.395 158.568 262.965C158.568 262.542 158.487 262.177 158.324 261.871C158.161 261.559 157.93 261.324 157.631 261.168C157.338 261.005 157.006 260.921 156.635 260.914ZM158.041 256.373H155.229V253.238H158.041V256.373ZM181.82 256.627H170.395V254.42H181.82V256.627ZM185.082 268.785H168.744V266.51H185.082V268.785ZM177.201 267.682H174.418V260.436H177.201V267.682ZM183.617 256.285C183.617 257.75 183.575 259.111 183.49 260.367C183.406 261.624 183.207 263.092 182.895 264.771L180.053 264.469C180.274 263.382 180.44 262.353 180.551 261.383C180.661 260.406 180.727 259.544 180.746 258.795C180.772 258.046 180.788 257.187 180.795 256.217V256.1V254.42H183.617V256.1V256.285ZM36.6445 285.93H33.8516V276.936H36.6445V285.93ZM30.8145 277.58C30.8079 279.182 30.5052 280.565 29.9062 281.73C29.3073 282.889 28.4023 283.85 27.1914 284.611C25.9805 285.367 24.4505 285.939 22.6016 286.33L21.6543 284.064C23.0996 283.791 24.2747 283.413 25.1797 282.932C26.0846 282.443 26.7357 281.88 27.1328 281.242C27.5365 280.604 27.7415 279.895 27.748 279.113V277.58H30.8145ZM28.8906 279.826H22.6992V277.58H28.8906V279.826ZM34.1641 281.213H30.082V279.094H34.1641V281.213ZM34.0664 284.699H29.9746V282.58H34.0664V284.699ZM36.6445 291.594H27.4746V293.654H24.6621V289.523H33.8223V288.713H24.6426V286.516H36.6445V291.594ZM36.9668 294.689H24.6621V292.482H36.9668V294.689ZM51.8398 283.488H48.6074V281.223H51.8398V283.488ZM53.9297 287.59H51.1367V276.936H53.9297V287.59ZM47.7578 287.922C49.0339 287.922 50.1374 288.062 51.0684 288.342C52.0059 288.622 52.7253 289.022 53.2266 289.543C53.7279 290.064 53.9818 290.689 53.9883 291.418C53.9818 292.141 53.7279 292.762 53.2266 293.283C52.7253 293.804 52.0059 294.204 51.0684 294.484C50.1374 294.764 49.0339 294.904 47.7578 294.904C46.4753 294.904 45.3685 294.764 44.4375 294.484C43.5065 294.204 42.7904 293.804 42.2891 293.283C41.7943 292.762 41.5469 292.141 41.5469 291.418C41.5469 290.689 41.7943 290.064 42.2891 289.543C42.7904 289.022 43.5065 288.622 44.4375 288.342C45.375 288.062 46.4818 287.922 47.7578 287.922ZM47.7578 290.041C46.9896 290.048 46.3548 290.1 45.8535 290.197C45.3587 290.295 44.9811 290.445 44.7207 290.646C44.4668 290.848 44.3398 291.105 44.3398 291.418C44.3398 291.724 44.4668 291.978 44.7207 292.18C44.9811 292.382 45.362 292.531 45.8633 292.629C46.3646 292.727 46.9961 292.775 47.7578 292.775C48.513 292.775 49.1445 292.727 49.6523 292.629C50.1667 292.531 50.5508 292.382 50.8047 292.18C51.0586 291.978 51.1855 291.724 51.1855 291.418C51.1855 291.105 51.0586 290.848 50.8047 290.646C50.5508 290.445 50.1699 290.295 49.6621 290.197C49.1543 290.1 48.5195 290.048 47.7578 290.041ZM45.1016 279.816C45.1016 281.014 44.9225 282.131 44.5645 283.166C44.2129 284.201 43.6595 285.113 42.9043 285.9C42.1491 286.682 41.1953 287.264 40.043 287.648L38.5781 285.422C39.5612 285.096 40.3685 284.637 41 284.045C41.6315 283.452 42.0905 282.798 42.377 282.082C42.6634 281.359 42.8099 280.604 42.8164 279.816V278.742H45.1016V279.816ZM45.6875 279.797C45.6875 280.526 45.8242 281.226 46.0977 281.896C46.3711 282.561 46.8073 283.166 47.4062 283.713C48.0117 284.26 48.7799 284.686 49.7109 284.992L48.334 287.189C47.2207 286.831 46.293 286.281 45.5508 285.539C44.8151 284.797 44.2715 283.938 43.9199 282.961C43.5749 281.978 43.4023 280.923 43.4023 279.797V278.742H45.6875V279.797ZM49.1152 280.207H39.3789V277.961H49.1152V280.207ZM64.5742 281.789H56.0098V279.562H64.5742V281.789ZM60.3359 282.473C61.1042 282.473 61.7878 282.655 62.3867 283.02C62.9922 283.378 63.4609 283.885 63.793 284.543C64.1315 285.201 64.3008 285.943 64.3008 286.77C64.3008 287.609 64.1315 288.355 63.793 289.006C63.4609 289.657 62.9922 290.171 62.3867 290.549C61.7878 290.92 61.1042 291.105 60.3359 291.105C59.5872 291.105 58.9069 290.92 58.2949 290.549C57.6895 290.171 57.2174 289.657 56.8789 289.006C56.5404 288.348 56.3711 287.603 56.3711 286.77C56.3711 285.949 56.5404 285.214 56.8789 284.562C57.224 283.905 57.6992 283.394 58.3047 283.029C58.9102 282.658 59.5872 282.473 60.3359 282.473ZM60.3359 284.797C60.0365 284.79 59.7728 284.865 59.5449 285.021C59.3236 285.171 59.151 285.396 59.0273 285.695C58.9036 285.995 58.8418 286.353 58.8418 286.77C58.8418 287.193 58.9036 287.551 59.0273 287.844C59.151 288.137 59.3236 288.358 59.5449 288.508C59.7728 288.658 60.0365 288.732 60.3359 288.732C60.6354 288.732 60.8991 288.658 61.127 288.508C61.3548 288.358 61.5306 288.137 61.6543 287.844C61.778 287.551 61.8398 287.193 61.8398 286.77C61.8398 286.353 61.778 285.995 61.6543 285.695C61.5306 285.396 61.3516 285.171 61.1172 285.021C60.8893 284.865 60.6289 284.79 60.3359 284.797ZM71.6055 294.865H68.9297V276.936H71.6055V294.865ZM69.8184 286.389H66.9375V284.162H69.8184V286.389ZM67.7871 294.133H65.1504V277.277H67.7871V294.133ZM61.7129 280.969H58.9492V277.434H61.7129V280.969ZM79.6426 290.949H76.8594V286.018H79.6426V290.949ZM86.2051 290.949H83.3633V286.018H86.2051V290.949ZM89.7109 292.844H73.334V290.549H89.7109V292.844ZM81.498 277.736C82.7936 277.736 83.9557 277.941 84.9844 278.352C86.0195 278.755 86.8301 279.328 87.416 280.07C88.0085 280.806 88.3047 281.652 88.3047 282.609C88.3047 283.579 88.0117 284.432 87.4258 285.168C86.8398 285.897 86.0293 286.464 84.9941 286.867C83.959 287.271 82.7936 287.473 81.498 287.473C80.196 287.473 79.0306 287.271 78.002 286.867C76.9733 286.464 76.166 285.897 75.5801 285.168C75.0007 284.432 74.7109 283.579 74.7109 282.609C74.7109 281.652 75.0007 280.806 75.5801 280.07C76.166 279.328 76.9733 278.755 78.002 278.352C79.0306 277.941 80.196 277.736 81.498 277.736ZM81.498 279.953C80.6777 279.947 79.9681 280.048 79.3691 280.256C78.7702 280.458 78.3079 280.76 77.9824 281.164C77.6569 281.561 77.4941 282.043 77.4941 282.609C77.4941 283.169 77.6569 283.651 77.9824 284.055C78.3079 284.458 78.7702 284.768 79.3691 284.982C79.9746 285.191 80.6842 285.298 81.498 285.305C82.3053 285.298 83.0117 285.188 83.6172 284.973C84.2227 284.758 84.6882 284.452 85.0137 284.055C85.3392 283.651 85.502 283.169 85.502 282.609C85.502 282.043 85.3392 281.561 85.0137 281.164C84.6882 280.76 84.2227 280.458 83.6172 280.256C83.0117 280.048 82.3053 279.947 81.498 279.953ZM93.0605 293.195C92.7415 293.195 92.4453 293.117 92.1719 292.961C91.8984 292.798 91.6803 292.583 91.5176 292.316C91.3613 292.043 91.2865 291.743 91.293 291.418C91.2865 291.105 91.3613 290.816 91.5176 290.549C91.6803 290.282 91.8984 290.07 92.1719 289.914C92.4453 289.758 92.7415 289.68 93.0605 289.68C93.3665 289.68 93.653 289.758 93.9199 289.914C94.1934 290.07 94.4115 290.285 94.5742 290.559C94.737 290.826 94.8216 291.112 94.8281 291.418C94.8216 291.743 94.737 292.043 94.5742 292.316C94.4115 292.583 94.1934 292.798 93.9199 292.961C93.653 293.117 93.3665 293.195 93.0605 293.195Z" fill="#464646"/>
<defs>
<filter id="filter0_bd_839_48" x="-76" y="-80" width="366" height="613" filterUnits="userSpaceOnUse" color-interpolation-filters="sRGB">
<feFlood flood-opacity="0" result="BackgroundImageFix"/>
<feGaussianBlur in="BackgroundImageFix" stdDeviation="40"/>
<feComposite in2="SourceAlpha" operator="in" result="effect1_backgroundBlur_839_48"/>
<feColorMatrix in="SourceAlpha" type="matrix" values="0 0 0 0 0 0 0 0 0 0 0 0 0 0 0 0 0 0 127 0" result="hardAlpha"/>
<feOffset dy="3.6"/>
<feGaussianBlur stdDeviation="1.8"/>
<feComposite in2="hardAlpha" operator="out"/>
<feColorMatrix type="matrix" values="0 0 0 0 0 0 0 0 0 0 0 0 0 0 0 0 0 0 0.25 0"/>
<feBlend mode="normal" in2="effect1_backgroundBlur_839_48" result="effect2_dropShadow_839_48"/>
<feBlend mode="normal" in="SourceGraphic" in2="effect2_dropShadow_839_48" result="shape"/>
</filter>
<linearGradient id="paint0_linear_839_48" x1="107" y1="-33.6789" x2="107" y2="453" gradientUnits="userSpaceOnUse">
<stop stop-color="#D8F5DD"/>
<stop offset="1" stop-color="#D8F5DD" stop-opacity="0"/>
</linearGradient>
</defs>
</svg>