<svg xmlns="http://www.w3.org/2000/svg" width="214" height="461" viewBox="0 0 214 461" fill="none">
<g filter="url(#filter0_bd_839_53)">
<rect x="4" width="206" height="453" rx="103" fill="url(#paint0_linear_839_53)" shape-rendering="crispEdges"/>
</g>
<mask id="path-2-outside-1_839_53" maskUnits="userSpaceOnUse" x="38" y="56" width="137" height="25" fill="black">
<rect fill="white" x="38" y="56" width="137" height="25"/>
<path d="M55.6055 61.4961H41.9062V58.543H55.6055V61.4961ZM59.3438 68.8203H39.5625V65.8438H59.3438V68.8203ZM51.293 72.1953H47.5195V67.9531H51.293V72.1953ZM57.1641 60.3242C57.1641 61.6367 57.125 62.8047 57.0469 63.8281C56.9766 64.8438 56.7969 65.9766 56.5078 67.2266L52.7812 66.8633C52.9609 66.0508 53.0938 65.2812 53.1797 64.5547C53.2734 63.8281 53.332 63.1797 53.3555 62.6094C53.3867 62.0391 53.4062 61.3477 53.4141 60.5352V60.3242V58.543H57.1641V60.3242ZM57.1055 79.3203H53.332V74.2578H41.4844V71.3398H57.1055V79.3203ZM77.5781 79.2734H73.8047V57.6406H77.5781V79.2734ZM80.3555 68.7148H76.5938V65.6445H80.3555V68.7148ZM71.6719 59.8086C71.6641 62.1602 71.3555 64.3047 70.7461 66.2422C70.1445 68.1797 69.125 69.957 67.6875 71.5742C66.25 73.1836 64.332 74.5781 61.9336 75.7578L59.8242 72.9102C61.707 71.9492 63.2461 70.8867 64.4414 69.7227C65.6445 68.5508 66.5352 67.2148 67.1133 65.7148C67.6992 64.2148 67.9922 62.4805 67.9922 60.5117V59.8086H71.6719ZM69.8789 62.8555H61.1602V59.8086H69.8789V62.8555ZM98.2148 65.1523H94.8984V62.1758H98.2148V65.1523ZM98.2148 71.9492H94.8984V68.9258H98.2148V71.9492ZM105.164 79.3203H101.578V57.6406H105.164V79.3203ZM100.641 78.3945H97.1367V57.8867H100.641V78.3945ZM91.1367 59.0234C92.1055 59.0234 92.957 59.3477 93.6914 59.9961C94.4336 60.6367 95 61.5625 95.3906 62.7734C95.7891 63.9844 95.9883 65.4141 95.9883 67.0625C95.9883 68.7188 95.7891 70.1562 95.3906 71.375C95 72.5938 94.4336 73.5312 93.6914 74.1875C92.957 74.8438 92.1055 75.1719 91.1367 75.1719C90.1758 75.1719 89.3398 74.8438 88.6289 74.1875C87.918 73.5312 87.3633 72.5938 86.9648 71.375C86.5664 70.1562 86.3672 68.7188 86.3672 67.0625C86.3672 65.4141 86.5664 63.9844 86.9648 62.7734C87.3633 61.5625 87.918 60.6367 88.6289 59.9961C89.3398 59.3477 90.1758 59.0234 91.1367 59.0234ZM91.1367 62.5977C90.8164 62.5898 90.5586 62.7383 90.3633 63.043C90.168 63.3398 90.0195 63.8203 89.918 64.4844C89.8164 65.1484 89.7656 66.0078 89.7656 67.0625C89.7656 68.125 89.8164 68.9883 89.918 69.6523C90.0195 70.3086 90.168 70.7891 90.3633 71.0938C90.5586 71.3906 90.8164 71.543 91.1367 71.5508C91.457 71.543 91.7227 71.3867 91.9336 71.082C92.1445 70.7695 92.3086 70.2852 92.4258 69.6289C92.543 68.9727 92.6016 68.1172 92.6016 67.0625C92.6016 66.0078 92.543 65.1484 92.4258 64.4844C92.3086 63.8203 92.1406 63.3398 91.9219 63.043C91.7109 62.7383 91.4492 62.5898 91.1367 62.5977ZM114.75 61.1562C114.75 62.6719 114.535 64.0703 114.105 65.3516C113.676 66.6328 113 67.7539 112.078 68.7148C111.156 69.668 109.98 70.3711 108.551 70.8242L106.453 67.8594C107.711 67.5 108.723 66.9688 109.488 66.2656C110.254 65.5625 110.801 64.7773 111.129 63.9102C111.457 63.043 111.621 62.125 111.621 61.1562V59H114.75V61.1562ZM115.43 61.1328C115.43 62.0781 115.582 62.9648 115.887 63.793C116.199 64.6211 116.715 65.3672 117.434 66.0312C118.152 66.6875 119.102 67.1992 120.281 67.5664L118.289 70.4844C116.906 70.0469 115.777 69.3711 114.902 68.457C114.035 67.543 113.398 66.4688 112.992 65.2344C112.594 63.9922 112.398 62.625 112.406 61.1328V59H115.43V61.1328ZM124.336 73.4609H120.562V57.6875H124.336V73.4609ZM127.043 66.8516H123.293V63.7109H127.043V66.8516ZM125.016 79.0273H109.945V76.0273H125.016V79.0273ZM113.766 77.6562H109.945V71.8789H113.766V77.6562ZM144.223 58.8477C144.223 60.7773 143.855 62.5 143.121 64.0156C142.387 65.5312 141.289 66.8203 139.828 67.8828C138.367 68.9453 136.566 69.7695 134.426 70.3555L132.996 67.4141C134.621 67 135.98 66.4531 137.074 65.7734C138.168 65.0859 138.977 64.3125 139.5 63.4531C140.031 62.5859 140.301 61.6562 140.309 60.6641V58.8477H144.223ZM142.922 61.7891H134.203V58.8477H142.922V61.7891ZM151.406 69.6406H147.668V57.6875H151.406V69.6406ZM148.113 65.5977H144.422V62.5508H148.113V65.5977ZM151.406 79.1094H136.863V70.4844H151.406V79.1094ZM140.543 76.1914H147.68V73.4023H140.543V76.1914ZM171.434 71.0117H155.895V68.0703H171.434V71.0117ZM173.508 77.0938H153.727V74.1289H173.508V77.0938ZM165.504 75.3828H161.73V69.5117H165.504V75.3828ZM171.316 61.9648H159.715V69.2305H155.895V58.9766H171.316V61.9648ZM170.777 66.4531H158.625V63.5469H170.777V66.4531Z"/>
</mask>
<path d="M55.6055 61.4961H41.9062V58.543H55.6055V61.4961ZM59.3438 68.8203H39.5625V65.8438H59.3438V68.8203ZM51.293 72.1953H47.5195V67.9531H51.293V72.1953ZM57.1641 60.3242C57.1641 61.6367 57.125 62.8047 57.0469 63.8281C56.9766 64.8438 56.7969 65.9766 56.5078 67.2266L52.7812 66.8633C52.9609 66.0508 53.0938 65.2812 53.1797 64.5547C53.2734 63.8281 53.332 63.1797 53.3555 62.6094C53.3867 62.0391 53.4062 61.3477 53.4141 60.5352V60.3242V58.543H57.1641V60.3242ZM57.1055 79.3203H53.332V74.2578H41.4844V71.3398H57.1055V79.3203ZM77.5781 79.2734H73.8047V57.6406H77.5781V79.2734ZM80.3555 68.7148H76.5938V65.6445H80.3555V68.7148ZM71.6719 59.8086C71.6641 62.1602 71.3555 64.3047 70.7461 66.2422C70.1445 68.1797 69.125 69.957 67.6875 71.5742C66.25 73.1836 64.332 74.5781 61.9336 75.7578L59.8242 72.9102C61.707 71.9492 63.2461 70.8867 64.4414 69.7227C65.6445 68.5508 66.5352 67.2148 67.1133 65.7148C67.6992 64.2148 67.9922 62.4805 67.9922 60.5117V59.8086H71.6719ZM69.8789 62.8555H61.1602V59.8086H69.8789V62.8555ZM98.2148 65.1523H94.8984V62.1758H98.2148V65.1523ZM98.2148 71.9492H94.8984V68.9258H98.2148V71.9492ZM105.164 79.3203H101.578V57.6406H105.164V79.3203ZM100.641 78.3945H97.1367V57.8867H100.641V78.3945ZM91.1367 59.0234C92.1055 59.0234 92.957 59.3477 93.6914 59.9961C94.4336 60.6367 95 61.5625 95.3906 62.7734C95.7891 63.9844 95.9883 65.4141 95.9883 67.0625C95.9883 68.7188 95.7891 70.1562 95.3906 71.375C95 72.5938 94.4336 73.5312 93.6914 74.1875C92.957 74.8438 92.1055 75.1719 91.1367 75.1719C90.1758 75.1719 89.3398 74.8438 88.6289 74.1875C87.918 73.5312 87.3633 72.5938 86.9648 71.375C86.5664 70.1562 86.3672 68.7188 86.3672 67.0625C86.3672 65.4141 86.5664 63.9844 86.9648 62.7734C87.3633 61.5625 87.918 60.6367 88.6289 59.9961C89.3398 59.3477 90.1758 59.0234 91.1367 59.0234ZM91.1367 62.5977C90.8164 62.5898 90.5586 62.7383 90.3633 63.043C90.168 63.3398 90.0195 63.8203 89.918 64.4844C89.8164 65.1484 89.7656 66.0078 89.7656 67.0625C89.7656 68.125 89.8164 68.9883 89.918 69.6523C90.0195 70.3086 90.168 70.7891 90.3633 71.0938C90.5586 71.3906 90.8164 71.543 91.1367 71.5508C91.457 71.543 91.7227 71.3867 91.9336 71.082C92.1445 70.7695 92.3086 70.2852 92.4258 69.6289C92.543 68.9727 92.6016 68.1172 92.6016 67.0625C92.6016 66.0078 92.543 65.1484 92.4258 64.4844C92.3086 63.8203 92.1406 63.3398 91.9219 63.043C91.7109 62.7383 91.4492 62.5898 91.1367 62.5977ZM114.75 61.1562C114.75 62.6719 114.535 64.0703 114.105 65.3516C113.676 66.6328 113 67.7539 112.078 68.7148C111.156 69.668 109.98 70.3711 108.551 70.8242L106.453 67.8594C107.711 67.5 108.723 66.9688 109.488 66.2656C110.254 65.5625 110.801 64.7773 111.129 63.9102C111.457 63.043 111.621 62.125 111.621 61.1562V59H114.75V61.1562ZM115.43 61.1328C115.43 62.0781 115.582 62.9648 115.887 63.793C116.199 64.6211 116.715 65.3672 117.434 66.0312C118.152 66.6875 119.102 67.1992 120.281 67.5664L118.289 70.4844C116.906 70.0469 115.777 69.3711 114.902 68.457C114.035 67.543 113.398 66.4688 112.992 65.2344C112.594 63.9922 112.398 62.625 112.406 61.1328V59H115.43V61.1328ZM124.336 73.4609H120.562V57.6875H124.336V73.4609ZM127.043 66.8516H123.293V63.7109H127.043V66.8516ZM125.016 79.0273H109.945V76.0273H125.016V79.0273ZM113.766 77.6562H109.945V71.8789H113.766V77.6562ZM144.223 58.8477C144.223 60.7773 143.855 62.5 143.121 64.0156C142.387 65.5312 141.289 66.8203 139.828 67.8828C138.367 68.9453 136.566 69.7695 134.426 70.3555L132.996 67.4141C134.621 67 135.98 66.4531 137.074 65.7734C138.168 65.0859 138.977 64.3125 139.5 63.4531C140.031 62.5859 140.301 61.6562 140.309 60.6641V58.8477H144.223ZM142.922 61.7891H134.203V58.8477H142.922V61.7891ZM151.406 69.6406H147.668V57.6875H151.406V69.6406ZM148.113 65.5977H144.422V62.5508H148.113V65.5977ZM151.406 79.1094H136.863V70.4844H151.406V79.1094ZM140.543 76.1914H147.68V73.4023H140.543V76.1914ZM171.434 71.0117H155.895V68.0703H171.434V71.0117ZM173.508 77.0938H153.727V74.1289H173.508V77.0938ZM165.504 75.3828H161.73V69.5117H165.504V75.3828ZM171.316 61.9648H159.715V69.2305H155.895V58.9766H171.316V61.9648ZM170.777 66.4531H158.625V63.5469H170.777V66.4531Z" fill="#F6F6F6"/>
<path d="M55.6055 61.4961V62.4961H56.6055V61.4961H55.6055ZM41.9062 61.4961H40.9062V62.4961H41.9062V61.4961ZM41.9062 58.543V57.543H40.9062V58.543H41.9062ZM55.6055 58.543H56.6055V57.543H55.6055V58.543ZM59.3438 68.8203V69.8203H60.3438V68.8203H59.3438ZM39.5625 68.8203H38.5625V69.8203H39.5625V68.8203ZM39.5625 65.8438V64.8438H38.5625V65.8438H39.5625ZM59.3438 65.8438H60.3438V64.8438H59.3438V65.8438ZM51.293 72.1953V73.1953H52.293V72.1953H51.293ZM47.5195 72.1953H46.5195V73.1953H47.5195V72.1953ZM47.5195 67.9531V66.9531H46.5195V67.9531H47.5195ZM51.293 67.9531H52.293V66.9531H51.293V67.9531ZM57.0469 63.8281L56.0498 63.752L56.0493 63.7591L57.0469 63.8281ZM56.5078 67.2266L56.4108 68.2218L57.2844 68.307L57.4821 67.4519L56.5078 67.2266ZM52.7812 66.8633L51.8048 66.6473L51.5612 67.7491L52.6842 67.8586L52.7812 66.8633ZM53.1797 64.5547L52.1879 64.4267L52.1866 64.4372L53.1797 64.5547ZM53.3555 62.6094L52.3569 62.5547L52.3563 62.5683L53.3555 62.6094ZM53.4141 60.5352L54.4141 60.5448V60.5352H53.4141ZM53.4141 58.543V57.543H52.4141V58.543H53.4141ZM57.1641 58.543H58.1641V57.543H57.1641V58.543ZM57.1055 79.3203V80.3203H58.1055V79.3203H57.1055ZM53.332 79.3203H52.332V80.3203H53.332V79.3203ZM53.332 74.2578H54.332V73.2578H53.332V74.2578ZM41.4844 74.2578H40.4844V75.2578H41.4844V74.2578ZM41.4844 71.3398V70.3398H40.4844V71.3398H41.4844ZM57.1055 71.3398H58.1055V70.3398H57.1055V71.3398ZM55.6055 60.4961H41.9062V62.4961H55.6055V60.4961ZM42.9062 61.4961V58.543H40.9062V61.4961H42.9062ZM41.9062 59.543H55.6055V57.543H41.9062V59.543ZM54.6055 58.543V61.4961H56.6055V58.543H54.6055ZM59.3438 67.8203H39.5625V69.8203H59.3438V67.8203ZM40.5625 68.8203V65.8438H38.5625V68.8203H40.5625ZM39.5625 66.8438H59.3438V64.8438H39.5625V66.8438ZM58.3438 65.8438V68.8203H60.3438V65.8438H58.3438ZM51.293 71.1953H47.5195V73.1953H51.293V71.1953ZM48.5195 72.1953V67.9531H46.5195V72.1953H48.5195ZM47.5195 68.9531H51.293V66.9531H47.5195V68.9531ZM50.293 67.9531V72.1953H52.293V67.9531H50.293ZM56.1641 60.3242C56.1641 61.6179 56.1255 62.7597 56.0498 63.752L58.044 63.9042C58.1245 62.8497 58.1641 61.6555 58.1641 60.3242H56.1641ZM56.0493 63.7591C55.9834 64.7106 55.8136 65.7901 55.5335 67.0013L57.4821 67.4519C57.7801 66.1631 57.9697 64.9769 58.0445 63.8972L56.0493 63.7591ZM56.6048 66.2313L52.8783 65.868L52.6842 67.8586L56.4108 68.2218L56.6048 66.2313ZM53.7577 67.0792C53.9436 66.2385 54.0824 65.4359 54.1728 64.6721L52.1866 64.4372C52.1051 65.1266 51.9783 65.863 51.8048 66.6473L53.7577 67.0792ZM54.1715 64.6827C54.268 63.9349 54.3297 63.2566 54.3546 62.6504L52.3563 62.5683C52.3343 63.1028 52.2789 63.7214 52.1879 64.4267L54.1715 64.6827ZM54.354 62.6641C54.3863 62.074 54.4061 61.3666 54.414 60.5448L52.4141 60.5255C52.4064 61.3287 52.3871 62.0042 52.357 62.5547L54.354 62.6641ZM54.4141 60.5352V60.3242H52.4141V60.5352H54.4141ZM54.4141 60.3242V58.543H52.4141V60.3242H54.4141ZM53.4141 59.543H57.1641V57.543H53.4141V59.543ZM56.1641 58.543V60.3242H58.1641V58.543H56.1641ZM57.1055 78.3203H53.332V80.3203H57.1055V78.3203ZM54.332 79.3203V74.2578H52.332V79.3203H54.332ZM53.332 73.2578H41.4844V75.2578H53.332V73.2578ZM42.4844 74.2578V71.3398H40.4844V74.2578H42.4844ZM41.4844 72.3398H57.1055V70.3398H41.4844V72.3398ZM56.1055 71.3398V79.3203H58.1055V71.3398H56.1055ZM77.5781 79.2734V80.2734H78.5781V79.2734H77.5781ZM73.8047 79.2734H72.8047V80.2734H73.8047V79.2734ZM73.8047 57.6406V56.6406H72.8047V57.6406H73.8047ZM77.5781 57.6406H78.5781V56.6406H77.5781V57.6406ZM80.3555 68.7148V69.7148H81.3555V68.7148H80.3555ZM76.5938 68.7148H75.5938V69.7148H76.5938V68.7148ZM76.5938 65.6445V64.6445H75.5938V65.6445H76.5938ZM80.3555 65.6445H81.3555V64.6445H80.3555V65.6445ZM71.6719 59.8086L72.6719 59.8119L72.6752 58.8086H71.6719V59.8086ZM70.7461 66.2422L69.7922 65.9422L69.7911 65.9457L70.7461 66.2422ZM67.6875 71.5742L68.4333 72.2404L68.4349 72.2386L67.6875 71.5742ZM61.9336 75.7578L61.13 76.353L61.6265 77.0233L62.375 76.6551L61.9336 75.7578ZM59.8242 72.9102L59.3696 72.0195L58.3177 72.5563L59.0207 73.5054L59.8242 72.9102ZM64.4414 69.7227L65.1391 70.4391L65.1391 70.439L64.4414 69.7227ZM67.1133 65.7148L66.1818 65.351L66.1802 65.3552L67.1133 65.7148ZM67.9922 59.8086V58.8086H66.9922V59.8086H67.9922ZM69.8789 62.8555V63.8555H70.8789V62.8555H69.8789ZM61.1602 62.8555H60.1602V63.8555H61.1602V62.8555ZM61.1602 59.8086V58.8086H60.1602V59.8086H61.1602ZM69.8789 59.8086H70.8789V58.8086H69.8789V59.8086ZM77.5781 78.2734H73.8047V80.2734H77.5781V78.2734ZM74.8047 79.2734V57.6406H72.8047V79.2734H74.8047ZM73.8047 58.6406H77.5781V56.6406H73.8047V58.6406ZM76.5781 57.6406V79.2734H78.5781V57.6406H76.5781ZM80.3555 67.7148H76.5938V69.7148H80.3555V67.7148ZM77.5938 68.7148V65.6445H75.5938V68.7148H77.5938ZM76.5938 66.6445H80.3555V64.6445H76.5938V66.6445ZM79.3555 65.6445V68.7148H81.3555V65.6445H79.3555ZM70.6719 59.8053C70.6644 62.0717 70.367 64.1144 69.7922 65.9422L71.7 66.5422C72.3439 64.4949 72.6638 62.2486 72.6719 59.8119L70.6719 59.8053ZM69.7911 65.9457C69.2345 67.7383 68.2894 69.3919 66.9401 70.9099L68.4349 72.2386C69.9606 70.5222 71.0546 68.6211 71.7011 66.5387L69.7911 65.9457ZM66.9417 70.9081C65.6076 72.4016 63.8019 73.7245 61.4922 74.8605L62.375 76.6551C64.8622 75.4318 66.8924 73.9656 68.4333 72.2404L66.9417 70.9081ZM62.7372 75.1626L60.6278 72.3149L59.0207 73.5054L61.13 76.353L62.7372 75.1626ZM60.2788 73.8009C62.2283 72.8059 63.8557 71.6889 65.1391 70.4391L63.7437 69.0062C62.6364 70.0846 61.1858 71.0925 59.3696 72.0195L60.2788 73.8009ZM65.1391 70.439C66.4408 69.1712 67.4141 67.715 68.0464 66.0745L66.1802 65.3552C65.6562 66.7147 64.8483 67.9304 63.7437 69.0063L65.1391 70.439ZM68.0447 66.0787C68.6848 64.4401 68.9922 62.5781 68.9922 60.5117H66.9922C66.9922 62.3828 66.7136 63.9896 66.1818 65.351L68.0447 66.0787ZM68.9922 60.5117V59.8086H66.9922V60.5117H68.9922ZM67.9922 60.8086H71.6719V58.8086H67.9922V60.8086ZM69.8789 61.8555H61.1602V63.8555H69.8789V61.8555ZM62.1602 62.8555V59.8086H60.1602V62.8555H62.1602ZM61.1602 60.8086H69.8789V58.8086H61.1602V60.8086ZM68.8789 59.8086V62.8555H70.8789V59.8086H68.8789ZM98.2148 65.1523V66.1523H99.2148V65.1523H98.2148ZM94.8984 65.1523H93.8984V66.1523H94.8984V65.1523ZM94.8984 62.1758V61.1758H93.8984V62.1758H94.8984ZM98.2148 62.1758H99.2148V61.1758H98.2148V62.1758ZM98.2148 71.9492V72.9492H99.2148V71.9492H98.2148ZM94.8984 71.9492H93.8984V72.9492H94.8984V71.9492ZM94.8984 68.9258V67.9258H93.8984V68.9258H94.8984ZM98.2148 68.9258H99.2148V67.9258H98.2148V68.9258ZM105.164 79.3203V80.3203H106.164V79.3203H105.164ZM101.578 79.3203H100.578V80.3203H101.578V79.3203ZM101.578 57.6406V56.6406H100.578V57.6406H101.578ZM105.164 57.6406H106.164V56.6406H105.164V57.6406ZM100.641 78.3945V79.3945H101.641V78.3945H100.641ZM97.1367 78.3945H96.1367V79.3945H97.1367V78.3945ZM97.1367 57.8867V56.8867H96.1367V57.8867H97.1367ZM100.641 57.8867H101.641V56.8867H100.641V57.8867ZM93.6914 59.9961L93.0295 60.7457L93.038 60.7531L93.6914 59.9961ZM95.3906 62.7734L94.4389 63.0804L94.4407 63.086L95.3906 62.7734ZM95.3906 71.375L94.4401 71.0643L94.4383 71.0698L95.3906 71.375ZM93.6914 74.1875L93.029 73.4383L93.0251 73.4418L93.6914 74.1875ZM88.6289 59.9961L89.2983 60.739L89.3028 60.7349L88.6289 59.9961ZM91.1367 62.5977L91.1123 63.5974L91.137 63.598L91.1617 63.5973L91.1367 62.5977ZM90.3633 63.043L91.1988 63.5926L91.2052 63.5826L90.3633 63.043ZM89.918 69.6523L88.9295 69.8035L88.9297 69.8053L89.918 69.6523ZM90.3633 71.0938L89.5213 71.6335L89.5279 71.6434L90.3633 71.0938ZM91.1367 71.5508L91.1123 72.5505L91.1367 72.5511L91.1611 72.5505L91.1367 71.5508ZM91.9336 71.082L92.7558 71.6513L92.7624 71.6415L91.9336 71.082ZM91.9219 63.043L91.0997 63.6122L91.1081 63.6243L91.1168 63.6362L91.9219 63.043ZM98.2148 64.1523H94.8984V66.1523H98.2148V64.1523ZM95.8984 65.1523V62.1758H93.8984V65.1523H95.8984ZM94.8984 63.1758H98.2148V61.1758H94.8984V63.1758ZM97.2148 62.1758V65.1523H99.2148V62.1758H97.2148ZM98.2148 70.9492H94.8984V72.9492H98.2148V70.9492ZM95.8984 71.9492V68.9258H93.8984V71.9492H95.8984ZM94.8984 69.9258H98.2148V67.9258H94.8984V69.9258ZM97.2148 68.9258V71.9492H99.2148V68.9258H97.2148ZM105.164 78.3203H101.578V80.3203H105.164V78.3203ZM102.578 79.3203V57.6406H100.578V79.3203H102.578ZM101.578 58.6406H105.164V56.6406H101.578V58.6406ZM104.164 57.6406V79.3203H106.164V57.6406H104.164ZM100.641 77.3945H97.1367V79.3945H100.641V77.3945ZM98.1367 78.3945V57.8867H96.1367V78.3945H98.1367ZM97.1367 58.8867H100.641V56.8867H97.1367V58.8867ZM99.6406 57.8867V78.3945H101.641V57.8867H99.6406ZM91.1367 60.0234C91.8587 60.0234 92.4756 60.2566 93.0295 60.7457L94.3533 59.2465C93.4385 58.4387 92.3523 58.0234 91.1367 58.0234V60.0234ZM93.038 60.7531C93.6058 61.2432 94.0882 61.9931 94.4389 63.0804L96.3423 62.4664C95.9118 61.1319 95.2614 60.0303 94.3448 59.2391L93.038 60.7531ZM94.4407 63.086C94.7979 64.1715 94.9883 65.4908 94.9883 67.0625H96.9883C96.9883 65.3373 96.7802 63.7973 96.3405 62.4609L94.4407 63.086ZM94.9883 67.0625C94.9883 68.6423 94.7978 69.9702 94.4401 71.0643L96.3411 71.6857C96.7803 70.3423 96.9883 68.7952 96.9883 67.0625H94.9883ZM94.4383 71.0698C94.0869 72.1662 93.6024 72.9313 93.029 73.4384L94.3538 74.9366C95.2647 74.1312 95.9131 73.0213 96.3429 71.6802L94.4383 71.0698ZM93.0251 73.4418C92.4706 73.9373 91.8552 74.1719 91.1367 74.1719V76.1719C92.3558 76.1719 93.4434 75.7502 94.3577 74.9332L93.0251 73.4418ZM91.1367 74.1719C90.4291 74.1719 89.8348 73.9397 89.3072 73.4527L87.9506 74.9223C88.8449 75.7478 89.9225 76.1719 91.1367 76.1719V74.1719ZM89.3072 73.4527C88.756 72.9439 88.2774 72.1717 87.9153 71.0643L86.0143 71.6857C86.4492 73.0158 87.08 74.1186 87.9506 74.9223L89.3072 73.4527ZM87.9153 71.0643C87.5577 69.9702 87.3672 68.6423 87.3672 67.0625H85.3672C85.3672 68.7952 85.5751 70.3423 86.0143 71.6857L87.9153 71.0643ZM87.3672 67.0625C87.3672 65.4908 87.5576 64.1715 87.9147 63.086L86.0149 62.4609C85.5752 63.7973 85.3672 65.3373 85.3672 67.0625H87.3672ZM87.9147 63.086C88.2762 61.9874 88.7528 61.2306 89.2983 60.739L87.9595 59.2532C87.0832 60.0428 86.4503 61.1376 86.0149 62.4609L87.9147 63.086ZM89.3028 60.7349C89.8298 60.2543 90.4255 60.0234 91.1367 60.0234V58.0234C89.9261 58.0234 88.8499 58.4411 87.955 59.2573L89.3028 60.7349ZM91.1611 61.598C90.4408 61.5804 89.8762 61.9499 89.5214 62.5033L91.2052 63.5826C91.2349 63.5363 91.239 63.5485 91.2021 63.5697C91.1844 63.5799 91.1644 63.5879 91.1446 63.5928C91.1252 63.5975 91.1133 63.5974 91.1123 63.5974L91.1611 61.598ZM89.5279 62.4934C89.2108 62.9752 89.0368 63.6314 88.9295 64.3332L90.9065 64.6356C91.0023 64.0093 91.1251 63.7044 91.1987 63.5926L89.5279 62.4934ZM88.9295 64.3332C88.8172 65.0671 88.7656 65.9822 88.7656 67.0625H90.7656C90.7656 66.0334 90.8156 65.2298 90.9065 64.6356L88.9295 64.3332ZM88.7656 67.0625C88.7656 68.1501 88.8172 69.0693 88.9295 69.8035L90.9065 69.5012C90.8156 68.9072 90.7656 68.0999 90.7656 67.0625H88.7656ZM88.9297 69.8053C89.0378 70.5033 89.2119 71.1506 89.5214 71.6334L91.2052 70.5541C91.124 70.4275 91.0013 70.1139 90.9062 69.4994L88.9297 69.8053ZM89.5279 71.6434C89.8804 72.1792 90.4246 72.5337 91.1123 72.5505L91.1611 70.5511C91.1575 70.551 91.1632 70.5508 91.1752 70.5541C91.1875 70.5575 91.2005 70.563 91.2119 70.5697C91.223 70.5763 91.2273 70.581 91.2255 70.5791C91.2233 70.577 91.2137 70.5669 91.1987 70.5441L89.5279 71.6434ZM91.1611 72.5505C91.854 72.5336 92.3955 72.1716 92.7558 71.6512L91.1114 70.5128C91.0917 70.5413 91.0772 70.5569 91.0699 70.5639C91.0629 70.5707 91.0625 70.5697 91.0692 70.5658C91.0762 70.5616 91.0861 70.5572 91.0971 70.5541C91.1079 70.5511 91.1139 70.551 91.1123 70.5511L91.1611 72.5505ZM92.7624 71.6415C93.0899 71.1563 93.2845 70.5088 93.4102 69.8047L91.4414 69.4531C91.3327 70.0616 91.1991 70.3827 91.1047 70.5226L92.7624 71.6415ZM93.4102 69.8047C93.5419 69.0671 93.6016 68.1464 93.6016 67.0625H91.6016C91.6016 68.088 91.544 68.8782 91.4414 69.4531L93.4102 69.8047ZM93.6016 67.0625C93.6016 65.9782 93.5419 65.0546 93.4106 64.3106L91.441 64.6582C91.5441 65.2423 91.6016 66.0375 91.6016 67.0625H93.6016ZM93.4106 64.3106C93.2853 63.6006 93.0846 62.9352 92.7269 62.4498L91.1168 63.6362C91.1966 63.7445 91.3319 64.04 91.441 64.6582L93.4106 64.3106ZM92.7441 62.4738C92.3825 61.9515 91.8275 61.5801 91.1117 61.598L91.1617 63.5973C91.1564 63.5975 91.1427 63.597 91.1237 63.5924C91.1045 63.5877 91.0872 63.5805 91.074 63.573C91.0473 63.5578 91.0604 63.5554 91.0997 63.6122L92.7441 62.4738ZM112.078 68.7148L112.797 69.4101L112.8 69.4071L112.078 68.7148ZM108.551 70.8242L107.734 71.4018L108.156 71.9982L108.853 71.7775L108.551 70.8242ZM106.453 67.8594L106.178 66.8979L104.822 67.2854L105.637 68.4369L106.453 67.8594ZM111.621 59V58H110.621V59H111.621ZM114.75 59H115.75V58H114.75V59ZM115.887 63.793L114.948 64.1383L114.951 64.146L115.887 63.793ZM117.434 66.0312L116.755 66.7658L116.759 66.7697L117.434 66.0312ZM120.281 67.5664L121.107 68.1303L121.87 67.0135L120.578 66.6116L120.281 67.5664ZM118.289 70.4844L117.987 71.4378L118.696 71.662L119.115 71.0482L118.289 70.4844ZM114.902 68.457L114.177 69.1453L114.18 69.1485L114.902 68.457ZM112.992 65.2344L112.04 65.5398L112.042 65.547L112.992 65.2344ZM112.406 61.1328L113.406 61.138V61.1328H112.406ZM112.406 59V58H111.406V59H112.406ZM115.43 59H116.43V58H115.43V59ZM124.336 73.4609V74.4609H125.336V73.4609H124.336ZM120.562 73.4609H119.562V74.4609H120.562V73.4609ZM120.562 57.6875V56.6875H119.562V57.6875H120.562ZM124.336 57.6875H125.336V56.6875H124.336V57.6875ZM127.043 66.8516V67.8516H128.043V66.8516H127.043ZM123.293 66.8516H122.293V67.8516H123.293V66.8516ZM123.293 63.7109V62.7109H122.293V63.7109H123.293ZM127.043 63.7109H128.043V62.7109H127.043V63.7109ZM125.016 79.0273V80.0273H126.016V79.0273H125.016ZM109.945 79.0273H108.945V80.0273H109.945V79.0273ZM109.945 76.0273V75.0273H108.945V76.0273H109.945ZM125.016 76.0273H126.016V75.0273H125.016V76.0273ZM113.766 77.6562V78.6562H114.766V77.6562H113.766ZM109.945 77.6562H108.945V78.6562H109.945V77.6562ZM109.945 71.8789V70.8789H108.945V71.8789H109.945ZM113.766 71.8789H114.766V70.8789H113.766V71.8789ZM113.75 61.1562C113.75 62.5768 113.549 63.8665 113.157 65.0336L115.054 65.6695C115.522 64.2742 115.75 62.767 115.75 61.1562H113.75ZM113.157 65.0336C112.774 66.177 112.175 67.1698 111.357 68.0226L112.8 69.4071C113.825 68.338 114.578 67.0886 115.054 65.6695L113.157 65.0336ZM111.359 68.0196C110.567 68.8386 109.541 69.4613 108.249 69.871L108.853 71.7775C110.42 71.2809 111.745 70.4973 112.797 69.4101L111.359 68.0196ZM109.367 70.2466L107.269 67.2818L105.637 68.4369L107.734 71.4018L109.367 70.2466ZM106.728 68.8209C108.098 68.4296 109.259 67.8341 110.165 67.0022L108.812 65.5291C108.187 66.1034 107.324 66.5704 106.178 66.8979L106.728 68.8209ZM110.165 67.0022C111.031 66.2064 111.674 65.2941 112.064 64.264L110.194 63.5563C109.927 64.2606 109.477 64.9186 108.812 65.5291L110.165 67.0022ZM112.064 64.264C112.437 63.2788 112.621 62.2404 112.621 61.1562H110.621C110.621 62.0096 110.477 62.8072 110.194 63.5563L112.064 64.264ZM112.621 61.1562V59H110.621V61.1562H112.621ZM111.621 60H114.75V58H111.621V60ZM113.75 59V61.1562H115.75V59H113.75ZM114.43 61.1328C114.43 62.1875 114.6 63.1919 114.948 64.1383L116.825 63.4477C116.564 62.7378 116.43 61.9687 116.43 61.1328H114.43ZM114.951 64.146C115.324 65.1343 115.934 66.0075 116.755 66.7657L118.112 65.2968C117.495 64.7269 117.074 64.1078 116.822 63.4399L114.951 64.146ZM116.759 66.7697C117.611 67.5478 118.701 68.1218 119.984 68.5212L120.578 66.6116C119.502 66.2766 118.693 65.8272 118.108 65.2928L116.759 66.7697ZM119.455 67.0026L117.463 69.9205L119.115 71.0482L121.107 68.1303L119.455 67.0026ZM118.591 69.531C117.344 69.1366 116.368 68.5416 115.625 67.7655L114.18 69.1485C115.187 70.2006 116.468 70.9572 117.987 71.4378L118.591 69.531ZM115.628 67.7688C114.865 66.9652 114.304 66.0204 113.942 64.9218L112.042 65.547C112.493 66.9171 113.205 68.1207 114.177 69.1453L115.628 67.7688ZM113.944 64.9289C113.582 63.8004 113.399 62.5397 113.406 61.138L111.406 61.1276C111.398 62.7103 111.605 64.184 112.04 65.5398L113.944 64.9289ZM113.406 61.1328V59H111.406V61.1328H113.406ZM112.406 60H115.43V58H112.406V60ZM114.43 59V61.1328H116.43V59H114.43ZM124.336 72.4609H120.562V74.4609H124.336V72.4609ZM121.562 73.4609V57.6875H119.562V73.4609H121.562ZM120.562 58.6875H124.336V56.6875H120.562V58.6875ZM123.336 57.6875V73.4609H125.336V57.6875H123.336ZM127.043 65.8516H123.293V67.8516H127.043V65.8516ZM124.293 66.8516V63.7109H122.293V66.8516H124.293ZM123.293 64.7109H127.043V62.7109H123.293V64.7109ZM126.043 63.7109V66.8516H128.043V63.7109H126.043ZM125.016 78.0273H109.945V80.0273H125.016V78.0273ZM110.945 79.0273V76.0273H108.945V79.0273H110.945ZM109.945 77.0273H125.016V75.0273H109.945V77.0273ZM124.016 76.0273V79.0273H126.016V76.0273H124.016ZM113.766 76.6562H109.945V78.6562H113.766V76.6562ZM110.945 77.6562V71.8789H108.945V77.6562H110.945ZM109.945 72.8789H113.766V70.8789H109.945V72.8789ZM112.766 71.8789V77.6562H114.766V71.8789H112.766ZM144.223 58.8477H145.223V57.8477H144.223V58.8477ZM134.426 70.3555L133.526 70.7926L133.889 71.5391L134.69 71.32L134.426 70.3555ZM132.996 67.4141L132.749 66.445L131.56 66.7479L132.097 67.8512L132.996 67.4141ZM137.074 65.7734L137.602 66.6228L137.606 66.6201L137.074 65.7734ZM139.5 63.4531L138.647 62.9307L138.646 62.9329L139.5 63.4531ZM140.309 60.6641L141.309 60.6719V60.6641H140.309ZM140.309 58.8477V57.8477H139.309V58.8477H140.309ZM142.922 61.7891V62.7891H143.922V61.7891H142.922ZM134.203 61.7891H133.203V62.7891H134.203V61.7891ZM134.203 58.8477V57.8477H133.203V58.8477H134.203ZM142.922 58.8477H143.922V57.8477H142.922V58.8477ZM151.406 69.6406V70.6406H152.406V69.6406H151.406ZM147.668 69.6406H146.668V70.6406H147.668V69.6406ZM147.668 57.6875V56.6875H146.668V57.6875H147.668ZM151.406 57.6875H152.406V56.6875H151.406V57.6875ZM148.113 65.5977V66.5977H149.113V65.5977H148.113ZM144.422 65.5977H143.422V66.5977H144.422V65.5977ZM144.422 62.5508V61.5508H143.422V62.5508H144.422ZM148.113 62.5508H149.113V61.5508H148.113V62.5508ZM151.406 79.1094V80.1094H152.406V79.1094H151.406ZM136.863 79.1094H135.863V80.1094H136.863V79.1094ZM136.863 70.4844V69.4844H135.863V70.4844H136.863ZM151.406 70.4844H152.406V69.4844H151.406V70.4844ZM140.543 76.1914H139.543V77.1914H140.543V76.1914ZM147.68 76.1914V77.1914H148.68V76.1914H147.68ZM147.68 73.4023H148.68V72.4023H147.68V73.4023ZM140.543 73.4023V72.4023H139.543V73.4023H140.543ZM143.223 58.8477C143.223 60.6484 142.881 62.2184 142.221 63.5796L144.021 64.4517C144.83 62.7816 145.223 60.9063 145.223 58.8477H143.223ZM142.221 63.5796C141.564 64.9366 140.578 66.1011 139.24 67.0741L140.416 68.6915C142 67.5396 143.21 66.1259 144.021 64.4517L142.221 63.5796ZM139.24 67.0741C137.896 68.0513 136.212 68.8299 134.162 69.3909L134.69 71.32C136.921 70.7092 138.838 69.8393 140.416 68.6915L139.24 67.0741ZM135.325 69.9183L133.895 66.9769L132.097 67.8512L133.526 70.7926L135.325 69.9183ZM133.243 68.3831C134.939 67.951 136.4 67.37 137.602 66.6228L136.546 64.9241C135.561 65.5362 134.303 66.049 132.749 66.445L133.243 68.3831ZM137.606 66.6201C138.795 65.8728 139.73 64.9971 140.354 63.9733L138.646 62.9329C138.223 63.6279 137.541 64.2991 136.542 64.9268L137.606 66.6201ZM140.353 63.9755C140.976 62.9574 141.299 61.8505 141.309 60.6719L139.309 60.6562C139.302 61.462 139.086 62.2144 138.647 62.9307L140.353 63.9755ZM141.309 60.6641V58.8477H139.309V60.6641H141.309ZM140.309 59.8477H144.223V57.8477H140.309V59.8477ZM142.922 60.7891H134.203V62.7891H142.922V60.7891ZM135.203 61.7891V58.8477H133.203V61.7891H135.203ZM134.203 59.8477H142.922V57.8477H134.203V59.8477ZM141.922 58.8477V61.7891H143.922V58.8477H141.922ZM151.406 68.6406H147.668V70.6406H151.406V68.6406ZM148.668 69.6406V57.6875H146.668V69.6406H148.668ZM147.668 58.6875H151.406V56.6875H147.668V58.6875ZM150.406 57.6875V69.6406H152.406V57.6875H150.406ZM148.113 64.5977H144.422V66.5977H148.113V64.5977ZM145.422 65.5977V62.5508H143.422V65.5977H145.422ZM144.422 63.5508H148.113V61.5508H144.422V63.5508ZM147.113 62.5508V65.5977H149.113V62.5508H147.113ZM151.406 78.1094H136.863V80.1094H151.406V78.1094ZM137.863 79.1094V70.4844H135.863V79.1094H137.863ZM136.863 71.4844H151.406V69.4844H136.863V71.4844ZM150.406 70.4844V79.1094H152.406V70.4844H150.406ZM140.543 77.1914H147.68V75.1914H140.543V77.1914ZM148.68 76.1914V73.4023H146.68V76.1914H148.68ZM147.68 72.4023H140.543V74.4023H147.68V72.4023ZM139.543 73.4023V76.1914H141.543V73.4023H139.543ZM171.434 71.0117V72.0117H172.434V71.0117H171.434ZM155.895 71.0117H154.895V72.0117H155.895V71.0117ZM155.895 68.0703V67.0703H154.895V68.0703H155.895ZM171.434 68.0703H172.434V67.0703H171.434V68.0703ZM173.508 77.0938V78.0938H174.508V77.0938H173.508ZM153.727 77.0938H152.727V78.0938H153.727V77.0938ZM153.727 74.1289V73.1289H152.727V74.1289H153.727ZM173.508 74.1289H174.508V73.1289H173.508V74.1289ZM165.504 75.3828V76.3828H166.504V75.3828H165.504ZM161.73 75.3828H160.73V76.3828H161.73V75.3828ZM161.73 69.5117V68.5117H160.73V69.5117H161.73ZM165.504 69.5117H166.504V68.5117H165.504V69.5117ZM171.316 61.9648V62.9648H172.316V61.9648H171.316ZM159.715 61.9648V60.9648H158.715V61.9648H159.715ZM159.715 69.2305V70.2305H160.715V69.2305H159.715ZM155.895 69.2305H154.895V70.2305H155.895V69.2305ZM155.895 58.9766V57.9766H154.895V58.9766H155.895ZM171.316 58.9766H172.316V57.9766H171.316V58.9766ZM170.777 66.4531V67.4531H171.777V66.4531H170.777ZM158.625 66.4531H157.625V67.4531H158.625V66.4531ZM158.625 63.5469V62.5469H157.625V63.5469H158.625ZM170.777 63.5469H171.777V62.5469H170.777V63.5469ZM171.434 70.0117H155.895V72.0117H171.434V70.0117ZM156.895 71.0117V68.0703H154.895V71.0117H156.895ZM155.895 69.0703H171.434V67.0703H155.895V69.0703ZM170.434 68.0703V71.0117H172.434V68.0703H170.434ZM173.508 76.0938H153.727V78.0938H173.508V76.0938ZM154.727 77.0938V74.1289H152.727V77.0938H154.727ZM153.727 75.1289H173.508V73.1289H153.727V75.1289ZM172.508 74.1289V77.0938H174.508V74.1289H172.508ZM165.504 74.3828H161.73V76.3828H165.504V74.3828ZM162.73 75.3828V69.5117H160.73V75.3828H162.73ZM161.73 70.5117H165.504V68.5117H161.73V70.5117ZM164.504 69.5117V75.3828H166.504V69.5117H164.504ZM171.316 60.9648H159.715V62.9648H171.316V60.9648ZM158.715 61.9648V69.2305H160.715V61.9648H158.715ZM159.715 68.2305H155.895V70.2305H159.715V68.2305ZM156.895 69.2305V58.9766H154.895V69.2305H156.895ZM155.895 59.9766H171.316V57.9766H155.895V59.9766ZM170.316 58.9766V61.9648H172.316V58.9766H170.316ZM170.777 65.4531H158.625V67.4531H170.777V65.4531ZM159.625 66.4531V63.5469H157.625V66.4531H159.625ZM158.625 64.5469H170.777V62.5469H158.625V64.5469ZM169.777 63.5469V66.4531H171.777V63.5469H169.777Z" fill="black" mask="url(#path-2-outside-1_839_53)"/>
<path d="M35.1523 139.707H31.6758V138.438H35.1523V139.707ZM35.1523 145H31.6758V143.711H35.1523V145ZM39.5859 151.582H38.1016V134.219H39.5859V151.582ZM36.1289 150.703H34.6641V134.59H36.1289V150.703ZM28.6484 135.684C29.3971 135.684 30.0514 135.931 30.6113 136.426C31.1777 136.921 31.6172 137.624 31.9297 138.535C32.2422 139.44 32.3984 140.501 32.3984 141.719C32.3984 142.936 32.2422 144.001 31.9297 144.912C31.6172 145.817 31.1777 146.517 30.6113 147.012C30.0514 147.507 29.3971 147.754 28.6484 147.754C27.8997 147.754 27.2454 147.507 26.6855 147.012C26.1322 146.517 25.6992 145.817 25.3867 144.912C25.0742 144.001 24.918 142.936 24.918 141.719C24.918 140.501 25.0742 139.44 25.3867 138.535C25.6992 137.624 26.1322 136.921 26.6855 136.426C27.2454 135.931 27.8997 135.684 28.6484 135.684ZM28.6484 137.129C28.1797 137.129 27.7728 137.314 27.4277 137.686C27.0827 138.057 26.8158 138.59 26.627 139.287C26.4382 139.977 26.3438 140.788 26.3438 141.719C26.3438 142.65 26.4382 143.46 26.627 144.15C26.8158 144.834 27.0827 145.365 27.4277 145.742C27.7728 146.113 28.1797 146.296 28.6484 146.289C29.1172 146.296 29.5273 146.113 29.8789 145.742C30.2305 145.365 30.5007 144.834 30.6895 144.15C30.8783 143.46 30.9727 142.65 30.9727 141.719C30.9727 140.788 30.8783 139.977 30.6895 139.287C30.5007 138.59 30.2305 138.057 29.8789 137.686C29.5273 137.314 29.1172 137.129 28.6484 137.129ZM47.5938 137.441C47.5938 138.555 47.3952 139.59 46.998 140.547C46.6009 141.497 46.0378 142.327 45.3086 143.037C44.5794 143.74 43.7331 144.277 42.7695 144.648L41.9297 143.418C42.8021 143.112 43.5703 142.66 44.2344 142.061C44.8984 141.455 45.4128 140.758 45.7773 139.971C46.1419 139.176 46.3242 138.333 46.3242 137.441V135.293H47.5938V137.441ZM47.8281 137.5C47.8281 138.288 48.0137 139.046 48.3848 139.775C48.7559 140.498 49.2702 141.143 49.9277 141.709C50.5853 142.269 51.3372 142.695 52.1836 142.988L51.4023 144.219C50.4518 143.874 49.6152 143.366 48.8926 142.695C48.1699 142.018 47.6068 141.234 47.2031 140.342C46.7995 139.45 46.5977 138.503 46.5977 137.5V135.293H47.8281V137.5ZM55.5625 147.051H54.0391V134.219H55.5625V147.051ZM58.1797 140.859H55.0742V139.551H58.1797V140.859ZM56.3633 151.211H44.7227V149.922H56.3633V151.211ZM46.2852 150.547H44.7227V145.82H46.2852V150.547ZM72.8477 147.031H71.3242V134.219H72.8477V147.031ZM75.4648 140.801H72.3594V139.512H75.4648V140.801ZM73.6484 151.211H61.9883V149.922H73.6484V151.211ZM63.4922 150.43H61.9883V145.703H63.4922V150.43ZM64.1562 135.449C65.0156 135.449 65.7936 135.632 66.4902 135.996C67.1868 136.361 67.7305 136.868 68.1211 137.52C68.5182 138.164 68.7201 138.9 68.7266 139.727C68.7201 140.553 68.5182 141.292 68.1211 141.943C67.7305 142.588 67.1868 143.092 66.4902 143.457C65.7936 143.822 65.0156 144.004 64.1562 144.004C63.3034 144.004 62.5286 143.822 61.832 143.457C61.1419 143.092 60.5983 142.585 60.2012 141.934C59.804 141.283 59.6055 140.547 59.6055 139.727C59.6055 138.9 59.804 138.164 60.2012 137.52C60.5983 136.868 61.1419 136.361 61.832 135.996C62.5221 135.632 63.2969 135.449 64.1562 135.449ZM64.1562 136.797C63.5898 136.797 63.0723 136.921 62.6035 137.168C62.1413 137.415 61.7767 137.764 61.5098 138.213C61.2428 138.662 61.1094 139.167 61.1094 139.727C61.1094 140.286 61.2428 140.788 61.5098 141.23C61.7767 141.673 62.1413 142.021 62.6035 142.275C63.0723 142.529 63.5898 142.656 64.1562 142.656C64.7357 142.656 65.2565 142.529 65.7188 142.275C66.1875 142.021 66.5553 141.673 66.8223 141.23C67.0892 140.788 67.2227 140.286 67.2227 139.727C67.2227 139.16 67.0892 138.656 66.8223 138.213C66.5553 137.764 66.1875 137.415 65.7188 137.168C65.2565 136.921 64.7357 136.797 64.1562 136.797ZM87.0078 142.266H83.668V140.996H87.0078V142.266ZM91.4414 151.582H89.957V134.219H91.4414V151.582ZM87.9453 150.703H86.4805V134.59H87.9453V150.703ZM80.5039 135.684C81.2526 135.684 81.9069 135.931 82.4668 136.426C83.0332 136.921 83.4727 137.624 83.7852 138.535C84.0977 139.44 84.2539 140.501 84.2539 141.719C84.2539 142.936 84.0977 144.001 83.7852 144.912C83.4727 145.817 83.0332 146.517 82.4668 147.012C81.9069 147.507 81.2526 147.754 80.5039 147.754C79.7552 147.754 79.1009 147.507 78.541 147.012C77.9876 146.517 77.5547 145.817 77.2422 144.912C76.9297 144.001 76.7734 142.936 76.7734 141.719C76.7734 140.501 76.9297 139.44 77.2422 138.535C77.5547 137.624 77.9876 136.921 78.541 136.426C79.1009 135.931 79.7552 135.684 80.5039 135.684ZM80.5039 137.129C80.0352 137.129 79.6283 137.314 79.2832 137.686C78.9382 138.057 78.6712 138.59 78.4824 139.287C78.3001 139.977 78.2122 140.788 78.2188 141.719C78.2122 142.65 78.3001 143.46 78.4824 144.15C78.6712 144.834 78.9382 145.365 79.2832 145.742C79.6348 146.113 80.0417 146.296 80.5039 146.289C80.9727 146.296 81.3828 146.113 81.7344 145.742C82.0859 145.365 82.3529 144.834 82.5352 144.15C82.7174 143.46 82.8086 142.65 82.8086 141.719C82.8086 140.788 82.7174 139.977 82.5352 139.287C82.3529 138.59 82.0859 138.057 81.7344 137.686C81.3828 137.314 80.9727 137.129 80.5039 137.129ZM113.707 151.582H112.242V134.219H113.707V151.582ZM112.633 142.48H109.234V141.211H112.633V142.48ZM109.684 150.684H108.277V134.609H109.684V150.684ZM100.621 145.977C102.034 145.977 103.209 145.944 104.146 145.879C105.09 145.814 106.044 145.684 107.008 145.488L107.145 146.777C106.168 146.979 105.204 147.113 104.254 147.178C103.303 147.243 102.092 147.279 100.621 147.285H99.5078V145.977H100.621ZM106.012 137.617H101.031V146.582H99.5078V136.348H106.012V137.617ZM129.723 147.246H128.199V134.238H129.723V147.246ZM132.34 141.25H129.234V139.961H132.34V141.25ZM126.539 137.617H116.188V136.367H126.539V137.617ZM121.363 138.574C122.184 138.574 122.91 138.708 123.541 138.975C124.173 139.242 124.661 139.619 125.006 140.107C125.357 140.596 125.536 141.165 125.543 141.816C125.536 142.461 125.357 143.027 125.006 143.516C124.661 143.997 124.173 144.368 123.541 144.629C122.91 144.889 122.184 145.02 121.363 145.02C120.53 145.02 119.798 144.889 119.166 144.629C118.535 144.368 118.046 143.997 117.701 143.516C117.356 143.027 117.184 142.461 117.184 141.816C117.184 141.165 117.356 140.596 117.701 140.107C118.046 139.619 118.535 139.242 119.166 138.975C119.798 138.708 120.53 138.574 121.363 138.574ZM121.363 139.785C120.823 139.785 120.344 139.867 119.928 140.029C119.518 140.192 119.202 140.43 118.98 140.742C118.759 141.048 118.648 141.406 118.648 141.816C118.648 142.22 118.759 142.572 118.98 142.871C119.202 143.171 119.518 143.405 119.928 143.574C120.344 143.737 120.823 143.815 121.363 143.809C121.897 143.815 122.372 143.737 122.789 143.574C123.206 143.405 123.525 143.171 123.746 142.871C123.974 142.572 124.091 142.22 124.098 141.816C124.091 141.406 123.974 141.048 123.746 140.742C123.525 140.43 123.206 140.192 122.789 140.029C122.372 139.867 121.897 139.785 121.363 139.785ZM122.125 137.012H120.602V134.238H122.125V137.012ZM130.523 151.211H118.863V149.922H130.523V151.211ZM120.367 150.449H118.863V146.211H120.367V150.449ZM38.7656 168.512H26.7539V167.262H38.7656V168.512ZM40.6016 173.414H24.7031V172.145H40.6016V173.414ZM33.375 172.73H31.8516V167.906H33.375V172.73ZM38.5703 160.914H28.3164V167.75H26.7539V159.645H38.5703V160.914ZM38.1992 164.645H27.8281V163.395H38.1992V164.645ZM57.8672 169.41H41.9688V168.141H57.8672V169.41ZM56.1875 175.406H44.0781V174.137H56.1875V175.406ZM45.6211 174.508H44.0781V170.582H45.6211V174.508ZM50.6602 168.707H49.1562V165.641H50.6602V168.707ZM55.8164 163.082H45.5625V165.445H44.0391V161.949H54.2734V160.016H43.9805V158.785H55.8164V163.082ZM56.1875 166.227H44.0391V165.016H56.1875V166.227ZM68.0039 161.402H60.0742V160.152H68.0039V161.402ZM64.3516 170.992H62.8477V165.113H64.3516V170.992ZM68.9023 161.188C68.8958 162.242 68.86 163.29 68.7949 164.332C68.7363 165.374 68.6029 166.578 68.3945 167.945L66.8516 167.809C67.0729 166.461 67.2129 165.279 67.2715 164.264C67.3301 163.242 67.3594 162.203 67.3594 161.148V161.051V160.152H68.9023V161.051V161.188ZM72.6719 175.582H71.1484V158.219H72.6719V175.582ZM75.4844 166.812H72.2617V165.484H75.4844V166.812ZM59.0977 170.484C61.207 170.471 63.1634 170.432 64.9668 170.367C66.7702 170.296 68.4661 170.165 70.0547 169.977L70.1328 171.129C68.4857 171.383 66.7441 171.555 64.9082 171.646C63.0723 171.731 61.2005 171.767 59.293 171.754L59.0977 170.484ZM90.543 159.352C90.543 160.784 90.2174 162.083 89.5664 163.248C88.9154 164.413 87.9811 165.419 86.7637 166.266C85.5462 167.112 84.0977 167.776 82.418 168.258L81.7734 167.047C83.2513 166.63 84.5273 166.077 85.6016 165.387C86.6823 164.697 87.5091 163.896 88.082 162.984C88.6549 162.073 88.9414 161.083 88.9414 160.016V159.352H90.543ZM89.957 160.621H82.6719V159.352H89.957V160.621ZM95.9727 168.141H94.4297V158.238H95.9727V168.141ZM94.7227 164H90.582V162.711H94.7227V164ZM95.9727 175.348H84.7031V168.883H95.9727V175.348ZM86.1875 174.098H94.4492V170.113H86.1875V174.098ZM112.926 168.512H100.914V167.262H112.926V168.512ZM114.762 173.414H98.8633V172.145H114.762V173.414ZM107.535 172.73H106.012V167.906H107.535V172.73ZM112.73 160.914H102.477V167.75H100.914V159.645H112.73V160.914ZM112.359 164.645H101.988V163.395H112.359V164.645ZM132.027 167.496H116.129V166.285H132.027V167.496ZM130.035 172.574H119.605V174.645H118.062V171.52H128.512V170.035H118.043V168.883H130.035V172.574ZM130.602 175.348H118.062V174.234H130.602V175.348ZM129.977 162.34H119.723V164.254H118.199V161.285H128.434V159.859H118.141V158.746H129.977V162.34ZM130.289 164.977H118.199V163.863H130.289V164.977ZM154.273 168.688H138.434V167.438H154.273V168.688ZM147.105 167.965H145.582V165.152H147.105V167.965ZM152.398 165.719H140.543V164.488H152.398V165.719ZM152.301 159.977H142.086V165.133H140.543V158.727H152.301V159.977ZM151.832 162.77H141.617V161.598H151.832V162.77ZM146.363 169.996C147.626 169.99 148.704 170.094 149.596 170.309C150.488 170.517 151.165 170.829 151.627 171.246C152.096 171.663 152.333 172.171 152.34 172.77C152.333 173.375 152.096 173.883 151.627 174.293C151.165 174.71 150.488 175.022 149.596 175.23C148.71 175.439 147.633 175.543 146.363 175.543C145.081 175.543 143.99 175.439 143.092 175.23C142.2 175.022 141.523 174.71 141.061 174.293C140.598 173.883 140.367 173.375 140.367 172.77C140.367 172.171 140.598 171.663 141.061 171.246C141.523 170.829 142.203 170.517 143.102 170.309C144 170.094 145.087 169.99 146.363 169.996ZM146.363 171.148C145.406 171.148 144.592 171.21 143.922 171.334C143.258 171.458 142.753 171.643 142.408 171.891C142.07 172.132 141.904 172.424 141.91 172.77C141.904 173.121 142.07 173.414 142.408 173.648C142.753 173.883 143.258 174.059 143.922 174.176C144.592 174.299 145.406 174.358 146.363 174.352C147.307 174.358 148.108 174.299 148.766 174.176C149.43 174.059 149.934 173.883 150.279 173.648C150.624 173.414 150.797 173.121 150.797 172.77C150.797 172.424 150.624 172.132 150.279 171.891C149.934 171.643 149.43 171.458 148.766 171.334C148.108 171.21 147.307 171.148 146.363 171.148ZM164.41 162.477H155.699V161.227H164.41V162.477ZM160.055 163.648C160.777 163.648 161.422 163.818 161.988 164.156C162.561 164.495 163.007 164.964 163.326 165.562C163.652 166.155 163.818 166.832 163.824 167.594C163.818 168.362 163.652 169.046 163.326 169.645C163.007 170.243 162.561 170.715 161.988 171.061C161.422 171.406 160.777 171.578 160.055 171.578C159.345 171.578 158.704 171.406 158.131 171.061C157.564 170.715 157.122 170.243 156.803 169.645C156.484 169.046 156.324 168.362 156.324 167.594C156.324 166.839 156.487 166.161 156.812 165.562C157.138 164.964 157.581 164.495 158.141 164.156C158.707 163.818 159.345 163.648 160.055 163.648ZM160.055 164.938C159.599 164.944 159.192 165.064 158.834 165.299C158.476 165.527 158.196 165.842 157.994 166.246C157.792 166.643 157.691 167.092 157.691 167.594C157.691 168.102 157.792 168.554 157.994 168.951C158.196 169.348 158.476 169.661 158.834 169.889C159.192 170.117 159.599 170.23 160.055 170.23C160.51 170.23 160.921 170.117 161.285 169.889C161.65 169.661 161.936 169.348 162.145 168.951C162.353 168.554 162.457 168.102 162.457 167.594C162.457 167.092 162.353 166.643 162.145 166.246C161.936 165.842 161.65 165.527 161.285 165.299C160.921 165.064 160.51 164.944 160.055 164.938ZM170.523 175.582H169.059V158.219H170.523V175.582ZM169.547 166.812H166.227V165.543H169.547V166.812ZM166.754 174.723H165.309V158.648H166.754V174.723ZM160.836 161.988H159.312V158.746H160.836V161.988ZM141.578 258.477H132.867V257.227H141.578V258.477ZM137.223 259.648C137.945 259.648 138.59 259.818 139.156 260.156C139.729 260.495 140.175 260.964 140.494 261.562C140.82 262.155 140.986 262.832 140.992 263.594C140.986 264.362 140.82 265.046 140.494 265.645C140.175 266.243 139.729 266.715 139.156 267.061C138.59 267.406 137.945 267.578 137.223 267.578C136.513 267.578 135.872 267.406 135.299 267.061C134.732 266.715 134.29 266.243 133.971 265.645C133.652 265.046 133.492 264.362 133.492 263.594C133.492 262.839 133.655 262.161 133.98 261.562C134.306 260.964 134.749 260.495 135.309 260.156C135.875 259.818 136.513 259.648 137.223 259.648ZM137.223 260.938C136.767 260.944 136.36 261.064 136.002 261.299C135.644 261.527 135.364 261.842 135.162 262.246C134.96 262.643 134.859 263.092 134.859 263.594C134.859 264.102 134.96 264.554 135.162 264.951C135.364 265.348 135.644 265.661 136.002 265.889C136.36 266.117 136.767 266.23 137.223 266.23C137.678 266.23 138.089 266.117 138.453 265.889C138.818 265.661 139.104 265.348 139.312 264.951C139.521 264.554 139.625 264.102 139.625 263.594C139.625 263.092 139.521 262.643 139.312 262.246C139.104 261.842 138.818 261.527 138.453 261.299C138.089 261.064 137.678 260.944 137.223 260.938ZM147.691 271.582H146.227V254.219H147.691V271.582ZM146.715 262.812H143.395V261.543H146.715V262.812ZM143.922 270.723H142.477V254.648H143.922V270.723ZM138.004 257.988H136.48V254.746H138.004V257.988ZM155.641 268.379H154.137V263.184H155.641V268.379ZM162.145 268.379H160.602V263.184H162.145V268.379ZM166.09 269.355H150.191V268.066H166.09V269.355ZM158.102 255.312C159.332 255.319 160.426 255.508 161.383 255.879C162.346 256.243 163.098 256.768 163.639 257.451C164.179 258.128 164.449 258.906 164.449 259.785C164.449 260.671 164.179 261.449 163.639 262.119C163.098 262.79 162.346 263.311 161.383 263.682C160.426 264.053 159.332 264.238 158.102 264.238C156.871 264.238 155.774 264.053 154.811 263.682C153.854 263.311 153.105 262.79 152.564 262.119C152.024 261.449 151.754 260.671 151.754 259.785C151.754 258.906 152.024 258.128 152.564 257.451C153.105 256.768 153.854 256.243 154.811 255.879C155.774 255.508 156.871 255.319 158.102 255.312ZM158.102 256.582C157.158 256.576 156.314 256.706 155.572 256.973C154.837 257.233 154.264 257.607 153.854 258.096C153.443 258.584 153.238 259.147 153.238 259.785C153.238 260.423 153.443 260.986 153.854 261.475C154.264 261.963 154.837 262.344 155.572 262.617C156.314 262.891 157.158 263.027 158.102 263.027C159.039 263.027 159.876 262.891 160.611 262.617C161.347 262.344 161.923 261.963 162.34 261.475C162.757 260.986 162.965 260.423 162.965 259.785C162.965 259.147 162.757 258.584 162.34 258.096C161.923 257.607 161.347 257.233 160.611 256.973C159.876 256.706 159.039 256.576 158.102 256.582ZM169.312 270.117C169.085 270.117 168.873 270.059 168.678 269.941C168.489 269.824 168.336 269.671 168.219 269.482C168.108 269.287 168.056 269.076 168.062 268.848C168.056 268.626 168.108 268.418 168.219 268.223C168.336 268.027 168.489 267.874 168.678 267.764C168.873 267.653 169.085 267.598 169.312 267.598C169.54 267.598 169.749 267.653 169.938 267.764C170.133 267.874 170.286 268.027 170.396 268.223C170.507 268.418 170.562 268.626 170.562 268.848C170.562 269.076 170.507 269.287 170.396 269.482C170.286 269.671 170.133 269.824 169.938 269.941C169.749 270.059 169.54 270.117 169.312 270.117Z" fill="#0E0E0E"/>
<path d="M37.8379 184.934H26.4512V182.707H37.8379V184.934ZM40.8555 191.047H24.4785V188.811H40.8555V191.047ZM34.0391 194.045H31.2168V190.393H34.0391V194.045ZM38.9805 184.152C38.9805 185.227 38.9479 186.187 38.8828 187.033C38.8242 187.873 38.6745 188.817 38.4336 189.865L35.6406 189.582C35.7969 188.898 35.9108 188.254 35.9824 187.648C36.0605 187.036 36.1094 186.493 36.1289 186.018C36.1549 185.542 36.1712 184.973 36.1777 184.309V184.152V182.707H38.9805V184.152ZM38.9707 199.865H36.1387V195.568H26.0898V193.371H38.9707V199.865ZM55.9727 199.836H53.1504V181.936H55.9727V199.836ZM58.3848 190.988H55.2402V188.684H58.3848V190.988ZM51.1387 183.752C51.1322 185.66 50.8717 187.411 50.3574 189.006C49.8431 190.594 48.987 192.056 47.7891 193.391C46.5977 194.719 45.0189 195.865 43.0527 196.828L41.4707 194.689C43.0527 193.889 44.3516 192.99 45.3672 191.994C46.3828 190.998 47.138 189.868 47.6328 188.605C48.1341 187.336 48.3848 185.891 48.3848 184.27V183.752H51.1387ZM49.8008 186.047H42.5254V183.752H49.8008V186.047ZM73.5996 188.049H70.6895V185.803H73.5996V188.049ZM73.5996 193.635H70.6895V191.359H73.5996V193.635ZM79.1172 199.865H76.4316V181.936H79.1172V199.865ZM75.416 199.074H72.7793V182.18H75.416V199.074ZM67.5742 183.156C68.375 183.156 69.0749 183.42 69.6738 183.947C70.2793 184.475 70.7448 185.233 71.0703 186.223C71.4023 187.212 71.5684 188.378 71.5684 189.719C71.5684 191.066 71.4023 192.238 71.0703 193.234C70.7448 194.23 70.2793 194.995 69.6738 195.529C69.0749 196.063 68.375 196.33 67.5742 196.33C66.7865 196.33 66.0996 196.063 65.5137 195.529C64.9277 194.995 64.472 194.23 64.1465 193.234C63.821 192.238 63.6582 191.066 63.6582 189.719C63.6582 188.378 63.821 187.212 64.1465 186.223C64.472 185.233 64.9277 184.475 65.5137 183.947C66.0996 183.42 66.7865 183.156 67.5742 183.156ZM67.5742 185.822C67.2682 185.816 67.0143 185.952 66.8125 186.232C66.6172 186.506 66.4674 186.932 66.3633 187.512C66.2591 188.091 66.207 188.827 66.207 189.719C66.207 190.617 66.2591 191.356 66.3633 191.936C66.4674 192.508 66.6172 192.935 66.8125 193.215C67.0143 193.488 67.2682 193.625 67.5742 193.625C67.8867 193.625 68.1471 193.485 68.3555 193.205C68.5638 192.919 68.7266 192.489 68.8438 191.916C68.9609 191.343 69.0195 190.611 69.0195 189.719C69.0195 188.833 68.9609 188.101 68.8438 187.521C68.7266 186.936 68.5605 186.506 68.3457 186.232C68.1374 185.952 67.8802 185.816 67.5742 185.822ZM87.1152 184.924C87.1087 186.154 86.9232 187.294 86.5586 188.342C86.194 189.39 85.6309 190.305 84.8691 191.086C84.1074 191.861 83.1536 192.437 82.0078 192.814L80.4453 190.588C81.4544 190.288 82.2812 189.846 82.9258 189.26C83.5703 188.667 84.0391 188.003 84.332 187.268C84.625 186.532 84.7715 185.751 84.7715 184.924V183.059H87.1152V184.924ZM87.6133 184.924C87.6068 185.712 87.7435 186.454 88.0234 187.15C88.3034 187.847 88.7493 188.472 89.3613 189.025C89.9733 189.579 90.7578 190.008 91.7148 190.314L90.2305 192.502C89.1172 192.137 88.196 191.584 87.4668 190.842C86.7441 190.1 86.2103 189.227 85.8652 188.225C85.5202 187.222 85.3477 186.122 85.3477 184.924V183.059H87.6133V184.924ZM95.0938 195.051H92.2715V181.965H95.0938V195.051ZM97.418 189.406H94.3027V187.053H97.418V189.406ZM95.709 199.592H83.3262V197.336H95.709V199.592ZM86.1875 198.547H83.3262V193.742H86.1875V198.547ZM103.883 183.107C104.82 183.107 105.67 183.299 106.432 183.684C107.2 184.068 107.802 184.602 108.238 185.285C108.674 185.962 108.893 186.724 108.893 187.57C108.893 188.423 108.674 189.188 108.238 189.865C107.802 190.542 107.2 191.073 106.432 191.457C105.67 191.841 104.82 192.033 103.883 192.033C102.952 192.033 102.102 191.841 101.334 191.457C100.566 191.073 99.9603 190.542 99.5176 189.865C99.0814 189.188 98.8633 188.423 98.8633 187.57C98.8633 186.724 99.0814 185.962 99.5176 185.285C99.9603 184.602 100.566 184.068 101.334 183.684C102.102 183.299 102.952 183.107 103.883 183.107ZM103.883 185.529C103.46 185.536 103.079 185.617 102.74 185.773C102.408 185.93 102.145 186.164 101.949 186.477C101.76 186.783 101.666 187.147 101.666 187.57C101.666 188.007 101.76 188.378 101.949 188.684C102.145 188.983 102.408 189.211 102.74 189.367C103.079 189.523 103.46 189.605 103.883 189.611C104.319 189.605 104.71 189.523 105.055 189.367C105.4 189.211 105.667 188.983 105.855 188.684C106.051 188.378 106.148 188.007 106.148 187.57C106.148 187.147 106.051 186.783 105.855 186.477C105.667 186.164 105.4 185.93 105.055 185.773C104.71 185.617 104.319 185.536 103.883 185.529ZM113.268 199.914H110.475V181.936H113.268V199.914ZM98.1699 194.084C100.286 194.084 102.285 194.048 104.166 193.977C106.048 193.898 107.831 193.745 109.518 193.518L109.723 195.529C108.505 195.77 107.242 195.949 105.934 196.066C104.632 196.184 103.398 196.262 102.232 196.301C101.074 196.333 99.8236 196.346 98.4824 196.34L98.1699 194.084ZM126.49 197.512H123.668V192.883H126.49V197.512ZM132.359 197.512H129.596V192.883H132.359V197.512ZM135.523 186.34H120.543V184.113H135.523V186.34ZM136.266 198.166H119.889V195.939H136.266V198.166ZM128.023 186.936C129.286 186.936 130.383 187.072 131.314 187.346C132.245 187.619 132.958 188.02 133.453 188.547C133.948 189.074 134.195 189.699 134.195 190.422C134.195 191.151 133.948 191.776 133.453 192.297C132.958 192.818 132.245 193.218 131.314 193.498C130.383 193.778 129.286 193.918 128.023 193.918C126.754 193.918 125.65 193.778 124.713 193.498C123.782 193.218 123.066 192.818 122.564 192.297C122.063 191.776 121.816 191.151 121.822 190.422C121.816 189.699 122.063 189.074 122.564 188.547C123.066 188.02 123.782 187.619 124.713 187.346C125.65 187.072 126.754 186.936 128.023 186.936ZM128.023 189.074C127.275 189.081 126.656 189.133 126.168 189.23C125.686 189.328 125.322 189.478 125.074 189.68C124.833 189.875 124.716 190.122 124.723 190.422C124.716 190.721 124.833 190.969 125.074 191.164C125.322 191.353 125.689 191.496 126.178 191.594C126.666 191.691 127.281 191.737 128.023 191.73C128.746 191.737 129.348 191.691 129.83 191.594C130.318 191.496 130.686 191.353 130.934 191.164C131.181 190.969 131.305 190.721 131.305 190.422C131.305 190.122 131.181 189.875 130.934 189.68C130.686 189.478 130.318 189.328 129.83 189.23C129.348 189.133 128.746 189.081 128.023 189.074ZM129.41 185.5H126.627V182.111H129.41V185.5ZM143.941 193.342H141.168V189.836H143.941V193.342ZM149.566 193.342H146.764V189.836H149.566V193.342ZM145.338 182.092C146.725 182.098 147.91 182.219 148.893 182.453C149.876 182.681 150.621 183.026 151.129 183.488C151.643 183.944 151.9 184.497 151.9 185.148C151.9 185.799 151.643 186.353 151.129 186.809C150.621 187.258 149.876 187.6 148.893 187.834C147.91 188.068 146.725 188.186 145.338 188.186C143.945 188.186 142.757 188.068 141.773 187.834C140.79 187.6 140.038 187.258 139.518 186.809C139.003 186.353 138.746 185.799 138.746 185.148C138.746 184.497 139.003 183.944 139.518 183.488C140.038 183.026 140.787 182.681 141.764 182.453C142.747 182.219 143.938 182.098 145.338 182.092ZM145.338 184.152C144.479 184.152 143.785 184.188 143.258 184.26C142.73 184.331 142.337 184.439 142.076 184.582C141.822 184.725 141.699 184.914 141.705 185.148C141.699 185.396 141.819 185.591 142.066 185.734C142.32 185.878 142.708 185.982 143.229 186.047C143.756 186.112 144.459 186.145 145.338 186.145C146.223 186.145 146.93 186.112 147.457 186.047C147.984 185.982 148.372 185.878 148.619 185.734C148.867 185.591 148.99 185.396 148.99 185.148C148.99 184.914 148.863 184.725 148.609 184.582C148.355 184.439 147.962 184.331 147.428 184.26C146.894 184.188 146.197 184.152 145.338 184.152ZM153.512 191.008H137.174V188.82H153.512V191.008ZM151.559 196.848H141.793V198.283H139.029V194.904H148.766V194.133H139.029V192.092H151.559V196.848ZM151.998 199.768H139.029V197.678H151.998V199.768ZM160.797 184.826C160.797 185.992 160.618 187.089 160.26 188.117C159.908 189.139 159.352 190.038 158.59 190.812C157.835 191.581 156.884 192.144 155.738 192.502L154.293 190.285C155.263 189.979 156.064 189.536 156.695 188.957C157.327 188.378 157.786 187.736 158.072 187.033C158.359 186.324 158.505 185.588 158.512 184.826V183.703H160.797V184.826ZM161.383 184.787C161.383 185.516 161.52 186.216 161.793 186.887C162.066 187.551 162.503 188.156 163.102 188.703C163.707 189.25 164.475 189.676 165.406 189.982L164.029 192.15C162.916 191.799 161.988 191.255 161.246 190.52C160.51 189.784 159.967 188.928 159.615 187.951C159.27 186.968 159.098 185.913 159.098 184.787V183.703H161.383V184.787ZM167.633 188.43H164.322V186.135H167.633V188.43ZM164.811 185.109H155.074V182.873H164.811V185.109ZM169.625 199.865H166.832V195.578H157.232V193.342H169.625V199.865ZM169.625 192.6H166.832V181.936H169.625V192.6ZM186.793 194.768H183.971V181.975H186.793V194.768ZM187.252 199.592H174.654V197.336H187.252V199.592ZM177.506 198.293H174.654V193.498H177.506V198.293ZM176.93 183.068C177.841 183.068 178.678 183.267 179.439 183.664C180.201 184.055 180.8 184.598 181.236 185.295C181.673 185.985 181.891 186.76 181.891 187.619C181.891 188.498 181.673 189.289 181.236 189.992C180.8 190.689 180.201 191.236 179.439 191.633C178.684 192.023 177.848 192.219 176.93 192.219C176.012 192.219 175.175 192.023 174.42 191.633C173.665 191.236 173.066 190.689 172.623 189.992C172.187 189.289 171.969 188.498 171.969 187.619C171.969 186.76 172.187 185.985 172.623 185.295C173.066 184.598 173.665 184.055 174.42 183.664C175.175 183.267 176.012 183.068 176.93 183.068ZM176.93 185.52C176.5 185.513 176.116 185.594 175.777 185.764C175.445 185.926 175.182 186.167 174.986 186.486C174.798 186.805 174.706 187.183 174.713 187.619C174.706 188.075 174.798 188.465 174.986 188.791C175.182 189.117 175.445 189.364 175.777 189.533C176.116 189.696 176.5 189.774 176.93 189.768C177.346 189.774 177.717 189.696 178.043 189.533C178.375 189.364 178.635 189.117 178.824 188.791C179.013 188.465 179.107 188.075 179.107 187.619C179.107 187.183 179.013 186.805 178.824 186.486C178.635 186.167 178.375 185.926 178.043 185.764C177.711 185.594 177.34 185.513 176.93 185.52ZM30.709 209.754C30.709 211.349 30.5365 212.83 30.1914 214.197C29.8464 215.564 29.3027 216.775 28.5605 217.83C27.8249 218.885 26.8874 219.689 25.748 220.242L24.0391 217.947C25.0547 217.492 25.888 216.84 26.5391 215.994C27.1966 215.141 27.6751 214.184 27.9746 213.123C28.2741 212.062 28.4271 210.939 28.4336 209.754V207.264H30.709V209.754ZM31.2461 209.754C31.2396 210.9 31.3763 211.98 31.6562 212.996C31.9427 214.012 32.3919 214.93 33.0039 215.75C33.6159 216.564 34.4004 217.202 35.3574 217.664L33.668 219.891C32.5742 219.357 31.6823 218.582 30.9922 217.566C30.3021 216.544 29.7975 215.376 29.4785 214.061C29.1595 212.739 29.0033 211.303 29.0098 209.754V207.264H31.2461V209.754ZM38.6875 223.865H35.8652V205.936H38.6875V223.865ZM41.2266 215.115H38.0723V212.742H41.2266V215.115ZM48.1602 215.193H45.3281V211.941H48.1602V215.193ZM54.4297 215.193H51.627V211.941H54.4297V215.193ZM58.1016 216.57H41.7637V214.324H58.1016V216.57ZM49.8984 217.352C51.1875 217.352 52.3008 217.475 53.2383 217.723C54.1823 217.97 54.9017 218.341 55.3965 218.836C55.8978 219.324 56.1517 219.91 56.1582 220.594C56.1517 221.297 55.8978 221.889 55.3965 222.371C54.9017 222.859 54.1855 223.227 53.248 223.475C52.3105 223.729 51.194 223.855 49.8984 223.855C48.5833 223.855 47.4538 223.729 46.5098 223.475C45.5658 223.227 44.8431 222.859 44.3418 222.371C43.8405 221.889 43.5898 221.297 43.5898 220.594C43.5898 219.91 43.8405 219.324 44.3418 218.836C44.8431 218.341 45.5658 217.97 46.5098 217.723C47.4538 217.475 48.5833 217.352 49.8984 217.352ZM49.8984 219.471C49.1042 219.471 48.4531 219.51 47.9453 219.588C47.444 219.66 47.0697 219.78 46.8223 219.949C46.5749 220.118 46.4512 220.333 46.4512 220.594C46.4512 220.861 46.5749 221.082 46.8223 221.258C47.0697 221.434 47.444 221.564 47.9453 221.648C48.4531 221.733 49.1042 221.775 49.8984 221.775C50.6667 221.775 51.3047 221.733 51.8125 221.648C52.3268 221.564 52.7077 221.434 52.9551 221.258C53.2025 221.082 53.3262 220.861 53.3262 220.594C53.3262 220.333 53.2025 220.118 52.9551 219.949C52.7077 219.78 52.3301 219.66 51.8223 219.588C51.321 219.51 50.6797 219.471 49.8984 219.471ZM49.9277 206.18C51.2493 206.18 52.4017 206.323 53.3848 206.609C54.3743 206.889 55.1393 207.293 55.6797 207.82C56.2201 208.348 56.4902 208.969 56.4902 209.686C56.4902 210.395 56.2233 211.007 55.6895 211.521C55.1556 212.036 54.3939 212.426 53.4043 212.693C52.4147 212.96 51.2559 213.094 49.9277 213.094C48.5931 213.094 47.4277 212.96 46.4316 212.693C45.4421 212.426 44.6771 212.036 44.1367 211.521C43.6029 211.007 43.3359 210.395 43.3359 209.686C43.3359 208.969 43.6029 208.348 44.1367 207.82C44.6771 207.293 45.4421 206.889 46.4316 206.609C47.4277 206.323 48.5931 206.18 49.9277 206.18ZM49.9277 208.338C49.1204 208.338 48.4434 208.387 47.8965 208.484C47.3561 208.582 46.946 208.732 46.666 208.934C46.3926 209.135 46.2559 209.386 46.2559 209.686C46.2559 209.979 46.3926 210.223 46.666 210.418C46.946 210.613 47.3561 210.757 47.8965 210.848C48.4368 210.939 49.1139 210.984 49.9277 210.984C50.7285 210.984 51.3991 210.939 51.9395 210.848C52.4798 210.757 52.8867 210.613 53.1602 210.418C53.4401 210.223 53.5801 209.979 53.5801 209.686C53.5801 209.386 53.4401 209.135 53.1602 208.934C52.8867 208.732 52.4766 208.582 51.9297 208.484C51.3893 208.387 50.722 208.338 49.9277 208.338ZM67.2129 206.189C68.5996 206.189 69.7845 206.307 70.7676 206.541C71.7507 206.775 72.4961 207.12 73.0039 207.576C73.5182 208.025 73.7754 208.576 73.7754 209.227C73.7754 209.884 73.5182 210.441 73.0039 210.896C72.4961 211.352 71.7507 211.697 70.7676 211.932C69.7845 212.166 68.5996 212.283 67.2129 212.283C65.8197 212.283 64.6315 212.166 63.6484 211.932C62.6654 211.697 61.9134 211.352 61.3926 210.896C60.8783 210.441 60.6211 209.884 60.6211 209.227C60.6211 208.576 60.8783 208.025 61.3926 207.576C61.9134 207.12 62.6654 206.775 63.6484 206.541C64.6315 206.307 65.8197 206.189 67.2129 206.189ZM67.2129 208.23C66.3665 208.23 65.6764 208.266 65.1426 208.338C64.6087 208.41 64.2116 208.52 63.9512 208.67C63.6973 208.82 63.5736 209.005 63.5801 209.227C63.5736 209.474 63.694 209.673 63.9414 209.822C64.1953 209.965 64.5794 210.07 65.0938 210.135C65.6146 210.193 66.321 210.226 67.2129 210.232C68.1048 210.226 68.8112 210.193 69.332 210.135C69.8594 210.07 70.2467 209.965 70.4941 209.822C70.7415 209.673 70.8652 209.474 70.8652 209.227C70.8652 209.005 70.7383 208.82 70.4844 208.67C70.2305 208.52 69.8333 208.41 69.293 208.338C68.7526 208.266 68.0592 208.23 67.2129 208.23ZM75.3867 215.242H59.0488V213.016H75.3867V215.242ZM73.4336 220.848H63.668V222.283H60.9043V218.904H70.6406V218.133H60.9043V216.092H73.4336V220.848ZM73.873 223.768H60.9043V221.678H73.873V223.768ZM97.1641 217.361H80.8262V215.145H97.1641V217.361ZM90.3477 216.062H87.5645V213.445H90.3477V216.062ZM95.1816 223.865H92.3887V220.613H82.6328V218.406H95.1816V223.865ZM90.3477 208.68H87.5645V205.994H90.3477V208.68ZM89.8496 209.285C89.8496 210.197 89.5697 211.004 89.0098 211.707C88.4564 212.41 87.6133 212.986 86.4805 213.436C85.3477 213.878 83.9414 214.158 82.2617 214.275L81.4121 212.137C82.8509 212.059 84.0163 211.873 84.9082 211.58C85.8001 211.287 86.4349 210.942 86.8125 210.545C87.1901 210.148 87.3822 209.728 87.3887 209.285V208.885H89.8496V209.285ZM90.5332 209.285C90.5267 209.728 90.7155 210.148 91.0996 210.545C91.4837 210.942 92.1217 211.287 93.0137 211.58C93.9056 211.873 95.071 212.059 96.5098 212.137L95.6504 214.275C93.9642 214.158 92.5579 213.878 91.4316 213.436C90.3053 212.986 89.4622 212.41 88.9023 211.707C88.3424 211.004 88.0658 210.197 88.0723 209.285V208.885H90.5332V209.285ZM95.6113 209.734H82.3496V207.537H95.6113V209.734ZM104.742 209.402C104.736 210.574 104.544 211.668 104.166 212.684C103.795 213.699 103.222 214.591 102.447 215.359C101.673 216.121 100.712 216.688 99.5664 217.059L98.1211 214.852C99.0977 214.552 99.9049 214.116 100.543 213.543C101.188 212.97 101.656 212.329 101.949 211.619C102.249 210.91 102.398 210.171 102.398 209.402V207.938H104.742V209.402ZM105.25 209.402C105.25 210.125 105.393 210.822 105.68 211.492C105.966 212.156 106.419 212.758 107.037 213.299C107.662 213.839 108.456 214.249 109.42 214.529L107.994 216.736C106.868 216.385 105.93 215.844 105.182 215.115C104.433 214.38 103.873 213.527 103.502 212.557C103.137 211.58 102.958 210.529 102.965 209.402V207.938H105.25V209.402ZM108.697 209.402H98.8633V207.166H108.697V209.402ZM113.16 218.855H110.338V205.975H113.16V218.855ZM113.619 223.592H101.021V221.336H113.619V223.592ZM103.873 222.488H101.021V217.703H103.873V222.488ZM129.605 223.865H126.832V205.936H129.605V223.865ZM132.145 215.154H128.99V212.859H132.145V215.154ZM125.777 210.799H115.299V208.553H125.777V210.799ZM120.572 211.639C121.438 211.639 122.226 211.824 122.936 212.195C123.645 212.56 124.202 213.074 124.605 213.738C125.009 214.396 125.211 215.138 125.211 215.965C125.211 216.798 125.009 217.544 124.605 218.201C124.202 218.852 123.645 219.363 122.936 219.734C122.226 220.099 121.438 220.281 120.572 220.281C119.687 220.281 118.889 220.099 118.18 219.734C117.477 219.363 116.926 218.852 116.529 218.201C116.132 217.544 115.934 216.798 115.934 215.965C115.934 215.138 116.132 214.396 116.529 213.738C116.926 213.074 117.477 212.56 118.18 212.195C118.889 211.824 119.687 211.639 120.572 211.639ZM120.572 213.914C120.188 213.921 119.85 214.005 119.557 214.168C119.264 214.324 119.033 214.559 118.863 214.871C118.701 215.177 118.619 215.542 118.619 215.965C118.619 216.395 118.701 216.762 118.863 217.068C119.033 217.374 119.264 217.605 119.557 217.762C119.85 217.918 120.188 217.999 120.572 218.006C120.95 217.999 121.285 217.918 121.578 217.762C121.871 217.605 122.099 217.374 122.262 217.068C122.424 216.762 122.506 216.395 122.506 215.965C122.506 215.542 122.424 215.177 122.262 214.871C122.099 214.559 121.868 214.324 121.568 214.168C121.275 214.005 120.943 213.921 120.572 213.914ZM121.979 209.373H119.166V206.238H121.979V209.373ZM145.758 209.627H134.332V207.42H145.758V209.627ZM149.02 221.785H132.682V219.51H149.02V221.785ZM141.139 220.682H138.355V213.436H141.139V220.682ZM147.555 209.285C147.555 210.75 147.512 212.111 147.428 213.367C147.343 214.624 147.145 216.092 146.832 217.771L143.99 217.469C144.212 216.382 144.378 215.353 144.488 214.383C144.599 213.406 144.664 212.544 144.684 211.795C144.71 211.046 144.726 210.187 144.732 209.217V209.1V207.42H147.555V209.1V209.285ZM152.252 226.15H149.977L150.904 220.516H153.99L152.252 226.15ZM37.8379 232.934H26.4512V230.707H37.8379V232.934ZM40.8555 239.047H24.4785V236.811H40.8555V239.047ZM34.0391 242.045H31.2168V238.393H34.0391V242.045ZM38.9805 232.152C38.9805 233.227 38.9479 234.187 38.8828 235.033C38.8242 235.873 38.6745 236.817 38.4336 237.865L35.6406 237.582C35.7969 236.898 35.9108 236.254 35.9824 235.648C36.0605 235.036 36.1094 234.493 36.1289 234.018C36.1549 233.542 36.1712 232.973 36.1777 232.309V232.152V230.707H38.9805V232.152ZM38.9707 247.865H36.1387V243.568H26.0898V241.371H38.9707V247.865ZM51.5098 240.082H42.6523V231.342H51.5098V240.082ZM45.416 237.885H48.7168V233.568H45.416V237.885ZM56.8125 242.67H53.9902V229.975H56.8125V242.67ZM57.2715 247.543H44.6738V245.297H57.2715V247.543ZM47.5254 246.332H44.6738V241.508H47.5254V246.332ZM68.8438 233.031C68.8438 234.132 68.7038 235.17 68.4238 236.146C68.1439 237.117 67.6947 237.986 67.0762 238.754C66.4577 239.516 65.6699 240.092 64.7129 240.482L63.1992 238.324C64.013 237.966 64.6771 237.504 65.1914 236.938C65.7122 236.371 66.0833 235.756 66.3047 235.092C66.526 234.428 66.64 233.741 66.6465 233.031V231.029H68.8438V233.031ZM69.3809 233.031C69.3809 233.702 69.4915 234.34 69.7129 234.945C69.9408 235.544 70.2956 236.088 70.7773 236.576C71.2656 237.064 71.8939 237.455 72.6621 237.748L71.168 239.896C70.2435 239.538 69.485 239.018 68.8926 238.334C68.3001 237.644 67.8672 236.85 67.5938 235.951C67.3203 235.053 67.1836 234.079 67.1836 233.031V231.029H69.3809V233.031ZM78.9805 240.902H76.3145V229.975H78.9805V240.902ZM77.0176 236.469H74.3223V234.203H77.0176V236.469ZM75.0938 240.336H72.4961V230.277H75.0938V240.336ZM72.7988 241.088C74.0553 241.088 75.1556 241.225 76.0996 241.498C77.0501 241.765 77.7826 242.156 78.2969 242.67C78.8112 243.178 79.0684 243.78 79.0684 244.477C79.0684 245.173 78.8112 245.775 78.2969 246.283C77.7826 246.798 77.0501 247.191 76.0996 247.465C75.1556 247.745 74.0553 247.885 72.7988 247.885C71.5293 247.885 70.4225 247.745 69.4785 247.465C68.541 247.191 67.8151 246.798 67.3008 246.283C66.7865 245.775 66.5326 245.173 66.5391 244.477C66.5326 243.78 66.7865 243.178 67.3008 242.67C67.8151 242.156 68.541 241.765 69.4785 241.498C70.4225 241.225 71.5293 241.088 72.7988 241.088ZM72.7988 243.168C72.0566 243.168 71.4284 243.217 70.9141 243.314C70.3997 243.406 70.0091 243.549 69.7422 243.744C69.4818 243.939 69.3548 244.184 69.3613 244.477C69.3548 244.77 69.4818 245.014 69.7422 245.209C70.0091 245.398 70.3965 245.541 70.9043 245.639C71.4121 245.73 72.0436 245.775 72.7988 245.775C73.541 245.775 74.166 245.73 74.6738 245.639C75.1882 245.541 75.5755 245.398 75.8359 245.209C76.1029 245.014 76.2396 244.77 76.2461 244.477C76.2396 244.184 76.1029 243.939 75.8359 243.744C75.5755 243.549 75.1882 243.406 74.6738 243.314C74.1595 243.217 73.5345 243.168 72.7988 243.168ZM95.25 240.492H92.4277V229.936H95.25V240.492ZM97.4277 236.41H94.2832V234.066H97.4277V236.41ZM95.25 245.219H85.8066V246.557H82.9844V243.539H92.4375V242.904H82.9746V241.078H95.25V245.219ZM95.8164 247.768H82.9844V245.922H95.8164V247.768ZM87.5742 239.672H84.7617V237.035H87.5742V239.672ZM80.5918 238.48C82.8118 238.48 84.8138 238.451 86.5977 238.393C88.3815 238.334 90.0807 238.197 91.6953 237.982L91.8906 239.711C90.2174 239.997 88.502 240.18 86.7441 240.258C84.9863 240.336 83.0267 240.375 80.8652 240.375L80.5918 238.48ZM91.2656 232.855H81.0508V231H91.2656V232.855ZM86.1582 233.129C87.0566 233.129 87.8411 233.22 88.5117 233.402C89.1823 233.578 89.6966 233.842 90.0547 234.193C90.4193 234.538 90.6048 234.952 90.6113 235.434C90.6048 235.941 90.4193 236.374 90.0547 236.732C89.6966 237.09 89.1823 237.364 88.5117 237.553C87.8411 237.742 87.0566 237.839 86.1582 237.846C85.2533 237.839 84.4655 237.742 83.7949 237.553C83.1309 237.364 82.6133 237.09 82.2422 236.732C81.8776 236.374 81.6953 235.941 81.6953 235.434C81.6953 234.952 81.8776 234.538 82.2422 234.193C82.6133 233.842 83.1309 233.578 83.7949 233.402C84.4655 233.22 85.2533 233.129 86.1582 233.129ZM86.1582 234.848C85.748 234.848 85.416 234.867 85.1621 234.906C84.9147 234.945 84.7227 235.007 84.5859 235.092C84.4492 235.176 84.3809 235.29 84.3809 235.434C84.3809 235.583 84.4492 235.707 84.5859 235.805C84.7227 235.902 84.918 235.977 85.1719 236.029C85.4323 236.075 85.7611 236.101 86.1582 236.107C86.5423 236.101 86.8613 236.075 87.1152 236.029C87.3757 235.977 87.571 235.902 87.7012 235.805C87.8379 235.707 87.9062 235.583 87.9062 235.434C87.9062 235.29 87.8411 235.176 87.7109 235.092C87.5807 235.007 87.3887 234.945 87.1348 234.906C86.8809 234.867 86.5553 234.848 86.1582 234.848ZM87.5742 232.064H84.7617V229.809H87.5742V232.064ZM108.15 238.695H105.299V236.469H108.15V238.695ZM113.688 247.865H111.002V229.936H113.688V247.865ZM109.918 247.074H107.271V230.18H109.918V247.074ZM102.145 231.156C102.945 231.156 103.645 231.42 104.244 231.947C104.85 232.475 105.315 233.233 105.641 234.223C105.973 235.212 106.139 236.378 106.139 237.719C106.139 239.066 105.973 240.238 105.641 241.234C105.315 242.23 104.85 242.995 104.244 243.529C103.645 244.063 102.945 244.33 102.145 244.33C101.357 244.33 100.67 244.063 100.084 243.529C99.498 242.995 99.0423 242.23 98.7168 241.234C98.3913 240.238 98.2285 239.066 98.2285 237.719C98.2285 236.378 98.3913 235.212 98.7168 234.223C99.0423 233.233 99.498 232.475 100.084 231.947C100.67 231.42 101.357 231.156 102.145 231.156ZM102.145 233.822C101.858 233.816 101.614 233.952 101.412 234.232C101.217 234.506 101.067 234.936 100.963 235.521C100.865 236.101 100.82 236.833 100.826 237.719C100.82 238.611 100.865 239.346 100.963 239.926C101.067 240.505 101.217 240.935 101.412 241.215C101.614 241.488 101.858 241.625 102.145 241.625C102.451 241.625 102.708 241.488 102.916 241.215C103.124 240.935 103.281 240.508 103.385 239.936C103.495 239.356 103.551 238.617 103.551 237.719C103.551 236.833 103.495 236.101 103.385 235.521C103.281 234.936 103.124 234.506 102.916 234.232C102.708 233.952 102.451 233.816 102.145 233.822ZM134.986 239.105H132.164V229.936H134.986V239.105ZM134.986 244.721H125.494V246.762H122.691V242.729H132.213V241.928H122.662V239.77H134.986V244.721ZM135.426 247.768H122.691V245.58H135.426V247.768ZM130.396 233.139H120.641V231.01H130.396V233.139ZM120.172 236.674C122.32 236.661 124.277 236.622 126.041 236.557C127.812 236.492 129.475 236.365 131.031 236.176L131.148 238.178C129.547 238.445 127.851 238.624 126.061 238.715C124.27 238.806 122.405 238.852 120.465 238.852L120.172 236.674ZM124.664 237.777H121.969V231.977H124.664V237.777ZM129.02 237.777H126.324V231.977H129.02V237.777ZM143.482 243.949H140.699V239.018H143.482V243.949ZM150.045 243.949H147.203V239.018H150.045V243.949ZM153.551 245.844H137.174V243.549H153.551V245.844ZM145.338 230.736C146.633 230.736 147.796 230.941 148.824 231.352C149.859 231.755 150.67 232.328 151.256 233.07C151.848 233.806 152.145 234.652 152.145 235.609C152.145 236.579 151.852 237.432 151.266 238.168C150.68 238.897 149.869 239.464 148.834 239.867C147.799 240.271 146.633 240.473 145.338 240.473C144.036 240.473 142.87 240.271 141.842 239.867C140.813 239.464 140.006 238.897 139.42 238.168C138.84 237.432 138.551 236.579 138.551 235.609C138.551 234.652 138.84 233.806 139.42 233.07C140.006 232.328 140.813 231.755 141.842 231.352C142.87 230.941 144.036 230.736 145.338 230.736ZM145.338 232.953C144.518 232.947 143.808 233.048 143.209 233.256C142.61 233.458 142.148 233.76 141.822 234.164C141.497 234.561 141.334 235.043 141.334 235.609C141.334 236.169 141.497 236.651 141.822 237.055C142.148 237.458 142.61 237.768 143.209 237.982C143.814 238.191 144.524 238.298 145.338 238.305C146.145 238.298 146.852 238.188 147.457 237.973C148.062 237.758 148.528 237.452 148.854 237.055C149.179 236.651 149.342 236.169 149.342 235.609C149.342 235.043 149.179 234.561 148.854 234.164C148.528 233.76 148.062 233.458 147.457 233.256C146.852 233.048 146.145 232.947 145.338 232.953ZM168.727 243.334H165.904V229.975H168.727V243.334ZM171.051 237.621H167.936V235.326H171.051V237.621ZM165.045 233.939H154.43V231.752H165.045V233.939ZM159.752 234.457C160.611 234.457 161.38 234.607 162.057 234.906C162.734 235.199 163.258 235.613 163.629 236.146C164.007 236.68 164.195 237.292 164.195 237.982C164.195 238.66 164.007 239.258 163.629 239.779C163.258 240.3 162.734 240.707 162.057 241C161.38 241.286 160.611 241.43 159.752 241.43C158.886 241.43 158.111 241.286 157.428 241C156.751 240.707 156.22 240.3 155.836 239.779C155.452 239.258 155.26 238.66 155.26 237.982C155.26 237.292 155.452 236.68 155.836 236.146C156.22 235.613 156.751 235.199 157.428 234.906C158.111 234.607 158.886 234.457 159.752 234.457ZM159.752 236.615C159.4 236.615 159.091 236.664 158.824 236.762C158.564 236.859 158.362 237.012 158.219 237.221C158.082 237.429 158.014 237.683 158.014 237.982C158.014 238.269 158.082 238.513 158.219 238.715C158.362 238.91 158.564 239.06 158.824 239.164C159.091 239.262 159.4 239.311 159.752 239.311C160.104 239.311 160.413 239.262 160.68 239.164C160.947 239.06 161.155 238.91 161.305 238.715C161.454 238.513 161.529 238.269 161.529 237.982C161.529 237.683 161.454 237.429 161.305 237.221C161.155 237.012 160.947 236.859 160.68 236.762C160.413 236.664 160.104 236.615 159.752 236.615ZM161.158 232.816H158.336V229.945H161.158V232.816ZM169.312 247.592H156.969V245.336H169.312V247.592ZM159.791 246.303H156.969V242.318H159.791V246.303ZM30.709 257.754C30.709 259.349 30.5365 260.83 30.1914 262.197C29.8464 263.564 29.3027 264.775 28.5605 265.83C27.8249 266.885 26.8874 267.689 25.748 268.242L24.0391 265.947C25.0547 265.492 25.888 264.84 26.5391 263.994C27.1966 263.141 27.6751 262.184 27.9746 261.123C28.2741 260.062 28.4271 258.939 28.4336 257.754V255.264H30.709V257.754ZM31.2461 257.754C31.2396 258.9 31.3763 259.98 31.6562 260.996C31.9427 262.012 32.3919 262.93 33.0039 263.75C33.6159 264.564 34.4004 265.202 35.3574 265.664L33.668 267.891C32.5742 267.357 31.6823 266.582 30.9922 265.566C30.3021 264.544 29.7975 263.376 29.4785 262.061C29.1595 260.739 29.0033 259.303 29.0098 257.754V255.264H31.2461V257.754ZM38.6875 271.865H35.8652V253.936H38.6875V271.865ZM41.2266 263.115H38.0723V260.742H41.2266V263.115ZM55.3281 260.059H50.9043V257.832H55.3281V260.059ZM46.7734 254.688C47.6589 254.688 48.4629 254.873 49.1855 255.244C49.9082 255.609 50.4811 256.12 50.9043 256.777C51.3275 257.428 51.5423 258.158 51.5488 258.965C51.5423 259.785 51.3275 260.524 50.9043 261.182C50.4811 261.839 49.9082 262.357 49.1855 262.734C48.4629 263.112 47.6589 263.301 46.7734 263.301C45.862 263.301 45.0384 263.112 44.3027 262.734C43.5736 262.357 43.0007 261.839 42.584 261.182C42.1673 260.524 41.9622 259.785 41.9688 258.965C41.9622 258.158 42.1673 257.428 42.584 256.777C43.0007 256.12 43.5736 255.609 44.3027 255.244C45.0384 254.873 45.862 254.688 46.7734 254.688ZM46.7734 257.021C46.3503 257.015 45.9759 257.09 45.6504 257.246C45.3314 257.396 45.0807 257.62 44.8984 257.92C44.7161 258.213 44.625 258.561 44.625 258.965C44.625 259.375 44.7161 259.73 44.8984 260.029C45.0807 260.322 45.3314 260.55 45.6504 260.713C45.9759 260.869 46.3503 260.947 46.7734 260.947C47.1771 260.947 47.5384 260.869 47.8574 260.713C48.1829 260.55 48.4303 260.322 48.5996 260.029C48.7754 259.73 48.8633 259.375 48.8633 258.965C48.8633 258.561 48.7754 258.213 48.5996 257.92C48.4303 257.62 48.1862 257.396 47.8672 257.246C47.5482 257.09 47.1836 257.015 46.7734 257.021ZM56.9297 263.594H54.1367V253.936H56.9297V263.594ZM47.623 265.889H54.1367V264.336H56.9297V271.689H44.8496V264.336H47.623V265.889ZM54.1367 269.424V268.027H47.623V269.424H54.1367ZM75.4258 262.979H59.0488V260.791H75.4258V262.979ZM73.4727 259.932H61.0312V257.744H73.4727V259.932ZM73.3555 256.455H63.8438V259.648H61.0312V254.238H73.3555V256.455ZM73.4336 268.691H63.668V270.078H60.9043V266.719H70.6406V265.947H60.9043V263.848H73.4336V268.691ZM73.873 271.738H60.9043V269.58H73.873V271.738ZM84.498 254.189C85.8848 254.189 87.0697 254.307 88.0527 254.541C89.0358 254.775 89.7812 255.12 90.2891 255.576C90.8034 256.025 91.0605 256.576 91.0605 257.227C91.0605 257.884 90.8034 258.441 90.2891 258.896C89.7812 259.352 89.0358 259.697 88.0527 259.932C87.0697 260.166 85.8848 260.283 84.498 260.283C83.1048 260.283 81.9167 260.166 80.9336 259.932C79.9505 259.697 79.1986 259.352 78.6777 258.896C78.1634 258.441 77.9062 257.884 77.9062 257.227C77.9062 256.576 78.1634 256.025 78.6777 255.576C79.1986 255.12 79.9505 254.775 80.9336 254.541C81.9167 254.307 83.1048 254.189 84.498 254.189ZM84.498 256.23C83.6517 256.23 82.9616 256.266 82.4277 256.338C81.8939 256.41 81.4967 256.52 81.2363 256.67C80.9824 256.82 80.8587 257.005 80.8652 257.227C80.8587 257.474 80.9792 257.673 81.2266 257.822C81.4805 257.965 81.8646 258.07 82.3789 258.135C82.8997 258.193 83.6061 258.226 84.498 258.232C85.39 258.226 86.0964 258.193 86.6172 258.135C87.1445 258.07 87.5319 257.965 87.7793 257.822C88.0267 257.673 88.1504 257.474 88.1504 257.227C88.1504 257.005 88.0234 256.82 87.7695 256.67C87.5156 256.52 87.1185 256.41 86.5781 256.338C86.0378 256.266 85.3444 256.23 84.498 256.23ZM92.6719 263.242H76.334V261.016H92.6719V263.242ZM90.7188 268.848H80.9531V270.283H78.1895V266.904H87.9258V266.133H78.1895V264.092H90.7188V268.848ZM91.1582 271.768H78.1895V269.678H91.1582V271.768ZM104.615 258.623C104.609 260.088 104.42 261.475 104.049 262.783C103.678 264.085 103.111 265.241 102.35 266.25C101.588 267.253 100.644 268.011 99.5176 268.525L97.9258 266.309C98.9154 265.872 99.7422 265.247 100.406 264.434C101.07 263.62 101.559 262.715 101.871 261.719C102.184 260.716 102.34 259.684 102.34 258.623V256.826H104.615V258.623ZM105.211 258.623C105.211 259.639 105.364 260.615 105.67 261.553C105.976 262.49 106.454 263.343 107.105 264.111C107.763 264.873 108.593 265.459 109.596 265.869L108.082 268.066C106.93 267.585 105.973 266.868 105.211 265.918C104.456 264.961 103.896 263.861 103.531 262.617C103.173 261.374 102.997 260.042 103.004 258.623V256.826H105.211V258.623ZM108.805 257.93H98.6777V255.645H108.805V257.93ZM113.17 271.865H110.309V253.936H113.17V271.865ZM122.799 267.109H119.977V263.174H122.799V267.109ZM130.689 267.48H127.877V253.975H130.689V267.48ZM131.07 271.592H117.506V269.336H131.07V271.592ZM120.328 269.922H117.506V266.191H120.328V269.922ZM115.328 261.797C117.711 261.777 119.801 261.732 121.598 261.66C123.401 261.589 125.13 261.452 126.783 261.25L126.93 263.262C125.198 263.555 123.388 263.753 121.5 263.857C119.618 263.962 117.669 264.01 115.65 264.004L115.328 261.797ZM128.492 266.201H124.537V264.307H128.492V266.201ZM121.139 254.541C121.992 254.535 122.76 254.671 123.443 254.951C124.133 255.225 124.671 255.609 125.055 256.104C125.439 256.592 125.631 257.148 125.631 257.773C125.631 258.405 125.439 258.962 125.055 259.443C124.671 259.919 124.137 260.29 123.453 260.557C122.77 260.824 121.998 260.957 121.139 260.957C120.253 260.957 119.469 260.824 118.785 260.557C118.108 260.29 117.577 259.919 117.193 259.443C116.809 258.968 116.617 258.411 116.617 257.773C116.617 257.148 116.809 256.589 117.193 256.094C117.577 255.592 118.111 255.208 118.795 254.941C119.479 254.668 120.26 254.535 121.139 254.541ZM121.139 256.582C120.761 256.589 120.432 256.634 120.152 256.719C119.879 256.803 119.664 256.937 119.508 257.119C119.352 257.295 119.277 257.513 119.283 257.773C119.277 258.034 119.352 258.252 119.508 258.428C119.664 258.597 119.879 258.727 120.152 258.818C120.432 258.903 120.761 258.945 121.139 258.945C121.497 258.945 121.812 258.903 122.086 258.818C122.359 258.727 122.571 258.594 122.721 258.418C122.877 258.242 122.955 258.027 122.955 257.773C122.955 257.52 122.877 257.301 122.721 257.119C122.571 256.937 122.359 256.803 122.086 256.719C121.812 256.634 121.497 256.589 121.139 256.582Z" fill="#464646"/>
<defs>
<filter id="filter0_bd_839_53" x="-76" y="-80" width="366" height="613" filterUnits="userSpaceOnUse" color-interpolation-filters="sRGB">
<feFlood flood-opacity="0" result="BackgroundImageFix"/>
<feGaussianBlur in="BackgroundImageFix" stdDeviation="40"/>
<feComposite in2="SourceAlpha" operator="in" result="effect1_backgroundBlur_839_53"/>
<feColorMatrix in="SourceAlpha" type="matrix" values="0 0 0 0 0 0 0 0 0 0 0 0 0 0 0 0 0 0 127 0" result="hardAlpha"/>
<feOffset dy="3.6"/>
<feGaussianBlur stdDeviation="1.8"/>
<feComposite in2="hardAlpha" operator="out"/>
<feColorMatrix type="matrix" values="0 0 0 0 0 0 0 0 0 0 0 0 0 0 0 0 0 0 0.25 0"/>
<feBlend mode="normal" in2="effect1_backgroundBlur_839_53" result="effect2_dropShadow_839_53"/>
<feBlend mode="normal" in="SourceGraphic" in2="effect2_dropShadow_839_53" result="shape"/>
</filter>
<linearGradient id="paint0_linear_839_53" x1="107" y1="-33.6789" x2="107" y2="453" gradientUnits="userSpaceOnUse">
<stop stop-color="#D8F5DD"/>
<stop offset="1" stop-color="#D8F5DD" stop-opacity="0"/>
</linearGradient>
</defs>
</svg>