<svg xmlns="http://www.w3.org/2000/svg" width="214" height="461" viewBox="0 0 214 461" fill="none">
<g filter="url(#filter0_bd_626_1083)">
<rect x="4" width="206" height="453" rx="103" fill="url(#paint0_linear_626_1083)" shape-rendering="crispEdges"/>
</g>
<path d="M55.1719 60.7695H41.5898V58.9883H55.1719V60.7695ZM58.4062 68.1875H39.1875V66.3828H58.4062V68.1875ZM49.8633 72.4414H47.6484V67.6133H49.8633V72.4414ZM55.9688 60.5352C55.9688 61.7539 55.9297 62.8672 55.8516 63.875C55.7734 64.875 55.5859 66.0117 55.2891 67.2852L53.1094 67.0273C53.3047 66.1836 53.4492 65.3945 53.543 64.6602C53.6367 63.918 53.6953 63.2617 53.7188 62.6914C53.7422 62.1211 53.7539 61.457 53.7539 60.6992V60.5352V58.9883H55.9688V60.5352ZM56.0742 78.9805H53.8359V73.5664H41.1562V71.7617H56.0742V78.9805ZM76.2891 78.9688H74.0742V57.9805H76.2891V78.9688ZM79.5469 68.2227H75.7148V66.3711H79.5469V68.2227ZM70.793 60.207C70.7852 62.3008 70.457 64.2617 69.8086 66.0898C69.1602 67.918 68.1211 69.6016 66.6914 71.1406C65.2695 72.6797 63.4375 74 61.1953 75.1016L59.9531 73.3672C61.875 72.4062 63.4766 71.2891 64.7578 70.0156C66.0469 68.7422 67.0078 67.3203 67.6406 65.75C68.2812 64.1797 68.6055 62.4609 68.6133 60.5938V60.207H70.793ZM69.7383 62.0586H60.9844V60.207H69.7383V62.0586ZM98.9531 64.7539H94.957V62.9375H98.9531V64.7539ZM98.9531 71.1875H94.957V69.3477H98.9531V71.1875ZM104.602 78.9805H102.457V57.9805H104.602V78.9805ZM100.383 77.9492H98.2734V58.3789H100.383V77.9492ZM91.3008 59.6562C92.207 59.6562 93.0039 59.9609 93.6914 60.5703C94.3867 61.1719 94.9219 62.0312 95.2969 63.1484C95.6797 64.2578 95.8711 65.5625 95.8711 67.0625C95.8711 68.5625 95.6797 69.8711 95.2969 70.9883C94.9219 72.1055 94.3867 72.9688 93.6914 73.5781C93.0039 74.1797 92.207 74.4805 91.3008 74.4805C90.3867 74.4805 89.5898 74.1797 88.9102 73.5781C88.2383 72.9688 87.7109 72.1055 87.3281 70.9883C86.9531 69.8711 86.7656 68.5625 86.7656 67.0625C86.7656 65.5625 86.9531 64.2578 87.3281 63.1484C87.7109 62.0312 88.2383 61.1719 88.9102 60.5703C89.5898 59.9609 90.3867 59.6562 91.3008 59.6562ZM91.3008 61.7656C90.7852 61.7656 90.3398 61.9727 89.9648 62.3867C89.5977 62.8008 89.3125 63.4102 89.1094 64.2148C88.9062 65.0117 88.8047 65.9609 88.8047 67.0625C88.8047 68.1719 88.9062 69.1211 89.1094 69.9102C89.3125 70.6992 89.5977 71.3047 89.9648 71.7266C90.3398 72.1484 90.7852 72.3555 91.3008 72.3477C91.8086 72.3555 92.2539 72.1484 92.6367 71.7266C93.0195 71.3047 93.3125 70.6992 93.5156 69.9102C93.7188 69.1133 93.8203 68.1641 93.8203 67.0625C93.8203 65.9609 93.7188 65.0117 93.5156 64.2148C93.3125 63.4102 93.0195 62.8008 92.6367 62.3867C92.2539 61.9727 91.8086 61.7656 91.3008 61.7656ZM114.211 61.7773C114.211 63.1445 113.977 64.4141 113.508 65.5859C113.039 66.7578 112.363 67.7812 111.48 68.6562C110.598 69.5234 109.551 70.1797 108.34 70.625L107.109 68.8555C108.195 68.4883 109.133 67.9453 109.922 67.2266C110.719 66.5078 111.324 65.6836 111.738 64.7539C112.152 63.8164 112.359 62.8242 112.359 61.7773V59.2812H114.211V61.7773ZM114.562 61.8242C114.562 62.7695 114.77 63.6758 115.184 64.543C115.605 65.4023 116.203 66.168 116.977 66.8398C117.758 67.5117 118.672 68.0273 119.719 68.3867L118.57 70.1445C117.383 69.7305 116.355 69.1094 115.488 68.2812C114.621 67.4453 113.953 66.4766 113.484 65.375C113.016 64.2734 112.781 63.0898 112.781 61.8242V59.2812H114.562V61.8242ZM123.773 73.4609H121.559V57.9922H123.773V73.4609ZM126.832 66.1953H123.094V64.3086H126.832V66.1953ZM124.676 78.5703H110.484V76.7305H124.676V78.5703ZM112.758 77.6562H110.484V71.9609H112.758V77.6562ZM144.738 59.3047C144.738 61.0703 144.352 62.6641 143.578 64.0859C142.805 65.5078 141.688 66.7305 140.227 67.7539C138.766 68.7773 137.016 69.5781 134.977 70.1562L134.074 68.4102C135.816 67.9258 137.312 67.2852 138.562 66.4883C139.82 65.6836 140.773 64.7578 141.422 63.7109C142.078 62.6641 142.41 61.5312 142.418 60.3125V59.3047H144.738ZM143.906 61.1094H135.176V59.3047H143.906V61.1094ZM151.383 69.8984H149.156V58.0039H151.383V69.8984ZM149.52 65.1172H144.809V63.2773H149.52V65.1172ZM151.383 78.7109H137.66V70.7891H151.383V78.7109ZM139.816 76.9297H149.18V72.5469H139.816V76.9297ZM171.668 70.5312H157.02V68.75H171.668V70.5312ZM173.836 76.4609H154.617V74.6445H173.836V76.4609ZM165.305 75.4531H163.09V69.6523H165.305V75.4531ZM171.457 61.4258H159.293V69.4414H157.02V59.6094H171.457V61.4258ZM170.988 65.9141H158.602V64.1328H170.988V65.9141Z" fill="#0E0E0E"/>
<defs>
<filter id="filter0_bd_626_1083" x="-76" y="-80" width="366" height="613" filterUnits="userSpaceOnUse" color-interpolation-filters="sRGB">
<feFlood flood-opacity="0" result="BackgroundImageFix"/>
<feGaussianBlur in="BackgroundImageFix" stdDeviation="40"/>
<feComposite in2="SourceAlpha" operator="in" result="effect1_backgroundBlur_626_1083"/>
<feColorMatrix in="SourceAlpha" type="matrix" values="0 0 0 0 0 0 0 0 0 0 0 0 0 0 0 0 0 0 127 0" result="hardAlpha"/>
<feOffset dy="3.6"/>
<feGaussianBlur stdDeviation="1.8"/>
<feComposite in2="hardAlpha" operator="out"/>
<feColorMatrix type="matrix" values="0 0 0 0 0 0 0 0 0 0 0 0 0 0 0 0 0 0 0.25 0"/>
<feBlend mode="normal" in2="effect1_backgroundBlur_626_1083" result="effect2_dropShadow_626_1083"/>
<feBlend mode="normal" in="SourceGraphic" in2="effect2_dropShadow_626_1083" result="shape"/>
</filter>
<linearGradient id="paint0_linear_626_1083" x1="107" y1="0" x2="107" y2="453" gradientUnits="userSpaceOnUse">
<stop offset="0.06" stop-color="#F6F6F6" stop-opacity="0.9"/>
<stop offset="1" stop-color="#F6F6F6" stop-opacity="0"/>
</linearGradient>
</defs>
</svg>