<svg xmlns="http://www.w3.org/2000/svg" width="214" height="461" viewBox="0 0 214 461" fill="none">
<g filter="url(#filter0_bd_626_798)">
<rect x="4" width="206" height="453" rx="103" fill="url(#paint0_linear_626_798)" shape-rendering="crispEdges"/>
</g>
<path d="M81.7734 60.7695H68.1914V58.9883H81.7734V60.7695ZM85.0078 68.1875H65.7891V66.3828H85.0078V68.1875ZM76.4648 72.4414H74.25V67.6133H76.4648V72.4414ZM82.5703 60.5352C82.5703 61.7539 82.5312 62.8672 82.4531 63.875C82.375 64.875 82.1875 66.0117 81.8906 67.2852L79.7109 67.0273C79.9062 66.1836 80.0508 65.3945 80.1445 64.6602C80.2383 63.918 80.2969 63.2617 80.3203 62.6914C80.3438 62.1211 80.3555 61.457 80.3555 60.6992V60.5352V58.9883H82.5703V60.5352ZM82.6758 78.9805H80.4375V73.5664H67.7578V71.7617H82.6758V78.9805ZM102.891 78.9688H100.676V57.9805H102.891V78.9688ZM106.148 68.2227H102.316V66.3711H106.148V68.2227ZM97.3945 60.207C97.3867 62.3008 97.0586 64.2617 96.4102 66.0898C95.7617 67.918 94.7227 69.6016 93.293 71.1406C91.8711 72.6797 90.0391 74 87.7969 75.1016L86.5547 73.3672C88.4766 72.4062 90.0781 71.2891 91.3594 70.0156C92.6484 68.7422 93.6094 67.3203 94.2422 65.75C94.8828 64.1797 95.207 62.4609 95.2148 60.5938V60.207H97.3945ZM96.3398 62.0586H87.5859V60.207H96.3398V62.0586ZM119.695 64.7539H115.699V62.9375H119.695V64.7539ZM119.695 71.1875H115.699V69.3477H119.695V71.1875ZM125.344 78.9805H123.199V57.9805H125.344V78.9805ZM121.125 77.9492H119.016V58.3789H121.125V77.9492ZM112.043 59.6562C112.949 59.6562 113.746 59.9609 114.434 60.5703C115.129 61.1719 115.664 62.0312 116.039 63.1484C116.422 64.2578 116.613 65.5625 116.613 67.0625C116.613 68.5625 116.422 69.8711 116.039 70.9883C115.664 72.1055 115.129 72.9688 114.434 73.5781C113.746 74.1797 112.949 74.4805 112.043 74.4805C111.129 74.4805 110.332 74.1797 109.652 73.5781C108.98 72.9688 108.453 72.1055 108.07 70.9883C107.695 69.8711 107.508 68.5625 107.508 67.0625C107.508 65.5625 107.695 64.2578 108.07 63.1484C108.453 62.0312 108.98 61.1719 109.652 60.5703C110.332 59.9609 111.129 59.6562 112.043 59.6562ZM112.043 61.7656C111.527 61.7656 111.082 61.9727 110.707 62.3867C110.34 62.8008 110.055 63.4102 109.852 64.2148C109.648 65.0117 109.547 65.9609 109.547 67.0625C109.547 68.1719 109.648 69.1211 109.852 69.9102C110.055 70.6992 110.34 71.3047 110.707 71.7266C111.082 72.1484 111.527 72.3555 112.043 72.3477C112.551 72.3555 112.996 72.1484 113.379 71.7266C113.762 71.3047 114.055 70.6992 114.258 69.9102C114.461 69.1133 114.562 68.1641 114.562 67.0625C114.562 65.9609 114.461 65.0117 114.258 64.2148C114.055 63.4102 113.762 62.8008 113.379 62.3867C112.996 61.9727 112.551 61.7656 112.043 61.7656ZM134.953 61.7773C134.953 63.1445 134.719 64.4141 134.25 65.5859C133.781 66.7578 133.105 67.7812 132.223 68.6562C131.34 69.5234 130.293 70.1797 129.082 70.625L127.852 68.8555C128.938 68.4883 129.875 67.9453 130.664 67.2266C131.461 66.5078 132.066 65.6836 132.48 64.7539C132.895 63.8164 133.102 62.8242 133.102 61.7773V59.2812H134.953V61.7773ZM135.305 61.8242C135.305 62.7695 135.512 63.6758 135.926 64.543C136.348 65.4023 136.945 66.168 137.719 66.8398C138.5 67.5117 139.414 68.0273 140.461 68.3867L139.312 70.1445C138.125 69.7305 137.098 69.1094 136.23 68.2812C135.363 67.4453 134.695 66.4766 134.227 65.375C133.758 64.2734 133.523 63.0898 133.523 61.8242V59.2812H135.305V61.8242ZM144.516 73.4609H142.301V57.9922H144.516V73.4609ZM147.574 66.1953H143.836V64.3086H147.574V66.1953ZM145.418 78.5703H131.227V76.7305H145.418V78.5703ZM133.5 77.6562H131.227V71.9609H133.5V77.6562ZM104.039 102.566H101.812V86.9805H104.039V102.566ZM98.2969 90.4258H87.1289V88.6328H98.2969V90.4258ZM86.6719 97.7383C89.0156 97.7305 91.1953 97.6953 93.2109 97.6328C95.2344 97.5625 97.1172 97.4297 98.8594 97.2344L98.9648 98.875C97.168 99.1562 95.2539 99.3477 93.2227 99.4492C91.1992 99.543 89.0664 99.5898 86.8242 99.5898L86.5547 97.7383H86.6719ZM91.2656 98.043H89.1094V90.1914H91.2656V98.043ZM96.293 98.043H94.1484V90.1914H96.293V98.043ZM102.984 92.7109H98.5312V90.8945H102.984V92.7109ZM102.984 96.7773H98.5312V94.9258H102.984V96.7773ZM104.578 107.57H90.3516V105.73H104.578V107.57ZM92.6016 106.973H90.3516V101.312H92.6016V106.973ZM114.328 90.2383C114.328 91.6055 114.09 92.8828 113.613 94.0703C113.145 95.25 112.465 96.2773 111.574 97.1523C110.684 98.0195 109.625 98.6758 108.398 99.1211L107.191 97.3164C108.293 96.9414 109.246 96.3984 110.051 95.6875C110.855 94.9766 111.465 94.1523 111.879 93.2148C112.301 92.2773 112.516 91.2852 112.523 90.2383V88.1523H114.328V90.2383ZM114.738 90.1328C114.73 91.1172 114.93 92.0469 115.336 92.9219C115.742 93.7891 116.328 94.5586 117.094 95.2305C117.859 95.8945 118.766 96.3984 119.812 96.7422L118.582 98.4766C117.41 98.0469 116.402 97.4258 115.559 96.6133C114.715 95.8008 114.062 94.8438 113.602 93.7422C113.148 92.6406 112.922 91.4375 112.922 90.1328V88.1523H114.738V90.1328ZM124.781 99.3789H122.555V86.9805H124.781V99.3789ZM117.738 99.9766C119.207 99.9766 120.473 100.133 121.535 100.445C122.598 100.758 123.414 101.215 123.984 101.816C124.562 102.418 124.852 103.141 124.852 103.984C124.852 104.82 124.562 105.535 123.984 106.129C123.414 106.723 122.598 107.176 121.535 107.488C120.473 107.801 119.207 107.957 117.738 107.957C116.277 107.957 115.016 107.801 113.953 107.488C112.891 107.176 112.074 106.723 111.504 106.129C110.934 105.535 110.648 104.82 110.648 103.984C110.648 103.141 110.934 102.418 111.504 101.816C112.074 101.215 112.891 100.758 113.953 100.445C115.016 100.133 116.277 99.9766 117.738 99.9766ZM117.738 101.711C116.715 101.719 115.836 101.809 115.102 101.98C114.375 102.152 113.816 102.41 113.426 102.754C113.043 103.098 112.852 103.508 112.852 103.984C112.852 104.445 113.043 104.84 113.426 105.168C113.816 105.496 114.375 105.75 115.102 105.93C115.836 106.109 116.715 106.199 117.738 106.199C118.762 106.199 119.641 106.109 120.375 105.93C121.109 105.75 121.668 105.496 122.051 105.168C122.441 104.84 122.637 104.445 122.637 103.984C122.637 103.508 122.441 103.098 122.051 102.754C121.668 102.41 121.109 102.152 120.375 101.98C119.641 101.809 118.762 101.719 117.738 101.711ZM122.953 93.0977H118.125V91.2695H122.953V93.0977Z" fill="#0E0E0E"/>
<defs>
<filter id="filter0_bd_626_798" x="-76" y="-80" width="366" height="613" filterUnits="userSpaceOnUse" color-interpolation-filters="sRGB">
<feFlood flood-opacity="0" result="BackgroundImageFix"/>
<feGaussianBlur in="BackgroundImageFix" stdDeviation="40"/>
<feComposite in2="SourceAlpha" operator="in" result="effect1_backgroundBlur_626_798"/>
<feColorMatrix in="SourceAlpha" type="matrix" values="0 0 0 0 0 0 0 0 0 0 0 0 0 0 0 0 0 0 127 0" result="hardAlpha"/>
<feOffset dy="3.6"/>
<feGaussianBlur stdDeviation="1.8"/>
<feComposite in2="hardAlpha" operator="out"/>
<feColorMatrix type="matrix" values="0 0 0 0 0 0 0 0 0 0 0 0 0 0 0 0 0 0 0.25 0"/>
<feBlend mode="normal" in2="effect1_backgroundBlur_626_798" result="effect2_dropShadow_626_798"/>
<feBlend mode="normal" in="SourceGraphic" in2="effect2_dropShadow_626_798" result="shape"/>
</filter>
<linearGradient id="paint0_linear_626_798" x1="107" y1="0" x2="107" y2="453" gradientUnits="userSpaceOnUse">
<stop offset="0.06" stop-color="#F6F6F6" stop-opacity="0.9"/>
<stop offset="1" stop-color="#F6F6F6" stop-opacity="0"/>
</linearGradient>
</defs>
</svg>