<svg xmlns="http://www.w3.org/2000/svg" width="214" height="461" viewBox="0 0 214 461" fill="none">
<g filter="url(#filter0_bd_626_802)">
<rect x="4" width="206" height="453" rx="103" fill="url(#paint0_linear_626_802)" shape-rendering="crispEdges"/>
</g>
<path d="M81.7734 60.7695H68.1914V58.9883H81.7734V60.7695ZM85.0078 68.1875H65.7891V66.3828H85.0078V68.1875ZM76.4648 72.4414H74.25V67.6133H76.4648V72.4414ZM82.5703 60.5352C82.5703 61.7539 82.5312 62.8672 82.4531 63.875C82.375 64.875 82.1875 66.0117 81.8906 67.2852L79.7109 67.0273C79.9062 66.1836 80.0508 65.3945 80.1445 64.6602C80.2383 63.918 80.2969 63.2617 80.3203 62.6914C80.3438 62.1211 80.3555 61.457 80.3555 60.6992V60.5352V58.9883H82.5703V60.5352ZM82.6758 78.9805H80.4375V73.5664H67.7578V71.7617H82.6758V78.9805ZM104.555 78.9805H102.445V57.9805H104.555V78.9805ZM98.8359 67.2383H94.9102V65.4453H98.8359V67.2383ZM100.289 77.9375H98.1914V58.4492H100.289V77.9375ZM92.4375 63.8516C92.4297 65.4062 92.2383 66.9023 91.8633 68.3398C91.4883 69.7695 90.9375 71.0586 90.2109 72.207C89.4922 73.3477 88.6211 74.2344 87.5977 74.8672L86.2148 73.2031C87.1758 72.625 87.9961 71.8438 88.6758 70.8594C89.3633 69.8672 89.875 68.7695 90.2109 67.5664C90.5469 66.3633 90.7148 65.125 90.7148 63.8516V61.2969H92.4375V63.8516ZM92.8594 63.8516C92.8594 65.0781 93.0234 66.2617 93.3516 67.4023C93.6875 68.543 94.1836 69.582 94.8398 70.5195C95.5039 71.4492 96.3125 72.1875 97.2656 72.7344L95.9297 74.375C94.8984 73.7578 94.0312 72.9102 93.3281 71.832C92.625 70.7539 92.0938 69.5352 91.7344 68.1758C91.375 66.8086 91.1992 65.3672 91.207 63.8516V61.2969H92.8594V63.8516ZM96.4805 62.1641H86.8711V60.3477H96.4805V62.1641ZM126.469 70.4141H107.25V68.6094H126.469V70.4141ZM118.148 74.4922H115.945V69.7344H118.148V74.4922ZM123.984 66.4297H109.723V58.9883H123.984V66.4297ZM111.902 64.6719H121.793V60.7227H111.902V64.6719ZM124.336 78.5703H109.641V76.7305H124.336V78.5703ZM111.867 77.3516H109.641V72.4883H111.867V77.3516ZM146.039 78.9805H143.93V57.9805H146.039V78.9805ZM140.32 67.2383H136.395V65.4453H140.32V67.2383ZM141.773 77.9375H139.676V58.4492H141.773V77.9375ZM133.922 63.8516C133.914 65.4062 133.723 66.9023 133.348 68.3398C132.973 69.7695 132.422 71.0586 131.695 72.207C130.977 73.3477 130.105 74.2344 129.082 74.8672L127.699 73.2031C128.66 72.625 129.48 71.8438 130.16 70.8594C130.848 69.8672 131.359 68.7695 131.695 67.5664C132.031 66.3633 132.199 65.125 132.199 63.8516V61.2969H133.922V63.8516ZM134.344 63.8516C134.344 65.0781 134.508 66.2617 134.836 67.4023C135.172 68.543 135.668 69.582 136.324 70.5195C136.988 71.4492 137.797 72.1875 138.75 72.7344L137.414 74.375C136.383 73.7578 135.516 72.9102 134.812 71.832C134.109 70.7539 133.578 69.5352 133.219 68.1758C132.859 66.8086 132.684 65.3672 132.691 63.8516V61.2969H134.344V63.8516ZM137.965 62.1641H128.355V60.3477H137.965V62.1641ZM93.3867 88.4688C94.4727 88.4688 95.4492 88.6836 96.3164 89.1133C97.1836 89.5352 97.8594 90.1289 98.3438 90.8945C98.8359 91.6523 99.082 92.5156 99.082 93.4844C99.082 94.4531 98.8359 95.3203 98.3438 96.0859C97.8594 96.8438 97.1836 97.4375 96.3164 97.8672C95.4492 98.2891 94.4727 98.5 93.3867 98.5C92.2852 98.5 91.2969 98.2891 90.4219 97.8672C89.5547 97.4375 88.875 96.8438 88.3828 96.0859C87.8984 95.3203 87.6562 94.4531 87.6562 93.4844C87.6562 92.5156 87.8984 91.6523 88.3828 90.8945C88.875 90.1289 89.5547 89.5352 90.4219 89.1133C91.2969 88.6836 92.2852 88.4688 93.3867 88.4688ZM93.3867 90.4141C92.707 90.4141 92.0977 90.5391 91.5586 90.7891C91.0273 91.0391 90.6094 91.4023 90.3047 91.8789C90 92.3477 89.8477 92.8828 89.8477 93.4844C89.8477 94.0938 90 94.6289 90.3047 95.0898C90.6094 95.5508 91.0273 95.9102 91.5586 96.168C92.0977 96.4258 92.707 96.5547 93.3867 96.5547C94.0586 96.5547 94.6641 96.4258 95.2031 96.168C95.7422 95.9102 96.1602 95.5508 96.457 95.0898C96.7617 94.6289 96.9141 94.0938 96.9141 93.4844C96.9141 92.8828 96.7617 92.3477 96.457 91.8789C96.1602 91.4023 95.7422 91.0391 95.2031 90.7891C94.6641 90.5391 94.0586 90.4141 93.3867 90.4141ZM103.898 108.039H101.684V86.9805H103.898V108.039ZM86.6367 101.664C89.2227 101.664 91.6484 101.621 93.9141 101.535C96.1797 101.449 98.3281 101.258 100.359 100.961L100.523 102.59C99.0625 102.863 97.5391 103.066 95.9531 103.199C94.375 103.332 92.8945 103.418 91.5117 103.457C90.1289 103.496 88.6016 103.516 86.9297 103.516L86.6367 101.664ZM124.781 97.668H122.555V86.9805H124.781V97.668ZM118.184 87.9648C118.176 89.7305 117.793 91.2891 117.035 92.6406C116.277 93.9922 115.168 95.1289 113.707 96.0508C112.246 96.9648 110.469 97.6641 108.375 98.1484L107.59 96.3203C109.379 95.9219 110.883 95.375 112.102 94.6797C113.32 93.9844 114.234 93.1641 114.844 92.2188C115.461 91.2734 115.77 90.2266 115.77 89.0781V87.9648H118.184ZM116.719 89.7812H108.691V87.9648H116.719V89.7812ZM122.871 91.6562H117.398V89.9102H122.871V91.6562ZM122.754 95.6758H117.223V93.9414H122.754V95.6758ZM124.781 103.891H113.309V107.043H111.094V102.215H122.543V100.34H111.059V98.5586H124.781V103.891ZM125.402 107.793H111.094V105.988H125.402V107.793Z" fill="#0E0E0E"/>
<defs>
<filter id="filter0_bd_626_802" x="-76" y="-80" width="366" height="613" filterUnits="userSpaceOnUse" color-interpolation-filters="sRGB">
<feFlood flood-opacity="0" result="BackgroundImageFix"/>
<feGaussianBlur in="BackgroundImageFix" stdDeviation="40"/>
<feComposite in2="SourceAlpha" operator="in" result="effect1_backgroundBlur_626_802"/>
<feColorMatrix in="SourceAlpha" type="matrix" values="0 0 0 0 0 0 0 0 0 0 0 0 0 0 0 0 0 0 127 0" result="hardAlpha"/>
<feOffset dy="3.6"/>
<feGaussianBlur stdDeviation="1.8"/>
<feComposite in2="hardAlpha" operator="out"/>
<feColorMatrix type="matrix" values="0 0 0 0 0 0 0 0 0 0 0 0 0 0 0 0 0 0 0.25 0"/>
<feBlend mode="normal" in2="effect1_backgroundBlur_626_802" result="effect2_dropShadow_626_802"/>
<feBlend mode="normal" in="SourceGraphic" in2="effect2_dropShadow_626_802" result="shape"/>
</filter>
<linearGradient id="paint0_linear_626_802" x1="107" y1="0" x2="107" y2="453" gradientUnits="userSpaceOnUse">
<stop offset="0.06" stop-color="#F6F6F6" stop-opacity="0.9"/>
<stop offset="1" stop-color="#F6F6F6" stop-opacity="0"/>
</linearGradient>
</defs>
</svg>