<svg xmlns="http://www.w3.org/2000/svg" width="214" height="461" viewBox="0 0 214 461" fill="none">
<g filter="url(#filter0_bd_839_49)">
<rect x="4" width="206" height="453" rx="103" fill="url(#paint0_linear_839_49)" shape-rendering="crispEdges"/>
</g>
<mask id="path-2-outside-1_839_49" maskUnits="userSpaceOnUse" x="64" y="56" width="84" height="54" fill="black">
<rect fill="white" x="64" y="56" width="84" height="54"/>
<path d="M81.5742 61.4961H67.875V58.543H81.5742V61.4961ZM85.3125 68.8203H65.5312V65.8438H85.3125V68.8203ZM77.2617 72.1953H73.4883V67.9531H77.2617V72.1953ZM83.1328 60.3242C83.1328 61.6367 83.0938 62.8047 83.0156 63.8281C82.9453 64.8438 82.7656 65.9766 82.4766 67.2266L78.75 66.8633C78.9297 66.0508 79.0625 65.2812 79.1484 64.5547C79.2422 63.8281 79.3008 63.1797 79.3242 62.6094C79.3555 62.0391 79.375 61.3477 79.3828 60.5352V60.3242V58.543H83.1328V60.3242ZM83.0742 79.3203H79.3008V74.2578H67.4531V71.3398H83.0742V79.3203ZM105.094 79.3203H101.578V57.6406H105.094V79.3203ZM98.0742 67.8594H94.793V64.8594H98.0742V67.8594ZM100.641 78.418H97.1367V57.9102H100.641V78.418ZM92.6133 63.2188C92.6055 64.9922 92.4492 66.6602 92.1445 68.2227C91.8477 69.7852 91.3516 71.1992 90.6562 72.4648C89.9688 73.7305 89.0547 74.7109 87.9141 75.4062L85.6758 72.6641C86.7227 72 87.5508 71.168 88.1602 70.168C88.7773 69.168 89.2031 68.0859 89.4375 66.9219C89.6797 65.7578 89.8047 64.5234 89.8125 63.2188V61.2969H92.6133V63.2188ZM93.4219 63.2188C93.4141 64.5078 93.5234 65.7109 93.75 66.8281C93.9844 67.9375 94.4023 68.957 95.0039 69.8867C95.6055 70.8164 96.4258 71.5781 97.4648 72.1719L95.2969 74.9141C94.1406 74.25 93.2188 73.3242 92.5312 72.1367C91.8516 70.9492 91.3711 69.6133 91.0898 68.1289C90.8086 66.6367 90.668 65 90.668 63.2188V61.2969H93.4219V63.2188ZM96.2695 62.6211H86.6367V59.6445H96.2695V62.6211ZM126.773 71.0938H106.992V68.1289H126.773V71.0938ZM119.062 74.3867H115.359V69.9922H119.062V74.3867ZM124.289 66.8047H109.383V58.543H124.289V66.8047ZM113.051 63.9102H120.609V61.4258H113.051V63.9102ZM124.617 79.0273H109.16V76.0273H124.617V79.0273ZM112.91 77H109.16V72.6523H112.91V77ZM146.578 79.3203H143.062V57.6406H146.578V79.3203ZM139.559 67.8594H136.277V64.8594H139.559V67.8594ZM142.125 78.418H138.621V57.9102H142.125V78.418ZM134.098 63.2188C134.09 64.9922 133.934 66.6602 133.629 68.2227C133.332 69.7852 132.836 71.1992 132.141 72.4648C131.453 73.7305 130.539 74.7109 129.398 75.4062L127.16 72.6641C128.207 72 129.035 71.168 129.645 70.168C130.262 69.168 130.688 68.0859 130.922 66.9219C131.164 65.7578 131.289 64.5234 131.297 63.2188V61.2969H134.098V63.2188ZM134.906 63.2188C134.898 64.5078 135.008 65.7109 135.234 66.8281C135.469 67.9375 135.887 68.957 136.488 69.8867C137.09 70.8164 137.91 71.5781 138.949 72.1719L136.781 74.9141C135.625 74.25 134.703 73.3242 134.016 72.1367C133.336 70.9492 132.855 69.6133 132.574 68.1289C132.293 66.6367 132.152 65 132.152 63.2188V61.2969H134.906V63.2188ZM137.754 62.6211H128.121V59.6445H137.754V62.6211ZM93.2227 88.0117C94.3633 88.0117 95.3984 88.25 96.3281 88.7266C97.2578 89.1953 97.9883 89.8477 98.5195 90.6836C99.0586 91.5195 99.3281 92.4531 99.3281 93.4844C99.3281 94.5234 99.0586 95.4609 98.5195 96.2969C97.9883 97.125 97.2578 97.7773 96.3281 98.2539C95.3984 98.7227 94.3633 98.957 93.2227 98.957C92.0898 98.957 91.0547 98.7227 90.1172 98.2539C89.1875 97.7773 88.4492 97.125 87.9023 96.2969C87.3633 95.4609 87.0938 94.5234 87.0938 93.4844C87.0938 92.4531 87.3633 91.5195 87.9023 90.6836C88.4492 89.8477 89.1875 89.1953 90.1172 88.7266C91.0547 88.25 92.0898 88.0117 93.2227 88.0117ZM93.2227 91.2461C92.7695 91.2539 92.3633 91.3398 92.0039 91.5039C91.6445 91.668 91.3594 91.9219 91.1484 92.2656C90.9453 92.6016 90.8438 93.0078 90.8438 93.4844C90.8438 93.9766 90.9453 94.3906 91.1484 94.7266C91.3594 95.0547 91.6445 95.3008 92.0039 95.4648C92.3633 95.6289 92.7695 95.7148 93.2227 95.7227C93.6914 95.7148 94.1094 95.6289 94.4766 95.4648C94.8516 95.3008 95.1445 95.0547 95.3555 94.7266C95.5664 94.3906 95.6719 93.9766 95.6719 93.4844C95.6719 93.0078 95.5664 92.6016 95.3555 92.2656C95.1445 91.9219 94.8516 91.668 94.4766 91.5039C94.1094 91.3398 93.6914 91.2539 93.2227 91.2461ZM104.73 108.391H100.992V86.6406H104.73V108.391ZM86.3203 101.184C88.8438 101.176 91.2344 101.129 93.4922 101.043C95.75 100.949 97.8867 100.77 99.9023 100.504L100.172 103.188C98.7188 103.477 97.2109 103.695 95.6484 103.844C94.0859 103.984 92.6055 104.078 91.207 104.125C89.8086 104.164 88.3164 104.18 86.7305 104.172L86.3203 101.184ZM125.438 97.457H121.699V86.6406H125.438V97.457ZM118.301 87.3438C118.293 89.3203 117.938 91.0117 117.234 92.418C116.531 93.8242 115.453 94.9844 114 95.8984C112.555 96.8047 110.703 97.4883 108.445 97.9492L107.191 94.9258C108.902 94.6211 110.277 94.1992 111.316 93.6602C112.363 93.1133 113.105 92.4883 113.543 91.7852C113.98 91.082 114.203 90.2969 114.211 89.4297V87.3438H118.301ZM115.711 90.3203H108.48V87.3438H115.711V90.3203ZM122.098 91.9141H117.398V89.1133H122.098V91.9141ZM121.98 96.168H117.281V93.3438H121.98V96.168ZM125.438 104.453H114.586V106.703H110.836V101.699H121.664V101.031H110.812V98.1133H125.438V104.453ZM125.742 108.109H110.836V105.168H125.742V108.109Z"/>
</mask>
<path d="M81.5742 61.4961H67.875V58.543H81.5742V61.4961ZM85.3125 68.8203H65.5312V65.8438H85.3125V68.8203ZM77.2617 72.1953H73.4883V67.9531H77.2617V72.1953ZM83.1328 60.3242C83.1328 61.6367 83.0938 62.8047 83.0156 63.8281C82.9453 64.8438 82.7656 65.9766 82.4766 67.2266L78.75 66.8633C78.9297 66.0508 79.0625 65.2812 79.1484 64.5547C79.2422 63.8281 79.3008 63.1797 79.3242 62.6094C79.3555 62.0391 79.375 61.3477 79.3828 60.5352V60.3242V58.543H83.1328V60.3242ZM83.0742 79.3203H79.3008V74.2578H67.4531V71.3398H83.0742V79.3203ZM105.094 79.3203H101.578V57.6406H105.094V79.3203ZM98.0742 67.8594H94.793V64.8594H98.0742V67.8594ZM100.641 78.418H97.1367V57.9102H100.641V78.418ZM92.6133 63.2188C92.6055 64.9922 92.4492 66.6602 92.1445 68.2227C91.8477 69.7852 91.3516 71.1992 90.6562 72.4648C89.9688 73.7305 89.0547 74.7109 87.9141 75.4062L85.6758 72.6641C86.7227 72 87.5508 71.168 88.1602 70.168C88.7773 69.168 89.2031 68.0859 89.4375 66.9219C89.6797 65.7578 89.8047 64.5234 89.8125 63.2188V61.2969H92.6133V63.2188ZM93.4219 63.2188C93.4141 64.5078 93.5234 65.7109 93.75 66.8281C93.9844 67.9375 94.4023 68.957 95.0039 69.8867C95.6055 70.8164 96.4258 71.5781 97.4648 72.1719L95.2969 74.9141C94.1406 74.25 93.2188 73.3242 92.5312 72.1367C91.8516 70.9492 91.3711 69.6133 91.0898 68.1289C90.8086 66.6367 90.668 65 90.668 63.2188V61.2969H93.4219V63.2188ZM96.2695 62.6211H86.6367V59.6445H96.2695V62.6211ZM126.773 71.0938H106.992V68.1289H126.773V71.0938ZM119.062 74.3867H115.359V69.9922H119.062V74.3867ZM124.289 66.8047H109.383V58.543H124.289V66.8047ZM113.051 63.9102H120.609V61.4258H113.051V63.9102ZM124.617 79.0273H109.16V76.0273H124.617V79.0273ZM112.91 77H109.16V72.6523H112.91V77ZM146.578 79.3203H143.062V57.6406H146.578V79.3203ZM139.559 67.8594H136.277V64.8594H139.559V67.8594ZM142.125 78.418H138.621V57.9102H142.125V78.418ZM134.098 63.2188C134.09 64.9922 133.934 66.6602 133.629 68.2227C133.332 69.7852 132.836 71.1992 132.141 72.4648C131.453 73.7305 130.539 74.7109 129.398 75.4062L127.16 72.6641C128.207 72 129.035 71.168 129.645 70.168C130.262 69.168 130.688 68.0859 130.922 66.9219C131.164 65.7578 131.289 64.5234 131.297 63.2188V61.2969H134.098V63.2188ZM134.906 63.2188C134.898 64.5078 135.008 65.7109 135.234 66.8281C135.469 67.9375 135.887 68.957 136.488 69.8867C137.09 70.8164 137.91 71.5781 138.949 72.1719L136.781 74.9141C135.625 74.25 134.703 73.3242 134.016 72.1367C133.336 70.9492 132.855 69.6133 132.574 68.1289C132.293 66.6367 132.152 65 132.152 63.2188V61.2969H134.906V63.2188ZM137.754 62.6211H128.121V59.6445H137.754V62.6211ZM93.2227 88.0117C94.3633 88.0117 95.3984 88.25 96.3281 88.7266C97.2578 89.1953 97.9883 89.8477 98.5195 90.6836C99.0586 91.5195 99.3281 92.4531 99.3281 93.4844C99.3281 94.5234 99.0586 95.4609 98.5195 96.2969C97.9883 97.125 97.2578 97.7773 96.3281 98.2539C95.3984 98.7227 94.3633 98.957 93.2227 98.957C92.0898 98.957 91.0547 98.7227 90.1172 98.2539C89.1875 97.7773 88.4492 97.125 87.9023 96.2969C87.3633 95.4609 87.0938 94.5234 87.0938 93.4844C87.0938 92.4531 87.3633 91.5195 87.9023 90.6836C88.4492 89.8477 89.1875 89.1953 90.1172 88.7266C91.0547 88.25 92.0898 88.0117 93.2227 88.0117ZM93.2227 91.2461C92.7695 91.2539 92.3633 91.3398 92.0039 91.5039C91.6445 91.668 91.3594 91.9219 91.1484 92.2656C90.9453 92.6016 90.8438 93.0078 90.8438 93.4844C90.8438 93.9766 90.9453 94.3906 91.1484 94.7266C91.3594 95.0547 91.6445 95.3008 92.0039 95.4648C92.3633 95.6289 92.7695 95.7148 93.2227 95.7227C93.6914 95.7148 94.1094 95.6289 94.4766 95.4648C94.8516 95.3008 95.1445 95.0547 95.3555 94.7266C95.5664 94.3906 95.6719 93.9766 95.6719 93.4844C95.6719 93.0078 95.5664 92.6016 95.3555 92.2656C95.1445 91.9219 94.8516 91.668 94.4766 91.5039C94.1094 91.3398 93.6914 91.2539 93.2227 91.2461ZM104.73 108.391H100.992V86.6406H104.73V108.391ZM86.3203 101.184C88.8438 101.176 91.2344 101.129 93.4922 101.043C95.75 100.949 97.8867 100.77 99.9023 100.504L100.172 103.188C98.7188 103.477 97.2109 103.695 95.6484 103.844C94.0859 103.984 92.6055 104.078 91.207 104.125C89.8086 104.164 88.3164 104.18 86.7305 104.172L86.3203 101.184ZM125.438 97.457H121.699V86.6406H125.438V97.457ZM118.301 87.3438C118.293 89.3203 117.938 91.0117 117.234 92.418C116.531 93.8242 115.453 94.9844 114 95.8984C112.555 96.8047 110.703 97.4883 108.445 97.9492L107.191 94.9258C108.902 94.6211 110.277 94.1992 111.316 93.6602C112.363 93.1133 113.105 92.4883 113.543 91.7852C113.98 91.082 114.203 90.2969 114.211 89.4297V87.3438H118.301ZM115.711 90.3203H108.48V87.3438H115.711V90.3203ZM122.098 91.9141H117.398V89.1133H122.098V91.9141ZM121.98 96.168H117.281V93.3438H121.98V96.168ZM125.438 104.453H114.586V106.703H110.836V101.699H121.664V101.031H110.812V98.1133H125.438V104.453ZM125.742 108.109H110.836V105.168H125.742V108.109Z" fill="#F6F6F6"/>
<path d="M81.5742 61.4961V62.4961H82.5742V61.4961H81.5742ZM67.875 61.4961H66.875V62.4961H67.875V61.4961ZM67.875 58.543V57.543H66.875V58.543H67.875ZM81.5742 58.543H82.5742V57.543H81.5742V58.543ZM85.3125 68.8203V69.8203H86.3125V68.8203H85.3125ZM65.5312 68.8203H64.5312V69.8203H65.5312V68.8203ZM65.5312 65.8438V64.8438H64.5312V65.8438H65.5312ZM85.3125 65.8438H86.3125V64.8438H85.3125V65.8438ZM77.2617 72.1953V73.1953H78.2617V72.1953H77.2617ZM73.4883 72.1953H72.4883V73.1953H73.4883V72.1953ZM73.4883 67.9531V66.9531H72.4883V67.9531H73.4883ZM77.2617 67.9531H78.2617V66.9531H77.2617V67.9531ZM83.0156 63.8281L82.0185 63.752L82.018 63.7591L83.0156 63.8281ZM82.4766 67.2266L82.3795 68.2218L83.2531 68.307L83.4509 67.4519L82.4766 67.2266ZM78.75 66.8633L77.7736 66.6473L77.5299 67.7491L78.653 67.8586L78.75 66.8633ZM79.1484 64.5547L78.1566 64.4267L78.1554 64.4372L79.1484 64.5547ZM79.3242 62.6094L78.3256 62.5547L78.3251 62.5683L79.3242 62.6094ZM79.3828 60.5352L80.3828 60.5448V60.5352H79.3828ZM79.3828 58.543V57.543H78.3828V58.543H79.3828ZM83.1328 58.543H84.1328V57.543H83.1328V58.543ZM83.0742 79.3203V80.3203H84.0742V79.3203H83.0742ZM79.3008 79.3203H78.3008V80.3203H79.3008V79.3203ZM79.3008 74.2578H80.3008V73.2578H79.3008V74.2578ZM67.4531 74.2578H66.4531V75.2578H67.4531V74.2578ZM67.4531 71.3398V70.3398H66.4531V71.3398H67.4531ZM83.0742 71.3398H84.0742V70.3398H83.0742V71.3398ZM81.5742 60.4961H67.875V62.4961H81.5742V60.4961ZM68.875 61.4961V58.543H66.875V61.4961H68.875ZM67.875 59.543H81.5742V57.543H67.875V59.543ZM80.5742 58.543V61.4961H82.5742V58.543H80.5742ZM85.3125 67.8203H65.5312V69.8203H85.3125V67.8203ZM66.5312 68.8203V65.8438H64.5312V68.8203H66.5312ZM65.5312 66.8438H85.3125V64.8438H65.5312V66.8438ZM84.3125 65.8438V68.8203H86.3125V65.8438H84.3125ZM77.2617 71.1953H73.4883V73.1953H77.2617V71.1953ZM74.4883 72.1953V67.9531H72.4883V72.1953H74.4883ZM73.4883 68.9531H77.2617V66.9531H73.4883V68.9531ZM76.2617 67.9531V72.1953H78.2617V67.9531H76.2617ZM82.1328 60.3242C82.1328 61.6179 82.0943 62.7597 82.0185 63.752L84.0127 63.9042C84.0932 62.8497 84.1328 61.6555 84.1328 60.3242H82.1328ZM82.018 63.7591C81.9521 64.7106 81.7824 65.7901 81.5023 67.0013L83.4509 67.4519C83.7489 66.1631 83.9385 64.9769 84.0132 63.8972L82.018 63.7591ZM82.5736 66.2313L78.847 65.868L78.653 67.8586L82.3795 68.2218L82.5736 66.2313ZM79.7264 67.0792C79.9123 66.2385 80.0512 65.4359 80.1415 64.6721L78.1554 64.4372C78.0738 65.1266 77.947 65.863 77.7736 66.6473L79.7264 67.0792ZM80.1402 64.6827C80.2367 63.9349 80.2985 63.2566 80.3234 62.6504L78.3251 62.5683C78.3031 63.1028 78.2477 63.7214 78.1567 64.4267L80.1402 64.6827ZM80.3227 62.6641C80.3551 62.074 80.3749 61.3666 80.3828 60.5448L78.3829 60.5255C78.3751 61.3287 78.3559 62.0042 78.3257 62.5547L80.3227 62.6641ZM80.3828 60.5352V60.3242H78.3828V60.5352H80.3828ZM80.3828 60.3242V58.543H78.3828V60.3242H80.3828ZM79.3828 59.543H83.1328V57.543H79.3828V59.543ZM82.1328 58.543V60.3242H84.1328V58.543H82.1328ZM83.0742 78.3203H79.3008V80.3203H83.0742V78.3203ZM80.3008 79.3203V74.2578H78.3008V79.3203H80.3008ZM79.3008 73.2578H67.4531V75.2578H79.3008V73.2578ZM68.4531 74.2578V71.3398H66.4531V74.2578H68.4531ZM67.4531 72.3398H83.0742V70.3398H67.4531V72.3398ZM82.0742 71.3398V79.3203H84.0742V71.3398H82.0742ZM105.094 79.3203V80.3203H106.094V79.3203H105.094ZM101.578 79.3203H100.578V80.3203H101.578V79.3203ZM101.578 57.6406V56.6406H100.578V57.6406H101.578ZM105.094 57.6406H106.094V56.6406H105.094V57.6406ZM98.0742 67.8594V68.8594H99.0742V67.8594H98.0742ZM94.793 67.8594H93.793V68.8594H94.793V67.8594ZM94.793 64.8594V63.8594H93.793V64.8594H94.793ZM98.0742 64.8594H99.0742V63.8594H98.0742V64.8594ZM100.641 78.418V79.418H101.641V78.418H100.641ZM97.1367 78.418H96.1367V79.418H97.1367V78.418ZM97.1367 57.9102V56.9102H96.1367V57.9102H97.1367ZM100.641 57.9102H101.641V56.9102H100.641V57.9102ZM92.6133 63.2188L93.6133 63.2232V63.2188H92.6133ZM92.1445 68.2227L91.163 68.0313L91.1621 68.036L92.1445 68.2227ZM90.6562 72.4648L89.7798 71.9833L89.7775 71.9875L90.6562 72.4648ZM87.9141 75.4062L87.1394 76.0386L87.6904 76.7137L88.4346 76.2601L87.9141 75.4062ZM85.6758 72.6641L85.1401 71.8196L84.1884 72.4233L84.9011 73.2964L85.6758 72.6641ZM88.1602 70.168L87.3092 69.6428L87.3062 69.6476L88.1602 70.168ZM89.4375 66.9219L88.4584 66.7182L88.4572 66.7245L89.4375 66.9219ZM89.8125 63.2188L90.8125 63.2247V63.2188H89.8125ZM89.8125 61.2969V60.2969H88.8125V61.2969H89.8125ZM92.6133 61.2969H93.6133V60.2969H92.6133V61.2969ZM93.4219 63.2188L94.4219 63.2248V63.2188H93.4219ZM93.75 66.8281L92.7699 67.0269L92.7716 67.0348L93.75 66.8281ZM97.4648 72.1719L98.2493 72.7921L98.9701 71.8803L97.961 71.3036L97.4648 72.1719ZM95.2969 74.9141L94.7988 75.7812L95.5466 76.2107L96.0813 75.5343L95.2969 74.9141ZM92.5312 72.1367L91.6633 72.6335L91.6658 72.6378L92.5312 72.1367ZM91.0898 68.1289L90.1071 68.3141L90.1073 68.3151L91.0898 68.1289ZM90.668 61.2969V60.2969H89.668V61.2969H90.668ZM93.4219 61.2969H94.4219V60.2969H93.4219V61.2969ZM96.2695 62.6211V63.6211H97.2695V62.6211H96.2695ZM86.6367 62.6211H85.6367V63.6211H86.6367V62.6211ZM86.6367 59.6445V58.6445H85.6367V59.6445H86.6367ZM96.2695 59.6445H97.2695V58.6445H96.2695V59.6445ZM105.094 78.3203H101.578V80.3203H105.094V78.3203ZM102.578 79.3203V57.6406H100.578V79.3203H102.578ZM101.578 58.6406H105.094V56.6406H101.578V58.6406ZM104.094 57.6406V79.3203H106.094V57.6406H104.094ZM98.0742 66.8594H94.793V68.8594H98.0742V66.8594ZM95.793 67.8594V64.8594H93.793V67.8594H95.793ZM94.793 65.8594H98.0742V63.8594H94.793V65.8594ZM97.0742 64.8594V67.8594H99.0742V64.8594H97.0742ZM100.641 77.418H97.1367V79.418H100.641V77.418ZM98.1367 78.418V57.9102H96.1367V78.418H98.1367ZM97.1367 58.9102H100.641V56.9102H97.1367V58.9102ZM99.6406 57.9102V78.418H101.641V57.9102H99.6406ZM91.6133 63.2143C91.6057 64.932 91.4544 66.5369 91.163 68.0313L93.126 68.4141C93.444 66.7834 93.6052 65.0524 93.6133 63.2232L91.6133 63.2143ZM91.1621 68.036C90.8829 69.5057 90.4197 70.8187 89.7798 71.9833L91.5327 72.9463C92.2835 71.5798 92.8124 70.0647 93.127 68.4093L91.1621 68.036ZM89.7775 71.9875C89.1674 73.1108 88.372 73.956 87.3936 74.5524L88.4346 76.2601C89.7374 75.4659 90.7701 74.3502 91.535 72.9422L89.7775 71.9875ZM88.6888 74.7739L86.4505 72.0317L84.9011 73.2964L87.1394 76.0386L88.6888 74.7739ZM86.2114 73.5085C87.3801 72.7672 88.3202 71.827 89.0141 70.6883L87.3062 69.6476C86.7813 70.5089 86.0652 71.2328 85.1401 71.8196L86.2114 73.5085ZM89.0111 70.6932C89.6912 69.5914 90.1603 68.3982 90.4178 67.1193L88.4572 66.7245C88.2459 67.7737 87.8635 68.7446 87.3092 69.6428L89.0111 70.6932ZM90.4165 67.1256C90.6735 65.8905 90.8043 64.5895 90.8125 63.2247L88.8125 63.2128C88.8051 64.4574 88.6859 65.6251 88.4585 66.7182L90.4165 67.1256ZM90.8125 63.2188V61.2969H88.8125V63.2188H90.8125ZM89.8125 62.2969H92.6133V60.2969H89.8125V62.2969ZM91.6133 61.2969V63.2188H93.6133V61.2969H91.6133ZM92.4219 63.2127C92.4137 64.5618 92.5281 65.8342 92.77 67.0269L94.73 66.6294C94.5188 65.5877 94.4144 64.4539 94.4219 63.2248L92.4219 63.2127ZM92.7716 67.0348C93.0306 68.261 93.4947 69.3951 94.1643 70.43L95.8435 69.3435C95.31 68.519 94.9381 67.614 94.7284 66.6214L92.7716 67.0348ZM94.1643 70.43C94.8597 71.5045 95.8023 72.3736 96.9687 73.0401L97.961 71.3036C97.0493 70.7826 96.3513 70.1283 95.8435 69.3435L94.1643 70.43ZM96.6804 71.5517L94.5124 74.2939L96.0813 75.5343L98.2493 72.7921L96.6804 71.5517ZM95.7949 74.0469C94.7958 73.4731 93.9987 72.6756 93.3967 71.6357L91.6658 72.6378C92.4388 73.9729 93.4855 75.0269 94.7988 75.7812L95.7949 74.0469ZM93.3991 71.64C92.7801 70.5584 92.3351 69.3292 92.0724 67.9427L90.1073 68.3151C90.4071 69.8973 90.923 71.34 91.6634 72.6335L93.3991 71.64ZM92.0725 67.9437C91.8046 66.522 91.668 64.9482 91.668 63.2188H89.668C89.668 65.0518 89.8126 66.7515 90.1071 68.3141L92.0725 67.9437ZM91.668 63.2188V61.2969H89.668V63.2188H91.668ZM90.668 62.2969H93.4219V60.2969H90.668V62.2969ZM92.4219 61.2969V63.2188H94.4219V61.2969H92.4219ZM96.2695 61.6211H86.6367V63.6211H96.2695V61.6211ZM87.6367 62.6211V59.6445H85.6367V62.6211H87.6367ZM86.6367 60.6445H96.2695V58.6445H86.6367V60.6445ZM95.2695 59.6445V62.6211H97.2695V59.6445H95.2695ZM126.773 71.0938V72.0938H127.773V71.0938H126.773ZM106.992 71.0938H105.992V72.0938H106.992V71.0938ZM106.992 68.1289V67.1289H105.992V68.1289H106.992ZM126.773 68.1289H127.773V67.1289H126.773V68.1289ZM119.062 74.3867V75.3867H120.062V74.3867H119.062ZM115.359 74.3867H114.359V75.3867H115.359V74.3867ZM115.359 69.9922V68.9922H114.359V69.9922H115.359ZM119.062 69.9922H120.062V68.9922H119.062V69.9922ZM124.289 66.8047V67.8047H125.289V66.8047H124.289ZM109.383 66.8047H108.383V67.8047H109.383V66.8047ZM109.383 58.543V57.543H108.383V58.543H109.383ZM124.289 58.543H125.289V57.543H124.289V58.543ZM113.051 63.9102H112.051V64.9102H113.051V63.9102ZM120.609 63.9102V64.9102H121.609V63.9102H120.609ZM120.609 61.4258H121.609V60.4258H120.609V61.4258ZM113.051 61.4258V60.4258H112.051V61.4258H113.051ZM124.617 79.0273V80.0273H125.617V79.0273H124.617ZM109.16 79.0273H108.16V80.0273H109.16V79.0273ZM109.16 76.0273V75.0273H108.16V76.0273H109.16ZM124.617 76.0273H125.617V75.0273H124.617V76.0273ZM112.91 77V78H113.91V77H112.91ZM109.16 77H108.16V78H109.16V77ZM109.16 72.6523V71.6523H108.16V72.6523H109.16ZM112.91 72.6523H113.91V71.6523H112.91V72.6523ZM126.773 70.0938H106.992V72.0938H126.773V70.0938ZM107.992 71.0938V68.1289H105.992V71.0938H107.992ZM106.992 69.1289H126.773V67.1289H106.992V69.1289ZM125.773 68.1289V71.0938H127.773V68.1289H125.773ZM119.062 73.3867H115.359V75.3867H119.062V73.3867ZM116.359 74.3867V69.9922H114.359V74.3867H116.359ZM115.359 70.9922H119.062V68.9922H115.359V70.9922ZM118.062 69.9922V74.3867H120.062V69.9922H118.062ZM124.289 65.8047H109.383V67.8047H124.289V65.8047ZM110.383 66.8047V58.543H108.383V66.8047H110.383ZM109.383 59.543H124.289V57.543H109.383V59.543ZM123.289 58.543V66.8047H125.289V58.543H123.289ZM113.051 64.9102H120.609V62.9102H113.051V64.9102ZM121.609 63.9102V61.4258H119.609V63.9102H121.609ZM120.609 60.4258H113.051V62.4258H120.609V60.4258ZM112.051 61.4258V63.9102H114.051V61.4258H112.051ZM124.617 78.0273H109.16V80.0273H124.617V78.0273ZM110.16 79.0273V76.0273H108.16V79.0273H110.16ZM109.16 77.0273H124.617V75.0273H109.16V77.0273ZM123.617 76.0273V79.0273H125.617V76.0273H123.617ZM112.91 76H109.16V78H112.91V76ZM110.16 77V72.6523H108.16V77H110.16ZM109.16 73.6523H112.91V71.6523H109.16V73.6523ZM111.91 72.6523V77H113.91V72.6523H111.91ZM146.578 79.3203V80.3203H147.578V79.3203H146.578ZM143.062 79.3203H142.062V80.3203H143.062V79.3203ZM143.062 57.6406V56.6406H142.062V57.6406H143.062ZM146.578 57.6406H147.578V56.6406H146.578V57.6406ZM139.559 67.8594V68.8594H140.559V67.8594H139.559ZM136.277 67.8594H135.277V68.8594H136.277V67.8594ZM136.277 64.8594V63.8594H135.277V64.8594H136.277ZM139.559 64.8594H140.559V63.8594H139.559V64.8594ZM142.125 78.418V79.418H143.125V78.418H142.125ZM138.621 78.418H137.621V79.418H138.621V78.418ZM138.621 57.9102V56.9102H137.621V57.9102H138.621ZM142.125 57.9102H143.125V56.9102H142.125V57.9102ZM134.098 63.2188L135.098 63.2232V63.2188H134.098ZM133.629 68.2227L132.647 68.0313L132.646 68.036L133.629 68.2227ZM132.141 72.4648L131.264 71.9833L131.262 71.9875L132.141 72.4648ZM129.398 75.4062L128.624 76.0386L129.175 76.7137L129.919 76.2601L129.398 75.4062ZM127.16 72.6641L126.625 71.8196L125.673 72.4233L126.385 73.2964L127.16 72.6641ZM129.645 70.168L128.794 69.6428L128.791 69.6476L129.645 70.168ZM130.922 66.9219L129.943 66.7182L129.942 66.7245L130.922 66.9219ZM131.297 63.2188L132.297 63.2247V63.2188H131.297ZM131.297 61.2969V60.2969H130.297V61.2969H131.297ZM134.098 61.2969H135.098V60.2969H134.098V61.2969ZM134.906 63.2188L135.906 63.2248V63.2188H134.906ZM135.234 66.8281L134.254 67.0269L134.256 67.0348L135.234 66.8281ZM138.949 72.1719L139.734 72.7921L140.455 71.8803L139.445 71.3036L138.949 72.1719ZM136.781 74.9141L136.283 75.7812L137.031 76.2107L137.566 75.5343L136.781 74.9141ZM134.016 72.1367L133.148 72.6335L133.15 72.6378L134.016 72.1367ZM132.574 68.1289L131.592 68.3141L131.592 68.3151L132.574 68.1289ZM132.152 61.2969V60.2969H131.152V61.2969H132.152ZM134.906 61.2969H135.906V60.2969H134.906V61.2969ZM137.754 62.6211V63.6211H138.754V62.6211H137.754ZM128.121 62.6211H127.121V63.6211H128.121V62.6211ZM128.121 59.6445V58.6445H127.121V59.6445H128.121ZM137.754 59.6445H138.754V58.6445H137.754V59.6445ZM146.578 78.3203H143.062V80.3203H146.578V78.3203ZM144.062 79.3203V57.6406H142.062V79.3203H144.062ZM143.062 58.6406H146.578V56.6406H143.062V58.6406ZM145.578 57.6406V79.3203H147.578V57.6406H145.578ZM139.559 66.8594H136.277V68.8594H139.559V66.8594ZM137.277 67.8594V64.8594H135.277V67.8594H137.277ZM136.277 65.8594H139.559V63.8594H136.277V65.8594ZM138.559 64.8594V67.8594H140.559V64.8594H138.559ZM142.125 77.418H138.621V79.418H142.125V77.418ZM139.621 78.418V57.9102H137.621V78.418H139.621ZM138.621 58.9102H142.125V56.9102H138.621V58.9102ZM141.125 57.9102V78.418H143.125V57.9102H141.125ZM133.098 63.2143C133.09 64.932 132.939 66.5369 132.647 68.0313L134.61 68.4141C134.928 66.7834 135.09 65.0524 135.098 63.2232L133.098 63.2143ZM132.646 68.036C132.367 69.5057 131.904 70.8187 131.264 71.9833L133.017 72.9463C133.768 71.5798 134.297 70.0647 134.611 68.4093L132.646 68.036ZM131.262 71.9875C130.652 73.1108 129.856 73.956 128.878 74.5524L129.919 76.2601C131.222 75.4659 132.255 74.3502 133.019 72.9422L131.262 71.9875ZM130.173 74.7739L127.935 72.0317L126.385 73.2964L128.624 76.0386L130.173 74.7739ZM127.696 73.5085C128.864 72.7672 129.805 71.827 130.498 70.6883L128.791 69.6476C128.266 70.5089 127.55 71.2328 126.625 71.8196L127.696 73.5085ZM130.496 70.6932C131.176 69.5914 131.645 68.3982 131.902 67.1193L129.942 66.7245C129.73 67.7737 129.348 68.7446 128.794 69.6428L130.496 70.6932ZM131.901 67.1256C132.158 65.8905 132.289 64.5895 132.297 63.2247L130.297 63.2128C130.289 64.4574 130.17 65.6251 129.943 66.7182L131.901 67.1256ZM132.297 63.2188V61.2969H130.297V63.2188H132.297ZM131.297 62.2969H134.098V60.2969H131.297V62.2969ZM133.098 61.2969V63.2188H135.098V61.2969H133.098ZM133.906 63.2127C133.898 64.5618 134.012 65.8342 134.254 67.0269L136.214 66.6294C136.003 65.5877 135.899 64.4539 135.906 63.2248L133.906 63.2127ZM134.256 67.0348C134.515 68.261 134.979 69.3951 135.649 70.43L137.328 69.3435C136.794 68.519 136.422 67.614 136.213 66.6214L134.256 67.0348ZM135.649 70.43C136.344 71.5045 137.287 72.3736 138.453 73.0401L139.445 71.3036C138.534 70.7826 137.836 70.1283 137.328 69.3435L135.649 70.43ZM138.165 71.5517L135.997 74.2939L137.566 75.5343L139.734 72.7921L138.165 71.5517ZM137.279 74.0469C136.28 73.4731 135.483 72.6756 134.881 71.6357L133.15 72.6378C133.923 73.9729 134.97 75.0269 136.283 75.7812L137.279 74.0469ZM134.884 71.64C134.264 70.5584 133.819 69.3292 133.557 67.9427L131.592 68.3151C131.891 69.8973 132.407 71.34 133.148 72.6335L134.884 71.64ZM133.557 67.9437C133.289 66.522 133.152 64.9482 133.152 63.2188H131.152C131.152 65.0518 131.297 66.7515 131.592 68.3141L133.557 67.9437ZM133.152 63.2188V61.2969H131.152V63.2188H133.152ZM132.152 62.2969H134.906V60.2969H132.152V62.2969ZM133.906 61.2969V63.2188H135.906V61.2969H133.906ZM137.754 61.6211H128.121V63.6211H137.754V61.6211ZM129.121 62.6211V59.6445H127.121V62.6211H129.121ZM128.121 60.6445H137.754V58.6445H128.121V60.6445ZM136.754 59.6445V62.6211H138.754V59.6445H136.754ZM96.3281 88.7266L95.872 89.6165L95.8779 89.6195L96.3281 88.7266ZM98.5195 90.6836L97.6755 91.22L97.6791 91.2255L98.5195 90.6836ZM98.5195 96.2969L97.6791 95.7549L97.6778 95.7569L98.5195 96.2969ZM96.3281 98.2539L96.7783 99.1468L96.7843 99.1438L96.3281 98.2539ZM90.1172 98.2539L89.661 99.1438L89.67 99.1483L90.1172 98.2539ZM87.9023 96.2969L87.0619 96.8389L87.0679 96.8479L87.9023 96.2969ZM87.9023 90.6836L87.0655 90.1361L87.0619 90.1416L87.9023 90.6836ZM90.1172 88.7266L90.5674 89.6195L90.5703 89.618L90.1172 88.7266ZM93.2227 91.2461L93.2393 90.2462L93.2224 90.2459L93.2054 90.2462L93.2227 91.2461ZM91.1484 92.2656L90.2961 91.7426L90.2927 91.7482L91.1484 92.2656ZM91.1484 94.7266L90.2927 95.244L90.2998 95.2558L90.3073 95.2673L91.1484 94.7266ZM93.2227 95.7227L93.2054 96.7225L93.2224 96.7228L93.2393 96.7225L93.2227 95.7227ZM94.4766 95.4648L94.0757 94.5487L94.0686 94.5518L94.4766 95.4648ZM95.3555 94.7266L96.1967 95.2673L96.2024 95.2583L95.3555 94.7266ZM95.3555 92.2656L94.5031 92.7887L94.5086 92.7974L95.3555 92.2656ZM94.4766 91.5039L94.0686 92.4169L94.0757 92.4201L94.4766 91.5039ZM104.73 108.391V109.391H105.73V108.391H104.73ZM100.992 108.391H99.9922V109.391H100.992V108.391ZM100.992 86.6406V85.6406H99.9922V86.6406H100.992ZM104.73 86.6406H105.73V85.6406H104.73V86.6406ZM86.3203 101.184L86.3172 100.184L85.1742 100.187L85.3296 101.32L86.3203 101.184ZM93.4922 101.043L93.5302 102.042L93.5337 102.042L93.4922 101.043ZM99.9023 100.504L100.897 100.404L100.794 99.3777L99.7717 99.5125L99.9023 100.504ZM100.172 103.188L100.367 104.168L101.258 103.991L101.167 103.088L100.172 103.188ZM95.6484 103.844L95.7381 104.84L95.743 104.839L95.6484 103.844ZM91.207 104.125L91.235 105.125L91.2405 105.124L91.207 104.125ZM86.7305 104.172L85.7398 104.308L85.8578 105.168L86.7255 105.172L86.7305 104.172ZM93.2227 89.0117C94.2195 89.0117 95.0961 89.2187 95.872 89.6165L96.7843 87.8367C95.7008 87.2813 94.5071 87.0117 93.2227 87.0117V89.0117ZM95.8779 89.6195C96.6552 90.0114 97.246 90.5441 97.6755 91.22L99.3635 90.1472C98.7305 89.1512 97.8604 88.3792 96.7783 87.8336L95.8779 89.6195ZM97.6791 91.2255C98.11 91.8938 98.3281 92.6379 98.3281 93.4844H100.328C100.328 92.2683 100.007 91.1453 99.3599 90.1416L97.6791 91.2255ZM98.3281 93.4844C98.3281 94.3402 98.1092 95.088 97.6791 95.7549L99.3599 96.8388C100.008 95.8339 100.328 94.7066 100.328 93.4844H98.3281ZM97.6778 95.7569C97.2479 96.4271 96.6546 96.9628 95.872 97.364L96.7843 99.1438C97.861 98.5919 98.7287 97.8229 99.3612 96.8368L97.6778 95.7569ZM95.8779 97.361C95.1008 97.7528 94.2221 97.957 93.2227 97.957V99.957C94.5045 99.957 95.6961 99.6925 96.7783 99.1468L95.8779 97.361ZM93.2227 97.957C92.2323 97.957 91.352 97.7533 90.5644 97.3595L89.67 99.1483C90.7573 99.692 91.9474 99.957 93.2227 99.957V97.957ZM90.5734 97.364C89.7884 96.9617 89.1838 96.4227 88.7368 95.7458L87.0679 96.8479C87.7147 97.8273 88.5866 98.593 89.661 99.1438L90.5734 97.364ZM88.7428 95.7549C88.3127 95.088 88.0938 94.3402 88.0938 93.4844H86.0938C86.0938 94.7066 86.4139 95.8339 87.0619 96.8388L88.7428 95.7549ZM88.0938 93.4844C88.0938 92.6379 88.3118 91.8938 88.7428 91.2255L87.0619 90.1416C86.4147 91.1453 86.0938 92.2683 86.0938 93.4844H88.0938ZM88.7392 91.2311C89.1856 90.5486 89.7878 90.0126 90.5674 89.6195L89.667 87.8336C88.5872 88.3781 87.7128 89.1467 87.0655 90.1361L88.7392 91.2311ZM90.5703 89.618C91.3568 89.2182 92.2349 89.0117 93.2227 89.0117V87.0117C91.9448 87.0117 90.7526 87.2818 89.664 87.8351L90.5703 89.618ZM93.2054 90.2462C92.6349 90.2561 92.0902 90.3653 91.5886 90.5942L92.4192 92.4136C92.6364 92.3144 92.9041 92.2517 93.2399 92.2459L93.2054 90.2462ZM91.5886 90.5942C91.0444 90.8427 90.6087 91.2332 90.2961 91.7426L92.0008 92.7886C92.11 92.6106 92.2447 92.4933 92.4192 92.4136L91.5886 90.5942ZM90.2927 91.7482C89.9768 92.2706 89.8438 92.8645 89.8438 93.4844H91.8438C91.8438 93.1511 91.9138 92.9325 92.0042 92.783L90.2927 91.7482ZM89.8438 93.4844C89.8438 94.1131 89.974 94.7169 90.2927 95.244L92.0042 94.2091C91.9166 94.0644 91.8438 93.84 91.8438 93.4844H89.8438ZM90.3073 95.2673C90.6233 95.7589 91.0572 96.1319 91.5886 96.3745L92.4192 94.5552C92.2319 94.4696 92.0955 94.3505 91.9896 94.1858L90.3073 95.2673ZM91.5886 96.3745C92.0902 96.6035 92.6349 96.7127 93.2054 96.7225L93.2399 94.7228C92.9041 94.717 92.6364 94.6543 92.4192 94.5552L91.5886 96.3745ZM93.2393 96.7225C93.8209 96.7128 94.3754 96.6053 94.8845 96.3779L94.0686 94.5518C93.8434 94.6525 93.5619 94.7169 93.206 94.7228L93.2393 96.7225ZM94.8774 96.381C95.4236 96.142 95.8737 95.7697 96.1966 95.2673L94.5143 94.1858C94.4153 94.3397 94.2796 94.4595 94.0757 94.5487L94.8774 96.381ZM96.2024 95.2583C96.5349 94.7287 96.6719 94.1195 96.6719 93.4844H94.6719C94.6719 93.8336 94.5979 94.0526 94.5086 94.1948L96.2024 95.2583ZM96.6719 93.4844C96.6719 92.8579 96.5319 92.2586 96.2024 91.7339L94.5086 92.7974C94.6009 92.9445 94.6719 93.1577 94.6719 93.4844H96.6719ZM96.2078 91.7426C95.8883 91.222 95.4365 90.8324 94.8774 90.5877L94.0757 92.4201C94.2666 92.5036 94.4007 92.6217 94.5031 92.7886L96.2078 91.7426ZM94.8845 90.5909C94.3754 90.3634 93.8209 90.2559 93.2393 90.2462L93.206 92.246C93.5619 92.2519 93.8434 92.3163 94.0686 92.4169L94.8845 90.5909ZM104.73 107.391H100.992V109.391H104.73V107.391ZM101.992 108.391V86.6406H99.9922V108.391H101.992ZM100.992 87.6406H104.73V85.6406H100.992V87.6406ZM103.73 86.6406V108.391H105.73V86.6406H103.73ZM86.3234 102.184C88.8572 102.176 91.2595 102.129 93.5302 102.042L93.4542 100.044C91.2092 100.129 88.8303 100.176 86.3172 100.184L86.3234 102.184ZM93.5337 102.042C95.8181 101.947 97.9847 101.765 100.033 101.495L99.7717 99.5125C97.7887 99.7738 95.6819 99.9512 93.4507 100.044L93.5337 102.042ZM98.9073 100.604L99.1769 103.287L101.167 103.088L100.897 100.404L98.9073 100.604ZM99.9768 102.207C98.5588 102.489 97.0846 102.703 95.5539 102.848L95.743 104.839C97.3373 104.688 98.8787 104.464 100.367 104.168L99.9768 102.207ZM95.5588 102.848C94.0128 102.987 92.5511 103.079 91.1735 103.126L91.2405 105.124C92.6598 105.077 94.1591 104.982 95.7381 104.84L95.5588 102.848ZM91.1791 103.125C89.7929 103.164 88.3118 103.18 86.7354 103.172L86.7255 105.172C88.321 105.18 89.8242 105.164 91.235 105.125L91.1791 103.125ZM87.7212 104.036L87.311 101.048L85.3296 101.32L85.7398 104.308L87.7212 104.036ZM125.438 97.457V98.457H126.438V97.457H125.438ZM121.699 97.457H120.699V98.457H121.699V97.457ZM121.699 86.6406V85.6406H120.699V86.6406H121.699ZM125.438 86.6406H126.438V85.6406H125.438V86.6406ZM118.301 87.3438L119.301 87.3477L119.305 86.3438H118.301V87.3438ZM114 95.8984L114.531 96.7457L114.532 96.7449L114 95.8984ZM108.445 97.9492L107.522 98.3323L107.837 99.0939L108.645 98.929L108.445 97.9492ZM107.191 94.9258L107.016 93.9413L105.791 94.1594L106.268 95.3089L107.191 94.9258ZM111.316 93.6602L111.777 94.5478L111.779 94.5465L111.316 93.6602ZM114.211 89.4297L115.211 89.4387V89.4297H114.211ZM114.211 87.3438V86.3438H113.211V87.3438H114.211ZM115.711 90.3203V91.3203H116.711V90.3203H115.711ZM108.48 90.3203H107.48V91.3203H108.48V90.3203ZM108.48 87.3438V86.3438H107.48V87.3438H108.48ZM115.711 87.3438H116.711V86.3438H115.711V87.3438ZM122.098 91.9141V92.9141H123.098V91.9141H122.098ZM117.398 91.9141H116.398V92.9141H117.398V91.9141ZM117.398 89.1133V88.1133H116.398V89.1133H117.398ZM122.098 89.1133H123.098V88.1133H122.098V89.1133ZM121.98 96.168V97.168H122.98V96.168H121.98ZM117.281 96.168H116.281V97.168H117.281V96.168ZM117.281 93.3438V92.3438H116.281V93.3438H117.281ZM121.98 93.3438H122.98V92.3438H121.98V93.3438ZM125.438 104.453V105.453H126.438V104.453H125.438ZM114.586 104.453V103.453H113.586V104.453H114.586ZM114.586 106.703V107.703H115.586V106.703H114.586ZM110.836 106.703H109.836V107.703H110.836V106.703ZM110.836 101.699V100.699H109.836V101.699H110.836ZM121.664 101.699V102.699H122.664V101.699H121.664ZM121.664 101.031H122.664V100.031H121.664V101.031ZM110.812 101.031H109.812V102.031H110.812V101.031ZM110.812 98.1133V97.1133H109.812V98.1133H110.812ZM125.438 98.1133H126.438V97.1133H125.438V98.1133ZM125.742 108.109V109.109H126.742V108.109H125.742ZM110.836 108.109H109.836V109.109H110.836V108.109ZM110.836 105.168V104.168H109.836V105.168H110.836ZM125.742 105.168H126.742V104.168H125.742V105.168ZM125.438 96.457H121.699V98.457H125.438V96.457ZM122.699 97.457V86.6406H120.699V97.457H122.699ZM121.699 87.6406H125.438V85.6406H121.699V87.6406ZM124.438 86.6406V97.457H126.438V86.6406H124.438ZM117.301 87.3398C117.293 89.201 116.959 90.7329 116.34 91.9708L118.129 92.8652C118.916 91.2905 119.293 89.4396 119.301 87.3477L117.301 87.3398ZM116.34 91.9708C115.726 93.1984 114.78 94.2261 113.468 95.052L114.532 96.7449C116.126 95.7426 117.336 94.45 118.129 92.8652L116.34 91.9708ZM113.469 95.0512C112.154 95.8758 110.424 96.5246 108.245 96.9694L108.645 98.929C110.982 98.452 112.956 97.7336 114.531 96.7457L113.469 95.0512ZM109.369 97.5661L108.115 94.5427L106.268 95.3089L107.522 98.3323L109.369 97.5661ZM107.367 95.9103C109.134 95.5956 110.616 95.15 111.777 94.5478L110.856 92.7725C109.939 93.2484 108.671 93.6466 107.016 93.9413L107.367 95.9103ZM111.779 94.5465C112.921 93.9502 113.828 93.2195 114.392 92.3135L112.694 91.2569C112.383 91.757 111.806 92.2763 110.853 92.7738L111.779 94.5465ZM114.392 92.3135C114.931 91.4468 115.202 90.4805 115.211 89.4387L113.211 89.4207C113.205 90.1133 113.03 90.7172 112.694 91.2569L114.392 92.3135ZM115.211 89.4297V87.3438H113.211V89.4297H115.211ZM114.211 88.3438H118.301V86.3438H114.211V88.3438ZM115.711 89.3203H108.48V91.3203H115.711V89.3203ZM109.48 90.3203V87.3438H107.48V90.3203H109.48ZM108.48 88.3438H115.711V86.3438H108.48V88.3438ZM114.711 87.3438V90.3203H116.711V87.3438H114.711ZM122.098 90.9141H117.398V92.9141H122.098V90.9141ZM118.398 91.9141V89.1133H116.398V91.9141H118.398ZM117.398 90.1133H122.098V88.1133H117.398V90.1133ZM121.098 89.1133V91.9141H123.098V89.1133H121.098ZM121.98 95.168H117.281V97.168H121.98V95.168ZM118.281 96.168V93.3438H116.281V96.168H118.281ZM117.281 94.3438H121.98V92.3438H117.281V94.3438ZM120.98 93.3438V96.168H122.98V93.3438H120.98ZM125.438 103.453H114.586V105.453H125.438V103.453ZM113.586 104.453V106.703H115.586V104.453H113.586ZM114.586 105.703H110.836V107.703H114.586V105.703ZM111.836 106.703V101.699H109.836V106.703H111.836ZM110.836 102.699H121.664V100.699H110.836V102.699ZM122.664 101.699V101.031H120.664V101.699H122.664ZM121.664 100.031H110.812V102.031H121.664V100.031ZM111.812 101.031V98.1133H109.812V101.031H111.812ZM110.812 99.1133H125.438V97.1133H110.812V99.1133ZM124.438 98.1133V104.453H126.438V98.1133H124.438ZM125.742 107.109H110.836V109.109H125.742V107.109ZM111.836 108.109V105.168H109.836V108.109H111.836ZM110.836 106.168H125.742V104.168H110.836V106.168ZM124.742 105.168V108.109H126.742V105.168H124.742Z" fill="black" mask="url(#path-2-outside-1_839_49)"/>
<path d="M38.0039 159.328H26.7148V158.078H38.0039V159.328ZM40.6016 165.52H24.7031V164.27H40.6016V165.52ZM33.375 169.25H31.8516V165.109H33.375V169.25ZM38.5117 159.328C38.5117 160.324 38.4792 161.239 38.4141 162.072C38.349 162.899 38.1927 163.846 37.9453 164.914L36.4414 164.719C36.6107 164.009 36.7344 163.348 36.8125 162.736C36.8906 162.118 36.9395 161.571 36.959 161.096C36.9785 160.62 36.9883 160.07 36.9883 159.445V159.328V158.078H38.5117V159.328ZM38.6289 174.582H37.0859V169.992H26.3438V168.723H38.6289V174.582ZM55.4258 174.582H53.9023V157.219H55.4258V174.582ZM58.2383 165.578H55.0352V164.289H58.2383V165.578ZM50.9336 159.094C50.9271 160.78 50.6471 162.375 50.0938 163.879C49.5469 165.376 48.681 166.76 47.4961 168.029C46.3112 169.292 44.8008 170.376 42.9648 171.281L42.1055 170.07C43.7135 169.27 45.0612 168.329 46.1484 167.248C47.2422 166.161 48.0592 164.956 48.5996 163.635C49.1465 162.313 49.4232 160.884 49.4297 159.348V159.094H50.9336ZM50.2109 160.383H42.9062V159.094H50.2109V160.383ZM77.8672 169.934H76.3242V157.219H77.8672V169.934ZM80.4844 163.801H77.3789V162.512H80.4844V163.801ZM73.1797 158.566C73.1797 160.031 72.8477 161.376 72.1836 162.6C71.5195 163.817 70.5723 164.878 69.3418 165.783C68.1113 166.682 66.6562 167.395 64.9766 167.922L64.3125 166.691C65.7969 166.229 67.0794 165.63 68.1602 164.895C69.2409 164.152 70.0742 163.303 70.6602 162.346C71.2461 161.382 71.5391 160.35 71.5391 159.25V158.566H73.1797ZM72.3398 159.855H65.0352V158.566H72.3398V159.855ZM78.668 174.211H66.9883V172.922H78.668V174.211ZM68.5117 173.43H66.9883V168.645H68.5117V173.43ZM87.2617 158.488C88.1602 158.488 88.9642 158.661 89.6738 159.006C90.3835 159.351 90.9368 159.833 91.334 160.451C91.7311 161.07 91.9297 161.776 91.9297 162.57C91.9297 163.365 91.7311 164.071 91.334 164.689C90.9368 165.308 90.3835 165.79 89.6738 166.135C88.9642 166.48 88.1602 166.652 87.2617 166.652C86.3568 166.652 85.5462 166.48 84.8301 166.135C84.1204 165.79 83.5671 165.308 83.1699 164.689C82.7728 164.071 82.5742 163.365 82.5742 162.57C82.5742 161.776 82.7728 161.07 83.1699 160.451C83.5671 159.833 84.1204 159.351 84.8301 159.006C85.5462 158.661 86.3568 158.488 87.2617 158.488ZM87.2617 159.836C86.6497 159.836 86.1029 159.95 85.6211 160.178C85.1393 160.406 84.7617 160.731 84.4883 161.154C84.2148 161.571 84.0781 162.043 84.0781 162.57C84.0781 163.104 84.2148 163.576 84.4883 163.986C84.7617 164.396 85.1393 164.719 85.6211 164.953C86.1029 165.188 86.6497 165.305 87.2617 165.305C87.8672 165.305 88.4108 165.188 88.8926 164.953C89.3809 164.719 89.7585 164.396 90.0254 163.986C90.2923 163.576 90.4258 163.104 90.4258 162.57C90.4258 162.043 90.2923 161.571 90.0254 161.154C89.7585 160.731 89.3809 160.406 88.8926 160.178C88.4108 159.95 87.8672 159.836 87.2617 159.836ZM95.8164 174.621H94.293V157.219H95.8164V174.621ZM81.6758 169.484C83.8438 169.491 85.8717 169.458 87.7598 169.387C89.6478 169.315 91.4414 169.152 93.1406 168.898L93.2578 170.031C92.0339 170.259 90.7611 170.428 89.4395 170.539C88.1178 170.643 86.8809 170.712 85.7285 170.744C84.5827 170.777 83.3034 170.793 81.8906 170.793L81.6758 169.484ZM140.816 205.531C142.099 205.531 143.199 205.645 144.117 205.873C145.042 206.101 145.745 206.439 146.227 206.889C146.708 207.338 146.949 207.882 146.949 208.52C146.949 209.171 146.708 209.724 146.227 210.18C145.745 210.635 145.045 210.98 144.127 211.215C143.209 211.443 142.105 211.56 140.816 211.566C139.521 211.56 138.414 211.443 137.496 211.215C136.585 210.98 135.885 210.635 135.396 210.18C134.908 209.724 134.664 209.171 134.664 208.52C134.664 207.882 134.908 207.338 135.396 206.889C135.885 206.439 136.588 206.101 137.506 205.873C138.424 205.645 139.527 205.531 140.816 205.531ZM140.816 206.684C139.859 206.684 139.039 206.758 138.355 206.908C137.678 207.058 137.158 207.27 136.793 207.543C136.435 207.816 136.259 208.142 136.266 208.52C136.259 208.917 136.435 209.258 136.793 209.545C137.158 209.825 137.678 210.036 138.355 210.18C139.039 210.323 139.859 210.395 140.816 210.395C141.773 210.395 142.594 210.323 143.277 210.18C143.967 210.036 144.492 209.825 144.85 209.545C145.208 209.265 145.387 208.923 145.387 208.52C145.387 208.142 145.208 207.816 144.85 207.543C144.492 207.27 143.967 207.058 143.277 206.908C142.587 206.758 141.767 206.684 140.816 206.684ZM148.727 213.988H132.906V212.738H148.727V213.988ZM146.695 219.379H136.383V221.488H134.859V218.246H145.191V216.664H134.82V215.492H146.695V219.379ZM147.223 222.387H134.859V221.176H147.223V222.387ZM33.1797 230.84C33.1797 231.895 32.8477 232.861 32.1836 233.74C31.5195 234.619 30.6504 235.348 29.5762 235.928C28.5085 236.501 27.3659 236.888 26.1484 237.09L25.5234 235.84C26.5846 235.69 27.6003 235.374 28.5703 234.893C29.5469 234.404 30.3346 233.809 30.9336 233.105C31.5326 232.396 31.832 231.641 31.832 230.84V229.844H33.1797V230.84ZM33.4141 230.84C33.4141 231.628 33.7201 232.38 34.332 233.096C34.944 233.805 35.735 234.404 36.7051 234.893C37.6751 235.374 38.6875 235.69 39.7422 235.84L39.1172 237.09C37.9062 236.888 36.7637 236.497 35.6895 235.918C34.6152 235.332 33.7461 234.6 33.082 233.721C32.418 232.842 32.0859 231.882 32.0859 230.84V229.844H33.4141V230.84ZM33.3359 246.582H31.832V239.961H33.3359V246.582ZM40.5234 240.293H24.7031V239.004H40.5234V240.293ZM56.7344 240.215H55.2695V229.219H56.7344V240.215ZM55.6992 235.234H52.3398V233.965H55.6992V235.234ZM52.9453 239.59H51.5V229.57H52.9453V239.59ZM50.7969 232.539H41.8906V231.309H50.7969V232.539ZM46.3633 233.477C47.0924 233.477 47.7402 233.597 48.3066 233.838C48.873 234.079 49.3125 234.424 49.625 234.873C49.9375 235.322 50.0938 235.846 50.0938 236.445C50.0938 237.031 49.9375 237.546 49.625 237.988C49.3125 238.431 48.873 238.776 48.3066 239.023C47.7402 239.271 47.0924 239.395 46.3633 239.395C45.6406 239.395 44.9961 239.271 44.4297 239.023C43.8698 238.776 43.4336 238.431 43.1211 237.988C42.8086 237.546 42.6523 237.031 42.6523 236.445C42.6523 235.846 42.8086 235.322 43.1211 234.873C43.4336 234.424 43.8698 234.079 44.4297 233.838C44.9961 233.597 45.6406 233.477 46.3633 233.477ZM46.3633 234.609C45.9076 234.609 45.5039 234.684 45.1523 234.834C44.8008 234.984 44.5241 235.199 44.3223 235.479C44.1204 235.758 44.0195 236.081 44.0195 236.445C44.0195 236.797 44.1204 237.109 44.3223 237.383C44.5241 237.656 44.8008 237.868 45.1523 238.018C45.5039 238.167 45.9076 238.242 46.3633 238.242C46.819 238.242 47.2259 238.167 47.584 238.018C47.9421 237.868 48.2188 237.656 48.4141 237.383C48.6094 237.109 48.707 236.797 48.707 236.445C48.707 236.081 48.6094 235.758 48.4141 235.479C48.2188 235.199 47.9421 234.984 47.584 234.834C47.2259 234.684 46.819 234.609 46.3633 234.609ZM47.125 232.012H45.6016V229.355H47.125V232.012ZM50.9922 240.508C52.2096 240.508 53.2546 240.625 54.127 240.859C55.0059 241.094 55.6764 241.442 56.1387 241.904C56.6009 242.36 56.832 242.91 56.832 243.555C56.832 244.186 56.6009 244.723 56.1387 245.166C55.6764 245.615 55.0059 245.957 54.127 246.191C53.248 246.426 52.2031 246.543 50.9922 246.543C49.7747 246.543 48.7266 246.426 47.8477 246.191C46.9753 245.957 46.3079 245.615 45.8457 245.166C45.39 244.723 45.1654 244.186 45.1719 243.555C45.1654 242.91 45.39 242.36 45.8457 241.904C46.3079 241.442 46.9753 241.094 47.8477 240.859C48.7266 240.625 49.7747 240.508 50.9922 240.508ZM50.9922 241.719C50.0938 241.712 49.3223 241.781 48.6777 241.924C48.0332 242.061 47.5384 242.269 47.1934 242.549C46.8548 242.829 46.6888 243.164 46.6953 243.555C46.6888 243.926 46.8548 244.248 47.1934 244.521C47.5384 244.788 48.0332 244.993 48.6777 245.137C49.3288 245.28 50.1003 245.352 50.9922 245.352C51.8841 245.352 52.6523 245.28 53.2969 245.137C53.9479 244.993 54.4427 244.788 54.7812 244.521C55.1263 244.248 55.3021 243.926 55.3086 243.555C55.3021 243.158 55.1263 242.822 54.7812 242.549C54.4427 242.269 53.9512 242.061 53.3066 241.924C52.6621 241.781 51.8906 241.712 50.9922 241.719ZM67.9453 233.477H59.2344V232.227H67.9453V233.477ZM63.5898 234.648C64.3125 234.648 64.957 234.818 65.5234 235.156C66.0964 235.495 66.5423 235.964 66.8613 236.562C67.1868 237.155 67.3529 237.832 67.3594 238.594C67.3529 239.362 67.1868 240.046 66.8613 240.645C66.5423 241.243 66.0964 241.715 65.5234 242.061C64.957 242.406 64.3125 242.578 63.5898 242.578C62.8802 242.578 62.2389 242.406 61.666 242.061C61.0996 241.715 60.6569 241.243 60.3379 240.645C60.0189 240.046 59.8594 239.362 59.8594 238.594C59.8594 237.839 60.0221 237.161 60.3477 236.562C60.6732 235.964 61.1159 235.495 61.6758 235.156C62.2422 234.818 62.8802 234.648 63.5898 234.648ZM63.5898 235.938C63.1341 235.944 62.7272 236.064 62.3691 236.299C62.0111 236.527 61.7311 236.842 61.5293 237.246C61.3275 237.643 61.2266 238.092 61.2266 238.594C61.2266 239.102 61.3275 239.554 61.5293 239.951C61.7311 240.348 62.0111 240.661 62.3691 240.889C62.7272 241.117 63.1341 241.23 63.5898 241.23C64.0456 241.23 64.4557 241.117 64.8203 240.889C65.1849 240.661 65.4714 240.348 65.6797 239.951C65.888 239.554 65.9922 239.102 65.9922 238.594C65.9922 238.092 65.888 237.643 65.6797 237.246C65.4714 236.842 65.1849 236.527 64.8203 236.299C64.4557 236.064 64.0456 235.944 63.5898 235.938ZM74.0586 246.582H72.5938V229.219H74.0586V246.582ZM73.082 237.812H69.7617V236.543H73.082V237.812ZM70.2891 245.723H68.8438V229.648H70.2891V245.723ZM64.3711 232.988H62.8477V229.746H64.3711V232.988ZM82.0078 243.379H80.5039V238.184H82.0078V243.379ZM88.5117 243.379H86.9688V238.184H88.5117V243.379ZM92.457 244.355H76.5586V243.066H92.457V244.355ZM84.4688 230.312C85.6992 230.319 86.793 230.508 87.75 230.879C88.7135 231.243 89.4655 231.768 90.0059 232.451C90.5462 233.128 90.8164 233.906 90.8164 234.785C90.8164 235.671 90.5462 236.449 90.0059 237.119C89.4655 237.79 88.7135 238.311 87.75 238.682C86.793 239.053 85.6992 239.238 84.4688 239.238C83.2383 239.238 82.1413 239.053 81.1777 238.682C80.2207 238.311 79.472 237.79 78.9316 237.119C78.3913 236.449 78.1211 235.671 78.1211 234.785C78.1211 233.906 78.3913 233.128 78.9316 232.451C79.472 231.768 80.2207 231.243 81.1777 230.879C82.1413 230.508 83.2383 230.319 84.4688 230.312ZM84.4688 231.582C83.5247 231.576 82.6816 231.706 81.9395 231.973C81.2038 232.233 80.6309 232.607 80.2207 233.096C79.8105 233.584 79.6055 234.147 79.6055 234.785C79.6055 235.423 79.8105 235.986 80.2207 236.475C80.6309 236.963 81.2038 237.344 81.9395 237.617C82.6816 237.891 83.5247 238.027 84.4688 238.027C85.4062 238.027 86.2428 237.891 86.9785 237.617C87.7142 237.344 88.2904 236.963 88.707 236.475C89.1237 235.986 89.332 235.423 89.332 234.785C89.332 234.147 89.1237 233.584 88.707 233.096C88.2904 232.607 87.7142 232.233 86.9785 231.973C86.2428 231.706 85.4062 231.576 84.4688 231.582ZM95.6797 245.117C95.4518 245.117 95.2402 245.059 95.0449 244.941C94.8561 244.824 94.7031 244.671 94.5859 244.482C94.4753 244.287 94.4232 244.076 94.4297 243.848C94.4232 243.626 94.4753 243.418 94.5859 243.223C94.7031 243.027 94.8561 242.874 95.0449 242.764C95.2402 242.653 95.4518 242.598 95.6797 242.598C95.9076 242.598 96.1159 242.653 96.3047 242.764C96.5 242.874 96.653 243.027 96.7637 243.223C96.8743 243.418 96.9297 243.626 96.9297 243.848C96.9297 244.076 96.8743 244.287 96.7637 244.482C96.653 244.671 96.5 244.824 96.3047 244.941C96.1159 245.059 95.9076 245.117 95.6797 245.117ZM117.34 246.621H115.816V229.219H117.34V246.621ZM120.25 237.383H116.988V236.094H120.25V237.383ZM106.031 240.977C107.737 240.97 109.199 240.924 110.416 240.84C111.633 240.749 112.874 240.586 114.137 240.352L114.332 241.68C113.043 241.914 111.78 242.07 110.543 242.148C109.312 242.227 107.809 242.266 106.031 242.266H104.664V240.977H106.031ZM112.77 232.188H106.188V241.562H104.664V230.918H112.77V232.188ZM137.34 233.125H134.312V231.855H137.34V233.125ZM137.34 236.836H134.312V235.547H137.34V236.836ZM126.07 230.273C126.943 230.273 127.727 230.443 128.424 230.781C129.12 231.12 129.661 231.602 130.045 232.227C130.436 232.852 130.634 233.561 130.641 234.355C130.634 235.15 130.436 235.856 130.045 236.475C129.661 237.093 129.12 237.575 128.424 237.92C127.727 238.265 126.943 238.438 126.07 238.438C125.204 238.438 124.423 238.262 123.727 237.91C123.036 237.559 122.496 237.077 122.105 236.465C121.715 235.846 121.52 235.143 121.52 234.355C121.52 233.561 121.715 232.852 122.105 232.227C122.496 231.602 123.036 231.12 123.727 230.781C124.423 230.443 125.204 230.273 126.07 230.273ZM126.07 231.582C125.491 231.576 124.967 231.689 124.498 231.924C124.036 232.152 123.674 232.48 123.414 232.91C123.154 233.34 123.023 233.822 123.023 234.355C123.023 234.896 123.154 235.378 123.414 235.801C123.674 236.217 124.036 236.546 124.498 236.787C124.967 237.021 125.491 237.142 126.07 237.148C126.656 237.142 127.184 237.021 127.652 236.787C128.121 236.546 128.486 236.217 128.746 235.801C129.007 235.378 129.137 234.896 129.137 234.355C129.137 233.822 129.007 233.34 128.746 232.91C128.486 232.48 128.121 232.152 127.652 231.924C127.184 231.689 126.656 231.576 126.07 231.582ZM134.762 239.531H133.238V229.219H134.762V239.531ZM129.195 240.059C130.374 240.059 131.393 240.189 132.252 240.449C133.118 240.71 133.779 241.084 134.234 241.572C134.69 242.061 134.918 242.643 134.918 243.32C134.918 243.991 134.69 244.564 134.234 245.039C133.779 245.521 133.118 245.892 132.252 246.152C131.393 246.413 130.374 246.543 129.195 246.543C128.017 246.543 126.995 246.413 126.129 246.152C125.27 245.892 124.605 245.521 124.137 245.039C123.668 244.564 123.434 243.991 123.434 243.32C123.434 242.643 123.668 242.061 124.137 241.572C124.605 241.084 125.27 240.71 126.129 240.449C126.995 240.189 128.017 240.059 129.195 240.059ZM129.195 241.309C128.329 241.309 127.577 241.387 126.939 241.543C126.308 241.699 125.82 241.93 125.475 242.236C125.136 242.542 124.97 242.904 124.977 243.32C124.97 243.73 125.136 244.085 125.475 244.385C125.82 244.678 126.308 244.906 126.939 245.068C127.571 245.231 128.323 245.312 129.195 245.312C130.068 245.312 130.823 245.231 131.461 245.068C132.099 244.906 132.587 244.678 132.926 244.385C133.264 244.085 133.434 243.73 133.434 243.32C133.434 242.904 133.264 242.542 132.926 242.236C132.587 241.93 132.099 241.699 131.461 241.543C130.823 241.387 130.068 241.309 129.195 241.309ZM152.047 242.246H150.523V229.238H152.047V242.246ZM154.664 236.25H151.559V234.961H154.664V236.25ZM148.863 232.617H138.512V231.367H148.863V232.617ZM143.688 233.574C144.508 233.574 145.234 233.708 145.865 233.975C146.497 234.242 146.985 234.619 147.33 235.107C147.682 235.596 147.861 236.165 147.867 236.816C147.861 237.461 147.682 238.027 147.33 238.516C146.985 238.997 146.497 239.368 145.865 239.629C145.234 239.889 144.508 240.02 143.688 240.02C142.854 240.02 142.122 239.889 141.49 239.629C140.859 239.368 140.37 238.997 140.025 238.516C139.68 238.027 139.508 237.461 139.508 236.816C139.508 236.165 139.68 235.596 140.025 235.107C140.37 234.619 140.859 234.242 141.49 233.975C142.122 233.708 142.854 233.574 143.688 233.574ZM143.688 234.785C143.147 234.785 142.669 234.867 142.252 235.029C141.842 235.192 141.526 235.43 141.305 235.742C141.083 236.048 140.973 236.406 140.973 236.816C140.973 237.22 141.083 237.572 141.305 237.871C141.526 238.171 141.842 238.405 142.252 238.574C142.669 238.737 143.147 238.815 143.688 238.809C144.221 238.815 144.697 238.737 145.113 238.574C145.53 238.405 145.849 238.171 146.07 237.871C146.298 237.572 146.415 237.22 146.422 236.816C146.415 236.406 146.298 236.048 146.07 235.742C145.849 235.43 145.53 235.192 145.113 235.029C144.697 234.867 144.221 234.785 143.688 234.785ZM144.449 232.012H142.926V229.238H144.449V232.012ZM152.848 246.211H141.188V244.922H152.848V246.211ZM142.691 245.449H141.188V241.211H142.691V245.449ZM38.0039 255.328H26.7148V254.078H38.0039V255.328ZM40.6016 261.52H24.7031V260.27H40.6016V261.52ZM33.375 265.25H31.8516V261.109H33.375V265.25ZM38.5117 255.328C38.5117 256.324 38.4792 257.239 38.4141 258.072C38.349 258.899 38.1927 259.846 37.9453 260.914L36.4414 260.719C36.6107 260.009 36.7344 259.348 36.8125 258.736C36.8906 258.118 36.9395 257.571 36.959 257.096C36.9785 256.62 36.9883 256.07 36.9883 255.445V255.328V254.078H38.5117V255.328ZM38.6289 270.582H37.0859V265.992H26.3438V264.723H38.6289V270.582ZM55.4258 270.582H53.9023V253.219H55.4258V270.582ZM58.2383 261.578H55.0352V260.289H58.2383V261.578ZM50.9336 255.094C50.9271 256.78 50.6471 258.375 50.0938 259.879C49.5469 261.376 48.681 262.76 47.4961 264.029C46.3112 265.292 44.8008 266.376 42.9648 267.281L42.1055 266.07C43.7135 265.27 45.0612 264.329 46.1484 263.248C47.2422 262.161 48.0592 260.956 48.5996 259.635C49.1465 258.313 49.4232 256.884 49.4297 255.348V255.094H50.9336ZM50.2109 256.383H42.9062V255.094H50.2109V256.383ZM65.2891 266.109H63.7461V261.988H65.2891V266.109ZM64.5078 254.352C65.3932 254.358 66.1875 254.534 66.8906 254.879C67.5938 255.217 68.1439 255.696 68.541 256.314C68.9382 256.933 69.1367 257.639 69.1367 258.434C69.1367 259.228 68.9382 259.931 68.541 260.543C68.1439 261.155 67.5905 261.633 66.8809 261.979C66.1777 262.324 65.3867 262.496 64.5078 262.496C63.6094 262.496 62.8086 262.324 62.1055 261.979C61.4023 261.633 60.8555 261.155 60.4648 260.543C60.0742 259.931 59.8789 259.228 59.8789 258.434C59.8789 257.639 60.0742 256.933 60.4648 256.314C60.8555 255.696 61.4023 255.217 62.1055 254.879C62.8086 254.534 63.6094 254.358 64.5078 254.352ZM64.5078 255.68C63.9023 255.68 63.362 255.797 62.8867 256.031C62.418 256.266 62.0469 256.591 61.7734 257.008C61.5065 257.424 61.3763 257.9 61.3828 258.434C61.3763 258.967 61.5065 259.443 61.7734 259.859C62.0469 260.276 62.418 260.602 62.8867 260.836C63.362 261.07 63.9023 261.188 64.5078 261.188C65.1003 261.188 65.6309 261.07 66.0996 260.836C66.5749 260.602 66.946 260.276 67.2129 259.859C67.4863 259.443 67.6263 258.967 67.6328 258.434C67.6263 257.9 67.4863 257.424 67.2129 257.008C66.946 256.591 66.5749 256.266 66.0996 256.031C65.6309 255.797 65.1003 255.68 64.5078 255.68ZM72.6914 270.582H71.168V253.219H72.6914V270.582ZM75.5234 261.715H72.2812V260.387H75.5234V261.715ZM59.8984 265.523C61.9427 265.504 63.7819 265.462 65.416 265.396C67.0566 265.331 68.6029 265.204 70.0547 265.016L70.1523 266.168C69.013 266.363 67.8151 266.51 66.5586 266.607C65.3086 266.705 64.1042 266.767 62.9453 266.793C61.7865 266.812 60.5755 266.819 59.3125 266.812L59.0586 265.523H59.8984ZM82.2422 254.488C83.1406 254.488 83.9447 254.661 84.6543 255.006C85.3639 255.351 85.9173 255.833 86.3145 256.451C86.7116 257.07 86.9102 257.776 86.9102 258.57C86.9102 259.365 86.7116 260.071 86.3145 260.689C85.9173 261.308 85.3639 261.79 84.6543 262.135C83.9447 262.48 83.1406 262.652 82.2422 262.652C81.3372 262.652 80.5267 262.48 79.8105 262.135C79.1009 261.79 78.5475 261.308 78.1504 260.689C77.7533 260.071 77.5547 259.365 77.5547 258.57C77.5547 257.776 77.7533 257.07 78.1504 256.451C78.5475 255.833 79.1009 255.351 79.8105 255.006C80.5267 254.661 81.3372 254.488 82.2422 254.488ZM82.2422 255.836C81.6302 255.836 81.0833 255.95 80.6016 256.178C80.1198 256.406 79.7422 256.731 79.4688 257.154C79.1953 257.571 79.0586 258.043 79.0586 258.57C79.0586 259.104 79.1953 259.576 79.4688 259.986C79.7422 260.396 80.1198 260.719 80.6016 260.953C81.0833 261.188 81.6302 261.305 82.2422 261.305C82.8477 261.305 83.3913 261.188 83.873 260.953C84.3613 260.719 84.7389 260.396 85.0059 259.986C85.2728 259.576 85.4062 259.104 85.4062 258.57C85.4062 258.043 85.2728 257.571 85.0059 257.154C84.7389 256.731 84.3613 256.406 83.873 256.178C83.3913 255.95 82.8477 255.836 82.2422 255.836ZM90.7969 270.621H89.2734V253.219H90.7969V270.621ZM76.6562 265.484C78.8242 265.491 80.8522 265.458 82.7402 265.387C84.6283 265.315 86.4219 265.152 88.1211 264.898L88.2383 266.031C87.0143 266.259 85.7415 266.428 84.4199 266.539C83.0983 266.643 81.8613 266.712 80.709 266.744C79.5632 266.777 78.2839 266.793 76.8711 266.793L76.6562 265.484ZM112.301 258.551H108.707V257.281H112.301V258.551ZM112.281 261.949H108.688V260.68H112.281V261.949ZM108.707 256.246H98.8828V254.977H108.707V256.246ZM103.844 257.086C104.612 257.086 105.296 257.216 105.895 257.477C106.493 257.737 106.962 258.105 107.301 258.58C107.639 259.055 107.809 259.605 107.809 260.23C107.809 260.849 107.639 261.393 107.301 261.861C106.962 262.324 106.493 262.685 105.895 262.945C105.296 263.206 104.612 263.336 103.844 263.336C103.069 263.336 102.382 263.206 101.783 262.945C101.191 262.685 100.729 262.324 100.396 261.861C100.071 261.393 99.9115 260.849 99.918 260.23C99.9115 259.605 100.071 259.055 100.396 258.58C100.729 258.105 101.191 257.737 101.783 257.477C102.382 257.216 103.069 257.086 103.844 257.086ZM103.844 258.277C103.342 258.277 102.903 258.359 102.525 258.521C102.154 258.684 101.865 258.915 101.656 259.215C101.448 259.508 101.344 259.846 101.344 260.23C101.344 260.615 101.448 260.953 101.656 261.246C101.865 261.533 102.154 261.76 102.525 261.93C102.903 262.099 103.342 262.184 103.844 262.184C104.339 262.184 104.778 262.099 105.162 261.93C105.546 261.76 105.842 261.533 106.051 261.246C106.266 260.953 106.376 260.615 106.383 260.23C106.376 259.846 106.266 259.508 106.051 259.215C105.842 258.915 105.546 258.684 105.162 258.521C104.778 258.359 104.339 258.277 103.844 258.277ZM104.625 255.738H103.102V253.062H104.625V255.738ZM113.258 263.492H111.715V253.219H113.258V263.492ZM103.473 266.051H111.734V264.215H113.258V270.348H101.949V264.215H103.473V266.051ZM111.734 269.117V267.242H103.473V269.117H111.734ZM118.121 261.852C119.951 261.858 121.37 261.835 122.379 261.783C123.395 261.725 124.404 261.604 125.406 261.422L125.562 262.691C124.527 262.861 123.492 262.971 122.457 263.023C121.428 263.076 119.983 263.102 118.121 263.102H116.891V261.852H118.121ZM124.391 259.156H118.414V262.594H116.891V257.984H122.867V255.523H116.852V254.293H124.391V259.156ZM130.543 263.902H129V253.238H130.543V263.902ZM129.371 257.066H125.543V255.816H129.371V257.066ZM129.371 260.68H125.543V259.41H129.371V260.68ZM130.543 270.621H129V266.09H118.844V264.84H130.543V270.621ZM142.164 256.402H134.234V255.152H142.164V256.402ZM138.512 265.992H137.008V260.113H138.512V265.992ZM143.062 256.188C143.056 257.242 143.02 258.29 142.955 259.332C142.896 260.374 142.763 261.578 142.555 262.945L141.012 262.809C141.233 261.461 141.373 260.279 141.432 259.264C141.49 258.242 141.52 257.203 141.52 256.148V256.051V255.152H143.062V256.051V256.188ZM146.832 270.582H145.309V253.219H146.832V270.582ZM149.645 261.812H146.422V260.484H149.645V261.812ZM133.258 265.484C135.367 265.471 137.324 265.432 139.127 265.367C140.93 265.296 142.626 265.165 144.215 264.977L144.293 266.129C142.646 266.383 140.904 266.555 139.068 266.646C137.232 266.731 135.361 266.767 133.453 266.754L133.258 265.484ZM38.0039 279.328H26.7148V278.078H38.0039V279.328ZM40.6016 285.52H24.7031V284.27H40.6016V285.52ZM33.375 289.25H31.8516V285.109H33.375V289.25ZM38.5117 279.328C38.5117 280.324 38.4792 281.239 38.4141 282.072C38.349 282.899 38.1927 283.846 37.9453 284.914L36.4414 284.719C36.6107 284.009 36.7344 283.348 36.8125 282.736C36.8906 282.118 36.9395 281.571 36.959 281.096C36.9785 280.62 36.9883 280.07 36.9883 279.445V279.328V278.078H38.5117V279.328ZM38.6289 294.582H37.0859V289.992H26.3438V288.723H38.6289V294.582ZM56.832 294.582H55.3672V277.219H56.832V294.582ZM52.3398 284.738H48.9414V283.488H52.3398V284.738ZM53.3164 293.684H51.8711V277.648H53.3164V293.684ZM46.8125 282.18C46.806 283.43 46.6367 284.637 46.3047 285.803C45.9792 286.968 45.5104 288.016 44.8984 288.947C44.293 289.872 43.5768 290.591 42.75 291.105L41.7734 289.953C42.5612 289.484 43.2448 288.84 43.8242 288.02C44.4102 287.199 44.8529 286.285 45.1523 285.275C45.4583 284.266 45.6081 283.234 45.6016 282.18V279.914H46.8125V282.18ZM47.0859 282.18C47.0859 283.189 47.2357 284.172 47.5352 285.129C47.8346 286.079 48.2643 286.945 48.8242 287.727C49.3841 288.501 50.0547 289.113 50.8359 289.562L49.8984 290.695C49.0651 290.194 48.3522 289.507 47.7598 288.635C47.1673 287.756 46.7116 286.763 46.3926 285.656C46.0801 284.543 45.9271 283.384 45.9336 282.18V279.914H47.0859V282.18ZM50.2695 280.539H42.2617V279.27H50.2695V280.539ZM72.9648 281.613H69.1953V280.344H72.9648V281.613ZM72.9648 284.719H69.1953V283.449H72.9648V284.719ZM69.0195 279.816H59.8008V278.547H69.0195V279.816ZM59.3125 285.598C61.2461 285.598 63.0723 285.568 64.791 285.51C66.5163 285.451 68.1146 285.331 69.5859 285.148L69.6641 286.32C68.1471 286.555 66.5293 286.711 64.8105 286.789C63.0918 286.861 61.3242 286.893 59.5078 286.887L59.3125 285.598ZM63.043 286.008H61.5586V279.523H63.043V286.008ZM67.2422 286.008H65.7578V279.523H67.2422V286.008ZM73.668 287.941H72.125V277.219H73.668V287.941ZM67.9062 288.312C69.1107 288.312 70.1491 288.433 71.0215 288.674C71.9004 288.915 72.571 289.27 73.0332 289.738C73.4954 290.201 73.7266 290.76 73.7266 291.418C73.7266 292.076 73.4954 292.635 73.0332 293.098C72.571 293.566 71.9004 293.924 71.0215 294.172C70.1491 294.419 69.1107 294.543 67.9062 294.543C66.7018 294.543 65.6602 294.419 64.7812 294.172C63.9089 293.924 63.2415 293.566 62.7793 293.098C62.3171 292.635 62.0859 292.076 62.0859 291.418C62.0859 290.76 62.3171 290.201 62.7793 289.738C63.2415 289.27 63.9089 288.915 64.7812 288.674C65.6602 288.433 66.7018 288.312 67.9062 288.312ZM67.9062 289.504C67.0208 289.504 66.2559 289.579 65.6113 289.729C64.9668 289.878 64.472 290.1 64.127 290.393C63.7819 290.679 63.6094 291.021 63.6094 291.418C63.6094 291.815 63.7819 292.16 64.127 292.453C64.472 292.74 64.9635 292.958 65.6016 293.107C66.2461 293.257 67.0143 293.332 67.9062 293.332C68.7917 293.332 69.5566 293.257 70.2012 293.107C70.8457 292.958 71.3405 292.74 71.6855 292.453C72.0306 292.16 72.2031 291.815 72.2031 291.418C72.2031 291.021 72.0306 290.679 71.6855 290.393C71.3405 290.1 70.8457 289.878 70.2012 289.729C69.5566 289.579 68.7917 289.504 67.9062 289.504ZM82.6719 290.402H81.1289V287.57H82.6719V290.402ZM90.0352 294.582H88.4922V277.219H90.0352V294.582ZM92.8086 285.91H89.5664V284.621H92.8086V285.91ZM76.3438 289.953C78.6549 289.947 80.6829 289.914 82.4277 289.855C84.1725 289.79 85.8424 289.641 87.4375 289.406L87.5352 290.578C86.3633 290.78 85.1458 290.93 83.8828 291.027C82.6198 291.118 81.4186 291.18 80.2793 291.213C79.14 291.245 77.9128 291.262 76.5977 291.262L76.3438 289.953ZM87.125 280.598H76.6562V279.348H87.125V280.598ZM81.9102 281.613C82.7109 281.613 83.4206 281.743 84.0391 282.004C84.6641 282.264 85.1523 282.642 85.5039 283.137C85.8555 283.625 86.0312 284.191 86.0312 284.836C86.0312 285.474 85.8555 286.034 85.5039 286.516C85.1523 286.997 84.6641 287.368 84.0391 287.629C83.4206 287.889 82.7109 288.02 81.9102 288.02C81.0964 288.02 80.377 287.889 79.752 287.629C79.1335 287.368 78.6517 286.997 78.3066 286.516C77.9681 286.034 77.8021 285.474 77.8086 284.836C77.8021 284.191 77.9681 283.625 78.3066 283.137C78.6517 282.642 79.1335 282.264 79.752 282.004C80.377 281.743 81.0964 281.613 81.9102 281.613ZM81.9102 282.805C81.3828 282.805 80.9173 282.889 80.5137 283.059C80.1165 283.228 79.804 283.465 79.5762 283.771C79.3483 284.077 79.2344 284.432 79.2344 284.836C79.2344 285.233 79.3483 285.581 79.5762 285.881C79.804 286.174 80.1165 286.405 80.5137 286.574C80.9108 286.737 81.3763 286.815 81.9102 286.809C82.431 286.815 82.8932 286.737 83.2969 286.574C83.7005 286.405 84.013 286.174 84.2344 285.881C84.4557 285.581 84.5664 285.233 84.5664 284.836C84.5664 284.439 84.4557 284.087 84.2344 283.781C84.013 283.469 83.7005 283.228 83.2969 283.059C82.8932 282.889 82.431 282.805 81.9102 282.805ZM82.6719 280.148H81.1289V277.258H82.6719V280.148ZM109.723 286.496H93.8242V285.285H109.723V286.496ZM107.73 291.574H97.3008V293.645H95.7578V290.52H106.207V289.035H95.7383V287.883H107.73V291.574ZM108.297 294.348H95.7578V293.234H108.297V294.348ZM107.672 281.34H97.418V283.254H95.8945V280.285H106.129V278.859H95.8359V277.746H107.672V281.34ZM107.984 283.977H95.8945V282.863H107.984V283.977ZM121.871 278.078C122.73 278.072 123.499 278.218 124.176 278.518C124.853 278.811 125.38 279.227 125.758 279.768C126.135 280.301 126.324 280.917 126.324 281.613C126.324 282.31 126.135 282.928 125.758 283.469C125.38 284.003 124.853 284.419 124.176 284.719C123.499 285.018 122.73 285.168 121.871 285.168C121.012 285.168 120.247 285.018 119.576 284.719C118.906 284.419 118.378 284.003 117.994 283.469C117.61 282.928 117.418 282.31 117.418 281.613C117.418 280.917 117.61 280.301 117.994 279.768C118.378 279.227 118.906 278.811 119.576 278.518C120.247 278.218 121.012 278.072 121.871 278.078ZM121.871 279.328C121.305 279.322 120.794 279.416 120.338 279.611C119.889 279.8 119.537 280.07 119.283 280.422C119.036 280.773 118.915 281.171 118.922 281.613C118.915 282.056 119.036 282.45 119.283 282.795C119.537 283.14 119.889 283.41 120.338 283.605C120.787 283.801 121.298 283.898 121.871 283.898C122.451 283.898 122.965 283.801 123.414 283.605C123.87 283.41 124.225 283.143 124.479 282.805C124.732 282.46 124.859 282.062 124.859 281.613C124.859 281.171 124.732 280.773 124.479 280.422C124.225 280.07 123.87 279.8 123.414 279.611C122.958 279.416 122.444 279.322 121.871 279.328ZM122.73 294.055H121.207V287.121H122.73V294.055ZM130.465 294.602H128.961V277.238H130.465V294.602ZM116.109 286.652C118.186 286.659 120.204 286.62 122.164 286.535C124.124 286.451 125.966 286.281 127.691 286.027L127.789 287.18C126.637 287.395 125.439 287.557 124.195 287.668C122.958 287.772 121.767 287.847 120.621 287.893C119.482 287.932 118.258 287.954 116.949 287.961C116.806 287.961 116.699 287.961 116.627 287.961C116.562 287.961 116.461 287.961 116.324 287.961L116.109 286.652ZM142.105 281.477H133.395V280.227H142.105V281.477ZM137.75 282.648C138.473 282.648 139.117 282.818 139.684 283.156C140.257 283.495 140.702 283.964 141.021 284.562C141.347 285.155 141.513 285.832 141.52 286.594C141.513 287.362 141.347 288.046 141.021 288.645C140.702 289.243 140.257 289.715 139.684 290.061C139.117 290.406 138.473 290.578 137.75 290.578C137.04 290.578 136.399 290.406 135.826 290.061C135.26 289.715 134.817 289.243 134.498 288.645C134.179 288.046 134.02 287.362 134.02 286.594C134.02 285.839 134.182 285.161 134.508 284.562C134.833 283.964 135.276 283.495 135.836 283.156C136.402 282.818 137.04 282.648 137.75 282.648ZM137.75 283.938C137.294 283.944 136.887 284.064 136.529 284.299C136.171 284.527 135.891 284.842 135.689 285.246C135.488 285.643 135.387 286.092 135.387 286.594C135.387 287.102 135.488 287.554 135.689 287.951C135.891 288.348 136.171 288.661 136.529 288.889C136.887 289.117 137.294 289.23 137.75 289.23C138.206 289.23 138.616 289.117 138.98 288.889C139.345 288.661 139.632 288.348 139.84 287.951C140.048 287.554 140.152 287.102 140.152 286.594C140.152 286.092 140.048 285.643 139.84 285.246C139.632 284.842 139.345 284.527 138.98 284.299C138.616 284.064 138.206 283.944 137.75 283.938ZM148.219 294.582H146.754V277.219H148.219V294.582ZM147.242 285.812H143.922V284.543H147.242V285.812ZM144.449 293.723H143.004V277.648H144.449V293.723ZM138.531 280.988H137.008V277.746H138.531V280.988ZM38.7656 310.418H26.6562V309.129H38.7656V310.418ZM40.6016 316.316H24.7031V315.047H40.6016V316.316ZM33.375 315.477H31.8516V309.91H33.375V315.477ZM28.2188 309.676H26.6562V302.703H28.2188V309.676ZM43.9609 309.852C45.7904 309.858 47.2096 309.835 48.2188 309.783C49.2344 309.725 50.2435 309.604 51.2461 309.422L51.4023 310.691C50.3672 310.861 49.332 310.971 48.2969 311.023C47.2682 311.076 45.8229 311.102 43.9609 311.102H42.7305V309.852H43.9609ZM50.2305 307.156H44.2539V310.594H42.7305V305.984H48.707V303.523H42.6914V302.293H50.2305V307.156ZM56.3828 311.902H54.8398V301.238H56.3828V311.902ZM55.2109 305.066H51.3828V303.816H55.2109V305.066ZM55.2109 308.68H51.3828V307.41H55.2109V308.68ZM56.3828 318.621H54.8398V314.09H44.6836V312.84H56.3828V318.621ZM72.7109 318.582H71.1875V301.219H72.7109V318.582ZM75.6211 309.656H72.3594V308.387H75.6211V309.656ZM69.5078 305.281H59.1758V304.012H69.5078V305.281ZM64.4297 306.727C65.237 306.727 65.9629 306.896 66.6074 307.234C67.252 307.573 67.7565 308.045 68.1211 308.65C68.4922 309.256 68.681 309.943 68.6875 310.711C68.681 311.486 68.4922 312.176 68.1211 312.781C67.7565 313.38 67.252 313.849 66.6074 314.188C65.9629 314.526 65.237 314.695 64.4297 314.695C63.6159 314.695 62.8835 314.526 62.2324 314.188C61.5879 313.849 61.0833 313.38 60.7188 312.781C60.3542 312.176 60.1719 311.486 60.1719 310.711C60.1719 309.943 60.3542 309.256 60.7188 308.65C61.0833 308.045 61.5879 307.573 62.2324 307.234C62.8835 306.896 63.6159 306.727 64.4297 306.727ZM64.4297 308.016C63.8958 308.016 63.4173 308.13 62.9941 308.357C62.571 308.585 62.2389 308.908 61.998 309.324C61.7572 309.734 61.6367 310.197 61.6367 310.711C61.6367 311.232 61.7572 311.694 61.998 312.098C62.2389 312.501 62.571 312.82 62.9941 313.055C63.4173 313.283 63.8958 313.393 64.4297 313.387C64.957 313.393 65.4323 313.283 65.8555 313.055C66.2852 312.82 66.6172 312.501 66.8516 312.098C67.0924 311.694 67.2161 311.232 67.2227 310.711C67.2161 310.197 67.0924 309.734 66.8516 309.324C66.6172 308.908 66.2852 308.585 65.8555 308.357C65.4323 308.13 64.957 308.016 64.4297 308.016ZM65.1719 304.598H63.6484V301.434H65.1719V304.598ZM82.457 315.789H80.9336V311.141H82.457V315.789ZM88.0625 315.789H86.5391V311.141H88.0625V315.789ZM92.457 316.414H76.5586V315.125H92.457V316.414ZM84.9961 304.363C84.9961 305.496 84.6576 306.548 83.9805 307.518C83.3034 308.488 82.4245 309.301 81.3438 309.959C80.263 310.61 79.1432 311.056 77.9844 311.297L77.3398 310.066C78.3424 309.897 79.3353 309.533 80.3184 308.973C81.3014 308.413 82.1087 307.726 82.7402 306.912C83.3717 306.098 83.6875 305.249 83.6875 304.363V303.289H84.9961V304.363ZM85.2695 304.363C85.2695 305.255 85.5885 306.105 86.2266 306.912C86.8646 307.713 87.6784 308.39 88.668 308.943C89.6641 309.49 90.6732 309.845 91.6953 310.008L91.0703 311.238C89.8854 310.997 88.7493 310.555 87.6621 309.91C86.5749 309.259 85.6895 308.455 85.0059 307.498C84.3288 306.541 83.9935 305.496 84 304.363V303.289H85.2695V304.363ZM91.0898 304.051H77.8672V302.781H91.0898V304.051ZM95.6797 317.117C95.4518 317.117 95.2402 317.059 95.0449 316.941C94.8561 316.824 94.7031 316.671 94.5859 316.482C94.4753 316.287 94.4232 316.076 94.4297 315.848C94.4232 315.626 94.4753 315.418 94.5859 315.223C94.7031 315.027 94.8561 314.874 95.0449 314.764C95.2402 314.653 95.4518 314.598 95.6797 314.598C95.9076 314.598 96.1159 314.653 96.3047 314.764C96.5 314.874 96.653 315.027 96.7637 315.223C96.8743 315.418 96.9297 315.626 96.9297 315.848C96.9297 316.076 96.8743 316.287 96.7637 316.482C96.653 316.671 96.5 316.824 96.3047 316.941C96.1159 317.059 95.9076 317.117 95.6797 317.117Z" fill="#0E0E0E"/>
<path d="M113.199 169.123H110.426V165.939H113.199V169.123ZM119.996 167.248H103.658V165.021H119.996V167.248ZM111.793 168.342C113.089 168.342 114.205 168.469 115.143 168.723C116.08 168.97 116.796 169.341 117.291 169.836C117.792 170.331 118.046 170.926 118.053 171.623C118.046 172.313 117.792 172.902 117.291 173.391C116.796 173.879 116.077 174.25 115.133 174.504C114.195 174.758 113.082 174.885 111.793 174.885C110.478 174.885 109.348 174.758 108.404 174.504C107.467 174.25 106.744 173.879 106.236 173.391C105.735 172.902 105.484 172.313 105.484 171.623C105.484 170.926 105.735 170.331 106.236 169.836C106.738 169.341 107.46 168.97 108.404 168.723C109.348 168.475 110.478 168.348 111.793 168.342ZM111.793 170.451C110.999 170.458 110.348 170.503 109.84 170.588C109.339 170.666 108.964 170.79 108.717 170.959C108.469 171.128 108.346 171.35 108.346 171.623C108.346 171.877 108.469 172.092 108.717 172.268C108.964 172.437 109.342 172.564 109.85 172.648C110.357 172.733 111.005 172.775 111.793 172.775C112.555 172.775 113.193 172.733 113.707 172.648C114.221 172.557 114.602 172.427 114.85 172.258C115.097 172.089 115.221 171.877 115.221 171.623C115.221 171.356 115.097 171.138 114.85 170.969C114.602 170.793 114.225 170.666 113.717 170.588C113.215 170.503 112.574 170.458 111.793 170.451ZM112.34 159.123C112.333 160.035 112.073 160.868 111.559 161.623C111.044 162.372 110.253 163 109.186 163.508C108.124 164.009 106.803 164.328 105.221 164.465L104.312 162.248C105.589 162.15 106.643 161.936 107.477 161.604C108.316 161.271 108.922 160.887 109.293 160.451C109.671 160.015 109.863 159.572 109.869 159.123V158.693H112.34V159.123ZM113.746 159.123C113.746 159.585 113.932 160.035 114.303 160.471C114.68 160.9 115.289 161.281 116.129 161.613C116.969 161.939 118.049 162.15 119.371 162.248L118.395 164.465C116.819 164.328 115.494 164.009 114.42 163.508C113.352 163 112.555 162.372 112.027 161.623C111.5 160.868 111.233 160.035 111.227 159.123V158.693H113.746V159.123ZM118.521 159.895H105.133V157.688H118.521V159.895ZM127.252 170.949H124.469V166.018H127.252V170.949ZM133.814 170.949H130.973V166.018H133.814V170.949ZM137.32 172.844H120.943V170.549H137.32V172.844ZM129.107 157.736C130.403 157.736 131.565 157.941 132.594 158.352C133.629 158.755 134.439 159.328 135.025 160.07C135.618 160.806 135.914 161.652 135.914 162.609C135.914 163.579 135.621 164.432 135.035 165.168C134.449 165.897 133.639 166.464 132.604 166.867C131.568 167.271 130.403 167.473 129.107 167.473C127.805 167.473 126.64 167.271 125.611 166.867C124.583 166.464 123.775 165.897 123.189 165.168C122.61 164.432 122.32 163.579 122.32 162.609C122.32 161.652 122.61 160.806 123.189 160.07C123.775 159.328 124.583 158.755 125.611 158.352C126.64 157.941 127.805 157.736 129.107 157.736ZM129.107 159.953C128.287 159.947 127.577 160.048 126.979 160.256C126.38 160.458 125.917 160.76 125.592 161.164C125.266 161.561 125.104 162.043 125.104 162.609C125.104 163.169 125.266 163.651 125.592 164.055C125.917 164.458 126.38 164.768 126.979 164.982C127.584 165.191 128.294 165.298 129.107 165.305C129.915 165.298 130.621 165.188 131.227 164.973C131.832 164.758 132.298 164.452 132.623 164.055C132.949 163.651 133.111 163.169 133.111 162.609C133.111 162.043 132.949 161.561 132.623 161.164C132.298 160.76 131.832 160.458 131.227 160.256C130.621 160.048 129.915 159.947 129.107 159.953ZM152.496 170.334H149.674V156.975H152.496V170.334ZM154.82 164.621H151.705V162.326H154.82V164.621ZM148.814 160.939H138.199V158.752H148.814V160.939ZM143.521 161.457C144.381 161.457 145.149 161.607 145.826 161.906C146.503 162.199 147.027 162.613 147.398 163.146C147.776 163.68 147.965 164.292 147.965 164.982C147.965 165.66 147.776 166.258 147.398 166.779C147.027 167.3 146.503 167.707 145.826 168C145.149 168.286 144.381 168.43 143.521 168.43C142.656 168.43 141.881 168.286 141.197 168C140.52 167.707 139.99 167.3 139.605 166.779C139.221 166.258 139.029 165.66 139.029 164.982C139.029 164.292 139.221 163.68 139.605 163.146C139.99 162.613 140.52 162.199 141.197 161.906C141.881 161.607 142.656 161.457 143.521 161.457ZM143.521 163.615C143.17 163.615 142.861 163.664 142.594 163.762C142.333 163.859 142.132 164.012 141.988 164.221C141.852 164.429 141.783 164.683 141.783 164.982C141.783 165.269 141.852 165.513 141.988 165.715C142.132 165.91 142.333 166.06 142.594 166.164C142.861 166.262 143.17 166.311 143.521 166.311C143.873 166.311 144.182 166.262 144.449 166.164C144.716 166.06 144.924 165.91 145.074 165.715C145.224 165.513 145.299 165.269 145.299 164.982C145.299 164.683 145.224 164.429 145.074 164.221C144.924 164.012 144.716 163.859 144.449 163.762C144.182 163.664 143.873 163.615 143.521 163.615ZM144.928 159.816H142.105V156.945H144.928V159.816ZM153.082 174.592H140.738V172.336H153.082V174.592ZM143.561 173.303H140.738V169.318H143.561V173.303ZM37.8379 183.934H26.4512V181.707H37.8379V183.934ZM40.8555 190.047H24.4785V187.811H40.8555V190.047ZM34.0391 193.045H31.2168V189.393H34.0391V193.045ZM38.9805 183.152C38.9805 184.227 38.9479 185.187 38.8828 186.033C38.8242 186.873 38.6745 187.817 38.4336 188.865L35.6406 188.582C35.7969 187.898 35.9108 187.254 35.9824 186.648C36.0605 186.036 36.1094 185.493 36.1289 185.018C36.1549 184.542 36.1712 183.973 36.1777 183.309V183.152V181.707H38.9805V183.152ZM38.9707 198.865H36.1387V194.568H26.0898V192.371H38.9707V198.865ZM57.291 198.865H54.6445V180.936H57.291V198.865ZM51.7051 189.256H48.834V187H51.7051V189.256ZM53.6094 198.084H50.9824V181.209H53.6094V198.084ZM46.959 185.652C46.9525 187.085 46.8158 188.439 46.5488 189.715C46.2884 190.991 45.8652 192.143 45.2793 193.172C44.6934 194.194 43.9382 194.992 43.0137 195.564L41.334 193.494C42.1868 192.96 42.8737 192.28 43.3945 191.453C43.9219 190.62 44.2962 189.715 44.5176 188.738C44.7389 187.755 44.8496 186.727 44.8496 185.652V183.914H46.959V185.652ZM47.5547 185.652C47.5547 186.714 47.6589 187.71 47.8672 188.641C48.082 189.572 48.4434 190.424 48.9512 191.199C49.4655 191.974 50.1491 192.605 51.002 193.094L49.3711 195.154C48.4336 194.607 47.6751 193.852 47.0957 192.889C46.5228 191.919 46.1094 190.828 45.8555 189.617C45.6081 188.4 45.4876 187.078 45.4941 185.652V183.914H47.5547V185.652ZM50.0938 184.92H42.0664V182.684H50.0938V184.92ZM79.8984 191.932H63.5215V189.705H79.8984V191.932ZM73.3359 194.842H70.5625V191.111H73.3359V194.842ZM77.8281 188.426H65.5332V181.707H77.8281V188.426ZM68.2773 186.248H75.0645V183.875H68.2773V186.248ZM78.1016 198.592H65.377V196.336H78.1016V198.592ZM68.1895 197.078H65.377V193.348H68.1895V197.078ZM96.3535 198.865H93.707V180.936H96.3535V198.865ZM90.7676 189.256H87.8965V187H90.7676V189.256ZM92.6719 198.084H90.0449V181.209H92.6719V198.084ZM86.0215 185.652C86.015 187.085 85.8783 188.439 85.6113 189.715C85.3509 190.991 84.9277 192.143 84.3418 193.172C83.7559 194.194 83.0007 194.992 82.0762 195.564L80.3965 193.494C81.2493 192.96 81.9362 192.28 82.457 191.453C82.9844 190.62 83.3587 189.715 83.5801 188.738C83.8014 187.755 83.9121 186.727 83.9121 185.652V183.914H86.0215V185.652ZM86.6172 185.652C86.6172 186.714 86.7214 187.71 86.9297 188.641C87.1445 189.572 87.5059 190.424 88.0137 191.199C88.528 191.974 89.2116 192.605 90.0645 193.094L88.4336 195.154C87.4961 194.607 86.7376 193.852 86.1582 192.889C85.5853 191.919 85.1719 190.828 84.918 189.617C84.6706 188.4 84.5501 187.078 84.5566 185.652V183.914H86.6172V185.652ZM89.1562 184.92H81.1289V182.684H89.1562V184.92ZM114.469 190.955H98.0918V188.885H114.469V190.955ZM112.545 196.033H102.74V197.42H99.9277V194.285H109.752V193.592H99.918V191.658H112.545V196.033ZM113.043 198.729H99.9277V196.834H113.043V198.729ZM112.535 185.574H102.896V186.912H100.104V183.816H109.703V183.094H100.074V181.199H112.535V185.574ZM112.828 188.211H100.104V186.346H112.828V188.211ZM134.42 187.781H121.9V185.574H134.42V187.781ZM124.684 186.512H121.9V181.395H124.684V186.512ZM136.266 192.049H119.889V189.803H136.266V192.049ZM129.479 190.506H126.666V186.922H129.479V190.506ZM134.566 198.592H121.764V196.336H134.566V198.592ZM124.557 197.488H121.764V193.074H124.557V197.488ZM142.945 182.107C143.883 182.107 144.732 182.299 145.494 182.684C146.262 183.068 146.865 183.602 147.301 184.285C147.737 184.962 147.955 185.724 147.955 186.57C147.955 187.423 147.737 188.188 147.301 188.865C146.865 189.542 146.262 190.073 145.494 190.457C144.732 190.841 143.883 191.033 142.945 191.033C142.014 191.033 141.165 190.841 140.396 190.457C139.628 190.073 139.023 189.542 138.58 188.865C138.144 188.188 137.926 187.423 137.926 186.57C137.926 185.724 138.144 184.962 138.58 184.285C139.023 183.602 139.628 183.068 140.396 182.684C141.165 182.299 142.014 182.107 142.945 182.107ZM142.945 184.529C142.522 184.536 142.141 184.617 141.803 184.773C141.471 184.93 141.207 185.164 141.012 185.477C140.823 185.783 140.729 186.147 140.729 186.57C140.729 187.007 140.823 187.378 141.012 187.684C141.207 187.983 141.471 188.211 141.803 188.367C142.141 188.523 142.522 188.605 142.945 188.611C143.382 188.605 143.772 188.523 144.117 188.367C144.462 188.211 144.729 187.983 144.918 187.684C145.113 187.378 145.211 187.007 145.211 186.57C145.211 186.147 145.113 185.783 144.918 185.477C144.729 185.164 144.462 184.93 144.117 184.773C143.772 184.617 143.382 184.536 142.945 184.529ZM152.33 198.914H149.537V180.936H152.33V198.914ZM137.232 193.084C139.348 193.084 141.347 193.048 143.229 192.977C145.11 192.898 146.894 192.745 148.58 192.518L148.785 194.529C147.568 194.77 146.305 194.949 144.996 195.066C143.694 195.184 142.46 195.262 141.295 195.301C140.136 195.333 138.886 195.346 137.545 195.34L137.232 193.084ZM168.668 198.865H165.895V180.936H168.668V198.865ZM171.207 190.154H168.053V187.859H171.207V190.154ZM164.84 185.799H154.361V183.553H164.84V185.799ZM159.635 186.639C160.501 186.639 161.288 186.824 161.998 187.195C162.708 187.56 163.264 188.074 163.668 188.738C164.072 189.396 164.273 190.138 164.273 190.965C164.273 191.798 164.072 192.544 163.668 193.201C163.264 193.852 162.708 194.363 161.998 194.734C161.288 195.099 160.501 195.281 159.635 195.281C158.749 195.281 157.952 195.099 157.242 194.734C156.539 194.363 155.989 193.852 155.592 193.201C155.195 192.544 154.996 191.798 154.996 190.965C154.996 190.138 155.195 189.396 155.592 188.738C155.989 188.074 156.539 187.56 157.242 187.195C157.952 186.824 158.749 186.639 159.635 186.639ZM159.635 188.914C159.251 188.921 158.912 189.005 158.619 189.168C158.326 189.324 158.095 189.559 157.926 189.871C157.763 190.177 157.682 190.542 157.682 190.965C157.682 191.395 157.763 191.762 157.926 192.068C158.095 192.374 158.326 192.605 158.619 192.762C158.912 192.918 159.251 192.999 159.635 193.006C160.012 192.999 160.348 192.918 160.641 192.762C160.934 192.605 161.161 192.374 161.324 192.068C161.487 191.762 161.568 191.395 161.568 190.965C161.568 190.542 161.487 190.177 161.324 189.871C161.161 189.559 160.93 189.324 160.631 189.168C160.338 189.005 160.006 188.921 159.635 188.914ZM161.041 184.373H158.229V181.238H161.041V184.373ZM184.82 184.627H173.395V182.42H184.82V184.627ZM188.082 196.785H171.744V194.51H188.082V196.785ZM180.201 195.682H177.418V188.436H180.201V195.682ZM186.617 184.285C186.617 185.75 186.575 187.111 186.49 188.367C186.406 189.624 186.207 191.092 185.895 192.771L183.053 192.469C183.274 191.382 183.44 190.353 183.551 189.383C183.661 188.406 183.727 187.544 183.746 186.795C183.772 186.046 183.788 185.187 183.795 184.217V184.1V182.42H186.617V184.1V184.285ZM39.6445 213.93H36.8516V204.936H39.6445V213.93ZM33.8145 205.58C33.8079 207.182 33.5052 208.565 32.9062 209.73C32.3073 210.889 31.4023 211.85 30.1914 212.611C28.9805 213.367 27.4505 213.939 25.6016 214.33L24.6543 212.064C26.0996 211.791 27.2747 211.413 28.1797 210.932C29.0846 210.443 29.7357 209.88 30.1328 209.242C30.5365 208.604 30.7415 207.895 30.748 207.113V205.58H33.8145ZM31.8906 207.826H25.6992V205.58H31.8906V207.826ZM37.1641 209.213H33.082V207.094H37.1641V209.213ZM37.0664 212.699H32.9746V210.58H37.0664V212.699ZM39.6445 219.594H30.4746V221.654H27.6621V217.523H36.8223V216.713H27.6426V214.516H39.6445V219.594ZM39.9668 222.689H27.6621V220.482H39.9668V222.689ZM54.8398 211.488H51.6074V209.223H54.8398V211.488ZM56.9297 215.59H54.1367V204.936H56.9297V215.59ZM50.7578 215.922C52.0339 215.922 53.1374 216.062 54.0684 216.342C55.0059 216.622 55.7253 217.022 56.2266 217.543C56.7279 218.064 56.9818 218.689 56.9883 219.418C56.9818 220.141 56.7279 220.762 56.2266 221.283C55.7253 221.804 55.0059 222.204 54.0684 222.484C53.1374 222.764 52.0339 222.904 50.7578 222.904C49.4753 222.904 48.3685 222.764 47.4375 222.484C46.5065 222.204 45.7904 221.804 45.2891 221.283C44.7943 220.762 44.5469 220.141 44.5469 219.418C44.5469 218.689 44.7943 218.064 45.2891 217.543C45.7904 217.022 46.5065 216.622 47.4375 216.342C48.375 216.062 49.4818 215.922 50.7578 215.922ZM50.7578 218.041C49.9896 218.048 49.3548 218.1 48.8535 218.197C48.3587 218.295 47.9811 218.445 47.7207 218.646C47.4668 218.848 47.3398 219.105 47.3398 219.418C47.3398 219.724 47.4668 219.978 47.7207 220.18C47.9811 220.382 48.362 220.531 48.8633 220.629C49.3646 220.727 49.9961 220.775 50.7578 220.775C51.513 220.775 52.1445 220.727 52.6523 220.629C53.1667 220.531 53.5508 220.382 53.8047 220.18C54.0586 219.978 54.1855 219.724 54.1855 219.418C54.1855 219.105 54.0586 218.848 53.8047 218.646C53.5508 218.445 53.1699 218.295 52.6621 218.197C52.1543 218.1 51.5195 218.048 50.7578 218.041ZM48.1016 207.816C48.1016 209.014 47.9225 210.131 47.5645 211.166C47.2129 212.201 46.6595 213.113 45.9043 213.9C45.1491 214.682 44.1953 215.264 43.043 215.648L41.5781 213.422C42.5612 213.096 43.3685 212.637 44 212.045C44.6315 211.452 45.0905 210.798 45.377 210.082C45.6634 209.359 45.8099 208.604 45.8164 207.816V206.742H48.1016V207.816ZM48.6875 207.797C48.6875 208.526 48.8242 209.226 49.0977 209.896C49.3711 210.561 49.8073 211.166 50.4062 211.713C51.0117 212.26 51.7799 212.686 52.7109 212.992L51.334 215.189C50.2207 214.831 49.293 214.281 48.5508 213.539C47.8151 212.797 47.2715 211.938 46.9199 210.961C46.5749 209.978 46.4023 208.923 46.4023 207.797V206.742H48.6875V207.797ZM52.1152 208.207H42.3789V205.961H52.1152V208.207ZM73.2578 222.865H70.4844V204.936H73.2578V222.865ZM75.7969 214.154H72.6426V211.859H75.7969V214.154ZM69.4297 209.799H58.9512V207.553H69.4297V209.799ZM64.2246 210.639C65.0905 210.639 65.8783 210.824 66.5879 211.195C67.2975 211.56 67.8542 212.074 68.2578 212.738C68.6615 213.396 68.8633 214.138 68.8633 214.965C68.8633 215.798 68.6615 216.544 68.2578 217.201C67.8542 217.852 67.2975 218.363 66.5879 218.734C65.8783 219.099 65.0905 219.281 64.2246 219.281C63.3392 219.281 62.5417 219.099 61.832 218.734C61.1289 218.363 60.5788 217.852 60.1816 217.201C59.7845 216.544 59.5859 215.798 59.5859 214.965C59.5859 214.138 59.7845 213.396 60.1816 212.738C60.5788 212.074 61.1289 211.56 61.832 211.195C62.5417 210.824 63.3392 210.639 64.2246 210.639ZM64.2246 212.914C63.8405 212.921 63.502 213.005 63.209 213.168C62.916 213.324 62.6849 213.559 62.5156 213.871C62.3529 214.177 62.2715 214.542 62.2715 214.965C62.2715 215.395 62.3529 215.762 62.5156 216.068C62.6849 216.374 62.916 216.605 63.209 216.762C63.502 216.918 63.8405 216.999 64.2246 217.006C64.6022 216.999 64.9375 216.918 65.2305 216.762C65.5234 216.605 65.7513 216.374 65.9141 216.068C66.0768 215.762 66.1582 215.395 66.1582 214.965C66.1582 214.542 66.0768 214.177 65.9141 213.871C65.7513 213.559 65.5202 213.324 65.2207 213.168C64.9277 213.005 64.5957 212.921 64.2246 212.914ZM65.6309 208.373H62.8184V205.238H65.6309V208.373ZM90.8945 211.859H78.2969V209.662H90.8945V211.859ZM92.6914 215.795H76.3145V213.598H92.6914V215.795ZM81.0996 210.766H78.2969V205.58H81.0996V210.766ZM91.0117 222.494H78.1113V220.238H91.0117V222.494ZM80.9434 220.873H78.1113V217.143H80.9434V220.873ZM111.334 209.545H106.051V207.279H111.334V209.545ZM111.334 213.383H106.051V211.156H111.334V213.383ZM113.277 222.865H110.484V218.51H100.885V216.293H113.277V222.865ZM113.277 215.561H110.484V204.936H113.277V215.561ZM103.121 205.893C104 205.893 104.804 206.081 105.533 206.459C106.269 206.83 106.845 207.357 107.262 208.041C107.678 208.718 107.89 209.473 107.896 210.307C107.89 211.166 107.678 211.941 107.262 212.631C106.845 213.314 106.272 213.848 105.543 214.232C104.814 214.617 104.007 214.809 103.121 214.809C102.223 214.809 101.406 214.617 100.67 214.232C99.9408 213.848 99.3646 213.314 98.9414 212.631C98.5182 211.941 98.3099 211.166 98.3164 210.307C98.3099 209.473 98.5182 208.718 98.9414 208.041C99.3646 207.357 99.9408 206.83 100.67 206.459C101.406 206.081 102.223 205.893 103.121 205.893ZM103.121 208.256C102.698 208.256 102.324 208.337 101.998 208.5C101.679 208.656 101.428 208.891 101.246 209.203C101.064 209.516 100.973 209.883 100.973 210.307C100.973 210.756 101.064 211.14 101.246 211.459C101.428 211.771 101.679 212.012 101.998 212.182C102.324 212.344 102.698 212.426 103.121 212.426C103.518 212.426 103.876 212.344 104.195 212.182C104.514 212.012 104.762 211.771 104.938 211.459C105.12 211.14 105.211 210.756 105.211 210.307C105.211 209.883 105.12 209.516 104.938 209.203C104.762 208.891 104.514 208.656 104.195 208.5C103.876 208.337 103.518 208.256 103.121 208.256ZM129.664 214.574H126.842V204.936H129.664V214.574ZM132.008 210.902H128.531V208.656H132.008V210.902ZM129.664 219.916H120.426V221.391H117.662V218.031H126.861V217.221H117.633V215.229H129.664V219.916ZM130.133 222.768H117.662V220.717H130.133V222.768ZM125.982 208.314H115.367V206.195H125.982V208.314ZM120.689 208.637C121.581 208.637 122.363 208.757 123.033 208.998C123.704 209.232 124.221 209.571 124.586 210.014C124.951 210.456 125.133 210.971 125.133 211.557C125.133 212.162 124.951 212.686 124.586 213.129C124.221 213.565 123.704 213.9 123.033 214.135C122.369 214.369 121.588 214.486 120.689 214.486C119.791 214.486 119.003 214.369 118.326 214.135C117.656 213.9 117.132 213.565 116.754 213.129C116.383 212.686 116.197 212.162 116.197 211.557C116.197 210.977 116.383 210.466 116.754 210.023C117.132 209.574 117.659 209.232 118.336 208.998C119.013 208.757 119.798 208.637 120.689 208.637ZM120.689 210.58C120.318 210.587 120.003 210.626 119.742 210.697C119.488 210.769 119.293 210.876 119.156 211.02C119.02 211.163 118.951 211.342 118.951 211.557C118.951 211.778 119.02 211.96 119.156 212.104C119.293 212.24 119.488 212.341 119.742 212.406C119.996 212.465 120.312 212.494 120.689 212.494C121.067 212.494 121.386 212.465 121.646 212.406C121.913 212.341 122.115 212.24 122.252 212.104C122.395 211.96 122.467 211.778 122.467 211.557C122.467 211.348 122.392 211.173 122.242 211.029C122.099 210.88 121.894 210.769 121.627 210.697C121.367 210.626 121.054 210.587 120.689 210.58ZM122.096 207.709H119.273V204.848H122.096V207.709Z" fill="#464646"/>
<defs>
<filter id="filter0_bd_839_49" x="-76" y="-80" width="366" height="613" filterUnits="userSpaceOnUse" color-interpolation-filters="sRGB">
<feFlood flood-opacity="0" result="BackgroundImageFix"/>
<feGaussianBlur in="BackgroundImageFix" stdDeviation="40"/>
<feComposite in2="SourceAlpha" operator="in" result="effect1_backgroundBlur_839_49"/>
<feColorMatrix in="SourceAlpha" type="matrix" values="0 0 0 0 0 0 0 0 0 0 0 0 0 0 0 0 0 0 127 0" result="hardAlpha"/>
<feOffset dy="3.6"/>
<feGaussianBlur stdDeviation="1.8"/>
<feComposite in2="hardAlpha" operator="out"/>
<feColorMatrix type="matrix" values="0 0 0 0 0 0 0 0 0 0 0 0 0 0 0 0 0 0 0.25 0"/>
<feBlend mode="normal" in2="effect1_backgroundBlur_839_49" result="effect2_dropShadow_839_49"/>
<feBlend mode="normal" in="SourceGraphic" in2="effect2_dropShadow_839_49" result="shape"/>
</filter>
<linearGradient id="paint0_linear_839_49" x1="107" y1="-33.6789" x2="107" y2="453" gradientUnits="userSpaceOnUse">
<stop stop-color="#D8F5DD"/>
<stop offset="1" stop-color="#D8F5DD" stop-opacity="0"/>
</linearGradient>
</defs>
</svg>