<svg xmlns="http://www.w3.org/2000/svg" width="214" height="461" viewBox="0 0 214 461" fill="none">
<g filter="url(#filter0_bd_626_790)">
<rect x="4" width="206" height="453" rx="103" fill="url(#paint0_linear_626_790)" shape-rendering="crispEdges"/>
</g>
<path d="M59.1406 62.1289H64.4141V59.0703H66.6055V68.75H56.9258V59.0703H59.1406V62.1289ZM64.4141 66.957V63.8633H59.1406V66.957H64.4141ZM71.7969 64.8711H66.0312V63.0312H71.7969V64.8711ZM73.4258 69.4766H71.1992V57.9805H73.4258V69.4766ZM61.9531 72.793H71.1992V70.4375H73.4023V78.7109H59.7266V70.4375H61.9531V72.793ZM71.1992 76.8945V74.5508H61.9531V76.8945H71.1992ZM95.8555 69.1484H76.6367V67.4727H95.8555V69.1484ZM93.4883 75.4766H81.1602V77.75H78.9336V73.9766H91.2852V72.4297H78.9102V70.8359H93.4883V75.4766ZM94.1445 78.7812H78.9336V77.2109H94.1445V78.7812ZM93.4297 63.0547H81.3125V65.1875H79.1094V61.5898H91.2031V60.0781H79.0508V58.5312H93.4297V63.0547ZM93.8047 66.1602H79.1094V64.5898H93.8047V66.1602ZM83.8906 71.8555H81.6992V68.0938H83.8906V71.8555ZM90.8281 71.8555H88.6133V68.0938H90.8281V71.8555ZM115.426 78.9805H113.316V57.9805H115.426V78.9805ZM109.707 67.2383H105.781V65.4453H109.707V67.2383ZM111.16 77.9375H109.062V58.4492H111.16V77.9375ZM103.309 63.8516C103.301 65.4062 103.109 66.9023 102.734 68.3398C102.359 69.7695 101.809 71.0586 101.082 72.207C100.363 73.3477 99.4922 74.2344 98.4688 74.8672L97.0859 73.2031C98.0469 72.625 98.8672 71.8438 99.5469 70.8594C100.234 69.8672 100.746 68.7695 101.082 67.5664C101.418 66.3633 101.586 65.125 101.586 63.8516V61.2969H103.309V63.8516ZM103.73 63.8516C103.73 65.0781 103.895 66.2617 104.223 67.4023C104.559 68.543 105.055 69.582 105.711 70.5195C106.375 71.4492 107.184 72.1875 108.137 72.7344L106.801 74.375C105.77 73.7578 104.902 72.9102 104.199 71.832C103.496 70.7539 102.965 69.5352 102.605 68.1758C102.246 66.8086 102.07 65.3672 102.078 63.8516V61.2969H103.73V63.8516ZM107.352 62.1641H97.7422V60.3477H107.352V62.1641ZM134.059 65.1641H129.523V63.3359H134.059V65.1641ZM135.652 70.4844H133.426V57.9805H135.652V70.4844ZM128.609 71.082C130.078 71.082 131.344 71.2383 132.406 71.5508C133.469 71.8633 134.285 72.3164 134.855 72.9102C135.434 73.4961 135.723 74.2031 135.723 75.0312C135.723 75.8594 135.434 76.5664 134.855 77.1523C134.285 77.7461 133.469 78.1992 132.406 78.5117C131.344 78.8242 130.078 78.9844 128.609 78.9922C127.148 78.9844 125.887 78.8242 124.824 78.5117C123.762 78.1992 122.945 77.7461 122.375 77.1523C121.805 76.5664 121.52 75.8594 121.52 75.0312C121.52 74.2031 121.805 73.4961 122.375 72.9102C122.945 72.3164 123.762 71.8633 124.824 71.5508C125.887 71.2383 127.148 71.082 128.609 71.082ZM128.609 72.793C127.586 72.793 126.707 72.8828 125.973 73.0625C125.246 73.2344 124.688 73.4883 124.297 73.8242C123.914 74.1602 123.723 74.5625 123.723 75.0312C123.723 75.5 123.914 75.8984 124.297 76.2266C124.688 76.5547 125.246 76.8086 125.973 76.9883C126.707 77.1602 127.586 77.2461 128.609 77.2461C129.633 77.2461 130.512 77.1602 131.246 76.9883C131.98 76.8086 132.539 76.5547 132.922 76.2266C133.312 75.8984 133.508 75.5 133.508 75.0312C133.508 74.5625 133.312 74.1602 132.922 73.8242C132.539 73.4883 131.98 73.2344 131.246 73.0625C130.512 72.8828 129.633 72.793 128.609 72.793ZM125.234 61.7305C125.234 63.0195 124.996 64.2383 124.52 65.3867C124.043 66.5352 123.359 67.543 122.469 68.4102C121.578 69.2695 120.531 69.9219 119.328 70.3672L118.168 68.5859C119.223 68.2188 120.145 67.6797 120.934 66.9688C121.73 66.25 122.34 65.4375 122.762 64.5312C123.191 63.625 123.406 62.6914 123.406 61.7305V60.1016H125.234V61.7305ZM125.656 61.707C125.656 62.5977 125.859 63.457 126.266 64.2852C126.672 65.1133 127.258 65.8555 128.023 66.5117C128.789 67.168 129.688 67.6719 130.719 68.0234L129.582 69.793C128.41 69.3789 127.391 68.7656 126.523 67.9531C125.664 67.1406 125 66.1953 124.531 65.1172C124.07 64.0391 123.844 62.9023 123.852 61.707V60.1016H125.656V61.707ZM130.18 61.2617H118.836V59.4219H130.18V61.2617ZM149.27 62.0352H139.836V60.2422H149.27V62.0352ZM145.18 73.3672H142.988V66.2422H145.18V73.3672ZM150.582 61.6953C150.574 63.0078 150.535 64.2812 150.465 65.5156C150.395 66.75 150.234 68.168 149.984 69.7695L147.77 69.582C148.027 68.0117 148.188 66.6328 148.25 65.4453C148.32 64.25 148.355 62.9844 148.355 61.6484V61.5312V60.2422H150.582V61.5312V61.6953ZM155.234 78.9805H153.008V57.9805H155.234V78.9805ZM158.445 68.5508H154.613V66.6523H158.445V68.5508ZM138.688 72.6641C141.227 72.6484 143.57 72.5977 145.719 72.5117C147.875 72.4258 149.902 72.2695 151.801 72.043L151.918 73.707C149.949 74.0195 147.867 74.2305 145.672 74.3398C143.484 74.4414 141.238 74.4844 138.934 74.4688L138.688 72.6641ZM83.7031 98.2656H81.4883V86.9805H83.7031V98.2656ZM72.1602 101.617H81.5V99.2734H83.7031V107.723H69.957V99.2734H72.1602V101.617ZM81.5 105.918V103.375H72.1602V105.918H81.5ZM72.3125 87.9648C73.375 87.957 74.3281 88.1602 75.1719 88.5742C76.0234 88.9805 76.6914 89.5547 77.1758 90.2969C77.6602 91.0391 77.9023 91.8867 77.9023 92.8398C77.9023 93.7773 77.6602 94.6133 77.1758 95.3477C76.6914 96.082 76.0234 96.6562 75.1719 97.0703C74.3281 97.4844 73.375 97.6914 72.3125 97.6914C71.25 97.6914 70.293 97.4844 69.4414 97.0703C68.5977 96.6562 67.9336 96.082 67.4492 95.3477C66.9648 94.6133 66.7227 93.7773 66.7227 92.8398C66.7227 91.8867 66.9648 91.0391 67.4492 90.2969C67.9336 89.5547 68.5977 88.9805 69.4414 88.5742C70.293 88.1602 71.25 87.957 72.3125 87.9648ZM72.3125 89.8281C71.6484 89.8281 71.0586 89.9531 70.543 90.2031C70.0273 90.4531 69.6211 90.8086 69.3242 91.2695C69.0352 91.7227 68.8945 92.2461 68.9023 92.8398C68.8945 93.4336 69.0352 93.957 69.3242 94.4102C69.6211 94.8633 70.0273 95.2188 70.543 95.4766C71.0586 95.7344 71.6484 95.8633 72.3125 95.8633C72.9688 95.8633 73.5547 95.7344 74.0703 95.4766C74.5859 95.2188 74.9883 94.8633 75.2773 94.4102C75.5664 93.9492 75.7109 93.4258 75.7109 92.8398C75.7109 92.2539 75.5664 91.7305 75.2773 91.2695C74.9883 90.8086 74.5859 90.4531 74.0703 90.2031C73.5547 89.9531 72.9688 89.8281 72.3125 89.8281ZM90.2539 91.1289H95.5273V88.0703H97.7188V97.75H88.0391V88.0703H90.2539V91.1289ZM95.5273 95.957V92.8633H90.2539V95.957H95.5273ZM102.91 93.8711H97.1445V92.0312H102.91V93.8711ZM104.539 98.4766H102.312V86.9805H104.539V98.4766ZM93.0664 101.793H102.312V99.4375H104.516V107.711H90.8398V99.4375H93.0664V101.793ZM102.312 105.895V103.551H93.0664V105.895H102.312ZM124.309 99.3672H122.07V86.9805H124.309V99.3672ZM127.297 94.1055H123.43V92.2305H127.297V94.1055ZM124.309 104.641H112.695V106.715H110.48V103.199H122.082V101.781H110.445V100.246H124.309V104.641ZM125.07 107.781H110.48V106.246H125.07V107.781ZM115.332 98.2773H113.129V95.5234H115.332V98.2773ZM107.633 97.3633C110.297 97.3633 112.691 97.3281 114.816 97.2578C116.949 97.1797 118.969 97.0078 120.875 96.7422L121.062 98.1953C119.062 98.5234 117.004 98.7344 114.887 98.8281C112.77 98.9219 110.434 98.9688 107.879 98.9688L107.633 97.3633ZM120.277 90.0508H108.16V88.4922H120.277V90.0508ZM114.207 90.6602C115.215 90.6602 116.094 90.7656 116.844 90.9766C117.602 91.1875 118.184 91.5 118.59 91.9141C119.004 92.3203 119.215 92.8047 119.223 93.3672C119.215 93.9531 119.004 94.457 118.59 94.8789C118.184 95.293 117.605 95.6133 116.855 95.8398C116.105 96.0664 115.223 96.1836 114.207 96.1914C113.191 96.1836 112.309 96.0664 111.559 95.8398C110.816 95.6133 110.238 95.293 109.824 94.8789C109.418 94.457 109.215 93.9531 109.215 93.3672C109.215 92.8047 109.418 92.3203 109.824 91.9141C110.238 91.5 110.82 91.1875 111.57 90.9766C112.32 90.7656 113.199 90.6602 114.207 90.6602ZM114.207 92.0898C113.605 92.0898 113.09 92.1406 112.66 92.2422C112.238 92.3438 111.91 92.4922 111.676 92.6875C111.449 92.875 111.336 93.1016 111.336 93.3672C111.336 93.6484 111.449 93.8906 111.676 94.0938C111.91 94.2891 112.242 94.4453 112.672 94.5625C113.102 94.6719 113.613 94.7305 114.207 94.7383C114.801 94.7305 115.312 94.6719 115.742 94.5625C116.172 94.4453 116.504 94.2891 116.738 94.0938C116.973 93.8906 117.09 93.6484 117.09 93.3672C117.09 93.1016 116.977 92.875 116.75 92.6875C116.523 92.4922 116.191 92.3438 115.754 92.2422C115.324 92.1406 114.809 92.0898 114.207 92.0898ZM115.332 89.3594H113.129V86.8047H115.332V89.3594ZM147.688 98.9922H128.516V97.2109H147.688V98.9922ZM139.18 97.9492H137.012V93.9062H139.18V97.9492ZM145.461 94.9844H130.918V93.2031H145.461V94.9844ZM145.332 89.7109H133.109V94.3164H130.918V87.9531H145.332V89.7109ZM138.078 100.352C139.578 100.352 140.871 100.504 141.957 100.809C143.043 101.105 143.875 101.539 144.453 102.109C145.031 102.68 145.324 103.367 145.332 104.172C145.324 104.977 145.031 105.66 144.453 106.223C143.883 106.793 143.051 107.227 141.957 107.523C140.871 107.828 139.578 107.984 138.078 107.992C136.562 107.984 135.258 107.828 134.164 107.523C133.07 107.227 132.234 106.793 131.656 106.223C131.078 105.652 130.789 104.969 130.789 104.172C130.789 103.367 131.078 102.68 131.656 102.109C132.234 101.539 133.07 101.105 134.164 100.809C135.258 100.504 136.562 100.352 138.078 100.352ZM138.078 102.086C137.008 102.086 136.098 102.168 135.348 102.332C134.598 102.488 134.023 102.727 133.625 103.047C133.234 103.359 133.043 103.734 133.051 104.172C133.043 104.617 133.234 104.996 133.625 105.309C134.023 105.621 134.598 105.855 135.348 106.012C136.098 106.168 137.008 106.246 138.078 106.246C139.133 106.246 140.035 106.168 140.785 106.012C141.535 105.855 142.105 105.621 142.496 105.309C142.895 104.996 143.094 104.617 143.094 104.172C143.094 103.734 142.895 103.359 142.496 103.047C142.105 102.727 141.535 102.488 140.785 102.332C140.035 102.168 139.133 102.086 138.078 102.086Z" fill="#0E0E0E"/>
<defs>
<filter id="filter0_bd_626_790" x="-76" y="-80" width="366" height="613" filterUnits="userSpaceOnUse" color-interpolation-filters="sRGB">
<feFlood flood-opacity="0" result="BackgroundImageFix"/>
<feGaussianBlur in="BackgroundImageFix" stdDeviation="40"/>
<feComposite in2="SourceAlpha" operator="in" result="effect1_backgroundBlur_626_790"/>
<feColorMatrix in="SourceAlpha" type="matrix" values="0 0 0 0 0 0 0 0 0 0 0 0 0 0 0 0 0 0 127 0" result="hardAlpha"/>
<feOffset dy="3.6"/>
<feGaussianBlur stdDeviation="1.8"/>
<feComposite in2="hardAlpha" operator="out"/>
<feColorMatrix type="matrix" values="0 0 0 0 0 0 0 0 0 0 0 0 0 0 0 0 0 0 0.25 0"/>
<feBlend mode="normal" in2="effect1_backgroundBlur_626_790" result="effect2_dropShadow_626_790"/>
<feBlend mode="normal" in="SourceGraphic" in2="effect2_dropShadow_626_790" result="shape"/>
</filter>
<linearGradient id="paint0_linear_626_790" x1="107" y1="0" x2="107" y2="453" gradientUnits="userSpaceOnUse">
<stop offset="0.06" stop-color="#F6F6F6" stop-opacity="0.9"/>
<stop offset="1" stop-color="#F6F6F6" stop-opacity="0"/>
</linearGradient>
</defs>
</svg>