<svg xmlns="http://www.w3.org/2000/svg" width="214" height="461" viewBox="0 0 214 461" fill="none">
<g filter="url(#filter0_bd_626_1071)">
<rect x="4" width="206" height="453" rx="103" fill="url(#paint0_linear_626_1071)" shape-rendering="crispEdges"/>
</g>
<path d="M67.082 62.1289H72.3555V59.0703H74.5469V68.75H64.8672V59.0703H67.082V62.1289ZM72.3555 66.957V63.8633H67.082V66.957H72.3555ZM79.7383 64.8711H73.9727V63.0312H79.7383V64.8711ZM81.3672 69.4766H79.1406V57.9805H81.3672V69.4766ZM69.8945 72.793H79.1406V70.4375H81.3438V78.7109H67.668V70.4375H69.8945V72.793ZM79.1406 76.8945V74.5508H69.8945V76.8945H79.1406ZM101.102 73.4141H98.8867V57.9922H101.102V73.4141ZM104.16 66.1133H100.422V64.2617H104.16V66.1133ZM101.992 78.5703H87.8008V76.7305H101.992V78.5703ZM90.0039 77.4922H87.8008V71.8086H90.0039V77.4922ZM90.5078 59.4219C91.5547 59.4219 92.5039 59.6445 93.3555 60.0898C94.2148 60.5352 94.8867 61.1562 95.3711 61.9531C95.8555 62.75 96.1016 63.6484 96.1094 64.6484C96.1016 65.6562 95.8555 66.5586 95.3711 67.3555C94.8867 68.1445 94.2148 68.7656 93.3555 69.2188C92.5039 69.6641 91.5547 69.8867 90.5078 69.8867C89.4609 69.8867 88.5117 69.6641 87.6602 69.2188C86.8086 68.7656 86.1367 68.1406 85.6445 67.3438C85.1602 66.5469 84.918 65.6484 84.918 64.6484C84.918 63.6484 85.1602 62.75 85.6445 61.9531C86.1367 61.1562 86.8047 60.5352 87.6484 60.0898C88.5 59.6445 89.4531 59.4219 90.5078 59.4219ZM90.5078 61.3672C89.875 61.3672 89.2969 61.5039 88.7734 61.7773C88.2578 62.0508 87.8477 62.4414 87.543 62.9492C87.2461 63.4492 87.0977 64.0156 87.0977 64.6484C87.0977 65.2891 87.2461 65.8594 87.543 66.3594C87.8477 66.8516 88.2578 67.2383 88.7734 67.5195C89.2969 67.793 89.875 67.9297 90.5078 67.9297C91.1562 67.9297 91.7383 67.793 92.2539 67.5195C92.7773 67.2383 93.1875 66.8516 93.4844 66.3594C93.7812 65.8594 93.9297 65.2891 93.9297 64.6484C93.9297 64.0078 93.7812 63.4375 93.4844 62.9375C93.1875 62.4375 92.7773 62.0508 92.2539 61.7773C91.7383 61.5039 91.1562 61.3672 90.5078 61.3672ZM114.203 61.7422H119.699V58.8945H121.926V68.0469H112.012V58.8945H114.203V61.7422ZM119.699 66.2656V63.4414H114.203V66.2656H119.699ZM127.703 68.7852H125.488V57.9805H127.703V68.7852ZM130.762 64.2266H126.742V62.3867H130.762V64.2266ZM127.703 75.0078H116.359V77.9492H114.168V73.3555H125.488V71.4688H114.133V69.7109H127.703V75.0078ZM128.43 78.7812H114.168V77H128.43V78.7812ZM138.801 59.4688C139.887 59.4688 140.863 59.6836 141.73 60.1133C142.598 60.5352 143.273 61.1289 143.758 61.8945C144.25 62.6523 144.496 63.5156 144.496 64.4844C144.496 65.4531 144.25 66.3203 143.758 67.0859C143.273 67.8438 142.598 68.4375 141.73 68.8672C140.863 69.2891 139.887 69.5 138.801 69.5C137.699 69.5 136.711 69.2891 135.836 68.8672C134.969 68.4375 134.289 67.8438 133.797 67.0859C133.312 66.3203 133.07 65.4531 133.07 64.4844C133.07 63.5156 133.312 62.6523 133.797 61.8945C134.289 61.1289 134.969 60.5352 135.836 60.1133C136.711 59.6836 137.699 59.4688 138.801 59.4688ZM138.801 61.4141C138.121 61.4141 137.512 61.5391 136.973 61.7891C136.441 62.0391 136.023 62.4023 135.719 62.8789C135.414 63.3477 135.262 63.8828 135.262 64.4844C135.262 65.0938 135.414 65.6289 135.719 66.0898C136.023 66.5508 136.441 66.9102 136.973 67.168C137.512 67.4258 138.121 67.5547 138.801 67.5547C139.473 67.5547 140.078 67.4258 140.617 67.168C141.156 66.9102 141.574 66.5508 141.871 66.0898C142.176 65.6289 142.328 65.0938 142.328 64.4844C142.328 63.8828 142.176 63.3477 141.871 62.8789C141.574 62.4023 141.156 62.0391 140.617 61.7891C140.078 61.5391 139.473 61.4141 138.801 61.4141ZM149.312 79.0391H147.098V57.9805H149.312V79.0391ZM132.051 72.6641C134.637 72.6641 137.062 72.6211 139.328 72.5352C141.594 72.4492 143.742 72.2578 145.773 71.9609L145.938 73.5898C144.477 73.8633 142.953 74.0664 141.367 74.1992C139.789 74.332 138.309 74.418 136.926 74.457C135.543 74.4961 134.016 74.5156 132.344 74.5156L132.051 72.6641Z" fill="#0E0E0E"/>
<defs>
<filter id="filter0_bd_626_1071" x="-76" y="-80" width="366" height="613" filterUnits="userSpaceOnUse" color-interpolation-filters="sRGB">
<feFlood flood-opacity="0" result="BackgroundImageFix"/>
<feGaussianBlur in="BackgroundImageFix" stdDeviation="40"/>
<feComposite in2="SourceAlpha" operator="in" result="effect1_backgroundBlur_626_1071"/>
<feColorMatrix in="SourceAlpha" type="matrix" values="0 0 0 0 0 0 0 0 0 0 0 0 0 0 0 0 0 0 127 0" result="hardAlpha"/>
<feOffset dy="3.6"/>
<feGaussianBlur stdDeviation="1.8"/>
<feComposite in2="hardAlpha" operator="out"/>
<feColorMatrix type="matrix" values="0 0 0 0 0 0 0 0 0 0 0 0 0 0 0 0 0 0 0.25 0"/>
<feBlend mode="normal" in2="effect1_backgroundBlur_626_1071" result="effect2_dropShadow_626_1071"/>
<feBlend mode="normal" in="SourceGraphic" in2="effect2_dropShadow_626_1071" result="shape"/>
</filter>
<linearGradient id="paint0_linear_626_1071" x1="107" y1="0" x2="107" y2="453" gradientUnits="userSpaceOnUse">
<stop offset="0.06" stop-color="#F6F6F6" stop-opacity="0.9"/>
<stop offset="1" stop-color="#F6F6F6" stop-opacity="0"/>
</linearGradient>
</defs>
</svg>