<svg xmlns="http://www.w3.org/2000/svg" width="214" height="578" viewBox="0 0 214 578" fill="none">
<g filter="url(#filter0_bd_626_1237)">
<rect x="4" width="206" height="570" rx="103" fill="url(#paint0_linear_626_1237)" shape-rendering="crispEdges"/>
</g>
<mask id="path-2-outside-1_626_1237" maskUnits="userSpaceOnUse" x="63" y="57.8823" width="88" height="25" fill="black">
<rect fill="white" x="63" y="57.8823" width="88" height="25"/>
<path d="M68.0977 63.0151H71.2148V60.6479H74.9414V70.9136H64.3008V60.6479H68.0977V63.0151ZM71.2148 67.937V65.8862H68.0977V67.937H71.2148ZM78.9492 67.2925H74.1328V64.2339H78.9492V67.2925ZM81.9375 71.4292H78.1992V59.5229H81.9375V71.4292ZM70.8867 73.7964H78.1992V72.2144H81.9375V80.9448H67.1836V72.2144H70.8867V73.7964ZM78.1992 77.9565V76.644H70.8867V77.9565H78.1992ZM101.578 75.2144H97.8047V59.5698H101.578V75.2144ZM104.285 68.6167H100.535V65.5464H104.285V68.6167ZM102.211 80.9097H87.1992V77.9097H102.211V80.9097ZM90.9727 79.3042H87.1992V73.5503H90.9727V79.3042ZM90.3164 60.8472C91.4258 60.8472 92.4453 61.0894 93.375 61.5737C94.3047 62.0503 95.0352 62.7183 95.5664 63.5776C96.1055 64.437 96.375 65.3979 96.375 66.4604C96.375 67.5151 96.1055 68.4722 95.5664 69.3315C95.0352 70.1909 94.3047 70.8667 93.375 71.3589C92.4453 71.8433 91.4258 72.0854 90.3164 72.0854C89.1992 72.0854 88.1719 71.8433 87.2344 71.3589C86.3047 70.8667 85.5664 70.1909 85.0195 69.3315C84.4805 68.4722 84.2109 67.5151 84.2109 66.4604C84.2109 65.3979 84.4805 64.437 85.0195 63.5776C85.5664 62.7183 86.3047 62.0503 87.2344 61.5737C88.1641 61.0894 89.1914 60.8472 90.3164 60.8472ZM90.3164 64.1167C89.8633 64.1167 89.4531 64.2026 89.0859 64.3745C88.7266 64.5464 88.4375 64.812 88.2188 65.1714C88 65.5229 87.8906 65.9526 87.8906 66.4604C87.8906 66.9604 88 67.3862 88.2188 67.7378C88.4375 68.0815 88.7266 68.3472 89.0859 68.5347C89.4531 68.7144 89.8633 68.8042 90.3164 68.8042C90.7695 68.8042 91.1758 68.7183 91.5352 68.5464C91.9023 68.3667 92.1875 68.1011 92.3906 67.7495C92.6016 67.3901 92.707 66.9604 92.707 66.4604C92.707 65.9526 92.6016 65.5229 92.3906 65.1714C92.1875 64.812 91.9023 64.5464 91.5352 64.3745C91.1758 64.2026 90.7695 64.1167 90.3164 64.1167ZM129.984 73.3511H110.203V70.4331H129.984V73.3511ZM122.273 76.3628H118.57V72.0151H122.273V76.3628ZM127.828 80.9097H112.371V77.9097H127.828V80.9097ZM116.098 79.2222H112.371V74.8394H116.098V79.2222ZM116.355 62.1714H123.75V60.2261H127.477V69.2964H112.664V60.2261H116.355V62.1714ZM123.75 66.3667V64.9253H116.355V66.3667H123.75ZM146.074 66.2964H142.078V63.2495H146.074V66.2964ZM138.773 62.605C138.773 64.1128 138.566 65.5073 138.152 66.7886C137.738 68.0698 137.078 69.187 136.172 70.1401C135.266 71.0933 134.109 71.8042 132.703 72.2729L130.676 69.2847C131.902 68.9175 132.887 68.3901 133.629 67.7026C134.379 67.0073 134.91 66.23 135.223 65.3706C135.535 64.5112 135.691 63.5894 135.691 62.605V60.6714H138.773V62.605ZM139.523 62.8511C139.516 63.7651 139.656 64.6167 139.945 65.4058C140.242 66.187 140.734 66.894 141.422 67.5269C142.109 68.1597 143.027 68.6479 144.176 68.9917L142.219 71.98C140.867 71.5347 139.766 70.8628 138.914 69.9644C138.07 69.0659 137.453 68.0151 137.062 66.812C136.68 65.6089 136.492 64.2886 136.5 62.8511V60.6714H139.523V62.8511ZM149.391 81.2026H145.652V76.2925H134.309V73.3276H149.391V81.2026ZM149.391 72.4956H145.652V59.5229H149.391V72.4956Z"/>
</mask>
<path d="M68.0977 63.0151H71.2148V60.6479H74.9414V70.9136H64.3008V60.6479H68.0977V63.0151ZM71.2148 67.937V65.8862H68.0977V67.937H71.2148ZM78.9492 67.2925H74.1328V64.2339H78.9492V67.2925ZM81.9375 71.4292H78.1992V59.5229H81.9375V71.4292ZM70.8867 73.7964H78.1992V72.2144H81.9375V80.9448H67.1836V72.2144H70.8867V73.7964ZM78.1992 77.9565V76.644H70.8867V77.9565H78.1992ZM101.578 75.2144H97.8047V59.5698H101.578V75.2144ZM104.285 68.6167H100.535V65.5464H104.285V68.6167ZM102.211 80.9097H87.1992V77.9097H102.211V80.9097ZM90.9727 79.3042H87.1992V73.5503H90.9727V79.3042ZM90.3164 60.8472C91.4258 60.8472 92.4453 61.0894 93.375 61.5737C94.3047 62.0503 95.0352 62.7183 95.5664 63.5776C96.1055 64.437 96.375 65.3979 96.375 66.4604C96.375 67.5151 96.1055 68.4722 95.5664 69.3315C95.0352 70.1909 94.3047 70.8667 93.375 71.3589C92.4453 71.8433 91.4258 72.0854 90.3164 72.0854C89.1992 72.0854 88.1719 71.8433 87.2344 71.3589C86.3047 70.8667 85.5664 70.1909 85.0195 69.3315C84.4805 68.4722 84.2109 67.5151 84.2109 66.4604C84.2109 65.3979 84.4805 64.437 85.0195 63.5776C85.5664 62.7183 86.3047 62.0503 87.2344 61.5737C88.1641 61.0894 89.1914 60.8472 90.3164 60.8472ZM90.3164 64.1167C89.8633 64.1167 89.4531 64.2026 89.0859 64.3745C88.7266 64.5464 88.4375 64.812 88.2188 65.1714C88 65.5229 87.8906 65.9526 87.8906 66.4604C87.8906 66.9604 88 67.3862 88.2188 67.7378C88.4375 68.0815 88.7266 68.3472 89.0859 68.5347C89.4531 68.7144 89.8633 68.8042 90.3164 68.8042C90.7695 68.8042 91.1758 68.7183 91.5352 68.5464C91.9023 68.3667 92.1875 68.1011 92.3906 67.7495C92.6016 67.3901 92.707 66.9604 92.707 66.4604C92.707 65.9526 92.6016 65.5229 92.3906 65.1714C92.1875 64.812 91.9023 64.5464 91.5352 64.3745C91.1758 64.2026 90.7695 64.1167 90.3164 64.1167ZM129.984 73.3511H110.203V70.4331H129.984V73.3511ZM122.273 76.3628H118.57V72.0151H122.273V76.3628ZM127.828 80.9097H112.371V77.9097H127.828V80.9097ZM116.098 79.2222H112.371V74.8394H116.098V79.2222ZM116.355 62.1714H123.75V60.2261H127.477V69.2964H112.664V60.2261H116.355V62.1714ZM123.75 66.3667V64.9253H116.355V66.3667H123.75ZM146.074 66.2964H142.078V63.2495H146.074V66.2964ZM138.773 62.605C138.773 64.1128 138.566 65.5073 138.152 66.7886C137.738 68.0698 137.078 69.187 136.172 70.1401C135.266 71.0933 134.109 71.8042 132.703 72.2729L130.676 69.2847C131.902 68.9175 132.887 68.3901 133.629 67.7026C134.379 67.0073 134.91 66.23 135.223 65.3706C135.535 64.5112 135.691 63.5894 135.691 62.605V60.6714H138.773V62.605ZM139.523 62.8511C139.516 63.7651 139.656 64.6167 139.945 65.4058C140.242 66.187 140.734 66.894 141.422 67.5269C142.109 68.1597 143.027 68.6479 144.176 68.9917L142.219 71.98C140.867 71.5347 139.766 70.8628 138.914 69.9644C138.07 69.0659 137.453 68.0151 137.062 66.812C136.68 65.6089 136.492 64.2886 136.5 62.8511V60.6714H139.523V62.8511ZM149.391 81.2026H145.652V76.2925H134.309V73.3276H149.391V81.2026ZM149.391 72.4956H145.652V59.5229H149.391V72.4956Z" fill="#F6F6F6"/>
<path d="M68.0977 63.0151H67.0977V64.0151H68.0977V63.0151ZM71.2148 63.0151V64.0151H72.2148V63.0151H71.2148ZM71.2148 60.6479V59.6479H70.2148V60.6479H71.2148ZM74.9414 60.6479H75.9414V59.6479H74.9414V60.6479ZM74.9414 70.9136V71.9136H75.9414V70.9136H74.9414ZM64.3008 70.9136H63.3008V71.9136H64.3008V70.9136ZM64.3008 60.6479V59.6479H63.3008V60.6479H64.3008ZM68.0977 60.6479H69.0977V59.6479H68.0977V60.6479ZM71.2148 67.937V68.937H72.2148V67.937H71.2148ZM71.2148 65.8862H72.2148V64.8862H71.2148V65.8862ZM68.0977 65.8862V64.8862H67.0977V65.8862H68.0977ZM68.0977 67.937H67.0977V68.937H68.0977V67.937ZM78.9492 67.2925V68.2925H79.9492V67.2925H78.9492ZM74.1328 67.2925H73.1328V68.2925H74.1328V67.2925ZM74.1328 64.2339V63.2339H73.1328V64.2339H74.1328ZM78.9492 64.2339H79.9492V63.2339H78.9492V64.2339ZM81.9375 71.4292V72.4292H82.9375V71.4292H81.9375ZM78.1992 71.4292H77.1992V72.4292H78.1992V71.4292ZM78.1992 59.5229V58.5229H77.1992V59.5229H78.1992ZM81.9375 59.5229H82.9375V58.5229H81.9375V59.5229ZM70.8867 73.7964H69.8867V74.7964H70.8867V73.7964ZM78.1992 73.7964V74.7964H79.1992V73.7964H78.1992ZM78.1992 72.2144V71.2144H77.1992V72.2144H78.1992ZM81.9375 72.2144H82.9375V71.2144H81.9375V72.2144ZM81.9375 80.9448V81.9448H82.9375V80.9448H81.9375ZM67.1836 80.9448H66.1836V81.9448H67.1836V80.9448ZM67.1836 72.2144V71.2144H66.1836V72.2144H67.1836ZM70.8867 72.2144H71.8867V71.2144H70.8867V72.2144ZM78.1992 77.9565V78.9565H79.1992V77.9565H78.1992ZM78.1992 76.644H79.1992V75.644H78.1992V76.644ZM70.8867 76.644V75.644H69.8867V76.644H70.8867ZM70.8867 77.9565H69.8867V78.9565H70.8867V77.9565ZM68.0977 64.0151H71.2148V62.0151H68.0977V64.0151ZM72.2148 63.0151V60.6479H70.2148V63.0151H72.2148ZM71.2148 61.6479H74.9414V59.6479H71.2148V61.6479ZM73.9414 60.6479V70.9136H75.9414V60.6479H73.9414ZM74.9414 69.9136H64.3008V71.9136H74.9414V69.9136ZM65.3008 70.9136V60.6479H63.3008V70.9136H65.3008ZM64.3008 61.6479H68.0977V59.6479H64.3008V61.6479ZM67.0977 60.6479V63.0151H69.0977V60.6479H67.0977ZM72.2148 67.937V65.8862H70.2148V67.937H72.2148ZM71.2148 64.8862H68.0977V66.8862H71.2148V64.8862ZM67.0977 65.8862V67.937H69.0977V65.8862H67.0977ZM68.0977 68.937H71.2148V66.937H68.0977V68.937ZM78.9492 66.2925H74.1328V68.2925H78.9492V66.2925ZM75.1328 67.2925V64.2339H73.1328V67.2925H75.1328ZM74.1328 65.2339H78.9492V63.2339H74.1328V65.2339ZM77.9492 64.2339V67.2925H79.9492V64.2339H77.9492ZM81.9375 70.4292H78.1992V72.4292H81.9375V70.4292ZM79.1992 71.4292V59.5229H77.1992V71.4292H79.1992ZM78.1992 60.5229H81.9375V58.5229H78.1992V60.5229ZM80.9375 59.5229V71.4292H82.9375V59.5229H80.9375ZM70.8867 74.7964H78.1992V72.7964H70.8867V74.7964ZM79.1992 73.7964V72.2144H77.1992V73.7964H79.1992ZM78.1992 73.2144H81.9375V71.2144H78.1992V73.2144ZM80.9375 72.2144V80.9448H82.9375V72.2144H80.9375ZM81.9375 79.9448H67.1836V81.9448H81.9375V79.9448ZM68.1836 80.9448V72.2144H66.1836V80.9448H68.1836ZM67.1836 73.2144H70.8867V71.2144H67.1836V73.2144ZM69.8867 72.2144V73.7964H71.8867V72.2144H69.8867ZM79.1992 77.9565V76.644H77.1992V77.9565H79.1992ZM78.1992 75.644H70.8867V77.644H78.1992V75.644ZM69.8867 76.644V77.9565H71.8867V76.644H69.8867ZM70.8867 78.9565H78.1992V76.9565H70.8867V78.9565ZM101.578 75.2144V76.2144H102.578V75.2144H101.578ZM97.8047 75.2144H96.8047V76.2144H97.8047V75.2144ZM97.8047 59.5698V58.5698H96.8047V59.5698H97.8047ZM101.578 59.5698H102.578V58.5698H101.578V59.5698ZM104.285 68.6167V69.6167H105.285V68.6167H104.285ZM100.535 68.6167H99.5352V69.6167H100.535V68.6167ZM100.535 65.5464V64.5464H99.5352V65.5464H100.535ZM104.285 65.5464H105.285V64.5464H104.285V65.5464ZM102.211 80.9097V81.9097H103.211V80.9097H102.211ZM87.1992 80.9097H86.1992V81.9097H87.1992V80.9097ZM87.1992 77.9097V76.9097H86.1992V77.9097H87.1992ZM102.211 77.9097H103.211V76.9097H102.211V77.9097ZM90.9727 79.3042V80.3042H91.9727V79.3042H90.9727ZM87.1992 79.3042H86.1992V80.3042H87.1992V79.3042ZM87.1992 73.5503V72.5503H86.1992V73.5503H87.1992ZM90.9727 73.5503H91.9727V72.5503H90.9727V73.5503ZM93.375 61.5737L92.9129 62.4606L92.9188 62.4636L93.375 61.5737ZM95.5664 63.5776L94.7158 64.1035L94.7193 64.109L95.5664 63.5776ZM95.5664 69.3315L94.7193 68.8001L94.7158 68.8057L95.5664 69.3315ZM93.375 71.3589L93.8371 72.2458L93.8429 72.2427L93.375 71.3589ZM87.2344 71.3589L86.7665 72.2427L86.7754 72.2473L87.2344 71.3589ZM85.0195 69.3315L84.1724 69.8629L84.1759 69.8684L85.0195 69.3315ZM85.0195 63.5776L84.1759 63.0408L84.1724 63.0463L85.0195 63.5776ZM87.2344 61.5737L87.6905 62.4636L87.6964 62.4606L87.2344 61.5737ZM89.0859 64.3745L88.662 63.4688L88.6545 63.4724L89.0859 64.3745ZM88.2188 65.1714L89.0678 65.6997L89.0729 65.6913L88.2188 65.1714ZM88.2188 67.7378L87.3696 68.2661L87.3751 68.2747L88.2188 67.7378ZM89.0859 68.5347L88.6234 69.4213L88.6348 69.4272L88.6464 69.4329L89.0859 68.5347ZM91.5352 68.5464L91.9666 69.4486L91.9747 69.4446L91.5352 68.5464ZM92.3906 67.7495L91.5282 67.2433L91.5248 67.2492L92.3906 67.7495ZM92.3906 65.1714L91.5201 65.6634L91.5265 65.6747L91.5331 65.6859L92.3906 65.1714ZM91.5352 64.3745L91.1037 65.2767L91.1112 65.2802L91.5352 64.3745ZM101.578 74.2144H97.8047V76.2144H101.578V74.2144ZM98.8047 75.2144V59.5698H96.8047V75.2144H98.8047ZM97.8047 60.5698H101.578V58.5698H97.8047V60.5698ZM100.578 59.5698V75.2144H102.578V59.5698H100.578ZM104.285 67.6167H100.535V69.6167H104.285V67.6167ZM101.535 68.6167V65.5464H99.5352V68.6167H101.535ZM100.535 66.5464H104.285V64.5464H100.535V66.5464ZM103.285 65.5464V68.6167H105.285V65.5464H103.285ZM102.211 79.9097H87.1992V81.9097H102.211V79.9097ZM88.1992 80.9097V77.9097H86.1992V80.9097H88.1992ZM87.1992 78.9097H102.211V76.9097H87.1992V78.9097ZM101.211 77.9097V80.9097H103.211V77.9097H101.211ZM90.9727 78.3042H87.1992V80.3042H90.9727V78.3042ZM88.1992 79.3042V73.5503H86.1992V79.3042H88.1992ZM87.1992 74.5503H90.9727V72.5503H87.1992V74.5503ZM89.9727 73.5503V79.3042H91.9727V73.5503H89.9727ZM90.3164 61.8472C91.2746 61.8472 92.1342 62.0549 92.9129 62.4606L93.8371 60.6869C92.7564 60.1238 91.577 59.8472 90.3164 59.8472V61.8472ZM92.9188 62.4636C93.6921 62.86 94.2838 63.4046 94.7158 64.1035L96.417 63.0518C95.7865 62.032 94.9173 61.2406 93.8312 60.6838L92.9188 62.4636ZM94.7193 64.109C95.1536 64.8014 95.375 65.5766 95.375 66.4604H97.375C97.375 65.2193 97.0573 64.0726 96.4135 63.0463L94.7193 64.109ZM95.375 66.4604C95.375 67.335 95.1544 68.1065 94.7193 68.8002L96.4135 69.8629C97.0566 68.8378 97.375 67.6953 97.375 66.4604H95.375ZM94.7158 68.8057C94.282 69.5075 93.6864 70.0625 92.9071 70.4751L93.8429 72.2427C94.9229 71.6709 95.7883 70.8743 96.417 69.8574L94.7158 68.8057ZM92.9129 70.472C92.1342 70.8777 91.2746 71.0854 90.3164 71.0854V73.0854C91.577 73.0854 92.7564 72.8088 93.8371 72.2457L92.9129 70.472ZM90.3164 71.0854C89.3493 71.0854 88.4807 70.8772 87.6934 70.4705L86.7754 72.2473C87.8631 72.8093 89.0491 73.0854 90.3164 73.0854V71.0854ZM87.7023 70.4751C86.9206 70.0613 86.3139 69.5029 85.8632 68.7947L84.1759 69.8684C84.8189 70.879 85.6888 71.6721 86.7665 72.2427L87.7023 70.4751ZM85.8667 68.8002C85.4316 68.1065 85.2109 67.335 85.2109 66.4604H83.2109C83.2109 67.6953 83.5294 68.8378 84.1724 69.8629L85.8667 68.8002ZM85.2109 66.4604C85.2109 65.5766 85.4323 64.8014 85.8667 64.109L84.1724 63.0463C83.5286 64.0726 83.2109 65.2193 83.2109 66.4604H85.2109ZM85.8632 64.1145C86.3121 63.4092 86.9149 62.8612 87.6905 62.4636L86.7782 60.6838C85.6945 61.2393 84.8208 62.0274 84.1759 63.0408L85.8632 64.1145ZM87.6964 62.4606C88.4731 62.0559 89.3402 61.8472 90.3164 61.8472V59.8472C89.0426 59.8472 87.855 60.1228 86.7723 60.6869L87.6964 62.4606ZM90.3164 63.1167C89.7341 63.1167 89.1767 63.2279 88.662 63.4688L89.5099 65.2802C89.7295 65.1774 89.9924 65.1167 90.3164 65.1167V63.1167ZM88.6545 63.4724C88.1101 63.7328 87.6782 64.1361 87.3646 64.6514L89.0729 65.6913C89.1968 65.4879 89.3431 65.36 89.5174 65.2766L88.6545 63.4724ZM87.3697 64.6431C87.0321 65.1857 86.8906 65.8082 86.8906 66.4604H88.8906C88.8906 66.0971 88.9679 65.8602 89.0678 65.6997L87.3697 64.6431ZM86.8906 66.4604C86.8906 67.1082 87.0335 67.7259 87.3697 68.2661L89.0678 67.2095C88.9665 67.0466 88.8906 66.8127 88.8906 66.4604H86.8906ZM87.3751 68.2747C87.6875 68.7656 88.1076 69.1522 88.6234 69.4213L89.5485 67.6481C89.3455 67.5422 89.1875 67.3975 89.0624 67.2009L87.3751 68.2747ZM88.6464 69.4329C89.1647 69.6865 89.7276 69.8042 90.3164 69.8042V67.8042C89.9989 67.8042 89.7416 67.7422 89.5255 67.6365L88.6464 69.4329ZM90.3164 69.8042C90.8983 69.8042 91.4551 69.6931 91.9666 69.4485L91.1037 67.6443C90.8964 67.7434 90.6408 67.8042 90.3164 67.8042V69.8042ZM91.9747 69.4446C92.5191 69.1782 92.9532 68.7747 93.2565 68.2498L91.5248 67.2492C91.4218 67.4275 91.2856 67.5552 91.0956 67.6482L91.9747 69.4446ZM93.253 68.2557C93.5706 67.7148 93.707 67.1028 93.707 66.4604H91.707C91.707 66.8181 91.6326 67.0655 91.5282 67.2433L93.253 68.2557ZM93.707 66.4604C93.707 65.8144 93.5722 65.197 93.2481 64.6569L91.5331 65.6859C91.6309 65.8489 91.707 66.0909 91.707 66.4604H93.707ZM93.2612 64.6793C92.9578 64.1425 92.5182 63.7305 91.9591 63.4688L91.1112 65.2802C91.2865 65.3623 91.4172 65.4815 91.5201 65.6634L93.2612 64.6793ZM91.9666 63.4724C91.4551 63.2277 90.8983 63.1167 90.3164 63.1167V65.1167C90.6408 65.1167 90.8964 65.1775 91.1037 65.2766L91.9666 63.4724ZM129.984 73.3511V74.3511H130.984V73.3511H129.984ZM110.203 73.3511H109.203V74.3511H110.203V73.3511ZM110.203 70.4331V69.4331H109.203V70.4331H110.203ZM129.984 70.4331H130.984V69.4331H129.984V70.4331ZM122.273 76.3628V77.3628H123.273V76.3628H122.273ZM118.57 76.3628H117.57V77.3628H118.57V76.3628ZM118.57 72.0151V71.0151H117.57V72.0151H118.57ZM122.273 72.0151H123.273V71.0151H122.273V72.0151ZM127.828 80.9097V81.9097H128.828V80.9097H127.828ZM112.371 80.9097H111.371V81.9097H112.371V80.9097ZM112.371 77.9097V76.9097H111.371V77.9097H112.371ZM127.828 77.9097H128.828V76.9097H127.828V77.9097ZM116.098 79.2222V80.2222H117.098V79.2222H116.098ZM112.371 79.2222H111.371V80.2222H112.371V79.2222ZM112.371 74.8394V73.8394H111.371V74.8394H112.371ZM116.098 74.8394H117.098V73.8394H116.098V74.8394ZM116.355 62.1714H115.355V63.1714H116.355V62.1714ZM123.75 62.1714V63.1714H124.75V62.1714H123.75ZM123.75 60.2261V59.2261H122.75V60.2261H123.75ZM127.477 60.2261H128.477V59.2261H127.477V60.2261ZM127.477 69.2964V70.2964H128.477V69.2964H127.477ZM112.664 69.2964H111.664V70.2964H112.664V69.2964ZM112.664 60.2261V59.2261H111.664V60.2261H112.664ZM116.355 60.2261H117.355V59.2261H116.355V60.2261ZM123.75 66.3667V67.3667H124.75V66.3667H123.75ZM123.75 64.9253H124.75V63.9253H123.75V64.9253ZM116.355 64.9253V63.9253H115.355V64.9253H116.355ZM116.355 66.3667H115.355V67.3667H116.355V66.3667ZM129.984 72.3511H110.203V74.3511H129.984V72.3511ZM111.203 73.3511V70.4331H109.203V73.3511H111.203ZM110.203 71.4331H129.984V69.4331H110.203V71.4331ZM128.984 70.4331V73.3511H130.984V70.4331H128.984ZM122.273 75.3628H118.57V77.3628H122.273V75.3628ZM119.57 76.3628V72.0151H117.57V76.3628H119.57ZM118.57 73.0151H122.273V71.0151H118.57V73.0151ZM121.273 72.0151V76.3628H123.273V72.0151H121.273ZM127.828 79.9097H112.371V81.9097H127.828V79.9097ZM113.371 80.9097V77.9097H111.371V80.9097H113.371ZM112.371 78.9097H127.828V76.9097H112.371V78.9097ZM126.828 77.9097V80.9097H128.828V77.9097H126.828ZM116.098 78.2222H112.371V80.2222H116.098V78.2222ZM113.371 79.2222V74.8394H111.371V79.2222H113.371ZM112.371 75.8394H116.098V73.8394H112.371V75.8394ZM115.098 74.8394V79.2222H117.098V74.8394H115.098ZM116.355 63.1714H123.75V61.1714H116.355V63.1714ZM124.75 62.1714V60.2261H122.75V62.1714H124.75ZM123.75 61.2261H127.477V59.2261H123.75V61.2261ZM126.477 60.2261V69.2964H128.477V60.2261H126.477ZM127.477 68.2964H112.664V70.2964H127.477V68.2964ZM113.664 69.2964V60.2261H111.664V69.2964H113.664ZM112.664 61.2261H116.355V59.2261H112.664V61.2261ZM115.355 60.2261V62.1714H117.355V60.2261H115.355ZM124.75 66.3667V64.9253H122.75V66.3667H124.75ZM123.75 63.9253H116.355V65.9253H123.75V63.9253ZM115.355 64.9253V66.3667H117.355V64.9253H115.355ZM116.355 67.3667H123.75V65.3667H116.355V67.3667ZM146.074 66.2964V67.2964H147.074V66.2964H146.074ZM142.078 66.2964H141.078V67.2964H142.078V66.2964ZM142.078 63.2495V62.2495H141.078V63.2495H142.078ZM146.074 63.2495H147.074V62.2495H146.074V63.2495ZM132.703 72.2729L131.876 72.8344L132.301 73.4611L133.019 73.2216L132.703 72.2729ZM130.676 69.2847L130.389 68.3267L129.083 68.7177L129.848 69.8461L130.676 69.2847ZM133.629 67.7026L134.308 68.4363L134.309 68.436L133.629 67.7026ZM135.691 60.6714V59.6714H134.691V60.6714H135.691ZM138.773 60.6714H139.773V59.6714H138.773V60.6714ZM139.523 62.8511L140.523 62.8596V62.8511H139.523ZM139.945 65.4058L139.006 65.7498L139.011 65.761L139.945 65.4058ZM144.176 68.9917L145.012 69.5396L145.747 68.4181L144.463 68.0337L144.176 68.9917ZM142.219 71.98L141.906 72.9298L142.635 73.1699L143.055 72.5278L142.219 71.98ZM138.914 69.9644L138.185 70.6489L138.188 70.6523L138.914 69.9644ZM137.062 66.812L136.11 67.1152L136.111 67.1208L137.062 66.812ZM136.5 62.8511L137.5 62.8565V62.8511H136.5ZM136.5 60.6714V59.6714H135.5V60.6714H136.5ZM139.523 60.6714H140.523V59.6714H139.523V60.6714ZM149.391 81.2026V82.2026H150.391V81.2026H149.391ZM145.652 81.2026H144.652V82.2026H145.652V81.2026ZM145.652 76.2925H146.652V75.2925H145.652V76.2925ZM134.309 76.2925H133.309V77.2925H134.309V76.2925ZM134.309 73.3276V72.3276H133.309V73.3276H134.309ZM149.391 73.3276H150.391V72.3276H149.391V73.3276ZM149.391 72.4956V73.4956H150.391V72.4956H149.391ZM145.652 72.4956H144.652V73.4956H145.652V72.4956ZM145.652 59.5229V58.5229H144.652V59.5229H145.652ZM149.391 59.5229H150.391V58.5229H149.391V59.5229ZM146.074 65.2964H142.078V67.2964H146.074V65.2964ZM143.078 66.2964V63.2495H141.078V66.2964H143.078ZM142.078 64.2495H146.074V62.2495H142.078V64.2495ZM145.074 63.2495V66.2964H147.074V63.2495H145.074ZM137.773 62.605C137.773 64.0207 137.579 65.3103 137.201 66.4811L139.104 67.0961C139.554 65.7044 139.773 64.2048 139.773 62.605H137.773ZM137.201 66.4811C136.832 67.6232 136.248 68.6092 135.447 69.4511L136.897 70.8292C137.909 69.7649 138.645 68.5164 139.104 67.0961L137.201 66.4811ZM135.447 69.4511C134.667 70.2711 133.658 70.9006 132.387 71.3243L133.019 73.2216C134.561 72.7078 135.864 71.9154 136.897 70.8292L135.447 69.4511ZM133.531 71.7115L131.503 68.7232L129.848 69.8461L131.876 72.8344L133.531 71.7115ZM130.963 70.2427C132.298 69.843 133.428 69.2514 134.308 68.4363L132.949 66.969C132.345 67.5289 131.507 67.992 130.389 68.3267L130.963 70.2427ZM134.309 68.436C135.161 67.6456 135.789 66.738 136.162 65.7123L134.283 65.0289C134.031 65.722 133.596 66.3691 132.949 66.9693L134.309 68.436ZM136.162 65.7123C136.518 64.7353 136.691 63.697 136.691 62.605H134.691C134.691 63.4818 134.553 64.2871 134.283 65.0289L136.162 65.7123ZM136.691 62.605V60.6714H134.691V62.605H136.691ZM135.691 61.6714H138.773V59.6714H135.691V61.6714ZM137.773 60.6714V62.605H139.773V60.6714H137.773ZM138.523 62.8425C138.515 63.8662 138.672 64.8383 139.006 65.7497L140.884 65.0618C140.64 64.3951 140.517 63.664 140.523 62.8596L138.523 62.8425ZM139.011 65.761C139.369 66.7037 139.957 67.5372 140.745 68.2626L142.099 66.7911C141.512 66.2509 141.116 65.6703 140.88 65.0505L139.011 65.761ZM140.745 68.2626C141.571 69.023 142.635 69.5744 143.889 69.9497L144.463 68.0337C143.42 67.7215 142.648 67.2963 142.099 66.7911L140.745 68.2626ZM143.339 68.4438L141.382 71.4321L143.055 72.5278L145.012 69.5396L143.339 68.4438ZM142.532 71.0302C141.314 70.6289 140.362 70.0379 139.64 69.2764L138.188 70.6523C139.17 71.6877 140.421 72.4405 141.906 72.9298L142.532 71.0302ZM139.643 69.2798C138.903 68.4916 138.36 67.57 138.014 66.5032L136.111 67.1208C136.546 68.4602 137.238 69.6403 138.185 70.6489L139.643 69.2798ZM138.015 66.5088C137.668 65.4182 137.493 64.2036 137.5 62.8565L135.5 62.8456C135.492 64.3736 135.691 65.7996 136.11 67.1152L138.015 66.5088ZM137.5 62.8511V60.6714H135.5V62.8511H137.5ZM136.5 61.6714H139.523V59.6714H136.5V61.6714ZM138.523 60.6714V62.8511H140.523V60.6714H138.523ZM149.391 80.2026H145.652V82.2026H149.391V80.2026ZM146.652 81.2026V76.2925H144.652V81.2026H146.652ZM145.652 75.2925H134.309V77.2925H145.652V75.2925ZM135.309 76.2925V73.3276H133.309V76.2925H135.309ZM134.309 74.3276H149.391V72.3276H134.309V74.3276ZM148.391 73.3276V81.2026H150.391V73.3276H148.391ZM149.391 71.4956H145.652V73.4956H149.391V71.4956ZM146.652 72.4956V59.5229H144.652V72.4956H146.652ZM145.652 60.5229H149.391V58.5229H145.652V60.5229ZM148.391 59.5229V72.4956H150.391V59.5229H148.391Z" fill="black" mask="url(#path-2-outside-1_626_1237)"/>
<path d="M48.0977 149.667H46.5547V136.425H48.0977V149.667ZM47.1992 142.323H43.5469V141.054H47.1992V142.323ZM47.1992 145.937H43.5469V144.687H47.1992V145.937ZM43.5469 139.804H33.7227V138.554H43.5469V139.804ZM38.6836 140.761C39.4518 140.761 40.1354 140.897 40.7344 141.171C41.3333 141.444 41.8021 141.835 42.1406 142.343C42.4792 142.844 42.6484 143.424 42.6484 144.081C42.6484 144.732 42.4792 145.308 42.1406 145.81C41.8021 146.311 41.3333 146.701 40.7344 146.981C40.1354 147.261 39.4518 147.401 38.6836 147.401C37.9154 147.401 37.235 147.261 36.6426 146.981C36.0501 146.701 35.5846 146.311 35.2461 145.81C34.9141 145.308 34.7513 144.732 34.7578 144.081C34.7513 143.424 34.9141 142.844 35.2461 142.343C35.5846 141.835 36.0501 141.444 36.6426 141.171C37.235 140.897 37.9154 140.761 38.6836 140.761ZM38.6836 141.972C38.1953 141.978 37.7591 142.073 37.375 142.255C36.9974 142.431 36.7044 142.678 36.4961 142.997C36.2878 143.31 36.1836 143.671 36.1836 144.081C36.1836 144.491 36.2878 144.856 36.4961 145.175C36.7044 145.487 36.9974 145.731 37.375 145.907C37.7591 146.083 38.1953 146.171 38.6836 146.171C39.1719 146.171 39.6048 146.083 39.9824 145.907C40.3665 145.731 40.666 145.487 40.8809 145.175C41.0957 144.856 41.2031 144.491 41.2031 144.081C41.2031 143.671 41.0957 143.306 40.8809 142.987C40.666 142.662 40.3665 142.414 39.9824 142.245C39.6048 142.069 39.1719 141.978 38.6836 141.972ZM39.4648 139.354H37.9414V136.405H39.4648V139.354ZM48.4883 153.397H36.8672V152.108H48.4883V153.397ZM38.4102 152.733H36.8672V148.495H38.4102V152.733ZM65.9102 153.769H64.4258V136.405H65.9102V153.769ZM64.9922 144.745H61.6133V143.437H64.9922V144.745ZM62.0625 152.89H60.5977V136.776H62.0625V152.89ZM55.832 141.151C55.8385 142.532 55.6855 143.808 55.373 144.979C55.0671 146.151 54.6081 147.183 53.9961 148.075C53.3906 148.961 52.6484 149.66 51.7695 150.175L50.8125 149.003C51.6328 148.547 52.3327 147.929 52.9121 147.147C53.4915 146.366 53.9245 145.468 54.2109 144.452C54.5039 143.43 54.6471 142.33 54.6406 141.151V139.101H55.832V141.151ZM56.125 141.151C56.125 142.219 56.2715 143.225 56.5645 144.169C56.8574 145.113 57.2871 145.95 57.8535 146.679C58.4199 147.408 59.1068 147.981 59.9141 148.397L58.9961 149.589C58.1172 149.107 57.3717 148.446 56.7598 147.606C56.1543 146.767 55.6953 145.797 55.3828 144.696C55.0768 143.596 54.9271 142.414 54.9336 141.151V139.101H56.125V141.151ZM59.3477 139.765H51.2227V138.476H59.3477V139.765ZM89.1719 147.655H73.2734V146.366H89.1719V147.655ZM81.9258 153.769H80.4219V147.128H81.9258V153.769ZM81.1836 137.108C82.3945 137.108 83.4622 137.265 84.3867 137.577C85.3112 137.89 86.0273 138.336 86.5352 138.915C87.043 139.488 87.2969 140.162 87.2969 140.937C87.2969 141.698 87.043 142.366 86.5352 142.938C86.0273 143.505 85.3079 143.941 84.377 144.247C83.4525 144.553 82.388 144.706 81.1836 144.706C79.9727 144.706 78.9082 144.553 77.9902 144.247C77.0723 143.941 76.3561 143.505 75.8418 142.938C75.3275 142.366 75.0703 141.698 75.0703 140.937C75.0703 140.162 75.3275 139.488 75.8418 138.915C76.3561 138.336 77.0723 137.89 77.9902 137.577C78.9082 137.265 79.9727 137.108 81.1836 137.108ZM81.1836 138.358C80.2852 138.358 79.4941 138.463 78.8105 138.671C78.127 138.879 77.5931 139.182 77.209 139.579C76.8314 139.97 76.6458 140.422 76.6523 140.937C76.6458 141.444 76.8314 141.89 77.209 142.274C77.5931 142.659 78.127 142.955 78.8105 143.163C79.4941 143.371 80.2852 143.476 81.1836 143.476C82.082 143.476 82.873 143.371 83.5566 143.163C84.2402 142.955 84.7741 142.659 85.1582 142.274C85.5423 141.89 85.7344 141.444 85.7344 140.937C85.7344 140.422 85.5456 139.97 85.168 139.579C84.7904 139.182 84.2565 138.879 83.5664 138.671C82.8763 138.463 82.082 138.358 81.1836 138.358ZM104.914 153.808H103.391V136.405H104.914V153.808ZM93.0391 148.3C94.6146 148.306 96.0794 148.264 97.4336 148.173C98.7943 148.082 100.22 147.916 101.711 147.675L101.867 148.964C100.357 149.198 98.9115 149.361 97.5312 149.452C96.151 149.543 94.6536 149.589 93.0391 149.589H91.5938V148.3H93.0391ZM99.6406 144.198H93.1562V148.788H91.5938V142.948H98.0977V139.296H91.5547V138.026H99.6406V144.198ZM126.184 138.515H114.895V137.265H126.184V138.515ZM128.781 144.706H112.883V143.456H128.781V144.706ZM121.555 148.437H120.031V144.296H121.555V148.437ZM126.691 138.515C126.691 139.511 126.659 140.425 126.594 141.259C126.529 142.086 126.372 143.033 126.125 144.101L124.621 143.905C124.79 143.196 124.914 142.535 124.992 141.923C125.07 141.304 125.119 140.757 125.139 140.282C125.158 139.807 125.168 139.257 125.168 138.632V138.515V137.265H126.691V138.515ZM126.809 153.769H125.266V149.179H114.523V147.909H126.809V153.769ZM136.75 149.687H135.207V146.815H136.75V149.687ZM144.406 153.769H142.883V136.405H144.406V153.769ZM130.988 149.14C133.15 149.12 135.09 149.075 136.809 149.003C138.527 148.931 140.168 148.795 141.73 148.593L141.848 149.765C140.122 150.045 138.329 150.23 136.467 150.321C134.605 150.406 132.616 150.448 130.5 150.448L130.266 149.14H130.988ZM141.281 139.804H130.637V138.554H141.281V139.804ZM135.949 140.8C136.783 140.8 137.518 140.93 138.156 141.19C138.794 141.451 139.286 141.828 139.631 142.323C139.976 142.812 140.148 143.378 140.148 144.022C140.148 144.66 139.976 145.22 139.631 145.702C139.286 146.184 138.791 146.555 138.146 146.815C137.508 147.076 136.776 147.206 135.949 147.206C135.122 147.206 134.393 147.076 133.762 146.815C133.137 146.555 132.648 146.184 132.297 145.702C131.952 145.22 131.783 144.66 131.789 144.022C131.783 143.378 131.952 142.812 132.297 142.323C132.648 141.828 133.137 141.451 133.762 141.19C134.393 140.93 135.122 140.8 135.949 140.8ZM135.949 141.991C135.415 141.991 134.943 142.076 134.533 142.245C134.123 142.414 133.801 142.655 133.566 142.968C133.332 143.274 133.215 143.625 133.215 144.022C133.215 144.42 133.329 144.768 133.557 145.067C133.785 145.36 134.107 145.591 134.523 145.761C134.94 145.924 135.415 146.002 135.949 145.995C136.483 146.002 136.958 145.924 137.375 145.761C137.792 145.591 138.114 145.36 138.342 145.067C138.57 144.768 138.684 144.42 138.684 144.022C138.684 143.625 138.57 143.274 138.342 142.968C138.114 142.655 137.792 142.414 137.375 142.245C136.958 142.076 136.483 141.991 135.949 141.991ZM136.75 139.218H135.207V136.425H136.75V139.218ZM157.902 144.452H154.562V143.183H157.902V144.452ZM162.336 153.769H160.852V136.405H162.336V153.769ZM158.84 152.89H157.375V136.776H158.84V152.89ZM151.398 137.87C152.147 137.87 152.801 138.118 153.361 138.612C153.928 139.107 154.367 139.81 154.68 140.722C154.992 141.627 155.148 142.688 155.148 143.905C155.148 145.123 154.992 146.187 154.68 147.099C154.367 148.004 153.928 148.703 153.361 149.198C152.801 149.693 152.147 149.94 151.398 149.94C150.65 149.94 149.995 149.693 149.436 149.198C148.882 148.703 148.449 148.004 148.137 147.099C147.824 146.187 147.668 145.123 147.668 143.905C147.668 142.688 147.824 141.627 148.137 140.722C148.449 139.81 148.882 139.107 149.436 138.612C149.995 138.118 150.65 137.87 151.398 137.87ZM151.398 139.315C150.93 139.315 150.523 139.501 150.178 139.872C149.833 140.243 149.566 140.777 149.377 141.474C149.195 142.164 149.107 142.974 149.113 143.905C149.107 144.836 149.195 145.647 149.377 146.337C149.566 147.021 149.833 147.551 150.178 147.929C150.529 148.3 150.936 148.482 151.398 148.476C151.867 148.482 152.277 148.3 152.629 147.929C152.98 147.551 153.247 147.021 153.43 146.337C153.612 145.647 153.703 144.836 153.703 143.905C153.703 142.974 153.612 142.164 153.43 141.474C153.247 140.777 152.98 140.243 152.629 139.872C152.277 139.501 151.867 139.315 151.398 139.315ZM38.4102 161.558C39.2826 161.558 40.0605 161.812 40.7441 162.319C41.4342 162.827 41.9681 163.553 42.3457 164.497C42.7298 165.441 42.9219 166.538 42.9219 167.788C42.9219 169.051 42.7298 170.155 42.3457 171.099C41.9681 172.036 41.4342 172.762 40.7441 173.276C40.0605 173.784 39.2826 174.038 38.4102 174.038C37.5247 174.038 36.7402 173.784 36.0566 173.276C35.373 172.762 34.8392 172.036 34.4551 171.099C34.071 170.155 33.8789 169.051 33.8789 167.788C33.8789 166.538 34.071 165.441 34.4551 164.497C34.8392 163.553 35.373 162.827 36.0566 162.319C36.7402 161.812 37.5247 161.558 38.4102 161.558ZM38.4102 163.511C37.9219 163.511 37.4954 163.683 37.1309 164.028C36.7663 164.367 36.4798 164.858 36.2715 165.503C36.0632 166.147 35.959 166.909 35.959 167.788C35.959 168.68 36.0632 169.448 36.2715 170.093C36.4798 170.737 36.7663 171.229 37.1309 171.567C37.4954 171.906 37.9219 172.072 38.4102 172.065C38.8919 172.072 39.3184 171.906 39.6895 171.567C40.0671 171.229 40.3568 170.737 40.5586 170.093C40.7604 169.448 40.8613 168.68 40.8613 167.788C40.8613 166.909 40.7604 166.147 40.5586 165.503C40.3568 164.852 40.0671 164.357 39.6895 164.019C39.3184 163.68 38.8919 163.511 38.4102 163.511ZM48.3809 177.954H46.2324V160.269H48.3809V177.954ZM47.1699 168.521H42.2578V166.763H47.1699V168.521ZM66.291 177.593H53.6934V175.815H66.291V177.593ZM55.8711 176.86H53.6934V171.987H55.8711V176.86ZM65.8125 173.062H63.6836V160.288H65.8125V173.062ZM65.4902 166.763H60.9785V165.015H65.4902V166.763ZM52.0527 168.735C52.834 168.729 53.5176 168.703 54.1035 168.657C54.6895 168.605 55.2982 168.514 55.9297 168.384L56.1152 170.142C55.4967 170.278 54.9141 170.366 54.3672 170.405C53.8268 170.438 53.1693 170.454 52.3945 170.454H52.0527H51.2324V168.735H52.0527ZM55.793 163.403H53.3516V169.136H51.2324V161.646H55.793V163.403ZM57.6289 168.735C58.7292 168.729 59.5983 168.7 60.2363 168.647C60.8743 168.595 61.5059 168.494 62.1309 168.345L62.3262 170.112C61.6751 170.256 61.0273 170.35 60.3828 170.396C59.7448 170.435 58.8268 170.454 57.6289 170.454H56.6914V168.735H57.6289ZM61.6328 163.403H58.8496V169.077H56.6914V161.646H61.6328V163.403ZM75.9004 163.589H79.8457V161.177H81.9844V169.37H73.7227V161.177H75.9004V163.589ZM79.8457 167.632V165.269H75.9004V167.632H79.8457ZM86.0664 166.196H81.4668V164.399H86.0664V166.196ZM87.707 169.927H85.5391V160.269H87.707V169.927ZM78.2344 172.495H85.5391V170.688H87.6973V177.681H76.0762V170.688H78.2344V172.495ZM85.5391 175.923V174.185H78.2344V175.923H85.5391ZM104.133 173.179H101.965V160.278H104.133V173.179ZM106.604 167.241H103.488V165.444H106.604V167.241ZM104.826 177.593H92.8242V175.815H104.826V177.593ZM94.9824 176.587H92.8242V171.831H94.9824V176.587ZM95.1582 161.44C96.0501 161.44 96.8574 161.632 97.5801 162.017C98.3092 162.394 98.8789 162.922 99.2891 163.599C99.7057 164.269 99.9173 165.031 99.9238 165.884C99.9173 166.73 99.7057 167.492 99.2891 168.169C98.8789 168.84 98.3092 169.367 97.5801 169.751C96.8574 170.135 96.0501 170.327 95.1582 170.327C94.2793 170.327 93.4753 170.135 92.7461 169.751C92.0169 169.367 91.444 168.836 91.0273 168.159C90.6107 167.482 90.4023 166.724 90.4023 165.884C90.4023 165.031 90.6107 164.269 91.0273 163.599C91.444 162.922 92.0137 162.394 92.7363 162.017C93.4655 161.632 94.2728 161.44 95.1582 161.44ZM95.1582 163.345C94.6699 163.345 94.224 163.449 93.8203 163.657C93.4232 163.859 93.1074 164.155 92.873 164.546C92.6452 164.93 92.5312 165.376 92.5312 165.884C92.5312 166.385 92.6452 166.828 92.873 167.212C93.1074 167.59 93.4232 167.886 93.8203 168.101C94.224 168.315 94.6699 168.423 95.1582 168.423C95.6595 168.423 96.1087 168.319 96.5059 168.11C96.9095 167.896 97.2253 167.596 97.4531 167.212C97.6875 166.828 97.8047 166.385 97.8047 165.884C97.8047 165.376 97.6875 164.93 97.4531 164.546C97.2253 164.155 96.9095 163.859 96.5059 163.657C96.1087 163.449 95.6595 163.345 95.1582 163.345ZM123.605 169.048H107.502V167.339H123.605V169.048ZM121.682 166.206H109.543V164.478H121.682V166.206ZM121.535 162.437H111.721V165.923H109.543V160.718H121.535V162.437ZM121.584 174.702H111.545V176.509H109.396V173.14H119.436V171.919H109.387V170.269H121.584V174.702ZM122.062 177.749H109.396V176.04H122.062V177.749ZM139.465 177.954H137.268V160.269H139.465V177.954ZM129.953 161.558C130.839 161.558 131.63 161.812 132.326 162.319C133.023 162.827 133.566 163.556 133.957 164.507C134.348 165.451 134.543 166.545 134.543 167.788C134.543 169.045 134.348 170.145 133.957 171.089C133.566 172.033 133.023 172.762 132.326 173.276C131.63 173.784 130.839 174.038 129.953 174.038C129.061 174.038 128.267 173.784 127.57 173.276C126.874 172.762 126.327 172.033 125.93 171.089C125.533 170.145 125.337 169.045 125.344 167.788C125.337 166.545 125.533 165.451 125.93 164.507C126.327 163.556 126.874 162.827 127.57 162.319C128.267 161.812 129.061 161.558 129.953 161.558ZM129.953 163.511C129.452 163.511 129.009 163.68 128.625 164.019C128.247 164.357 127.954 164.852 127.746 165.503C127.544 166.147 127.443 166.909 127.443 167.788C127.443 168.68 127.544 169.448 127.746 170.093C127.954 170.737 128.247 171.229 128.625 171.567C129.009 171.906 129.452 172.072 129.953 172.065C130.448 172.072 130.884 171.906 131.262 171.567C131.639 171.229 131.932 170.737 132.141 170.093C132.349 169.448 132.453 168.68 132.453 167.788C132.453 166.903 132.349 166.141 132.141 165.503C131.932 164.858 131.639 164.367 131.262 164.028C130.884 163.683 130.448 163.511 129.953 163.511ZM155.314 162.534C155.314 163.491 155.031 164.37 154.465 165.171C153.905 165.972 153.104 166.639 152.062 167.173C151.021 167.7 149.81 168.052 148.43 168.228L147.639 166.489C148.798 166.359 149.813 166.095 150.686 165.698C151.564 165.295 152.235 164.819 152.697 164.272C153.16 163.719 153.391 163.14 153.391 162.534V162.065H155.314V162.534ZM156.33 162.534C156.33 163.14 156.564 163.719 157.033 164.272C157.502 164.826 158.173 165.301 159.045 165.698C159.924 166.095 160.946 166.359 162.111 166.489L161.301 168.228C159.914 168.052 158.7 167.7 157.658 167.173C156.617 166.639 155.812 165.975 155.246 165.181C154.68 164.38 154.393 163.498 154.387 162.534V162.065H156.33V162.534ZM161.467 162.808H148.293V161.06H161.467V162.808ZM161.096 177.593H148.82V175.815H161.096V177.593ZM150.998 176.499H148.82V172.524H150.998V176.499ZM162.932 171.333H146.838V169.575H162.932V171.333ZM155.92 170.317H153.781V166.958H155.92V170.317ZM179.436 177.905H177.346V160.269H179.436V177.905ZM178.068 168.97H174.943V167.183H178.068V168.97ZM175.549 177.075H173.488V160.571H175.549V177.075ZM169.143 164.78C169.143 166.278 169.006 167.648 168.732 168.892C168.459 170.129 168.026 171.229 167.434 172.192C166.841 173.149 166.079 173.901 165.148 174.448L163.811 172.778C164.663 172.303 165.363 171.662 165.91 170.854C166.464 170.047 166.864 169.136 167.111 168.12C167.365 167.098 167.489 165.985 167.482 164.78V162.993H169.143V164.78ZM169.592 164.78C169.598 165.874 169.729 166.896 169.982 167.847C170.243 168.791 170.643 169.637 171.184 170.386C171.73 171.134 172.427 171.727 173.273 172.163L172.014 173.823C171.07 173.315 170.292 172.612 169.68 171.714C169.074 170.815 168.628 169.78 168.342 168.608C168.062 167.437 167.922 166.16 167.922 164.78V162.993H169.592V164.78ZM172.482 163.95H164.357V162.192H172.482V163.95ZM47.4141 201.905H45.2656V184.269H47.4141V201.905ZM50.1387 193.097H46.9258V191.31H50.1387V193.097ZM43.8984 188.722H33.498V186.974H43.8984V188.722ZM38.752 189.864C39.5918 189.864 40.3503 190.043 41.0273 190.401C41.7044 190.753 42.235 191.244 42.6191 191.876C43.0033 192.507 43.1986 193.224 43.2051 194.024C43.1986 194.825 43.0033 195.541 42.6191 196.173C42.235 196.804 41.7044 197.296 41.0273 197.647C40.3503 197.999 39.5918 198.175 38.752 198.175C37.9056 198.175 37.1439 197.999 36.4668 197.647C35.7897 197.296 35.2591 196.804 34.875 196.173C34.4974 195.541 34.3086 194.825 34.3086 194.024C34.3086 193.224 34.4974 192.507 34.875 191.876C35.2591 191.244 35.7897 190.753 36.4668 190.401C37.1439 190.043 37.9056 189.864 38.752 189.864ZM38.752 191.651C38.2962 191.651 37.8893 191.749 37.5312 191.944C37.1732 192.14 36.89 192.42 36.6816 192.784C36.4798 193.142 36.3789 193.556 36.3789 194.024C36.3789 194.5 36.4798 194.916 36.6816 195.274C36.89 195.626 37.1732 195.899 37.5312 196.095C37.8893 196.29 38.2962 196.384 38.752 196.378C39.2077 196.384 39.6146 196.29 39.9727 196.095C40.3372 195.899 40.6172 195.626 40.8125 195.274C41.0143 194.916 41.1185 194.5 41.125 194.024C41.1185 193.556 41.0143 193.142 40.8125 192.784C40.6172 192.42 40.3372 192.14 39.9727 191.944C39.6146 191.749 39.2077 191.651 38.752 191.651ZM39.8262 187.677H37.668V184.522H39.8262V187.677ZM65.1777 190.978H52.9316V189.269H65.1777V190.978ZM66.9941 194.747H50.8613V193.028H66.9941V194.747ZM55.0996 190.128H52.9316V184.913H55.0996V190.128ZM65.2852 201.505H52.7852V199.747H65.2852V201.505ZM54.9727 200.245H52.7852V196.319H54.9727V200.245ZM74.377 189.269C74.377 190.603 74.1686 191.889 73.752 193.126C73.3418 194.363 72.7559 195.46 71.9941 196.417C71.2324 197.368 70.3438 198.084 69.3281 198.565L68.0684 196.856C68.9798 196.44 69.7773 195.828 70.4609 195.021C71.151 194.207 71.6816 193.302 72.0527 192.306C72.4238 191.303 72.6094 190.291 72.6094 189.269V186.944H74.377V189.269ZM74.8164 189.269C74.8164 190.258 74.9987 191.225 75.3633 192.169C75.7344 193.106 76.2617 193.953 76.9453 194.708C77.6354 195.463 78.4395 196.033 79.3574 196.417L78.1758 198.126C77.1276 197.67 76.2194 196.993 75.4512 196.095C74.6895 195.19 74.1035 194.151 73.6934 192.979C73.2897 191.808 73.0911 190.571 73.0977 189.269V186.944H74.8164V189.269ZM78.6836 187.794H68.7324V186.017H78.6836V187.794ZM82.8438 201.905H80.6465V184.269H82.8438V201.905ZM90.2266 200.187L95.4023 186.046H97.2578L102.434 200.187H100.578L96.3789 188.331H96.2617L92.0625 200.187H90.2266ZM99.9531 194.659V196.202H92.707V194.659H99.9531ZM106.105 200.187H104.348V186.046H106.105V200.187ZM127.414 193.8H115.422V192.55H127.414V193.8ZM129.289 199.581H113.391V198.292H129.289V199.581ZM122.043 198.819H120.539V193.097H122.043V198.819ZM127.238 187.081H116.965V193.136H115.422V185.831H127.238V187.081ZM146.555 195.655H130.656V194.366H146.555V195.655ZM139.309 201.769H137.805V195.128H139.309V201.769ZM138.566 185.108C139.777 185.108 140.845 185.265 141.77 185.577C142.694 185.89 143.41 186.336 143.918 186.915C144.426 187.488 144.68 188.162 144.68 188.937C144.68 189.698 144.426 190.366 143.918 190.938C143.41 191.505 142.691 191.941 141.76 192.247C140.835 192.553 139.771 192.706 138.566 192.706C137.355 192.706 136.291 192.553 135.373 192.247C134.455 191.941 133.739 191.505 133.225 190.938C132.71 190.366 132.453 189.698 132.453 188.937C132.453 188.162 132.71 187.488 133.225 186.915C133.739 186.336 134.455 185.89 135.373 185.577C136.291 185.265 137.355 185.108 138.566 185.108ZM138.566 186.358C137.668 186.358 136.877 186.463 136.193 186.671C135.51 186.879 134.976 187.182 134.592 187.579C134.214 187.97 134.029 188.422 134.035 188.937C134.029 189.444 134.214 189.89 134.592 190.274C134.976 190.659 135.51 190.955 136.193 191.163C136.877 191.371 137.668 191.476 138.566 191.476C139.465 191.476 140.256 191.371 140.939 191.163C141.623 190.955 142.157 190.659 142.541 190.274C142.925 189.89 143.117 189.444 143.117 188.937C143.117 188.422 142.928 187.97 142.551 187.579C142.173 187.182 141.639 186.879 140.949 186.671C140.259 186.463 139.465 186.358 138.566 186.358ZM157.004 197.413H148.977V186.124H157.004V197.413ZM150.48 196.163H155.5V187.354H150.48V196.163ZM162.277 201.808H160.734V184.405H162.277V201.808ZM47.707 219.069H46.2227V208.405H47.707V219.069ZM49.9141 214.187H46.8867V212.897H49.9141V214.187ZM35.5 212.409H37.5508V209.675H38.8398V217.663H34.2109V209.675H35.5V212.409ZM37.5508 216.413V213.659H35.5V216.413H37.5508ZM41.2617 212.409H43.3125V209.675H44.6016V217.663H39.9531V209.675H41.2617V212.409ZM43.3125 216.413V213.659H41.2617V216.413H43.3125ZM42.0039 219.382C43.2083 219.382 44.2467 219.506 45.1191 219.753C45.998 220 46.6719 220.365 47.1406 220.847C47.6159 221.322 47.8568 221.895 47.8633 222.565C47.8568 223.229 47.6159 223.799 47.1406 224.274C46.6719 224.75 45.998 225.111 45.1191 225.358C44.2467 225.606 43.2083 225.729 42.0039 225.729C40.793 225.729 39.7513 225.606 38.8789 225.358C38.0065 225.111 37.3359 224.75 36.8672 224.274C36.3984 223.799 36.1641 223.229 36.1641 222.565C36.1641 221.895 36.3984 221.322 36.8672 220.847C37.3359 220.365 38.0065 220 38.8789 219.753C39.7578 219.506 40.7995 219.382 42.0039 219.382ZM42.0039 220.573C41.1055 220.58 40.3372 220.664 39.6992 220.827C39.0612 220.983 38.5697 221.211 38.2246 221.511C37.8861 221.804 37.7201 222.155 37.7266 222.565C37.7201 222.969 37.8861 223.317 38.2246 223.61C38.5697 223.903 39.0612 224.128 39.6992 224.284C40.3438 224.44 41.112 224.519 42.0039 224.519C42.8828 224.519 43.6445 224.44 44.2891 224.284C44.9401 224.128 45.4382 223.903 45.7832 223.61C46.1348 223.317 46.3138 222.969 46.3203 222.565C46.3138 222.155 46.1348 221.804 45.7832 221.511C45.4382 221.211 44.9434 220.983 44.2988 220.827C43.6543 220.664 42.8893 220.58 42.0039 220.573ZM64.2305 210.593H52.9219V209.323H64.2305V210.593ZM66.8086 217.468H50.9883V216.179H66.8086V217.468ZM64.7383 210.769C64.7253 211.804 64.6862 212.748 64.6211 213.601C64.556 214.453 64.4062 215.437 64.1719 216.55L62.6484 216.452C62.8242 215.671 62.9512 214.938 63.0293 214.255C63.1139 213.571 63.166 212.985 63.1855 212.497C63.2051 212.009 63.2214 211.4 63.2344 210.671V210.573V209.323H64.7383V210.573V210.769ZM59.3867 219.909C59.3867 220.912 59.0872 221.813 58.4883 222.614C57.8893 223.415 57.0853 224.076 56.0762 224.597C55.0736 225.124 53.9635 225.489 52.7461 225.69L52.1602 224.499C53.2214 224.343 54.2012 224.047 55.0996 223.61C56.0046 223.174 56.724 222.637 57.2578 221.999C57.7917 221.361 58.0586 220.664 58.0586 219.909V219.069H59.3867V219.909ZM59.6016 219.909C59.6016 220.664 59.8717 221.361 60.4121 221.999C60.9525 222.637 61.6719 223.174 62.5703 223.61C63.4688 224.047 64.4453 224.343 65.5 224.499L64.9336 225.69C63.7161 225.489 62.6029 225.124 61.5938 224.597C60.5911 224.076 59.7871 223.418 59.1816 222.624C58.5762 221.823 58.2734 220.918 58.2734 219.909V219.069H59.6016V219.909ZM82.5898 225.808H81.0469V208.405H82.5898V225.808ZM73.3516 209.753C74.2109 209.753 74.9759 210 75.6465 210.495C76.3171 210.99 76.8411 211.696 77.2188 212.614C77.5964 213.532 77.7852 214.597 77.7852 215.808C77.7852 217.019 77.5964 218.08 77.2188 218.991C76.8411 219.903 76.3171 220.606 75.6465 221.101C74.9759 221.595 74.2109 221.843 73.3516 221.843C72.4922 221.843 71.7272 221.595 71.0566 221.101C70.3861 220.606 69.862 219.903 69.4844 218.991C69.1068 218.08 68.918 217.019 68.918 215.808C68.918 214.597 69.1068 213.532 69.4844 212.614C69.862 211.696 70.3861 210.99 71.0566 210.495C71.7272 210 72.4922 209.753 73.3516 209.753ZM73.3516 211.12C72.7786 211.12 72.2676 211.315 71.8184 211.706C71.3691 212.097 71.0208 212.647 70.7734 213.356C70.526 214.066 70.4023 214.883 70.4023 215.808C70.4023 216.739 70.526 217.559 70.7734 218.269C71.0208 218.972 71.3691 219.515 71.8184 219.899C72.2676 220.284 72.7786 220.476 73.3516 220.476C73.931 220.476 74.4421 220.284 74.8848 219.899C75.334 219.515 75.6823 218.972 75.9297 218.269C76.1771 217.559 76.3008 216.739 76.3008 215.808C76.3008 214.877 76.1771 214.06 75.9297 213.356C75.6823 212.647 75.334 212.097 74.8848 211.706C74.4421 211.315 73.931 211.12 73.3516 211.12ZM91.5742 221.296H90.0312V217.175H91.5742V221.296ZM90.793 209.538C91.6784 209.545 92.4727 209.72 93.1758 210.065C93.8789 210.404 94.429 210.882 94.8262 211.501C95.2233 212.119 95.4219 212.826 95.4219 213.62C95.4219 214.414 95.2233 215.118 94.8262 215.729C94.429 216.341 93.8757 216.82 93.166 217.165C92.4629 217.51 91.6719 217.683 90.793 217.683C89.8945 217.683 89.0938 217.51 88.3906 217.165C87.6875 216.82 87.1406 216.341 86.75 215.729C86.3594 215.118 86.1641 214.414 86.1641 213.62C86.1641 212.826 86.3594 212.119 86.75 211.501C87.1406 210.882 87.6875 210.404 88.3906 210.065C89.0938 209.72 89.8945 209.545 90.793 209.538ZM90.793 210.866C90.1875 210.866 89.6471 210.983 89.1719 211.218C88.7031 211.452 88.332 211.778 88.0586 212.194C87.7917 212.611 87.6615 213.086 87.668 213.62C87.6615 214.154 87.7917 214.629 88.0586 215.046C88.332 215.463 88.7031 215.788 89.1719 216.022C89.6471 216.257 90.1875 216.374 90.793 216.374C91.3854 216.374 91.916 216.257 92.3848 216.022C92.86 215.788 93.2311 215.463 93.498 215.046C93.7715 214.629 93.9115 214.154 93.918 213.62C93.9115 213.086 93.7715 212.611 93.498 212.194C93.2311 211.778 92.86 211.452 92.3848 211.218C91.916 210.983 91.3854 210.866 90.793 210.866ZM98.9766 225.769H97.4531V208.405H98.9766V225.769ZM101.809 216.901H98.5664V215.573H101.809V216.901ZM86.1836 220.71C88.2279 220.69 90.0671 220.648 91.7012 220.583C93.3418 220.518 94.888 220.391 96.3398 220.202L96.4375 221.354C95.2982 221.55 94.1003 221.696 92.8438 221.794C91.5938 221.892 90.3893 221.953 89.2305 221.979C88.0716 221.999 86.8607 222.006 85.5977 221.999L85.3438 220.71H86.1836ZM121.438 217.253H119.914V208.405H121.438V217.253ZM124.055 213.464H120.754V212.175H124.055V213.464ZM121.438 222.312H111.906V224.968H110.402V221.14H119.914V219.304H110.363V218.073H121.438V222.312ZM122.082 225.534H110.402V224.304H122.082V225.534ZM112.707 209.05C113.573 209.05 114.348 209.213 115.031 209.538C115.721 209.864 116.258 210.319 116.643 210.905C117.027 211.485 117.219 212.149 117.219 212.897C117.219 213.646 117.027 214.313 116.643 214.899C116.258 215.479 115.721 215.935 115.031 216.267C114.348 216.599 113.573 216.765 112.707 216.765C111.848 216.765 111.076 216.599 110.393 216.267C109.709 215.935 109.172 215.479 108.781 214.899C108.391 214.313 108.195 213.646 108.195 212.897C108.195 212.149 108.391 211.485 108.781 210.905C109.172 210.319 109.709 209.864 110.393 209.538C111.076 209.213 111.848 209.05 112.707 209.05ZM112.707 210.339C112.134 210.332 111.62 210.44 111.164 210.661C110.708 210.876 110.35 211.179 110.09 211.569C109.829 211.96 109.699 212.403 109.699 212.897C109.699 213.399 109.829 213.848 110.09 214.245C110.35 214.636 110.708 214.945 111.164 215.173C111.62 215.401 112.134 215.515 112.707 215.515C113.28 215.515 113.798 215.401 114.26 215.173C114.722 214.945 115.08 214.636 115.334 214.245C115.588 213.848 115.715 213.399 115.715 212.897C115.715 212.403 115.588 211.96 115.334 211.569C115.08 211.179 114.719 210.876 114.25 210.661C113.788 210.44 113.273 210.332 112.707 210.339ZM129.797 209.753C130.643 209.753 131.398 210 132.062 210.495C132.727 210.99 133.244 211.696 133.615 212.614C133.993 213.532 134.185 214.597 134.191 215.808C134.185 217.019 133.993 218.08 133.615 218.991C133.244 219.903 132.727 220.606 132.062 221.101C131.398 221.595 130.643 221.843 129.797 221.843C128.944 221.843 128.186 221.595 127.521 221.101C126.864 220.606 126.35 219.906 125.979 219.001C125.607 218.09 125.422 217.025 125.422 215.808C125.422 214.597 125.607 213.532 125.979 212.614C126.35 211.696 126.864 210.99 127.521 210.495C128.186 210 128.944 209.753 129.797 209.753ZM129.797 211.12C129.23 211.12 128.726 211.315 128.283 211.706C127.847 212.097 127.502 212.647 127.248 213.356C126.994 214.06 126.867 214.877 126.867 215.808C126.867 216.739 126.994 217.559 127.248 218.269C127.502 218.972 127.847 219.515 128.283 219.899C128.726 220.284 129.23 220.476 129.797 220.476C130.37 220.476 130.878 220.284 131.32 219.899C131.763 219.515 132.105 218.972 132.346 218.269C132.587 217.559 132.707 216.739 132.707 215.808C132.707 214.877 132.587 214.06 132.346 213.356C132.105 212.647 131.763 212.097 131.32 211.706C130.878 211.315 130.37 211.12 129.797 211.12ZM138.586 225.769H137.062V208.405H138.586V225.769ZM141.496 216.667H138.234V215.339H141.496V216.667ZM144.914 212.507H150.559V209.851H152.082V217.663H143.391V209.851H144.914V212.507ZM150.559 216.413V213.698H144.914V216.413H150.559ZM148.508 221.276H146.965V217.214H148.508V221.276ZM155.852 225.769H154.328V208.405H155.852V225.769ZM158.684 216.999H155.441V215.71H158.684V216.999ZM142.531 220.905C144.758 220.892 146.714 220.856 148.4 220.798C150.087 220.733 151.691 220.599 153.215 220.397L153.312 221.55C152.186 221.732 151.005 221.869 149.768 221.96C148.537 222.051 147.362 222.116 146.242 222.155C145.122 222.188 143.905 222.207 142.59 222.214H142.473L142.219 220.905H142.531ZM165.168 222.565H163.664V217.37H165.168V222.565ZM171.672 222.565H170.129V217.37H171.672V222.565ZM175.617 223.542H159.719V222.253H175.617V223.542ZM167.629 209.499C168.859 209.506 169.953 209.694 170.91 210.065C171.874 210.43 172.626 210.954 173.166 211.638C173.706 212.315 173.977 213.093 173.977 213.972C173.977 214.857 173.706 215.635 173.166 216.306C172.626 216.976 171.874 217.497 170.91 217.868C169.953 218.239 168.859 218.425 167.629 218.425C166.398 218.425 165.301 218.239 164.338 217.868C163.381 217.497 162.632 216.976 162.092 216.306C161.551 215.635 161.281 214.857 161.281 213.972C161.281 213.093 161.551 212.315 162.092 211.638C162.632 210.954 163.381 210.43 164.338 210.065C165.301 209.694 166.398 209.506 167.629 209.499ZM167.629 210.769C166.685 210.762 165.842 210.892 165.1 211.159C164.364 211.42 163.791 211.794 163.381 212.282C162.971 212.771 162.766 213.334 162.766 213.972C162.766 214.61 162.971 215.173 163.381 215.661C163.791 216.149 164.364 216.53 165.1 216.804C165.842 217.077 166.685 217.214 167.629 217.214C168.566 217.214 169.403 217.077 170.139 216.804C170.874 216.53 171.451 216.149 171.867 215.661C172.284 215.173 172.492 214.61 172.492 213.972C172.492 213.334 172.284 212.771 171.867 212.282C171.451 211.794 170.874 211.42 170.139 211.159C169.403 210.892 168.566 210.762 167.629 210.769ZM178.84 224.304C178.612 224.304 178.4 224.245 178.205 224.128C178.016 224.011 177.863 223.858 177.746 223.669C177.635 223.474 177.583 223.262 177.59 223.034C177.583 222.813 177.635 222.604 177.746 222.409C177.863 222.214 178.016 222.061 178.205 221.95C178.4 221.84 178.612 221.784 178.84 221.784C179.068 221.784 179.276 221.84 179.465 221.95C179.66 222.061 179.813 222.214 179.924 222.409C180.035 222.604 180.09 222.813 180.09 223.034C180.09 223.262 180.035 223.474 179.924 223.669C179.813 223.858 179.66 224.011 179.465 224.128C179.276 224.245 179.068 224.304 178.84 224.304Z" fill="#464646"/>
<defs>
<filter id="filter0_bd_626_1237" x="-76" y="-80" width="366" height="730" filterUnits="userSpaceOnUse" color-interpolation-filters="sRGB">
<feFlood flood-opacity="0" result="BackgroundImageFix"/>
<feGaussianBlur in="BackgroundImageFix" stdDeviation="40"/>
<feComposite in2="SourceAlpha" operator="in" result="effect1_backgroundBlur_626_1237"/>
<feColorMatrix in="SourceAlpha" type="matrix" values="0 0 0 0 0 0 0 0 0 0 0 0 0 0 0 0 0 0 127 0" result="hardAlpha"/>
<feOffset dy="3.6"/>
<feGaussianBlur stdDeviation="1.8"/>
<feComposite in2="hardAlpha" operator="out"/>
<feColorMatrix type="matrix" values="0 0 0 0 0 0 0 0 0 0 0 0 0 0 0 0 0 0 0.25 0"/>
<feBlend mode="normal" in2="effect1_backgroundBlur_626_1237" result="effect2_dropShadow_626_1237"/>
<feBlend mode="normal" in="SourceGraphic" in2="effect2_dropShadow_626_1237" result="shape"/>
</filter>
<linearGradient id="paint0_linear_626_1237" x1="107" y1="-42.3775" x2="107" y2="570" gradientUnits="userSpaceOnUse">
<stop stop-color="#D8F5DD"/>
<stop offset="1" stop-color="#D8F5DD" stop-opacity="0"/>
</linearGradient>
</defs>
</svg>