<svg xmlns="http://www.w3.org/2000/svg" width="214" height="578" viewBox="0 0 214 578" fill="none">
<g filter="url(#filter0_bd_626_1219)">
<rect x="4" width="206" height="570" rx="103" fill="url(#paint0_linear_626_1219)" shape-rendering="crispEdges"/>
</g>
<mask id="path-2-outside-1_626_1219" maskUnits="userSpaceOnUse" x="63" y="57.8823" width="88" height="25" fill="black">
<rect fill="white" x="63" y="57.8823" width="88" height="25"/>
<path d="M68.0977 63.0151H71.2148V60.6479H74.9414V70.9136H64.3008V60.6479H68.0977V63.0151ZM71.2148 67.937V65.8862H68.0977V67.937H71.2148ZM78.9492 67.2925H74.1328V64.2339H78.9492V67.2925ZM81.9375 71.4292H78.1992V59.5229H81.9375V71.4292ZM70.8867 73.7964H78.1992V72.2144H81.9375V80.9448H67.1836V72.2144H70.8867V73.7964ZM78.1992 77.9565V76.644H70.8867V77.9565H78.1992ZM101.578 75.2144H97.8047V59.5698H101.578V75.2144ZM104.285 68.6167H100.535V65.5464H104.285V68.6167ZM102.211 80.9097H87.1992V77.9097H102.211V80.9097ZM90.9727 79.3042H87.1992V73.5503H90.9727V79.3042ZM90.3164 60.8472C91.4258 60.8472 92.4453 61.0894 93.375 61.5737C94.3047 62.0503 95.0352 62.7183 95.5664 63.5776C96.1055 64.437 96.375 65.3979 96.375 66.4604C96.375 67.5151 96.1055 68.4722 95.5664 69.3315C95.0352 70.1909 94.3047 70.8667 93.375 71.3589C92.4453 71.8433 91.4258 72.0854 90.3164 72.0854C89.1992 72.0854 88.1719 71.8433 87.2344 71.3589C86.3047 70.8667 85.5664 70.1909 85.0195 69.3315C84.4805 68.4722 84.2109 67.5151 84.2109 66.4604C84.2109 65.3979 84.4805 64.437 85.0195 63.5776C85.5664 62.7183 86.3047 62.0503 87.2344 61.5737C88.1641 61.0894 89.1914 60.8472 90.3164 60.8472ZM90.3164 64.1167C89.8633 64.1167 89.4531 64.2026 89.0859 64.3745C88.7266 64.5464 88.4375 64.812 88.2188 65.1714C88 65.5229 87.8906 65.9526 87.8906 66.4604C87.8906 66.9604 88 67.3862 88.2188 67.7378C88.4375 68.0815 88.7266 68.3472 89.0859 68.5347C89.4531 68.7144 89.8633 68.8042 90.3164 68.8042C90.7695 68.8042 91.1758 68.7183 91.5352 68.5464C91.9023 68.3667 92.1875 68.1011 92.3906 67.7495C92.6016 67.3901 92.707 66.9604 92.707 66.4604C92.707 65.9526 92.6016 65.5229 92.3906 65.1714C92.1875 64.812 91.9023 64.5464 91.5352 64.3745C91.1758 64.2026 90.7695 64.1167 90.3164 64.1167ZM114.398 62.769H117.645V60.5425H121.418V70.0112H110.672V60.5425H114.398V62.769ZM117.645 67.105V65.5581H114.398V67.105H117.645ZM127.547 70.4565H123.773V59.5229H127.547V70.4565ZM130.254 66.4604H126.023V63.4487H130.254V66.4604ZM127.547 77.4292H116.555V79.5972H112.852V74.7925H123.797V74.0073H112.828V71.1362H127.547V77.4292ZM128.062 81.1206H112.852V78.2026H128.062V81.1206ZM137.918 60.894C139.059 60.894 140.094 61.1323 141.023 61.6089C141.953 62.0776 142.684 62.73 143.215 63.5659C143.754 64.4019 144.023 65.3354 144.023 66.3667C144.023 67.4058 143.754 68.3433 143.215 69.1792C142.684 70.0073 141.953 70.6597 141.023 71.1362C140.094 71.605 139.059 71.8394 137.918 71.8394C136.785 71.8394 135.75 71.605 134.812 71.1362C133.883 70.6597 133.145 70.0073 132.598 69.1792C132.059 68.3433 131.789 67.4058 131.789 66.3667C131.789 65.3354 132.059 64.4019 132.598 63.5659C133.145 62.73 133.883 62.0776 134.812 61.6089C135.75 61.1323 136.785 60.894 137.918 60.894ZM137.918 64.1284C137.465 64.1362 137.059 64.2222 136.699 64.3862C136.34 64.5503 136.055 64.8042 135.844 65.1479C135.641 65.4839 135.539 65.8901 135.539 66.3667C135.539 66.8589 135.641 67.2729 135.844 67.6089C136.055 67.937 136.34 68.1831 136.699 68.3472C137.059 68.5112 137.465 68.5972 137.918 68.605C138.387 68.5972 138.805 68.5112 139.172 68.3472C139.547 68.1831 139.84 67.937 140.051 67.6089C140.262 67.2729 140.367 66.8589 140.367 66.3667C140.367 65.8901 140.262 65.4839 140.051 65.1479C139.84 64.8042 139.547 64.5503 139.172 64.3862C138.805 64.2222 138.387 64.1362 137.918 64.1284ZM149.426 81.2729H145.688V59.5229H149.426V81.2729ZM131.016 74.0659C133.539 74.0581 135.93 74.0112 138.188 73.9253C140.445 73.8315 142.582 73.6519 144.598 73.3862L144.867 76.0698C143.414 76.3589 141.906 76.5776 140.344 76.7261C138.781 76.8667 137.301 76.9604 135.902 77.0073C134.504 77.0464 133.012 77.062 131.426 77.0542L131.016 74.0659Z"/>
</mask>
<path d="M68.0977 63.0151H71.2148V60.6479H74.9414V70.9136H64.3008V60.6479H68.0977V63.0151ZM71.2148 67.937V65.8862H68.0977V67.937H71.2148ZM78.9492 67.2925H74.1328V64.2339H78.9492V67.2925ZM81.9375 71.4292H78.1992V59.5229H81.9375V71.4292ZM70.8867 73.7964H78.1992V72.2144H81.9375V80.9448H67.1836V72.2144H70.8867V73.7964ZM78.1992 77.9565V76.644H70.8867V77.9565H78.1992ZM101.578 75.2144H97.8047V59.5698H101.578V75.2144ZM104.285 68.6167H100.535V65.5464H104.285V68.6167ZM102.211 80.9097H87.1992V77.9097H102.211V80.9097ZM90.9727 79.3042H87.1992V73.5503H90.9727V79.3042ZM90.3164 60.8472C91.4258 60.8472 92.4453 61.0894 93.375 61.5737C94.3047 62.0503 95.0352 62.7183 95.5664 63.5776C96.1055 64.437 96.375 65.3979 96.375 66.4604C96.375 67.5151 96.1055 68.4722 95.5664 69.3315C95.0352 70.1909 94.3047 70.8667 93.375 71.3589C92.4453 71.8433 91.4258 72.0854 90.3164 72.0854C89.1992 72.0854 88.1719 71.8433 87.2344 71.3589C86.3047 70.8667 85.5664 70.1909 85.0195 69.3315C84.4805 68.4722 84.2109 67.5151 84.2109 66.4604C84.2109 65.3979 84.4805 64.437 85.0195 63.5776C85.5664 62.7183 86.3047 62.0503 87.2344 61.5737C88.1641 61.0894 89.1914 60.8472 90.3164 60.8472ZM90.3164 64.1167C89.8633 64.1167 89.4531 64.2026 89.0859 64.3745C88.7266 64.5464 88.4375 64.812 88.2188 65.1714C88 65.5229 87.8906 65.9526 87.8906 66.4604C87.8906 66.9604 88 67.3862 88.2188 67.7378C88.4375 68.0815 88.7266 68.3472 89.0859 68.5347C89.4531 68.7144 89.8633 68.8042 90.3164 68.8042C90.7695 68.8042 91.1758 68.7183 91.5352 68.5464C91.9023 68.3667 92.1875 68.1011 92.3906 67.7495C92.6016 67.3901 92.707 66.9604 92.707 66.4604C92.707 65.9526 92.6016 65.5229 92.3906 65.1714C92.1875 64.812 91.9023 64.5464 91.5352 64.3745C91.1758 64.2026 90.7695 64.1167 90.3164 64.1167ZM114.398 62.769H117.645V60.5425H121.418V70.0112H110.672V60.5425H114.398V62.769ZM117.645 67.105V65.5581H114.398V67.105H117.645ZM127.547 70.4565H123.773V59.5229H127.547V70.4565ZM130.254 66.4604H126.023V63.4487H130.254V66.4604ZM127.547 77.4292H116.555V79.5972H112.852V74.7925H123.797V74.0073H112.828V71.1362H127.547V77.4292ZM128.062 81.1206H112.852V78.2026H128.062V81.1206ZM137.918 60.894C139.059 60.894 140.094 61.1323 141.023 61.6089C141.953 62.0776 142.684 62.73 143.215 63.5659C143.754 64.4019 144.023 65.3354 144.023 66.3667C144.023 67.4058 143.754 68.3433 143.215 69.1792C142.684 70.0073 141.953 70.6597 141.023 71.1362C140.094 71.605 139.059 71.8394 137.918 71.8394C136.785 71.8394 135.75 71.605 134.812 71.1362C133.883 70.6597 133.145 70.0073 132.598 69.1792C132.059 68.3433 131.789 67.4058 131.789 66.3667C131.789 65.3354 132.059 64.4019 132.598 63.5659C133.145 62.73 133.883 62.0776 134.812 61.6089C135.75 61.1323 136.785 60.894 137.918 60.894ZM137.918 64.1284C137.465 64.1362 137.059 64.2222 136.699 64.3862C136.34 64.5503 136.055 64.8042 135.844 65.1479C135.641 65.4839 135.539 65.8901 135.539 66.3667C135.539 66.8589 135.641 67.2729 135.844 67.6089C136.055 67.937 136.34 68.1831 136.699 68.3472C137.059 68.5112 137.465 68.5972 137.918 68.605C138.387 68.5972 138.805 68.5112 139.172 68.3472C139.547 68.1831 139.84 67.937 140.051 67.6089C140.262 67.2729 140.367 66.8589 140.367 66.3667C140.367 65.8901 140.262 65.4839 140.051 65.1479C139.84 64.8042 139.547 64.5503 139.172 64.3862C138.805 64.2222 138.387 64.1362 137.918 64.1284ZM149.426 81.2729H145.688V59.5229H149.426V81.2729ZM131.016 74.0659C133.539 74.0581 135.93 74.0112 138.188 73.9253C140.445 73.8315 142.582 73.6519 144.598 73.3862L144.867 76.0698C143.414 76.3589 141.906 76.5776 140.344 76.7261C138.781 76.8667 137.301 76.9604 135.902 77.0073C134.504 77.0464 133.012 77.062 131.426 77.0542L131.016 74.0659Z" fill="#F6F6F6"/>
<path d="M68.0977 63.0151H67.0977V64.0151H68.0977V63.0151ZM71.2148 63.0151V64.0151H72.2148V63.0151H71.2148ZM71.2148 60.6479V59.6479H70.2148V60.6479H71.2148ZM74.9414 60.6479H75.9414V59.6479H74.9414V60.6479ZM74.9414 70.9136V71.9136H75.9414V70.9136H74.9414ZM64.3008 70.9136H63.3008V71.9136H64.3008V70.9136ZM64.3008 60.6479V59.6479H63.3008V60.6479H64.3008ZM68.0977 60.6479H69.0977V59.6479H68.0977V60.6479ZM71.2148 67.937V68.937H72.2148V67.937H71.2148ZM71.2148 65.8862H72.2148V64.8862H71.2148V65.8862ZM68.0977 65.8862V64.8862H67.0977V65.8862H68.0977ZM68.0977 67.937H67.0977V68.937H68.0977V67.937ZM78.9492 67.2925V68.2925H79.9492V67.2925H78.9492ZM74.1328 67.2925H73.1328V68.2925H74.1328V67.2925ZM74.1328 64.2339V63.2339H73.1328V64.2339H74.1328ZM78.9492 64.2339H79.9492V63.2339H78.9492V64.2339ZM81.9375 71.4292V72.4292H82.9375V71.4292H81.9375ZM78.1992 71.4292H77.1992V72.4292H78.1992V71.4292ZM78.1992 59.5229V58.5229H77.1992V59.5229H78.1992ZM81.9375 59.5229H82.9375V58.5229H81.9375V59.5229ZM70.8867 73.7964H69.8867V74.7964H70.8867V73.7964ZM78.1992 73.7964V74.7964H79.1992V73.7964H78.1992ZM78.1992 72.2144V71.2144H77.1992V72.2144H78.1992ZM81.9375 72.2144H82.9375V71.2144H81.9375V72.2144ZM81.9375 80.9448V81.9448H82.9375V80.9448H81.9375ZM67.1836 80.9448H66.1836V81.9448H67.1836V80.9448ZM67.1836 72.2144V71.2144H66.1836V72.2144H67.1836ZM70.8867 72.2144H71.8867V71.2144H70.8867V72.2144ZM78.1992 77.9565V78.9565H79.1992V77.9565H78.1992ZM78.1992 76.644H79.1992V75.644H78.1992V76.644ZM70.8867 76.644V75.644H69.8867V76.644H70.8867ZM70.8867 77.9565H69.8867V78.9565H70.8867V77.9565ZM68.0977 64.0151H71.2148V62.0151H68.0977V64.0151ZM72.2148 63.0151V60.6479H70.2148V63.0151H72.2148ZM71.2148 61.6479H74.9414V59.6479H71.2148V61.6479ZM73.9414 60.6479V70.9136H75.9414V60.6479H73.9414ZM74.9414 69.9136H64.3008V71.9136H74.9414V69.9136ZM65.3008 70.9136V60.6479H63.3008V70.9136H65.3008ZM64.3008 61.6479H68.0977V59.6479H64.3008V61.6479ZM67.0977 60.6479V63.0151H69.0977V60.6479H67.0977ZM72.2148 67.937V65.8862H70.2148V67.937H72.2148ZM71.2148 64.8862H68.0977V66.8862H71.2148V64.8862ZM67.0977 65.8862V67.937H69.0977V65.8862H67.0977ZM68.0977 68.937H71.2148V66.937H68.0977V68.937ZM78.9492 66.2925H74.1328V68.2925H78.9492V66.2925ZM75.1328 67.2925V64.2339H73.1328V67.2925H75.1328ZM74.1328 65.2339H78.9492V63.2339H74.1328V65.2339ZM77.9492 64.2339V67.2925H79.9492V64.2339H77.9492ZM81.9375 70.4292H78.1992V72.4292H81.9375V70.4292ZM79.1992 71.4292V59.5229H77.1992V71.4292H79.1992ZM78.1992 60.5229H81.9375V58.5229H78.1992V60.5229ZM80.9375 59.5229V71.4292H82.9375V59.5229H80.9375ZM70.8867 74.7964H78.1992V72.7964H70.8867V74.7964ZM79.1992 73.7964V72.2144H77.1992V73.7964H79.1992ZM78.1992 73.2144H81.9375V71.2144H78.1992V73.2144ZM80.9375 72.2144V80.9448H82.9375V72.2144H80.9375ZM81.9375 79.9448H67.1836V81.9448H81.9375V79.9448ZM68.1836 80.9448V72.2144H66.1836V80.9448H68.1836ZM67.1836 73.2144H70.8867V71.2144H67.1836V73.2144ZM69.8867 72.2144V73.7964H71.8867V72.2144H69.8867ZM79.1992 77.9565V76.644H77.1992V77.9565H79.1992ZM78.1992 75.644H70.8867V77.644H78.1992V75.644ZM69.8867 76.644V77.9565H71.8867V76.644H69.8867ZM70.8867 78.9565H78.1992V76.9565H70.8867V78.9565ZM101.578 75.2144V76.2144H102.578V75.2144H101.578ZM97.8047 75.2144H96.8047V76.2144H97.8047V75.2144ZM97.8047 59.5698V58.5698H96.8047V59.5698H97.8047ZM101.578 59.5698H102.578V58.5698H101.578V59.5698ZM104.285 68.6167V69.6167H105.285V68.6167H104.285ZM100.535 68.6167H99.5352V69.6167H100.535V68.6167ZM100.535 65.5464V64.5464H99.5352V65.5464H100.535ZM104.285 65.5464H105.285V64.5464H104.285V65.5464ZM102.211 80.9097V81.9097H103.211V80.9097H102.211ZM87.1992 80.9097H86.1992V81.9097H87.1992V80.9097ZM87.1992 77.9097V76.9097H86.1992V77.9097H87.1992ZM102.211 77.9097H103.211V76.9097H102.211V77.9097ZM90.9727 79.3042V80.3042H91.9727V79.3042H90.9727ZM87.1992 79.3042H86.1992V80.3042H87.1992V79.3042ZM87.1992 73.5503V72.5503H86.1992V73.5503H87.1992ZM90.9727 73.5503H91.9727V72.5503H90.9727V73.5503ZM93.375 61.5737L92.9129 62.4606L92.9188 62.4636L93.375 61.5737ZM95.5664 63.5776L94.7158 64.1035L94.7193 64.109L95.5664 63.5776ZM95.5664 69.3315L94.7193 68.8001L94.7158 68.8057L95.5664 69.3315ZM93.375 71.3589L93.8371 72.2458L93.8429 72.2427L93.375 71.3589ZM87.2344 71.3589L86.7665 72.2427L86.7754 72.2473L87.2344 71.3589ZM85.0195 69.3315L84.1724 69.8629L84.1759 69.8684L85.0195 69.3315ZM85.0195 63.5776L84.1759 63.0408L84.1724 63.0463L85.0195 63.5776ZM87.2344 61.5737L87.6905 62.4636L87.6964 62.4606L87.2344 61.5737ZM89.0859 64.3745L88.662 63.4688L88.6545 63.4724L89.0859 64.3745ZM88.2188 65.1714L89.0678 65.6997L89.0729 65.6913L88.2188 65.1714ZM88.2188 67.7378L87.3696 68.2661L87.3751 68.2747L88.2188 67.7378ZM89.0859 68.5347L88.6234 69.4213L88.6348 69.4272L88.6464 69.4329L89.0859 68.5347ZM91.5352 68.5464L91.9666 69.4486L91.9747 69.4446L91.5352 68.5464ZM92.3906 67.7495L91.5282 67.2433L91.5248 67.2492L92.3906 67.7495ZM92.3906 65.1714L91.5201 65.6634L91.5265 65.6747L91.5331 65.6859L92.3906 65.1714ZM91.5352 64.3745L91.1037 65.2767L91.1112 65.2802L91.5352 64.3745ZM101.578 74.2144H97.8047V76.2144H101.578V74.2144ZM98.8047 75.2144V59.5698H96.8047V75.2144H98.8047ZM97.8047 60.5698H101.578V58.5698H97.8047V60.5698ZM100.578 59.5698V75.2144H102.578V59.5698H100.578ZM104.285 67.6167H100.535V69.6167H104.285V67.6167ZM101.535 68.6167V65.5464H99.5352V68.6167H101.535ZM100.535 66.5464H104.285V64.5464H100.535V66.5464ZM103.285 65.5464V68.6167H105.285V65.5464H103.285ZM102.211 79.9097H87.1992V81.9097H102.211V79.9097ZM88.1992 80.9097V77.9097H86.1992V80.9097H88.1992ZM87.1992 78.9097H102.211V76.9097H87.1992V78.9097ZM101.211 77.9097V80.9097H103.211V77.9097H101.211ZM90.9727 78.3042H87.1992V80.3042H90.9727V78.3042ZM88.1992 79.3042V73.5503H86.1992V79.3042H88.1992ZM87.1992 74.5503H90.9727V72.5503H87.1992V74.5503ZM89.9727 73.5503V79.3042H91.9727V73.5503H89.9727ZM90.3164 61.8472C91.2746 61.8472 92.1342 62.0549 92.9129 62.4606L93.8371 60.6869C92.7564 60.1238 91.577 59.8472 90.3164 59.8472V61.8472ZM92.9188 62.4636C93.6921 62.86 94.2838 63.4046 94.7158 64.1035L96.417 63.0518C95.7865 62.032 94.9173 61.2406 93.8312 60.6838L92.9188 62.4636ZM94.7193 64.109C95.1536 64.8014 95.375 65.5766 95.375 66.4604H97.375C97.375 65.2193 97.0573 64.0726 96.4135 63.0463L94.7193 64.109ZM95.375 66.4604C95.375 67.335 95.1544 68.1065 94.7193 68.8002L96.4135 69.8629C97.0566 68.8378 97.375 67.6953 97.375 66.4604H95.375ZM94.7158 68.8057C94.282 69.5075 93.6864 70.0625 92.9071 70.4751L93.8429 72.2427C94.9229 71.6709 95.7883 70.8743 96.417 69.8574L94.7158 68.8057ZM92.9129 70.472C92.1342 70.8777 91.2746 71.0854 90.3164 71.0854V73.0854C91.577 73.0854 92.7564 72.8088 93.8371 72.2457L92.9129 70.472ZM90.3164 71.0854C89.3493 71.0854 88.4807 70.8772 87.6934 70.4705L86.7754 72.2473C87.8631 72.8093 89.0491 73.0854 90.3164 73.0854V71.0854ZM87.7023 70.4751C86.9206 70.0613 86.3139 69.5029 85.8632 68.7947L84.1759 69.8684C84.8189 70.879 85.6888 71.6721 86.7665 72.2427L87.7023 70.4751ZM85.8667 68.8002C85.4316 68.1065 85.2109 67.335 85.2109 66.4604H83.2109C83.2109 67.6953 83.5294 68.8378 84.1724 69.8629L85.8667 68.8002ZM85.2109 66.4604C85.2109 65.5766 85.4323 64.8014 85.8667 64.109L84.1724 63.0463C83.5286 64.0726 83.2109 65.2193 83.2109 66.4604H85.2109ZM85.8632 64.1145C86.3121 63.4092 86.9149 62.8612 87.6905 62.4636L86.7782 60.6838C85.6945 61.2393 84.8208 62.0274 84.1759 63.0408L85.8632 64.1145ZM87.6964 62.4606C88.4731 62.0559 89.3402 61.8472 90.3164 61.8472V59.8472C89.0426 59.8472 87.855 60.1228 86.7723 60.6869L87.6964 62.4606ZM90.3164 63.1167C89.7341 63.1167 89.1767 63.2279 88.662 63.4688L89.5099 65.2802C89.7295 65.1774 89.9924 65.1167 90.3164 65.1167V63.1167ZM88.6545 63.4724C88.1101 63.7328 87.6782 64.1361 87.3646 64.6514L89.0729 65.6913C89.1968 65.4879 89.3431 65.36 89.5174 65.2766L88.6545 63.4724ZM87.3697 64.6431C87.0321 65.1857 86.8906 65.8082 86.8906 66.4604H88.8906C88.8906 66.0971 88.9679 65.8602 89.0678 65.6997L87.3697 64.6431ZM86.8906 66.4604C86.8906 67.1082 87.0335 67.7259 87.3697 68.2661L89.0678 67.2095C88.9665 67.0466 88.8906 66.8127 88.8906 66.4604H86.8906ZM87.3751 68.2747C87.6875 68.7656 88.1076 69.1522 88.6234 69.4213L89.5485 67.6481C89.3455 67.5422 89.1875 67.3975 89.0624 67.2009L87.3751 68.2747ZM88.6464 69.4329C89.1647 69.6865 89.7276 69.8042 90.3164 69.8042V67.8042C89.9989 67.8042 89.7416 67.7422 89.5255 67.6365L88.6464 69.4329ZM90.3164 69.8042C90.8983 69.8042 91.4551 69.6931 91.9666 69.4485L91.1037 67.6443C90.8964 67.7434 90.6408 67.8042 90.3164 67.8042V69.8042ZM91.9747 69.4446C92.5191 69.1782 92.9532 68.7747 93.2565 68.2498L91.5248 67.2492C91.4218 67.4275 91.2856 67.5552 91.0956 67.6482L91.9747 69.4446ZM93.253 68.2557C93.5706 67.7148 93.707 67.1028 93.707 66.4604H91.707C91.707 66.8181 91.6326 67.0655 91.5282 67.2433L93.253 68.2557ZM93.707 66.4604C93.707 65.8144 93.5722 65.197 93.2481 64.6569L91.5331 65.6859C91.6309 65.8489 91.707 66.0909 91.707 66.4604H93.707ZM93.2612 64.6793C92.9578 64.1425 92.5182 63.7305 91.9591 63.4688L91.1112 65.2802C91.2865 65.3623 91.4172 65.4815 91.5201 65.6634L93.2612 64.6793ZM91.9666 63.4724C91.4551 63.2277 90.8983 63.1167 90.3164 63.1167V65.1167C90.6408 65.1167 90.8964 65.1775 91.1037 65.2766L91.9666 63.4724ZM114.398 62.769H113.398V63.769H114.398V62.769ZM117.645 62.769V63.769H118.645V62.769H117.645ZM117.645 60.5425V59.5425H116.645V60.5425H117.645ZM121.418 60.5425H122.418V59.5425H121.418V60.5425ZM121.418 70.0112V71.0112H122.418V70.0112H121.418ZM110.672 70.0112H109.672V71.0112H110.672V70.0112ZM110.672 60.5425V59.5425H109.672V60.5425H110.672ZM114.398 60.5425H115.398V59.5425H114.398V60.5425ZM117.645 67.105V68.105H118.645V67.105H117.645ZM117.645 65.5581H118.645V64.5581H117.645V65.5581ZM114.398 65.5581V64.5581H113.398V65.5581H114.398ZM114.398 67.105H113.398V68.105H114.398V67.105ZM127.547 70.4565V71.4565H128.547V70.4565H127.547ZM123.773 70.4565H122.773V71.4565H123.773V70.4565ZM123.773 59.5229V58.5229H122.773V59.5229H123.773ZM127.547 59.5229H128.547V58.5229H127.547V59.5229ZM130.254 66.4604V67.4604H131.254V66.4604H130.254ZM126.023 66.4604H125.023V67.4604H126.023V66.4604ZM126.023 63.4487V62.4487H125.023V63.4487H126.023ZM130.254 63.4487H131.254V62.4487H130.254V63.4487ZM127.547 77.4292V78.4292H128.547V77.4292H127.547ZM116.555 77.4292V76.4292H115.555V77.4292H116.555ZM116.555 79.5972V80.5972H117.555V79.5972H116.555ZM112.852 79.5972H111.852V80.5972H112.852V79.5972ZM112.852 74.7925V73.7925H111.852V74.7925H112.852ZM123.797 74.7925V75.7925H124.797V74.7925H123.797ZM123.797 74.0073H124.797V73.0073H123.797V74.0073ZM112.828 74.0073H111.828V75.0073H112.828V74.0073ZM112.828 71.1362V70.1362H111.828V71.1362H112.828ZM127.547 71.1362H128.547V70.1362H127.547V71.1362ZM128.062 81.1206V82.1206H129.062V81.1206H128.062ZM112.852 81.1206H111.852V82.1206H112.852V81.1206ZM112.852 78.2026V77.2026H111.852V78.2026H112.852ZM128.062 78.2026H129.062V77.2026H128.062V78.2026ZM114.398 63.769H117.645V61.769H114.398V63.769ZM118.645 62.769V60.5425H116.645V62.769H118.645ZM117.645 61.5425H121.418V59.5425H117.645V61.5425ZM120.418 60.5425V70.0112H122.418V60.5425H120.418ZM121.418 69.0112H110.672V71.0112H121.418V69.0112ZM111.672 70.0112V60.5425H109.672V70.0112H111.672ZM110.672 61.5425H114.398V59.5425H110.672V61.5425ZM113.398 60.5425V62.769H115.398V60.5425H113.398ZM118.645 67.105V65.5581H116.645V67.105H118.645ZM117.645 64.5581H114.398V66.5581H117.645V64.5581ZM113.398 65.5581V67.105H115.398V65.5581H113.398ZM114.398 68.105H117.645V66.105H114.398V68.105ZM127.547 69.4565H123.773V71.4565H127.547V69.4565ZM124.773 70.4565V59.5229H122.773V70.4565H124.773ZM123.773 60.5229H127.547V58.5229H123.773V60.5229ZM126.547 59.5229V70.4565H128.547V59.5229H126.547ZM130.254 65.4604H126.023V67.4604H130.254V65.4604ZM127.023 66.4604V63.4487H125.023V66.4604H127.023ZM126.023 64.4487H130.254V62.4487H126.023V64.4487ZM129.254 63.4487V66.4604H131.254V63.4487H129.254ZM127.547 76.4292H116.555V78.4292H127.547V76.4292ZM115.555 77.4292V79.5972H117.555V77.4292H115.555ZM116.555 78.5972H112.852V80.5972H116.555V78.5972ZM113.852 79.5972V74.7925H111.852V79.5972H113.852ZM112.852 75.7925H123.797V73.7925H112.852V75.7925ZM124.797 74.7925V74.0073H122.797V74.7925H124.797ZM123.797 73.0073H112.828V75.0073H123.797V73.0073ZM113.828 74.0073V71.1362H111.828V74.0073H113.828ZM112.828 72.1362H127.547V70.1362H112.828V72.1362ZM126.547 71.1362V77.4292H128.547V71.1362H126.547ZM128.062 80.1206H112.852V82.1206H128.062V80.1206ZM113.852 81.1206V78.2026H111.852V81.1206H113.852ZM112.852 79.2026H128.062V77.2026H112.852V79.2026ZM127.062 78.2026V81.1206H129.062V78.2026H127.062ZM141.023 61.6089L140.567 62.4988L140.573 62.5018L141.023 61.6089ZM143.215 63.5659L142.371 64.1023L142.374 64.1079L143.215 63.5659ZM143.215 69.1792L142.374 68.6372L142.373 68.6392L143.215 69.1792ZM141.023 71.1362L141.474 72.0292L141.48 72.0261L141.023 71.1362ZM134.812 71.1362L134.356 72.0262L134.365 72.0307L134.812 71.1362ZM132.598 69.1792L131.757 69.7212L131.763 69.7303L132.598 69.1792ZM132.598 63.5659L131.761 63.0184L131.757 63.024L132.598 63.5659ZM134.812 61.6089L135.263 62.5018L135.266 62.5003L134.812 61.6089ZM137.918 64.1284L137.935 63.1286L137.918 63.1283L137.901 63.1286L137.918 64.1284ZM135.844 65.1479L134.991 64.6249L134.988 64.6305L135.844 65.1479ZM135.844 67.6089L134.988 68.1263L134.995 68.1381L135.003 68.1496L135.844 67.6089ZM137.918 68.605L137.901 69.6048L137.918 69.6051L137.935 69.6048L137.918 68.605ZM139.172 68.3472L138.771 67.431L138.764 67.4342L139.172 68.3472ZM140.051 67.6089L140.892 68.1497L140.898 68.1407L140.051 67.6089ZM140.051 65.1479L139.198 65.671L139.204 65.6797L140.051 65.1479ZM139.172 64.3862L138.764 65.2993L138.771 65.3024L139.172 64.3862ZM149.426 81.2729V82.2729H150.426V81.2729H149.426ZM145.688 81.2729H144.688V82.2729H145.688V81.2729ZM145.688 59.5229V58.5229H144.688V59.5229H145.688ZM149.426 59.5229H150.426V58.5229H149.426V59.5229ZM131.016 74.0659L131.013 73.0659L129.869 73.0695L130.025 74.2019L131.016 74.0659ZM138.188 73.9253L138.226 74.9246L138.229 74.9244L138.188 73.9253ZM144.598 73.3862L145.593 73.2863L145.49 72.26L144.467 72.3948L144.598 73.3862ZM144.867 76.0698L145.062 77.0506L145.953 76.8734L145.862 75.9699L144.867 76.0698ZM140.344 76.7261L140.433 77.7221L140.438 77.7216L140.344 76.7261ZM135.902 77.0073L135.93 78.007L135.936 78.0068L135.902 77.0073ZM131.426 77.0542L130.435 77.1902L130.553 78.0499L131.421 78.0542L131.426 77.0542ZM137.918 61.894C138.915 61.894 139.791 62.1011 140.567 62.4988L141.48 60.719C140.396 60.1636 139.202 59.894 137.918 59.894V61.894ZM140.573 62.5018C141.351 62.8937 141.941 63.4265 142.371 64.1023L144.059 63.0296C143.426 62.0335 142.556 61.2616 141.474 60.716L140.573 62.5018ZM142.374 64.1079C142.805 64.7761 143.023 65.5202 143.023 66.3667H145.023C145.023 65.1507 144.702 64.0276 144.055 63.024L142.374 64.1079ZM143.023 66.3667C143.023 67.2226 142.805 67.9703 142.374 68.6373L144.055 69.7211C144.703 68.7162 145.023 67.589 145.023 66.3667H143.023ZM142.373 68.6392C141.943 69.3095 141.35 69.8452 140.567 70.2463L141.48 72.0261C142.556 71.4742 143.424 70.7052 144.057 69.7192L142.373 68.6392ZM140.573 70.2433C139.796 70.6351 138.917 70.8394 137.918 70.8394V72.8394C139.2 72.8394 140.391 72.5748 141.474 72.0292L140.573 70.2433ZM137.918 70.8394C136.928 70.8394 136.047 70.6356 135.26 70.2418L134.365 72.0307C135.453 72.5743 136.643 72.8394 137.918 72.8394V70.8394ZM135.269 70.2463C134.484 69.844 133.879 69.305 133.432 68.6281L131.763 69.7303C132.41 70.7097 133.282 71.4753 134.356 72.0261L135.269 70.2463ZM133.438 68.6373C133.008 67.9703 132.789 67.2226 132.789 66.3667H130.789C130.789 67.589 131.109 68.7162 131.757 69.7211L133.438 68.6373ZM132.789 66.3667C132.789 65.5202 133.007 64.7761 133.438 64.1079L131.757 63.024C131.11 64.0276 130.789 65.1507 130.789 66.3667H132.789ZM133.434 64.1134C133.881 63.4309 134.483 62.8949 135.263 62.5018L134.362 60.716C133.283 61.2604 132.408 62.029 131.761 63.0185L133.434 64.1134ZM135.266 62.5003C136.052 62.1006 136.93 61.894 137.918 61.894V59.894C136.64 59.894 135.448 60.1641 134.359 60.7175L135.266 62.5003ZM137.901 63.1286C137.33 63.1384 136.785 63.2476 136.284 63.4765L137.115 65.2959C137.332 65.1968 137.599 65.1341 137.935 65.1283L137.901 63.1286ZM136.284 63.4765C135.74 63.725 135.304 64.1155 134.991 64.6249L136.696 65.671C136.805 65.4929 136.94 65.3756 137.115 65.2959L136.284 63.4765ZM134.988 64.6305C134.672 65.1529 134.539 65.7468 134.539 66.3667H136.539C136.539 66.0335 136.609 65.8149 136.699 65.6654L134.988 64.6305ZM134.539 66.3667C134.539 66.9954 134.669 67.5992 134.988 68.1263L136.699 67.0915C136.612 66.9467 136.539 66.7224 136.539 66.3667H134.539ZM135.003 68.1496C135.319 68.6412 135.753 69.0143 136.284 69.2569L137.115 67.4375C136.927 67.352 136.791 67.2328 136.685 67.0681L135.003 68.1496ZM136.284 69.2569C136.785 69.4858 137.33 69.595 137.901 69.6048L137.935 67.6051C137.599 67.5993 137.332 67.5366 137.115 67.4375L136.284 69.2569ZM137.935 69.6048C138.516 69.5951 139.071 69.4877 139.58 69.2602L138.764 67.4342C138.539 67.5348 138.257 67.5992 137.901 67.6051L137.935 69.6048ZM139.573 69.2633C140.119 69.0244 140.569 68.652 140.892 68.1496L139.21 67.0681C139.111 67.222 138.975 67.3418 138.771 67.431L139.573 69.2633ZM140.898 68.1407C141.23 67.611 141.367 67.0018 141.367 66.3667H139.367C139.367 66.716 139.293 66.9349 139.204 67.0771L140.898 68.1407ZM141.367 66.3667C141.367 65.7402 141.227 65.141 140.898 64.6162L139.204 65.6797C139.296 65.8268 139.367 66.0401 139.367 66.3667H141.367ZM140.903 64.6249C140.584 64.1044 140.132 63.7147 139.573 63.4701L138.771 65.3024C138.962 65.3859 139.096 65.504 139.198 65.671L140.903 64.6249ZM139.58 63.4732C139.071 63.2457 138.516 63.1382 137.935 63.1286L137.901 65.1283C138.257 65.1342 138.539 65.1986 138.764 65.2992L139.58 63.4732ZM149.426 80.2729H145.688V82.2729H149.426V80.2729ZM146.688 81.2729V59.5229H144.688V81.2729H146.688ZM145.688 60.5229H149.426V58.5229H145.688V60.5229ZM148.426 59.5229V81.2729H150.426V59.5229H148.426ZM131.019 75.0659C133.552 75.0581 135.955 75.011 138.226 74.9246L138.149 72.926C135.905 73.0115 133.526 73.0581 131.013 73.0659L131.019 75.0659ZM138.229 74.9244C140.513 74.8296 142.68 74.6476 144.728 74.3777L144.467 72.3948C142.484 72.6561 140.377 72.8335 138.146 72.9262L138.229 74.9244ZM143.603 73.4862L143.872 76.1698L145.862 75.9699L145.593 73.2863L143.603 73.4862ZM144.672 75.089C143.254 75.3711 141.78 75.5851 140.249 75.7306L140.438 77.7216C142.033 77.5701 143.574 77.3467 145.062 77.0506L144.672 75.089ZM140.254 75.7301C138.708 75.8692 137.246 75.9617 135.869 76.0079L135.936 78.0068C137.355 77.9592 138.854 77.8642 140.433 77.722L140.254 75.7301ZM135.874 76.0077C134.488 76.0464 133.007 76.062 131.431 76.0542L131.421 78.0542C133.016 78.062 134.52 78.0463 135.93 78.0069L135.874 76.0077ZM132.416 76.9182L132.006 73.9299L130.025 74.2019L130.435 77.1902L132.416 76.9182Z" fill="#0E0E0E" mask="url(#path-2-outside-1_626_1219)"/>
<path d="M47.1406 153.769H45.6172V136.405H47.1406V153.769ZM49.9531 144.765H46.75V143.476H49.9531V144.765ZM42.6484 138.28C42.6419 139.966 42.362 141.562 41.8086 143.065C41.2617 144.563 40.3958 145.946 39.2109 147.216C38.026 148.479 36.5156 149.563 34.6797 150.468L33.8203 149.257C35.4284 148.456 36.776 147.515 37.8633 146.435C38.957 145.347 39.7741 144.143 40.3145 142.821C40.8613 141.5 41.138 140.071 41.1445 138.534V138.28H42.6484ZM41.9258 139.569H34.6211V138.28H41.9258V139.569ZM56.5547 139.101C56.5547 140.201 56.3561 141.233 55.959 142.196C55.5618 143.153 54.9987 143.987 54.2695 144.696C53.5469 145.399 52.707 145.937 51.75 146.308L50.9297 145.077C51.7891 144.758 52.5475 144.299 53.2051 143.7C53.8626 143.095 54.3737 142.398 54.7383 141.61C55.1029 140.823 55.2852 139.986 55.2852 139.101V137.304H56.5547V139.101ZM56.7891 139.218C56.7891 139.993 56.9746 140.741 57.3457 141.464C57.7168 142.18 58.2279 142.812 58.8789 143.358C59.5299 143.905 60.2721 144.322 61.1055 144.608L60.2656 145.819C59.3411 145.481 58.5241 144.983 57.8145 144.325C57.1048 143.668 56.5482 142.899 56.1445 142.021C55.7409 141.142 55.5391 140.207 55.5391 139.218V137.304H56.7891V139.218ZM64.5625 146.972H63.0391V136.405H64.5625V146.972ZM67.1797 142.226H64.1328V140.937H67.1797V142.226ZM58.9961 147.421C60.181 147.421 61.2031 147.545 62.0625 147.792C62.9219 148.039 63.5794 148.401 64.0352 148.876C64.4909 149.345 64.7188 149.908 64.7188 150.565C64.7188 151.236 64.4909 151.806 64.0352 152.274C63.5794 152.75 62.9219 153.111 62.0625 153.358C61.2031 153.606 60.181 153.729 58.9961 153.729C57.8047 153.729 56.776 153.606 55.9102 153.358C55.0508 153.111 54.39 152.75 53.9277 152.274C53.4655 151.799 53.2344 151.229 53.2344 150.565C53.2344 149.908 53.4655 149.345 53.9277 148.876C54.39 148.401 55.054 148.039 55.9199 147.792C56.7858 147.545 57.8112 147.421 58.9961 147.421ZM58.9961 148.651C58.1302 148.651 57.3783 148.729 56.7402 148.886C56.1087 149.042 55.6204 149.263 55.2754 149.55C54.9368 149.836 54.7708 150.175 54.7773 150.565C54.7708 150.969 54.9368 151.317 55.2754 151.61C55.6204 151.903 56.1087 152.128 56.7402 152.284C57.3717 152.44 58.1237 152.519 58.9961 152.519C59.8685 152.519 60.6237 152.44 61.2617 152.284C61.8997 152.128 62.388 151.903 62.7266 151.61C63.0651 151.317 63.2344 150.969 63.2344 150.565C63.2344 150.175 63.0651 149.833 62.7266 149.54C62.388 149.247 61.8965 149.026 61.252 148.876C60.6139 148.726 59.862 148.651 58.9961 148.651ZM73.957 137.675C74.8555 137.675 75.6595 137.847 76.3691 138.192C77.0788 138.537 77.6322 139.019 78.0293 139.638C78.4264 140.256 78.625 140.963 78.625 141.757C78.625 142.551 78.4264 143.257 78.0293 143.876C77.6322 144.494 77.0788 144.976 76.3691 145.321C75.6595 145.666 74.8555 145.839 73.957 145.839C73.0521 145.839 72.2415 145.666 71.5254 145.321C70.8158 144.976 70.2624 144.494 69.8652 143.876C69.4681 143.257 69.2695 142.551 69.2695 141.757C69.2695 140.963 69.4681 140.256 69.8652 139.638C70.2624 139.019 70.8158 138.537 71.5254 138.192C72.2415 137.847 73.0521 137.675 73.957 137.675ZM73.957 139.022C73.3451 139.022 72.7982 139.136 72.3164 139.364C71.8346 139.592 71.457 139.918 71.1836 140.341C70.9102 140.757 70.7734 141.229 70.7734 141.757C70.7734 142.291 70.9102 142.763 71.1836 143.173C71.457 143.583 71.8346 143.905 72.3164 144.14C72.7982 144.374 73.3451 144.491 73.957 144.491C74.5625 144.491 75.1061 144.374 75.5879 144.14C76.0762 143.905 76.4538 143.583 76.7207 143.173C76.9876 142.763 77.1211 142.291 77.1211 141.757C77.1211 141.229 76.9876 140.757 76.7207 140.341C76.4538 139.918 76.0762 139.592 75.5879 139.364C75.1061 139.136 74.5625 139.022 73.957 139.022ZM82.5117 153.808H80.9883V136.405H82.5117V153.808ZM68.3711 148.671C70.5391 148.677 72.5671 148.645 74.4551 148.573C76.3431 148.502 78.1367 148.339 79.8359 148.085L79.9531 149.218C78.7292 149.446 77.4564 149.615 76.1348 149.726C74.8132 149.83 73.5762 149.898 72.4238 149.931C71.278 149.963 69.9987 149.979 68.5859 149.979L68.3711 148.671ZM103.879 138.515H92.5898V137.265H103.879V138.515ZM106.477 144.706H90.5781V143.456H106.477V144.706ZM99.25 148.437H97.7266V144.296H99.25V148.437ZM104.387 138.515C104.387 139.511 104.354 140.425 104.289 141.259C104.224 142.086 104.068 143.033 103.82 144.101L102.316 143.905C102.486 143.196 102.609 142.535 102.688 141.923C102.766 141.304 102.814 140.757 102.834 140.282C102.854 139.807 102.863 139.257 102.863 138.632V138.515V137.265H104.387V138.515ZM104.504 153.769H102.961V149.179H92.2188V147.909H104.504V153.769ZM114.445 149.687H112.902V146.815H114.445V149.687ZM122.102 153.769H120.578V136.405H122.102V153.769ZM108.684 149.14C110.845 149.12 112.785 149.075 114.504 149.003C116.223 148.931 117.863 148.795 119.426 148.593L119.543 149.765C117.818 150.045 116.024 150.23 114.162 150.321C112.3 150.406 110.311 150.448 108.195 150.448L107.961 149.14H108.684ZM118.977 139.804H108.332V138.554H118.977V139.804ZM113.645 140.8C114.478 140.8 115.214 140.93 115.852 141.19C116.49 141.451 116.981 141.828 117.326 142.323C117.671 142.812 117.844 143.378 117.844 144.022C117.844 144.66 117.671 145.22 117.326 145.702C116.981 146.184 116.486 146.555 115.842 146.815C115.204 147.076 114.471 147.206 113.645 147.206C112.818 147.206 112.089 147.076 111.457 146.815C110.832 146.555 110.344 146.184 109.992 145.702C109.647 145.22 109.478 144.66 109.484 144.022C109.478 143.378 109.647 142.812 109.992 142.323C110.344 141.828 110.832 141.451 111.457 141.19C112.089 140.93 112.818 140.8 113.645 140.8ZM113.645 141.991C113.111 141.991 112.639 142.076 112.229 142.245C111.818 142.414 111.496 142.655 111.262 142.968C111.027 143.274 110.91 143.625 110.91 144.022C110.91 144.42 111.024 144.768 111.252 145.067C111.48 145.36 111.802 145.591 112.219 145.761C112.635 145.924 113.111 146.002 113.645 145.995C114.178 146.002 114.654 145.924 115.07 145.761C115.487 145.591 115.809 145.36 116.037 145.067C116.265 144.768 116.379 144.42 116.379 144.022C116.379 143.625 116.265 143.274 116.037 142.968C115.809 142.655 115.487 142.414 115.07 142.245C114.654 142.076 114.178 141.991 113.645 141.991ZM114.445 139.218H112.902V136.425H114.445V139.218ZM135.852 137.675C136.75 137.675 137.554 137.847 138.264 138.192C138.973 138.537 139.527 139.019 139.924 139.638C140.321 140.256 140.52 140.963 140.52 141.757C140.52 142.551 140.321 143.257 139.924 143.876C139.527 144.494 138.973 144.976 138.264 145.321C137.554 145.666 136.75 145.839 135.852 145.839C134.947 145.839 134.136 145.666 133.42 145.321C132.71 144.976 132.157 144.494 131.76 143.876C131.363 143.257 131.164 142.551 131.164 141.757C131.164 140.963 131.363 140.256 131.76 139.638C132.157 139.019 132.71 138.537 133.42 138.192C134.136 137.847 134.947 137.675 135.852 137.675ZM135.852 139.022C135.24 139.022 134.693 139.136 134.211 139.364C133.729 139.592 133.352 139.918 133.078 140.341C132.805 140.757 132.668 141.229 132.668 141.757C132.668 142.291 132.805 142.763 133.078 143.173C133.352 143.583 133.729 143.905 134.211 144.14C134.693 144.374 135.24 144.491 135.852 144.491C136.457 144.491 137.001 144.374 137.482 144.14C137.971 143.905 138.348 143.583 138.615 143.173C138.882 142.763 139.016 142.291 139.016 141.757C139.016 141.229 138.882 140.757 138.615 140.341C138.348 139.918 137.971 139.592 137.482 139.364C137.001 139.136 136.457 139.022 135.852 139.022ZM144.406 153.808H142.883V136.405H144.406V153.808ZM130.266 148.671C132.434 148.677 134.462 148.645 136.35 148.573C138.238 148.502 140.031 148.339 141.73 148.085L141.848 149.218C140.624 149.446 139.351 149.615 138.029 149.726C136.708 149.83 135.471 149.898 134.318 149.931C133.173 149.963 131.893 149.979 130.48 149.979L130.266 148.671ZM153.996 149.003H152.453V145.136H153.996V149.003ZM161.77 149.608H160.227V136.425H161.77V149.608ZM162.199 153.397H149.855V152.108H162.199V153.397ZM151.398 152.479H149.855V148.319H151.398V152.479ZM147.355 144.472C149.68 144.459 151.737 144.423 153.527 144.364C155.318 144.299 157.03 144.166 158.664 143.964L158.762 145.077C157.076 145.344 155.308 145.52 153.459 145.604C151.61 145.689 149.647 145.728 147.57 145.722L147.355 144.472ZM160.637 147.812H156.633V146.698H160.637V147.812ZM153.059 137.128C153.898 137.128 154.644 137.252 155.295 137.499C155.952 137.746 156.46 138.101 156.818 138.563C157.176 139.026 157.355 139.556 157.355 140.155C157.355 140.767 157.176 141.298 156.818 141.747C156.46 142.196 155.956 142.545 155.305 142.792C154.654 143.039 153.905 143.163 153.059 143.163C152.206 143.163 151.454 143.039 150.803 142.792C150.158 142.545 149.657 142.196 149.299 141.747C148.941 141.298 148.762 140.767 148.762 140.155C148.762 139.556 148.941 139.026 149.299 138.563C149.657 138.101 150.161 137.746 150.812 137.499C151.464 137.252 152.212 137.128 153.059 137.128ZM153.059 138.3C152.499 138.293 152.004 138.368 151.574 138.524C151.145 138.674 150.809 138.892 150.568 139.179C150.334 139.465 150.22 139.791 150.227 140.155C150.22 140.526 150.334 140.855 150.568 141.142C150.809 141.422 151.145 141.64 151.574 141.796C152.004 141.952 152.499 142.03 153.059 142.03C153.605 142.03 154.094 141.952 154.523 141.796C154.953 141.64 155.288 141.422 155.529 141.142C155.77 140.855 155.891 140.526 155.891 140.155C155.891 139.791 155.77 139.465 155.529 139.179C155.288 138.892 154.953 138.674 154.523 138.524C154.094 138.368 153.605 138.293 153.059 138.3ZM179.055 153.808H177.512V136.405H179.055V153.808ZM169.816 137.753C170.676 137.753 171.441 138 172.111 138.495C172.782 138.99 173.306 139.696 173.684 140.614C174.061 141.532 174.25 142.597 174.25 143.808C174.25 145.019 174.061 146.08 173.684 146.991C173.306 147.903 172.782 148.606 172.111 149.101C171.441 149.595 170.676 149.843 169.816 149.843C168.957 149.843 168.192 149.595 167.521 149.101C166.851 148.606 166.327 147.903 165.949 146.991C165.572 146.08 165.383 145.019 165.383 143.808C165.383 142.597 165.572 141.532 165.949 140.614C166.327 139.696 166.851 138.99 167.521 138.495C168.192 138 168.957 137.753 169.816 137.753ZM169.816 139.12C169.243 139.12 168.732 139.315 168.283 139.706C167.834 140.097 167.486 140.647 167.238 141.356C166.991 142.066 166.867 142.883 166.867 143.808C166.867 144.739 166.991 145.559 167.238 146.269C167.486 146.972 167.834 147.515 168.283 147.899C168.732 148.284 169.243 148.476 169.816 148.476C170.396 148.476 170.907 148.284 171.35 147.899C171.799 147.515 172.147 146.972 172.395 146.269C172.642 145.559 172.766 144.739 172.766 143.808C172.766 142.877 172.642 142.06 172.395 141.356C172.147 140.647 171.799 140.097 171.35 139.706C170.907 139.315 170.396 139.12 169.816 139.12ZM44.0547 169.175H35.1289V167.905H44.0547V169.175ZM40.2461 172.944H38.7227V168.901H40.2461V172.944ZM43.9766 163.315H36.6328V168.374H35.1289V162.065H43.9766V163.315ZM47.9414 177.808H46.418V160.405H47.9414V177.808ZM33.8008 172.71C35.9492 172.71 37.9772 172.677 39.8848 172.612C41.7923 172.547 43.5859 172.417 45.2656 172.222L45.3828 173.374C44.1784 173.55 42.9219 173.683 41.6133 173.774C40.3112 173.859 39.0417 173.921 37.8047 173.96C36.5742 173.993 35.3112 174.006 34.0156 173.999L33.8008 172.71ZM55.6562 161.753C56.4961 161.753 57.2448 162 57.9023 162.495C58.5664 162.99 59.0807 163.696 59.4453 164.614C59.8099 165.532 59.9922 166.597 59.9922 167.808C59.9922 169.025 59.8099 170.09 59.4453 171.001C59.0807 171.906 58.5664 172.606 57.9023 173.101C57.2448 173.595 56.4961 173.843 55.6562 173.843C54.8034 173.843 54.0449 173.595 53.3809 173.101C52.7233 172.606 52.2122 171.906 51.8477 171.001C51.4831 170.09 51.3008 169.025 51.3008 167.808C51.3008 166.597 51.4831 165.532 51.8477 164.614C52.2122 163.696 52.7233 162.99 53.3809 162.495C54.0449 162 54.8034 161.753 55.6562 161.753ZM55.6562 163.12C55.0898 163.12 54.5885 163.315 54.1523 163.706C53.7227 164.097 53.3841 164.647 53.1367 165.356C52.8893 166.06 52.7656 166.877 52.7656 167.808C52.7656 168.739 52.8893 169.559 53.1367 170.269C53.3841 170.972 53.7227 171.515 54.1523 171.899C54.5885 172.284 55.0898 172.476 55.6562 172.476C56.2161 172.476 56.7174 172.284 57.1602 171.899C57.6029 171.515 57.9447 170.968 58.1855 170.259C58.4264 169.549 58.5469 168.732 58.5469 167.808C58.5469 166.883 58.4264 166.066 58.1855 165.356C57.9447 164.647 57.6029 164.097 57.1602 163.706C56.7174 163.315 56.2161 163.12 55.6562 163.12ZM65.3828 177.808H63.8594V160.405H65.3828V177.808ZM64.543 168.315H59.4844V167.046H64.543V168.315ZM84.1719 175.542H68.2734V174.272H84.1719V175.542ZM76.9258 174.663H75.4219V170.073H76.9258V174.663ZM71.6914 164.78H80.7148V161.636H82.2188V170.522H70.1484V161.636H71.6914V164.78ZM80.7148 169.272V166.03H71.6914V169.272H80.7148ZM99.6016 166.909H87.707V165.679H99.6016V166.909ZM101.438 170.522H85.5391V169.272H101.438V170.522ZM89.2305 166.304H87.707V161.05H89.2305V166.304ZM99.6992 177.339H87.6094V176.069H99.6992V177.339ZM89.1328 176.44H87.6094V172.3H89.1328V176.44ZM113.781 165.073C113.781 166.362 113.56 167.612 113.117 168.823C112.674 170.034 112.069 171.108 111.301 172.046C110.533 172.977 109.68 173.68 108.742 174.155L107.766 172.866C108.625 172.476 109.416 171.873 110.139 171.06C110.861 170.246 111.434 169.315 111.857 168.267C112.287 167.212 112.505 166.147 112.512 165.073V161.909H113.781V165.073ZM114.035 165.073C114.035 166.102 114.247 167.121 114.67 168.13C115.093 169.139 115.663 170.041 116.379 170.835C117.102 171.623 117.889 172.209 118.742 172.593L117.805 173.804C116.867 173.348 116.014 172.674 115.246 171.782C114.478 170.89 113.869 169.862 113.42 168.696C112.971 167.531 112.746 166.323 112.746 165.073V161.909H114.035V165.073ZM122.18 177.808H120.637V160.405H122.18V177.808ZM138.723 173.12H137.18V160.405H138.723V173.12ZM141.34 166.987H138.234V165.698H141.34V166.987ZM134.035 161.753C134.035 163.218 133.703 164.562 133.039 165.786C132.375 167.004 131.428 168.065 130.197 168.97C128.967 169.868 127.512 170.581 125.832 171.108L125.168 169.878C126.652 169.416 127.935 168.817 129.016 168.081C130.096 167.339 130.93 166.489 131.516 165.532C132.102 164.569 132.395 163.537 132.395 162.437V161.753H134.035ZM133.195 163.042H125.891V161.753H133.195V163.042ZM139.523 177.397H127.844V176.108H139.523V177.397ZM129.367 176.616H127.844V171.831H129.367V176.616ZM145.109 172.202H143.469L143.332 162.046H145.246L145.109 172.202ZM144.289 176.304C144.061 176.304 143.85 176.245 143.654 176.128C143.465 176.011 143.312 175.858 143.195 175.669C143.085 175.474 143.033 175.262 143.039 175.034C143.033 174.813 143.085 174.604 143.195 174.409C143.312 174.214 143.465 174.061 143.654 173.95C143.85 173.84 144.061 173.784 144.289 173.784C144.517 173.784 144.725 173.84 144.914 173.95C145.109 174.061 145.262 174.214 145.373 174.409C145.484 174.604 145.539 174.813 145.539 175.034C145.539 175.262 145.484 175.474 145.373 175.669C145.262 175.858 145.109 176.011 144.914 176.128C144.725 176.245 144.517 176.304 144.289 176.304ZM33.3516 200.187L38.5273 186.046H40.3828L45.5586 200.187H43.7031L39.5039 188.331H39.3867L35.1875 200.187H33.3516ZM43.0781 194.659V196.202H35.832V194.659H43.0781ZM49.2305 200.187H47.4727V186.046H49.2305V200.187ZM70.5391 193.8H58.5469V192.55H70.5391V193.8ZM72.4141 199.581H56.5156V198.292H72.4141V199.581ZM65.168 198.819H63.6641V193.097H65.168V198.819ZM70.3633 187.081H60.0898V193.136H58.5469V185.831H70.3633V187.081ZM89.6797 195.655H73.7812V194.366H89.6797V195.655ZM82.4336 201.769H80.9297V195.128H82.4336V201.769ZM81.6914 185.108C82.9023 185.108 83.9701 185.265 84.8945 185.577C85.819 185.89 86.5352 186.336 87.043 186.915C87.5508 187.488 87.8047 188.162 87.8047 188.937C87.8047 189.698 87.5508 190.366 87.043 190.938C86.5352 191.505 85.8158 191.941 84.8848 192.247C83.9603 192.553 82.8958 192.706 81.6914 192.706C80.4805 192.706 79.416 192.553 78.498 192.247C77.5801 191.941 76.8639 191.505 76.3496 190.938C75.8353 190.366 75.5781 189.698 75.5781 188.937C75.5781 188.162 75.8353 187.488 76.3496 186.915C76.8639 186.336 77.5801 185.89 78.498 185.577C79.416 185.265 80.4805 185.108 81.6914 185.108ZM81.6914 186.358C80.793 186.358 80.002 186.463 79.3184 186.671C78.6348 186.879 78.1009 187.182 77.7168 187.579C77.3392 187.97 77.1536 188.422 77.1602 188.937C77.1536 189.444 77.3392 189.89 77.7168 190.274C78.1009 190.659 78.6348 190.955 79.3184 191.163C80.002 191.371 80.793 191.476 81.6914 191.476C82.5898 191.476 83.3809 191.371 84.0645 191.163C84.748 190.955 85.2819 190.659 85.666 190.274C86.0501 189.89 86.2422 189.444 86.2422 188.937C86.2422 188.422 86.0534 187.97 85.6758 187.579C85.2982 187.182 84.7643 186.879 84.0742 186.671C83.3841 186.463 82.5898 186.358 81.6914 186.358ZM100.129 197.413H92.1016V186.124H100.129V197.413ZM93.6055 196.163H98.625V187.354H93.6055V196.163ZM105.402 201.808H103.859V184.405H105.402V201.808ZM127.395 195.069H125.91V184.405H127.395V195.069ZM129.602 190.187H126.574V188.897H129.602V190.187ZM115.188 188.409H117.238V185.675H118.527V193.663H113.898V185.675H115.188V188.409ZM117.238 192.413V189.659H115.188V192.413H117.238ZM120.949 188.409H123V185.675H124.289V193.663H119.641V185.675H120.949V188.409ZM123 192.413V189.659H120.949V192.413H123ZM121.691 195.382C122.896 195.382 123.934 195.506 124.807 195.753C125.686 196 126.359 196.365 126.828 196.847C127.303 197.322 127.544 197.895 127.551 198.565C127.544 199.229 127.303 199.799 126.828 200.274C126.359 200.75 125.686 201.111 124.807 201.358C123.934 201.606 122.896 201.729 121.691 201.729C120.48 201.729 119.439 201.606 118.566 201.358C117.694 201.111 117.023 200.75 116.555 200.274C116.086 199.799 115.852 199.229 115.852 198.565C115.852 197.895 116.086 197.322 116.555 196.847C117.023 196.365 117.694 196 118.566 195.753C119.445 195.506 120.487 195.382 121.691 195.382ZM121.691 196.573C120.793 196.58 120.025 196.664 119.387 196.827C118.749 196.983 118.257 197.211 117.912 197.511C117.574 197.804 117.408 198.155 117.414 198.565C117.408 198.969 117.574 199.317 117.912 199.61C118.257 199.903 118.749 200.128 119.387 200.284C120.031 200.44 120.799 200.519 121.691 200.519C122.57 200.519 123.332 200.44 123.977 200.284C124.628 200.128 125.126 199.903 125.471 199.61C125.822 199.317 126.001 198.969 126.008 198.565C126.001 198.155 125.822 197.804 125.471 197.511C125.126 197.211 124.631 196.983 123.986 196.827C123.342 196.664 122.577 196.58 121.691 196.573ZM143.918 186.593H132.609V185.323H143.918V186.593ZM146.496 193.468H130.676V192.179H146.496V193.468ZM144.426 186.769C144.413 187.804 144.374 188.748 144.309 189.601C144.243 190.453 144.094 191.437 143.859 192.55L142.336 192.452C142.512 191.671 142.639 190.938 142.717 190.255C142.801 189.571 142.854 188.985 142.873 188.497C142.893 188.009 142.909 187.4 142.922 186.671V186.573V185.323H144.426V186.573V186.769ZM139.074 195.909C139.074 196.912 138.775 197.813 138.176 198.614C137.577 199.415 136.773 200.076 135.764 200.597C134.761 201.124 133.651 201.489 132.434 201.69L131.848 200.499C132.909 200.343 133.889 200.047 134.787 199.61C135.692 199.174 136.411 198.637 136.945 197.999C137.479 197.361 137.746 196.664 137.746 195.909V195.069H139.074V195.909ZM139.289 195.909C139.289 196.664 139.559 197.361 140.1 197.999C140.64 198.637 141.359 199.174 142.258 199.61C143.156 200.047 144.133 200.343 145.188 200.499L144.621 201.69C143.404 201.489 142.29 201.124 141.281 200.597C140.279 200.076 139.475 199.418 138.869 198.624C138.264 197.823 137.961 196.918 137.961 195.909V195.069H139.289V195.909ZM162.277 201.808H160.734V184.405H162.277V201.808ZM153.039 185.753C153.898 185.753 154.663 186 155.334 186.495C156.005 186.99 156.529 187.696 156.906 188.614C157.284 189.532 157.473 190.597 157.473 191.808C157.473 193.019 157.284 194.08 156.906 194.991C156.529 195.903 156.005 196.606 155.334 197.101C154.663 197.595 153.898 197.843 153.039 197.843C152.18 197.843 151.415 197.595 150.744 197.101C150.074 196.606 149.549 195.903 149.172 194.991C148.794 194.08 148.605 193.019 148.605 191.808C148.605 190.597 148.794 189.532 149.172 188.614C149.549 187.696 150.074 186.99 150.744 186.495C151.415 186 152.18 185.753 153.039 185.753ZM153.039 187.12C152.466 187.12 151.955 187.315 151.506 187.706C151.057 188.097 150.708 188.647 150.461 189.356C150.214 190.066 150.09 190.883 150.09 191.808C150.09 192.739 150.214 193.559 150.461 194.269C150.708 194.972 151.057 195.515 151.506 195.899C151.955 196.284 152.466 196.476 153.039 196.476C153.618 196.476 154.13 196.284 154.572 195.899C155.021 195.515 155.37 194.972 155.617 194.269C155.865 193.559 155.988 192.739 155.988 191.808C155.988 190.877 155.865 190.06 155.617 189.356C155.37 188.647 155.021 188.097 154.572 187.706C154.13 187.315 153.618 187.12 153.039 187.12ZM171.262 197.296H169.719V193.175H171.262V197.296ZM170.48 185.538C171.366 185.545 172.16 185.72 172.863 186.065C173.566 186.404 174.117 186.882 174.514 187.501C174.911 188.119 175.109 188.826 175.109 189.62C175.109 190.414 174.911 191.118 174.514 191.729C174.117 192.341 173.563 192.82 172.854 193.165C172.15 193.51 171.359 193.683 170.48 193.683C169.582 193.683 168.781 193.51 168.078 193.165C167.375 192.82 166.828 192.341 166.438 191.729C166.047 191.118 165.852 190.414 165.852 189.62C165.852 188.826 166.047 188.119 166.438 187.501C166.828 186.882 167.375 186.404 168.078 186.065C168.781 185.72 169.582 185.545 170.48 185.538ZM170.48 186.866C169.875 186.866 169.335 186.983 168.859 187.218C168.391 187.452 168.02 187.778 167.746 188.194C167.479 188.611 167.349 189.086 167.355 189.62C167.349 190.154 167.479 190.629 167.746 191.046C168.02 191.463 168.391 191.788 168.859 192.022C169.335 192.257 169.875 192.374 170.48 192.374C171.073 192.374 171.604 192.257 172.072 192.022C172.548 191.788 172.919 191.463 173.186 191.046C173.459 190.629 173.599 190.154 173.605 189.62C173.599 189.086 173.459 188.611 173.186 188.194C172.919 187.778 172.548 187.452 172.072 187.218C171.604 186.983 171.073 186.866 170.48 186.866ZM178.664 201.769H177.141V184.405H178.664V201.769ZM181.496 192.901H178.254V191.573H181.496V192.901ZM165.871 196.71C167.915 196.69 169.755 196.648 171.389 196.583C173.029 196.518 174.576 196.391 176.027 196.202L176.125 197.354C174.986 197.55 173.788 197.696 172.531 197.794C171.281 197.892 170.077 197.953 168.918 197.979C167.759 197.999 166.548 198.006 165.285 197.999L165.031 196.71H165.871ZM40.8027 219.626H38.6543V216.491H40.8027V219.626ZM38.459 220.827H46.1348V219.196H48.2637V225.7H36.3105V219.196H38.459V220.827ZM46.1348 223.972V222.487H38.459V223.972H46.1348ZM48.2637 218.444H46.1055V208.288H48.2637V218.444ZM33.6152 215.798C35.9655 215.804 38.0423 215.782 39.8457 215.729C41.6491 215.671 43.3874 215.537 45.0605 215.329L45.1777 216.862C43.472 217.155 41.7174 217.344 39.9141 217.429C38.1172 217.507 36.1055 217.546 33.8789 217.546L33.6152 215.798ZM40.1973 209.489C40.1908 210.368 39.9954 211.179 39.6113 211.921C39.2272 212.657 38.6641 213.291 37.9219 213.825C37.1797 214.359 36.2878 214.743 35.2461 214.978L34.2793 213.298C35.1712 213.116 35.9297 212.836 36.5547 212.458C37.1797 212.074 37.6517 211.628 37.9707 211.12C38.2962 210.606 38.459 210.062 38.459 209.489V208.718H40.1973V209.489ZM40.6855 209.489C40.6855 210.023 40.8451 210.531 41.1641 211.013C41.4896 211.488 41.9616 211.905 42.5801 212.263C43.1986 212.621 43.9408 212.888 44.8066 213.063L43.8789 214.694C42.8372 214.479 41.9453 214.125 41.2031 213.63C40.4674 213.135 39.9043 212.536 39.5137 211.833C39.1296 211.123 38.9408 210.342 38.9473 209.489V208.718H40.6855V209.489ZM63.8984 211.628H52.541V209.88H63.8984V211.628ZM66.9551 223.64H50.8809V221.872H66.9551V223.64ZM58.957 222.78H56.8184V215.72H58.957V222.78ZM65.2754 211.794C65.2689 213.246 65.2266 214.571 65.1484 215.769C65.0703 216.96 64.8848 218.347 64.5918 219.929L62.3945 219.694C62.6029 218.646 62.7559 217.657 62.8535 216.726C62.9577 215.788 63.0228 214.965 63.0488 214.255C63.0749 213.545 63.0879 212.696 63.0879 211.706V211.589V209.88H65.2754V211.589V211.794ZM88.2441 225.905H86.1543V208.269H88.2441V225.905ZM86.877 216.97H83.752V215.183H86.877V216.97ZM84.3574 225.075H82.2969V208.571H84.3574V225.075ZM77.9512 212.78C77.9512 214.278 77.8145 215.648 77.541 216.892C77.2676 218.129 76.8346 219.229 76.2422 220.192C75.6497 221.149 74.888 221.901 73.957 222.448L72.6191 220.778C73.472 220.303 74.1719 219.662 74.7188 218.854C75.2721 218.047 75.6725 217.136 75.9199 216.12C76.1738 215.098 76.2975 213.985 76.291 212.78V210.993H77.9512V212.78ZM78.4004 212.78C78.4069 213.874 78.5371 214.896 78.791 215.847C79.0514 216.791 79.4518 217.637 79.9922 218.386C80.5391 219.134 81.2357 219.727 82.082 220.163L80.8223 221.823C79.8783 221.315 79.1003 220.612 78.4883 219.714C77.8828 218.815 77.4368 217.78 77.1504 216.608C76.8704 215.437 76.7305 214.16 76.7305 212.78V210.993H78.4004V212.78ZM81.291 211.95H73.166V210.192H81.291V211.95ZM96.0469 219.812C96.0404 220.677 95.8874 221.498 95.5879 222.272C95.2884 223.047 94.8392 223.734 94.2402 224.333C93.6478 224.932 92.9154 225.388 92.043 225.7L90.959 224.079C91.6947 223.832 92.3197 223.483 92.834 223.034C93.3483 222.578 93.7324 222.074 93.9863 221.521C94.2402 220.967 94.3704 220.397 94.377 219.812V218.952H96.0469V219.812ZM96.4863 219.812C96.4798 220.41 96.5872 220.993 96.8086 221.56C97.0365 222.126 97.3815 222.644 97.8438 223.112C98.3125 223.575 98.8952 223.949 99.5918 224.235L98.7227 225.847C97.8438 225.528 97.1178 225.052 96.5449 224.421C95.9785 223.796 95.5651 223.09 95.3047 222.302C95.0508 221.507 94.9271 220.677 94.9336 219.812V218.952H96.4863V219.812ZM102.482 219.812C102.476 220.619 102.339 221.42 102.072 222.214C101.805 223.008 101.389 223.728 100.822 224.372C100.256 225.023 99.556 225.515 98.7227 225.847L97.8145 224.235C98.4915 223.936 99.0645 223.539 99.5332 223.044C100.002 222.549 100.35 222.022 100.578 221.462C100.806 220.902 100.92 220.352 100.92 219.812V218.952H102.482V219.812ZM103.049 219.812C103.042 220.437 103.166 221.029 103.42 221.589C103.674 222.149 104.055 222.647 104.562 223.083C105.077 223.519 105.708 223.851 106.457 224.079L105.402 225.7C104.51 225.401 103.765 224.958 103.166 224.372C102.567 223.786 102.118 223.106 101.818 222.331C101.525 221.55 101.382 220.71 101.389 219.812V218.952H103.049V219.812ZM99.6113 217.214H91.1152V209.392H99.6113V217.214ZM93.2441 215.495H97.4727V211.13H93.2441V215.495ZM104.904 218.356H102.727V208.288H104.904V218.356ZM122.717 225.905H120.666V208.269H122.717V225.905ZM117.395 216.95H113.322V215.222H117.395V216.95ZM118.977 225.095H116.926V208.698H118.977V225.095ZM115.178 210.427C115.171 212.119 114.953 213.672 114.523 215.085C114.094 216.498 113.394 217.806 112.424 219.011C111.46 220.209 110.184 221.27 108.596 222.194L107.355 220.651C108.703 219.851 109.797 218.962 110.637 217.985C111.483 217.002 112.098 215.925 112.482 214.753C112.867 213.581 113.062 212.282 113.068 210.856V210.427H115.178ZM113.801 212.185H108.254V210.427H113.801V212.185ZM132.521 211.589H136.467V209.177H138.605V217.37H130.344V209.177H132.521V211.589ZM136.467 215.632V213.269H132.521V215.632H136.467ZM142.688 214.196H138.088V212.399H142.688V214.196ZM144.328 217.927H142.16V208.269H144.328V217.927ZM134.855 220.495H142.16V218.688H144.318V225.681H132.697V218.688H134.855V220.495ZM142.16 223.923V222.185H134.855V223.923H142.16ZM160.754 221.179H158.586V208.278H160.754V221.179ZM163.225 215.241H160.109V213.444H163.225V215.241ZM161.447 225.593H149.445V223.815H161.447V225.593ZM151.604 224.587H149.445V219.831H151.604V224.587ZM151.779 209.44C152.671 209.44 153.479 209.632 154.201 210.017C154.93 210.394 155.5 210.922 155.91 211.599C156.327 212.269 156.538 213.031 156.545 213.884C156.538 214.73 156.327 215.492 155.91 216.169C155.5 216.84 154.93 217.367 154.201 217.751C153.479 218.135 152.671 218.327 151.779 218.327C150.9 218.327 150.096 218.135 149.367 217.751C148.638 217.367 148.065 216.836 147.648 216.159C147.232 215.482 147.023 214.724 147.023 213.884C147.023 213.031 147.232 212.269 147.648 211.599C148.065 210.922 148.635 210.394 149.357 210.017C150.087 209.632 150.894 209.44 151.779 209.44ZM151.779 211.345C151.291 211.345 150.845 211.449 150.441 211.657C150.044 211.859 149.729 212.155 149.494 212.546C149.266 212.93 149.152 213.376 149.152 213.884C149.152 214.385 149.266 214.828 149.494 215.212C149.729 215.59 150.044 215.886 150.441 216.101C150.845 216.315 151.291 216.423 151.779 216.423C152.281 216.423 152.73 216.319 153.127 216.11C153.531 215.896 153.846 215.596 154.074 215.212C154.309 214.828 154.426 214.385 154.426 213.884C154.426 213.376 154.309 212.93 154.074 212.546C153.846 212.155 153.531 211.859 153.127 211.657C152.73 211.449 152.281 211.345 151.779 211.345ZM172.16 208.552C173.488 208.552 174.628 208.666 175.578 208.894C176.535 209.121 177.261 209.463 177.756 209.919C178.251 210.368 178.498 210.915 178.498 211.56C178.498 212.217 178.251 212.774 177.756 213.229C177.261 213.685 176.538 214.03 175.588 214.265C174.637 214.493 173.495 214.61 172.16 214.616C170.812 214.61 169.663 214.493 168.713 214.265C167.762 214.03 167.036 213.685 166.535 213.229C166.034 212.774 165.783 212.217 165.783 211.56C165.783 210.915 166.034 210.368 166.535 209.919C167.036 209.463 167.762 209.121 168.713 208.894C169.67 208.666 170.819 208.552 172.16 208.552ZM172.16 210.144C171.255 210.144 170.497 210.199 169.885 210.31C169.279 210.42 168.82 210.583 168.508 210.798C168.202 211.006 168.052 211.26 168.059 211.56C168.052 211.885 168.202 212.155 168.508 212.37C168.82 212.578 169.273 212.735 169.865 212.839C170.464 212.943 171.229 212.995 172.16 212.995C173.085 212.995 173.846 212.943 174.445 212.839C175.051 212.735 175.507 212.578 175.812 212.37C176.118 212.155 176.271 211.885 176.271 211.56C176.271 211.26 176.118 211.006 175.812 210.798C175.507 210.583 175.044 210.42 174.426 210.31C173.814 210.199 173.059 210.144 172.16 210.144ZM180.197 217.302H164.123V215.563H180.197V217.302ZM178.205 222.8H168.166V224.567H166.018V221.267H176.057V220.085H166.008V218.483H178.205V222.8ZM178.684 225.769H166.018V224.108H178.684V225.769ZM36.3301 235.296H40.4512V233.05H42.6191V240.745H34.1914V233.05H36.3301V235.296ZM40.4512 239.017V236.937H36.3301V239.017H40.4512ZM47.5117 241.302H45.3438V232.269H47.5117V241.302ZM49.9824 237.61H46.5938V235.833H49.9824V237.61ZM47.5117 246.634H38.127V248.929H35.9883V245.052H45.3438V243.714H35.959V242.015H47.5117V246.634ZM48.0684 249.769H35.9883V248.04H48.0684V249.769ZM56.6035 233.479C57.5215 233.479 58.3483 233.662 59.084 234.026C59.8262 234.391 60.4056 234.899 60.8223 235.55C61.2389 236.201 61.4473 236.937 61.4473 237.757C61.4473 238.584 61.2389 239.323 60.8223 239.974C60.4056 240.618 59.8262 241.123 59.084 241.487C58.3483 241.852 57.5215 242.034 56.6035 242.034C55.6855 242.034 54.8555 241.852 54.1133 241.487C53.3776 241.123 52.7982 240.618 52.375 239.974C51.9583 239.323 51.75 238.584 51.75 237.757C51.75 236.937 51.9583 236.201 52.375 235.55C52.7982 234.899 53.3776 234.391 54.1133 234.026C54.8555 233.662 55.6855 233.479 56.6035 233.479ZM56.6035 235.364C56.0892 235.371 55.627 235.472 55.2168 235.667C54.8066 235.856 54.4844 236.132 54.25 236.497C54.0156 236.862 53.8984 237.282 53.8984 237.757C53.8984 238.239 54.0156 238.659 54.25 239.017C54.4844 239.375 54.8066 239.651 55.2168 239.847C55.627 240.042 56.0892 240.143 56.6035 240.149C57.1243 240.143 57.5898 240.042 58 239.847C58.4167 239.651 58.7389 239.375 58.9668 239.017C59.2012 238.659 59.3184 238.239 59.3184 237.757C59.3184 237.282 59.2012 236.862 58.9668 236.497C58.7389 236.132 58.4167 235.856 58 235.667C57.5898 235.472 57.1243 235.371 56.6035 235.364ZM65.5684 249.954H63.4199V232.269H65.5684V249.954ZM50.9492 244.476C53.0911 244.476 55.1061 244.44 56.9941 244.368C58.8822 244.29 60.6693 244.131 62.3555 243.89L62.5215 245.472C61.304 245.7 60.0378 245.872 58.7227 245.989C57.4076 246.1 56.1706 246.172 55.0117 246.204C53.8594 246.237 52.5964 246.253 51.2227 246.253L50.9492 244.476ZM76.7598 236.819H68.127V235.081H76.7598V236.819ZM72.4629 237.747C73.2051 237.747 73.8691 237.923 74.4551 238.274C75.041 238.626 75.4967 239.114 75.8223 239.739C76.1543 240.364 76.3236 241.074 76.3301 241.868C76.3236 242.669 76.1543 243.385 75.8223 244.017C75.4967 244.642 75.041 245.133 74.4551 245.491C73.8691 245.849 73.2051 246.028 72.4629 246.028C71.7337 246.028 71.0729 245.849 70.4805 245.491C69.8945 245.133 69.4355 244.642 69.1035 244.017C68.778 243.385 68.6152 242.669 68.6152 241.868C68.6152 241.08 68.7812 240.374 69.1133 239.749C69.4453 239.118 69.9043 238.626 70.4902 238.274C71.0762 237.923 71.7337 237.747 72.4629 237.747ZM72.4629 239.554C72.0853 239.554 71.75 239.651 71.457 239.847C71.1706 240.035 70.9427 240.306 70.7734 240.657C70.6107 241.002 70.5326 241.406 70.5391 241.868C70.5326 242.337 70.6107 242.744 70.7734 243.089C70.9427 243.427 71.1706 243.691 71.457 243.88C71.75 244.069 72.0853 244.163 72.4629 244.163C72.8405 244.163 73.1758 244.069 73.4688 243.88C73.7682 243.691 73.9993 243.427 74.1621 243.089C74.3314 242.744 74.416 242.337 74.416 241.868C74.416 241.406 74.3314 241.002 74.1621 240.657C73.9993 240.306 73.7682 240.035 73.4688 239.847C73.1758 239.651 72.8405 239.554 72.4629 239.554ZM83.332 249.905H81.2617V232.269H83.332V249.905ZM81.9453 241.282H78.8496V239.534H81.9453V241.282ZM79.543 249.114H77.502V232.649H79.543V249.114ZM73.5371 236.165H71.3984V232.776H73.5371V236.165ZM88.4785 236.067H93.0879V233.694H95.2559V241.751H86.3496V233.694H88.4785V236.067ZM93.0879 240.032V237.718H88.4785V240.032H93.0879ZM91.8965 245.169H89.7188V241.233H91.8965V245.169ZM99.3281 249.905H97.1602V232.269H99.3281V249.905ZM101.887 241.253H98.6836V239.446H101.887V241.253ZM85.9199 244.71C88.0749 244.703 89.9531 244.671 91.5547 244.612C93.1628 244.554 94.696 244.427 96.1543 244.231L96.3008 245.823C95.168 246.019 93.9896 246.165 92.7656 246.263C91.5482 246.354 90.3926 246.416 89.2988 246.448C88.2116 246.481 86.9974 246.497 85.6562 246.497H85.5391L85.2363 244.71H85.9199ZM108.605 246.351H106.467V241.292H108.605V246.351ZM115.139 246.351H112.951V241.292H115.139V246.351ZM118.869 247.786H102.736V245.999H118.869V247.786ZM110.773 233.216C112.03 233.216 113.156 233.411 114.152 233.802C115.148 234.186 115.93 234.733 116.496 235.442C117.062 236.152 117.346 236.966 117.346 237.884C117.346 238.808 117.062 239.622 116.496 240.325C115.936 241.028 115.155 241.575 114.152 241.966C113.156 242.35 112.03 242.542 110.773 242.542C109.504 242.542 108.371 242.35 107.375 241.966C106.385 241.575 105.607 241.028 105.041 240.325C104.481 239.622 104.201 238.808 104.201 237.884C104.201 236.966 104.481 236.152 105.041 235.442C105.607 234.733 106.385 234.186 107.375 233.802C108.371 233.411 109.504 233.216 110.773 233.216ZM110.773 234.954C109.888 234.948 109.11 235.062 108.439 235.296C107.769 235.53 107.248 235.872 106.877 236.321C106.512 236.764 106.33 237.285 106.33 237.884C106.33 238.483 106.512 239.007 106.877 239.456C107.248 239.899 107.769 240.244 108.439 240.491C109.11 240.732 109.888 240.853 110.773 240.853C111.639 240.853 112.408 240.729 113.078 240.481C113.749 240.234 114.27 239.889 114.641 239.446C115.018 239.004 115.207 238.483 115.207 237.884C115.207 237.285 115.018 236.764 114.641 236.321C114.27 235.872 113.749 235.53 113.078 235.296C112.408 235.062 111.639 234.948 110.773 234.954ZM122.16 248.343C121.88 248.343 121.623 248.274 121.389 248.138C121.161 248.001 120.979 247.815 120.842 247.581C120.705 247.347 120.64 247.093 120.646 246.819C120.64 246.552 120.705 246.305 120.842 246.077C120.979 245.843 121.161 245.66 121.389 245.53C121.623 245.394 121.88 245.325 122.16 245.325C122.427 245.325 122.674 245.394 122.902 245.53C123.137 245.66 123.322 245.843 123.459 246.077C123.596 246.305 123.664 246.552 123.664 246.819C123.664 247.093 123.596 247.347 123.459 247.581C123.322 247.815 123.137 248.001 122.902 248.138C122.674 248.274 122.427 248.343 122.16 248.343Z" fill="#464646"/>
<defs>
<filter id="filter0_bd_626_1219" x="-76" y="-80" width="366" height="730" filterUnits="userSpaceOnUse" color-interpolation-filters="sRGB">
<feFlood flood-opacity="0" result="BackgroundImageFix"/>
<feGaussianBlur in="BackgroundImageFix" stdDeviation="40"/>
<feComposite in2="SourceAlpha" operator="in" result="effect1_backgroundBlur_626_1219"/>
<feColorMatrix in="SourceAlpha" type="matrix" values="0 0 0 0 0 0 0 0 0 0 0 0 0 0 0 0 0 0 127 0" result="hardAlpha"/>
<feOffset dy="3.6"/>
<feGaussianBlur stdDeviation="1.8"/>
<feComposite in2="hardAlpha" operator="out"/>
<feColorMatrix type="matrix" values="0 0 0 0 0 0 0 0 0 0 0 0 0 0 0 0 0 0 0.25 0"/>
<feBlend mode="normal" in2="effect1_backgroundBlur_626_1219" result="effect2_dropShadow_626_1219"/>
<feBlend mode="normal" in="SourceGraphic" in2="effect2_dropShadow_626_1219" result="shape"/>
</filter>
<linearGradient id="paint0_linear_626_1219" x1="107" y1="-42.3775" x2="107" y2="570" gradientUnits="userSpaceOnUse">
<stop stop-color="#D8F5DD"/>
<stop offset="1" stop-color="#D8F5DD" stop-opacity="0"/>
</linearGradient>
</defs>
</svg>