<svg xmlns="http://www.w3.org/2000/svg" width="214" height="578" viewBox="0 0 214 578" fill="none">
<g filter="url(#filter0_bd_626_1180)">
<rect x="4" width="206" height="570" rx="103" fill="url(#paint0_linear_626_1180)" shape-rendering="crispEdges"/>
</g>
<path d="M66.9961 64.0112H72.2695V60.9526H74.4609V70.6323H64.7812V60.9526H66.9961V64.0112ZM72.2695 68.8394V65.7456H66.9961V68.8394H72.2695ZM79.6523 66.7534H73.8867V64.9136H79.6523V66.7534ZM81.2812 71.3589H79.0547V59.8628H81.2812V71.3589ZM69.8086 74.6753H79.0547V72.3198H81.2578V80.5933H67.582V72.3198H69.8086V74.6753ZM79.0547 78.7769V76.4331H69.8086V78.7769H79.0547ZM101.016 75.2964H98.8008V59.8745H101.016V75.2964ZM104.074 67.9956H100.336V66.144H104.074V67.9956ZM101.906 80.4526H87.7148V78.6128H101.906V80.4526ZM89.918 79.3745H87.7148V73.6909H89.918V79.3745ZM90.4219 61.3042C91.4688 61.3042 92.418 61.5269 93.2695 61.9722C94.1289 62.4175 94.8008 63.0386 95.2852 63.8354C95.7695 64.6323 96.0156 65.5308 96.0234 66.5308C96.0156 67.5386 95.7695 68.4409 95.2852 69.2378C94.8008 70.0269 94.1289 70.6479 93.2695 71.1011C92.418 71.5464 91.4688 71.769 90.4219 71.769C89.375 71.769 88.4258 71.5464 87.5742 71.1011C86.7227 70.6479 86.0508 70.0229 85.5586 69.2261C85.0742 68.4292 84.832 67.5308 84.832 66.5308C84.832 65.5308 85.0742 64.6323 85.5586 63.8354C86.0508 63.0386 86.7188 62.4175 87.5625 61.9722C88.4141 61.5269 89.3672 61.3042 90.4219 61.3042ZM90.4219 63.2495C89.7891 63.2495 89.2109 63.3862 88.6875 63.6597C88.1719 63.9331 87.7617 64.3237 87.457 64.8315C87.1602 65.3315 87.0117 65.8979 87.0117 66.5308C87.0117 67.1714 87.1602 67.7417 87.457 68.2417C87.7617 68.7339 88.1719 69.1206 88.6875 69.4019C89.2109 69.6753 89.7891 69.812 90.4219 69.812C91.0703 69.812 91.6523 69.6753 92.168 69.4019C92.6914 69.1206 93.1016 68.7339 93.3984 68.2417C93.6953 67.7417 93.8438 67.1714 93.8438 66.5308C93.8438 65.8901 93.6953 65.3198 93.3984 64.8198C93.1016 64.3198 92.6914 63.9331 92.168 63.6597C91.6523 63.3862 91.0703 63.2495 90.4219 63.2495ZM130.312 72.6597H111.094V70.8784H130.312V72.6597ZM121.992 76.5269H119.789V71.769H121.992V76.5269ZM128.18 80.4526H113.484V78.6128H128.18V80.4526ZM115.688 79.3394H113.484V74.6753H115.688V79.3394ZM115.84 63.0737H125.566V60.5425H127.77V69.0151H113.637V60.5425H115.84V63.0737ZM125.566 67.2339V64.7495H115.84V67.2339H125.566ZM147.539 65.9565H142.711V64.1167H147.539V65.9565ZM138.867 63.0972C138.867 64.4487 138.633 65.7104 138.164 66.8823C137.703 68.0542 137.031 69.0737 136.148 69.9409C135.273 70.8003 134.234 71.4604 133.031 71.9214L131.824 70.105C132.91 69.7378 133.844 69.2026 134.625 68.4995C135.414 67.7886 136.012 66.9722 136.418 66.0503C136.832 65.1284 137.043 64.144 137.051 63.0972V60.9526H138.867V63.0972ZM139.254 63.2026C139.254 64.1479 139.457 65.0464 139.863 65.8979C140.277 66.7495 140.863 67.5073 141.621 68.1714C142.387 68.8354 143.285 69.3394 144.316 69.6831L143.109 71.4644C141.953 71.0425 140.953 70.4214 140.109 69.6011C139.266 68.7808 138.613 67.8237 138.152 66.73C137.699 65.6284 137.473 64.4526 137.473 63.2026V60.9526H139.254V63.2026ZM149.367 80.8628H147.141V75.1792H135.141V73.3979H149.367V80.8628ZM149.367 72.3198H147.141V59.8628H149.367V72.3198Z" fill="#0E0E0E"/>
<defs>
<filter id="filter0_bd_626_1180" x="-76" y="-80" width="366" height="730" filterUnits="userSpaceOnUse" color-interpolation-filters="sRGB">
<feFlood flood-opacity="0" result="BackgroundImageFix"/>
<feGaussianBlur in="BackgroundImageFix" stdDeviation="40"/>
<feComposite in2="SourceAlpha" operator="in" result="effect1_backgroundBlur_626_1180"/>
<feColorMatrix in="SourceAlpha" type="matrix" values="0 0 0 0 0 0 0 0 0 0 0 0 0 0 0 0 0 0 127 0" result="hardAlpha"/>
<feOffset dy="3.6"/>
<feGaussianBlur stdDeviation="1.8"/>
<feComposite in2="hardAlpha" operator="out"/>
<feColorMatrix type="matrix" values="0 0 0 0 0 0 0 0 0 0 0 0 0 0 0 0 0 0 0.25 0"/>
<feBlend mode="normal" in2="effect1_backgroundBlur_626_1180" result="effect2_dropShadow_626_1180"/>
<feBlend mode="normal" in="SourceGraphic" in2="effect2_dropShadow_626_1180" result="shape"/>
</filter>
<linearGradient id="paint0_linear_626_1180" x1="107" y1="0" x2="107" y2="570" gradientUnits="userSpaceOnUse">
<stop offset="0.06" stop-color="#F6F6F6" stop-opacity="0.9"/>
<stop offset="1" stop-color="#F6F6F6" stop-opacity="0"/>
</linearGradient>
</defs>
</svg>