<svg xmlns="http://www.w3.org/2000/svg" width="214" height="461" viewBox="0 0 214 461" fill="none">
<g filter="url(#filter0_bd_839_50)">
<rect x="4" width="206" height="453" rx="103" fill="url(#paint0_linear_839_50)" shape-rendering="crispEdges"/>
</g>
<mask id="path-2-outside-1_839_50" maskUnits="userSpaceOnUse" x="63" y="56" width="88" height="25" fill="black">
<rect fill="white" x="63" y="56" width="88" height="25"/>
<path d="M68.5 61.1328H71.6172V58.7656H75.3438V69.0312H64.7031V58.7656H68.5V61.1328ZM71.6172 66.0547V64.0039H68.5V66.0547H71.6172ZM79.3516 65.4102H74.5352V62.3516H79.3516V65.4102ZM82.3398 69.5469H78.6016V57.6406H82.3398V69.5469ZM71.2891 71.9141H78.6016V70.332H82.3398V79.0625H67.5859V70.332H71.2891V71.9141ZM78.6016 76.0742V74.7617H71.2891V76.0742H78.6016ZM101.98 73.332H98.207V57.6875H101.98V73.332ZM104.688 66.7344H100.938V63.6641H104.688V66.7344ZM102.613 79.0273H87.6016V76.0273H102.613V79.0273ZM91.375 77.4219H87.6016V71.668H91.375V77.4219ZM90.7188 58.9648C91.8281 58.9648 92.8477 59.207 93.7773 59.6914C94.707 60.168 95.4375 60.8359 95.9688 61.6953C96.5078 62.5547 96.7773 63.5156 96.7773 64.5781C96.7773 65.6328 96.5078 66.5898 95.9688 67.4492C95.4375 68.3086 94.707 68.9844 93.7773 69.4766C92.8477 69.9609 91.8281 70.2031 90.7188 70.2031C89.6016 70.2031 88.5742 69.9609 87.6367 69.4766C86.707 68.9844 85.9688 68.3086 85.4219 67.4492C84.8828 66.5898 84.6133 65.6328 84.6133 64.5781C84.6133 63.5156 84.8828 62.5547 85.4219 61.6953C85.9688 60.8359 86.707 60.168 87.6367 59.6914C88.5664 59.207 89.5938 58.9648 90.7188 58.9648ZM90.7188 62.2344C90.2656 62.2344 89.8555 62.3203 89.4883 62.4922C89.1289 62.6641 88.8398 62.9297 88.6211 63.2891C88.4023 63.6406 88.293 64.0703 88.293 64.5781C88.293 65.0781 88.4023 65.5039 88.6211 65.8555C88.8398 66.1992 89.1289 66.4648 89.4883 66.6523C89.8555 66.832 90.2656 66.9219 90.7188 66.9219C91.1719 66.9219 91.5781 66.8359 91.9375 66.6641C92.3047 66.4844 92.5898 66.2188 92.793 65.8672C93.0039 65.5078 93.1094 65.0781 93.1094 64.5781C93.1094 64.0703 93.0039 63.6406 92.793 63.2891C92.5898 62.9297 92.3047 62.6641 91.9375 62.4922C91.5781 62.3203 91.1719 62.2344 90.7188 62.2344ZM114.801 60.8867H118.047V58.6602H121.82V68.1289H111.074V58.6602H114.801V60.8867ZM118.047 65.2227V63.6758H114.801V65.2227H118.047ZM127.949 68.5742H124.176V57.6406H127.949V68.5742ZM130.656 64.5781H126.426V61.5664H130.656V64.5781ZM127.949 75.5469H116.957V77.7148H113.254V72.9102H124.199V72.125H113.23V69.2539H127.949V75.5469ZM128.465 79.2383H113.254V76.3203H128.465V79.2383ZM138.32 59.0117C139.461 59.0117 140.496 59.25 141.426 59.7266C142.355 60.1953 143.086 60.8477 143.617 61.6836C144.156 62.5195 144.426 63.4531 144.426 64.4844C144.426 65.5234 144.156 66.4609 143.617 67.2969C143.086 68.125 142.355 68.7773 141.426 69.2539C140.496 69.7227 139.461 69.957 138.32 69.957C137.188 69.957 136.152 69.7227 135.215 69.2539C134.285 68.7773 133.547 68.125 133 67.2969C132.461 66.4609 132.191 65.5234 132.191 64.4844C132.191 63.4531 132.461 62.5195 133 61.6836C133.547 60.8477 134.285 60.1953 135.215 59.7266C136.152 59.25 137.188 59.0117 138.32 59.0117ZM138.32 62.2461C137.867 62.2539 137.461 62.3398 137.102 62.5039C136.742 62.668 136.457 62.9219 136.246 63.2656C136.043 63.6016 135.941 64.0078 135.941 64.4844C135.941 64.9766 136.043 65.3906 136.246 65.7266C136.457 66.0547 136.742 66.3008 137.102 66.4648C137.461 66.6289 137.867 66.7148 138.32 66.7227C138.789 66.7148 139.207 66.6289 139.574 66.4648C139.949 66.3008 140.242 66.0547 140.453 65.7266C140.664 65.3906 140.77 64.9766 140.77 64.4844C140.77 64.0078 140.664 63.6016 140.453 63.2656C140.242 62.9219 139.949 62.668 139.574 62.5039C139.207 62.3398 138.789 62.2539 138.32 62.2461ZM149.828 79.3906H146.09V57.6406H149.828V79.3906ZM131.418 72.1836C133.941 72.1758 136.332 72.1289 138.59 72.043C140.848 71.9492 142.984 71.7695 145 71.5039L145.27 74.1875C143.816 74.4766 142.309 74.6953 140.746 74.8438C139.184 74.9844 137.703 75.0781 136.305 75.125C134.906 75.1641 133.414 75.1797 131.828 75.1719L131.418 72.1836Z"/>
</mask>
<path d="M68.5 61.1328H71.6172V58.7656H75.3438V69.0312H64.7031V58.7656H68.5V61.1328ZM71.6172 66.0547V64.0039H68.5V66.0547H71.6172ZM79.3516 65.4102H74.5352V62.3516H79.3516V65.4102ZM82.3398 69.5469H78.6016V57.6406H82.3398V69.5469ZM71.2891 71.9141H78.6016V70.332H82.3398V79.0625H67.5859V70.332H71.2891V71.9141ZM78.6016 76.0742V74.7617H71.2891V76.0742H78.6016ZM101.98 73.332H98.207V57.6875H101.98V73.332ZM104.688 66.7344H100.938V63.6641H104.688V66.7344ZM102.613 79.0273H87.6016V76.0273H102.613V79.0273ZM91.375 77.4219H87.6016V71.668H91.375V77.4219ZM90.7188 58.9648C91.8281 58.9648 92.8477 59.207 93.7773 59.6914C94.707 60.168 95.4375 60.8359 95.9688 61.6953C96.5078 62.5547 96.7773 63.5156 96.7773 64.5781C96.7773 65.6328 96.5078 66.5898 95.9688 67.4492C95.4375 68.3086 94.707 68.9844 93.7773 69.4766C92.8477 69.9609 91.8281 70.2031 90.7188 70.2031C89.6016 70.2031 88.5742 69.9609 87.6367 69.4766C86.707 68.9844 85.9688 68.3086 85.4219 67.4492C84.8828 66.5898 84.6133 65.6328 84.6133 64.5781C84.6133 63.5156 84.8828 62.5547 85.4219 61.6953C85.9688 60.8359 86.707 60.168 87.6367 59.6914C88.5664 59.207 89.5938 58.9648 90.7188 58.9648ZM90.7188 62.2344C90.2656 62.2344 89.8555 62.3203 89.4883 62.4922C89.1289 62.6641 88.8398 62.9297 88.6211 63.2891C88.4023 63.6406 88.293 64.0703 88.293 64.5781C88.293 65.0781 88.4023 65.5039 88.6211 65.8555C88.8398 66.1992 89.1289 66.4648 89.4883 66.6523C89.8555 66.832 90.2656 66.9219 90.7188 66.9219C91.1719 66.9219 91.5781 66.8359 91.9375 66.6641C92.3047 66.4844 92.5898 66.2188 92.793 65.8672C93.0039 65.5078 93.1094 65.0781 93.1094 64.5781C93.1094 64.0703 93.0039 63.6406 92.793 63.2891C92.5898 62.9297 92.3047 62.6641 91.9375 62.4922C91.5781 62.3203 91.1719 62.2344 90.7188 62.2344ZM114.801 60.8867H118.047V58.6602H121.82V68.1289H111.074V58.6602H114.801V60.8867ZM118.047 65.2227V63.6758H114.801V65.2227H118.047ZM127.949 68.5742H124.176V57.6406H127.949V68.5742ZM130.656 64.5781H126.426V61.5664H130.656V64.5781ZM127.949 75.5469H116.957V77.7148H113.254V72.9102H124.199V72.125H113.23V69.2539H127.949V75.5469ZM128.465 79.2383H113.254V76.3203H128.465V79.2383ZM138.32 59.0117C139.461 59.0117 140.496 59.25 141.426 59.7266C142.355 60.1953 143.086 60.8477 143.617 61.6836C144.156 62.5195 144.426 63.4531 144.426 64.4844C144.426 65.5234 144.156 66.4609 143.617 67.2969C143.086 68.125 142.355 68.7773 141.426 69.2539C140.496 69.7227 139.461 69.957 138.32 69.957C137.188 69.957 136.152 69.7227 135.215 69.2539C134.285 68.7773 133.547 68.125 133 67.2969C132.461 66.4609 132.191 65.5234 132.191 64.4844C132.191 63.4531 132.461 62.5195 133 61.6836C133.547 60.8477 134.285 60.1953 135.215 59.7266C136.152 59.25 137.188 59.0117 138.32 59.0117ZM138.32 62.2461C137.867 62.2539 137.461 62.3398 137.102 62.5039C136.742 62.668 136.457 62.9219 136.246 63.2656C136.043 63.6016 135.941 64.0078 135.941 64.4844C135.941 64.9766 136.043 65.3906 136.246 65.7266C136.457 66.0547 136.742 66.3008 137.102 66.4648C137.461 66.6289 137.867 66.7148 138.32 66.7227C138.789 66.7148 139.207 66.6289 139.574 66.4648C139.949 66.3008 140.242 66.0547 140.453 65.7266C140.664 65.3906 140.77 64.9766 140.77 64.4844C140.77 64.0078 140.664 63.6016 140.453 63.2656C140.242 62.9219 139.949 62.668 139.574 62.5039C139.207 62.3398 138.789 62.2539 138.32 62.2461ZM149.828 79.3906H146.09V57.6406H149.828V79.3906ZM131.418 72.1836C133.941 72.1758 136.332 72.1289 138.59 72.043C140.848 71.9492 142.984 71.7695 145 71.5039L145.27 74.1875C143.816 74.4766 142.309 74.6953 140.746 74.8438C139.184 74.9844 137.703 75.0781 136.305 75.125C134.906 75.1641 133.414 75.1797 131.828 75.1719L131.418 72.1836Z" fill="#F6F6F6"/>
<path d="M68.5 61.1328H67.5V62.1328H68.5V61.1328ZM71.6172 61.1328V62.1328H72.6172V61.1328H71.6172ZM71.6172 58.7656V57.7656H70.6172V58.7656H71.6172ZM75.3438 58.7656H76.3438V57.7656H75.3438V58.7656ZM75.3438 69.0312V70.0312H76.3438V69.0312H75.3438ZM64.7031 69.0312H63.7031V70.0312H64.7031V69.0312ZM64.7031 58.7656V57.7656H63.7031V58.7656H64.7031ZM68.5 58.7656H69.5V57.7656H68.5V58.7656ZM71.6172 66.0547V67.0547H72.6172V66.0547H71.6172ZM71.6172 64.0039H72.6172V63.0039H71.6172V64.0039ZM68.5 64.0039V63.0039H67.5V64.0039H68.5ZM68.5 66.0547H67.5V67.0547H68.5V66.0547ZM79.3516 65.4102V66.4102H80.3516V65.4102H79.3516ZM74.5352 65.4102H73.5352V66.4102H74.5352V65.4102ZM74.5352 62.3516V61.3516H73.5352V62.3516H74.5352ZM79.3516 62.3516H80.3516V61.3516H79.3516V62.3516ZM82.3398 69.5469V70.5469H83.3398V69.5469H82.3398ZM78.6016 69.5469H77.6016V70.5469H78.6016V69.5469ZM78.6016 57.6406V56.6406H77.6016V57.6406H78.6016ZM82.3398 57.6406H83.3398V56.6406H82.3398V57.6406ZM71.2891 71.9141H70.2891V72.9141H71.2891V71.9141ZM78.6016 71.9141V72.9141H79.6016V71.9141H78.6016ZM78.6016 70.332V69.332H77.6016V70.332H78.6016ZM82.3398 70.332H83.3398V69.332H82.3398V70.332ZM82.3398 79.0625V80.0625H83.3398V79.0625H82.3398ZM67.5859 79.0625H66.5859V80.0625H67.5859V79.0625ZM67.5859 70.332V69.332H66.5859V70.332H67.5859ZM71.2891 70.332H72.2891V69.332H71.2891V70.332ZM78.6016 76.0742V77.0742H79.6016V76.0742H78.6016ZM78.6016 74.7617H79.6016V73.7617H78.6016V74.7617ZM71.2891 74.7617V73.7617H70.2891V74.7617H71.2891ZM71.2891 76.0742H70.2891V77.0742H71.2891V76.0742ZM68.5 62.1328H71.6172V60.1328H68.5V62.1328ZM72.6172 61.1328V58.7656H70.6172V61.1328H72.6172ZM71.6172 59.7656H75.3438V57.7656H71.6172V59.7656ZM74.3438 58.7656V69.0312H76.3438V58.7656H74.3438ZM75.3438 68.0312H64.7031V70.0312H75.3438V68.0312ZM65.7031 69.0312V58.7656H63.7031V69.0312H65.7031ZM64.7031 59.7656H68.5V57.7656H64.7031V59.7656ZM67.5 58.7656V61.1328H69.5V58.7656H67.5ZM72.6172 66.0547V64.0039H70.6172V66.0547H72.6172ZM71.6172 63.0039H68.5V65.0039H71.6172V63.0039ZM67.5 64.0039V66.0547H69.5V64.0039H67.5ZM68.5 67.0547H71.6172V65.0547H68.5V67.0547ZM79.3516 64.4102H74.5352V66.4102H79.3516V64.4102ZM75.5352 65.4102V62.3516H73.5352V65.4102H75.5352ZM74.5352 63.3516H79.3516V61.3516H74.5352V63.3516ZM78.3516 62.3516V65.4102H80.3516V62.3516H78.3516ZM82.3398 68.5469H78.6016V70.5469H82.3398V68.5469ZM79.6016 69.5469V57.6406H77.6016V69.5469H79.6016ZM78.6016 58.6406H82.3398V56.6406H78.6016V58.6406ZM81.3398 57.6406V69.5469H83.3398V57.6406H81.3398ZM71.2891 72.9141H78.6016V70.9141H71.2891V72.9141ZM79.6016 71.9141V70.332H77.6016V71.9141H79.6016ZM78.6016 71.332H82.3398V69.332H78.6016V71.332ZM81.3398 70.332V79.0625H83.3398V70.332H81.3398ZM82.3398 78.0625H67.5859V80.0625H82.3398V78.0625ZM68.5859 79.0625V70.332H66.5859V79.0625H68.5859ZM67.5859 71.332H71.2891V69.332H67.5859V71.332ZM70.2891 70.332V71.9141H72.2891V70.332H70.2891ZM79.6016 76.0742V74.7617H77.6016V76.0742H79.6016ZM78.6016 73.7617H71.2891V75.7617H78.6016V73.7617ZM70.2891 74.7617V76.0742H72.2891V74.7617H70.2891ZM71.2891 77.0742H78.6016V75.0742H71.2891V77.0742ZM101.98 73.332V74.332H102.98V73.332H101.98ZM98.207 73.332H97.207V74.332H98.207V73.332ZM98.207 57.6875V56.6875H97.207V57.6875H98.207ZM101.98 57.6875H102.98V56.6875H101.98V57.6875ZM104.688 66.7344V67.7344H105.688V66.7344H104.688ZM100.938 66.7344H99.9375V67.7344H100.938V66.7344ZM100.938 63.6641V62.6641H99.9375V63.6641H100.938ZM104.688 63.6641H105.688V62.6641H104.688V63.6641ZM102.613 79.0273V80.0273H103.613V79.0273H102.613ZM87.6016 79.0273H86.6016V80.0273H87.6016V79.0273ZM87.6016 76.0273V75.0273H86.6016V76.0273H87.6016ZM102.613 76.0273H103.613V75.0273H102.613V76.0273ZM91.375 77.4219V78.4219H92.375V77.4219H91.375ZM87.6016 77.4219H86.6016V78.4219H87.6016V77.4219ZM87.6016 71.668V70.668H86.6016V71.668H87.6016ZM91.375 71.668H92.375V70.668H91.375V71.668ZM93.7773 59.6914L93.3153 60.5783L93.3212 60.5813L93.7773 59.6914ZM95.9688 61.6953L95.1181 62.2211L95.1216 62.2267L95.9688 61.6953ZM95.9688 67.4492L95.1216 66.9178L95.1182 66.9234L95.9688 67.4492ZM93.7773 69.4766L94.2394 70.3634L94.2452 70.3603L93.7773 69.4766ZM87.6367 69.4766L87.1688 70.3604L87.1777 70.365L87.6367 69.4766ZM85.4219 67.4492L84.5747 67.9806L84.5782 67.9861L85.4219 67.4492ZM85.4219 61.6953L84.5782 61.1584L84.5747 61.1639L85.4219 61.6953ZM87.6367 59.6914L88.0929 60.5813L88.0988 60.5783L87.6367 59.6914ZM89.4883 62.4922L89.0643 61.5865L89.0568 61.5901L89.4883 62.4922ZM88.6211 63.2891L89.4702 63.8174L89.4753 63.809L88.6211 63.2891ZM88.6211 65.8555L87.772 66.3838L87.7774 66.3923L88.6211 65.8555ZM89.4883 66.6523L89.0257 67.5389L89.0371 67.5449L89.0487 67.5506L89.4883 66.6523ZM91.9375 66.6641L92.369 67.5662L92.3771 67.5623L91.9375 66.6641ZM92.793 65.8672L91.9305 65.361L91.9271 65.3669L92.793 65.8672ZM92.793 63.2891L91.9224 63.7811L91.9288 63.7924L91.9355 63.8036L92.793 63.2891ZM91.9375 62.4922L91.506 63.3944L91.5136 63.3979L91.9375 62.4922ZM101.98 72.332H98.207V74.332H101.98V72.332ZM99.207 73.332V57.6875H97.207V73.332H99.207ZM98.207 58.6875H101.98V56.6875H98.207V58.6875ZM100.98 57.6875V73.332H102.98V57.6875H100.98ZM104.688 65.7344H100.938V67.7344H104.688V65.7344ZM101.938 66.7344V63.6641H99.9375V66.7344H101.938ZM100.938 64.6641H104.688V62.6641H100.938V64.6641ZM103.688 63.6641V66.7344H105.688V63.6641H103.688ZM102.613 78.0273H87.6016V80.0273H102.613V78.0273ZM88.6016 79.0273V76.0273H86.6016V79.0273H88.6016ZM87.6016 77.0273H102.613V75.0273H87.6016V77.0273ZM101.613 76.0273V79.0273H103.613V76.0273H101.613ZM91.375 76.4219H87.6016V78.4219H91.375V76.4219ZM88.6016 77.4219V71.668H86.6016V77.4219H88.6016ZM87.6016 72.668H91.375V70.668H87.6016V72.668ZM90.375 71.668V77.4219H92.375V71.668H90.375ZM90.7188 59.9648C91.6769 59.9648 92.5366 60.1726 93.3153 60.5783L94.2394 58.8046C93.1587 58.2415 91.9794 57.9648 90.7188 57.9648V59.9648ZM93.3212 60.5813C94.0945 60.9777 94.6861 61.5222 95.1182 62.2211L96.8193 61.1695C96.1889 60.1496 95.3196 59.3582 94.2335 58.8015L93.3212 60.5813ZM95.1216 62.2267C95.5559 62.9191 95.7773 63.6943 95.7773 64.5781H97.7773C97.7773 63.337 97.4597 62.1903 96.8159 61.1639L95.1216 62.2267ZM95.7773 64.5781C95.7773 65.4527 95.5567 66.2242 95.1216 66.9178L96.8159 67.9806C97.4589 66.9555 97.7773 65.813 97.7773 64.5781H95.7773ZM95.1182 66.9234C94.6843 67.6252 94.0888 68.1802 93.3095 68.5928L94.2452 70.3603C95.3253 69.7886 96.1907 68.992 96.8193 67.975L95.1182 66.9234ZM93.3153 68.5897C92.5366 68.9954 91.6769 69.2031 90.7188 69.2031V71.2031C91.9794 71.2031 93.1587 70.9265 94.2394 70.3634L93.3153 68.5897ZM90.7188 69.2031C89.7516 69.2031 88.883 68.9949 88.0957 68.5881L87.1777 70.365C88.2654 70.927 89.4515 71.2031 90.7188 71.2031V69.2031ZM88.1046 68.5928C87.3229 68.1789 86.7162 67.6206 86.2655 66.9123L84.5782 67.9861C85.2213 68.9966 86.0912 69.7898 87.1688 70.3603L88.1046 68.5928ZM86.269 66.9178C85.8339 66.2242 85.6133 65.4527 85.6133 64.5781H83.6133C83.6133 65.813 83.9317 66.9555 84.5747 67.9806L86.269 66.9178ZM85.6133 64.5781C85.6133 63.6943 85.8347 62.9191 86.269 62.2267L84.5747 61.1639C83.9309 62.1903 83.6133 63.337 83.6133 64.5781H85.6133ZM86.2655 62.2322C86.7144 61.5268 87.3172 60.9789 88.0929 60.5813L87.1806 58.8015C86.0969 59.357 85.2231 60.145 84.5782 61.1584L86.2655 62.2322ZM88.0988 60.5783C88.8755 60.1736 89.7426 59.9648 90.7188 59.9648V57.9648C89.4449 57.9648 88.2574 58.2405 87.1747 58.8046L88.0988 60.5783ZM90.7188 61.2344C90.1365 61.2344 89.5791 61.3456 89.0643 61.5865L89.9122 63.3979C90.1318 63.2951 90.3948 63.2344 90.7188 63.2344V61.2344ZM89.0568 61.5901C88.5124 61.8504 88.0806 62.2538 87.7669 62.7691L89.4753 63.809C89.5991 63.6056 89.7454 63.4777 89.9197 63.3943L89.0568 61.5901ZM87.772 62.7608C87.4344 63.3033 87.293 63.9259 87.293 64.5781H89.293C89.293 64.2147 89.3703 63.9779 89.4701 63.8174L87.772 62.7608ZM87.293 64.5781C87.293 65.2259 87.4359 65.8435 87.772 66.3838L89.4701 65.3272C89.3688 65.1643 89.293 64.9304 89.293 64.5781H87.293ZM87.7774 66.3923C88.0898 66.8833 88.51 67.2699 89.0257 67.5389L89.9508 65.7658C89.7478 65.6598 89.5899 65.5152 89.4648 65.3186L87.7774 66.3923ZM89.0487 67.5506C89.567 67.8042 90.13 67.9219 90.7188 67.9219V65.9219C90.4013 65.9219 90.1439 65.8599 89.9278 65.7541L89.0487 67.5506ZM90.7188 67.9219C91.3006 67.9219 91.8575 67.8108 92.369 67.5662L91.506 65.7619C91.2988 65.861 91.0431 65.9219 90.7188 65.9219V67.9219ZM92.3771 67.5623C92.9214 67.2959 93.3556 66.8923 93.6588 66.3675L91.9271 65.3669C91.8241 65.5452 91.688 65.6729 91.4979 65.7658L92.3771 67.5623ZM93.6554 66.3734C93.9729 65.8324 94.1094 65.2204 94.1094 64.5781H92.1094C92.1094 64.9358 92.0349 65.1832 91.9306 65.361L93.6554 66.3734ZM94.1094 64.5781C94.1094 63.9321 93.9745 63.3147 93.6505 62.7746L91.9355 63.8036C92.0333 63.9666 92.1094 64.2086 92.1094 64.5781H94.1094ZM93.6635 62.797C93.3601 62.2602 92.9205 61.8482 92.3614 61.5865L91.5136 63.3979C91.6889 63.4799 91.8196 63.5992 91.9224 63.7811L93.6635 62.797ZM92.369 61.5901C91.8575 61.3454 91.3006 61.2344 90.7188 61.2344V63.2344C91.0431 63.2344 91.2988 63.2952 91.506 63.3943L92.369 61.5901ZM114.801 60.8867H113.801V61.8867H114.801V60.8867ZM118.047 60.8867V61.8867H119.047V60.8867H118.047ZM118.047 58.6602V57.6602H117.047V58.6602H118.047ZM121.82 58.6602H122.82V57.6602H121.82V58.6602ZM121.82 68.1289V69.1289H122.82V68.1289H121.82ZM111.074 68.1289H110.074V69.1289H111.074V68.1289ZM111.074 58.6602V57.6602H110.074V58.6602H111.074ZM114.801 58.6602H115.801V57.6602H114.801V58.6602ZM118.047 65.2227V66.2227H119.047V65.2227H118.047ZM118.047 63.6758H119.047V62.6758H118.047V63.6758ZM114.801 63.6758V62.6758H113.801V63.6758H114.801ZM114.801 65.2227H113.801V66.2227H114.801V65.2227ZM127.949 68.5742V69.5742H128.949V68.5742H127.949ZM124.176 68.5742H123.176V69.5742H124.176V68.5742ZM124.176 57.6406V56.6406H123.176V57.6406H124.176ZM127.949 57.6406H128.949V56.6406H127.949V57.6406ZM130.656 64.5781V65.5781H131.656V64.5781H130.656ZM126.426 64.5781H125.426V65.5781H126.426V64.5781ZM126.426 61.5664V60.5664H125.426V61.5664H126.426ZM130.656 61.5664H131.656V60.5664H130.656V61.5664ZM127.949 75.5469V76.5469H128.949V75.5469H127.949ZM116.957 75.5469V74.5469H115.957V75.5469H116.957ZM116.957 77.7148V78.7148H117.957V77.7148H116.957ZM113.254 77.7148H112.254V78.7148H113.254V77.7148ZM113.254 72.9102V71.9102H112.254V72.9102H113.254ZM124.199 72.9102V73.9102H125.199V72.9102H124.199ZM124.199 72.125H125.199V71.125H124.199V72.125ZM113.23 72.125H112.23V73.125H113.23V72.125ZM113.23 69.2539V68.2539H112.23V69.2539H113.23ZM127.949 69.2539H128.949V68.2539H127.949V69.2539ZM128.465 79.2383V80.2383H129.465V79.2383H128.465ZM113.254 79.2383H112.254V80.2383H113.254V79.2383ZM113.254 76.3203V75.3203H112.254V76.3203H113.254ZM128.465 76.3203H129.465V75.3203H128.465V76.3203ZM114.801 61.8867H118.047V59.8867H114.801V61.8867ZM119.047 60.8867V58.6602H117.047V60.8867H119.047ZM118.047 59.6602H121.82V57.6602H118.047V59.6602ZM120.82 58.6602V68.1289H122.82V58.6602H120.82ZM121.82 67.1289H111.074V69.1289H121.82V67.1289ZM112.074 68.1289V58.6602H110.074V68.1289H112.074ZM111.074 59.6602H114.801V57.6602H111.074V59.6602ZM113.801 58.6602V60.8867H115.801V58.6602H113.801ZM119.047 65.2227V63.6758H117.047V65.2227H119.047ZM118.047 62.6758H114.801V64.6758H118.047V62.6758ZM113.801 63.6758V65.2227H115.801V63.6758H113.801ZM114.801 66.2227H118.047V64.2227H114.801V66.2227ZM127.949 67.5742H124.176V69.5742H127.949V67.5742ZM125.176 68.5742V57.6406H123.176V68.5742H125.176ZM124.176 58.6406H127.949V56.6406H124.176V58.6406ZM126.949 57.6406V68.5742H128.949V57.6406H126.949ZM130.656 63.5781H126.426V65.5781H130.656V63.5781ZM127.426 64.5781V61.5664H125.426V64.5781H127.426ZM126.426 62.5664H130.656V60.5664H126.426V62.5664ZM129.656 61.5664V64.5781H131.656V61.5664H129.656ZM127.949 74.5469H116.957V76.5469H127.949V74.5469ZM115.957 75.5469V77.7148H117.957V75.5469H115.957ZM116.957 76.7148H113.254V78.7148H116.957V76.7148ZM114.254 77.7148V72.9102H112.254V77.7148H114.254ZM113.254 73.9102H124.199V71.9102H113.254V73.9102ZM125.199 72.9102V72.125H123.199V72.9102H125.199ZM124.199 71.125H113.23V73.125H124.199V71.125ZM114.23 72.125V69.2539H112.23V72.125H114.23ZM113.23 70.2539H127.949V68.2539H113.23V70.2539ZM126.949 69.2539V75.5469H128.949V69.2539H126.949ZM128.465 78.2383H113.254V80.2383H128.465V78.2383ZM114.254 79.2383V76.3203H112.254V79.2383H114.254ZM113.254 77.3203H128.465V75.3203H113.254V77.3203ZM127.465 76.3203V79.2383H129.465V76.3203H127.465ZM141.426 59.7266L140.97 60.6165L140.976 60.6195L141.426 59.7266ZM143.617 61.6836L142.773 62.22L142.777 62.2255L143.617 61.6836ZM143.617 67.2969L142.777 66.7549L142.775 66.7569L143.617 67.2969ZM141.426 69.2539L141.876 70.1468L141.882 70.1438L141.426 69.2539ZM135.215 69.2539L134.759 70.1438L134.768 70.1483L135.215 69.2539ZM133 67.2969L132.16 67.8389L132.166 67.8479L133 67.2969ZM133 61.6836L132.163 61.1361L132.16 61.1416L133 61.6836ZM135.215 59.7266L135.665 60.6195L135.668 60.618L135.215 59.7266ZM138.32 62.2461L138.337 61.2462L138.32 61.246L138.303 61.2462L138.32 62.2461ZM136.246 63.2656L135.394 62.7426L135.39 62.7482L136.246 63.2656ZM136.246 65.7266L135.39 66.244L135.397 66.2558L135.405 66.2673L136.246 65.7266ZM138.32 66.7227L138.303 67.7225L138.32 67.7228L138.337 67.7225L138.32 66.7227ZM139.574 66.4648L139.173 65.5487L139.166 65.5518L139.574 66.4648ZM140.453 65.7266L141.294 66.2674L141.3 66.2583L140.453 65.7266ZM140.453 63.2656L139.601 63.7887L139.606 63.7974L140.453 63.2656ZM139.574 62.5039L139.166 63.4169L139.173 63.4201L139.574 62.5039ZM149.828 79.3906V80.3906H150.828V79.3906H149.828ZM146.09 79.3906H145.09V80.3906H146.09V79.3906ZM146.09 57.6406V56.6406H145.09V57.6406H146.09ZM149.828 57.6406H150.828V56.6406H149.828V57.6406ZM131.418 72.1836L131.415 71.1836L130.272 71.1871L130.427 72.3196L131.418 72.1836ZM138.59 72.043L138.628 73.0423L138.631 73.0421L138.59 72.043ZM145 71.5039L145.995 71.404L145.892 70.3777L144.869 70.5125L145 71.5039ZM145.27 74.1875L145.465 75.1683L146.355 74.9911L146.265 74.0876L145.27 74.1875ZM140.746 74.8438L140.836 75.8397L140.841 75.8393L140.746 74.8438ZM136.305 75.125L136.333 76.1246L136.338 76.1244L136.305 75.125ZM131.828 75.1719L130.837 75.3079L130.955 76.1676L131.823 76.1719L131.828 75.1719ZM138.32 60.0117C139.317 60.0117 140.194 60.2187 140.97 60.6165L141.882 58.8367C140.798 58.2813 139.605 58.0117 138.32 58.0117V60.0117ZM140.976 60.6195C141.753 61.0114 142.344 61.5441 142.773 62.22L144.461 61.1472C143.828 60.1512 142.958 59.3792 141.876 58.8336L140.976 60.6195ZM142.777 62.2255C143.208 62.8938 143.426 63.6379 143.426 64.4844H145.426C145.426 63.2683 145.105 62.1453 144.458 61.1416L142.777 62.2255ZM143.426 64.4844C143.426 65.3402 143.207 66.088 142.777 66.7549L144.458 67.8388C145.106 66.8339 145.426 65.7066 145.426 64.4844H143.426ZM142.775 66.7569C142.346 67.4271 141.752 67.9628 140.97 68.364L141.882 70.1438C142.959 69.5919 143.826 68.8229 144.459 67.8368L142.775 66.7569ZM140.976 68.361C140.198 68.7528 139.32 68.957 138.32 68.957V70.957C139.602 70.957 140.794 70.6925 141.876 70.1468L140.976 68.361ZM138.32 68.957C137.33 68.957 136.45 68.7533 135.662 68.3595L134.768 70.1483C135.855 70.692 137.045 70.957 138.32 70.957V68.957ZM135.671 68.364C134.886 67.9617 134.281 67.4227 133.834 66.7458L132.166 67.8479C132.812 68.8273 133.684 69.593 134.759 70.1438L135.671 68.364ZM133.84 66.7549C133.41 66.088 133.191 65.3402 133.191 64.4844H131.191C131.191 65.7066 131.512 66.8339 132.16 67.8388L133.84 66.7549ZM133.191 64.4844C133.191 63.6379 133.41 62.8938 133.84 62.2255L132.16 61.1416C131.512 62.1453 131.191 63.2683 131.191 64.4844H133.191ZM133.837 62.2311C134.283 61.5486 134.885 61.0126 135.665 60.6195L134.765 58.8336C133.685 59.3781 132.81 60.1467 132.163 61.1361L133.837 62.2311ZM135.668 60.618C136.454 60.2182 137.333 60.0117 138.32 60.0117V58.0117C137.042 58.0117 135.85 58.2818 134.762 58.8351L135.668 60.618ZM138.303 61.2462C137.733 61.2561 137.188 61.3653 136.686 61.5942L137.517 63.4136C137.734 63.3144 138.002 63.2517 138.338 63.2459L138.303 61.2462ZM136.686 61.5942C136.142 61.8427 135.706 62.2332 135.394 62.7426L137.098 63.7886C137.208 63.6106 137.342 63.4933 137.517 63.4136L136.686 61.5942ZM135.39 62.7482C135.075 63.2706 134.941 63.8645 134.941 64.4844H136.941C136.941 64.1511 137.011 63.9325 137.102 63.783L135.39 62.7482ZM134.941 64.4844C134.941 65.1131 135.072 65.7169 135.39 66.244L137.102 65.2091C137.014 65.0644 136.941 64.84 136.941 64.4844H134.941ZM135.405 66.2673C135.721 66.7589 136.155 67.1319 136.686 67.3745L137.517 65.5552C137.33 65.4696 137.193 65.3505 137.087 65.1858L135.405 66.2673ZM136.686 67.3745C137.188 67.6035 137.733 67.7127 138.303 67.7225L138.338 65.7228C138.002 65.717 137.734 65.6543 137.517 65.5552L136.686 67.3745ZM138.337 67.7225C138.919 67.7128 139.473 67.6053 139.982 67.3779L139.166 65.5518C138.941 65.6525 138.66 65.7169 138.304 65.7228L138.337 67.7225ZM139.975 67.381C140.521 67.142 140.971 66.7697 141.294 66.2673L139.612 65.1858C139.513 65.3397 139.377 65.4595 139.173 65.5487L139.975 67.381ZM141.3 66.2583C141.633 65.7287 141.77 65.1195 141.77 64.4844H139.77C139.77 64.8336 139.696 65.0526 139.606 65.1948L141.3 66.2583ZM141.77 64.4844C141.77 63.8579 141.63 63.2586 141.3 62.7339L139.606 63.7974C139.699 63.9445 139.77 64.1577 139.77 64.4844H141.77ZM141.305 62.7426C140.986 62.222 140.534 61.8324 139.975 61.5877L139.173 63.4201C139.364 63.5036 139.498 63.6217 139.601 63.7886L141.305 62.7426ZM139.982 61.5909C139.473 61.3634 138.919 61.2559 138.337 61.2462L138.304 63.246C138.66 63.2519 138.941 63.3163 139.166 63.4169L139.982 61.5909ZM149.828 78.3906H146.09V80.3906H149.828V78.3906ZM147.09 79.3906V57.6406H145.09V79.3906H147.09ZM146.09 58.6406H149.828V56.6406H146.09V58.6406ZM148.828 57.6406V79.3906H150.828V57.6406H148.828ZM131.421 73.1836C133.955 73.1757 136.357 73.1287 138.628 73.0422L138.552 71.0437C136.307 71.1291 133.928 71.1758 131.415 71.1836L131.421 73.1836ZM138.631 73.0421C140.916 72.9473 143.082 72.7653 145.131 72.4953L144.869 70.5125C142.886 70.7738 140.78 70.9512 138.548 71.0438L138.631 73.0421ZM144.005 71.6038L144.275 74.2874L146.265 74.0876L145.995 71.404L144.005 71.6038ZM145.074 73.2067C143.656 73.4888 142.182 73.7028 140.652 73.8482L140.841 75.8393C142.435 75.6878 143.976 75.4643 145.465 75.1683L145.074 73.2067ZM140.656 73.8478C139.11 73.9869 137.649 74.0794 136.271 74.1256L136.338 76.1244C137.757 76.0769 139.257 75.9818 140.836 75.8397L140.656 73.8478ZM136.277 74.1254C134.891 74.1641 133.409 74.1797 131.833 74.1719L131.823 76.1719C133.419 76.1797 134.922 76.164 136.333 76.1246L136.277 74.1254ZM132.819 75.0359L132.409 72.0476L130.427 72.3196L130.837 75.3079L132.819 75.0359Z" fill="black" mask="url(#path-2-outside-1_839_50)"/>
<path d="M45.8379 136.934H34.4512V134.707H45.8379V136.934ZM48.8555 143.047H32.4785V140.811H48.8555V143.047ZM42.0391 146.045H39.2168V142.393H42.0391V146.045ZM46.9805 136.152C46.9805 137.227 46.9479 138.187 46.8828 139.033C46.8242 139.873 46.6745 140.817 46.4336 141.865L43.6406 141.582C43.7969 140.898 43.9108 140.254 43.9824 139.648C44.0605 139.036 44.1094 138.493 44.1289 138.018C44.1549 137.542 44.1712 136.973 44.1777 136.309V136.152V134.707H46.9805V136.152ZM46.9707 151.865H44.1387V147.568H34.0898V145.371H46.9707V151.865ZM59.5098 144.082H50.6523V135.342H59.5098V144.082ZM53.416 141.885H56.7168V137.568H53.416V141.885ZM64.8125 146.67H61.9902V133.975H64.8125V146.67ZM65.2715 151.543H52.6738V149.297H65.2715V151.543ZM55.5254 150.332H52.6738V145.508H55.5254V150.332ZM75.2129 134.189C76.5996 134.189 77.7845 134.307 78.7676 134.541C79.7507 134.775 80.4961 135.12 81.0039 135.576C81.5182 136.025 81.7754 136.576 81.7754 137.227C81.7754 137.884 81.5182 138.441 81.0039 138.896C80.4961 139.352 79.7507 139.697 78.7676 139.932C77.7845 140.166 76.5996 140.283 75.2129 140.283C73.8197 140.283 72.6315 140.166 71.6484 139.932C70.6654 139.697 69.9134 139.352 69.3926 138.896C68.8783 138.441 68.6211 137.884 68.6211 137.227C68.6211 136.576 68.8783 136.025 69.3926 135.576C69.9134 135.12 70.6654 134.775 71.6484 134.541C72.6315 134.307 73.8197 134.189 75.2129 134.189ZM75.2129 136.23C74.3665 136.23 73.6764 136.266 73.1426 136.338C72.6087 136.41 72.2116 136.52 71.9512 136.67C71.6973 136.82 71.5736 137.005 71.5801 137.227C71.5736 137.474 71.694 137.673 71.9414 137.822C72.1953 137.965 72.5794 138.07 73.0938 138.135C73.6146 138.193 74.321 138.226 75.2129 138.232C76.1048 138.226 76.8112 138.193 77.332 138.135C77.8594 138.07 78.2467 137.965 78.4941 137.822C78.7415 137.673 78.8652 137.474 78.8652 137.227C78.8652 137.005 78.7383 136.82 78.4844 136.67C78.2305 136.52 77.8333 136.41 77.293 136.338C76.7526 136.266 76.0592 136.23 75.2129 136.23ZM83.3867 143.242H67.0488V141.016H83.3867V143.242ZM81.4336 148.848H71.668V150.283H68.9043V146.904H78.6406V146.133H68.9043V144.092H81.4336V148.848ZM81.873 151.768H68.9043V149.678H81.873V151.768ZM104.354 151.865H101.707V133.936H104.354V151.865ZM102.332 143.008H99.4512V140.781H102.332V143.008ZM100.271 151.025H97.7031V134.229H100.271V151.025ZM90.5547 145.596C91.8242 145.596 92.9212 145.57 93.8457 145.518C94.7767 145.465 95.737 145.352 96.7266 145.176L96.9219 147.441C95.9258 147.63 94.9492 147.757 93.9922 147.822C93.0352 147.887 91.8893 147.923 90.5547 147.93H89.2656V145.596H90.5547ZM95.9453 138.232H92.0879V146.748H89.2656V135.996H95.9453V138.232ZM121.16 147.031H118.338V133.975H121.16V147.031ZM121.619 151.592H109.021V149.336H121.619V151.592ZM111.873 150.547H109.021V145.742H111.873V150.547ZM112.537 136.66C112.531 137.884 112.345 139.027 111.98 140.088C111.622 141.143 111.056 142.07 110.281 142.871C109.513 143.672 108.553 144.258 107.4 144.629L105.955 142.422C106.945 142.096 107.755 141.634 108.387 141.035C109.025 140.43 109.484 139.756 109.764 139.014C110.05 138.265 110.197 137.48 110.203 136.66V134.951H112.537V136.66ZM113.133 136.66C113.126 137.454 113.257 138.206 113.523 138.916C113.797 139.626 114.24 140.264 114.852 140.83C115.464 141.39 116.258 141.816 117.234 142.109L115.799 144.336C114.66 143.965 113.715 143.405 112.967 142.656C112.225 141.901 111.674 141.016 111.316 140C110.965 138.978 110.789 137.865 110.789 136.66V134.951H113.133V136.66ZM137.605 151.865H134.832V133.936H137.605V151.865ZM140.145 143.154H136.99V140.859H140.145V143.154ZM133.777 138.799H123.299V136.553H133.777V138.799ZM128.572 139.639C129.438 139.639 130.226 139.824 130.936 140.195C131.645 140.56 132.202 141.074 132.605 141.738C133.009 142.396 133.211 143.138 133.211 143.965C133.211 144.798 133.009 145.544 132.605 146.201C132.202 146.852 131.645 147.363 130.936 147.734C130.226 148.099 129.438 148.281 128.572 148.281C127.687 148.281 126.889 148.099 126.18 147.734C125.477 147.363 124.926 146.852 124.529 146.201C124.132 145.544 123.934 144.798 123.934 143.965C123.934 143.138 124.132 142.396 124.529 141.738C124.926 141.074 125.477 140.56 126.18 140.195C126.889 139.824 127.687 139.639 128.572 139.639ZM128.572 141.914C128.188 141.921 127.85 142.005 127.557 142.168C127.264 142.324 127.033 142.559 126.863 142.871C126.701 143.177 126.619 143.542 126.619 143.965C126.619 144.395 126.701 144.762 126.863 145.068C127.033 145.374 127.264 145.605 127.557 145.762C127.85 145.918 128.188 145.999 128.572 146.006C128.95 145.999 129.285 145.918 129.578 145.762C129.871 145.605 130.099 145.374 130.262 145.068C130.424 144.762 130.506 144.395 130.506 143.965C130.506 143.542 130.424 143.177 130.262 142.871C130.099 142.559 129.868 142.324 129.568 142.168C129.275 142.005 128.943 141.921 128.572 141.914ZM129.979 137.373H127.166V134.238H129.979V137.373ZM153.533 139.775H148.709V137.529H153.533V139.775ZM153.533 145.283H148.709V143.037H153.533V145.283ZM145.652 135.166C146.551 135.166 147.355 135.43 148.064 135.957C148.781 136.478 149.337 137.227 149.734 138.203C150.138 139.173 150.34 140.303 150.34 141.592C150.34 142.894 150.138 144.033 149.734 145.01C149.337 145.98 148.781 146.729 148.064 147.256C147.355 147.777 146.551 148.037 145.652 148.037C144.734 148.037 143.921 147.777 143.211 147.256C142.501 146.729 141.945 145.98 141.541 145.01C141.137 144.033 140.936 142.894 140.936 141.592C140.936 140.303 141.137 139.173 141.541 138.203C141.945 137.227 142.501 136.478 143.211 135.957C143.921 135.43 144.734 135.166 145.652 135.166ZM145.652 137.715C145.242 137.708 144.887 137.855 144.588 138.154C144.295 138.447 144.061 138.883 143.885 139.463C143.715 140.042 143.634 140.752 143.641 141.592C143.634 142.438 143.715 143.154 143.885 143.74C144.061 144.32 144.295 144.756 144.588 145.049C144.887 145.342 145.242 145.485 145.652 145.479C146.062 145.485 146.421 145.342 146.727 145.049C147.033 144.756 147.264 144.32 147.42 143.74C147.583 143.161 147.664 142.445 147.664 141.592C147.664 140.752 147.583 140.039 147.42 139.453C147.264 138.867 147.033 138.431 146.727 138.145C146.421 137.852 146.062 137.708 145.652 137.715ZM155.877 151.914H153.084V133.936H155.877V151.914ZM85.4277 208.934H74.041V206.707H85.4277V208.934ZM88.4453 215.047H72.0684V212.811H88.4453V215.047ZM81.6289 218.045H78.8066V214.393H81.6289V218.045ZM86.5703 208.152C86.5703 209.227 86.5378 210.187 86.4727 211.033C86.4141 211.873 86.2643 212.817 86.0234 213.865L83.2305 213.582C83.3867 212.898 83.5007 212.254 83.5723 211.648C83.6504 211.036 83.6992 210.493 83.7188 210.018C83.7448 209.542 83.7611 208.973 83.7676 208.309V208.152V206.707H86.5703V208.152ZM86.5605 223.865H83.7285V219.568H73.6797V217.371H86.5605V223.865ZM99.0996 216.082H90.2422V207.342H99.0996V216.082ZM93.0059 213.885H96.3066V209.568H93.0059V213.885ZM104.402 218.67H101.58V205.975H104.402V218.67ZM104.861 223.543H92.2637V221.297H104.861V223.543ZM95.1152 222.332H92.2637V217.508H95.1152V222.332ZM112.41 207.107C113.348 207.107 114.197 207.299 114.959 207.684C115.727 208.068 116.329 208.602 116.766 209.285C117.202 209.962 117.42 210.724 117.42 211.57C117.42 212.423 117.202 213.188 116.766 213.865C116.329 214.542 115.727 215.073 114.959 215.457C114.197 215.841 113.348 216.033 112.41 216.033C111.479 216.033 110.63 215.841 109.861 215.457C109.093 215.073 108.488 214.542 108.045 213.865C107.609 213.188 107.391 212.423 107.391 211.57C107.391 210.724 107.609 209.962 108.045 209.285C108.488 208.602 109.093 208.068 109.861 207.684C110.63 207.299 111.479 207.107 112.41 207.107ZM112.41 209.529C111.987 209.536 111.606 209.617 111.268 209.773C110.936 209.93 110.672 210.164 110.477 210.477C110.288 210.783 110.193 211.147 110.193 211.57C110.193 212.007 110.288 212.378 110.477 212.684C110.672 212.983 110.936 213.211 111.268 213.367C111.606 213.523 111.987 213.605 112.41 213.611C112.846 213.605 113.237 213.523 113.582 213.367C113.927 213.211 114.194 212.983 114.383 212.684C114.578 212.378 114.676 212.007 114.676 211.57C114.676 211.147 114.578 210.783 114.383 210.477C114.194 210.164 113.927 209.93 113.582 209.773C113.237 209.617 112.846 209.536 112.41 209.529ZM121.795 223.914H119.002V205.936H121.795V223.914ZM106.697 218.084C108.813 218.084 110.812 218.048 112.693 217.977C114.575 217.898 116.359 217.745 118.045 217.518L118.25 219.529C117.033 219.77 115.77 219.949 114.461 220.066C113.159 220.184 111.925 220.262 110.76 220.301C109.601 220.333 108.351 220.346 107.01 220.34L106.697 218.084ZM46.6875 247.914H43.8652V229.936H46.6875V247.914ZM49.2266 238.754H46.0723V236.459H49.2266V238.754ZM34.6953 241.303C36.2773 241.309 37.6934 241.273 38.9434 241.195C40.1934 241.111 41.4499 240.961 42.7129 240.746L43.0156 243.09C41.7331 243.305 40.457 243.448 39.1875 243.52C37.9245 243.585 36.4271 243.614 34.6953 243.607H33.1523V241.303H34.6953ZM41.5703 233.852H35.9648V242.455H33.1523V231.576H41.5703V233.852ZM66.2578 234.32H63.1621V232.025H66.2578V234.32ZM66.2578 238.246H63.1621V235.941H66.2578V238.246ZM54.7832 230.902C55.7012 230.902 56.5378 231.088 57.293 231.459C58.0547 231.824 58.6504 232.344 59.0801 233.021C59.5163 233.692 59.7344 234.444 59.7344 235.277C59.7344 236.111 59.5163 236.859 59.0801 237.523C58.6504 238.188 58.0547 238.712 57.293 239.096C56.5378 239.473 55.7012 239.662 54.7832 239.662C53.8522 239.662 53.0059 239.473 52.2441 239.096C51.4889 238.712 50.8932 238.188 50.457 237.523C50.0208 236.859 49.8027 236.111 49.8027 235.277C49.8027 234.444 50.0208 233.692 50.457 233.021C50.8932 232.344 51.4889 231.824 52.2441 231.459C53.0059 231.088 53.8522 230.902 54.7832 230.902ZM54.7832 233.256C54.3535 233.249 53.9694 233.327 53.6309 233.49C53.2988 233.653 53.0352 233.891 52.8398 234.203C52.651 234.509 52.5566 234.867 52.5566 235.277C52.5566 235.701 52.651 236.065 52.8398 236.371C53.0352 236.671 53.2988 236.898 53.6309 237.055C53.9694 237.211 54.3535 237.289 54.7832 237.289C55.1999 237.289 55.5775 237.211 55.916 237.055C56.2546 236.898 56.5182 236.671 56.707 236.371C56.8958 236.065 56.9902 235.701 56.9902 235.277C56.9902 234.867 56.8958 234.509 56.707 234.203C56.5182 233.891 56.2546 233.653 55.916 233.49C55.5775 233.327 55.1999 233.249 54.7832 233.256ZM64.0312 240.365H61.209V229.936H64.0312V240.365ZM58.1133 240.678C59.3438 240.678 60.418 240.824 61.3359 241.117C62.2604 241.404 62.9701 241.817 63.4648 242.357C63.9596 242.898 64.207 243.542 64.207 244.291C64.207 245.033 63.9596 245.671 63.4648 246.205C62.9701 246.745 62.2604 247.159 61.3359 247.445C60.418 247.738 59.3438 247.885 58.1133 247.885C56.8633 247.885 55.7695 247.738 54.832 247.445C53.901 247.159 53.1816 246.745 52.6738 246.205C52.166 245.671 51.9121 245.033 51.9121 244.291C51.9121 243.542 52.166 242.898 52.6738 242.357C53.1816 241.817 53.901 241.404 54.832 241.117C55.7695 240.824 56.8633 240.678 58.1133 240.678ZM58.1133 242.885C57.3646 242.891 56.7396 242.943 56.2383 243.041C55.7435 243.139 55.3691 243.292 55.1152 243.5C54.8613 243.708 54.7344 243.972 54.7344 244.291C54.7344 244.61 54.8581 244.87 55.1055 245.072C55.3594 245.268 55.7337 245.417 56.2285 245.521C56.7233 245.619 57.3516 245.668 58.1133 245.668C58.8555 245.668 59.4707 245.619 59.959 245.521C60.4538 245.417 60.8216 245.268 61.0625 245.072C61.3034 244.87 61.4238 244.61 61.4238 244.291C61.4238 243.972 61.3001 243.708 61.0527 243.5C60.8118 243.292 60.4473 243.139 59.959 243.041C59.4707 242.943 58.8555 242.891 58.1133 242.885ZM81.3164 243.334H78.4941V229.975H81.3164V243.334ZM83.6406 237.621H80.5254V235.326H83.6406V237.621ZM77.6348 233.939H67.0195V231.752H77.6348V233.939ZM72.3418 234.457C73.2012 234.457 73.9694 234.607 74.6465 234.906C75.3236 235.199 75.8477 235.613 76.2188 236.146C76.5964 236.68 76.7852 237.292 76.7852 237.982C76.7852 238.66 76.5964 239.258 76.2188 239.779C75.8477 240.3 75.3236 240.707 74.6465 241C73.9694 241.286 73.2012 241.43 72.3418 241.43C71.4759 241.43 70.7012 241.286 70.0176 241C69.3405 240.707 68.8099 240.3 68.4258 239.779C68.0417 239.258 67.8496 238.66 67.8496 237.982C67.8496 237.292 68.0417 236.68 68.4258 236.146C68.8099 235.613 69.3405 235.199 70.0176 234.906C70.7012 234.607 71.4759 234.457 72.3418 234.457ZM72.3418 236.615C71.9902 236.615 71.681 236.664 71.4141 236.762C71.1536 236.859 70.9518 237.012 70.8086 237.221C70.6719 237.429 70.6035 237.683 70.6035 237.982C70.6035 238.269 70.6719 238.513 70.8086 238.715C70.9518 238.91 71.1536 239.06 71.4141 239.164C71.681 239.262 71.9902 239.311 72.3418 239.311C72.6934 239.311 73.0026 239.262 73.2695 239.164C73.5365 239.06 73.7448 238.91 73.8945 238.715C74.0443 238.513 74.1191 238.269 74.1191 237.982C74.1191 237.683 74.0443 237.429 73.8945 237.221C73.7448 237.012 73.5365 236.859 73.2695 236.762C73.0026 236.664 72.6934 236.615 72.3418 236.615ZM73.748 232.816H70.9258V229.945H73.748V232.816ZM81.9023 247.592H69.5586V245.336H81.9023V247.592ZM72.3809 246.303H69.5586V242.318H72.3809V246.303ZM94.5977 231.107C95.5352 231.107 96.3848 231.299 97.1465 231.684C97.9147 232.068 98.5169 232.602 98.9531 233.285C99.3893 233.962 99.6074 234.724 99.6074 235.57C99.6074 236.423 99.3893 237.188 98.9531 237.865C98.5169 238.542 97.9147 239.073 97.1465 239.457C96.3848 239.841 95.5352 240.033 94.5977 240.033C93.6667 240.033 92.8171 239.841 92.0488 239.457C91.2806 239.073 90.6751 238.542 90.2324 237.865C89.7962 237.188 89.5781 236.423 89.5781 235.57C89.5781 234.724 89.7962 233.962 90.2324 233.285C90.6751 232.602 91.2806 232.068 92.0488 231.684C92.8171 231.299 93.6667 231.107 94.5977 231.107ZM94.5977 233.529C94.1745 233.536 93.7936 233.617 93.4551 233.773C93.123 233.93 92.8594 234.164 92.6641 234.477C92.4753 234.783 92.3809 235.147 92.3809 235.57C92.3809 236.007 92.4753 236.378 92.6641 236.684C92.8594 236.983 93.123 237.211 93.4551 237.367C93.7936 237.523 94.1745 237.605 94.5977 237.611C95.0339 237.605 95.4245 237.523 95.7695 237.367C96.1146 237.211 96.3815 236.983 96.5703 236.684C96.7656 236.378 96.8633 236.007 96.8633 235.57C96.8633 235.147 96.7656 234.783 96.5703 234.477C96.3815 234.164 96.1146 233.93 95.7695 233.773C95.4245 233.617 95.0339 233.536 94.5977 233.529ZM103.982 247.914H101.189V229.936H103.982V247.914ZM88.8848 242.084C91.0007 242.084 92.9993 242.048 94.8809 241.977C96.7624 241.898 98.5462 241.745 100.232 241.518L100.438 243.529C99.2201 243.77 97.957 243.949 96.6484 244.066C95.3464 244.184 94.1126 244.262 92.9473 244.301C91.7884 244.333 90.5384 244.346 89.1973 244.34L88.8848 242.084ZM121.258 243.129H118.484V229.975H121.258V243.129ZM115.789 231.293C115.789 232.908 115.467 234.376 114.822 235.697C114.178 237.019 113.234 238.155 111.99 239.105C110.747 240.056 109.246 240.792 107.488 241.312L106.316 239.125C107.697 238.695 108.875 238.155 109.852 237.504C110.828 236.846 111.567 236.101 112.068 235.268C112.57 234.428 112.82 233.533 112.82 232.582V231.293H115.789ZM114.559 233.529H107.293V231.293H114.559V233.529ZM118.865 235.58H114.773V233.344H118.865V235.58ZM118.699 239.594H114.607V237.348H118.699V239.594ZM121.736 247.592H109.324V245.336H121.736V247.592ZM112.186 246.771H109.324V241.811H112.186V246.771ZM131.561 230.189C132.947 230.189 134.132 230.307 135.115 230.541C136.098 230.775 136.844 231.12 137.352 231.576C137.866 232.025 138.123 232.576 138.123 233.227C138.123 233.884 137.866 234.441 137.352 234.896C136.844 235.352 136.098 235.697 135.115 235.932C134.132 236.166 132.947 236.283 131.561 236.283C130.167 236.283 128.979 236.166 127.996 235.932C127.013 235.697 126.261 235.352 125.74 234.896C125.226 234.441 124.969 233.884 124.969 233.227C124.969 232.576 125.226 232.025 125.74 231.576C126.261 231.12 127.013 230.775 127.996 230.541C128.979 230.307 130.167 230.189 131.561 230.189ZM131.561 232.23C130.714 232.23 130.024 232.266 129.49 232.338C128.956 232.41 128.559 232.52 128.299 232.67C128.045 232.82 127.921 233.005 127.928 233.227C127.921 233.474 128.042 233.673 128.289 233.822C128.543 233.965 128.927 234.07 129.441 234.135C129.962 234.193 130.669 234.226 131.561 234.232C132.452 234.226 133.159 234.193 133.68 234.135C134.207 234.07 134.594 233.965 134.842 233.822C135.089 233.673 135.213 233.474 135.213 233.227C135.213 233.005 135.086 232.82 134.832 232.67C134.578 232.52 134.181 232.41 133.641 232.338C133.1 232.266 132.407 232.23 131.561 232.23ZM139.734 239.242H123.396V237.016H139.734V239.242ZM137.781 244.848H128.016V246.283H125.252V242.904H134.988V242.133H125.252V240.092H137.781V244.848ZM138.221 247.768H125.252V245.678H138.221V247.768ZM46.7461 267.188H43.9238V253.975H46.7461V267.188ZM49.0703 261.191H45.9551V258.906H49.0703V261.191ZM47.332 271.592H34.9883V269.336H47.332V271.592ZM37.8105 269.814H34.9883V265.801H37.8105V269.814ZM35.7109 257.695H38.8848V255.234H41.707V264.375H32.9277V255.234H35.7109V257.695ZM38.8848 262.178V259.834H35.7109V262.178H38.8848ZM62.9863 258.457H57.7031V256.24H62.9863V258.457ZM62.9863 262.402H57.7031V260.176H62.9863V262.402ZM54.7734 254.873C55.6589 254.873 56.4661 255.065 57.1953 255.449C57.9245 255.827 58.4974 256.354 58.9141 257.031C59.3307 257.708 59.5423 258.467 59.5488 259.307C59.5423 260.146 59.3307 260.902 58.9141 261.572C58.4974 262.243 57.9212 262.77 57.1855 263.154C56.4564 263.538 55.6523 263.73 54.7734 263.73C53.875 263.73 53.0579 263.538 52.3223 263.154C51.5931 262.77 51.0169 262.243 50.5938 261.572C50.1706 260.902 49.9622 260.146 49.9688 259.307C49.9622 258.467 50.1706 257.708 50.5938 257.031C51.0169 256.354 51.5931 255.827 52.3223 255.449C53.0579 255.065 53.875 254.873 54.7734 254.873ZM54.7734 257.275C54.3503 257.275 53.9759 257.354 53.6504 257.51C53.3314 257.66 53.0807 257.891 52.8984 258.203C52.7161 258.509 52.625 258.877 52.625 259.307C52.625 259.73 52.7161 260.094 52.8984 260.4C53.0807 260.706 53.3314 260.944 53.6504 261.113C53.9759 261.276 54.3503 261.357 54.7734 261.357C55.1771 261.357 55.5384 261.276 55.8574 261.113C56.1764 260.944 56.4238 260.706 56.5996 260.4C56.7754 260.088 56.8633 259.723 56.8633 259.307C56.8633 258.877 56.7754 258.509 56.5996 258.203C56.4238 257.891 56.1764 257.66 55.8574 257.51C55.5449 257.354 55.1836 257.275 54.7734 257.275ZM64.9297 264.404H62.1367V253.936H64.9297V264.404ZM58.7578 264.756C60.0208 264.756 61.1211 264.896 62.0586 265.176C62.9961 265.456 63.7155 265.866 64.2168 266.406C64.7246 266.94 64.9818 267.581 64.9883 268.33C64.9818 269.066 64.7246 269.697 64.2168 270.225C63.7155 270.758 62.9961 271.169 62.0586 271.455C61.1211 271.742 60.0208 271.885 58.7578 271.885C57.4883 271.885 56.388 271.742 55.457 271.455C54.526 271.169 53.8066 270.758 53.2988 270.225C52.7975 269.697 52.5469 269.066 52.5469 268.33C52.5469 267.581 52.7975 266.94 53.2988 266.406C53.8066 265.866 54.526 265.456 55.457 265.176C56.388 264.896 57.4883 264.756 58.7578 264.756ZM58.7578 266.895C57.9896 266.901 57.3483 266.956 56.834 267.061C56.3262 267.158 55.9421 267.314 55.6816 267.529C55.4277 267.738 55.304 268.005 55.3105 268.33C55.304 268.636 55.431 268.893 55.6914 269.102C55.9518 269.303 56.3359 269.456 56.8438 269.561C57.3516 269.658 57.9896 269.707 58.7578 269.707C59.5326 269.707 60.1771 269.658 60.6914 269.561C61.2057 269.456 61.5898 269.303 61.8438 269.102C62.1042 268.893 62.2344 268.636 62.2344 268.33C62.2344 268.005 62.1042 267.738 61.8438 267.529C61.5898 267.314 61.2057 267.158 60.6914 267.061C60.1771 266.956 59.5326 266.901 58.7578 266.895Z" fill="#464646"/>
<path d="M35.1055 161.812H39.9492V159.117H41.4531V167.066H33.582V159.117H35.1055V161.812ZM39.9492 165.816V163.023H35.1055V165.816H39.9492ZM46.0234 163.785H41.0234V162.496H46.0234V163.785ZM47.0977 167.711H45.5547V158.219H47.0977V167.711ZM37.4492 170.68H45.5547V168.551H47.0781V175.348H35.9062V168.551H37.4492V170.68ZM45.5547 174.078V171.91H37.4492V174.078H45.5547ZM57.8984 158.531C59.181 158.531 60.2812 158.645 61.1992 158.873C62.1237 159.101 62.8268 159.439 63.3086 159.889C63.7904 160.338 64.0312 160.882 64.0312 161.52C64.0312 162.171 63.7904 162.724 63.3086 163.18C62.8268 163.635 62.127 163.98 61.209 164.215C60.291 164.443 59.1875 164.56 57.8984 164.566C56.6029 164.56 55.4961 164.443 54.5781 164.215C53.6667 163.98 52.9668 163.635 52.4785 163.18C51.9902 162.724 51.7461 162.171 51.7461 161.52C51.7461 160.882 51.9902 160.338 52.4785 159.889C52.9668 159.439 53.6699 159.101 54.5879 158.873C55.5059 158.645 56.6094 158.531 57.8984 158.531ZM57.8984 159.684C56.9414 159.684 56.1211 159.758 55.4375 159.908C54.7604 160.058 54.2396 160.27 53.875 160.543C53.5169 160.816 53.3411 161.142 53.3477 161.52C53.3411 161.917 53.5169 162.258 53.875 162.545C54.2396 162.825 54.7604 163.036 55.4375 163.18C56.1211 163.323 56.9414 163.395 57.8984 163.395C58.8555 163.395 59.6758 163.323 60.3594 163.18C61.0495 163.036 61.5736 162.825 61.9316 162.545C62.2897 162.265 62.4688 161.923 62.4688 161.52C62.4688 161.142 62.2897 160.816 61.9316 160.543C61.5736 160.27 61.0495 160.058 60.3594 159.908C59.6693 159.758 58.849 159.684 57.8984 159.684ZM65.8086 166.988H49.9883V165.738H65.8086V166.988ZM63.7773 172.379H53.4648V174.488H51.9414V171.246H62.2734V169.664H51.9023V168.492H63.7773V172.379ZM64.3047 175.387H51.9414V174.176H64.3047V175.387ZM81.0625 167.789H73.0352V159.801H81.0625V167.789ZM74.5391 166.559H79.5781V161.051H74.5391V166.559ZM85.8672 170.953H84.3438V158.219H85.8672V170.953ZM88.4844 164.801H85.3789V163.512H88.4844V164.801ZM86.668 175.211H75.0078V173.922H86.668V175.211ZM76.5117 174.449H75.0078V169.742H76.5117V174.449ZM105.418 166.754H89.5781V165.523H105.418V166.754ZM103.523 164.098H91.6875V162.848H103.523V164.098ZM103.348 160.055H93.2305V163.824H91.6875V158.824H103.348V160.055ZM103.367 172.34H93.0547V174.566H91.5312V171.188H101.863V169.508H91.4922V168.316H103.367V172.34ZM103.895 175.387H91.5312V174.137H103.895V175.387ZM121.219 175.582H119.676V158.219H121.219V175.582ZM116.082 160.113C116.076 161.832 115.789 163.44 115.223 164.938C114.663 166.435 113.777 167.815 112.566 169.078C111.355 170.335 109.806 171.415 107.918 172.32L107.078 171.07C108.751 170.276 110.141 169.339 111.248 168.258C112.361 167.177 113.188 165.979 113.729 164.664C114.275 163.342 114.552 161.904 114.559 160.348V160.113H116.082ZM115.184 161.363H107.879V160.113H115.184V161.363ZM134.891 159.078C135.75 159.072 136.518 159.218 137.195 159.518C137.872 159.811 138.4 160.227 138.777 160.768C139.155 161.301 139.344 161.917 139.344 162.613C139.344 163.31 139.155 163.928 138.777 164.469C138.4 165.003 137.872 165.419 137.195 165.719C136.518 166.018 135.75 166.168 134.891 166.168C134.031 166.168 133.266 166.018 132.596 165.719C131.925 165.419 131.398 165.003 131.014 164.469C130.63 163.928 130.438 163.31 130.438 162.613C130.438 161.917 130.63 161.301 131.014 160.768C131.398 160.227 131.925 159.811 132.596 159.518C133.266 159.218 134.031 159.072 134.891 159.078ZM134.891 160.328C134.324 160.322 133.813 160.416 133.357 160.611C132.908 160.8 132.557 161.07 132.303 161.422C132.055 161.773 131.935 162.171 131.941 162.613C131.935 163.056 132.055 163.45 132.303 163.795C132.557 164.14 132.908 164.41 133.357 164.605C133.807 164.801 134.318 164.898 134.891 164.898C135.47 164.898 135.984 164.801 136.434 164.605C136.889 164.41 137.244 164.143 137.498 163.805C137.752 163.46 137.879 163.062 137.879 162.613C137.879 162.171 137.752 161.773 137.498 161.422C137.244 161.07 136.889 160.8 136.434 160.611C135.978 160.416 135.464 160.322 134.891 160.328ZM135.75 175.055H134.227V168.121H135.75V175.055ZM143.484 175.602H141.98V158.238H143.484V175.602ZM129.129 167.652C131.206 167.659 133.224 167.62 135.184 167.535C137.143 167.451 138.986 167.281 140.711 167.027L140.809 168.18C139.656 168.395 138.458 168.557 137.215 168.668C135.978 168.772 134.786 168.847 133.641 168.893C132.501 168.932 131.277 168.954 129.969 168.961C129.826 168.961 129.718 168.961 129.646 168.961C129.581 168.961 129.48 168.961 129.344 168.961L129.129 167.652ZM155.125 162.477H146.414V161.227H155.125V162.477ZM150.77 163.648C151.492 163.648 152.137 163.818 152.703 164.156C153.276 164.495 153.722 164.964 154.041 165.562C154.367 166.155 154.533 166.832 154.539 167.594C154.533 168.362 154.367 169.046 154.041 169.645C153.722 170.243 153.276 170.715 152.703 171.061C152.137 171.406 151.492 171.578 150.77 171.578C150.06 171.578 149.419 171.406 148.846 171.061C148.279 170.715 147.837 170.243 147.518 169.645C147.199 169.046 147.039 168.362 147.039 167.594C147.039 166.839 147.202 166.161 147.527 165.562C147.853 164.964 148.296 164.495 148.855 164.156C149.422 163.818 150.06 163.648 150.77 163.648ZM150.77 164.938C150.314 164.944 149.907 165.064 149.549 165.299C149.191 165.527 148.911 165.842 148.709 166.246C148.507 166.643 148.406 167.092 148.406 167.594C148.406 168.102 148.507 168.554 148.709 168.951C148.911 169.348 149.191 169.661 149.549 169.889C149.907 170.117 150.314 170.23 150.77 170.23C151.225 170.23 151.635 170.117 152 169.889C152.365 169.661 152.651 169.348 152.859 168.951C153.068 168.554 153.172 168.102 153.172 167.594C153.172 167.092 153.068 166.643 152.859 166.246C152.651 165.842 152.365 165.527 152 165.299C151.635 165.064 151.225 164.944 150.77 164.938ZM161.238 175.582H159.773V158.219H161.238V175.582ZM160.262 166.812H156.941V165.543H160.262V166.812ZM157.469 174.723H156.023V158.648H157.469V174.723ZM151.551 161.988H150.027V158.746H151.551V161.988ZM35.1055 185.812H39.9492V183.117H41.4531V191.066H33.582V183.117H35.1055V185.812ZM39.9492 189.816V187.023H35.1055V189.816H39.9492ZM46.0234 187.785H41.0234V186.496H46.0234V187.785ZM47.0977 191.711H45.5547V182.219H47.0977V191.711ZM37.4492 194.68H45.5547V192.551H47.0781V199.348H35.9062V192.551H37.4492V194.68ZM45.5547 198.078V195.91H37.4492V198.078H45.5547ZM63.5625 195.031H62.0391V182.219H63.5625V195.031ZM66.1797 188.801H63.0742V187.512H66.1797V188.801ZM64.3633 199.211H52.7031V197.922H64.3633V199.211ZM54.207 198.43H52.7031V193.703H54.207V198.43ZM54.8711 183.449C55.7305 183.449 56.5085 183.632 57.2051 183.996C57.9017 184.361 58.4453 184.868 58.8359 185.52C59.2331 186.164 59.4349 186.9 59.4414 187.727C59.4349 188.553 59.2331 189.292 58.8359 189.943C58.4453 190.588 57.9017 191.092 57.2051 191.457C56.5085 191.822 55.7305 192.004 54.8711 192.004C54.0182 192.004 53.2435 191.822 52.5469 191.457C51.8568 191.092 51.3132 190.585 50.916 189.934C50.5189 189.283 50.3203 188.547 50.3203 187.727C50.3203 186.9 50.5189 186.164 50.916 185.52C51.3132 184.868 51.8568 184.361 52.5469 183.996C53.237 183.632 54.0117 183.449 54.8711 183.449ZM54.8711 184.797C54.3047 184.797 53.7871 184.921 53.3184 185.168C52.8561 185.415 52.4915 185.764 52.2246 186.213C51.9577 186.662 51.8242 187.167 51.8242 187.727C51.8242 188.286 51.9577 188.788 52.2246 189.23C52.4915 189.673 52.8561 190.021 53.3184 190.275C53.7871 190.529 54.3047 190.656 54.8711 190.656C55.4505 190.656 55.9714 190.529 56.4336 190.275C56.9023 190.021 57.2702 189.673 57.5371 189.23C57.804 188.788 57.9375 188.286 57.9375 187.727C57.9375 187.16 57.804 186.656 57.5371 186.213C57.2702 185.764 56.9023 185.415 56.4336 185.168C55.9714 184.921 55.4505 184.797 54.8711 184.797ZM75.1836 182.531C76.4661 182.531 77.5664 182.645 78.4844 182.873C79.4089 183.101 80.112 183.439 80.5938 183.889C81.0755 184.338 81.3164 184.882 81.3164 185.52C81.3164 186.171 81.0755 186.724 80.5938 187.18C80.112 187.635 79.4121 187.98 78.4941 188.215C77.5762 188.443 76.4727 188.56 75.1836 188.566C73.888 188.56 72.7812 188.443 71.8633 188.215C70.9518 187.98 70.252 187.635 69.7637 187.18C69.2754 186.724 69.0312 186.171 69.0312 185.52C69.0312 184.882 69.2754 184.338 69.7637 183.889C70.252 183.439 70.9551 183.101 71.873 182.873C72.791 182.645 73.8945 182.531 75.1836 182.531ZM75.1836 183.684C74.2266 183.684 73.4062 183.758 72.7227 183.908C72.0456 184.058 71.5247 184.27 71.1602 184.543C70.8021 184.816 70.6263 185.142 70.6328 185.52C70.6263 185.917 70.8021 186.258 71.1602 186.545C71.5247 186.825 72.0456 187.036 72.7227 187.18C73.4062 187.323 74.2266 187.395 75.1836 187.395C76.1406 187.395 76.9609 187.323 77.6445 187.18C78.3346 187.036 78.8587 186.825 79.2168 186.545C79.5749 186.265 79.7539 185.923 79.7539 185.52C79.7539 185.142 79.5749 184.816 79.2168 184.543C78.8587 184.27 78.3346 184.058 77.6445 183.908C76.9544 183.758 76.1341 183.684 75.1836 183.684ZM83.0938 190.988H67.2734V189.738H83.0938V190.988ZM81.0625 196.379H70.75V198.488H69.2266V195.246H79.5586V193.664H69.1875V192.492H81.0625V196.379ZM81.5898 199.387H69.2266V198.176H81.5898V199.387ZM104.422 199.582H102.957V182.219H104.422V199.582ZM99.9297 189.738H96.5312V188.488H99.9297V189.738ZM100.906 198.684H99.4609V182.648H100.906V198.684ZM94.4023 187.18C94.3958 188.43 94.2266 189.637 93.8945 190.803C93.569 191.968 93.1003 193.016 92.4883 193.947C91.8828 194.872 91.1667 195.591 90.3398 196.105L89.3633 194.953C90.151 194.484 90.8346 193.84 91.4141 193.02C92 192.199 92.4427 191.285 92.7422 190.275C93.0482 189.266 93.1979 188.234 93.1914 187.18V184.914H94.4023V187.18ZM94.6758 187.18C94.6758 188.189 94.8255 189.172 95.125 190.129C95.4245 191.079 95.8542 191.945 96.4141 192.727C96.974 193.501 97.6445 194.113 98.4258 194.562L97.4883 195.695C96.6549 195.194 95.9421 194.507 95.3496 193.635C94.7572 192.756 94.3014 191.763 93.9824 190.656C93.6699 189.543 93.5169 188.384 93.5234 187.18V184.914H94.6758V187.18ZM97.8594 185.539H89.8516V184.27H97.8594V185.539ZM120.438 195.031H118.914V182.219H120.438V195.031ZM123.055 188.801H119.949V187.512H123.055V188.801ZM121.238 199.211H109.578V197.922H121.238V199.211ZM111.082 198.43H109.578V193.703H111.082V198.43ZM111.746 183.449C112.605 183.449 113.383 183.632 114.08 183.996C114.777 184.361 115.32 184.868 115.711 185.52C116.108 186.164 116.31 186.9 116.316 187.727C116.31 188.553 116.108 189.292 115.711 189.943C115.32 190.588 114.777 191.092 114.08 191.457C113.383 191.822 112.605 192.004 111.746 192.004C110.893 192.004 110.118 191.822 109.422 191.457C108.732 191.092 108.188 190.585 107.791 189.934C107.394 189.283 107.195 188.547 107.195 187.727C107.195 186.9 107.394 186.164 107.791 185.52C108.188 184.868 108.732 184.361 109.422 183.996C110.112 183.632 110.887 183.449 111.746 183.449ZM111.746 184.797C111.18 184.797 110.662 184.921 110.193 185.168C109.731 185.415 109.367 185.764 109.1 186.213C108.833 186.662 108.699 187.167 108.699 187.727C108.699 188.286 108.833 188.788 109.1 189.23C109.367 189.673 109.731 190.021 110.193 190.275C110.662 190.529 111.18 190.656 111.746 190.656C112.326 190.656 112.846 190.529 113.309 190.275C113.777 190.021 114.145 189.673 114.412 189.23C114.679 188.788 114.812 188.286 114.812 187.727C114.812 187.16 114.679 186.656 114.412 186.213C114.145 185.764 113.777 185.415 113.309 185.168C112.846 184.921 112.326 184.797 111.746 184.797ZM132.82 186.477H124.109V185.227H132.82V186.477ZM128.465 187.648C129.188 187.648 129.832 187.818 130.398 188.156C130.971 188.495 131.417 188.964 131.736 189.562C132.062 190.155 132.228 190.832 132.234 191.594C132.228 192.362 132.062 193.046 131.736 193.645C131.417 194.243 130.971 194.715 130.398 195.061C129.832 195.406 129.188 195.578 128.465 195.578C127.755 195.578 127.114 195.406 126.541 195.061C125.975 194.715 125.532 194.243 125.213 193.645C124.894 193.046 124.734 192.362 124.734 191.594C124.734 190.839 124.897 190.161 125.223 189.562C125.548 188.964 125.991 188.495 126.551 188.156C127.117 187.818 127.755 187.648 128.465 187.648ZM128.465 188.938C128.009 188.944 127.602 189.064 127.244 189.299C126.886 189.527 126.606 189.842 126.404 190.246C126.202 190.643 126.102 191.092 126.102 191.594C126.102 192.102 126.202 192.554 126.404 192.951C126.606 193.348 126.886 193.661 127.244 193.889C127.602 194.117 128.009 194.23 128.465 194.23C128.921 194.23 129.331 194.117 129.695 193.889C130.06 193.661 130.346 193.348 130.555 192.951C130.763 192.554 130.867 192.102 130.867 191.594C130.867 191.092 130.763 190.643 130.555 190.246C130.346 189.842 130.06 189.527 129.695 189.299C129.331 189.064 128.921 188.944 128.465 188.938ZM138.934 199.582H137.469V182.219H138.934V199.582ZM137.957 190.812H134.637V189.543H137.957V190.812ZM135.164 198.723H133.719V182.648H135.164V198.723ZM129.246 185.988H127.723V182.746H129.246V185.988ZM146.883 196.379H145.379V191.184H146.883V196.379ZM153.387 196.379H151.844V191.184H153.387V196.379ZM157.332 197.355H141.434V196.066H157.332V197.355ZM149.344 183.312C150.574 183.319 151.668 183.508 152.625 183.879C153.589 184.243 154.34 184.768 154.881 185.451C155.421 186.128 155.691 186.906 155.691 187.785C155.691 188.671 155.421 189.449 154.881 190.119C154.34 190.79 153.589 191.311 152.625 191.682C151.668 192.053 150.574 192.238 149.344 192.238C148.113 192.238 147.016 192.053 146.053 191.682C145.096 191.311 144.347 190.79 143.807 190.119C143.266 189.449 142.996 188.671 142.996 187.785C142.996 186.906 143.266 186.128 143.807 185.451C144.347 184.768 145.096 184.243 146.053 183.879C147.016 183.508 148.113 183.319 149.344 183.312ZM149.344 184.582C148.4 184.576 147.557 184.706 146.814 184.973C146.079 185.233 145.506 185.607 145.096 186.096C144.686 186.584 144.48 187.147 144.48 187.785C144.48 188.423 144.686 188.986 145.096 189.475C145.506 189.963 146.079 190.344 146.814 190.617C147.557 190.891 148.4 191.027 149.344 191.027C150.281 191.027 151.118 190.891 151.854 190.617C152.589 190.344 153.165 189.963 153.582 189.475C153.999 188.986 154.207 188.423 154.207 187.785C154.207 187.147 153.999 186.584 153.582 186.096C153.165 185.607 152.589 185.233 151.854 184.973C151.118 184.706 150.281 184.576 149.344 184.582ZM160.555 198.117C160.327 198.117 160.115 198.059 159.92 197.941C159.731 197.824 159.578 197.671 159.461 197.482C159.35 197.287 159.298 197.076 159.305 196.848C159.298 196.626 159.35 196.418 159.461 196.223C159.578 196.027 159.731 195.874 159.92 195.764C160.115 195.653 160.327 195.598 160.555 195.598C160.783 195.598 160.991 195.653 161.18 195.764C161.375 195.874 161.528 196.027 161.639 196.223C161.749 196.418 161.805 196.626 161.805 196.848C161.805 197.076 161.749 197.287 161.639 197.482C161.528 197.671 161.375 197.824 161.18 197.941C160.991 198.059 160.783 198.117 160.555 198.117ZM47.0195 223.621H45.4766V206.219H47.0195V223.621ZM37.7812 207.566C38.6406 207.566 39.4056 207.814 40.0762 208.309C40.7467 208.803 41.2708 209.51 41.6484 210.428C42.026 211.346 42.2148 212.41 42.2148 213.621C42.2148 214.832 42.026 215.893 41.6484 216.805C41.2708 217.716 40.7467 218.419 40.0762 218.914C39.4056 219.409 38.6406 219.656 37.7812 219.656C36.9219 219.656 36.1569 219.409 35.4863 218.914C34.8158 218.419 34.2917 217.716 33.9141 216.805C33.5365 215.893 33.3477 214.832 33.3477 213.621C33.3477 212.41 33.5365 211.346 33.9141 210.428C34.2917 209.51 34.8158 208.803 35.4863 208.309C36.1569 207.814 36.9219 207.566 37.7812 207.566ZM37.7812 208.934C37.2083 208.934 36.6973 209.129 36.248 209.52C35.7988 209.91 35.4505 210.46 35.2031 211.17C34.9557 211.88 34.832 212.697 34.832 213.621C34.832 214.552 34.9557 215.372 35.2031 216.082C35.4505 216.785 35.7988 217.329 36.248 217.713C36.6973 218.097 37.2083 218.289 37.7812 218.289C38.3607 218.289 38.8717 218.097 39.3145 217.713C39.7637 217.329 40.112 216.785 40.3594 216.082C40.6068 215.372 40.7305 214.552 40.7305 213.621C40.7305 212.69 40.6068 211.873 40.3594 211.17C40.112 210.46 39.7637 209.91 39.3145 209.52C38.8717 209.129 38.3607 208.934 37.7812 208.934ZM64.0312 212.723H52.1367V211.492H64.0312V212.723ZM65.8672 216.336H49.9688V215.086H65.8672V216.336ZM53.6602 212.117H52.1367V206.863H53.6602V212.117ZM64.1289 223.152H52.0391V221.883H64.1289V223.152ZM53.5625 222.254H52.0391V218.113H53.5625V222.254ZM80.7109 271.582H79.1875V254.219H80.7109V271.582ZM83.6211 262.656H80.3594V261.387H83.6211V262.656ZM77.5078 258.281H67.1758V257.012H77.5078V258.281ZM72.4297 259.727C73.237 259.727 73.9629 259.896 74.6074 260.234C75.252 260.573 75.7565 261.045 76.1211 261.65C76.4922 262.256 76.681 262.943 76.6875 263.711C76.681 264.486 76.4922 265.176 76.1211 265.781C75.7565 266.38 75.252 266.849 74.6074 267.188C73.9629 267.526 73.237 267.695 72.4297 267.695C71.6159 267.695 70.8835 267.526 70.2324 267.188C69.5879 266.849 69.0833 266.38 68.7188 265.781C68.3542 265.176 68.1719 264.486 68.1719 263.711C68.1719 262.943 68.3542 262.256 68.7188 261.65C69.0833 261.045 69.5879 260.573 70.2324 260.234C70.8835 259.896 71.6159 259.727 72.4297 259.727ZM72.4297 261.016C71.8958 261.016 71.4173 261.13 70.9941 261.357C70.571 261.585 70.2389 261.908 69.998 262.324C69.7572 262.734 69.6367 263.197 69.6367 263.711C69.6367 264.232 69.7572 264.694 69.998 265.098C70.2389 265.501 70.571 265.82 70.9941 266.055C71.4173 266.283 71.8958 266.393 72.4297 266.387C72.957 266.393 73.4323 266.283 73.8555 266.055C74.2852 265.82 74.6172 265.501 74.8516 265.098C75.0924 264.694 75.2161 264.232 75.2227 263.711C75.2161 263.197 75.0924 262.734 74.8516 262.324C74.6172 261.908 74.2852 261.585 73.8555 261.357C73.4323 261.13 72.957 261.016 72.4297 261.016ZM73.1719 257.598H71.6484V254.434H73.1719V257.598ZM97.8008 259.395H92.4492V258.105H97.8008V259.395ZM97.8008 264.883H92.4492V263.613H97.8008V264.883ZM89.2266 255.566C90.0664 255.566 90.8151 255.814 91.4727 256.309C92.1367 256.803 92.651 257.51 93.0156 258.428C93.3802 259.346 93.5625 260.41 93.5625 261.621C93.5625 262.839 93.3802 263.903 93.0156 264.814C92.651 265.719 92.1367 266.419 91.4727 266.914C90.8151 267.409 90.0664 267.656 89.2266 267.656C88.3737 267.656 87.6152 267.409 86.9512 266.914C86.2936 266.419 85.7826 265.719 85.418 264.814C85.0534 263.903 84.8711 262.839 84.8711 261.621C84.8711 260.41 85.0534 259.346 85.418 258.428C85.7826 257.51 86.2936 256.803 86.9512 256.309C87.6152 255.814 88.3737 255.566 89.2266 255.566ZM89.2266 256.934C88.6602 256.934 88.1589 257.129 87.7227 257.52C87.293 257.91 86.9544 258.46 86.707 259.17C86.4596 259.873 86.3359 260.69 86.3359 261.621C86.3359 262.552 86.4596 263.372 86.707 264.082C86.9544 264.785 87.293 265.329 87.7227 265.713C88.1589 266.097 88.6602 266.289 89.2266 266.289C89.7865 266.289 90.2878 266.097 90.7305 265.713C91.1732 265.329 91.515 264.782 91.7559 264.072C91.9967 263.363 92.1172 262.546 92.1172 261.621C92.1172 260.697 91.9967 259.88 91.7559 259.17C91.515 258.46 91.1732 257.91 90.7305 257.52C90.2878 257.129 89.7865 256.934 89.2266 256.934ZM98.9531 271.621H97.4297V254.219H98.9531V271.621ZM123.113 262.441H119.91V261.152H123.113V262.441ZM120.301 271.582H118.777V254.219H120.301V271.582ZM109.109 266.68H107.586V255.938H109.109V266.68ZM108.973 265.879C110.346 265.885 111.697 265.827 113.025 265.703C114.354 265.579 115.711 265.371 117.098 265.078L117.293 266.387C115.88 266.673 114.497 266.875 113.143 266.992C111.788 267.109 110.398 267.168 108.973 267.168H107.586V265.879H108.973ZM137.586 271.621H136.062V254.219H137.586V271.621ZM140.496 262.422H137.234V261.133H140.496V262.422ZM126.258 266.113C127.996 266.12 129.484 266.081 130.721 265.996C131.964 265.911 133.224 265.749 134.5 265.508L134.656 266.777C133.348 267.018 132.065 267.184 130.809 267.275C129.552 267.36 128.035 267.409 126.258 267.422H124.871V266.113H126.258ZM132.723 262.051H126.395V266.641H124.871V260.781H131.199V257.109H124.832V255.84H132.723V262.051ZM157.312 263.496H141.414V262.285H157.312V263.496ZM155.32 268.574H144.891V270.645H143.348V267.52H153.797V266.035H143.328V264.883H155.32V268.574ZM155.887 271.348H143.348V270.234H155.887V271.348ZM155.262 258.34H145.008V260.254H143.484V257.285H153.719V255.859H143.426V254.746H155.262V258.34ZM155.574 260.977H143.484V259.863H155.574V260.977ZM34.9102 290.016C36.6354 290.022 38.0742 289.986 39.2266 289.908C40.3854 289.83 41.5508 289.677 42.7227 289.449L42.918 290.719C41.6875 290.953 40.4798 291.113 39.2949 291.197C38.1165 291.282 36.6549 291.324 34.9102 291.324H33.582V290.016H34.9102ZM41.5508 281.168H35.125V290.484H33.582V279.879H41.5508V281.168ZM47.1172 295.621H45.5742V278.219H47.1172V295.621ZM46.2188 285.816H40.5156V284.547H46.2188V285.816ZM71.2578 286.441H68.0547V285.152H71.2578V286.441ZM68.4453 295.582H66.9219V278.219H68.4453V295.582ZM57.2539 290.68H55.7305V279.938H57.2539V290.68ZM57.1172 289.879C58.4909 289.885 59.8418 289.827 61.1699 289.703C62.498 289.579 63.8555 289.371 65.2422 289.078L65.4375 290.387C64.0247 290.673 62.6413 290.875 61.2871 290.992C59.9329 291.109 58.543 291.168 57.1172 291.168H55.7305V289.879H57.1172ZM88.1133 288.629H72.293V287.379H88.1133V288.629ZM86.3555 295.211H74.3438V293.922H86.3555V295.211ZM75.8867 294.312H74.3438V290.152H75.8867V294.312ZM80.2031 278.844C81.4401 278.837 82.5208 278.971 83.4453 279.244C84.3698 279.511 85.0827 279.905 85.584 280.426C86.0853 280.947 86.3359 281.565 86.3359 282.281C86.3359 282.991 86.0853 283.606 85.584 284.127C85.0827 284.641 84.3698 285.038 83.4453 285.318C82.5208 285.598 81.4401 285.738 80.2031 285.738C78.9531 285.738 77.8659 285.598 76.9414 285.318C76.0169 285.038 75.304 284.641 74.8027 284.127C74.3014 283.606 74.0508 282.991 74.0508 282.281C74.0508 281.565 74.3014 280.947 74.8027 280.426C75.304 279.905 76.0169 279.511 76.9414 279.244C77.8659 278.971 78.9531 278.837 80.2031 278.844ZM80.2031 280.074C79.2786 280.074 78.4714 280.162 77.7812 280.338C77.0911 280.514 76.5605 280.771 76.1895 281.109C75.8184 281.441 75.6328 281.832 75.6328 282.281C75.6328 282.737 75.8184 283.131 76.1895 283.463C76.5605 283.795 77.0879 284.049 77.7715 284.225C78.4616 284.4 79.2721 284.488 80.2031 284.488C81.1276 284.488 81.9349 284.4 82.625 284.225C83.3151 284.049 83.8457 283.795 84.2168 283.463C84.5879 283.131 84.7734 282.737 84.7734 282.281C84.7734 281.832 84.5879 281.441 84.2168 281.109C83.8457 280.771 83.3118 280.514 82.6152 280.338C81.9251 280.162 81.1211 280.074 80.2031 280.074ZM107.762 280.309H96.4922V279.078H107.762V280.309ZM110.418 287.613H94.6172V286.383H110.418V287.613ZM102.664 286.598H101.16V282.867H102.664V286.598ZM108.406 280.387C108.4 281.292 108.367 282.099 108.309 282.809C108.257 283.512 108.133 284.306 107.938 285.191L106.434 285.016C106.622 284.156 106.743 283.385 106.795 282.701C106.854 282.018 106.883 281.272 106.883 280.465V280.289V279.078H108.406V280.289V280.387ZM102.996 289.801C102.996 290.79 102.693 291.682 102.088 292.477C101.482 293.271 100.672 293.925 99.6562 294.439C98.6471 294.954 97.5339 295.309 96.3164 295.504L95.75 294.312C96.8112 294.156 97.791 293.863 98.6895 293.434C99.5944 293.004 100.317 292.477 100.857 291.852C101.398 291.227 101.668 290.543 101.668 289.801V289H102.996V289.801ZM103.211 289.801C103.211 290.543 103.481 291.227 104.021 291.852C104.562 292.477 105.285 293.004 106.189 293.434C107.094 293.863 108.081 294.156 109.148 294.312L108.562 295.504C107.345 295.309 106.229 294.954 105.213 294.439C104.204 293.925 103.396 293.274 102.791 292.486C102.186 291.692 101.883 290.797 101.883 289.801V289H103.211V289.801ZM119.793 279.352C120.997 279.352 122.081 279.55 123.045 279.947C124.015 280.344 124.773 280.904 125.32 281.627C125.867 282.35 126.141 283.18 126.141 284.117C126.141 285.061 125.867 285.898 125.32 286.627C124.773 287.35 124.015 287.91 123.045 288.307C122.081 288.697 120.997 288.889 119.793 288.883C118.589 288.889 117.505 288.697 116.541 288.307C115.584 287.91 114.829 287.35 114.275 286.627C113.722 285.898 113.445 285.061 113.445 284.117C113.445 283.18 113.722 282.35 114.275 281.627C114.829 280.904 115.584 280.344 116.541 279.947C117.505 279.55 118.589 279.352 119.793 279.352ZM119.793 280.602C118.868 280.602 118.035 280.748 117.293 281.041C116.551 281.334 115.965 281.751 115.535 282.291C115.112 282.825 114.904 283.434 114.91 284.117C114.904 284.807 115.112 285.419 115.535 285.953C115.965 286.487 116.548 286.9 117.283 287.193C118.025 287.486 118.862 287.633 119.793 287.633C120.717 287.633 121.551 287.486 122.293 287.193C123.035 286.9 123.615 286.487 124.031 285.953C124.448 285.419 124.656 284.807 124.656 284.117C124.656 283.434 124.445 282.825 124.021 282.291C123.598 281.751 123.016 281.334 122.273 281.041C121.538 280.748 120.711 280.602 119.793 280.602ZM127.781 293.277H111.883V291.988H127.781V293.277ZM145.066 293.434H129.168V292.145H145.066V293.434ZM137.82 292.711H136.316V288.414H137.82V292.711ZM143.055 284.762H132.684V288.277H131.16V283.512H141.551V280.777H131.121V279.508H143.055V284.762ZM143.465 288.863H131.16V287.594H143.465V288.863ZM41.4727 311.789H33.4453V303.801H41.4727V311.789ZM34.9492 310.559H39.9883V305.051H34.9492V310.559ZM46.2773 314.953H44.7539V302.219H46.2773V314.953ZM48.8945 308.801H45.7891V307.512H48.8945V308.801ZM47.0781 319.211H35.418V317.922H47.0781V319.211ZM36.9219 318.449H35.418V313.742H36.9219V318.449ZM65.8281 310.754H49.9883V309.523H65.8281V310.754ZM63.9336 308.098H52.0977V306.848H63.9336V308.098ZM63.7578 304.055H53.6406V307.824H52.0977V302.824H63.7578V304.055ZM63.7773 316.34H53.4648V318.566H51.9414V315.188H62.2734V313.508H51.9023V312.316H63.7773V316.34ZM64.3047 319.387H51.9414V318.137H64.3047V319.387ZM81.6289 319.582H80.0859V302.219H81.6289V319.582ZM76.4922 304.113C76.4857 305.832 76.1992 307.44 75.6328 308.938C75.0729 310.435 74.1875 311.815 72.9766 313.078C71.7656 314.335 70.2161 315.415 68.3281 316.32L67.4883 315.07C69.1615 314.276 70.5514 313.339 71.6582 312.258C72.7715 311.177 73.5983 309.979 74.1387 308.664C74.6855 307.342 74.9622 305.904 74.9688 304.348V304.113H76.4922ZM75.5938 305.363H68.2891V304.113H75.5938V305.363ZM95.3008 303.078C96.1602 303.072 96.9284 303.218 97.6055 303.518C98.2826 303.811 98.8099 304.227 99.1875 304.768C99.5651 305.301 99.7539 305.917 99.7539 306.613C99.7539 307.31 99.5651 307.928 99.1875 308.469C98.8099 309.003 98.2826 309.419 97.6055 309.719C96.9284 310.018 96.1602 310.168 95.3008 310.168C94.4414 310.168 93.6764 310.018 93.0059 309.719C92.3353 309.419 91.8079 309.003 91.4238 308.469C91.0397 307.928 90.8477 307.31 90.8477 306.613C90.8477 305.917 91.0397 305.301 91.4238 304.768C91.8079 304.227 92.3353 303.811 93.0059 303.518C93.6764 303.218 94.4414 303.072 95.3008 303.078ZM95.3008 304.328C94.7344 304.322 94.2233 304.416 93.7676 304.611C93.3184 304.8 92.9668 305.07 92.7129 305.422C92.4655 305.773 92.3451 306.171 92.3516 306.613C92.3451 307.056 92.4655 307.45 92.7129 307.795C92.9668 308.14 93.3184 308.41 93.7676 308.605C94.2168 308.801 94.7279 308.898 95.3008 308.898C95.8802 308.898 96.3945 308.801 96.8438 308.605C97.2995 308.41 97.6543 308.143 97.9082 307.805C98.1621 307.46 98.2891 307.062 98.2891 306.613C98.2891 306.171 98.1621 305.773 97.9082 305.422C97.6543 305.07 97.2995 304.8 96.8438 304.611C96.388 304.416 95.8737 304.322 95.3008 304.328ZM96.1602 319.055H94.6367V312.121H96.1602V319.055ZM103.895 319.602H102.391V302.238H103.895V319.602ZM89.5391 311.652C91.6159 311.659 93.6341 311.62 95.5938 311.535C97.5534 311.451 99.3958 311.281 101.121 311.027L101.219 312.18C100.066 312.395 98.8685 312.557 97.625 312.668C96.388 312.772 95.1966 312.847 94.0508 312.893C92.9115 312.932 91.6875 312.954 90.3789 312.961C90.2357 312.961 90.1283 312.961 90.0566 312.961C89.9915 312.961 89.8906 312.961 89.7539 312.961L89.5391 311.652ZM120.438 312.688H118.914V302.219H120.438V312.688ZM123.055 308.156H120.008V306.848H123.055V308.156ZM120.438 319.348H109.48V313.684H120.438V319.348ZM110.984 318.098H118.914V314.914H110.984V318.098ZM117.254 305.344H106.902V304.074H117.254V305.344ZM112.078 306.203C112.898 306.203 113.624 306.33 114.256 306.584C114.887 306.838 115.376 307.199 115.721 307.668C116.072 308.137 116.251 308.677 116.258 309.289C116.251 309.908 116.072 310.451 115.721 310.92C115.376 311.382 114.887 311.743 114.256 312.004C113.624 312.264 112.898 312.395 112.078 312.395C111.245 312.395 110.512 312.264 109.881 312.004C109.249 311.743 108.761 311.382 108.416 310.92C108.071 310.451 107.898 309.908 107.898 309.289C107.898 308.677 108.071 308.137 108.416 307.668C108.761 307.199 109.249 306.838 109.881 306.584C110.512 306.33 111.245 306.203 112.078 306.203ZM112.078 307.395C111.538 307.395 111.059 307.473 110.643 307.629C110.232 307.785 109.917 308.01 109.695 308.303C109.474 308.589 109.363 308.918 109.363 309.289C109.363 309.68 109.474 310.018 109.695 310.305C109.917 310.591 110.232 310.816 110.643 310.979C111.053 311.135 111.531 311.216 112.078 311.223C112.618 311.216 113.094 311.135 113.504 310.979C113.921 310.816 114.24 310.591 114.461 310.305C114.689 310.018 114.806 309.68 114.812 309.289C114.806 308.918 114.686 308.589 114.451 308.303C114.223 308.01 113.904 307.785 113.494 307.629C113.084 307.473 112.612 307.395 112.078 307.395ZM112.84 304.719H111.316V302.082H112.84V304.719ZM138.465 319.621H136.922V302.219H138.465V319.621ZM129.227 303.566C130.086 303.566 130.851 303.814 131.521 304.309C132.192 304.803 132.716 305.51 133.094 306.428C133.471 307.346 133.66 308.41 133.66 309.621C133.66 310.832 133.471 311.893 133.094 312.805C132.716 313.716 132.192 314.419 131.521 314.914C130.851 315.409 130.086 315.656 129.227 315.656C128.367 315.656 127.602 315.409 126.932 314.914C126.261 314.419 125.737 313.716 125.359 312.805C124.982 311.893 124.793 310.832 124.793 309.621C124.793 308.41 124.982 307.346 125.359 306.428C125.737 305.51 126.261 304.803 126.932 304.309C127.602 303.814 128.367 303.566 129.227 303.566ZM129.227 304.934C128.654 304.934 128.143 305.129 127.693 305.52C127.244 305.91 126.896 306.46 126.648 307.17C126.401 307.88 126.277 308.697 126.277 309.621C126.277 310.552 126.401 311.372 126.648 312.082C126.896 312.785 127.244 313.329 127.693 313.713C128.143 314.097 128.654 314.289 129.227 314.289C129.806 314.289 130.317 314.097 130.76 313.713C131.209 313.329 131.557 312.785 131.805 312.082C132.052 311.372 132.176 310.552 132.176 309.621C132.176 308.69 132.052 307.873 131.805 307.17C131.557 306.46 131.209 305.91 130.76 305.52C130.317 305.129 129.806 304.934 129.227 304.934ZM147.332 316.789H145.809V312.141H147.332V316.789ZM152.938 316.789H151.414V312.141H152.938V316.789ZM157.332 317.414H141.434V316.125H157.332V317.414ZM149.871 305.363C149.871 306.496 149.533 307.548 148.855 308.518C148.178 309.488 147.299 310.301 146.219 310.959C145.138 311.61 144.018 312.056 142.859 312.297L142.215 311.066C143.217 310.897 144.21 310.533 145.193 309.973C146.176 309.413 146.984 308.726 147.615 307.912C148.247 307.098 148.562 306.249 148.562 305.363V304.289H149.871V305.363ZM150.145 305.363C150.145 306.255 150.464 307.105 151.102 307.912C151.74 308.713 152.553 309.39 153.543 309.943C154.539 310.49 155.548 310.845 156.57 311.008L155.945 312.238C154.76 311.997 153.624 311.555 152.537 310.91C151.45 310.259 150.564 309.455 149.881 308.498C149.204 307.541 148.868 306.496 148.875 305.363V304.289H150.145V305.363ZM155.965 305.051H142.742V303.781H155.965V305.051ZM160.555 318.117C160.327 318.117 160.115 318.059 159.92 317.941C159.731 317.824 159.578 317.671 159.461 317.482C159.35 317.287 159.298 317.076 159.305 316.848C159.298 316.626 159.35 316.418 159.461 316.223C159.578 316.027 159.731 315.874 159.92 315.764C160.115 315.653 160.327 315.598 160.555 315.598C160.783 315.598 160.991 315.653 161.18 315.764C161.375 315.874 161.528 316.027 161.639 316.223C161.749 316.418 161.805 316.626 161.805 316.848C161.805 317.076 161.749 317.287 161.639 317.482C161.528 317.671 161.375 317.824 161.18 317.941C160.991 318.059 160.783 318.117 160.555 318.117Z" fill="#0E0E0E"/>
<defs>
<filter id="filter0_bd_839_50" x="-76" y="-80" width="366" height="613" filterUnits="userSpaceOnUse" color-interpolation-filters="sRGB">
<feFlood flood-opacity="0" result="BackgroundImageFix"/>
<feGaussianBlur in="BackgroundImageFix" stdDeviation="40"/>
<feComposite in2="SourceAlpha" operator="in" result="effect1_backgroundBlur_839_50"/>
<feColorMatrix in="SourceAlpha" type="matrix" values="0 0 0 0 0 0 0 0 0 0 0 0 0 0 0 0 0 0 127 0" result="hardAlpha"/>
<feOffset dy="3.6"/>
<feGaussianBlur stdDeviation="1.8"/>
<feComposite in2="hardAlpha" operator="out"/>
<feColorMatrix type="matrix" values="0 0 0 0 0 0 0 0 0 0 0 0 0 0 0 0 0 0 0.25 0"/>
<feBlend mode="normal" in2="effect1_backgroundBlur_839_50" result="effect2_dropShadow_839_50"/>
<feBlend mode="normal" in="SourceGraphic" in2="effect2_dropShadow_839_50" result="shape"/>
</filter>
<linearGradient id="paint0_linear_839_50" x1="107" y1="-33.6789" x2="107" y2="453" gradientUnits="userSpaceOnUse">
<stop stop-color="#D8F5DD"/>
<stop offset="1" stop-color="#D8F5DD" stop-opacity="0"/>
</linearGradient>
</defs>
</svg>