<svg xmlns="http://www.w3.org/2000/svg" width="214" height="578" viewBox="0 0 214 578" fill="none">
<g filter="url(#filter0_bd_626_1168)">
<rect x="4" width="206" height="570" rx="103" fill="url(#paint0_linear_626_1168)" shape-rendering="crispEdges"/>
</g>
<path d="M66.9961 64.0112H72.2695V60.9526H74.4609V70.6323H64.7812V60.9526H66.9961V64.0112ZM72.2695 68.8394V65.7456H66.9961V68.8394H72.2695ZM79.6523 66.7534H73.8867V64.9136H79.6523V66.7534ZM81.2812 71.3589H79.0547V59.8628H81.2812V71.3589ZM69.8086 74.6753H79.0547V72.3198H81.2578V80.5933H67.582V72.3198H69.8086V74.6753ZM79.0547 78.7769V76.4331H69.8086V78.7769H79.0547ZM101.016 75.2964H98.8008V59.8745H101.016V75.2964ZM104.074 67.9956H100.336V66.144H104.074V67.9956ZM101.906 80.4526H87.7148V78.6128H101.906V80.4526ZM89.918 79.3745H87.7148V73.6909H89.918V79.3745ZM90.4219 61.3042C91.4688 61.3042 92.418 61.5269 93.2695 61.9722C94.1289 62.4175 94.8008 63.0386 95.2852 63.8354C95.7695 64.6323 96.0156 65.5308 96.0234 66.5308C96.0156 67.5386 95.7695 68.4409 95.2852 69.2378C94.8008 70.0269 94.1289 70.6479 93.2695 71.1011C92.418 71.5464 91.4688 71.769 90.4219 71.769C89.375 71.769 88.4258 71.5464 87.5742 71.1011C86.7227 70.6479 86.0508 70.0229 85.5586 69.2261C85.0742 68.4292 84.832 67.5308 84.832 66.5308C84.832 65.5308 85.0742 64.6323 85.5586 63.8354C86.0508 63.0386 86.7188 62.4175 87.5625 61.9722C88.4141 61.5269 89.3672 61.3042 90.4219 61.3042ZM90.4219 63.2495C89.7891 63.2495 89.2109 63.3862 88.6875 63.6597C88.1719 63.9331 87.7617 64.3237 87.457 64.8315C87.1602 65.3315 87.0117 65.8979 87.0117 66.5308C87.0117 67.1714 87.1602 67.7417 87.457 68.2417C87.7617 68.7339 88.1719 69.1206 88.6875 69.4019C89.2109 69.6753 89.7891 69.812 90.4219 69.812C91.0703 69.812 91.6523 69.6753 92.168 69.4019C92.6914 69.1206 93.1016 68.7339 93.3984 68.2417C93.6953 67.7417 93.8438 67.1714 93.8438 66.5308C93.8438 65.8901 93.6953 65.3198 93.3984 64.8198C93.1016 64.3198 92.6914 63.9331 92.168 63.6597C91.6523 63.3862 91.0703 63.2495 90.4219 63.2495ZM114.117 63.6245H119.613V60.7769H121.84V69.9292H111.926V60.7769H114.117V63.6245ZM119.613 68.1479V65.3237H114.117V68.1479H119.613ZM127.617 70.6675H125.402V59.8628H127.617V70.6675ZM130.676 66.1089H126.656V64.269H130.676V66.1089ZM127.617 76.8901H116.273V79.8315H114.082V75.2378H125.402V73.3511H114.047V71.5933H127.617V76.8901ZM128.344 80.6636H114.082V78.8823H128.344V80.6636ZM138.715 61.3511C139.801 61.3511 140.777 61.5659 141.645 61.9956C142.512 62.4175 143.188 63.0112 143.672 63.7769C144.164 64.5347 144.41 65.3979 144.41 66.3667C144.41 67.3354 144.164 68.2026 143.672 68.9683C143.188 69.7261 142.512 70.3198 141.645 70.7495C140.777 71.1714 139.801 71.3823 138.715 71.3823C137.613 71.3823 136.625 71.1714 135.75 70.7495C134.883 70.3198 134.203 69.7261 133.711 68.9683C133.227 68.2026 132.984 67.3354 132.984 66.3667C132.984 65.3979 133.227 64.5347 133.711 63.7769C134.203 63.0112 134.883 62.4175 135.75 61.9956C136.625 61.5659 137.613 61.3511 138.715 61.3511ZM138.715 63.2964C138.035 63.2964 137.426 63.4214 136.887 63.6714C136.355 63.9214 135.938 64.2847 135.633 64.7612C135.328 65.23 135.176 65.7651 135.176 66.3667C135.176 66.9761 135.328 67.5112 135.633 67.9722C135.938 68.4331 136.355 68.7925 136.887 69.0503C137.426 69.3081 138.035 69.437 138.715 69.437C139.387 69.437 139.992 69.3081 140.531 69.0503C141.07 68.7925 141.488 68.4331 141.785 67.9722C142.09 67.5112 142.242 66.9761 142.242 66.3667C142.242 65.7651 142.09 65.23 141.785 64.7612C141.488 64.2847 141.07 63.9214 140.531 63.6714C139.992 63.4214 139.387 63.2964 138.715 63.2964ZM149.227 80.9214H147.012V59.8628H149.227V80.9214ZM131.965 74.5464C134.551 74.5464 136.977 74.5034 139.242 74.4175C141.508 74.3315 143.656 74.1401 145.688 73.8433L145.852 75.4722C144.391 75.7456 142.867 75.9487 141.281 76.0815C139.703 76.2144 138.223 76.3003 136.84 76.3394C135.457 76.3784 133.93 76.3979 132.258 76.3979L131.965 74.5464Z" fill="#0E0E0E"/>
<defs>
<filter id="filter0_bd_626_1168" x="-76" y="-80" width="366" height="730" filterUnits="userSpaceOnUse" color-interpolation-filters="sRGB">
<feFlood flood-opacity="0" result="BackgroundImageFix"/>
<feGaussianBlur in="BackgroundImageFix" stdDeviation="40"/>
<feComposite in2="SourceAlpha" operator="in" result="effect1_backgroundBlur_626_1168"/>
<feColorMatrix in="SourceAlpha" type="matrix" values="0 0 0 0 0 0 0 0 0 0 0 0 0 0 0 0 0 0 127 0" result="hardAlpha"/>
<feOffset dy="3.6"/>
<feGaussianBlur stdDeviation="1.8"/>
<feComposite in2="hardAlpha" operator="out"/>
<feColorMatrix type="matrix" values="0 0 0 0 0 0 0 0 0 0 0 0 0 0 0 0 0 0 0.25 0"/>
<feBlend mode="normal" in2="effect1_backgroundBlur_626_1168" result="effect2_dropShadow_626_1168"/>
<feBlend mode="normal" in="SourceGraphic" in2="effect2_dropShadow_626_1168" result="shape"/>
</filter>
<linearGradient id="paint0_linear_626_1168" x1="107" y1="0" x2="107" y2="570" gradientUnits="userSpaceOnUse">
<stop offset="0.06" stop-color="#F6F6F6" stop-opacity="0.9"/>
<stop offset="1" stop-color="#F6F6F6" stop-opacity="0"/>
</linearGradient>
</defs>
</svg>