<svg xmlns="http://www.w3.org/2000/svg" width="214" height="461" viewBox="0 0 214 461" fill="none">
<g filter="url(#filter0_bd_626_1079)">
<rect x="4" width="206" height="453" rx="103" fill="url(#paint0_linear_626_1079)" shape-rendering="crispEdges"/>
</g>
<path d="M78.7734 65.1641H74.2383V63.3359H78.7734V65.1641ZM80.3672 70.4844H78.1406V57.9805H80.3672V70.4844ZM73.3242 71.082C74.793 71.082 76.0586 71.2383 77.1211 71.5508C78.1836 71.8633 79 72.3164 79.5703 72.9102C80.1484 73.4961 80.4375 74.2031 80.4375 75.0312C80.4375 75.8594 80.1484 76.5664 79.5703 77.1523C79 77.7461 78.1836 78.1992 77.1211 78.5117C76.0586 78.8242 74.793 78.9844 73.3242 78.9922C71.8633 78.9844 70.6016 78.8242 69.5391 78.5117C68.4766 78.1992 67.6602 77.7461 67.0898 77.1523C66.5195 76.5664 66.2344 75.8594 66.2344 75.0312C66.2344 74.2031 66.5195 73.4961 67.0898 72.9102C67.6602 72.3164 68.4766 71.8633 69.5391 71.5508C70.6016 71.2383 71.8633 71.082 73.3242 71.082ZM73.3242 72.793C72.3008 72.793 71.4219 72.8828 70.6875 73.0625C69.9609 73.2344 69.4023 73.4883 69.0117 73.8242C68.6289 74.1602 68.4375 74.5625 68.4375 75.0312C68.4375 75.5 68.6289 75.8984 69.0117 76.2266C69.4023 76.5547 69.9609 76.8086 70.6875 76.9883C71.4219 77.1602 72.3008 77.2461 73.3242 77.2461C74.3477 77.2461 75.2266 77.1602 75.9609 76.9883C76.6953 76.8086 77.2539 76.5547 77.6367 76.2266C78.0273 75.8984 78.2227 75.5 78.2227 75.0312C78.2227 74.5625 78.0273 74.1602 77.6367 73.8242C77.2539 73.4883 76.6953 73.2344 75.9609 73.0625C75.2266 72.8828 74.3477 72.793 73.3242 72.793ZM69.9492 61.7305C69.9492 63.0195 69.7109 64.2383 69.2344 65.3867C68.7578 66.5352 68.0742 67.543 67.1836 68.4102C66.293 69.2695 65.2461 69.9219 64.043 70.3672L62.8828 68.5859C63.9375 68.2188 64.8594 67.6797 65.6484 66.9688C66.4453 66.25 67.0547 65.4375 67.4766 64.5312C67.9062 63.625 68.1211 62.6914 68.1211 61.7305V60.1016H69.9492V61.7305ZM70.3711 61.707C70.3711 62.5977 70.5742 63.457 70.9805 64.2852C71.3867 65.1133 71.9727 65.8555 72.7383 66.5117C73.5039 67.168 74.4023 67.6719 75.4336 68.0234L74.2969 69.793C73.125 69.3789 72.1055 68.7656 71.2383 67.9531C70.3789 67.1406 69.7148 66.1953 69.2461 65.1172C68.7852 64.0391 68.5586 62.9023 68.5664 61.707V60.1016H70.3711V61.707ZM74.8945 61.2617H63.5508V59.4219H74.8945V61.2617ZM102.797 72.1133H83.5781V70.332H102.797V72.1133ZM94.2305 78.9805H92.0391V71.1523H94.2305V78.9805ZM88.1719 61.5781H98.1562V58.8359H100.395V67.9648H85.9688V58.8359H88.1719V61.5781ZM98.1562 66.1602V63.3594H88.1719V66.1602H98.1562ZM126.703 69.8398H124.488V57.9805H126.703V69.8398ZM129.762 64.7773H126.082V62.9492H129.762V64.7773ZM120.914 59.3047C120.906 61.0859 120.516 62.6914 119.742 64.1211C118.969 65.5508 117.84 66.7734 116.355 67.7891C114.879 68.8047 113.094 69.5938 111 70.1562L110.109 68.375C111.906 67.8984 113.434 67.2656 114.691 66.4766C115.949 65.6797 116.906 64.7617 117.562 63.7227C118.219 62.6758 118.551 61.543 118.559 60.3242V59.3047H120.914ZM119.824 61.1094H111.082V59.3047H119.824V61.1094ZM126.703 78.7109H113.262V70.7539H126.703V78.7109ZM115.465 76.9297H124.5V72.582H115.465V76.9297ZM150.094 70.1562H130.945V68.3633H150.094V70.1562ZM141.621 69.043H139.406V64.8242H141.621V69.043ZM147.773 79.1211H145.57V73.7891H133.066V72.0078H147.773V79.1211ZM147.949 66.043H133.348V64.2383H147.949V66.043ZM147.762 60.6289H135.551V65.1992H133.348V58.8359H147.762V60.6289Z" fill="#0E0E0E"/>
<defs>
<filter id="filter0_bd_626_1079" x="-76" y="-80" width="366" height="613" filterUnits="userSpaceOnUse" color-interpolation-filters="sRGB">
<feFlood flood-opacity="0" result="BackgroundImageFix"/>
<feGaussianBlur in="BackgroundImageFix" stdDeviation="40"/>
<feComposite in2="SourceAlpha" operator="in" result="effect1_backgroundBlur_626_1079"/>
<feColorMatrix in="SourceAlpha" type="matrix" values="0 0 0 0 0 0 0 0 0 0 0 0 0 0 0 0 0 0 127 0" result="hardAlpha"/>
<feOffset dy="3.6"/>
<feGaussianBlur stdDeviation="1.8"/>
<feComposite in2="hardAlpha" operator="out"/>
<feColorMatrix type="matrix" values="0 0 0 0 0 0 0 0 0 0 0 0 0 0 0 0 0 0 0.25 0"/>
<feBlend mode="normal" in2="effect1_backgroundBlur_626_1079" result="effect2_dropShadow_626_1079"/>
<feBlend mode="normal" in="SourceGraphic" in2="effect2_dropShadow_626_1079" result="shape"/>
</filter>
<linearGradient id="paint0_linear_626_1079" x1="107" y1="0" x2="107" y2="453" gradientUnits="userSpaceOnUse">
<stop offset="0.06" stop-color="#F6F6F6" stop-opacity="0.9"/>
<stop offset="1" stop-color="#F6F6F6" stop-opacity="0"/>
</linearGradient>
</defs>
</svg>