<svg xmlns="http://www.w3.org/2000/svg" width="214" height="461" viewBox="0 0 214 461" fill="none">
<g filter="url(#filter0_bd_839_47)">
<rect x="4" width="206" height="453" rx="103" fill="url(#paint0_linear_839_47)" shape-rendering="crispEdges"/>
</g>
<mask id="path-2-outside-1_839_47" maskUnits="userSpaceOnUse" x="61" y="56" width="91" height="54" fill="black">
<rect fill="white" x="61" y="56" width="91" height="54"/>
<path d="M78.5273 65.7266H74.8711V62.7031H78.5273V65.7266ZM81.3398 70.5078H77.6016V57.6406H81.3398V70.5078ZM73.8047 70.8477C75.3672 70.8477 76.7188 71.0195 77.8594 71.3633C79 71.707 79.875 72.1992 80.4844 72.8398C81.0938 73.4727 81.4023 74.2305 81.4102 75.1133C81.4023 76.0039 81.0938 76.7656 80.4844 77.3984C79.875 78.0391 79 78.5273 77.8594 78.8633C76.7188 79.207 75.3672 79.3828 73.8047 79.3906C72.25 79.3828 70.9023 79.207 69.7617 78.8633C68.6289 78.5273 67.7578 78.0391 67.1484 77.3984C66.5469 76.7656 66.2461 76.0039 66.2461 75.1133C66.2461 74.2305 66.5469 73.4727 67.1484 72.8398C67.7578 72.1992 68.6289 71.707 69.7617 71.3633C70.9023 71.0195 72.25 70.8477 73.8047 70.8477ZM73.8047 73.6719C72.9297 73.6797 72.2109 73.7344 71.6484 73.8359C71.0938 73.9297 70.6758 74.082 70.3945 74.293C70.1133 74.5039 69.9727 74.7773 69.9727 75.1133C69.9727 75.457 70.1133 75.7344 70.3945 75.9453C70.6758 76.1562 71.0977 76.3125 71.6602 76.4141C72.2227 76.5078 72.9375 76.5547 73.8047 76.5547C74.6797 76.5547 75.4023 76.5078 75.9727 76.4141C76.5508 76.3125 76.9766 76.1562 77.25 75.9453C77.5234 75.7344 77.6602 75.457 77.6602 75.1133C77.6602 74.7773 77.5234 74.5039 77.25 74.293C76.9766 74.082 76.5547 73.9297 75.9844 73.8359C75.4141 73.7344 74.6875 73.6797 73.8047 73.6719ZM70.6875 61.0039C70.6875 62.4805 70.4805 63.8555 70.0664 65.1289C69.6602 66.4023 69 67.5234 68.0859 68.4922C67.1719 69.4609 66 70.1797 64.5703 70.6484L62.6133 67.6719C63.8242 67.2812 64.8047 66.7305 65.5547 66.0195C66.3047 65.3086 66.8359 64.5273 67.1484 63.6758C67.4688 62.8242 67.6328 61.9336 67.6406 61.0039V59.8203H70.6875V61.0039ZM71.4844 60.9805C71.4844 61.8477 71.6367 62.6758 71.9414 63.4648C72.2461 64.2539 72.75 64.9766 73.4531 65.6328C74.1641 66.2891 75.0938 66.8008 76.2422 67.168L74.4141 70.1094C73.0156 69.6719 71.8711 68.9961 70.9805 68.082C70.0898 67.168 69.4414 66.1055 69.0352 64.8945C68.6289 63.6836 68.4297 62.3789 68.4375 60.9805V59.8203H71.4844V60.9805ZM75.457 61.7773H63.6562V58.7891H75.457V61.7773ZM103.418 72.8398H83.6367V69.9336H103.418V72.8398ZM95.3203 79.3203H91.5938V71.3984H95.3203V79.3203ZM89.4961 60.6172H97.4531V58.4609H101.203V68.1758H85.8047V58.4609H89.4961V60.6172ZM97.4531 65.1875V63.5352H89.4961V65.1875H97.4531ZM126.949 69.6289H123.176V57.6406H126.949V69.6289ZM129.656 65.1172H125.883V62.0469H129.656V65.1172ZM120.797 58.8477C120.789 60.8086 120.402 62.5469 119.637 64.0625C118.879 65.5781 117.75 66.8594 116.25 67.9062C114.75 68.9531 112.902 69.7617 110.707 70.332L109.23 67.332C110.918 66.9414 112.32 66.4141 113.438 65.75C114.562 65.0781 115.395 64.3164 115.934 63.4648C116.48 62.6133 116.758 61.6992 116.766 60.7227V58.8477H120.797ZM119.109 61.7891H110.367V58.8477H119.109V61.7891ZM126.949 79.1094H112.5V70.3555H126.949V79.1094ZM116.227 76.1914H123.246V73.3555H116.227V76.1914ZM150.129 70.918H130.371V67.9414H150.129V70.918ZM142.102 68.832H138.328V64.5781H142.102V68.832ZM147.809 79.332H144.117V74.9258H132.539V72.0078H147.809V79.332ZM148.078 66.4648H132.691V63.5117H148.078V66.4648ZM147.844 61.4492H136.418V65.1406H132.691V58.5312H147.844V61.4492ZM85.1719 97.2109H74.3438V87.8945H85.1719V97.2109ZM78.0234 94.3047H81.4453V90.8008H78.0234V94.3047ZM91.5234 98.8398H87.7734V86.6406H91.5234V98.8398ZM85.2422 101.969C85.2344 103.047 84.9219 104.031 84.3047 104.922C83.6953 105.812 82.7344 106.555 81.4219 107.148C80.1172 107.75 78.4688 108.133 76.4766 108.297L75.2227 105.496C76.8711 105.379 78.1992 105.129 79.207 104.746C80.2227 104.355 80.9375 103.914 81.3516 103.422C81.7734 102.93 81.9844 102.445 81.9844 101.969V101.746H85.2422V101.969ZM85.8984 101.969C85.8984 102.43 86.1133 102.906 86.543 103.398C86.9727 103.883 87.6914 104.32 88.6992 104.711C89.7148 105.102 91.043 105.363 92.6836 105.496L91.4531 108.297C89.4531 108.148 87.7969 107.766 86.4844 107.148C85.1719 106.539 84.207 105.785 83.5898 104.887C82.9727 103.98 82.668 103.008 82.6758 101.969V101.746H85.8984V101.969ZM91.8047 102.578H76.0898V99.8477H91.8047V102.578ZM85.8281 101.172H82.0312V98.2773H85.8281V101.172ZM119.016 100.527H99.1875V97.6211H119.016V100.527ZM110.965 98.6523H107.191V95.5352H110.965V98.6523ZM117 96.8125H101.566V93.9648H117V96.8125ZM116.801 89.9688H105.316V95.6055H101.566V87.1211H116.801V89.9688ZM116.32 93.3203H104.262V90.6484H116.32V93.3203ZM109.078 101.102C110.664 101.102 112.023 101.242 113.156 101.523C114.297 101.805 115.168 102.219 115.77 102.766C116.371 103.305 116.672 103.957 116.672 104.723C116.672 105.512 116.371 106.176 115.77 106.715C115.168 107.254 114.301 107.66 113.168 107.934C112.035 108.215 110.672 108.355 109.078 108.355C107.453 108.355 106.07 108.215 104.93 107.934C103.789 107.66 102.918 107.254 102.316 106.715C101.715 106.176 101.414 105.512 101.414 104.723C101.414 103.957 101.715 103.305 102.316 102.766C102.918 102.219 103.789 101.805 104.93 101.523C106.078 101.242 107.461 101.102 109.078 101.102ZM109.078 103.855C108.117 103.848 107.355 103.871 106.793 103.926C106.23 103.973 105.816 104.062 105.551 104.195C105.293 104.328 105.168 104.504 105.176 104.723C105.168 104.949 105.293 105.129 105.551 105.262C105.816 105.387 106.23 105.477 106.793 105.531C107.355 105.586 108.117 105.617 109.078 105.625C110.016 105.617 110.758 105.586 111.305 105.531C111.859 105.477 112.262 105.387 112.512 105.262C112.77 105.129 112.898 104.949 112.898 104.723C112.898 104.504 112.77 104.328 112.512 104.195C112.262 104.062 111.859 103.973 111.305 103.926C110.758 103.871 110.016 103.848 109.078 103.855ZM138.82 108.32H135.305V86.6406H138.82V108.32ZM131.801 96.8594H128.52V93.8594H131.801V96.8594ZM134.367 107.418H130.863V86.9102H134.367V107.418ZM126.34 92.2188C126.332 93.9922 126.176 95.6602 125.871 97.2227C125.574 98.7852 125.078 100.199 124.383 101.465C123.695 102.73 122.781 103.711 121.641 104.406L119.402 101.664C120.449 101 121.277 100.168 121.887 99.168C122.504 98.168 122.93 97.0859 123.164 95.9219C123.406 94.7578 123.531 93.5234 123.539 92.2188V90.2969H126.34V92.2188ZM127.148 92.2188C127.141 93.5078 127.25 94.7109 127.477 95.8281C127.711 96.9375 128.129 97.957 128.73 98.8867C129.332 99.8164 130.152 100.578 131.191 101.172L129.023 103.914C127.867 103.25 126.945 102.324 126.258 101.137C125.578 99.9492 125.098 98.6133 124.816 97.1289C124.535 95.6367 124.395 94 124.395 92.2188V90.2969H127.148V92.2188ZM129.996 91.6211H120.363V88.6445H129.996V91.6211Z"/>
</mask>
<path d="M78.5273 65.7266H74.8711V62.7031H78.5273V65.7266ZM81.3398 70.5078H77.6016V57.6406H81.3398V70.5078ZM73.8047 70.8477C75.3672 70.8477 76.7188 71.0195 77.8594 71.3633C79 71.707 79.875 72.1992 80.4844 72.8398C81.0938 73.4727 81.4023 74.2305 81.4102 75.1133C81.4023 76.0039 81.0938 76.7656 80.4844 77.3984C79.875 78.0391 79 78.5273 77.8594 78.8633C76.7188 79.207 75.3672 79.3828 73.8047 79.3906C72.25 79.3828 70.9023 79.207 69.7617 78.8633C68.6289 78.5273 67.7578 78.0391 67.1484 77.3984C66.5469 76.7656 66.2461 76.0039 66.2461 75.1133C66.2461 74.2305 66.5469 73.4727 67.1484 72.8398C67.7578 72.1992 68.6289 71.707 69.7617 71.3633C70.9023 71.0195 72.25 70.8477 73.8047 70.8477ZM73.8047 73.6719C72.9297 73.6797 72.2109 73.7344 71.6484 73.8359C71.0938 73.9297 70.6758 74.082 70.3945 74.293C70.1133 74.5039 69.9727 74.7773 69.9727 75.1133C69.9727 75.457 70.1133 75.7344 70.3945 75.9453C70.6758 76.1562 71.0977 76.3125 71.6602 76.4141C72.2227 76.5078 72.9375 76.5547 73.8047 76.5547C74.6797 76.5547 75.4023 76.5078 75.9727 76.4141C76.5508 76.3125 76.9766 76.1562 77.25 75.9453C77.5234 75.7344 77.6602 75.457 77.6602 75.1133C77.6602 74.7773 77.5234 74.5039 77.25 74.293C76.9766 74.082 76.5547 73.9297 75.9844 73.8359C75.4141 73.7344 74.6875 73.6797 73.8047 73.6719ZM70.6875 61.0039C70.6875 62.4805 70.4805 63.8555 70.0664 65.1289C69.6602 66.4023 69 67.5234 68.0859 68.4922C67.1719 69.4609 66 70.1797 64.5703 70.6484L62.6133 67.6719C63.8242 67.2812 64.8047 66.7305 65.5547 66.0195C66.3047 65.3086 66.8359 64.5273 67.1484 63.6758C67.4688 62.8242 67.6328 61.9336 67.6406 61.0039V59.8203H70.6875V61.0039ZM71.4844 60.9805C71.4844 61.8477 71.6367 62.6758 71.9414 63.4648C72.2461 64.2539 72.75 64.9766 73.4531 65.6328C74.1641 66.2891 75.0938 66.8008 76.2422 67.168L74.4141 70.1094C73.0156 69.6719 71.8711 68.9961 70.9805 68.082C70.0898 67.168 69.4414 66.1055 69.0352 64.8945C68.6289 63.6836 68.4297 62.3789 68.4375 60.9805V59.8203H71.4844V60.9805ZM75.457 61.7773H63.6562V58.7891H75.457V61.7773ZM103.418 72.8398H83.6367V69.9336H103.418V72.8398ZM95.3203 79.3203H91.5938V71.3984H95.3203V79.3203ZM89.4961 60.6172H97.4531V58.4609H101.203V68.1758H85.8047V58.4609H89.4961V60.6172ZM97.4531 65.1875V63.5352H89.4961V65.1875H97.4531ZM126.949 69.6289H123.176V57.6406H126.949V69.6289ZM129.656 65.1172H125.883V62.0469H129.656V65.1172ZM120.797 58.8477C120.789 60.8086 120.402 62.5469 119.637 64.0625C118.879 65.5781 117.75 66.8594 116.25 67.9062C114.75 68.9531 112.902 69.7617 110.707 70.332L109.23 67.332C110.918 66.9414 112.32 66.4141 113.438 65.75C114.562 65.0781 115.395 64.3164 115.934 63.4648C116.48 62.6133 116.758 61.6992 116.766 60.7227V58.8477H120.797ZM119.109 61.7891H110.367V58.8477H119.109V61.7891ZM126.949 79.1094H112.5V70.3555H126.949V79.1094ZM116.227 76.1914H123.246V73.3555H116.227V76.1914ZM150.129 70.918H130.371V67.9414H150.129V70.918ZM142.102 68.832H138.328V64.5781H142.102V68.832ZM147.809 79.332H144.117V74.9258H132.539V72.0078H147.809V79.332ZM148.078 66.4648H132.691V63.5117H148.078V66.4648ZM147.844 61.4492H136.418V65.1406H132.691V58.5312H147.844V61.4492ZM85.1719 97.2109H74.3438V87.8945H85.1719V97.2109ZM78.0234 94.3047H81.4453V90.8008H78.0234V94.3047ZM91.5234 98.8398H87.7734V86.6406H91.5234V98.8398ZM85.2422 101.969C85.2344 103.047 84.9219 104.031 84.3047 104.922C83.6953 105.812 82.7344 106.555 81.4219 107.148C80.1172 107.75 78.4688 108.133 76.4766 108.297L75.2227 105.496C76.8711 105.379 78.1992 105.129 79.207 104.746C80.2227 104.355 80.9375 103.914 81.3516 103.422C81.7734 102.93 81.9844 102.445 81.9844 101.969V101.746H85.2422V101.969ZM85.8984 101.969C85.8984 102.43 86.1133 102.906 86.543 103.398C86.9727 103.883 87.6914 104.32 88.6992 104.711C89.7148 105.102 91.043 105.363 92.6836 105.496L91.4531 108.297C89.4531 108.148 87.7969 107.766 86.4844 107.148C85.1719 106.539 84.207 105.785 83.5898 104.887C82.9727 103.98 82.668 103.008 82.6758 101.969V101.746H85.8984V101.969ZM91.8047 102.578H76.0898V99.8477H91.8047V102.578ZM85.8281 101.172H82.0312V98.2773H85.8281V101.172ZM119.016 100.527H99.1875V97.6211H119.016V100.527ZM110.965 98.6523H107.191V95.5352H110.965V98.6523ZM117 96.8125H101.566V93.9648H117V96.8125ZM116.801 89.9688H105.316V95.6055H101.566V87.1211H116.801V89.9688ZM116.32 93.3203H104.262V90.6484H116.32V93.3203ZM109.078 101.102C110.664 101.102 112.023 101.242 113.156 101.523C114.297 101.805 115.168 102.219 115.77 102.766C116.371 103.305 116.672 103.957 116.672 104.723C116.672 105.512 116.371 106.176 115.77 106.715C115.168 107.254 114.301 107.66 113.168 107.934C112.035 108.215 110.672 108.355 109.078 108.355C107.453 108.355 106.07 108.215 104.93 107.934C103.789 107.66 102.918 107.254 102.316 106.715C101.715 106.176 101.414 105.512 101.414 104.723C101.414 103.957 101.715 103.305 102.316 102.766C102.918 102.219 103.789 101.805 104.93 101.523C106.078 101.242 107.461 101.102 109.078 101.102ZM109.078 103.855C108.117 103.848 107.355 103.871 106.793 103.926C106.23 103.973 105.816 104.062 105.551 104.195C105.293 104.328 105.168 104.504 105.176 104.723C105.168 104.949 105.293 105.129 105.551 105.262C105.816 105.387 106.23 105.477 106.793 105.531C107.355 105.586 108.117 105.617 109.078 105.625C110.016 105.617 110.758 105.586 111.305 105.531C111.859 105.477 112.262 105.387 112.512 105.262C112.77 105.129 112.898 104.949 112.898 104.723C112.898 104.504 112.77 104.328 112.512 104.195C112.262 104.062 111.859 103.973 111.305 103.926C110.758 103.871 110.016 103.848 109.078 103.855ZM138.82 108.32H135.305V86.6406H138.82V108.32ZM131.801 96.8594H128.52V93.8594H131.801V96.8594ZM134.367 107.418H130.863V86.9102H134.367V107.418ZM126.34 92.2188C126.332 93.9922 126.176 95.6602 125.871 97.2227C125.574 98.7852 125.078 100.199 124.383 101.465C123.695 102.73 122.781 103.711 121.641 104.406L119.402 101.664C120.449 101 121.277 100.168 121.887 99.168C122.504 98.168 122.93 97.0859 123.164 95.9219C123.406 94.7578 123.531 93.5234 123.539 92.2188V90.2969H126.34V92.2188ZM127.148 92.2188C127.141 93.5078 127.25 94.7109 127.477 95.8281C127.711 96.9375 128.129 97.957 128.73 98.8867C129.332 99.8164 130.152 100.578 131.191 101.172L129.023 103.914C127.867 103.25 126.945 102.324 126.258 101.137C125.578 99.9492 125.098 98.6133 124.816 97.1289C124.535 95.6367 124.395 94 124.395 92.2188V90.2969H127.148V92.2188ZM129.996 91.6211H120.363V88.6445H129.996V91.6211Z" fill="#F6F6F6"/>
<path d="M78.5273 65.7266V66.7266H79.5273V65.7266H78.5273ZM74.8711 65.7266H73.8711V66.7266H74.8711V65.7266ZM74.8711 62.7031V61.7031H73.8711V62.7031H74.8711ZM78.5273 62.7031H79.5273V61.7031H78.5273V62.7031ZM81.3398 70.5078V71.5078H82.3398V70.5078H81.3398ZM77.6016 70.5078H76.6016V71.5078H77.6016V70.5078ZM77.6016 57.6406V56.6406H76.6016V57.6406H77.6016ZM81.3398 57.6406H82.3398V56.6406H81.3398V57.6406ZM80.4844 72.8398L79.7598 73.5291L79.7641 73.5335L80.4844 72.8398ZM81.4102 75.1133L82.4101 75.1221L82.4102 75.1132L82.4101 75.1044L81.4102 75.1133ZM80.4844 77.3984L79.764 76.7048L79.7598 76.7092L80.4844 77.3984ZM77.8594 78.8633L77.5768 77.904L77.5708 77.9058L77.8594 78.8633ZM73.8047 79.3906L73.7997 80.3907L73.8097 80.3906L73.8047 79.3906ZM69.7617 78.8633L70.0503 77.9058L70.046 77.9046L69.7617 78.8633ZM67.1484 77.3984L66.4237 78.0874L66.4239 78.0877L67.1484 77.3984ZM67.1484 72.8398L66.4239 72.1506L66.4237 72.1509L67.1484 72.8398ZM69.7617 71.3633L69.4732 70.4058L69.4713 70.4064L69.7617 71.3633ZM73.8047 73.6719L73.8135 72.6719L73.8046 72.6718L73.7958 72.6719L73.8047 73.6719ZM71.6484 73.8359L71.8151 74.822L71.8261 74.82L71.6484 73.8359ZM71.6602 76.4141L71.4825 77.3982L71.4958 77.4005L71.6602 76.4141ZM75.9727 76.4141L76.1349 77.4009L76.1457 77.399L75.9727 76.4141ZM75.9844 73.8359L75.809 74.8205L75.8222 74.8227L75.9844 73.8359ZM70.0664 65.1289L69.1154 64.8197L69.1137 64.825L70.0664 65.1289ZM64.5703 70.6484L63.7347 71.1978L64.155 71.837L64.8819 71.5987L64.5703 70.6484ZM62.6133 67.6719L62.3063 66.7202L61.056 67.1235L61.7777 68.2212L62.6133 67.6719ZM67.1484 63.6758L66.2124 63.3237L66.2097 63.3313L67.1484 63.6758ZM67.6406 61.0039L68.6406 61.0123V61.0039H67.6406ZM67.6406 59.8203V58.8203H66.6406V59.8203H67.6406ZM70.6875 59.8203H71.6875V58.8203H70.6875V59.8203ZM73.4531 65.6328L72.7708 66.3639L72.7748 66.3676L73.4531 65.6328ZM76.2422 67.168L77.0915 67.6958L77.7687 66.6062L76.5467 66.2155L76.2422 67.168ZM74.4141 70.1094L74.1155 71.0638L74.8546 71.295L75.2634 70.6372L74.4141 70.1094ZM68.4375 60.9805L69.4375 60.9861V60.9805H68.4375ZM68.4375 59.8203V58.8203H67.4375V59.8203H68.4375ZM71.4844 59.8203H72.4844V58.8203H71.4844V59.8203ZM75.457 61.7773V62.7773H76.457V61.7773H75.457ZM63.6562 61.7773H62.6562V62.7773H63.6562V61.7773ZM63.6562 58.7891V57.7891H62.6562V58.7891H63.6562ZM75.457 58.7891H76.457V57.7891H75.457V58.7891ZM78.5273 64.7266H74.8711V66.7266H78.5273V64.7266ZM75.8711 65.7266V62.7031H73.8711V65.7266H75.8711ZM74.8711 63.7031H78.5273V61.7031H74.8711V63.7031ZM77.5273 62.7031V65.7266H79.5273V62.7031H77.5273ZM81.3398 69.5078H77.6016V71.5078H81.3398V69.5078ZM78.6016 70.5078V57.6406H76.6016V70.5078H78.6016ZM77.6016 58.6406H81.3398V56.6406H77.6016V58.6406ZM80.3398 57.6406V70.5078H82.3398V57.6406H80.3398ZM73.8047 71.8477C75.298 71.8477 76.5477 72.0124 77.5708 72.3207L78.1479 70.4058C76.8898 70.0267 75.4364 69.8477 73.8047 69.8477V71.8477ZM77.5708 72.3207C78.6008 72.6312 79.3045 73.0504 79.7598 73.5291L81.2089 72.1506C80.4455 71.348 79.3992 70.7829 78.1479 70.4058L77.5708 72.3207ZM79.7641 73.5335C80.1951 73.9812 80.4046 74.4935 80.4102 75.1221L82.4101 75.1044C82.4001 73.9674 81.9924 72.9642 81.2047 72.1462L79.7641 73.5335ZM80.4102 75.1045C80.4046 75.7434 80.1934 76.2589 79.7641 76.7048L81.2047 78.0921C81.9941 77.2723 82.4001 76.2644 82.4101 75.1221L80.4102 75.1045ZM79.7598 76.7092C79.3062 77.1861 78.605 77.6012 77.5769 77.904L78.1419 79.8225C79.395 79.4535 80.4438 78.8921 81.2089 78.0877L79.7598 76.7092ZM77.5708 77.9058C76.5457 78.2148 75.2942 78.3832 73.7997 78.3906L73.8097 80.3906C75.4402 80.3825 76.8918 80.1993 78.1479 79.8207L77.5708 77.9058ZM73.8097 78.3906C72.3236 78.3832 71.0758 78.2149 70.0503 77.9058L69.4732 79.8207C70.7289 80.1992 72.1764 80.3825 73.7997 80.3906L73.8097 78.3906ZM70.046 77.9046C69.0265 77.6022 68.3278 77.1874 67.873 76.7092L66.4239 78.0877C67.1878 78.8908 68.2313 79.4525 69.4774 79.822L70.046 77.9046ZM67.8732 76.7095C67.4522 76.2666 67.2461 75.7532 67.2461 75.1133H65.2461C65.2461 76.2546 65.6415 77.2646 66.4237 78.0874L67.8732 76.7095ZM67.2461 75.1133C67.2461 74.4837 67.4505 73.9735 67.8732 73.5288L66.4237 72.1509C65.6432 72.9718 65.2461 73.9772 65.2461 75.1133H67.2461ZM67.873 73.5291C68.3295 73.0491 69.0307 72.6301 70.0521 72.3202L69.4713 70.4064C68.2271 70.7839 67.1861 71.3493 66.4239 72.1506L67.873 73.5291ZM70.0503 72.3207C71.0738 72.0123 72.3197 71.8477 73.8047 71.8477V69.8477C72.1803 69.8477 70.7309 70.0268 69.4732 70.4058L70.0503 72.3207ZM73.7958 72.6719C72.8905 72.68 72.11 72.7364 71.4708 72.8519L71.8261 74.82C72.3119 74.7323 72.9688 74.6794 73.8136 74.6718L73.7958 72.6719ZM71.4818 72.8499C70.8543 72.956 70.2576 73.1456 69.7945 73.493L70.9945 75.093C71.0939 75.0184 71.3332 74.9034 71.8151 74.822L71.4818 72.8499ZM69.7945 73.493C69.2752 73.8825 68.9727 74.4458 68.9727 75.1133H70.9727C70.9727 75.0994 70.9741 75.0951 70.9734 75.0979C70.9727 75.1011 70.9708 75.107 70.9674 75.1136C70.9641 75.12 70.9619 75.1221 70.964 75.1197C70.9665 75.1169 70.9752 75.1074 70.9945 75.093L69.7945 73.493ZM68.9727 75.1133C68.9727 75.7801 69.2682 76.3506 69.7945 76.7453L70.9945 75.1453C70.9765 75.1318 70.9686 75.1231 70.9666 75.1209C70.965 75.119 70.9671 75.1211 70.97 75.1269C70.9713 75.1295 70.9724 75.132 70.9732 75.1343C70.9736 75.1353 70.9739 75.1362 70.9741 75.1369C70.9743 75.1375 70.9743 75.1378 70.9743 75.1378C70.9743 75.1378 70.9742 75.1374 70.9741 75.1365C70.9739 75.1356 70.9737 75.1342 70.9735 75.1322C70.9731 75.1284 70.9727 75.1221 70.9727 75.1133H68.9727ZM69.7945 76.7453C70.2547 77.0904 70.8518 77.2843 71.4825 77.3981L71.8378 75.43C71.3435 75.3407 71.0969 75.2221 70.9945 75.1453L69.7945 76.7453ZM71.4958 77.4005C72.1328 77.5066 72.9076 77.5547 73.8047 77.5547V75.5547C72.9674 75.5547 72.3125 75.509 71.8246 75.4277L71.4958 77.4005ZM73.8047 77.5547C74.7094 77.5547 75.4912 77.5066 76.1349 77.4008L75.8104 75.4273C75.3135 75.509 74.65 75.5547 73.8047 75.5547V77.5547ZM76.1457 77.399C76.7859 77.2865 77.3989 77.0934 77.8608 76.7371L76.6392 75.1535C76.5542 75.2191 76.3157 75.3385 75.7996 75.4291L76.1457 77.399ZM77.8608 76.7371C78.3783 76.3379 78.6602 75.7687 78.6602 75.1133H76.6602C76.6602 75.1327 76.6583 75.1421 76.6579 75.1437C76.6576 75.1449 76.6582 75.1419 76.6607 75.1369C76.6631 75.132 76.665 75.13 76.6637 75.1315C76.6623 75.1332 76.6554 75.141 76.6392 75.1535L77.8608 76.7371ZM78.6602 75.1133C78.6602 74.4573 78.3716 73.8953 77.8608 73.5012L76.6392 75.0848C76.6566 75.0982 76.6643 75.1068 76.6663 75.1091C76.668 75.1111 76.666 75.1091 76.6632 75.1035C76.6603 75.0978 76.6591 75.0932 76.6588 75.092C76.6586 75.0911 76.6602 75.0974 76.6602 75.1133H78.6602ZM77.8608 73.5012C77.3959 73.1426 76.7834 72.9539 76.1466 72.8492L75.8222 74.8227C76.326 74.9055 76.5572 75.0215 76.6392 75.0848L77.8608 73.5012ZM76.1597 72.8514C75.5139 72.7364 74.7265 72.68 73.8135 72.6719L73.7958 74.6718C74.6485 74.6794 75.3143 74.7323 75.8091 74.8204L76.1597 72.8514ZM69.6875 61.0039C69.6875 62.3862 69.4939 63.6558 69.1154 64.8197L71.0174 65.4381C71.4671 64.0551 71.6875 62.5748 71.6875 61.0039H69.6875ZM69.1137 64.825C68.7528 65.9562 68.1695 66.9465 67.3586 67.8059L68.8133 69.1785C69.8305 68.1004 70.5675 66.8485 71.0191 65.4328L69.1137 64.825ZM67.3586 67.8059C66.5731 68.6384 65.5508 69.2746 64.2588 69.6982L64.8819 71.5987C66.4492 71.0848 67.7706 70.2835 68.8133 69.1785L67.3586 67.8059ZM65.4059 70.0991L63.4489 67.1225L61.7777 68.2212L63.7347 71.1978L65.4059 70.0991ZM62.9203 68.6236C64.2413 68.1975 65.362 67.5801 66.2426 66.7453L64.8667 65.2938C64.2474 65.8809 63.4071 66.365 62.3063 66.7202L62.9203 68.6236ZM66.2426 66.7453C67.0889 65.9431 67.7147 65.0355 68.0872 64.0203L66.2097 63.3313C65.9572 64.0191 65.5205 64.6741 64.8667 65.2938L66.2426 66.7453ZM68.0844 64.0278C68.447 63.064 68.6318 62.0568 68.6406 61.0123L66.6407 60.9955C66.6338 61.8104 66.4905 62.5845 66.2125 63.3237L68.0844 64.0278ZM68.6406 61.0039V59.8203H66.6406V61.0039H68.6406ZM67.6406 60.8203H70.6875V58.8203H67.6406V60.8203ZM69.6875 59.8203V61.0039H71.6875V59.8203H69.6875ZM70.4844 60.9805C70.4844 61.9677 70.6584 62.9182 71.0085 63.8251L72.8743 63.1046C72.6151 62.4334 72.4844 61.7276 72.4844 60.9805H70.4844ZM71.0085 63.8251C71.3747 64.7733 71.9724 65.6187 72.7708 66.3639L74.1354 64.9018C73.5276 64.3344 73.1175 63.7345 72.8743 63.1046L71.0085 63.8251ZM72.7748 66.3676C73.616 67.1441 74.6835 67.7195 75.9376 68.1205L76.5467 66.2155C75.504 65.8821 74.7121 65.434 74.1314 64.898L72.7748 66.3676ZM75.3929 66.6401L73.5647 69.5815L75.2634 70.6372L77.0915 67.6958L75.3929 66.6401ZM74.7126 69.155C73.4489 68.7596 72.4554 68.1628 71.6967 67.3842L70.2642 68.7799C71.2868 69.8294 72.5824 70.5841 74.1155 71.0638L74.7126 69.155ZM71.6967 67.3842C70.911 66.5778 70.3417 65.6451 69.9832 64.5765L68.0871 65.2126C68.5411 66.5658 69.2687 67.7582 70.2642 68.7799L71.6967 67.3842ZM69.9832 64.5765C69.6151 63.4792 69.4302 62.2849 69.4375 60.9861L67.4375 60.9749C67.4291 62.4729 67.6427 63.8879 68.0871 65.2126L69.9832 64.5765ZM69.4375 60.9805V59.8203H67.4375V60.9805H69.4375ZM68.4375 60.8203H71.4844V58.8203H68.4375V60.8203ZM70.4844 59.8203V60.9805H72.4844V59.8203H70.4844ZM75.457 60.7773H63.6562V62.7773H75.457V60.7773ZM64.6562 61.7773V58.7891H62.6562V61.7773H64.6562ZM63.6562 59.7891H75.457V57.7891H63.6562V59.7891ZM74.457 58.7891V61.7773H76.457V58.7891H74.457ZM103.418 72.8398V73.8398H104.418V72.8398H103.418ZM83.6367 72.8398H82.6367V73.8398H83.6367V72.8398ZM83.6367 69.9336V68.9336H82.6367V69.9336H83.6367ZM103.418 69.9336H104.418V68.9336H103.418V69.9336ZM95.3203 79.3203V80.3203H96.3203V79.3203H95.3203ZM91.5938 79.3203H90.5938V80.3203H91.5938V79.3203ZM91.5938 71.3984V70.3984H90.5938V71.3984H91.5938ZM95.3203 71.3984H96.3203V70.3984H95.3203V71.3984ZM89.4961 60.6172H88.4961V61.6172H89.4961V60.6172ZM97.4531 60.6172V61.6172H98.4531V60.6172H97.4531ZM97.4531 58.4609V57.4609H96.4531V58.4609H97.4531ZM101.203 58.4609H102.203V57.4609H101.203V58.4609ZM101.203 68.1758V69.1758H102.203V68.1758H101.203ZM85.8047 68.1758H84.8047V69.1758H85.8047V68.1758ZM85.8047 58.4609V57.4609H84.8047V58.4609H85.8047ZM89.4961 58.4609H90.4961V57.4609H89.4961V58.4609ZM97.4531 65.1875V66.1875H98.4531V65.1875H97.4531ZM97.4531 63.5352H98.4531V62.5352H97.4531V63.5352ZM89.4961 63.5352V62.5352H88.4961V63.5352H89.4961ZM89.4961 65.1875H88.4961V66.1875H89.4961V65.1875ZM103.418 71.8398H83.6367V73.8398H103.418V71.8398ZM84.6367 72.8398V69.9336H82.6367V72.8398H84.6367ZM83.6367 70.9336H103.418V68.9336H83.6367V70.9336ZM102.418 69.9336V72.8398H104.418V69.9336H102.418ZM95.3203 78.3203H91.5938V80.3203H95.3203V78.3203ZM92.5938 79.3203V71.3984H90.5938V79.3203H92.5938ZM91.5938 72.3984H95.3203V70.3984H91.5938V72.3984ZM94.3203 71.3984V79.3203H96.3203V71.3984H94.3203ZM89.4961 61.6172H97.4531V59.6172H89.4961V61.6172ZM98.4531 60.6172V58.4609H96.4531V60.6172H98.4531ZM97.4531 59.4609H101.203V57.4609H97.4531V59.4609ZM100.203 58.4609V68.1758H102.203V58.4609H100.203ZM101.203 67.1758H85.8047V69.1758H101.203V67.1758ZM86.8047 68.1758V58.4609H84.8047V68.1758H86.8047ZM85.8047 59.4609H89.4961V57.4609H85.8047V59.4609ZM88.4961 58.4609V60.6172H90.4961V58.4609H88.4961ZM98.4531 65.1875V63.5352H96.4531V65.1875H98.4531ZM97.4531 62.5352H89.4961V64.5352H97.4531V62.5352ZM88.4961 63.5352V65.1875H90.4961V63.5352H88.4961ZM89.4961 66.1875H97.4531V64.1875H89.4961V66.1875ZM126.949 69.6289V70.6289H127.949V69.6289H126.949ZM123.176 69.6289H122.176V70.6289H123.176V69.6289ZM123.176 57.6406V56.6406H122.176V57.6406H123.176ZM126.949 57.6406H127.949V56.6406H126.949V57.6406ZM129.656 65.1172V66.1172H130.656V65.1172H129.656ZM125.883 65.1172H124.883V66.1172H125.883V65.1172ZM125.883 62.0469V61.0469H124.883V62.0469H125.883ZM129.656 62.0469H130.656V61.0469H129.656V62.0469ZM120.797 58.8477L121.797 58.8516L121.801 57.8477H120.797V58.8477ZM119.637 64.0625L118.744 63.6116L118.742 63.6153L119.637 64.0625ZM110.707 70.332L109.81 70.7736L110.17 71.5048L110.958 71.2999L110.707 70.332ZM109.23 67.332L109.005 66.3578L107.776 66.6422L108.333 67.7736L109.23 67.332ZM113.438 65.75L113.948 66.6096L113.95 66.6085L113.438 65.75ZM115.934 63.4648L115.092 62.9245L115.089 62.93L115.934 63.4648ZM116.766 60.7227L117.766 60.7307V60.7227H116.766ZM116.766 58.8477V57.8477H115.766V58.8477H116.766ZM119.109 61.7891V62.7891H120.109V61.7891H119.109ZM110.367 61.7891H109.367V62.7891H110.367V61.7891ZM110.367 58.8477V57.8477H109.367V58.8477H110.367ZM119.109 58.8477H120.109V57.8477H119.109V58.8477ZM126.949 79.1094V80.1094H127.949V79.1094H126.949ZM112.5 79.1094H111.5V80.1094H112.5V79.1094ZM112.5 70.3555V69.3555H111.5V70.3555H112.5ZM126.949 70.3555H127.949V69.3555H126.949V70.3555ZM116.227 76.1914H115.227V77.1914H116.227V76.1914ZM123.246 76.1914V77.1914H124.246V76.1914H123.246ZM123.246 73.3555H124.246V72.3555H123.246V73.3555ZM116.227 73.3555V72.3555H115.227V73.3555H116.227ZM126.949 68.6289H123.176V70.6289H126.949V68.6289ZM124.176 69.6289V57.6406H122.176V69.6289H124.176ZM123.176 58.6406H126.949V56.6406H123.176V58.6406ZM125.949 57.6406V69.6289H127.949V57.6406H125.949ZM129.656 64.1172H125.883V66.1172H129.656V64.1172ZM126.883 65.1172V62.0469H124.883V65.1172H126.883ZM125.883 63.0469H129.656V61.0469H125.883V63.0469ZM128.656 62.0469V65.1172H130.656V62.0469H128.656ZM119.797 58.8437C119.79 60.6734 119.43 62.2546 118.744 63.6116L120.529 64.5134C121.375 62.8392 121.789 60.9438 121.797 58.8516L119.797 58.8437ZM118.742 63.6153C118.065 64.97 117.052 66.127 115.678 67.0862L116.822 68.7263C118.448 67.5917 119.693 66.1863 120.531 64.5097L118.742 63.6153ZM115.678 67.0862C114.295 68.0511 112.563 68.8168 110.456 69.3642L110.958 71.2999C113.242 70.7066 115.205 69.8552 116.822 68.7263L115.678 67.0862ZM111.604 69.8904L110.128 66.8904L108.333 67.7736L109.81 70.7736L111.604 69.8904ZM109.456 68.3063C111.213 67.8996 112.719 67.3406 113.948 66.6096L112.927 64.8904C111.922 65.4875 110.623 65.9832 109.005 66.3578L109.456 68.3063ZM113.95 66.6085C115.171 65.8796 116.134 65.0174 116.779 63.9997L115.089 62.93C114.655 63.6154 113.954 64.2767 112.925 64.8915L113.95 66.6085ZM116.775 64.0052C117.42 63.0008 117.756 61.9032 117.766 60.7307L115.766 60.7147C115.759 61.4953 115.541 62.2258 115.092 62.9245L116.775 64.0052ZM117.766 60.7227V58.8477H115.766V60.7227H117.766ZM116.766 59.8477H120.797V57.8477H116.766V59.8477ZM119.109 60.7891H110.367V62.7891H119.109V60.7891ZM111.367 61.7891V58.8477H109.367V61.7891H111.367ZM110.367 59.8477H119.109V57.8477H110.367V59.8477ZM118.109 58.8477V61.7891H120.109V58.8477H118.109ZM126.949 78.1094H112.5V80.1094H126.949V78.1094ZM113.5 79.1094V70.3555H111.5V79.1094H113.5ZM112.5 71.3555H126.949V69.3555H112.5V71.3555ZM125.949 70.3555V79.1094H127.949V70.3555H125.949ZM116.227 77.1914H123.246V75.1914H116.227V77.1914ZM124.246 76.1914V73.3555H122.246V76.1914H124.246ZM123.246 72.3555H116.227V74.3555H123.246V72.3555ZM115.227 73.3555V76.1914H117.227V73.3555H115.227ZM150.129 70.918V71.918H151.129V70.918H150.129ZM130.371 70.918H129.371V71.918H130.371V70.918ZM130.371 67.9414V66.9414H129.371V67.9414H130.371ZM150.129 67.9414H151.129V66.9414H150.129V67.9414ZM142.102 68.832V69.832H143.102V68.832H142.102ZM138.328 68.832H137.328V69.832H138.328V68.832ZM138.328 64.5781V63.5781H137.328V64.5781H138.328ZM142.102 64.5781H143.102V63.5781H142.102V64.5781ZM147.809 79.332V80.332H148.809V79.332H147.809ZM144.117 79.332H143.117V80.332H144.117V79.332ZM144.117 74.9258H145.117V73.9258H144.117V74.9258ZM132.539 74.9258H131.539V75.9258H132.539V74.9258ZM132.539 72.0078V71.0078H131.539V72.0078H132.539ZM147.809 72.0078H148.809V71.0078H147.809V72.0078ZM148.078 66.4648V67.4648H149.078V66.4648H148.078ZM132.691 66.4648H131.691V67.4648H132.691V66.4648ZM132.691 63.5117V62.5117H131.691V63.5117H132.691ZM148.078 63.5117H149.078V62.5117H148.078V63.5117ZM147.844 61.4492V62.4492H148.844V61.4492H147.844ZM136.418 61.4492V60.4492H135.418V61.4492H136.418ZM136.418 65.1406V66.1406H137.418V65.1406H136.418ZM132.691 65.1406H131.691V66.1406H132.691V65.1406ZM132.691 58.5312V57.5312H131.691V58.5312H132.691ZM147.844 58.5312H148.844V57.5312H147.844V58.5312ZM150.129 69.918H130.371V71.918H150.129V69.918ZM131.371 70.918V67.9414H129.371V70.918H131.371ZM130.371 68.9414H150.129V66.9414H130.371V68.9414ZM149.129 67.9414V70.918H151.129V67.9414H149.129ZM142.102 67.832H138.328V69.832H142.102V67.832ZM139.328 68.832V64.5781H137.328V68.832H139.328ZM138.328 65.5781H142.102V63.5781H138.328V65.5781ZM141.102 64.5781V68.832H143.102V64.5781H141.102ZM147.809 78.332H144.117V80.332H147.809V78.332ZM145.117 79.332V74.9258H143.117V79.332H145.117ZM144.117 73.9258H132.539V75.9258H144.117V73.9258ZM133.539 74.9258V72.0078H131.539V74.9258H133.539ZM132.539 73.0078H147.809V71.0078H132.539V73.0078ZM146.809 72.0078V79.332H148.809V72.0078H146.809ZM148.078 65.4648H132.691V67.4648H148.078V65.4648ZM133.691 66.4648V63.5117H131.691V66.4648H133.691ZM132.691 64.5117H148.078V62.5117H132.691V64.5117ZM147.078 63.5117V66.4648H149.078V63.5117H147.078ZM147.844 60.4492H136.418V62.4492H147.844V60.4492ZM135.418 61.4492V65.1406H137.418V61.4492H135.418ZM136.418 64.1406H132.691V66.1406H136.418V64.1406ZM133.691 65.1406V58.5312H131.691V65.1406H133.691ZM132.691 59.5312H147.844V57.5312H132.691V59.5312ZM146.844 58.5312V61.4492H148.844V58.5312H146.844ZM85.1719 97.2109V98.2109H86.1719V97.2109H85.1719ZM74.3438 97.2109H73.3438V98.2109H74.3438V97.2109ZM74.3438 87.8945V86.8945H73.3438V87.8945H74.3438ZM85.1719 87.8945H86.1719V86.8945H85.1719V87.8945ZM78.0234 94.3047H77.0234V95.3047H78.0234V94.3047ZM81.4453 94.3047V95.3047H82.4453V94.3047H81.4453ZM81.4453 90.8008H82.4453V89.8008H81.4453V90.8008ZM78.0234 90.8008V89.8008H77.0234V90.8008H78.0234ZM91.5234 98.8398V99.8398H92.5234V98.8398H91.5234ZM87.7734 98.8398H86.7734V99.8398H87.7734V98.8398ZM87.7734 86.6406V85.6406H86.7734V86.6406H87.7734ZM91.5234 86.6406H92.5234V85.6406H91.5234V86.6406ZM85.2422 101.969L86.2422 101.976V101.969H85.2422ZM84.3047 104.922L83.4827 104.352L83.4794 104.357L84.3047 104.922ZM81.4219 107.148L81.0097 106.237L81.0032 106.24L81.4219 107.148ZM76.4766 108.297L75.5639 108.705L75.8531 109.352L76.5586 109.294L76.4766 108.297ZM75.2227 105.496L75.1517 104.499L73.7258 104.6L74.31 105.905L75.2227 105.496ZM79.207 104.746L79.5621 105.681L79.566 105.679L79.207 104.746ZM81.3516 103.422L80.5923 102.771L80.5863 102.778L81.3516 103.422ZM81.9844 101.746V100.746H80.9844V101.746H81.9844ZM85.2422 101.746H86.2422V100.746H85.2422V101.746ZM86.543 103.398L85.7896 104.056L85.7949 104.062L86.543 103.398ZM88.6992 104.711L88.3378 105.643L88.3402 105.644L88.6992 104.711ZM92.6836 105.496L93.5991 105.898L94.164 104.613L92.7643 104.499L92.6836 105.496ZM91.4531 108.297L91.3791 109.294L92.0843 109.346L92.3687 108.699L91.4531 108.297ZM86.4844 107.148L86.9099 106.243L86.9055 106.241L86.4844 107.148ZM83.5898 104.887L82.7633 105.45L82.7656 105.453L83.5898 104.887ZM82.6758 101.969L83.6758 101.976V101.969H82.6758ZM82.6758 101.746V100.746H81.6758V101.746H82.6758ZM85.8984 101.746H86.8984V100.746H85.8984V101.746ZM91.8047 102.578V103.578H92.8047V102.578H91.8047ZM76.0898 102.578H75.0898V103.578H76.0898V102.578ZM76.0898 99.8477V98.8477H75.0898V99.8477H76.0898ZM91.8047 99.8477H92.8047V98.8477H91.8047V99.8477ZM85.8281 101.172V102.172H86.8281V101.172H85.8281ZM82.0312 101.172H81.0312V102.172H82.0312V101.172ZM82.0312 98.2773V97.2773H81.0312V98.2773H82.0312ZM85.8281 98.2773H86.8281V97.2773H85.8281V98.2773ZM85.1719 96.2109H74.3438V98.2109H85.1719V96.2109ZM75.3438 97.2109V87.8945H73.3438V97.2109H75.3438ZM74.3438 88.8945H85.1719V86.8945H74.3438V88.8945ZM84.1719 87.8945V97.2109H86.1719V87.8945H84.1719ZM78.0234 95.3047H81.4453V93.3047H78.0234V95.3047ZM82.4453 94.3047V90.8008H80.4453V94.3047H82.4453ZM81.4453 89.8008H78.0234V91.8008H81.4453V89.8008ZM77.0234 90.8008V94.3047H79.0234V90.8008H77.0234ZM91.5234 97.8398H87.7734V99.8398H91.5234V97.8398ZM88.7734 98.8398V86.6406H86.7734V98.8398H88.7734ZM87.7734 87.6406H91.5234V85.6406H87.7734V87.6406ZM90.5234 86.6406V98.8398H92.5234V86.6406H90.5234ZM84.2422 101.962C84.2359 102.837 83.986 103.626 83.4828 104.352L85.1266 105.491C85.8577 104.436 86.2329 103.256 86.2422 101.976L84.2422 101.962ZM83.4794 104.357C83.0025 105.054 82.2096 105.695 81.0097 106.237L81.834 108.06C83.2591 107.415 84.3881 106.571 85.13 105.487L83.4794 104.357ZM81.0032 106.24C79.8373 106.778 78.3124 107.142 76.3945 107.3L76.5586 109.294C78.6251 109.123 80.3971 108.722 81.8406 108.057L81.0032 106.24ZM77.3893 107.888L76.1354 105.087L74.31 105.905L75.5639 108.705L77.3893 107.888ZM75.2936 106.494C76.9933 106.373 78.4283 106.112 79.5621 105.681L78.8519 103.811C77.9702 104.146 76.7489 104.385 75.1517 104.499L75.2936 106.494ZM79.566 105.679C80.6436 105.265 81.5429 104.748 82.1168 104.066L80.5863 102.778C80.3321 103.08 79.8018 103.446 78.8481 103.813L79.566 105.679ZM82.1108 104.073C82.6319 103.465 82.9844 102.758 82.9844 101.969H80.9844C80.9844 102.133 80.915 102.395 80.5923 102.771L82.1108 104.073ZM82.9844 101.969V101.746H80.9844V101.969H82.9844ZM81.9844 102.746H85.2422V100.746H81.9844V102.746ZM84.2422 101.746V101.969H86.2422V101.746H84.2422ZM84.8984 101.969C84.8984 102.756 85.2667 103.457 85.7897 104.056L87.2963 102.741C86.9599 102.355 86.8984 102.104 86.8984 101.969H84.8984ZM85.7949 104.062C86.3785 104.72 87.2688 105.229 88.3378 105.643L89.0606 103.779C88.114 103.412 87.5668 103.046 87.291 102.735L85.7949 104.062ZM88.3402 105.644C89.4783 106.082 90.9105 106.356 92.6029 106.493L92.7643 104.499C91.1755 104.371 89.9514 104.121 89.0582 103.778L88.3402 105.644ZM91.7681 105.094L90.5376 107.895L92.3687 108.699L93.5991 105.898L91.7681 105.094ZM91.5271 107.3C89.6056 107.157 88.0784 106.793 86.9099 106.243L86.0588 108.053C87.5154 108.738 89.3006 109.14 91.3791 109.294L91.5271 107.3ZM86.9055 106.241C85.7038 105.684 84.9018 105.031 84.4141 104.32L82.7656 105.453C83.5122 106.54 84.6399 107.395 86.0633 108.055L86.9055 106.241ZM84.4164 104.324C83.907 103.576 83.6696 102.8 83.6758 101.976L81.6758 101.961C81.6664 103.215 82.0383 104.385 82.7633 105.45L84.4164 104.324ZM83.6758 101.969V101.746H81.6758V101.969H83.6758ZM82.6758 102.746H85.8984V100.746H82.6758V102.746ZM84.8984 101.746V101.969H86.8984V101.746H84.8984ZM91.8047 101.578H76.0898V103.578H91.8047V101.578ZM77.0898 102.578V99.8477H75.0898V102.578H77.0898ZM76.0898 100.848H91.8047V98.8477H76.0898V100.848ZM90.8047 99.8477V102.578H92.8047V99.8477H90.8047ZM85.8281 100.172H82.0312V102.172H85.8281V100.172ZM83.0312 101.172V98.2773H81.0312V101.172H83.0312ZM82.0312 99.2773H85.8281V97.2773H82.0312V99.2773ZM84.8281 98.2773V101.172H86.8281V98.2773H84.8281ZM119.016 100.527V101.527H120.016V100.527H119.016ZM99.1875 100.527H98.1875V101.527H99.1875V100.527ZM99.1875 97.6211V96.6211H98.1875V97.6211H99.1875ZM119.016 97.6211H120.016V96.6211H119.016V97.6211ZM110.965 98.6523V99.6523H111.965V98.6523H110.965ZM107.191 98.6523H106.191V99.6523H107.191V98.6523ZM107.191 95.5352V94.5352H106.191V95.5352H107.191ZM110.965 95.5352H111.965V94.5352H110.965V95.5352ZM117 96.8125V97.8125H118V96.8125H117ZM101.566 96.8125H100.566V97.8125H101.566V96.8125ZM101.566 93.9648V92.9648H100.566V93.9648H101.566ZM117 93.9648H118V92.9648H117V93.9648ZM116.801 89.9688V90.9688H117.801V89.9688H116.801ZM105.316 89.9688V88.9688H104.316V89.9688H105.316ZM105.316 95.6055V96.6055H106.316V95.6055H105.316ZM101.566 95.6055H100.566V96.6055H101.566V95.6055ZM101.566 87.1211V86.1211H100.566V87.1211H101.566ZM116.801 87.1211H117.801V86.1211H116.801V87.1211ZM116.32 93.3203V94.3203H117.32V93.3203H116.32ZM104.262 93.3203H103.262V94.3203H104.262V93.3203ZM104.262 90.6484V89.6484H103.262V90.6484H104.262ZM116.32 90.6484H117.32V89.6484H116.32V90.6484ZM113.156 101.523L112.915 102.494L112.917 102.494L113.156 101.523ZM115.77 102.766L115.097 103.506L115.102 103.51L115.77 102.766ZM113.168 107.934L112.933 106.961L112.927 106.963L113.168 107.934ZM104.93 107.934L105.169 106.963L105.163 106.961L104.93 107.934ZM102.316 102.766L102.984 103.51L102.989 103.506L102.316 102.766ZM104.93 101.523L104.692 100.552L104.69 100.553L104.93 101.523ZM109.078 103.855L109.07 104.855L109.078 104.856L109.086 104.855L109.078 103.855ZM106.793 103.926L106.876 104.922L106.89 104.921L106.793 103.926ZM105.551 104.195L105.104 103.301L105.093 103.306L105.551 104.195ZM105.176 104.723L106.175 104.757L106.176 104.722L106.175 104.687L105.176 104.723ZM105.551 105.262L105.093 106.151L105.109 106.159L105.125 106.167L105.551 105.262ZM109.078 105.625L109.07 106.625L109.078 106.625L109.086 106.625L109.078 105.625ZM111.305 105.531L111.207 104.536L111.205 104.536L111.305 105.531ZM112.512 105.262L112.959 106.156L112.97 106.151L112.512 105.262ZM112.512 104.195L112.043 105.078L112.054 105.084L112.512 104.195ZM111.305 103.926L111.205 104.921L111.213 104.922L111.22 104.922L111.305 103.926ZM119.016 99.5273H99.1875V101.527H119.016V99.5273ZM100.188 100.527V97.6211H98.1875V100.527H100.188ZM99.1875 98.6211H119.016V96.6211H99.1875V98.6211ZM118.016 97.6211V100.527H120.016V97.6211H118.016ZM110.965 97.6523H107.191V99.6523H110.965V97.6523ZM108.191 98.6523V95.5352H106.191V98.6523H108.191ZM107.191 96.5352H110.965V94.5352H107.191V96.5352ZM109.965 95.5352V98.6523H111.965V95.5352H109.965ZM117 95.8125H101.566V97.8125H117V95.8125ZM102.566 96.8125V93.9648H100.566V96.8125H102.566ZM101.566 94.9648H117V92.9648H101.566V94.9648ZM116 93.9648V96.8125H118V93.9648H116ZM116.801 88.9688H105.316V90.9688H116.801V88.9688ZM104.316 89.9688V95.6055H106.316V89.9688H104.316ZM105.316 94.6055H101.566V96.6055H105.316V94.6055ZM102.566 95.6055V87.1211H100.566V95.6055H102.566ZM101.566 88.1211H116.801V86.1211H101.566V88.1211ZM115.801 87.1211V89.9688H117.801V87.1211H115.801ZM116.32 92.3203H104.262V94.3203H116.32V92.3203ZM105.262 93.3203V90.6484H103.262V93.3203H105.262ZM104.262 91.6484H116.32V89.6484H104.262V91.6484ZM115.32 90.6484V93.3203H117.32V90.6484H115.32ZM109.078 102.102C110.61 102.102 111.884 102.238 112.915 102.494L113.397 100.553C112.163 100.247 110.718 100.102 109.078 100.102V102.102ZM112.917 102.494C113.963 102.752 114.661 103.109 115.097 103.506L116.442 102.026C115.675 101.328 114.631 100.857 113.396 100.553L112.917 102.494ZM115.102 103.51C115.505 103.872 115.672 104.258 115.672 104.723H117.672C117.672 103.656 117.237 102.738 116.437 102.021L115.102 103.51ZM115.672 104.723C115.672 105.22 115.498 105.616 115.102 105.97L116.437 107.46C117.244 106.736 117.672 105.804 117.672 104.723H115.672ZM115.102 105.97C114.666 106.361 113.972 106.711 112.933 106.962L113.403 108.906C114.63 108.609 115.67 108.147 116.437 107.46L115.102 105.97ZM112.927 106.963C111.896 107.219 110.618 107.355 109.078 107.355V109.355C110.726 109.355 112.175 109.211 113.409 108.904L112.927 106.963ZM109.078 107.355C107.505 107.355 106.208 107.219 105.169 106.963L104.69 108.905C105.933 109.211 107.401 109.355 109.078 109.355V107.355ZM105.163 106.961C104.116 106.71 103.418 106.36 102.984 105.97L101.649 107.46C102.418 108.148 103.463 108.61 104.697 108.906L105.163 106.961ZM102.984 105.97C102.588 105.616 102.414 105.22 102.414 104.723H100.414C100.414 105.804 100.842 106.736 101.649 107.46L102.984 105.97ZM102.414 104.723C102.414 104.258 102.581 103.872 102.984 103.51L101.649 102.021C100.849 102.738 100.414 103.656 100.414 104.723H102.414ZM102.989 103.506C103.425 103.109 104.123 102.752 105.169 102.494L104.69 100.553C103.455 100.857 102.411 101.328 101.644 102.026L102.989 103.506ZM105.168 102.495C106.216 102.238 107.514 102.102 109.078 102.102V100.102C107.408 100.102 105.941 100.246 104.692 100.552L105.168 102.495ZM109.086 102.856C108.111 102.848 107.309 102.871 106.696 102.93L106.89 104.921C107.402 104.871 108.124 104.848 109.07 104.855L109.086 102.856ZM106.71 102.929C106.114 102.979 105.544 103.081 105.104 103.301L105.998 105.09C106.089 105.044 106.347 104.966 106.876 104.922L106.71 102.929ZM105.093 103.306C104.623 103.548 104.15 104.023 104.176 104.758L106.175 104.687C106.177 104.734 106.172 104.79 106.153 104.851C106.135 104.913 106.108 104.965 106.079 105.006C106.022 105.086 105.975 105.102 106.009 105.084L105.093 103.306ZM104.176 104.688C104.151 105.416 104.606 105.9 105.093 106.151L106.009 104.373C105.98 104.358 106.029 104.376 106.085 104.456C106.113 104.498 106.139 104.549 106.156 104.607C106.172 104.664 106.177 104.716 106.175 104.757L104.176 104.688ZM105.125 106.167C105.551 106.367 106.105 106.469 106.696 106.527L106.89 104.536C106.356 104.484 106.082 104.407 105.977 104.357L105.125 106.167ZM106.696 106.527C107.301 106.585 108.097 106.617 109.07 106.625L109.086 104.625C108.138 104.617 107.409 104.586 106.89 104.536L106.696 106.527ZM109.086 106.625C110.036 106.617 110.813 106.585 111.404 106.526L111.205 104.536C110.702 104.586 109.995 104.617 109.07 104.625L109.086 106.625ZM111.403 106.526C111.983 106.469 112.538 106.367 112.959 106.156L112.065 104.367C111.986 104.407 111.736 104.484 111.207 104.536L111.403 106.526ZM112.97 106.151C113.45 105.903 113.898 105.433 113.898 104.723H111.898C111.898 104.683 111.904 104.634 111.921 104.581C111.938 104.528 111.962 104.482 111.989 104.444C112.041 104.372 112.084 104.357 112.054 104.373L112.97 106.151ZM113.898 104.723C113.898 104.006 113.434 103.546 112.97 103.306L112.054 105.084C112.089 105.102 112.048 105.089 111.995 105.018C111.968 104.981 111.942 104.934 111.924 104.877C111.905 104.821 111.898 104.768 111.898 104.723H113.898ZM112.981 103.312C112.545 103.08 111.973 102.979 111.389 102.929L111.22 104.922C111.745 104.967 111.979 105.045 112.043 105.078L112.981 103.312ZM111.404 102.931C110.805 102.871 110.022 102.848 109.07 102.856L109.086 104.855C110.009 104.848 110.71 104.871 111.205 104.921L111.404 102.931ZM138.82 108.32V109.32H139.82V108.32H138.82ZM135.305 108.32H134.305V109.32H135.305V108.32ZM135.305 86.6406V85.6406H134.305V86.6406H135.305ZM138.82 86.6406H139.82V85.6406H138.82V86.6406ZM131.801 96.8594V97.8594H132.801V96.8594H131.801ZM128.52 96.8594H127.52V97.8594H128.52V96.8594ZM128.52 93.8594V92.8594H127.52V93.8594H128.52ZM131.801 93.8594H132.801V92.8594H131.801V93.8594ZM134.367 107.418V108.418H135.367V107.418H134.367ZM130.863 107.418H129.863V108.418H130.863V107.418ZM130.863 86.9102V85.9102H129.863V86.9102H130.863ZM134.367 86.9102H135.367V85.9102H134.367V86.9102ZM126.34 92.2188L127.34 92.2232V92.2188H126.34ZM125.871 97.2227L124.89 97.0313L124.889 97.036L125.871 97.2227ZM124.383 101.465L123.506 100.983L123.504 100.988L124.383 101.465ZM121.641 104.406L120.866 105.039L121.417 105.714L122.161 105.26L121.641 104.406ZM119.402 101.664L118.867 100.82L117.915 101.423L118.628 102.296L119.402 101.664ZM121.887 99.168L121.036 98.6427L121.033 98.6476L121.887 99.168ZM123.164 95.9219L122.185 95.7182L122.184 95.7245L123.164 95.9219ZM123.539 92.2188L124.539 92.2247V92.2188H123.539ZM123.539 90.2969V89.2969H122.539V90.2969H123.539ZM126.34 90.2969H127.34V89.2969H126.34V90.2969ZM127.148 92.2188L128.148 92.2248V92.2188H127.148ZM127.477 95.8281L126.496 96.0269L126.498 96.0348L127.477 95.8281ZM131.191 101.172L131.976 101.792L132.697 100.88L131.688 100.304L131.191 101.172ZM129.023 103.914L128.525 104.781L129.273 105.211L129.808 104.534L129.023 103.914ZM126.258 101.137L125.39 101.633L125.392 101.638L126.258 101.137ZM124.816 97.1289L123.834 97.3141L123.834 97.3151L124.816 97.1289ZM124.395 90.2969V89.2969H123.395V90.2969H124.395ZM127.148 90.2969H128.148V89.2969H127.148V90.2969ZM129.996 91.6211V92.6211H130.996V91.6211H129.996ZM120.363 91.6211H119.363V92.6211H120.363V91.6211ZM120.363 88.6445V87.6445H119.363V88.6445H120.363ZM129.996 88.6445H130.996V87.6445H129.996V88.6445ZM138.82 107.32H135.305V109.32H138.82V107.32ZM136.305 108.32V86.6406H134.305V108.32H136.305ZM135.305 87.6406H138.82V85.6406H135.305V87.6406ZM137.82 86.6406V108.32H139.82V86.6406H137.82ZM131.801 95.8594H128.52V97.8594H131.801V95.8594ZM129.52 96.8594V93.8594H127.52V96.8594H129.52ZM128.52 94.8594H131.801V92.8594H128.52V94.8594ZM130.801 93.8594V96.8594H132.801V93.8594H130.801ZM134.367 106.418H130.863V108.418H134.367V106.418ZM131.863 107.418V86.9102H129.863V107.418H131.863ZM130.863 87.9102H134.367V85.9102H130.863V87.9102ZM133.367 86.9102V107.418H135.367V86.9102H133.367ZM125.34 92.2143C125.332 93.932 125.181 95.5369 124.89 97.0313L126.853 97.4141C127.171 95.7834 127.332 94.0524 127.34 92.2232L125.34 92.2143ZM124.889 97.036C124.609 98.5056 124.146 99.8187 123.506 100.983L125.259 101.946C126.01 100.58 126.539 99.0647 126.854 97.4093L124.889 97.036ZM123.504 100.988C122.894 102.111 122.099 102.956 121.12 103.552L122.161 105.26C123.464 104.466 124.497 103.35 125.262 101.942L123.504 100.988ZM122.415 103.774L120.177 101.032L118.628 102.296L120.866 105.039L122.415 103.774ZM119.938 102.509C121.107 101.767 122.047 100.827 122.741 99.6883L121.033 98.6476C120.508 99.5089 119.792 100.233 118.867 100.82L119.938 102.509ZM122.738 99.6932C123.418 98.5914 123.887 97.3982 124.144 96.1193L122.184 95.7245C121.972 96.7737 121.59 97.7446 121.036 98.6428L122.738 99.6932ZM124.143 96.1256C124.4 94.8905 124.531 93.5895 124.539 92.2247L122.539 92.2128C122.532 93.4574 122.412 94.6251 122.185 95.7182L124.143 96.1256ZM124.539 92.2188V90.2969H122.539V92.2188H124.539ZM123.539 91.2969H126.34V89.2969H123.539V91.2969ZM125.34 90.2969V92.2188H127.34V90.2969H125.34ZM126.148 92.2127C126.14 93.5618 126.255 94.8342 126.497 96.0269L128.457 95.6294C128.245 94.5877 128.141 93.4539 128.148 92.2248L126.148 92.2127ZM126.498 96.0348C126.757 97.261 127.221 98.3951 127.891 99.43L129.57 98.3435C129.037 97.519 128.665 96.614 128.455 95.6214L126.498 96.0348ZM127.891 99.43C128.586 100.505 129.529 101.374 130.695 102.04L131.688 100.304C130.776 99.7826 130.078 99.1283 129.57 98.3435L127.891 99.43ZM130.407 100.552L128.239 103.294L129.808 104.534L131.976 101.792L130.407 100.552ZM129.521 103.047C128.522 102.473 127.725 101.676 127.123 100.636L125.392 101.638C126.165 102.973 127.212 104.027 128.525 104.781L129.521 103.047ZM127.126 100.64C126.507 99.5584 126.062 98.3293 125.799 96.9427L123.834 97.3151C124.134 98.8973 124.65 100.34 125.39 101.633L127.126 100.64ZM125.799 96.9437C125.531 95.522 125.395 93.9482 125.395 92.2188H123.395C123.395 94.0518 123.539 95.7515 123.834 97.3141L125.799 96.9437ZM125.395 92.2188V90.2969H123.395V92.2188H125.395ZM124.395 91.2969H127.148V89.2969H124.395V91.2969ZM126.148 90.2969V92.2188H128.148V90.2969H126.148ZM129.996 90.6211H120.363V92.6211H129.996V90.6211ZM121.363 91.6211V88.6445H119.363V91.6211H121.363ZM120.363 89.6445H129.996V87.6445H120.363V89.6445ZM128.996 88.6445V91.6211H130.996V88.6445H128.996Z" fill="black" mask="url(#path-2-outside-1_839_47)"/>
<path d="M46.0234 163.02H42.0586V161.75H46.0234V163.02ZM47.0977 167.57H45.5547V157.219H47.0977V167.57ZM41.3359 168.117C42.5339 168.117 43.569 168.244 44.4414 168.498C45.3138 168.752 45.9844 169.12 46.4531 169.602C46.9219 170.083 47.1562 170.663 47.1562 171.34C47.1562 172.017 46.9219 172.596 46.4531 173.078C45.9844 173.56 45.3138 173.928 44.4414 174.182C43.569 174.442 42.5339 174.576 41.3359 174.582C40.1315 174.576 39.0931 174.442 38.2207 174.182C37.3548 173.928 36.6875 173.56 36.2188 173.078C35.75 172.596 35.5156 172.017 35.5156 171.34C35.5156 170.663 35.75 170.083 36.2188 169.602C36.6875 169.12 37.3581 168.752 38.2305 168.498C39.1029 168.244 40.138 168.117 41.3359 168.117ZM41.3359 169.309C40.4505 169.309 39.6855 169.39 39.041 169.553C38.3965 169.715 37.9017 169.95 37.5566 170.256C37.2116 170.562 37.0391 170.923 37.0391 171.34C37.0391 171.757 37.2116 172.115 37.5566 172.414C37.9017 172.714 38.3965 172.945 39.041 173.107C39.6855 173.27 40.4505 173.352 41.3359 173.352C42.2148 173.352 42.9766 173.27 43.6211 173.107C44.2721 172.945 44.7702 172.714 45.1152 172.414C45.4603 172.115 45.6328 171.757 45.6328 171.34C45.6328 170.923 45.4603 170.562 45.1152 170.256C44.7702 169.95 44.2721 169.715 43.6211 169.553C42.9766 169.39 42.2148 169.309 41.3359 169.309ZM38.4648 160.422C38.4648 161.464 38.2598 162.45 37.8496 163.381C37.4395 164.312 36.8633 165.126 36.1211 165.822C35.3854 166.519 34.5391 167.049 33.582 167.414L32.7812 166.184C33.6341 165.878 34.3926 165.428 35.0566 164.836C35.7272 164.237 36.2513 163.557 36.6289 162.795C37.0065 162.027 37.1953 161.236 37.1953 160.422V158.977H38.4648V160.422ZM38.7383 160.402C38.7383 161.151 38.9173 161.877 39.2754 162.58C39.6335 163.277 40.138 163.898 40.7891 164.445C41.4401 164.992 42.1823 165.409 43.0156 165.695L42.2148 166.926C41.2839 166.587 40.4603 166.089 39.7441 165.432C39.0345 164.774 38.4811 164.012 38.084 163.146C37.6868 162.274 37.4883 161.359 37.4883 160.402V158.977H38.7383V160.402ZM42.625 159.777H33.2695V158.488H42.625V159.777ZM65.8672 168.781H49.9688V167.531H65.8672V168.781ZM58.6211 174.582H57.1172V168.078H58.6211V174.582ZM53.5234 160.344H62.2734V157.941H63.8164V165.422H52V157.941H53.5234V160.344ZM62.2734 164.172V161.594H53.5234V164.172H62.2734ZM80.7109 174.582H79.1875V157.219H80.7109V174.582ZM83.5234 165.578H80.3203V164.289H83.5234V165.578ZM76.2188 159.094C76.2122 160.78 75.9323 162.375 75.3789 163.879C74.832 165.376 73.9661 166.76 72.7812 168.029C71.5964 169.292 70.0859 170.376 68.25 171.281L67.3906 170.07C68.9987 169.27 70.3464 168.329 71.4336 167.248C72.5273 166.161 73.3444 164.956 73.8848 163.635C74.4316 162.313 74.7083 160.884 74.7148 159.348V159.094H76.2188ZM75.4961 160.383H68.1914V159.094H75.4961V160.383ZM102.879 159.328H91.5898V158.078H102.879V159.328ZM105.477 165.52H89.5781V164.27H105.477V165.52ZM98.25 169.25H96.7266V165.109H98.25V169.25ZM103.387 159.328C103.387 160.324 103.354 161.239 103.289 162.072C103.224 162.899 103.068 163.846 102.82 164.914L101.316 164.719C101.486 164.009 101.609 163.348 101.688 162.736C101.766 162.118 101.814 161.571 101.834 161.096C101.854 160.62 101.863 160.07 101.863 159.445V159.328V158.078H103.387V159.328ZM103.504 174.582H101.961V169.992H91.2188V168.723H103.504V174.582ZM115.926 166.789H107.781V158.742H115.926V166.789ZM109.285 165.559H114.422V160.012H109.285V165.559ZM121.199 169.719H119.676V157.238H121.199V169.719ZM121.746 173.996H109.988V172.727H121.746V173.996ZM111.512 173.254H109.988V168.508H111.512V173.254ZM132.059 157.531C133.341 157.531 134.441 157.645 135.359 157.873C136.284 158.101 136.987 158.439 137.469 158.889C137.951 159.338 138.191 159.882 138.191 160.52C138.191 161.171 137.951 161.724 137.469 162.18C136.987 162.635 136.287 162.98 135.369 163.215C134.451 163.443 133.348 163.56 132.059 163.566C130.763 163.56 129.656 163.443 128.738 163.215C127.827 162.98 127.127 162.635 126.639 162.18C126.15 161.724 125.906 161.171 125.906 160.52C125.906 159.882 126.15 159.338 126.639 158.889C127.127 158.439 127.83 158.101 128.748 157.873C129.666 157.645 130.77 157.531 132.059 157.531ZM132.059 158.684C131.102 158.684 130.281 158.758 129.598 158.908C128.921 159.058 128.4 159.27 128.035 159.543C127.677 159.816 127.501 160.142 127.508 160.52C127.501 160.917 127.677 161.258 128.035 161.545C128.4 161.825 128.921 162.036 129.598 162.18C130.281 162.323 131.102 162.395 132.059 162.395C133.016 162.395 133.836 162.323 134.52 162.18C135.21 162.036 135.734 161.825 136.092 161.545C136.45 161.265 136.629 160.923 136.629 160.52C136.629 160.142 136.45 159.816 136.092 159.543C135.734 159.27 135.21 159.058 134.52 158.908C133.829 158.758 133.009 158.684 132.059 158.684ZM139.969 165.988H124.148V164.738H139.969V165.988ZM137.938 171.379H127.625V173.488H126.102V170.246H136.434V168.664H126.062V167.492H137.938V171.379ZM138.465 174.387H126.102V173.176H138.465V174.387ZM152.176 158.078C153.035 158.072 153.803 158.218 154.48 158.518C155.158 158.811 155.685 159.227 156.062 159.768C156.44 160.301 156.629 160.917 156.629 161.613C156.629 162.31 156.44 162.928 156.062 163.469C155.685 164.003 155.158 164.419 154.48 164.719C153.803 165.018 153.035 165.168 152.176 165.168C151.316 165.168 150.551 165.018 149.881 164.719C149.21 164.419 148.683 164.003 148.299 163.469C147.915 162.928 147.723 162.31 147.723 161.613C147.723 160.917 147.915 160.301 148.299 159.768C148.683 159.227 149.21 158.811 149.881 158.518C150.551 158.218 151.316 158.072 152.176 158.078ZM152.176 159.328C151.609 159.322 151.098 159.416 150.643 159.611C150.193 159.8 149.842 160.07 149.588 160.422C149.34 160.773 149.22 161.171 149.227 161.613C149.22 162.056 149.34 162.45 149.588 162.795C149.842 163.14 150.193 163.41 150.643 163.605C151.092 163.801 151.603 163.898 152.176 163.898C152.755 163.898 153.27 163.801 153.719 163.605C154.174 163.41 154.529 163.143 154.783 162.805C155.037 162.46 155.164 162.062 155.164 161.613C155.164 161.171 155.037 160.773 154.783 160.422C154.529 160.07 154.174 159.8 153.719 159.611C153.263 159.416 152.749 159.322 152.176 159.328ZM153.035 174.055H151.512V167.121H153.035V174.055ZM160.77 174.602H159.266V157.238H160.77V174.602ZM146.414 166.652C148.491 166.659 150.509 166.62 152.469 166.535C154.428 166.451 156.271 166.281 157.996 166.027L158.094 167.18C156.941 167.395 155.743 167.557 154.5 167.668C153.263 167.772 152.072 167.847 150.926 167.893C149.786 167.932 148.562 167.954 147.254 167.961C147.111 167.961 147.003 167.961 146.932 167.961C146.867 167.961 146.766 167.961 146.629 167.961L146.414 166.652ZM172.41 161.477H163.699V160.227H172.41V161.477ZM168.055 162.648C168.777 162.648 169.422 162.818 169.988 163.156C170.561 163.495 171.007 163.964 171.326 164.562C171.652 165.155 171.818 165.832 171.824 166.594C171.818 167.362 171.652 168.046 171.326 168.645C171.007 169.243 170.561 169.715 169.988 170.061C169.422 170.406 168.777 170.578 168.055 170.578C167.345 170.578 166.704 170.406 166.131 170.061C165.564 169.715 165.122 169.243 164.803 168.645C164.484 168.046 164.324 167.362 164.324 166.594C164.324 165.839 164.487 165.161 164.812 164.562C165.138 163.964 165.581 163.495 166.141 163.156C166.707 162.818 167.345 162.648 168.055 162.648ZM168.055 163.938C167.599 163.944 167.192 164.064 166.834 164.299C166.476 164.527 166.196 164.842 165.994 165.246C165.792 165.643 165.691 166.092 165.691 166.594C165.691 167.102 165.792 167.554 165.994 167.951C166.196 168.348 166.476 168.661 166.834 168.889C167.192 169.117 167.599 169.23 168.055 169.23C168.51 169.23 168.921 169.117 169.285 168.889C169.65 168.661 169.936 168.348 170.145 167.951C170.353 167.554 170.457 167.102 170.457 166.594C170.457 166.092 170.353 165.643 170.145 165.246C169.936 164.842 169.65 164.527 169.285 164.299C168.921 164.064 168.51 163.944 168.055 163.938ZM178.523 174.582H177.059V157.219H178.523V174.582ZM177.547 165.812H174.227V164.543H177.547V165.812ZM174.754 173.723H173.309V157.648H174.754V173.723ZM168.836 160.988H167.312V157.746H168.836V160.988ZM37.3711 182.566C38.2109 182.566 38.9596 182.814 39.6172 183.309C40.2812 183.803 40.7956 184.51 41.1602 185.428C41.5247 186.346 41.707 187.41 41.707 188.621C41.707 189.839 41.5247 190.903 41.1602 191.814C40.7956 192.719 40.2812 193.419 39.6172 193.914C38.9596 194.409 38.2109 194.656 37.3711 194.656C36.5182 194.656 35.7598 194.409 35.0957 193.914C34.4382 193.419 33.9271 192.719 33.5625 191.814C33.1979 190.903 33.0156 189.839 33.0156 188.621C33.0156 187.41 33.1979 186.346 33.5625 185.428C33.9271 184.51 34.4382 183.803 35.0957 183.309C35.7598 182.814 36.5182 182.566 37.3711 182.566ZM37.3711 183.934C36.8047 183.934 36.3034 184.129 35.8672 184.52C35.4375 184.91 35.099 185.46 34.8516 186.17C34.6042 186.873 34.4805 187.69 34.4805 188.621C34.4805 189.552 34.6042 190.372 34.8516 191.082C35.099 191.785 35.4375 192.329 35.8672 192.713C36.3034 193.097 36.8047 193.289 37.3711 193.289C37.931 193.289 38.4323 193.097 38.875 192.713C39.3177 192.329 39.6595 191.782 39.9004 191.072C40.1413 190.363 40.2617 189.546 40.2617 188.621C40.2617 187.697 40.1413 186.88 39.9004 186.17C39.6595 185.46 39.3177 184.91 38.875 184.52C38.4323 184.129 37.931 183.934 37.3711 183.934ZM47.0977 198.621H45.5742V181.219H47.0977V198.621ZM46.2578 189.129H41.1992V187.859H46.2578V189.129ZM65.0078 198.211H52.918V196.922H65.0078V198.211ZM54.4414 197.605H52.918V192.82H54.4414V197.605ZM64.5391 193.855H63.0352V181.238H64.5391V193.855ZM64.2461 187.293H59.832V186.023H64.2461V187.293ZM51.2188 189.812C51.8893 189.806 52.5306 189.777 53.1426 189.725C53.7546 189.673 54.3958 189.572 55.0664 189.422L55.2227 190.691C54.5586 190.841 53.9401 190.939 53.3672 190.984C52.8008 191.023 52.1758 191.043 51.4922 191.043H51.2188H50.4766V189.812H51.2188ZM54.8711 183.934H51.9805V190.203H50.4766V182.664H54.8711V183.934ZM56.707 189.812C57.7161 189.806 58.5625 189.777 59.2461 189.725C59.9297 189.666 60.6263 189.552 61.3359 189.383L61.4922 190.652C60.7435 190.815 60.0241 190.923 59.334 190.975C58.6504 191.02 57.7747 191.043 56.707 191.043H55.8281V189.812H56.707ZM60.6719 183.934H57.3711V190.145H55.8281V182.664H60.6719V183.934ZM77.2148 181.863C78.0742 181.863 78.8457 182.026 79.5293 182.352C80.2129 182.677 80.7467 183.133 81.1309 183.719C81.515 184.305 81.707 184.969 81.707 185.711C81.707 186.453 81.515 187.114 81.1309 187.693C80.7467 188.273 80.2129 188.725 79.5293 189.051C78.8457 189.376 78.0742 189.539 77.2148 189.539C76.349 189.539 75.571 189.376 74.8809 189.051C74.1973 188.725 73.6634 188.273 73.2793 187.693C72.8952 187.114 72.7031 186.453 72.7031 185.711C72.7031 184.969 72.8952 184.305 73.2793 183.719C73.6634 183.133 74.1973 182.677 74.8809 182.352C75.571 182.026 76.349 181.863 77.2148 181.863ZM77.2148 183.152C76.6354 183.152 76.1146 183.26 75.6523 183.475C75.1966 183.689 74.8385 183.992 74.5781 184.383C74.3242 184.773 74.2005 185.216 74.207 185.711C74.2005 186.212 74.3242 186.658 74.5781 187.049C74.8385 187.433 75.1966 187.736 75.6523 187.957C76.1146 188.178 76.6354 188.289 77.2148 188.289C77.7812 188.289 78.2923 188.178 78.748 187.957C79.2103 187.736 79.5716 187.433 79.832 187.049C80.0924 186.658 80.2227 186.212 80.2227 185.711C80.2227 185.216 80.0924 184.773 79.832 184.383C79.5716 183.992 79.2103 183.689 78.748 183.475C78.2923 183.26 77.7812 183.152 77.2148 183.152ZM86.6289 190.145H85.1055V181.219H86.6289V190.145ZM86.6289 195.164H76.8828V197.801H75.3789V194.012H85.1055V192.215H75.3398V190.984H86.6289V195.164ZM87.2539 198.348H75.3789V197.117H87.2539V198.348ZM97.4883 181.531C98.7708 181.531 99.8711 181.645 100.789 181.873C101.714 182.101 102.417 182.439 102.898 182.889C103.38 183.338 103.621 183.882 103.621 184.52C103.621 185.171 103.38 185.724 102.898 186.18C102.417 186.635 101.717 186.98 100.799 187.215C99.8809 187.443 98.7773 187.56 97.4883 187.566C96.1927 187.56 95.0859 187.443 94.168 187.215C93.2565 186.98 92.5566 186.635 92.0684 186.18C91.5801 185.724 91.3359 185.171 91.3359 184.52C91.3359 183.882 91.5801 183.338 92.0684 182.889C92.5566 182.439 93.2598 182.101 94.1777 181.873C95.0957 181.645 96.1992 181.531 97.4883 181.531ZM97.4883 182.684C96.5312 182.684 95.7109 182.758 95.0273 182.908C94.3503 183.058 93.8294 183.27 93.4648 183.543C93.1068 183.816 92.931 184.142 92.9375 184.52C92.931 184.917 93.1068 185.258 93.4648 185.545C93.8294 185.825 94.3503 186.036 95.0273 186.18C95.7109 186.323 96.5312 186.395 97.4883 186.395C98.4453 186.395 99.2656 186.323 99.9492 186.18C100.639 186.036 101.163 185.825 101.521 185.545C101.88 185.265 102.059 184.923 102.059 184.52C102.059 184.142 101.88 183.816 101.521 183.543C101.163 183.27 100.639 183.058 99.9492 182.908C99.2591 182.758 98.4388 182.684 97.4883 182.684ZM105.398 189.988H89.5781V188.738H105.398V189.988ZM103.367 195.379H93.0547V197.488H91.5312V194.246H101.863V192.664H91.4922V191.492H103.367V195.379ZM103.895 198.387H91.5312V197.176H103.895V198.387ZM125.32 198.582H123.797V181.219H125.32V198.582ZM128.23 189.656H124.969V188.387H128.23V189.656ZM122.117 185.281H111.785V184.012H122.117V185.281ZM117.039 186.727C117.846 186.727 118.572 186.896 119.217 187.234C119.861 187.573 120.366 188.045 120.73 188.65C121.102 189.256 121.29 189.943 121.297 190.711C121.29 191.486 121.102 192.176 120.73 192.781C120.366 193.38 119.861 193.849 119.217 194.188C118.572 194.526 117.846 194.695 117.039 194.695C116.225 194.695 115.493 194.526 114.842 194.188C114.197 193.849 113.693 193.38 113.328 192.781C112.964 192.176 112.781 191.486 112.781 190.711C112.781 189.943 112.964 189.256 113.328 188.65C113.693 188.045 114.197 187.573 114.842 187.234C115.493 186.896 116.225 186.727 117.039 186.727ZM117.039 188.016C116.505 188.016 116.027 188.13 115.604 188.357C115.18 188.585 114.848 188.908 114.607 189.324C114.367 189.734 114.246 190.197 114.246 190.711C114.246 191.232 114.367 191.694 114.607 192.098C114.848 192.501 115.18 192.82 115.604 193.055C116.027 193.283 116.505 193.393 117.039 193.387C117.566 193.393 118.042 193.283 118.465 193.055C118.895 192.82 119.227 192.501 119.461 192.098C119.702 191.694 119.826 191.232 119.832 190.711C119.826 190.197 119.702 189.734 119.461 189.324C119.227 188.908 118.895 188.585 118.465 188.357C118.042 188.13 117.566 188.016 117.039 188.016ZM117.781 184.598H116.258V181.434H117.781V184.598ZM143.211 187.723H131.316V186.492H143.211V187.723ZM145.047 191.336H129.148V190.086H145.047V191.336ZM132.84 187.117H131.316V181.863H132.84V187.117ZM143.309 198.152H131.219V196.883H143.309V198.152ZM132.742 197.254H131.219V193.113H132.742V197.254ZM152.391 186.551C152.391 187.749 152.163 188.93 151.707 190.096C151.251 191.261 150.639 192.296 149.871 193.201C149.109 194.106 148.276 194.786 147.371 195.242L146.453 194.031C147.28 193.634 148.048 193.035 148.758 192.234C149.474 191.427 150.047 190.522 150.477 189.52C150.906 188.517 151.121 187.527 151.121 186.551V183.68H152.391V186.551ZM152.664 186.551C152.664 187.508 152.879 188.462 153.309 189.412C153.738 190.356 154.311 191.199 155.027 191.941C155.743 192.684 156.525 193.237 157.371 193.602L156.512 194.812C155.568 194.383 154.708 193.745 153.934 192.898C153.165 192.052 152.553 191.079 152.098 189.979C151.648 188.872 151.427 187.729 151.434 186.551V183.68H152.664V186.551ZM156.805 184.285H147.02V183.016H156.805V184.285ZM160.77 198.582H159.227V181.219H160.77V198.582ZM75.9453 257.477H67.2344V256.227H75.9453V257.477ZM71.5898 258.648C72.3125 258.648 72.957 258.818 73.5234 259.156C74.0964 259.495 74.5423 259.964 74.8613 260.562C75.1868 261.155 75.3529 261.832 75.3594 262.594C75.3529 263.362 75.1868 264.046 74.8613 264.645C74.5423 265.243 74.0964 265.715 73.5234 266.061C72.957 266.406 72.3125 266.578 71.5898 266.578C70.8802 266.578 70.2389 266.406 69.666 266.061C69.0996 265.715 68.6569 265.243 68.3379 264.645C68.0189 264.046 67.8594 263.362 67.8594 262.594C67.8594 261.839 68.0221 261.161 68.3477 260.562C68.6732 259.964 69.1159 259.495 69.6758 259.156C70.2422 258.818 70.8802 258.648 71.5898 258.648ZM71.5898 259.938C71.1341 259.944 70.7272 260.064 70.3691 260.299C70.0111 260.527 69.7311 260.842 69.5293 261.246C69.3275 261.643 69.2266 262.092 69.2266 262.594C69.2266 263.102 69.3275 263.554 69.5293 263.951C69.7311 264.348 70.0111 264.661 70.3691 264.889C70.7272 265.117 71.1341 265.23 71.5898 265.23C72.0456 265.23 72.4557 265.117 72.8203 264.889C73.1849 264.661 73.4714 264.348 73.6797 263.951C73.888 263.554 73.9922 263.102 73.9922 262.594C73.9922 262.092 73.888 261.643 73.6797 261.246C73.4714 260.842 73.1849 260.527 72.8203 260.299C72.4557 260.064 72.0456 259.944 71.5898 259.938ZM82.0586 270.582H80.5938V253.219H82.0586V270.582ZM81.082 261.812H77.7617V260.543H81.082V261.812ZM78.2891 269.723H76.8438V253.648H78.2891V269.723ZM72.3711 256.988H70.8477V253.746H72.3711V256.988ZM90.0078 267.379H88.5039V262.184H90.0078V267.379ZM96.5117 267.379H94.9688V262.184H96.5117V267.379ZM100.457 268.355H84.5586V267.066H100.457V268.355ZM92.4688 254.312C93.6992 254.319 94.793 254.508 95.75 254.879C96.7135 255.243 97.4655 255.768 98.0059 256.451C98.5462 257.128 98.8164 257.906 98.8164 258.785C98.8164 259.671 98.5462 260.449 98.0059 261.119C97.4655 261.79 96.7135 262.311 95.75 262.682C94.793 263.053 93.6992 263.238 92.4688 263.238C91.2383 263.238 90.1413 263.053 89.1777 262.682C88.2207 262.311 87.472 261.79 86.9316 261.119C86.3913 260.449 86.1211 259.671 86.1211 258.785C86.1211 257.906 86.3913 257.128 86.9316 256.451C87.472 255.768 88.2207 255.243 89.1777 254.879C90.1413 254.508 91.2383 254.319 92.4688 254.312ZM92.4688 255.582C91.5247 255.576 90.6816 255.706 89.9395 255.973C89.2038 256.233 88.6309 256.607 88.2207 257.096C87.8105 257.584 87.6055 258.147 87.6055 258.785C87.6055 259.423 87.8105 259.986 88.2207 260.475C88.6309 260.963 89.2038 261.344 89.9395 261.617C90.6816 261.891 91.5247 262.027 92.4688 262.027C93.4062 262.027 94.2428 261.891 94.9785 261.617C95.7142 261.344 96.2904 260.963 96.707 260.475C97.1237 259.986 97.332 259.423 97.332 258.785C97.332 258.147 97.1237 257.584 96.707 257.096C96.2904 256.607 95.7142 256.233 94.9785 255.973C94.2428 255.706 93.4062 255.576 92.4688 255.582ZM103.68 269.117C103.452 269.117 103.24 269.059 103.045 268.941C102.856 268.824 102.703 268.671 102.586 268.482C102.475 268.287 102.423 268.076 102.43 267.848C102.423 267.626 102.475 267.418 102.586 267.223C102.703 267.027 102.856 266.874 103.045 266.764C103.24 266.653 103.452 266.598 103.68 266.598C103.908 266.598 104.116 266.653 104.305 266.764C104.5 266.874 104.653 267.027 104.764 267.223C104.874 267.418 104.93 267.626 104.93 267.848C104.93 268.076 104.874 268.287 104.764 268.482C104.653 268.671 104.5 268.824 104.305 268.941C104.116 269.059 103.908 269.117 103.68 269.117Z" fill="#0E0E0E"/>
<path d="M45.5547 211.488H42.3223V209.223H45.5547V211.488ZM47.6445 215.59H44.8516V204.936H47.6445V215.59ZM41.4727 215.922C42.7487 215.922 43.8522 216.062 44.7832 216.342C45.7207 216.622 46.4401 217.022 46.9414 217.543C47.4427 218.064 47.6966 218.689 47.7031 219.418C47.6966 220.141 47.4427 220.762 46.9414 221.283C46.4401 221.804 45.7207 222.204 44.7832 222.484C43.8522 222.764 42.7487 222.904 41.4727 222.904C40.1901 222.904 39.0833 222.764 38.1523 222.484C37.2214 222.204 36.5052 221.804 36.0039 221.283C35.5091 220.762 35.2617 220.141 35.2617 219.418C35.2617 218.689 35.5091 218.064 36.0039 217.543C36.5052 217.022 37.2214 216.622 38.1523 216.342C39.0898 216.062 40.1966 215.922 41.4727 215.922ZM41.4727 218.041C40.7044 218.048 40.0697 218.1 39.5684 218.197C39.0736 218.295 38.696 218.445 38.4355 218.646C38.1816 218.848 38.0547 219.105 38.0547 219.418C38.0547 219.724 38.1816 219.978 38.4355 220.18C38.696 220.382 39.0768 220.531 39.5781 220.629C40.0794 220.727 40.7109 220.775 41.4727 220.775C42.2279 220.775 42.8594 220.727 43.3672 220.629C43.8815 220.531 44.2656 220.382 44.5195 220.18C44.7734 219.978 44.9004 219.724 44.9004 219.418C44.9004 219.105 44.7734 218.848 44.5195 218.646C44.2656 218.445 43.8848 218.295 43.377 218.197C42.8691 218.1 42.2344 218.048 41.4727 218.041ZM38.8164 207.816C38.8164 209.014 38.6374 210.131 38.2793 211.166C37.9277 212.201 37.3743 213.113 36.6191 213.9C35.8639 214.682 34.9102 215.264 33.7578 215.648L32.293 213.422C33.276 213.096 34.0833 212.637 34.7148 212.045C35.3464 211.452 35.8053 210.798 36.0918 210.082C36.3783 209.359 36.5247 208.604 36.5312 207.816V206.742H38.8164V207.816ZM39.4023 207.797C39.4023 208.526 39.5391 209.226 39.8125 209.896C40.0859 210.561 40.5221 211.166 41.1211 211.713C41.7266 212.26 42.4948 212.686 43.4258 212.992L42.0488 215.189C40.9355 214.831 40.0078 214.281 39.2656 213.539C38.5299 212.797 37.9863 211.938 37.6348 210.961C37.2897 209.978 37.1172 208.923 37.1172 207.797V206.742H39.4023V207.797ZM42.8301 208.207H33.0938V205.961H42.8301V208.207ZM64.8906 222.865H62.0391V204.936H64.8906V222.865ZM59.5 206.801C59.4935 208.773 59.2461 210.544 58.7578 212.113C58.2695 213.682 57.4167 215.124 56.1992 216.439C54.9818 217.755 53.3216 218.907 51.2188 219.896L49.7637 217.66C51.4824 216.846 52.8464 215.945 53.8555 214.955C54.8711 213.965 55.6003 212.855 56.043 211.625C56.4857 210.395 56.707 208.952 56.707 207.299V206.801H59.5ZM58.0254 208.998H50.75V206.801H58.0254V208.998ZM73.3867 207.826C73.3867 208.992 73.2077 210.089 72.8496 211.117C72.498 212.139 71.9414 213.038 71.1797 213.812C70.4245 214.581 69.474 215.144 68.3281 215.502L66.8828 213.285C67.8529 212.979 68.6536 212.536 69.2852 211.957C69.9167 211.378 70.3757 210.736 70.6621 210.033C70.9486 209.324 71.0951 208.588 71.1016 207.826V206.703H73.3867V207.826ZM73.9727 207.787C73.9727 208.516 74.1094 209.216 74.3828 209.887C74.6562 210.551 75.0924 211.156 75.6914 211.703C76.2969 212.25 77.0651 212.676 77.9961 212.982L76.6191 215.15C75.5059 214.799 74.5781 214.255 73.8359 213.52C73.1003 212.784 72.5566 211.928 72.2051 210.951C71.86 209.968 71.6875 208.913 71.6875 207.787V206.703H73.9727V207.787ZM80.2227 211.43H76.9121V209.135H80.2227V211.43ZM77.4004 208.109H67.6641V205.873H77.4004V208.109ZM82.2148 222.865H79.4219V218.578H69.8223V216.342H82.2148V222.865ZM82.2148 215.6H79.4219V204.936H82.2148V215.6ZM92.498 205.795C93.7611 205.795 94.9102 206.013 95.9453 206.449C96.9805 206.885 97.7975 207.501 98.3965 208.295C99.002 209.083 99.3047 209.988 99.3047 211.01C99.3047 212.045 99.002 212.96 98.3965 213.754C97.7975 214.548 96.9805 215.163 95.9453 215.6C94.9102 216.036 93.7611 216.254 92.498 216.254C91.2285 216.254 90.0762 216.036 89.041 215.6C88.0124 215.163 87.1986 214.548 86.5996 213.754C86.0072 212.96 85.7109 212.045 85.7109 211.01C85.7109 209.988 86.0072 209.083 86.5996 208.295C87.1986 207.501 88.0124 206.885 89.041 206.449C90.0762 206.013 91.2285 205.795 92.498 205.795ZM92.498 208.061C91.7038 208.061 91.0007 208.178 90.3887 208.412C89.7767 208.646 89.3014 208.988 88.9629 209.438C88.6243 209.887 88.4551 210.411 88.4551 211.01C88.4551 211.622 88.6243 212.149 88.9629 212.592C89.3014 213.035 89.7767 213.373 90.3887 213.607C91.0007 213.835 91.7038 213.952 92.498 213.959C93.2858 213.952 93.9824 213.835 94.5879 213.607C95.1934 213.373 95.6621 213.035 95.9941 212.592C96.3327 212.149 96.502 211.622 96.502 211.01C96.502 210.411 96.3327 209.887 95.9941 209.438C95.6556 208.988 95.1836 208.646 94.5781 208.412C93.9727 208.178 93.2793 208.061 92.498 208.061ZM100.711 220.766H84.334V218.5H100.711V220.766ZM117.996 220.951H101.619V218.656H117.996V220.951ZM111.16 219.604H108.387V215.414H111.16V219.604ZM116.16 212.162H106.258V215.043H103.455V209.984H113.387V208.305H103.426V206.068H116.16V212.162ZM116.58 216.156H103.455V213.891H116.58V216.156ZM132.693 205.971C132.693 207.546 132.381 208.956 131.756 210.199C131.137 211.436 130.219 212.494 129.002 213.373C127.785 214.252 126.297 214.936 124.539 215.424L123.445 213.217C124.826 212.859 125.988 212.383 126.932 211.791C127.876 211.192 128.582 210.515 129.051 209.76C129.52 209.005 129.757 208.188 129.764 207.309V205.971H132.693ZM131.707 208.178H124.432V205.971H131.707V208.178ZM138.562 214.916H135.77V204.975H138.562V214.916ZM136.121 211.4H132.83V209.105H136.121V211.4ZM138.562 222.67H126.609V215.629H138.562V222.67ZM129.363 220.482H135.77V217.816H129.363V220.482ZM155.311 215.912H142.547V213.705H155.311V215.912ZM157.059 220.941H140.682V218.715H157.059V220.941ZM150.271 219.672H147.449V214.789H150.271V219.672ZM155.184 208.354H145.408V214.574H142.547V206.117H155.184V208.354ZM154.754 212.104H144.578V209.906H154.754V212.104ZM46.6875 246.865H43.9141V228.936H46.6875V246.865ZM49.2266 238.154H46.0723V235.859H49.2266V238.154ZM42.8594 233.799H32.3809V231.553H42.8594V233.799ZM37.6543 234.639C38.5202 234.639 39.3079 234.824 40.0176 235.195C40.7272 235.56 41.2839 236.074 41.6875 236.738C42.0911 237.396 42.293 238.138 42.293 238.965C42.293 239.798 42.0911 240.544 41.6875 241.201C41.2839 241.852 40.7272 242.363 40.0176 242.734C39.3079 243.099 38.5202 243.281 37.6543 243.281C36.7689 243.281 35.9714 243.099 35.2617 242.734C34.5586 242.363 34.0085 241.852 33.6113 241.201C33.2142 240.544 33.0156 239.798 33.0156 238.965C33.0156 238.138 33.2142 237.396 33.6113 236.738C34.0085 236.074 34.5586 235.56 35.2617 235.195C35.9714 234.824 36.7689 234.639 37.6543 234.639ZM37.6543 236.914C37.2702 236.921 36.9316 237.005 36.6387 237.168C36.3457 237.324 36.1146 237.559 35.9453 237.871C35.7826 238.177 35.7012 238.542 35.7012 238.965C35.7012 239.395 35.7826 239.762 35.9453 240.068C36.1146 240.374 36.3457 240.605 36.6387 240.762C36.9316 240.918 37.2702 240.999 37.6543 241.006C38.0319 240.999 38.3672 240.918 38.6602 240.762C38.9531 240.605 39.181 240.374 39.3438 240.068C39.5065 239.762 39.5879 239.395 39.5879 238.965C39.5879 238.542 39.5065 238.177 39.3438 237.871C39.181 237.559 38.9499 237.324 38.6504 237.168C38.3574 237.005 38.0254 236.921 37.6543 236.914ZM39.0605 232.373H36.248V229.238H39.0605V232.373ZM62.6152 234.775H57.791V232.529H62.6152V234.775ZM62.6152 240.283H57.791V238.037H62.6152V240.283ZM54.7344 230.166C55.6328 230.166 56.4368 230.43 57.1465 230.957C57.8626 231.478 58.4193 232.227 58.8164 233.203C59.2201 234.173 59.4219 235.303 59.4219 236.592C59.4219 237.894 59.2201 239.033 58.8164 240.01C58.4193 240.98 57.8626 241.729 57.1465 242.256C56.4368 242.777 55.6328 243.037 54.7344 243.037C53.8164 243.037 53.0026 242.777 52.293 242.256C51.5833 241.729 51.0267 240.98 50.623 240.01C50.2194 239.033 50.0176 237.894 50.0176 236.592C50.0176 235.303 50.2194 234.173 50.623 233.203C51.0267 232.227 51.5833 231.478 52.293 230.957C53.0026 230.43 53.8164 230.166 54.7344 230.166ZM54.7344 232.715C54.3242 232.708 53.9694 232.855 53.6699 233.154C53.377 233.447 53.1426 233.883 52.9668 234.463C52.7975 235.042 52.7161 235.752 52.7227 236.592C52.7161 237.438 52.7975 238.154 52.9668 238.74C53.1426 239.32 53.377 239.756 53.6699 240.049C53.9694 240.342 54.3242 240.485 54.7344 240.479C55.1445 240.485 55.5026 240.342 55.8086 240.049C56.1146 239.756 56.3457 239.32 56.502 238.74C56.6647 238.161 56.7461 237.445 56.7461 236.592C56.7461 235.752 56.6647 235.039 56.502 234.453C56.3457 233.867 56.1146 233.431 55.8086 233.145C55.5026 232.852 55.1445 232.708 54.7344 232.715ZM64.959 246.914H62.166V228.936H64.959V246.914ZM84.9004 231.934H73.5137V229.707H84.9004V231.934ZM87.918 238.047H71.541V235.811H87.918V238.047ZM81.1016 241.045H78.2793V237.393H81.1016V241.045ZM86.043 231.152C86.043 232.227 86.0104 233.187 85.9453 234.033C85.8867 234.873 85.737 235.817 85.4961 236.865L82.7031 236.582C82.8594 235.898 82.9733 235.254 83.0449 234.648C83.123 234.036 83.1719 233.493 83.1914 233.018C83.2174 232.542 83.2337 231.973 83.2402 231.309V231.152V229.707H86.043V231.152ZM86.0332 246.865H83.2012V242.568H73.1523V240.371H86.0332V246.865ZM98.5723 239.082H89.7148V230.342H98.5723V239.082ZM92.4785 236.885H95.7793V232.568H92.4785V236.885ZM103.875 241.67H101.053V228.975H103.875V241.67ZM104.334 246.543H91.7363V244.297H104.334V246.543ZM94.5879 245.332H91.7363V240.508H94.5879V245.332ZM111.883 230.107C112.82 230.107 113.67 230.299 114.432 230.684C115.2 231.068 115.802 231.602 116.238 232.285C116.674 232.962 116.893 233.724 116.893 234.57C116.893 235.423 116.674 236.188 116.238 236.865C115.802 237.542 115.2 238.073 114.432 238.457C113.67 238.841 112.82 239.033 111.883 239.033C110.952 239.033 110.102 238.841 109.334 238.457C108.566 238.073 107.96 237.542 107.518 236.865C107.081 236.188 106.863 235.423 106.863 234.57C106.863 233.724 107.081 232.962 107.518 232.285C107.96 231.602 108.566 231.068 109.334 230.684C110.102 230.299 110.952 230.107 111.883 230.107ZM111.883 232.529C111.46 232.536 111.079 232.617 110.74 232.773C110.408 232.93 110.145 233.164 109.949 233.477C109.76 233.783 109.666 234.147 109.666 234.57C109.666 235.007 109.76 235.378 109.949 235.684C110.145 235.983 110.408 236.211 110.74 236.367C111.079 236.523 111.46 236.605 111.883 236.611C112.319 236.605 112.71 236.523 113.055 236.367C113.4 236.211 113.667 235.983 113.855 235.684C114.051 235.378 114.148 235.007 114.148 234.57C114.148 234.147 114.051 233.783 113.855 233.477C113.667 233.164 113.4 232.93 113.055 232.773C112.71 232.617 112.319 232.536 111.883 232.529ZM121.268 246.914H118.475V228.936H121.268V246.914ZM106.17 241.084C108.286 241.084 110.285 241.048 112.166 240.977C114.048 240.898 115.831 240.745 117.518 240.518L117.723 242.529C116.505 242.77 115.242 242.949 113.934 243.066C112.632 243.184 111.398 243.262 110.232 243.301C109.074 243.333 107.824 243.346 106.482 243.34L106.17 241.084ZM133.66 230.107C134.598 230.107 135.447 230.299 136.209 230.684C136.977 231.068 137.579 231.602 138.016 232.285C138.452 232.962 138.67 233.724 138.67 234.57C138.67 235.423 138.452 236.188 138.016 236.865C137.579 237.542 136.977 238.073 136.209 238.457C135.447 238.841 134.598 239.033 133.66 239.033C132.729 239.033 131.88 238.841 131.111 238.457C130.343 238.073 129.738 237.542 129.295 236.865C128.859 236.188 128.641 235.423 128.641 234.57C128.641 233.724 128.859 232.962 129.295 232.285C129.738 231.602 130.343 231.068 131.111 230.684C131.88 230.299 132.729 230.107 133.66 230.107ZM133.66 232.529C133.237 232.536 132.856 232.617 132.518 232.773C132.186 232.93 131.922 233.164 131.727 233.477C131.538 233.783 131.443 234.147 131.443 234.57C131.443 235.007 131.538 235.378 131.727 235.684C131.922 235.983 132.186 236.211 132.518 236.367C132.856 236.523 133.237 236.605 133.66 236.611C134.096 236.605 134.487 236.523 134.832 236.367C135.177 236.211 135.444 235.983 135.633 235.684C135.828 235.378 135.926 235.007 135.926 234.57C135.926 234.147 135.828 233.783 135.633 233.477C135.444 233.164 135.177 232.93 134.832 232.773C134.487 232.617 134.096 232.536 133.66 232.529ZM143.045 246.914H140.252V228.936H143.045V246.914ZM127.947 241.084C130.063 241.084 132.062 241.048 133.943 240.977C135.825 240.898 137.609 240.745 139.295 240.518L139.5 242.529C138.283 242.77 137.02 242.949 135.711 243.066C134.409 243.184 133.175 243.262 132.01 243.301C130.851 243.333 129.601 243.346 128.26 243.34L127.947 241.084ZM160.32 242.129H157.547V228.975H160.32V242.129ZM154.852 230.293C154.852 231.908 154.529 233.376 153.885 234.697C153.24 236.019 152.296 237.155 151.053 238.105C149.809 239.056 148.309 239.792 146.551 240.312L145.379 238.125C146.759 237.695 147.938 237.155 148.914 236.504C149.891 235.846 150.63 235.101 151.131 234.268C151.632 233.428 151.883 232.533 151.883 231.582V230.293H154.852ZM153.621 232.529H146.355V230.293H153.621V232.529ZM157.928 234.58H153.836V232.344H157.928V234.58ZM157.762 238.594H153.67V236.348H157.762V238.594ZM160.799 246.592H148.387V244.336H160.799V246.592ZM151.248 245.771H148.387V240.811H151.248V245.771ZM170.623 229.189C172.01 229.189 173.195 229.307 174.178 229.541C175.161 229.775 175.906 230.12 176.414 230.576C176.928 231.025 177.186 231.576 177.186 232.227C177.186 232.884 176.928 233.441 176.414 233.896C175.906 234.352 175.161 234.697 174.178 234.932C173.195 235.166 172.01 235.283 170.623 235.283C169.23 235.283 168.042 235.166 167.059 234.932C166.076 234.697 165.324 234.352 164.803 233.896C164.288 233.441 164.031 232.884 164.031 232.227C164.031 231.576 164.288 231.025 164.803 230.576C165.324 230.12 166.076 229.775 167.059 229.541C168.042 229.307 169.23 229.189 170.623 229.189ZM170.623 231.23C169.777 231.23 169.087 231.266 168.553 231.338C168.019 231.41 167.622 231.52 167.361 231.67C167.107 231.82 166.984 232.005 166.99 232.227C166.984 232.474 167.104 232.673 167.352 232.822C167.605 232.965 167.99 233.07 168.504 233.135C169.025 233.193 169.731 233.226 170.623 233.232C171.515 233.226 172.221 233.193 172.742 233.135C173.27 233.07 173.657 232.965 173.904 232.822C174.152 232.673 174.275 232.474 174.275 232.227C174.275 232.005 174.148 231.82 173.895 231.67C173.641 231.52 173.243 231.41 172.703 231.338C172.163 231.266 171.469 231.23 170.623 231.23ZM178.797 238.242H162.459V236.016H178.797V238.242ZM176.844 243.848H167.078V245.283H164.314V241.904H174.051V241.133H164.314V239.092H176.844V243.848ZM177.283 246.768H164.314V244.678H177.283V246.768ZM46.7461 266.188H43.9238V252.975H46.7461V266.188ZM49.0703 260.191H45.9551V257.906H49.0703V260.191ZM47.332 270.592H34.9883V268.336H47.332V270.592ZM37.8105 268.814H34.9883V264.801H37.8105V268.814ZM35.7109 256.695H38.8848V254.234H41.707V263.375H32.9277V254.234H35.7109V256.695ZM38.8848 261.178V258.834H35.7109V261.178H38.8848ZM62.9863 257.457H57.7031V255.24H62.9863V257.457ZM62.9863 261.402H57.7031V259.176H62.9863V261.402ZM54.7734 253.873C55.6589 253.873 56.4661 254.065 57.1953 254.449C57.9245 254.827 58.4974 255.354 58.9141 256.031C59.3307 256.708 59.5423 257.467 59.5488 258.307C59.5423 259.146 59.3307 259.902 58.9141 260.572C58.4974 261.243 57.9212 261.77 57.1855 262.154C56.4564 262.538 55.6523 262.73 54.7734 262.73C53.875 262.73 53.0579 262.538 52.3223 262.154C51.5931 261.77 51.0169 261.243 50.5938 260.572C50.1706 259.902 49.9622 259.146 49.9688 258.307C49.9622 257.467 50.1706 256.708 50.5938 256.031C51.0169 255.354 51.5931 254.827 52.3223 254.449C53.0579 254.065 53.875 253.873 54.7734 253.873ZM54.7734 256.275C54.3503 256.275 53.9759 256.354 53.6504 256.51C53.3314 256.66 53.0807 256.891 52.8984 257.203C52.7161 257.509 52.625 257.877 52.625 258.307C52.625 258.73 52.7161 259.094 52.8984 259.4C53.0807 259.706 53.3314 259.944 53.6504 260.113C53.9759 260.276 54.3503 260.357 54.7734 260.357C55.1771 260.357 55.5384 260.276 55.8574 260.113C56.1764 259.944 56.4238 259.706 56.5996 259.4C56.7754 259.088 56.8633 258.723 56.8633 258.307C56.8633 257.877 56.7754 257.509 56.5996 257.203C56.4238 256.891 56.1764 256.66 55.8574 256.51C55.5449 256.354 55.1836 256.275 54.7734 256.275ZM64.9297 263.404H62.1367V252.936H64.9297V263.404ZM58.7578 263.756C60.0208 263.756 61.1211 263.896 62.0586 264.176C62.9961 264.456 63.7155 264.866 64.2168 265.406C64.7246 265.94 64.9818 266.581 64.9883 267.33C64.9818 268.066 64.7246 268.697 64.2168 269.225C63.7155 269.758 62.9961 270.169 62.0586 270.455C61.1211 270.742 60.0208 270.885 58.7578 270.885C57.4883 270.885 56.388 270.742 55.457 270.455C54.526 270.169 53.8066 269.758 53.2988 269.225C52.7975 268.697 52.5469 268.066 52.5469 267.33C52.5469 266.581 52.7975 265.94 53.2988 265.406C53.8066 264.866 54.526 264.456 55.457 264.176C56.388 263.896 57.4883 263.756 58.7578 263.756ZM58.7578 265.895C57.9896 265.901 57.3483 265.956 56.834 266.061C56.3262 266.158 55.9421 266.314 55.6816 266.529C55.4277 266.738 55.304 267.005 55.3105 267.33C55.304 267.636 55.431 267.893 55.6914 268.102C55.9518 268.303 56.3359 268.456 56.8438 268.561C57.3516 268.658 57.9896 268.707 58.7578 268.707C59.5326 268.707 60.1771 268.658 60.6914 268.561C61.2057 268.456 61.5898 268.303 61.8438 268.102C62.1042 267.893 62.2344 267.636 62.2344 267.33C62.2344 267.005 62.1042 266.738 61.8438 266.529C61.5898 266.314 61.2057 266.158 60.6914 266.061C60.1771 265.956 59.5326 265.901 58.7578 265.895Z" fill="#464646"/>
<defs>
<filter id="filter0_bd_839_47" x="-76" y="-80" width="366" height="613" filterUnits="userSpaceOnUse" color-interpolation-filters="sRGB">
<feFlood flood-opacity="0" result="BackgroundImageFix"/>
<feGaussianBlur in="BackgroundImageFix" stdDeviation="40"/>
<feComposite in2="SourceAlpha" operator="in" result="effect1_backgroundBlur_839_47"/>
<feColorMatrix in="SourceAlpha" type="matrix" values="0 0 0 0 0 0 0 0 0 0 0 0 0 0 0 0 0 0 127 0" result="hardAlpha"/>
<feOffset dy="3.6"/>
<feGaussianBlur stdDeviation="1.8"/>
<feComposite in2="hardAlpha" operator="out"/>
<feColorMatrix type="matrix" values="0 0 0 0 0 0 0 0 0 0 0 0 0 0 0 0 0 0 0.25 0"/>
<feBlend mode="normal" in2="effect1_backgroundBlur_839_47" result="effect2_dropShadow_839_47"/>
<feBlend mode="normal" in="SourceGraphic" in2="effect2_dropShadow_839_47" result="shape"/>
</filter>
<linearGradient id="paint0_linear_839_47" x1="107" y1="-33.6789" x2="107" y2="453" gradientUnits="userSpaceOnUse">
<stop stop-color="#D8F5DD"/>
<stop offset="1" stop-color="#D8F5DD" stop-opacity="0"/>
</linearGradient>
</defs>
</svg>