<svg xmlns="http://www.w3.org/2000/svg" width="214" height="461" viewBox="0 0 214 461" fill="none">
<g filter="url(#filter0_bd_839_52)">
<rect x="4" width="206" height="453" rx="103" fill="url(#paint0_linear_839_52)" shape-rendering="crispEdges"/>
</g>
<mask id="path-2-outside-1_839_52" maskUnits="userSpaceOnUse" x="61" y="56" width="91" height="25" fill="black">
<rect fill="white" x="61" y="56" width="91" height="25"/>
<path d="M78.5273 65.7266H74.8711V62.7031H78.5273V65.7266ZM81.3398 70.5078H77.6016V57.6406H81.3398V70.5078ZM73.8047 70.8477C75.3672 70.8477 76.7188 71.0195 77.8594 71.3633C79 71.707 79.875 72.1992 80.4844 72.8398C81.0938 73.4727 81.4023 74.2305 81.4102 75.1133C81.4023 76.0039 81.0938 76.7656 80.4844 77.3984C79.875 78.0391 79 78.5273 77.8594 78.8633C76.7188 79.207 75.3672 79.3828 73.8047 79.3906C72.25 79.3828 70.9023 79.207 69.7617 78.8633C68.6289 78.5273 67.7578 78.0391 67.1484 77.3984C66.5469 76.7656 66.2461 76.0039 66.2461 75.1133C66.2461 74.2305 66.5469 73.4727 67.1484 72.8398C67.7578 72.1992 68.6289 71.707 69.7617 71.3633C70.9023 71.0195 72.25 70.8477 73.8047 70.8477ZM73.8047 73.6719C72.9297 73.6797 72.2109 73.7344 71.6484 73.8359C71.0938 73.9297 70.6758 74.082 70.3945 74.293C70.1133 74.5039 69.9727 74.7773 69.9727 75.1133C69.9727 75.457 70.1133 75.7344 70.3945 75.9453C70.6758 76.1562 71.0977 76.3125 71.6602 76.4141C72.2227 76.5078 72.9375 76.5547 73.8047 76.5547C74.6797 76.5547 75.4023 76.5078 75.9727 76.4141C76.5508 76.3125 76.9766 76.1562 77.25 75.9453C77.5234 75.7344 77.6602 75.457 77.6602 75.1133C77.6602 74.7773 77.5234 74.5039 77.25 74.293C76.9766 74.082 76.5547 73.9297 75.9844 73.8359C75.4141 73.7344 74.6875 73.6797 73.8047 73.6719ZM70.6875 61.0039C70.6875 62.4805 70.4805 63.8555 70.0664 65.1289C69.6602 66.4023 69 67.5234 68.0859 68.4922C67.1719 69.4609 66 70.1797 64.5703 70.6484L62.6133 67.6719C63.8242 67.2812 64.8047 66.7305 65.5547 66.0195C66.3047 65.3086 66.8359 64.5273 67.1484 63.6758C67.4688 62.8242 67.6328 61.9336 67.6406 61.0039V59.8203H70.6875V61.0039ZM71.4844 60.9805C71.4844 61.8477 71.6367 62.6758 71.9414 63.4648C72.2461 64.2539 72.75 64.9766 73.4531 65.6328C74.1641 66.2891 75.0938 66.8008 76.2422 67.168L74.4141 70.1094C73.0156 69.6719 71.8711 68.9961 70.9805 68.082C70.0898 67.168 69.4414 66.1055 69.0352 64.8945C68.6289 63.6836 68.4297 62.3789 68.4375 60.9805V59.8203H71.4844V60.9805ZM75.457 61.7773H63.6562V58.7891H75.457V61.7773ZM103.418 72.8398H83.6367V69.9336H103.418V72.8398ZM95.3203 79.3203H91.5938V71.3984H95.3203V79.3203ZM89.4961 60.6172H97.4531V58.4609H101.203V68.1758H85.8047V58.4609H89.4961V60.6172ZM97.4531 65.1875V63.5352H89.4961V65.1875H97.4531ZM126.949 69.6289H123.176V57.6406H126.949V69.6289ZM129.656 65.1172H125.883V62.0469H129.656V65.1172ZM120.797 58.8477C120.789 60.8086 120.402 62.5469 119.637 64.0625C118.879 65.5781 117.75 66.8594 116.25 67.9062C114.75 68.9531 112.902 69.7617 110.707 70.332L109.23 67.332C110.918 66.9414 112.32 66.4141 113.438 65.75C114.562 65.0781 115.395 64.3164 115.934 63.4648C116.48 62.6133 116.758 61.6992 116.766 60.7227V58.8477H120.797ZM119.109 61.7891H110.367V58.8477H119.109V61.7891ZM126.949 79.1094H112.5V70.3555H126.949V79.1094ZM116.227 76.1914H123.246V73.3555H116.227V76.1914ZM150.129 70.918H130.371V67.9414H150.129V70.918ZM142.102 68.832H138.328V64.5781H142.102V68.832ZM147.809 79.332H144.117V74.9258H132.539V72.0078H147.809V79.332ZM148.078 66.4648H132.691V63.5117H148.078V66.4648ZM147.844 61.4492H136.418V65.1406H132.691V58.5312H147.844V61.4492Z"/>
</mask>
<path d="M78.5273 65.7266H74.8711V62.7031H78.5273V65.7266ZM81.3398 70.5078H77.6016V57.6406H81.3398V70.5078ZM73.8047 70.8477C75.3672 70.8477 76.7188 71.0195 77.8594 71.3633C79 71.707 79.875 72.1992 80.4844 72.8398C81.0938 73.4727 81.4023 74.2305 81.4102 75.1133C81.4023 76.0039 81.0938 76.7656 80.4844 77.3984C79.875 78.0391 79 78.5273 77.8594 78.8633C76.7188 79.207 75.3672 79.3828 73.8047 79.3906C72.25 79.3828 70.9023 79.207 69.7617 78.8633C68.6289 78.5273 67.7578 78.0391 67.1484 77.3984C66.5469 76.7656 66.2461 76.0039 66.2461 75.1133C66.2461 74.2305 66.5469 73.4727 67.1484 72.8398C67.7578 72.1992 68.6289 71.707 69.7617 71.3633C70.9023 71.0195 72.25 70.8477 73.8047 70.8477ZM73.8047 73.6719C72.9297 73.6797 72.2109 73.7344 71.6484 73.8359C71.0938 73.9297 70.6758 74.082 70.3945 74.293C70.1133 74.5039 69.9727 74.7773 69.9727 75.1133C69.9727 75.457 70.1133 75.7344 70.3945 75.9453C70.6758 76.1562 71.0977 76.3125 71.6602 76.4141C72.2227 76.5078 72.9375 76.5547 73.8047 76.5547C74.6797 76.5547 75.4023 76.5078 75.9727 76.4141C76.5508 76.3125 76.9766 76.1562 77.25 75.9453C77.5234 75.7344 77.6602 75.457 77.6602 75.1133C77.6602 74.7773 77.5234 74.5039 77.25 74.293C76.9766 74.082 76.5547 73.9297 75.9844 73.8359C75.4141 73.7344 74.6875 73.6797 73.8047 73.6719ZM70.6875 61.0039C70.6875 62.4805 70.4805 63.8555 70.0664 65.1289C69.6602 66.4023 69 67.5234 68.0859 68.4922C67.1719 69.4609 66 70.1797 64.5703 70.6484L62.6133 67.6719C63.8242 67.2812 64.8047 66.7305 65.5547 66.0195C66.3047 65.3086 66.8359 64.5273 67.1484 63.6758C67.4688 62.8242 67.6328 61.9336 67.6406 61.0039V59.8203H70.6875V61.0039ZM71.4844 60.9805C71.4844 61.8477 71.6367 62.6758 71.9414 63.4648C72.2461 64.2539 72.75 64.9766 73.4531 65.6328C74.1641 66.2891 75.0938 66.8008 76.2422 67.168L74.4141 70.1094C73.0156 69.6719 71.8711 68.9961 70.9805 68.082C70.0898 67.168 69.4414 66.1055 69.0352 64.8945C68.6289 63.6836 68.4297 62.3789 68.4375 60.9805V59.8203H71.4844V60.9805ZM75.457 61.7773H63.6562V58.7891H75.457V61.7773ZM103.418 72.8398H83.6367V69.9336H103.418V72.8398ZM95.3203 79.3203H91.5938V71.3984H95.3203V79.3203ZM89.4961 60.6172H97.4531V58.4609H101.203V68.1758H85.8047V58.4609H89.4961V60.6172ZM97.4531 65.1875V63.5352H89.4961V65.1875H97.4531ZM126.949 69.6289H123.176V57.6406H126.949V69.6289ZM129.656 65.1172H125.883V62.0469H129.656V65.1172ZM120.797 58.8477C120.789 60.8086 120.402 62.5469 119.637 64.0625C118.879 65.5781 117.75 66.8594 116.25 67.9062C114.75 68.9531 112.902 69.7617 110.707 70.332L109.23 67.332C110.918 66.9414 112.32 66.4141 113.438 65.75C114.562 65.0781 115.395 64.3164 115.934 63.4648C116.48 62.6133 116.758 61.6992 116.766 60.7227V58.8477H120.797ZM119.109 61.7891H110.367V58.8477H119.109V61.7891ZM126.949 79.1094H112.5V70.3555H126.949V79.1094ZM116.227 76.1914H123.246V73.3555H116.227V76.1914ZM150.129 70.918H130.371V67.9414H150.129V70.918ZM142.102 68.832H138.328V64.5781H142.102V68.832ZM147.809 79.332H144.117V74.9258H132.539V72.0078H147.809V79.332ZM148.078 66.4648H132.691V63.5117H148.078V66.4648ZM147.844 61.4492H136.418V65.1406H132.691V58.5312H147.844V61.4492Z" fill="#F6F6F6"/>
<path d="M78.5273 65.7266V66.7266H79.5273V65.7266H78.5273ZM74.8711 65.7266H73.8711V66.7266H74.8711V65.7266ZM74.8711 62.7031V61.7031H73.8711V62.7031H74.8711ZM78.5273 62.7031H79.5273V61.7031H78.5273V62.7031ZM81.3398 70.5078V71.5078H82.3398V70.5078H81.3398ZM77.6016 70.5078H76.6016V71.5078H77.6016V70.5078ZM77.6016 57.6406V56.6406H76.6016V57.6406H77.6016ZM81.3398 57.6406H82.3398V56.6406H81.3398V57.6406ZM80.4844 72.8398L79.7598 73.5291L79.7641 73.5335L80.4844 72.8398ZM81.4102 75.1133L82.4101 75.1221L82.4102 75.1132L82.4101 75.1044L81.4102 75.1133ZM80.4844 77.3984L79.764 76.7048L79.7598 76.7092L80.4844 77.3984ZM77.8594 78.8633L77.5768 77.904L77.5708 77.9058L77.8594 78.8633ZM73.8047 79.3906L73.7997 80.3907L73.8097 80.3906L73.8047 79.3906ZM69.7617 78.8633L70.0503 77.9058L70.046 77.9046L69.7617 78.8633ZM67.1484 77.3984L66.4237 78.0874L66.4239 78.0877L67.1484 77.3984ZM67.1484 72.8398L66.4239 72.1506L66.4237 72.1509L67.1484 72.8398ZM69.7617 71.3633L69.4732 70.4058L69.4713 70.4064L69.7617 71.3633ZM73.8047 73.6719L73.8135 72.6719L73.8046 72.6718L73.7958 72.6719L73.8047 73.6719ZM71.6484 73.8359L71.8151 74.822L71.8261 74.82L71.6484 73.8359ZM71.6602 76.4141L71.4825 77.3982L71.4958 77.4005L71.6602 76.4141ZM75.9727 76.4141L76.1349 77.4009L76.1457 77.399L75.9727 76.4141ZM75.9844 73.8359L75.809 74.8205L75.8222 74.8227L75.9844 73.8359ZM70.0664 65.1289L69.1154 64.8197L69.1137 64.825L70.0664 65.1289ZM64.5703 70.6484L63.7347 71.1978L64.155 71.837L64.8819 71.5987L64.5703 70.6484ZM62.6133 67.6719L62.3063 66.7202L61.056 67.1235L61.7777 68.2212L62.6133 67.6719ZM67.1484 63.6758L66.2124 63.3237L66.2097 63.3313L67.1484 63.6758ZM67.6406 61.0039L68.6406 61.0123V61.0039H67.6406ZM67.6406 59.8203V58.8203H66.6406V59.8203H67.6406ZM70.6875 59.8203H71.6875V58.8203H70.6875V59.8203ZM73.4531 65.6328L72.7708 66.3639L72.7748 66.3676L73.4531 65.6328ZM76.2422 67.168L77.0915 67.6958L77.7687 66.6062L76.5467 66.2155L76.2422 67.168ZM74.4141 70.1094L74.1155 71.0638L74.8546 71.295L75.2634 70.6372L74.4141 70.1094ZM68.4375 60.9805L69.4375 60.9861V60.9805H68.4375ZM68.4375 59.8203V58.8203H67.4375V59.8203H68.4375ZM71.4844 59.8203H72.4844V58.8203H71.4844V59.8203ZM75.457 61.7773V62.7773H76.457V61.7773H75.457ZM63.6562 61.7773H62.6562V62.7773H63.6562V61.7773ZM63.6562 58.7891V57.7891H62.6562V58.7891H63.6562ZM75.457 58.7891H76.457V57.7891H75.457V58.7891ZM78.5273 64.7266H74.8711V66.7266H78.5273V64.7266ZM75.8711 65.7266V62.7031H73.8711V65.7266H75.8711ZM74.8711 63.7031H78.5273V61.7031H74.8711V63.7031ZM77.5273 62.7031V65.7266H79.5273V62.7031H77.5273ZM81.3398 69.5078H77.6016V71.5078H81.3398V69.5078ZM78.6016 70.5078V57.6406H76.6016V70.5078H78.6016ZM77.6016 58.6406H81.3398V56.6406H77.6016V58.6406ZM80.3398 57.6406V70.5078H82.3398V57.6406H80.3398ZM73.8047 71.8477C75.298 71.8477 76.5477 72.0124 77.5708 72.3207L78.1479 70.4058C76.8898 70.0267 75.4364 69.8477 73.8047 69.8477V71.8477ZM77.5708 72.3207C78.6008 72.6312 79.3045 73.0504 79.7598 73.5291L81.2089 72.1506C80.4455 71.348 79.3992 70.7829 78.1479 70.4058L77.5708 72.3207ZM79.7641 73.5335C80.1951 73.9812 80.4046 74.4935 80.4102 75.1221L82.4101 75.1044C82.4001 73.9674 81.9924 72.9642 81.2047 72.1462L79.7641 73.5335ZM80.4102 75.1045C80.4046 75.7434 80.1934 76.2589 79.7641 76.7048L81.2047 78.0921C81.9941 77.2723 82.4001 76.2644 82.4101 75.1221L80.4102 75.1045ZM79.7598 76.7092C79.3062 77.1861 78.605 77.6012 77.5769 77.904L78.1419 79.8225C79.395 79.4535 80.4438 78.8921 81.2089 78.0877L79.7598 76.7092ZM77.5708 77.9058C76.5457 78.2148 75.2942 78.3832 73.7997 78.3906L73.8097 80.3906C75.4402 80.3825 76.8918 80.1993 78.1479 79.8207L77.5708 77.9058ZM73.8097 78.3906C72.3236 78.3832 71.0758 78.2149 70.0503 77.9058L69.4732 79.8207C70.7289 80.1992 72.1764 80.3825 73.7997 80.3906L73.8097 78.3906ZM70.046 77.9046C69.0265 77.6022 68.3278 77.1874 67.873 76.7092L66.4239 78.0877C67.1878 78.8908 68.2313 79.4525 69.4774 79.822L70.046 77.9046ZM67.8732 76.7095C67.4522 76.2666 67.2461 75.7532 67.2461 75.1133H65.2461C65.2461 76.2546 65.6415 77.2646 66.4237 78.0874L67.8732 76.7095ZM67.2461 75.1133C67.2461 74.4837 67.4505 73.9735 67.8732 73.5288L66.4237 72.1509C65.6432 72.9718 65.2461 73.9772 65.2461 75.1133H67.2461ZM67.873 73.5291C68.3295 73.0491 69.0307 72.6301 70.0521 72.3202L69.4713 70.4064C68.2271 70.7839 67.1861 71.3493 66.4239 72.1506L67.873 73.5291ZM70.0503 72.3207C71.0738 72.0123 72.3197 71.8477 73.8047 71.8477V69.8477C72.1803 69.8477 70.7309 70.0268 69.4732 70.4058L70.0503 72.3207ZM73.7958 72.6719C72.8905 72.68 72.11 72.7364 71.4708 72.8519L71.8261 74.82C72.3119 74.7323 72.9688 74.6794 73.8136 74.6718L73.7958 72.6719ZM71.4818 72.8499C70.8543 72.956 70.2576 73.1456 69.7945 73.493L70.9945 75.093C71.0939 75.0184 71.3332 74.9034 71.8151 74.822L71.4818 72.8499ZM69.7945 73.493C69.2752 73.8825 68.9727 74.4458 68.9727 75.1133H70.9727C70.9727 75.0994 70.9741 75.0951 70.9734 75.0979C70.9727 75.1011 70.9708 75.107 70.9674 75.1136C70.9641 75.12 70.9619 75.1221 70.964 75.1197C70.9665 75.1169 70.9752 75.1074 70.9945 75.093L69.7945 73.493ZM68.9727 75.1133C68.9727 75.7801 69.2682 76.3506 69.7945 76.7453L70.9945 75.1453C70.9765 75.1318 70.9686 75.1231 70.9666 75.1209C70.965 75.119 70.9671 75.1211 70.97 75.1269C70.9713 75.1295 70.9724 75.132 70.9732 75.1343C70.9736 75.1353 70.9739 75.1362 70.9741 75.1369C70.9743 75.1375 70.9743 75.1378 70.9743 75.1378C70.9743 75.1378 70.9742 75.1374 70.9741 75.1365C70.9739 75.1356 70.9737 75.1342 70.9735 75.1322C70.9731 75.1284 70.9727 75.1221 70.9727 75.1133H68.9727ZM69.7945 76.7453C70.2547 77.0904 70.8518 77.2843 71.4825 77.3981L71.8378 75.43C71.3435 75.3407 71.0969 75.2221 70.9945 75.1453L69.7945 76.7453ZM71.4958 77.4005C72.1328 77.5066 72.9076 77.5547 73.8047 77.5547V75.5547C72.9674 75.5547 72.3125 75.509 71.8246 75.4277L71.4958 77.4005ZM73.8047 77.5547C74.7094 77.5547 75.4912 77.5066 76.1349 77.4008L75.8104 75.4273C75.3135 75.509 74.65 75.5547 73.8047 75.5547V77.5547ZM76.1457 77.399C76.7859 77.2865 77.3989 77.0934 77.8608 76.7371L76.6392 75.1535C76.5542 75.2191 76.3157 75.3385 75.7996 75.4291L76.1457 77.399ZM77.8608 76.7371C78.3783 76.3379 78.6602 75.7687 78.6602 75.1133H76.6602C76.6602 75.1327 76.6583 75.1421 76.6579 75.1437C76.6576 75.1449 76.6582 75.1419 76.6607 75.1369C76.6631 75.132 76.665 75.13 76.6637 75.1315C76.6623 75.1332 76.6554 75.141 76.6392 75.1535L77.8608 76.7371ZM78.6602 75.1133C78.6602 74.4573 78.3716 73.8953 77.8608 73.5012L76.6392 75.0848C76.6566 75.0982 76.6643 75.1068 76.6663 75.1091C76.668 75.1111 76.666 75.1091 76.6632 75.1035C76.6603 75.0978 76.6591 75.0932 76.6588 75.092C76.6586 75.0911 76.6602 75.0974 76.6602 75.1133H78.6602ZM77.8608 73.5012C77.3959 73.1426 76.7834 72.9539 76.1466 72.8492L75.8222 74.8227C76.326 74.9055 76.5572 75.0215 76.6392 75.0848L77.8608 73.5012ZM76.1597 72.8514C75.5139 72.7364 74.7265 72.68 73.8135 72.6719L73.7958 74.6718C74.6485 74.6794 75.3143 74.7323 75.8091 74.8204L76.1597 72.8514ZM69.6875 61.0039C69.6875 62.3862 69.4939 63.6558 69.1154 64.8197L71.0174 65.4381C71.4671 64.0551 71.6875 62.5748 71.6875 61.0039H69.6875ZM69.1137 64.825C68.7528 65.9562 68.1695 66.9465 67.3586 67.8059L68.8133 69.1785C69.8305 68.1004 70.5675 66.8485 71.0191 65.4328L69.1137 64.825ZM67.3586 67.8059C66.5731 68.6384 65.5508 69.2746 64.2588 69.6982L64.8819 71.5987C66.4492 71.0848 67.7706 70.2835 68.8133 69.1785L67.3586 67.8059ZM65.4059 70.0991L63.4489 67.1225L61.7777 68.2212L63.7347 71.1978L65.4059 70.0991ZM62.9203 68.6236C64.2413 68.1975 65.362 67.5801 66.2426 66.7453L64.8667 65.2938C64.2474 65.8809 63.4071 66.365 62.3063 66.7202L62.9203 68.6236ZM66.2426 66.7453C67.0889 65.9431 67.7147 65.0355 68.0872 64.0203L66.2097 63.3313C65.9572 64.0191 65.5205 64.6741 64.8667 65.2938L66.2426 66.7453ZM68.0844 64.0278C68.447 63.064 68.6318 62.0568 68.6406 61.0123L66.6407 60.9955C66.6338 61.8104 66.4905 62.5845 66.2125 63.3237L68.0844 64.0278ZM68.6406 61.0039V59.8203H66.6406V61.0039H68.6406ZM67.6406 60.8203H70.6875V58.8203H67.6406V60.8203ZM69.6875 59.8203V61.0039H71.6875V59.8203H69.6875ZM70.4844 60.9805C70.4844 61.9677 70.6584 62.9182 71.0085 63.8251L72.8743 63.1046C72.6151 62.4334 72.4844 61.7276 72.4844 60.9805H70.4844ZM71.0085 63.8251C71.3747 64.7733 71.9724 65.6187 72.7708 66.3639L74.1354 64.9018C73.5276 64.3344 73.1175 63.7345 72.8743 63.1046L71.0085 63.8251ZM72.7748 66.3676C73.616 67.1441 74.6835 67.7195 75.9376 68.1205L76.5467 66.2155C75.504 65.8821 74.7121 65.434 74.1314 64.898L72.7748 66.3676ZM75.3929 66.6401L73.5647 69.5815L75.2634 70.6372L77.0915 67.6958L75.3929 66.6401ZM74.7126 69.155C73.4489 68.7596 72.4554 68.1628 71.6967 67.3842L70.2642 68.7799C71.2868 69.8294 72.5824 70.5841 74.1155 71.0638L74.7126 69.155ZM71.6967 67.3842C70.911 66.5778 70.3417 65.6451 69.9832 64.5765L68.0871 65.2126C68.5411 66.5658 69.2687 67.7582 70.2642 68.7799L71.6967 67.3842ZM69.9832 64.5765C69.6151 63.4792 69.4302 62.2849 69.4375 60.9861L67.4375 60.9749C67.4291 62.4729 67.6427 63.8879 68.0871 65.2126L69.9832 64.5765ZM69.4375 60.9805V59.8203H67.4375V60.9805H69.4375ZM68.4375 60.8203H71.4844V58.8203H68.4375V60.8203ZM70.4844 59.8203V60.9805H72.4844V59.8203H70.4844ZM75.457 60.7773H63.6562V62.7773H75.457V60.7773ZM64.6562 61.7773V58.7891H62.6562V61.7773H64.6562ZM63.6562 59.7891H75.457V57.7891H63.6562V59.7891ZM74.457 58.7891V61.7773H76.457V58.7891H74.457ZM103.418 72.8398V73.8398H104.418V72.8398H103.418ZM83.6367 72.8398H82.6367V73.8398H83.6367V72.8398ZM83.6367 69.9336V68.9336H82.6367V69.9336H83.6367ZM103.418 69.9336H104.418V68.9336H103.418V69.9336ZM95.3203 79.3203V80.3203H96.3203V79.3203H95.3203ZM91.5938 79.3203H90.5938V80.3203H91.5938V79.3203ZM91.5938 71.3984V70.3984H90.5938V71.3984H91.5938ZM95.3203 71.3984H96.3203V70.3984H95.3203V71.3984ZM89.4961 60.6172H88.4961V61.6172H89.4961V60.6172ZM97.4531 60.6172V61.6172H98.4531V60.6172H97.4531ZM97.4531 58.4609V57.4609H96.4531V58.4609H97.4531ZM101.203 58.4609H102.203V57.4609H101.203V58.4609ZM101.203 68.1758V69.1758H102.203V68.1758H101.203ZM85.8047 68.1758H84.8047V69.1758H85.8047V68.1758ZM85.8047 58.4609V57.4609H84.8047V58.4609H85.8047ZM89.4961 58.4609H90.4961V57.4609H89.4961V58.4609ZM97.4531 65.1875V66.1875H98.4531V65.1875H97.4531ZM97.4531 63.5352H98.4531V62.5352H97.4531V63.5352ZM89.4961 63.5352V62.5352H88.4961V63.5352H89.4961ZM89.4961 65.1875H88.4961V66.1875H89.4961V65.1875ZM103.418 71.8398H83.6367V73.8398H103.418V71.8398ZM84.6367 72.8398V69.9336H82.6367V72.8398H84.6367ZM83.6367 70.9336H103.418V68.9336H83.6367V70.9336ZM102.418 69.9336V72.8398H104.418V69.9336H102.418ZM95.3203 78.3203H91.5938V80.3203H95.3203V78.3203ZM92.5938 79.3203V71.3984H90.5938V79.3203H92.5938ZM91.5938 72.3984H95.3203V70.3984H91.5938V72.3984ZM94.3203 71.3984V79.3203H96.3203V71.3984H94.3203ZM89.4961 61.6172H97.4531V59.6172H89.4961V61.6172ZM98.4531 60.6172V58.4609H96.4531V60.6172H98.4531ZM97.4531 59.4609H101.203V57.4609H97.4531V59.4609ZM100.203 58.4609V68.1758H102.203V58.4609H100.203ZM101.203 67.1758H85.8047V69.1758H101.203V67.1758ZM86.8047 68.1758V58.4609H84.8047V68.1758H86.8047ZM85.8047 59.4609H89.4961V57.4609H85.8047V59.4609ZM88.4961 58.4609V60.6172H90.4961V58.4609H88.4961ZM98.4531 65.1875V63.5352H96.4531V65.1875H98.4531ZM97.4531 62.5352H89.4961V64.5352H97.4531V62.5352ZM88.4961 63.5352V65.1875H90.4961V63.5352H88.4961ZM89.4961 66.1875H97.4531V64.1875H89.4961V66.1875ZM126.949 69.6289V70.6289H127.949V69.6289H126.949ZM123.176 69.6289H122.176V70.6289H123.176V69.6289ZM123.176 57.6406V56.6406H122.176V57.6406H123.176ZM126.949 57.6406H127.949V56.6406H126.949V57.6406ZM129.656 65.1172V66.1172H130.656V65.1172H129.656ZM125.883 65.1172H124.883V66.1172H125.883V65.1172ZM125.883 62.0469V61.0469H124.883V62.0469H125.883ZM129.656 62.0469H130.656V61.0469H129.656V62.0469ZM120.797 58.8477L121.797 58.8516L121.801 57.8477H120.797V58.8477ZM119.637 64.0625L118.744 63.6116L118.742 63.6153L119.637 64.0625ZM110.707 70.332L109.81 70.7736L110.17 71.5048L110.958 71.2999L110.707 70.332ZM109.23 67.332L109.005 66.3578L107.776 66.6422L108.333 67.7736L109.23 67.332ZM113.438 65.75L113.948 66.6096L113.95 66.6085L113.438 65.75ZM115.934 63.4648L115.092 62.9245L115.089 62.93L115.934 63.4648ZM116.766 60.7227L117.766 60.7307V60.7227H116.766ZM116.766 58.8477V57.8477H115.766V58.8477H116.766ZM119.109 61.7891V62.7891H120.109V61.7891H119.109ZM110.367 61.7891H109.367V62.7891H110.367V61.7891ZM110.367 58.8477V57.8477H109.367V58.8477H110.367ZM119.109 58.8477H120.109V57.8477H119.109V58.8477ZM126.949 79.1094V80.1094H127.949V79.1094H126.949ZM112.5 79.1094H111.5V80.1094H112.5V79.1094ZM112.5 70.3555V69.3555H111.5V70.3555H112.5ZM126.949 70.3555H127.949V69.3555H126.949V70.3555ZM116.227 76.1914H115.227V77.1914H116.227V76.1914ZM123.246 76.1914V77.1914H124.246V76.1914H123.246ZM123.246 73.3555H124.246V72.3555H123.246V73.3555ZM116.227 73.3555V72.3555H115.227V73.3555H116.227ZM126.949 68.6289H123.176V70.6289H126.949V68.6289ZM124.176 69.6289V57.6406H122.176V69.6289H124.176ZM123.176 58.6406H126.949V56.6406H123.176V58.6406ZM125.949 57.6406V69.6289H127.949V57.6406H125.949ZM129.656 64.1172H125.883V66.1172H129.656V64.1172ZM126.883 65.1172V62.0469H124.883V65.1172H126.883ZM125.883 63.0469H129.656V61.0469H125.883V63.0469ZM128.656 62.0469V65.1172H130.656V62.0469H128.656ZM119.797 58.8437C119.79 60.6734 119.43 62.2546 118.744 63.6116L120.529 64.5134C121.375 62.8392 121.789 60.9438 121.797 58.8516L119.797 58.8437ZM118.742 63.6153C118.065 64.97 117.052 66.127 115.678 67.0862L116.822 68.7263C118.448 67.5917 119.693 66.1863 120.531 64.5097L118.742 63.6153ZM115.678 67.0862C114.295 68.0511 112.563 68.8168 110.456 69.3642L110.958 71.2999C113.242 70.7066 115.205 69.8552 116.822 68.7263L115.678 67.0862ZM111.604 69.8904L110.128 66.8904L108.333 67.7736L109.81 70.7736L111.604 69.8904ZM109.456 68.3063C111.213 67.8996 112.719 67.3406 113.948 66.6096L112.927 64.8904C111.922 65.4875 110.623 65.9832 109.005 66.3578L109.456 68.3063ZM113.95 66.6085C115.171 65.8796 116.134 65.0174 116.779 63.9997L115.089 62.93C114.655 63.6154 113.954 64.2767 112.925 64.8915L113.95 66.6085ZM116.775 64.0052C117.42 63.0008 117.756 61.9032 117.766 60.7307L115.766 60.7147C115.759 61.4953 115.541 62.2258 115.092 62.9245L116.775 64.0052ZM117.766 60.7227V58.8477H115.766V60.7227H117.766ZM116.766 59.8477H120.797V57.8477H116.766V59.8477ZM119.109 60.7891H110.367V62.7891H119.109V60.7891ZM111.367 61.7891V58.8477H109.367V61.7891H111.367ZM110.367 59.8477H119.109V57.8477H110.367V59.8477ZM118.109 58.8477V61.7891H120.109V58.8477H118.109ZM126.949 78.1094H112.5V80.1094H126.949V78.1094ZM113.5 79.1094V70.3555H111.5V79.1094H113.5ZM112.5 71.3555H126.949V69.3555H112.5V71.3555ZM125.949 70.3555V79.1094H127.949V70.3555H125.949ZM116.227 77.1914H123.246V75.1914H116.227V77.1914ZM124.246 76.1914V73.3555H122.246V76.1914H124.246ZM123.246 72.3555H116.227V74.3555H123.246V72.3555ZM115.227 73.3555V76.1914H117.227V73.3555H115.227ZM150.129 70.918V71.918H151.129V70.918H150.129ZM130.371 70.918H129.371V71.918H130.371V70.918ZM130.371 67.9414V66.9414H129.371V67.9414H130.371ZM150.129 67.9414H151.129V66.9414H150.129V67.9414ZM142.102 68.832V69.832H143.102V68.832H142.102ZM138.328 68.832H137.328V69.832H138.328V68.832ZM138.328 64.5781V63.5781H137.328V64.5781H138.328ZM142.102 64.5781H143.102V63.5781H142.102V64.5781ZM147.809 79.332V80.332H148.809V79.332H147.809ZM144.117 79.332H143.117V80.332H144.117V79.332ZM144.117 74.9258H145.117V73.9258H144.117V74.9258ZM132.539 74.9258H131.539V75.9258H132.539V74.9258ZM132.539 72.0078V71.0078H131.539V72.0078H132.539ZM147.809 72.0078H148.809V71.0078H147.809V72.0078ZM148.078 66.4648V67.4648H149.078V66.4648H148.078ZM132.691 66.4648H131.691V67.4648H132.691V66.4648ZM132.691 63.5117V62.5117H131.691V63.5117H132.691ZM148.078 63.5117H149.078V62.5117H148.078V63.5117ZM147.844 61.4492V62.4492H148.844V61.4492H147.844ZM136.418 61.4492V60.4492H135.418V61.4492H136.418ZM136.418 65.1406V66.1406H137.418V65.1406H136.418ZM132.691 65.1406H131.691V66.1406H132.691V65.1406ZM132.691 58.5312V57.5312H131.691V58.5312H132.691ZM147.844 58.5312H148.844V57.5312H147.844V58.5312ZM150.129 69.918H130.371V71.918H150.129V69.918ZM131.371 70.918V67.9414H129.371V70.918H131.371ZM130.371 68.9414H150.129V66.9414H130.371V68.9414ZM149.129 67.9414V70.918H151.129V67.9414H149.129ZM142.102 67.832H138.328V69.832H142.102V67.832ZM139.328 68.832V64.5781H137.328V68.832H139.328ZM138.328 65.5781H142.102V63.5781H138.328V65.5781ZM141.102 64.5781V68.832H143.102V64.5781H141.102ZM147.809 78.332H144.117V80.332H147.809V78.332ZM145.117 79.332V74.9258H143.117V79.332H145.117ZM144.117 73.9258H132.539V75.9258H144.117V73.9258ZM133.539 74.9258V72.0078H131.539V74.9258H133.539ZM132.539 73.0078H147.809V71.0078H132.539V73.0078ZM146.809 72.0078V79.332H148.809V72.0078H146.809ZM148.078 65.4648H132.691V67.4648H148.078V65.4648ZM133.691 66.4648V63.5117H131.691V66.4648H133.691ZM132.691 64.5117H148.078V62.5117H132.691V64.5117ZM147.078 63.5117V66.4648H149.078V63.5117H147.078ZM147.844 60.4492H136.418V62.4492H147.844V60.4492ZM135.418 61.4492V65.1406H137.418V61.4492H135.418ZM136.418 64.1406H132.691V66.1406H136.418V64.1406ZM133.691 65.1406V58.5312H131.691V65.1406H133.691ZM132.691 59.5312H147.844V57.5312H132.691V59.5312ZM146.844 58.5312V61.4492H148.844V58.5312H146.844Z" fill="black" mask="url(#path-2-outside-1_839_52)"/>
<path d="M38.0234 140.02H34.0586V138.75H38.0234V140.02ZM39.0977 144.57H37.5547V134.219H39.0977V144.57ZM33.3359 145.117C34.5339 145.117 35.569 145.244 36.4414 145.498C37.3138 145.752 37.9844 146.12 38.4531 146.602C38.9219 147.083 39.1562 147.663 39.1562 148.34C39.1562 149.017 38.9219 149.596 38.4531 150.078C37.9844 150.56 37.3138 150.928 36.4414 151.182C35.569 151.442 34.5339 151.576 33.3359 151.582C32.1315 151.576 31.0931 151.442 30.2207 151.182C29.3548 150.928 28.6875 150.56 28.2188 150.078C27.75 149.596 27.5156 149.017 27.5156 148.34C27.5156 147.663 27.75 147.083 28.2188 146.602C28.6875 146.12 29.3581 145.752 30.2305 145.498C31.1029 145.244 32.138 145.117 33.3359 145.117ZM33.3359 146.309C32.4505 146.309 31.6855 146.39 31.041 146.553C30.3965 146.715 29.9017 146.95 29.5566 147.256C29.2116 147.562 29.0391 147.923 29.0391 148.34C29.0391 148.757 29.2116 149.115 29.5566 149.414C29.9017 149.714 30.3965 149.945 31.041 150.107C31.6855 150.27 32.4505 150.352 33.3359 150.352C34.2148 150.352 34.9766 150.27 35.6211 150.107C36.2721 149.945 36.7702 149.714 37.1152 149.414C37.4603 149.115 37.6328 148.757 37.6328 148.34C37.6328 147.923 37.4603 147.562 37.1152 147.256C36.7702 146.95 36.2721 146.715 35.6211 146.553C34.9766 146.39 34.2148 146.309 33.3359 146.309ZM30.4648 137.422C30.4648 138.464 30.2598 139.45 29.8496 140.381C29.4395 141.312 28.8633 142.126 28.1211 142.822C27.3854 143.519 26.5391 144.049 25.582 144.414L24.7812 143.184C25.6341 142.878 26.3926 142.428 27.0566 141.836C27.7272 141.237 28.2513 140.557 28.6289 139.795C29.0065 139.027 29.1953 138.236 29.1953 137.422V135.977H30.4648V137.422ZM30.7383 137.402C30.7383 138.151 30.9173 138.877 31.2754 139.58C31.6335 140.277 32.138 140.898 32.7891 141.445C33.4401 141.992 34.1823 142.409 35.0156 142.695L34.2148 143.926C33.2839 143.587 32.4603 143.089 31.7441 142.432C31.0345 141.774 30.4811 141.012 30.084 140.146C29.6868 139.274 29.4883 138.359 29.4883 137.402V135.977H30.7383V137.402ZM34.625 136.777H25.2695V135.488H34.625V136.777ZM57.8672 145.781H41.9688V144.531H57.8672V145.781ZM50.6211 151.582H49.1172V145.078H50.6211V151.582ZM45.5234 137.344H54.2734V134.941H55.8164V142.422H44V134.941H45.5234V137.344ZM54.2734 141.172V138.594H45.5234V141.172H54.2734ZM64.957 135.488C65.8555 135.488 66.6595 135.661 67.3691 136.006C68.0788 136.351 68.6322 136.833 69.0293 137.451C69.4264 138.07 69.625 138.776 69.625 139.57C69.625 140.365 69.4264 141.071 69.0293 141.689C68.6322 142.308 68.0788 142.79 67.3691 143.135C66.6595 143.48 65.8555 143.652 64.957 143.652C64.0521 143.652 63.2415 143.48 62.5254 143.135C61.8158 142.79 61.2624 142.308 60.8652 141.689C60.4681 141.071 60.2695 140.365 60.2695 139.57C60.2695 138.776 60.4681 138.07 60.8652 137.451C61.2624 136.833 61.8158 136.351 62.5254 136.006C63.2415 135.661 64.0521 135.488 64.957 135.488ZM64.957 136.836C64.3451 136.836 63.7982 136.95 63.3164 137.178C62.8346 137.406 62.457 137.731 62.1836 138.154C61.9102 138.571 61.7734 139.043 61.7734 139.57C61.7734 140.104 61.9102 140.576 62.1836 140.986C62.457 141.396 62.8346 141.719 63.3164 141.953C63.7982 142.188 64.3451 142.305 64.957 142.305C65.5625 142.305 66.1061 142.188 66.5879 141.953C67.0762 141.719 67.4538 141.396 67.7207 140.986C67.9876 140.576 68.1211 140.104 68.1211 139.57C68.1211 139.043 67.9876 138.571 67.7207 138.154C67.4538 137.731 67.0762 137.406 66.5879 137.178C66.1061 136.95 65.5625 136.836 64.957 136.836ZM73.5117 151.621H71.9883V134.219H73.5117V151.621ZM59.3711 146.484C61.5391 146.491 63.5671 146.458 65.4551 146.387C67.3431 146.315 69.1367 146.152 70.8359 145.898L70.9531 147.031C69.7292 147.259 68.4564 147.428 67.1348 147.539C65.8132 147.643 64.5762 147.712 63.4238 147.744C62.278 147.777 60.9987 147.793 59.5859 147.793L59.3711 146.484ZM95.1328 144.473H93.5898V134.219H95.1328V144.473ZM97.7305 139.98H94.4883V138.672H97.7305V139.98ZM95.1328 148.75H85.3867V150.605H83.8633V147.715H93.6094V146.348H83.8242V145.254H95.1328V148.75ZM95.7969 151.387H83.8633V150.293H95.7969V151.387ZM87.7305 143.535H86.207V141.348H87.7305V143.535ZM81.5 142.91C83.7201 142.91 85.7122 142.881 87.4766 142.822C89.2474 142.757 90.9271 142.611 92.5156 142.383L92.6523 143.418C90.9922 143.691 89.2767 143.867 87.5059 143.945C85.735 144.023 83.7917 144.062 81.6758 144.062L81.5 142.91ZM91.9883 136.66H81.9297V135.547H91.9883V136.66ZM86.9492 137.246C87.7695 137.246 88.4857 137.334 89.0977 137.51C89.7096 137.686 90.1816 137.943 90.5137 138.281C90.8522 138.62 91.0247 139.023 91.0312 139.492C91.0247 139.974 90.8522 140.387 90.5137 140.732C90.1816 141.077 89.7096 141.344 89.0977 141.533C88.4922 141.715 87.776 141.81 86.9492 141.816C86.1224 141.81 85.403 141.715 84.791 141.533C84.1855 141.344 83.7168 141.077 83.3848 140.732C83.0527 140.387 82.8867 139.974 82.8867 139.492C82.8867 139.023 83.0527 138.62 83.3848 138.281C83.7168 137.943 84.1888 137.686 84.8008 137.51C85.4128 137.334 86.1289 137.246 86.9492 137.246ZM86.9492 138.262C86.4154 138.262 85.9531 138.311 85.5625 138.408C85.1719 138.506 84.8724 138.649 84.6641 138.838C84.4557 139.02 84.3516 139.238 84.3516 139.492C84.3516 139.753 84.4557 139.977 84.6641 140.166C84.8724 140.355 85.1719 140.505 85.5625 140.615C85.9596 140.726 86.4219 140.781 86.9492 140.781C87.4766 140.781 87.9355 140.726 88.3262 140.615C88.7233 140.505 89.0293 140.355 89.2441 140.166C89.459 139.977 89.5664 139.753 89.5664 139.492C89.5664 139.238 89.4622 139.02 89.2539 138.838C89.0456 138.649 88.7428 138.506 88.3457 138.408C87.9486 138.311 87.4831 138.262 86.9492 138.262ZM87.7305 136.152H86.207V134.062H87.7305V136.152ZM114.703 144.043H98.8633V142.812H114.703V144.043ZM107.516 143.34H106.031V140.02H107.516V143.34ZM112.848 140.781H100.875V139.531H112.848V140.781ZM112.73 136.27H102.379V140.293H100.875V135.039H112.73V136.27ZM106.773 145.312C108.01 145.312 109.075 145.436 109.967 145.684C110.859 145.931 111.542 146.289 112.018 146.758C112.499 147.22 112.743 147.78 112.75 148.438C112.743 149.102 112.503 149.665 112.027 150.127C111.559 150.589 110.875 150.944 109.977 151.191C109.078 151.445 108.01 151.576 106.773 151.582C105.523 151.576 104.449 151.445 103.551 151.191C102.652 150.944 101.965 150.586 101.49 150.117C101.015 149.655 100.777 149.095 100.777 148.438C100.777 147.78 101.015 147.22 101.49 146.758C101.965 146.289 102.652 145.931 103.551 145.684C104.449 145.436 105.523 145.312 106.773 145.312ZM106.773 146.523C105.849 146.523 105.055 146.598 104.391 146.748C103.727 146.898 103.215 147.119 102.857 147.412C102.506 147.699 102.333 148.04 102.34 148.438C102.333 148.841 102.506 149.186 102.857 149.473C103.215 149.759 103.727 149.977 104.391 150.127C105.055 150.277 105.849 150.352 106.773 150.352C107.685 150.352 108.473 150.277 109.137 150.127C109.801 149.977 110.312 149.759 110.67 149.473C111.028 149.186 111.207 148.841 111.207 148.438C111.207 148.04 111.028 147.699 110.67 147.412C110.312 147.119 109.801 146.898 109.137 146.748C108.473 146.598 107.685 146.523 106.773 146.523ZM124.059 134.531C125.341 134.531 126.441 134.645 127.359 134.873C128.284 135.101 128.987 135.439 129.469 135.889C129.951 136.338 130.191 136.882 130.191 137.52C130.191 138.171 129.951 138.724 129.469 139.18C128.987 139.635 128.287 139.98 127.369 140.215C126.451 140.443 125.348 140.56 124.059 140.566C122.763 140.56 121.656 140.443 120.738 140.215C119.827 139.98 119.127 139.635 118.639 139.18C118.15 138.724 117.906 138.171 117.906 137.52C117.906 136.882 118.15 136.338 118.639 135.889C119.127 135.439 119.83 135.101 120.748 134.873C121.666 134.645 122.77 134.531 124.059 134.531ZM124.059 135.684C123.102 135.684 122.281 135.758 121.598 135.908C120.921 136.058 120.4 136.27 120.035 136.543C119.677 136.816 119.501 137.142 119.508 137.52C119.501 137.917 119.677 138.258 120.035 138.545C120.4 138.825 120.921 139.036 121.598 139.18C122.281 139.323 123.102 139.395 124.059 139.395C125.016 139.395 125.836 139.323 126.52 139.18C127.21 139.036 127.734 138.825 128.092 138.545C128.45 138.265 128.629 137.923 128.629 137.52C128.629 137.142 128.45 136.816 128.092 136.543C127.734 136.27 127.21 136.058 126.52 135.908C125.829 135.758 125.009 135.684 124.059 135.684ZM131.969 142.988H116.148V141.738H131.969V142.988ZM129.938 148.379H119.625V150.488H118.102V147.246H128.434V145.664H118.062V144.492H129.938V148.379ZM130.465 151.387H118.102V150.176H130.465V151.387ZM163.629 175.582H162.105V158.219H163.629V175.582ZM166.539 166.656H163.277V165.387H166.539V166.656ZM160.426 162.281H150.094V161.012H160.426V162.281ZM155.348 163.727C156.155 163.727 156.881 163.896 157.525 164.234C158.17 164.573 158.674 165.045 159.039 165.65C159.41 166.256 159.599 166.943 159.605 167.711C159.599 168.486 159.41 169.176 159.039 169.781C158.674 170.38 158.17 170.849 157.525 171.188C156.881 171.526 156.155 171.695 155.348 171.695C154.534 171.695 153.801 171.526 153.15 171.188C152.506 170.849 152.001 170.38 151.637 169.781C151.272 169.176 151.09 168.486 151.09 167.711C151.09 166.943 151.272 166.256 151.637 165.65C152.001 165.045 152.506 164.573 153.15 164.234C153.801 163.896 154.534 163.727 155.348 163.727ZM155.348 165.016C154.814 165.016 154.335 165.13 153.912 165.357C153.489 165.585 153.157 165.908 152.916 166.324C152.675 166.734 152.555 167.197 152.555 167.711C152.555 168.232 152.675 168.694 152.916 169.098C153.157 169.501 153.489 169.82 153.912 170.055C154.335 170.283 154.814 170.393 155.348 170.387C155.875 170.393 156.35 170.283 156.773 170.055C157.203 169.82 157.535 169.501 157.77 169.098C158.01 168.694 158.134 168.232 158.141 167.711C158.134 167.197 158.01 166.734 157.77 166.324C157.535 165.908 157.203 165.585 156.773 165.357C156.35 165.13 155.875 165.016 155.348 165.016ZM156.09 161.598H154.566V158.434H156.09V161.598ZM180.445 161.246H169.156V159.977H180.445V161.246ZM183.297 173.121H167.477V171.852H183.297V173.121ZM175.191 172.516H173.688V165.641H175.191V172.516ZM181.402 161.93C181.389 163.368 181.344 164.654 181.266 165.787C181.194 166.92 181.025 168.232 180.758 169.723L179.195 169.547C179.397 168.544 179.544 167.594 179.635 166.695C179.732 165.797 179.791 165.016 179.811 164.352C179.837 163.681 179.853 162.841 179.859 161.832V161.715V159.977H181.402V161.715V161.93ZM186.09 178.004H184.645L185.719 172.691H187.613L186.09 178.004ZM67.9453 234.477H59.2344V233.227H67.9453V234.477ZM63.5898 235.648C64.3125 235.648 64.957 235.818 65.5234 236.156C66.0964 236.495 66.5423 236.964 66.8613 237.562C67.1868 238.155 67.3529 238.832 67.3594 239.594C67.3529 240.362 67.1868 241.046 66.8613 241.645C66.5423 242.243 66.0964 242.715 65.5234 243.061C64.957 243.406 64.3125 243.578 63.5898 243.578C62.8802 243.578 62.2389 243.406 61.666 243.061C61.0996 242.715 60.6569 242.243 60.3379 241.645C60.0189 241.046 59.8594 240.362 59.8594 239.594C59.8594 238.839 60.0221 238.161 60.3477 237.562C60.6732 236.964 61.1159 236.495 61.6758 236.156C62.2422 235.818 62.8802 235.648 63.5898 235.648ZM63.5898 236.938C63.1341 236.944 62.7272 237.064 62.3691 237.299C62.0111 237.527 61.7311 237.842 61.5293 238.246C61.3275 238.643 61.2266 239.092 61.2266 239.594C61.2266 240.102 61.3275 240.554 61.5293 240.951C61.7311 241.348 62.0111 241.661 62.3691 241.889C62.7272 242.117 63.1341 242.23 63.5898 242.23C64.0456 242.23 64.4557 242.117 64.8203 241.889C65.1849 241.661 65.4714 241.348 65.6797 240.951C65.888 240.554 65.9922 240.102 65.9922 239.594C65.9922 239.092 65.888 238.643 65.6797 238.246C65.4714 237.842 65.1849 237.527 64.8203 237.299C64.4557 237.064 64.0456 236.944 63.5898 236.938ZM74.0586 247.582H72.5938V230.219H74.0586V247.582ZM73.082 238.812H69.7617V237.543H73.082V238.812ZM70.2891 246.723H68.8438V230.648H70.2891V246.723ZM64.3711 233.988H62.8477V230.746H64.3711V233.988ZM82.0078 244.379H80.5039V239.184H82.0078V244.379ZM88.5117 244.379H86.9688V239.184H88.5117V244.379ZM92.457 245.355H76.5586V244.066H92.457V245.355ZM84.4688 231.312C85.6992 231.319 86.793 231.508 87.75 231.879C88.7135 232.243 89.4655 232.768 90.0059 233.451C90.5462 234.128 90.8164 234.906 90.8164 235.785C90.8164 236.671 90.5462 237.449 90.0059 238.119C89.4655 238.79 88.7135 239.311 87.75 239.682C86.793 240.053 85.6992 240.238 84.4688 240.238C83.2383 240.238 82.1413 240.053 81.1777 239.682C80.2207 239.311 79.472 238.79 78.9316 238.119C78.3913 237.449 78.1211 236.671 78.1211 235.785C78.1211 234.906 78.3913 234.128 78.9316 233.451C79.472 232.768 80.2207 232.243 81.1777 231.879C82.1413 231.508 83.2383 231.319 84.4688 231.312ZM84.4688 232.582C83.5247 232.576 82.6816 232.706 81.9395 232.973C81.2038 233.233 80.6309 233.607 80.2207 234.096C79.8105 234.584 79.6055 235.147 79.6055 235.785C79.6055 236.423 79.8105 236.986 80.2207 237.475C80.6309 237.963 81.2038 238.344 81.9395 238.617C82.6816 238.891 83.5247 239.027 84.4688 239.027C85.4062 239.027 86.2428 238.891 86.9785 238.617C87.7142 238.344 88.2904 237.963 88.707 237.475C89.1237 236.986 89.332 236.423 89.332 235.785C89.332 235.147 89.1237 234.584 88.707 234.096C88.2904 233.607 87.7142 233.233 86.9785 232.973C86.2428 232.706 85.4062 232.576 84.4688 232.582ZM95.6797 246.117C95.4518 246.117 95.2402 246.059 95.0449 245.941C94.8561 245.824 94.7031 245.671 94.5859 245.482C94.4753 245.287 94.4232 245.076 94.4297 244.848C94.4232 244.626 94.4753 244.418 94.5859 244.223C94.7031 244.027 94.8561 243.874 95.0449 243.764C95.2402 243.653 95.4518 243.598 95.6797 243.598C95.9076 243.598 96.1159 243.653 96.3047 243.764C96.5 243.874 96.653 244.027 96.7637 244.223C96.8743 244.418 96.9297 244.626 96.9297 244.848C96.9297 245.076 96.8743 245.287 96.7637 245.482C96.653 245.671 96.5 245.824 96.3047 245.941C96.1159 246.059 95.9076 246.117 95.6797 246.117ZM117.203 232.328H105.914V231.078H117.203V232.328ZM119.801 238.52H103.902V237.27H119.801V238.52ZM112.574 242.25H111.051V238.109H112.574V242.25ZM117.711 232.328C117.711 233.324 117.678 234.239 117.613 235.072C117.548 235.899 117.392 236.846 117.145 237.914L115.641 237.719C115.81 237.009 115.934 236.348 116.012 235.736C116.09 235.118 116.139 234.571 116.158 234.096C116.178 233.62 116.188 233.07 116.188 232.445V232.328V231.078H117.711V232.328ZM117.828 247.582H116.285V242.992H105.543V241.723H117.828V247.582ZM130.25 239.789H122.105V231.742H130.25V239.789ZM123.609 238.559H128.746V233.012H123.609V238.559ZM135.523 242.719H134V230.238H135.523V242.719ZM136.07 246.996H124.312V245.727H136.07V246.996ZM125.836 246.254H124.312V241.508H125.836V246.254ZM144.156 231.488C145.055 231.488 145.859 231.661 146.568 232.006C147.278 232.351 147.831 232.833 148.229 233.451C148.626 234.07 148.824 234.776 148.824 235.57C148.824 236.365 148.626 237.071 148.229 237.689C147.831 238.308 147.278 238.79 146.568 239.135C145.859 239.48 145.055 239.652 144.156 239.652C143.251 239.652 142.441 239.48 141.725 239.135C141.015 238.79 140.462 238.308 140.064 237.689C139.667 237.071 139.469 236.365 139.469 235.57C139.469 234.776 139.667 234.07 140.064 233.451C140.462 232.833 141.015 232.351 141.725 232.006C142.441 231.661 143.251 231.488 144.156 231.488ZM144.156 232.836C143.544 232.836 142.997 232.95 142.516 233.178C142.034 233.406 141.656 233.731 141.383 234.154C141.109 234.571 140.973 235.043 140.973 235.57C140.973 236.104 141.109 236.576 141.383 236.986C141.656 237.396 142.034 237.719 142.516 237.953C142.997 238.188 143.544 238.305 144.156 238.305C144.762 238.305 145.305 238.188 145.787 237.953C146.275 237.719 146.653 237.396 146.92 236.986C147.187 236.576 147.32 236.104 147.32 235.57C147.32 235.043 147.187 234.571 146.92 234.154C146.653 233.731 146.275 233.406 145.787 233.178C145.305 232.95 144.762 232.836 144.156 232.836ZM152.711 247.621H151.188V230.219H152.711V247.621ZM138.57 242.484C140.738 242.491 142.766 242.458 144.654 242.387C146.542 242.315 148.336 242.152 150.035 241.898L150.152 243.031C148.928 243.259 147.656 243.428 146.334 243.539C145.012 243.643 143.775 243.712 142.623 243.744C141.477 243.777 140.198 243.793 138.785 243.793L138.57 242.484ZM38.5117 260.82H26.7539V254.961H38.5117V260.82ZM28.2578 259.59H36.9883V256.191H28.2578V259.59ZM40.5234 264.297H24.7031V263.047H40.5234V264.297ZM33.375 263.535H31.8516V260.508H33.375V263.535ZM38.5703 271.582H37.0273V267.344H26.4609V266.113H38.5703V271.582ZM57.8867 269.316H41.9883V268.047H57.8867V269.316ZM50.6016 268.477H49.0977V263.789H50.6016V268.477ZM50.3867 256.738C50.3867 257.923 50.0449 259.023 49.3613 260.039C48.6777 261.055 47.7923 261.904 46.7051 262.588C45.6178 263.271 44.4818 263.737 43.2969 263.984L42.6133 262.715C43.6419 262.539 44.6543 262.158 45.6504 261.572C46.6465 260.98 47.4603 260.26 48.0918 259.414C48.7233 258.561 49.0391 257.669 49.0391 256.738V255.41H50.3867V256.738ZM50.6406 256.738C50.6406 257.663 50.9629 258.551 51.6074 259.404C52.252 260.257 53.0723 260.98 54.0684 261.572C55.071 262.158 56.0833 262.539 57.1055 262.715L56.4219 263.984C55.237 263.737 54.1009 263.271 53.0137 262.588C51.9264 261.904 51.0378 261.055 50.3477 260.039C49.6641 259.023 49.3255 257.923 49.332 256.738V255.41H50.6406V256.738ZM73.6094 271.621H72.0859V254.219H73.6094V271.621ZM61.7344 266.113C63.3099 266.12 64.7747 266.077 66.1289 265.986C67.4896 265.895 68.9154 265.729 70.4062 265.488L70.5625 266.777C69.0521 267.012 67.6068 267.174 66.2266 267.266C64.8464 267.357 63.349 267.402 61.7344 267.402H60.2891V266.113H61.7344ZM68.3359 262.012H61.8516V266.602H60.2891V260.762H66.793V257.109H60.25V255.84H68.3359V262.012ZM92.4375 263.496H76.5391V262.285H92.4375V263.496ZM90.4453 268.574H80.0156V270.645H78.4727V267.52H88.9219V266.035H78.4531V264.883H90.4453V268.574ZM91.0117 271.348H78.4727V270.234H91.0117V271.348ZM90.3867 258.34H80.1328V260.254H78.6094V257.285H88.8438V255.859H78.5508V254.746H90.3867V258.34ZM90.6992 260.977H78.6094V259.863H90.6992V260.977ZM114.703 263.691H98.8633V262.383H114.703V263.691ZM112.867 260.527H100.914V259.277H112.867V260.527ZM112.672 256.055H102.457V260.039H100.914V254.766H112.672V256.055ZM112.945 271.348H100.875V270.078H112.945V271.348ZM112.789 266.816H102.398V270.801H100.875V265.566H112.789V266.816ZM129.117 257.246H117.828V255.977H129.117V257.246ZM131.969 269.121H116.148V267.852H131.969V269.121ZM123.863 268.516H122.359V261.641H123.863V268.516ZM130.074 257.93C130.061 259.368 130.016 260.654 129.938 261.787C129.866 262.92 129.697 264.232 129.43 265.723L127.867 265.547C128.069 264.544 128.215 263.594 128.307 262.695C128.404 261.797 128.463 261.016 128.482 260.352C128.508 259.681 128.525 258.841 128.531 257.832V257.715V255.977H130.074V257.715V257.93ZM38.0234 284.02H34.0586V282.75H38.0234V284.02ZM39.0977 288.57H37.5547V278.219H39.0977V288.57ZM33.3359 289.117C34.5339 289.117 35.569 289.244 36.4414 289.498C37.3138 289.752 37.9844 290.12 38.4531 290.602C38.9219 291.083 39.1562 291.663 39.1562 292.34C39.1562 293.017 38.9219 293.596 38.4531 294.078C37.9844 294.56 37.3138 294.928 36.4414 295.182C35.569 295.442 34.5339 295.576 33.3359 295.582C32.1315 295.576 31.0931 295.442 30.2207 295.182C29.3548 294.928 28.6875 294.56 28.2188 294.078C27.75 293.596 27.5156 293.017 27.5156 292.34C27.5156 291.663 27.75 291.083 28.2188 290.602C28.6875 290.12 29.3581 289.752 30.2305 289.498C31.1029 289.244 32.138 289.117 33.3359 289.117ZM33.3359 290.309C32.4505 290.309 31.6855 290.39 31.041 290.553C30.3965 290.715 29.9017 290.95 29.5566 291.256C29.2116 291.562 29.0391 291.923 29.0391 292.34C29.0391 292.757 29.2116 293.115 29.5566 293.414C29.9017 293.714 30.3965 293.945 31.041 294.107C31.6855 294.27 32.4505 294.352 33.3359 294.352C34.2148 294.352 34.9766 294.27 35.6211 294.107C36.2721 293.945 36.7702 293.714 37.1152 293.414C37.4603 293.115 37.6328 292.757 37.6328 292.34C37.6328 291.923 37.4603 291.562 37.1152 291.256C36.7702 290.95 36.2721 290.715 35.6211 290.553C34.9766 290.39 34.2148 290.309 33.3359 290.309ZM30.4648 281.422C30.4648 282.464 30.2598 283.45 29.8496 284.381C29.4395 285.312 28.8633 286.126 28.1211 286.822C27.3854 287.519 26.5391 288.049 25.582 288.414L24.7812 287.184C25.6341 286.878 26.3926 286.428 27.0566 285.836C27.7272 285.237 28.2513 284.557 28.6289 283.795C29.0065 283.027 29.1953 282.236 29.1953 281.422V279.977H30.4648V281.422ZM30.7383 281.402C30.7383 282.151 30.9173 282.877 31.2754 283.58C31.6335 284.277 32.138 284.898 32.7891 285.445C33.4401 285.992 34.1823 286.409 35.0156 286.695L34.2148 287.926C33.2839 287.587 32.4603 287.089 31.7441 286.432C31.0345 285.774 30.4811 285.012 30.084 284.146C29.6868 283.274 29.4883 282.359 29.4883 281.402V279.977H30.7383V281.402ZM34.625 280.777H25.2695V279.488H34.625V280.777ZM57.8672 289.781H41.9688V288.531H57.8672V289.781ZM50.6211 295.582H49.1172V289.078H50.6211V295.582ZM45.5234 281.344H54.2734V278.941H55.8164V286.422H44V278.941H45.5234V281.344ZM54.2734 285.172V282.594H45.5234V285.172H54.2734ZM75.1523 287.496H59.2539V286.285H75.1523V287.496ZM73.1602 292.574H62.7305V294.645H61.1875V291.52H71.6367V290.035H61.168V288.883H73.1602V292.574ZM73.7266 295.348H61.1875V294.234H73.7266V295.348ZM73.1016 282.34H62.8477V284.254H61.3242V281.285H71.5586V279.859H61.2656V278.746H73.1016V282.34ZM73.4141 284.977H61.3242V283.863H73.4141V284.977ZM86.4609 281.988C86.4544 282.919 86.2917 283.805 85.9727 284.645C85.6602 285.478 85.2044 286.217 84.6055 286.861C84.013 287.506 83.3034 288.004 82.4766 288.355L81.7148 287.203C82.4375 286.904 83.0658 286.487 83.5996 285.953C84.14 285.419 84.5501 284.811 84.8301 284.127C85.1165 283.437 85.263 282.724 85.2695 281.988V281.383H86.4609V281.988ZM86.7148 281.988C86.7148 282.672 86.8613 283.336 87.1543 283.98C87.4473 284.618 87.8607 285.191 88.3945 285.699C88.9349 286.201 89.5664 286.585 90.2891 286.852L89.5469 288.043C88.7135 287.711 87.9974 287.239 87.3984 286.627C86.7995 286.008 86.3405 285.302 86.0215 284.508C85.709 283.707 85.556 282.867 85.5625 281.988V281.383H86.7148V281.988ZM89.8594 281.773H82.0664V280.523H89.8594V281.773ZM86.7148 281.051H85.2695V278.434H86.7148V281.051ZM96.3242 288.863H94.8594V278.238H96.3242V288.863ZM95.3281 284.156H91.9883V282.887H95.3281V284.156ZM92.5938 288.785H91.1094V278.551H92.5938V288.785ZM96.3242 295.582H94.8203V291.051H84.625V289.801H96.3242V295.582ZM113.199 288.16H111.676V278.238H113.199V288.16ZM113.199 295.348H101.91V289.098H113.199V295.348ZM103.414 294.098H111.695V290.348H103.414V294.098ZM103.824 279.156C104.697 279.156 105.478 279.326 106.168 279.664C106.858 280.003 107.398 280.481 107.789 281.1C108.18 281.718 108.375 282.424 108.375 283.219C108.375 284 108.18 284.697 107.789 285.309C107.398 285.921 106.858 286.399 106.168 286.744C105.478 287.089 104.697 287.262 103.824 287.262C102.952 287.262 102.171 287.089 101.48 286.744C100.79 286.399 100.25 285.921 99.8594 285.309C99.4688 284.697 99.2734 284 99.2734 283.219C99.2734 282.424 99.4688 281.718 99.8594 281.1C100.25 280.481 100.79 280.003 101.48 279.664C102.171 279.326 102.952 279.156 103.824 279.156ZM103.824 280.465C103.238 280.465 102.714 280.579 102.252 280.807C101.79 281.035 101.425 281.36 101.158 281.783C100.898 282.206 100.771 282.685 100.777 283.219C100.771 283.746 100.898 284.218 101.158 284.635C101.425 285.045 101.79 285.367 102.252 285.602C102.714 285.836 103.238 285.953 103.824 285.953C104.404 285.953 104.924 285.836 105.387 285.602C105.855 285.367 106.22 285.045 106.48 284.635C106.741 284.218 106.871 283.746 106.871 283.219C106.871 282.685 106.741 282.206 106.48 281.783C106.22 281.36 105.855 281.035 105.387 280.807C104.924 280.579 104.404 280.465 103.824 280.465ZM122.086 283.551C122.086 284.749 121.858 285.93 121.402 287.096C120.947 288.261 120.335 289.296 119.566 290.201C118.805 291.106 117.971 291.786 117.066 292.242L116.148 291.031C116.975 290.634 117.743 290.035 118.453 289.234C119.169 288.427 119.742 287.522 120.172 286.52C120.602 285.517 120.816 284.527 120.816 283.551V280.68H122.086V283.551ZM122.359 283.551C122.359 284.508 122.574 285.462 123.004 286.412C123.434 287.356 124.007 288.199 124.723 288.941C125.439 289.684 126.22 290.237 127.066 290.602L126.207 291.812C125.263 291.383 124.404 290.745 123.629 289.898C122.861 289.052 122.249 288.079 121.793 286.979C121.344 285.872 121.122 284.729 121.129 283.551V280.68H122.359V283.551ZM126.5 281.285H116.715V280.016H126.5V281.285ZM130.465 295.582H128.922V278.219H130.465V295.582ZM147.457 287.613H135.465V286.363H147.457V287.613ZM149.332 293.395H133.434V292.105H149.332V293.395ZM142.086 292.633H140.582V286.91H142.086V292.633ZM147.281 280.895H137.008V286.949H135.465V279.645H147.281V280.895ZM166.598 289.059H150.699V287.789H166.598V289.059ZM164.547 282.867H154.293V285.23H152.77V281.715H163.004V279.918H152.711V278.668H164.547V282.867ZM164.918 285.953H152.77V284.723H164.918V285.953ZM159.391 288.414H157.887V285.348H159.391V288.414ZM164.645 295.426H163.102V291.637H152.477V290.387H164.645V295.426ZM38.7656 311.418H26.6562V310.129H38.7656V311.418ZM40.6016 317.316H24.7031V316.047H40.6016V317.316ZM33.375 316.477H31.8516V310.91H33.375V316.477ZM28.2188 310.676H26.6562V303.703H28.2188V310.676ZM43.9609 310.852C45.7904 310.858 47.2096 310.835 48.2188 310.783C49.2344 310.725 50.2435 310.604 51.2461 310.422L51.4023 311.691C50.3672 311.861 49.332 311.971 48.2969 312.023C47.2682 312.076 45.8229 312.102 43.9609 312.102H42.7305V310.852H43.9609ZM50.2305 308.156H44.2539V311.594H42.7305V306.984H48.707V304.523H42.6914V303.293H50.2305V308.156ZM56.3828 312.902H54.8398V302.238H56.3828V312.902ZM55.2109 306.066H51.3828V304.816H55.2109V306.066ZM55.2109 309.68H51.3828V308.41H55.2109V309.68ZM56.3828 319.621H54.8398V315.09H44.6836V313.84H56.3828V319.621ZM67.9453 306.477H59.2344V305.227H67.9453V306.477ZM63.5898 307.648C64.3125 307.648 64.957 307.818 65.5234 308.156C66.0964 308.495 66.5423 308.964 66.8613 309.562C67.1868 310.155 67.3529 310.832 67.3594 311.594C67.3529 312.362 67.1868 313.046 66.8613 313.645C66.5423 314.243 66.0964 314.715 65.5234 315.061C64.957 315.406 64.3125 315.578 63.5898 315.578C62.8802 315.578 62.2389 315.406 61.666 315.061C61.0996 314.715 60.6569 314.243 60.3379 313.645C60.0189 313.046 59.8594 312.362 59.8594 311.594C59.8594 310.839 60.0221 310.161 60.3477 309.562C60.6732 308.964 61.1159 308.495 61.6758 308.156C62.2422 307.818 62.8802 307.648 63.5898 307.648ZM63.5898 308.938C63.1341 308.944 62.7272 309.064 62.3691 309.299C62.0111 309.527 61.7311 309.842 61.5293 310.246C61.3275 310.643 61.2266 311.092 61.2266 311.594C61.2266 312.102 61.3275 312.554 61.5293 312.951C61.7311 313.348 62.0111 313.661 62.3691 313.889C62.7272 314.117 63.1341 314.23 63.5898 314.23C64.0456 314.23 64.4557 314.117 64.8203 313.889C65.1849 313.661 65.4714 313.348 65.6797 312.951C65.888 312.554 65.9922 312.102 65.9922 311.594C65.9922 311.092 65.888 310.643 65.6797 310.246C65.4714 309.842 65.1849 309.527 64.8203 309.299C64.4557 309.064 64.0456 308.944 63.5898 308.938ZM74.0586 319.582H72.5938V302.219H74.0586V319.582ZM73.082 310.812H69.7617V309.543H73.082V310.812ZM70.2891 318.723H68.8438V302.648H70.2891V318.723ZM64.3711 305.988H62.8477V302.746H64.3711V305.988ZM82.0078 316.379H80.5039V311.184H82.0078V316.379ZM88.5117 316.379H86.9688V311.184H88.5117V316.379ZM92.457 317.355H76.5586V316.066H92.457V317.355ZM84.4688 303.312C85.6992 303.319 86.793 303.508 87.75 303.879C88.7135 304.243 89.4655 304.768 90.0059 305.451C90.5462 306.128 90.8164 306.906 90.8164 307.785C90.8164 308.671 90.5462 309.449 90.0059 310.119C89.4655 310.79 88.7135 311.311 87.75 311.682C86.793 312.053 85.6992 312.238 84.4688 312.238C83.2383 312.238 82.1413 312.053 81.1777 311.682C80.2207 311.311 79.472 310.79 78.9316 310.119C78.3913 309.449 78.1211 308.671 78.1211 307.785C78.1211 306.906 78.3913 306.128 78.9316 305.451C79.472 304.768 80.2207 304.243 81.1777 303.879C82.1413 303.508 83.2383 303.319 84.4688 303.312ZM84.4688 304.582C83.5247 304.576 82.6816 304.706 81.9395 304.973C81.2038 305.233 80.6309 305.607 80.2207 306.096C79.8105 306.584 79.6055 307.147 79.6055 307.785C79.6055 308.423 79.8105 308.986 80.2207 309.475C80.6309 309.963 81.2038 310.344 81.9395 310.617C82.6816 310.891 83.5247 311.027 84.4688 311.027C85.4062 311.027 86.2428 310.891 86.9785 310.617C87.7142 310.344 88.2904 309.963 88.707 309.475C89.1237 308.986 89.332 308.423 89.332 307.785C89.332 307.147 89.1237 306.584 88.707 306.096C88.2904 305.607 87.7142 305.233 86.9785 304.973C86.2428 304.706 85.4062 304.576 84.4688 304.582ZM95.6797 318.117C95.4518 318.117 95.2402 318.059 95.0449 317.941C94.8561 317.824 94.7031 317.671 94.5859 317.482C94.4753 317.287 94.4232 317.076 94.4297 316.848C94.4232 316.626 94.4753 316.418 94.5859 316.223C94.7031 316.027 94.8561 315.874 95.0449 315.764C95.2402 315.653 95.4518 315.598 95.6797 315.598C95.9076 315.598 96.1159 315.653 96.3047 315.764C96.5 315.874 96.653 316.027 96.7637 316.223C96.8743 316.418 96.9297 316.626 96.9297 316.848C96.9297 317.076 96.8743 317.287 96.7637 317.482C96.653 317.671 96.5 317.824 96.3047 317.941C96.1159 318.059 95.9076 318.117 95.6797 318.117Z" fill="#0E0E0E"/>
<path d="M30.9824 162.623C30.9759 164.088 30.7871 165.475 30.416 166.783C30.0449 168.085 29.4785 169.241 28.7168 170.25C27.9551 171.253 27.0111 172.011 25.8848 172.525L24.293 170.309C25.2826 169.872 26.1094 169.247 26.7734 168.434C27.4375 167.62 27.9258 166.715 28.2383 165.719C28.5508 164.716 28.707 163.684 28.707 162.623V160.826H30.9824V162.623ZM31.5781 162.623C31.5781 163.639 31.7311 164.615 32.0371 165.553C32.3431 166.49 32.8216 167.343 33.4727 168.111C34.1302 168.873 34.9603 169.459 35.9629 169.869L34.4492 172.066C33.2969 171.585 32.3398 170.868 31.5781 169.918C30.8229 168.961 30.263 167.861 29.8984 166.617C29.5404 165.374 29.3646 164.042 29.3711 162.623V160.826H31.5781V162.623ZM35.1719 161.93H25.0449V159.645H35.1719V161.93ZM39.5371 175.865H36.6758V157.936H39.5371V175.865ZM58.0918 168.805H41.7637V166.568H58.0918V168.805ZM51.2852 167.535H48.502V164.332H51.2852V167.535ZM50.8359 158.766C50.8359 159.898 50.5592 160.924 50.0059 161.842C49.459 162.753 48.6387 163.525 47.5449 164.156C46.4512 164.781 45.1198 165.208 43.5508 165.436L42.5449 163.248C43.8861 163.085 44.9993 162.773 45.8848 162.311C46.7767 161.848 47.4277 161.311 47.8379 160.699C48.248 160.087 48.4531 159.443 48.4531 158.766V158.258H50.8359V158.766ZM51.3242 158.766C51.3242 159.482 51.526 160.146 51.9297 160.758C52.3398 161.363 52.9844 161.891 53.8633 162.34C54.7487 162.783 55.8815 163.085 57.2617 163.248L56.1777 165.436C54.6087 165.208 53.2773 164.785 52.1836 164.166C51.0964 163.541 50.276 162.773 49.7227 161.861C49.1758 160.943 48.9056 159.911 48.9121 158.766V158.258H51.3242V158.766ZM56.1191 175.865H53.3262V172.096H43.5703V169.918H56.1191V175.865ZM65.3867 160.826C65.3867 161.992 65.2077 163.089 64.8496 164.117C64.498 165.139 63.9414 166.038 63.1797 166.812C62.4245 167.581 61.474 168.144 60.3281 168.502L58.8828 166.285C59.8529 165.979 60.6536 165.536 61.2852 164.957C61.9167 164.378 62.3757 163.736 62.6621 163.033C62.9486 162.324 63.0951 161.588 63.1016 160.826V159.703H65.3867V160.826ZM65.9727 160.787C65.9727 161.516 66.1094 162.216 66.3828 162.887C66.6562 163.551 67.0924 164.156 67.6914 164.703C68.2969 165.25 69.0651 165.676 69.9961 165.982L68.6191 168.15C67.5059 167.799 66.5781 167.255 65.8359 166.52C65.1003 165.784 64.5566 164.928 64.2051 163.951C63.86 162.968 63.6875 161.913 63.6875 160.787V159.703H65.9727V160.787ZM72.2227 164.43H68.9121V162.135H72.2227V164.43ZM69.4004 161.109H59.6641V158.873H69.4004V161.109ZM74.2148 175.865H71.4219V171.578H61.8223V169.342H74.2148V175.865ZM74.2148 168.6H71.4219V157.936H74.2148V168.6ZM84.498 158.795C85.7611 158.795 86.9102 159.013 87.9453 159.449C88.9805 159.885 89.7975 160.501 90.3965 161.295C91.002 162.083 91.3047 162.988 91.3047 164.01C91.3047 165.045 91.002 165.96 90.3965 166.754C89.7975 167.548 88.9805 168.163 87.9453 168.6C86.9102 169.036 85.7611 169.254 84.498 169.254C83.2285 169.254 82.0762 169.036 81.041 168.6C80.0124 168.163 79.1986 167.548 78.5996 166.754C78.0072 165.96 77.7109 165.045 77.7109 164.01C77.7109 162.988 78.0072 162.083 78.5996 161.295C79.1986 160.501 80.0124 159.885 81.041 159.449C82.0762 159.013 83.2285 158.795 84.498 158.795ZM84.498 161.061C83.7038 161.061 83.0007 161.178 82.3887 161.412C81.7767 161.646 81.3014 161.988 80.9629 162.438C80.6243 162.887 80.4551 163.411 80.4551 164.01C80.4551 164.622 80.6243 165.149 80.9629 165.592C81.3014 166.035 81.7767 166.373 82.3887 166.607C83.0007 166.835 83.7038 166.952 84.498 166.959C85.2858 166.952 85.9824 166.835 86.5879 166.607C87.1934 166.373 87.6621 166.035 87.9941 165.592C88.3327 165.149 88.502 164.622 88.502 164.01C88.502 163.411 88.3327 162.887 87.9941 162.438C87.6556 161.988 87.1836 161.646 86.5781 161.412C85.9727 161.178 85.2793 161.061 84.498 161.061ZM92.7109 173.766H76.334V171.5H92.7109V173.766ZM109.996 173.951H93.6191V171.656H109.996V173.951ZM103.16 172.604H100.387V168.414H103.16V172.604ZM108.16 165.162H98.2578V168.043H95.4551V162.984H105.387V161.305H95.4258V159.068H108.16V165.162ZM108.58 169.156H95.4551V166.891H108.58V169.156ZM129.664 167.906H126.842V157.936H129.664V167.906ZM131.988 164.029H128.873V161.725H131.988V164.029ZM124.615 158.971C124.609 160.566 124.286 161.985 123.648 163.229C123.01 164.472 122.066 165.527 120.816 166.393C119.573 167.258 118.049 167.929 116.246 168.404L115.133 166.158C116.559 165.82 117.753 165.357 118.717 164.771C119.68 164.186 120.4 163.518 120.875 162.77C121.357 162.021 121.601 161.217 121.607 160.357V158.971H124.615ZM123.326 161.178H116.041V158.971H123.326V161.178ZM129.664 175.67H117.828V168.541H129.664V175.67ZM120.621 173.482H126.891V170.797H120.621V173.482ZM149.02 168.775H132.682V166.539H149.02V168.775ZM142.242 167.242H139.42V163.697H142.242V167.242ZM147.086 175.895H144.322V172.037H134.488V169.84H147.086V175.895ZM147.301 165.133H134.635V162.906H147.301V165.133ZM147.115 160.865H137.428V164.127H134.635V158.668H147.115V160.865ZM37.5547 188.488H34.3223V186.223H37.5547V188.488ZM39.6445 192.59H36.8516V181.936H39.6445V192.59ZM33.4727 192.922C34.7487 192.922 35.8522 193.062 36.7832 193.342C37.7207 193.622 38.4401 194.022 38.9414 194.543C39.4427 195.064 39.6966 195.689 39.7031 196.418C39.6966 197.141 39.4427 197.762 38.9414 198.283C38.4401 198.804 37.7207 199.204 36.7832 199.484C35.8522 199.764 34.7487 199.904 33.4727 199.904C32.1901 199.904 31.0833 199.764 30.1523 199.484C29.2214 199.204 28.5052 198.804 28.0039 198.283C27.5091 197.762 27.2617 197.141 27.2617 196.418C27.2617 195.689 27.5091 195.064 28.0039 194.543C28.5052 194.022 29.2214 193.622 30.1523 193.342C31.0898 193.062 32.1966 192.922 33.4727 192.922ZM33.4727 195.041C32.7044 195.048 32.0697 195.1 31.5684 195.197C31.0736 195.295 30.696 195.445 30.4355 195.646C30.1816 195.848 30.0547 196.105 30.0547 196.418C30.0547 196.724 30.1816 196.978 30.4355 197.18C30.696 197.382 31.0768 197.531 31.5781 197.629C32.0794 197.727 32.7109 197.775 33.4727 197.775C34.2279 197.775 34.8594 197.727 35.3672 197.629C35.8815 197.531 36.2656 197.382 36.5195 197.18C36.7734 196.978 36.9004 196.724 36.9004 196.418C36.9004 196.105 36.7734 195.848 36.5195 195.646C36.2656 195.445 35.8848 195.295 35.377 195.197C34.8691 195.1 34.2344 195.048 33.4727 195.041ZM30.8164 184.816C30.8164 186.014 30.6374 187.131 30.2793 188.166C29.9277 189.201 29.3743 190.113 28.6191 190.9C27.8639 191.682 26.9102 192.264 25.7578 192.648L24.293 190.422C25.276 190.096 26.0833 189.637 26.7148 189.045C27.3464 188.452 27.8053 187.798 28.0918 187.082C28.3783 186.359 28.5247 185.604 28.5312 184.816V183.742H30.8164V184.816ZM31.4023 184.797C31.4023 185.526 31.5391 186.226 31.8125 186.896C32.0859 187.561 32.5221 188.166 33.1211 188.713C33.7266 189.26 34.4948 189.686 35.4258 189.992L34.0488 192.189C32.9355 191.831 32.0078 191.281 31.2656 190.539C30.5299 189.797 29.9863 188.938 29.6348 187.961C29.2897 186.978 29.1172 185.923 29.1172 184.797V183.742H31.4023V184.797ZM34.8301 185.207H25.0938V182.961H34.8301V185.207ZM58.1211 194.387H41.7441V192.189H58.1211V194.387ZM51.2656 199.865H48.4824V193.283H51.2656V199.865ZM46.3633 184.543H53.4141V182.629H56.2266V190.598H43.5996V182.629H46.3633V184.543ZM53.4141 188.361V186.74H46.3633V188.361H53.4141ZM73.2578 199.836H70.4355V181.936H73.2578V199.836ZM75.6699 190.988H72.5254V188.684H75.6699V190.988ZM68.4238 183.752C68.4173 185.66 68.1569 187.411 67.6426 189.006C67.1283 190.594 66.2721 192.056 65.0742 193.391C63.8828 194.719 62.304 195.865 60.3379 196.828L58.7559 194.689C60.3379 193.889 61.6367 192.99 62.6523 191.994C63.668 190.998 64.4232 189.868 64.918 188.605C65.4193 187.336 65.6699 185.891 65.6699 184.27V183.752H68.4238ZM67.0859 186.047H59.8105V183.752H67.0859V186.047ZM94.1855 184.934H82.7988V182.707H94.1855V184.934ZM97.2031 191.047H80.8262V188.811H97.2031V191.047ZM90.3867 194.045H87.5645V190.393H90.3867V194.045ZM95.3281 184.152C95.3281 185.227 95.2956 186.187 95.2305 187.033C95.1719 187.873 95.0221 188.817 94.7812 189.865L91.9883 189.582C92.1445 188.898 92.2585 188.254 92.3301 187.648C92.4082 187.036 92.457 186.493 92.4766 186.018C92.5026 185.542 92.5189 184.973 92.5254 184.309V184.152V182.707H95.3281V184.152ZM95.3184 199.865H92.4863V195.568H82.4375V193.371H95.3184V199.865ZM107.857 192.082H99V183.342H107.857V192.082ZM101.764 189.885H105.064V185.568H101.764V189.885ZM113.16 194.67H110.338V181.975H113.16V194.67ZM113.619 199.543H101.021V197.297H113.619V199.543ZM103.873 198.332H101.021V193.508H103.873V198.332ZM123.561 182.189C124.947 182.189 126.132 182.307 127.115 182.541C128.098 182.775 128.844 183.12 129.352 183.576C129.866 184.025 130.123 184.576 130.123 185.227C130.123 185.884 129.866 186.441 129.352 186.896C128.844 187.352 128.098 187.697 127.115 187.932C126.132 188.166 124.947 188.283 123.561 188.283C122.167 188.283 120.979 188.166 119.996 187.932C119.013 187.697 118.261 187.352 117.74 186.896C117.226 186.441 116.969 185.884 116.969 185.227C116.969 184.576 117.226 184.025 117.74 183.576C118.261 183.12 119.013 182.775 119.996 182.541C120.979 182.307 122.167 182.189 123.561 182.189ZM123.561 184.23C122.714 184.23 122.024 184.266 121.49 184.338C120.956 184.41 120.559 184.52 120.299 184.67C120.045 184.82 119.921 185.005 119.928 185.227C119.921 185.474 120.042 185.673 120.289 185.822C120.543 185.965 120.927 186.07 121.441 186.135C121.962 186.193 122.669 186.226 123.561 186.232C124.452 186.226 125.159 186.193 125.68 186.135C126.207 186.07 126.594 185.965 126.842 185.822C127.089 185.673 127.213 185.474 127.213 185.227C127.213 185.005 127.086 184.82 126.832 184.67C126.578 184.52 126.181 184.41 125.641 184.338C125.1 184.266 124.407 184.23 123.561 184.23ZM131.734 191.242H115.396V189.016H131.734V191.242ZM129.781 196.848H120.016V198.283H117.252V194.904H126.988V194.133H117.252V192.092H129.781V196.848ZM130.221 199.768H117.252V197.678H130.221V199.768ZM142.984 182.648C143.896 182.648 144.713 182.811 145.436 183.137C146.165 183.456 146.731 183.911 147.135 184.504C147.545 185.09 147.75 185.757 147.75 186.506C147.75 187.248 147.545 187.912 147.135 188.498C146.731 189.084 146.165 189.543 145.436 189.875C144.713 190.201 143.896 190.363 142.984 190.363C142.086 190.363 141.275 190.201 140.553 189.875C139.83 189.543 139.264 189.084 138.854 188.498C138.443 187.912 138.238 187.248 138.238 186.506C138.238 185.757 138.443 185.09 138.854 184.504C139.264 183.911 139.827 183.456 140.543 183.137C141.266 182.811 142.079 182.648 142.984 182.648ZM142.984 184.904C142.587 184.904 142.236 184.966 141.93 185.09C141.624 185.207 141.383 185.389 141.207 185.637C141.038 185.878 140.953 186.167 140.953 186.506C140.953 186.844 141.038 187.131 141.207 187.365C141.383 187.593 141.624 187.769 141.93 187.893C142.236 188.016 142.587 188.075 142.984 188.068C143.408 188.075 143.775 188.016 144.088 187.893C144.407 187.769 144.654 187.593 144.83 187.365C145.006 187.131 145.094 186.844 145.094 186.506C145.094 186.167 145.006 185.878 144.83 185.637C144.654 185.389 144.407 185.207 144.088 185.09C143.769 184.966 143.401 184.904 142.984 184.904ZM144.508 199.348H141.695V192.092H144.508V199.348ZM152.359 199.855H149.566V181.975H152.359V199.855ZM137.223 191.301C139.293 191.301 141.285 191.258 143.199 191.174C145.113 191.089 146.904 190.917 148.57 190.656L148.756 192.707C147.636 192.941 146.471 193.117 145.26 193.234C144.049 193.352 142.919 193.433 141.871 193.479C140.823 193.524 139.589 193.557 138.17 193.576C138.059 193.576 137.958 193.576 137.867 193.576C137.776 193.576 137.678 193.576 137.574 193.576L137.223 191.301ZM162.984 186.789H154.42V184.562H162.984V186.789ZM158.746 187.473C159.514 187.473 160.198 187.655 160.797 188.02C161.402 188.378 161.871 188.885 162.203 189.543C162.542 190.201 162.711 190.943 162.711 191.77C162.711 192.609 162.542 193.355 162.203 194.006C161.871 194.657 161.402 195.171 160.797 195.549C160.198 195.92 159.514 196.105 158.746 196.105C157.997 196.105 157.317 195.92 156.705 195.549C156.1 195.171 155.628 194.657 155.289 194.006C154.951 193.348 154.781 192.603 154.781 191.77C154.781 190.949 154.951 190.214 155.289 189.562C155.634 188.905 156.109 188.394 156.715 188.029C157.32 187.658 157.997 187.473 158.746 187.473ZM158.746 189.797C158.447 189.79 158.183 189.865 157.955 190.021C157.734 190.171 157.561 190.396 157.438 190.695C157.314 190.995 157.252 191.353 157.252 191.77C157.252 192.193 157.314 192.551 157.438 192.844C157.561 193.137 157.734 193.358 157.955 193.508C158.183 193.658 158.447 193.732 158.746 193.732C159.046 193.732 159.309 193.658 159.537 193.508C159.765 193.358 159.941 193.137 160.064 192.844C160.188 192.551 160.25 192.193 160.25 191.77C160.25 191.353 160.188 190.995 160.064 190.695C159.941 190.396 159.762 190.171 159.527 190.021C159.299 189.865 159.039 189.79 158.746 189.797ZM170.016 199.865H167.34V181.936H170.016V199.865ZM168.229 191.389H165.348V189.162H168.229V191.389ZM166.197 199.133H163.561V182.277H166.197V199.133ZM160.123 185.969H157.359V182.434H160.123V185.969ZM30.8164 208.826C30.8164 209.992 30.6374 211.089 30.2793 212.117C29.9277 213.139 29.3711 214.038 28.6094 214.812C27.8542 215.581 26.9036 216.144 25.7578 216.502L24.3125 214.285C25.2826 213.979 26.0833 213.536 26.7148 212.957C27.3464 212.378 27.8053 211.736 28.0918 211.033C28.3783 210.324 28.5247 209.588 28.5312 208.826V207.703H30.8164V208.826ZM31.4023 208.787C31.4023 209.516 31.5391 210.216 31.8125 210.887C32.0859 211.551 32.5221 212.156 33.1211 212.703C33.7266 213.25 34.4948 213.676 35.4258 213.982L34.0488 216.15C32.9355 215.799 32.0078 215.255 31.2656 214.52C30.5299 213.784 29.9863 212.928 29.6348 211.951C29.2897 210.968 29.1172 209.913 29.1172 208.787V207.703H31.4023V208.787ZM37.6523 212.43H34.3418V210.135H37.6523V212.43ZM34.8301 209.109H25.0938V206.873H34.8301V209.109ZM39.6445 223.865H36.8516V219.578H27.252V217.342H39.6445V223.865ZM39.6445 216.6H36.8516V205.936H39.6445V216.6ZM55.9531 211.727H51.5684V209.529H55.9531V211.727ZM48.043 208.406C48.0365 209.454 47.8444 210.454 47.4668 211.404C47.0957 212.348 46.5228 213.182 45.748 213.904C44.9733 214.627 44.0195 215.151 42.8867 215.477L41.5195 213.299C42.4701 212.999 43.2611 212.586 43.8926 212.059C44.5241 211.525 44.9896 210.945 45.2891 210.32C45.5885 209.689 45.7383 209.051 45.7383 208.406V207.439H48.043V208.406ZM48.5801 208.445C48.5736 209.057 48.707 209.653 48.9805 210.232C49.2604 210.812 49.6999 211.339 50.2988 211.814C50.8978 212.283 51.6562 212.648 52.5742 212.908L51.2754 215.105C50.1491 214.793 49.2116 214.305 48.4629 213.641C47.7207 212.977 47.1706 212.202 46.8125 211.316C46.4609 210.424 46.2884 209.467 46.2949 208.445V207.439H48.5801V208.445ZM51.998 208.787H42.252V206.551H51.998V208.787ZM56.9199 215.027H54.1367V205.936H56.9199V215.027ZM56.9199 220.682H47.75V222.791H44.918V218.641H54.1367V217.859H44.9082V215.652H56.9199V220.682ZM57.4082 223.699H44.918V221.521H57.4082V223.699ZM74.1074 223.865H71.2461V205.936H74.1074V223.865ZM70.0645 210.818H59.4102V208.592H70.0645V210.818ZM64.7812 211.639C65.6602 211.639 66.4544 211.824 67.1641 212.195C67.8802 212.56 68.4368 213.074 68.834 213.738C69.2311 214.396 69.4297 215.138 69.4297 215.965C69.4297 216.798 69.2311 217.544 68.834 218.201C68.4368 218.852 67.8802 219.363 67.1641 219.734C66.4544 220.099 65.6602 220.281 64.7812 220.281C63.8958 220.281 63.0983 220.099 62.3887 219.734C61.679 219.363 61.1191 218.852 60.709 218.201C60.2988 217.544 60.0938 216.798 60.0938 215.965C60.0938 215.138 60.2988 214.396 60.709 213.738C61.1191 213.074 61.679 212.56 62.3887 212.195C63.0983 211.824 63.8958 211.639 64.7812 211.639ZM64.7812 213.914C64.3841 213.921 64.0358 214.005 63.7363 214.168C63.4368 214.324 63.2025 214.559 63.0332 214.871C62.8639 215.177 62.7793 215.542 62.7793 215.965C62.7793 216.395 62.8639 216.762 63.0332 217.068C63.2025 217.374 63.4368 217.605 63.7363 217.762C64.0358 217.918 64.3841 217.999 64.7812 218.006C65.1654 217.999 65.5072 217.918 65.8066 217.762C66.1061 217.605 66.3372 217.374 66.5 217.068C66.6628 216.762 66.7441 216.395 66.7441 215.965C66.7441 215.542 66.6628 215.177 66.5 214.871C66.3372 214.559 66.1061 214.324 65.8066 214.168C65.5072 214.005 65.1654 213.921 64.7812 213.914ZM66.168 209.988H63.3066V206.199H66.168V209.988ZM85.9141 206.434C86.819 206.434 87.6393 206.609 88.375 206.961C89.1172 207.312 89.6966 207.804 90.1133 208.436C90.5365 209.067 90.748 209.777 90.748 210.564C90.748 211.352 90.5365 212.059 90.1133 212.684C89.6966 213.309 89.1204 213.8 88.3848 214.158C87.6491 214.51 86.8255 214.686 85.9141 214.686C84.9961 214.686 84.166 214.51 83.4238 214.158C82.6882 213.8 82.1087 213.309 81.6855 212.684C81.2624 212.059 81.0508 211.352 81.0508 210.564C81.0508 209.777 81.2624 209.067 81.6855 208.436C82.1087 207.804 82.6882 207.312 83.4238 206.961C84.166 206.609 84.9961 206.434 85.9141 206.434ZM85.9141 208.729C85.4909 208.735 85.1165 208.807 84.791 208.943C84.472 209.08 84.2214 209.288 84.0391 209.568C83.8568 209.848 83.7689 210.18 83.7754 210.564C83.7689 210.955 83.8568 211.29 84.0391 211.57C84.2214 211.85 84.4753 212.065 84.8008 212.215C85.1263 212.358 85.4974 212.43 85.9141 212.43C86.3307 212.43 86.6986 212.358 87.0176 212.215C87.3366 212.065 87.584 211.85 87.7598 211.57C87.9421 211.29 88.0332 210.955 88.0332 210.564C88.0332 210.18 87.9421 209.848 87.7598 209.568C87.584 209.288 87.3366 209.08 87.0176 208.943C86.6986 208.807 86.3307 208.735 85.9141 208.729ZM95.875 214.861H93.0527V205.936H95.875V214.861ZM95.875 220.604H86.5293V222.625H83.7852V218.572H93.0625V217.713H83.7461V215.555H95.875V220.604ZM96.3047 223.689H83.7852V221.482H96.3047V223.689ZM112.32 223.865H109.547V205.936H112.32V223.865ZM114.859 215.154H111.705V212.859H114.859V215.154ZM108.492 210.799H98.0137V208.553H108.492V210.799ZM103.287 211.639C104.153 211.639 104.941 211.824 105.65 212.195C106.36 212.56 106.917 213.074 107.32 213.738C107.724 214.396 107.926 215.138 107.926 215.965C107.926 216.798 107.724 217.544 107.32 218.201C106.917 218.852 106.36 219.363 105.65 219.734C104.941 220.099 104.153 220.281 103.287 220.281C102.402 220.281 101.604 220.099 100.895 219.734C100.191 219.363 99.6413 218.852 99.2441 218.201C98.847 217.544 98.6484 216.798 98.6484 215.965C98.6484 215.138 98.847 214.396 99.2441 213.738C99.6413 213.074 100.191 212.56 100.895 212.195C101.604 211.824 102.402 211.639 103.287 211.639ZM103.287 213.914C102.903 213.921 102.564 214.005 102.271 214.168C101.979 214.324 101.747 214.559 101.578 214.871C101.415 215.177 101.334 215.542 101.334 215.965C101.334 216.395 101.415 216.762 101.578 217.068C101.747 217.374 101.979 217.605 102.271 217.762C102.564 217.918 102.903 217.999 103.287 218.006C103.665 217.999 104 217.918 104.293 217.762C104.586 217.605 104.814 217.374 104.977 217.068C105.139 216.762 105.221 216.395 105.221 215.965C105.221 215.542 105.139 215.177 104.977 214.871C104.814 214.559 104.583 214.324 104.283 214.168C103.99 214.005 103.658 213.921 103.287 213.914ZM104.693 209.373H101.881V206.238H104.693V209.373ZM129.957 212.859H117.359V210.662H129.957V212.859ZM131.754 216.795H115.377V214.598H131.754V216.795ZM120.162 211.766H117.359V206.58H120.162V211.766ZM130.074 223.494H117.174V221.238H130.074V223.494ZM120.006 221.873H117.174V218.143H120.006V221.873ZM139.186 210.623C139.179 212.088 138.99 213.475 138.619 214.783C138.248 216.085 137.682 217.241 136.92 218.25C136.158 219.253 135.214 220.011 134.088 220.525L132.496 218.309C133.486 217.872 134.312 217.247 134.977 216.434C135.641 215.62 136.129 214.715 136.441 213.719C136.754 212.716 136.91 211.684 136.91 210.623V208.826H139.186V210.623ZM139.781 210.623C139.781 211.639 139.934 212.615 140.24 213.553C140.546 214.49 141.025 215.343 141.676 216.111C142.333 216.873 143.163 217.459 144.166 217.869L142.652 220.066C141.5 219.585 140.543 218.868 139.781 217.918C139.026 216.961 138.466 215.861 138.102 214.617C137.743 213.374 137.568 212.042 137.574 210.623V208.826H139.781V210.623ZM143.375 209.93H133.248V207.645H143.375V209.93ZM147.74 223.865H144.879V205.936H147.74V223.865ZM31.2266 240.736H28.4141V238.09H31.2266V240.736ZM38.9023 242.201H36.0801V229.975H38.9023V242.201ZM41.0801 237.299H37.9355V235.004H41.0801V237.299ZM24.3906 239.75C26.4154 239.75 28.3457 239.717 30.1816 239.652C32.0241 239.587 33.7461 239.46 35.3477 239.271L35.543 241.186C33.8763 241.479 32.1543 241.671 30.377 241.762C28.6061 241.846 26.653 241.892 24.5176 241.898L24.2441 239.75H24.3906ZM38.9023 247.865H36.0801V245.014H26.5293V242.855H38.9023V247.865ZM34.918 233.197H24.7031V231.186H34.918V233.197ZM29.8105 233.52C30.6895 233.52 31.4674 233.627 32.1445 233.842C32.8216 234.057 33.3424 234.369 33.707 234.779C34.0716 235.183 34.2572 235.655 34.2637 236.195C34.2572 236.742 34.0716 237.217 33.707 237.621C33.3424 238.025 32.8216 238.337 32.1445 238.559C31.474 238.78 30.696 238.891 29.8105 238.891C28.9186 238.891 28.1341 238.78 27.457 238.559C26.7865 238.337 26.2656 238.028 25.8945 237.631C25.5299 237.227 25.3477 236.749 25.3477 236.195C25.3477 235.655 25.5299 235.183 25.8945 234.779C26.2656 234.369 26.7865 234.057 27.457 233.842C28.1341 233.627 28.9186 233.52 29.8105 233.52ZM29.8105 235.365C29.4069 235.372 29.0781 235.404 28.8242 235.463C28.5703 235.515 28.375 235.603 28.2383 235.727C28.1016 235.844 28.0332 236 28.0332 236.195C28.0332 236.384 28.1016 236.544 28.2383 236.674C28.375 236.798 28.5736 236.895 28.834 236.967C29.1009 237.032 29.4264 237.061 29.8105 237.055C30.1882 237.061 30.5072 237.032 30.7676 236.967C31.028 236.895 31.2233 236.798 31.3535 236.674C31.4902 236.544 31.5586 236.384 31.5586 236.195C31.5586 236 31.4902 235.844 31.3535 235.727C31.2233 235.603 31.0312 235.515 30.7773 235.463C30.5234 235.404 30.2012 235.372 29.8105 235.365ZM31.2266 232.113H28.4141V229.818H31.2266V232.113ZM56.8125 242.768H53.9902V229.975H56.8125V242.768ZM57.2715 247.592H44.6738V245.336H57.2715V247.592ZM47.5254 246.293H44.6738V241.498H47.5254V246.293ZM46.9492 231.068C47.8607 231.068 48.6973 231.267 49.459 231.664C50.2207 232.055 50.8197 232.598 51.2559 233.295C51.6921 233.985 51.9102 234.76 51.9102 235.619C51.9102 236.498 51.6921 237.289 51.2559 237.992C50.8197 238.689 50.2207 239.236 49.459 239.633C48.7038 240.023 47.8672 240.219 46.9492 240.219C46.0312 240.219 45.1947 240.023 44.4395 239.633C43.6842 239.236 43.0853 238.689 42.6426 237.992C42.2064 237.289 41.9883 236.498 41.9883 235.619C41.9883 234.76 42.2064 233.985 42.6426 233.295C43.0853 232.598 43.6842 232.055 44.4395 231.664C45.1947 231.267 46.0312 231.068 46.9492 231.068ZM46.9492 233.52C46.5195 233.513 46.1354 233.594 45.7969 233.764C45.4648 233.926 45.2012 234.167 45.0059 234.486C44.8171 234.805 44.7259 235.183 44.7324 235.619C44.7259 236.075 44.8171 236.465 45.0059 236.791C45.2012 237.117 45.4648 237.364 45.7969 237.533C46.1354 237.696 46.5195 237.774 46.9492 237.768C47.3659 237.774 47.737 237.696 48.0625 237.533C48.3945 237.364 48.6549 237.117 48.8438 236.791C49.0326 236.465 49.127 236.075 49.127 235.619C49.127 235.183 49.0326 234.805 48.8438 234.486C48.6549 234.167 48.3945 233.926 48.0625 233.764C47.7305 233.594 47.3594 233.513 46.9492 233.52Z" fill="#464646"/>
<defs>
<filter id="filter0_bd_839_52" x="-76" y="-80" width="366" height="613" filterUnits="userSpaceOnUse" color-interpolation-filters="sRGB">
<feFlood flood-opacity="0" result="BackgroundImageFix"/>
<feGaussianBlur in="BackgroundImageFix" stdDeviation="40"/>
<feComposite in2="SourceAlpha" operator="in" result="effect1_backgroundBlur_839_52"/>
<feColorMatrix in="SourceAlpha" type="matrix" values="0 0 0 0 0 0 0 0 0 0 0 0 0 0 0 0 0 0 127 0" result="hardAlpha"/>
<feOffset dy="3.6"/>
<feGaussianBlur stdDeviation="1.8"/>
<feComposite in2="hardAlpha" operator="out"/>
<feColorMatrix type="matrix" values="0 0 0 0 0 0 0 0 0 0 0 0 0 0 0 0 0 0 0.25 0"/>
<feBlend mode="normal" in2="effect1_backgroundBlur_839_52" result="effect2_dropShadow_839_52"/>
<feBlend mode="normal" in="SourceGraphic" in2="effect2_dropShadow_839_52" result="shape"/>
</filter>
<linearGradient id="paint0_linear_839_52" x1="107" y1="-33.6789" x2="107" y2="453" gradientUnits="userSpaceOnUse">
<stop stop-color="#D8F5DD"/>
<stop offset="1" stop-color="#D8F5DD" stop-opacity="0"/>
</linearGradient>
</defs>
</svg>