<svg xmlns="http://www.w3.org/2000/svg" width="214" height="461" viewBox="0 0 214 461" fill="none">
<g filter="url(#filter0_bd_626_794)">
<rect x="4" width="206" height="453" rx="103" fill="url(#paint0_linear_626_794)" shape-rendering="crispEdges"/>
</g>
<path d="M78.7734 65.1641H74.2383V63.3359H78.7734V65.1641ZM80.3672 70.4844H78.1406V57.9805H80.3672V70.4844ZM73.3242 71.082C74.793 71.082 76.0586 71.2383 77.1211 71.5508C78.1836 71.8633 79 72.3164 79.5703 72.9102C80.1484 73.4961 80.4375 74.2031 80.4375 75.0312C80.4375 75.8594 80.1484 76.5664 79.5703 77.1523C79 77.7461 78.1836 78.1992 77.1211 78.5117C76.0586 78.8242 74.793 78.9844 73.3242 78.9922C71.8633 78.9844 70.6016 78.8242 69.5391 78.5117C68.4766 78.1992 67.6602 77.7461 67.0898 77.1523C66.5195 76.5664 66.2344 75.8594 66.2344 75.0312C66.2344 74.2031 66.5195 73.4961 67.0898 72.9102C67.6602 72.3164 68.4766 71.8633 69.5391 71.5508C70.6016 71.2383 71.8633 71.082 73.3242 71.082ZM73.3242 72.793C72.3008 72.793 71.4219 72.8828 70.6875 73.0625C69.9609 73.2344 69.4023 73.4883 69.0117 73.8242C68.6289 74.1602 68.4375 74.5625 68.4375 75.0312C68.4375 75.5 68.6289 75.8984 69.0117 76.2266C69.4023 76.5547 69.9609 76.8086 70.6875 76.9883C71.4219 77.1602 72.3008 77.2461 73.3242 77.2461C74.3477 77.2461 75.2266 77.1602 75.9609 76.9883C76.6953 76.8086 77.2539 76.5547 77.6367 76.2266C78.0273 75.8984 78.2227 75.5 78.2227 75.0312C78.2227 74.5625 78.0273 74.1602 77.6367 73.8242C77.2539 73.4883 76.6953 73.2344 75.9609 73.0625C75.2266 72.8828 74.3477 72.793 73.3242 72.793ZM69.9492 61.7305C69.9492 63.0195 69.7109 64.2383 69.2344 65.3867C68.7578 66.5352 68.0742 67.543 67.1836 68.4102C66.293 69.2695 65.2461 69.9219 64.043 70.3672L62.8828 68.5859C63.9375 68.2188 64.8594 67.6797 65.6484 66.9688C66.4453 66.25 67.0547 65.4375 67.4766 64.5312C67.9062 63.625 68.1211 62.6914 68.1211 61.7305V60.1016H69.9492V61.7305ZM70.3711 61.707C70.3711 62.5977 70.5742 63.457 70.9805 64.2852C71.3867 65.1133 71.9727 65.8555 72.7383 66.5117C73.5039 67.168 74.4023 67.6719 75.4336 68.0234L74.2969 69.793C73.125 69.3789 72.1055 68.7656 71.2383 67.9531C70.3789 67.1406 69.7148 66.1953 69.2461 65.1172C68.7852 64.0391 68.5586 62.9023 68.5664 61.707V60.1016H70.3711V61.707ZM74.8945 61.2617H63.5508V59.4219H74.8945V61.2617ZM102.797 72.1133H83.5781V70.332H102.797V72.1133ZM94.2305 78.9805H92.0391V71.1523H94.2305V78.9805ZM88.1719 61.5781H98.1562V58.8359H100.395V67.9648H85.9688V58.8359H88.1719V61.5781ZM98.1562 66.1602V63.3594H88.1719V66.1602H98.1562ZM126.703 69.8398H124.488V57.9805H126.703V69.8398ZM129.762 64.7773H126.082V62.9492H129.762V64.7773ZM120.914 59.3047C120.906 61.0859 120.516 62.6914 119.742 64.1211C118.969 65.5508 117.84 66.7734 116.355 67.7891C114.879 68.8047 113.094 69.5938 111 70.1562L110.109 68.375C111.906 67.8984 113.434 67.2656 114.691 66.4766C115.949 65.6797 116.906 64.7617 117.562 63.7227C118.219 62.6758 118.551 61.543 118.559 60.3242V59.3047H120.914ZM119.824 61.1094H111.082V59.3047H119.824V61.1094ZM126.703 78.7109H113.262V70.7539H126.703V78.7109ZM115.465 76.9297H124.5V72.582H115.465V76.9297ZM150.094 70.1562H130.945V68.3633H150.094V70.1562ZM141.621 69.043H139.406V64.8242H141.621V69.043ZM147.773 79.1211H145.57V73.7891H133.066V72.0078H147.773V79.1211ZM147.949 66.043H133.348V64.2383H147.949V66.043ZM147.762 60.6289H135.551V65.1992H133.348V58.8359H147.762V60.6289ZM84.3164 96.9648H74.332V88.3164H84.3164V96.9648ZM76.5117 95.2188H82.125V90.0977H76.5117V95.2188ZM90.6211 99.0039H88.4297V86.9805H90.6211V99.0039ZM84.6094 101.91C84.6094 102.902 84.2539 103.824 83.543 104.676C82.832 105.52 81.8555 106.223 80.6133 106.785C79.3789 107.355 78 107.734 76.4766 107.922L75.7031 106.223C76.9844 106.09 78.1602 105.805 79.2305 105.367C80.3008 104.922 81.1406 104.395 81.75 103.785C82.3672 103.168 82.6758 102.543 82.6758 101.91V101.535H84.6094V101.91ZM84.9844 101.91C84.9844 102.527 85.2852 103.141 85.8867 103.75C86.4961 104.359 87.3281 104.887 88.3828 105.332C89.4375 105.777 90.6016 106.074 91.875 106.223L91.1133 107.922C89.5977 107.734 88.2266 107.348 87 106.762C85.7734 106.184 84.8086 105.473 84.1055 104.629C83.4023 103.777 83.0547 102.871 83.0625 101.91V101.535H84.9844V101.91ZM91.1133 102.039H76.5703V100.34H91.1133V102.039ZM84.9258 101.137H82.7109V98.3945H84.9258V101.137ZM118.98 99.8008H99.8086V98.0195H118.98V99.8008ZM110.484 98.7344H108.27V95.418H110.484V98.7344ZM116.777 96.2148H102.305V94.457H116.777V96.2148ZM116.637 89.3359H104.531V95.4062H102.305V87.5664H116.637V89.3359ZM116.098 92.6875H103.875V91.0234H116.098V92.6875ZM109.395 101.172C110.926 101.172 112.23 101.301 113.309 101.559C114.395 101.816 115.219 102.199 115.781 102.707C116.352 103.215 116.641 103.832 116.648 104.559C116.641 105.301 116.352 105.922 115.781 106.422C115.219 106.93 114.398 107.312 113.32 107.57C112.242 107.828 110.934 107.957 109.395 107.957C107.84 107.957 106.516 107.828 105.422 107.57C104.336 107.312 103.512 106.93 102.949 106.422C102.387 105.922 102.105 105.301 102.105 104.559C102.105 103.832 102.387 103.215 102.949 102.707C103.512 102.199 104.34 101.816 105.434 101.559C106.527 101.301 107.848 101.172 109.395 101.172ZM109.395 102.836C108.285 102.836 107.352 102.902 106.594 103.035C105.844 103.16 105.277 103.352 104.895 103.609C104.52 103.867 104.336 104.184 104.344 104.559C104.336 104.941 104.52 105.262 104.895 105.52C105.277 105.77 105.844 105.957 106.594 106.082C107.352 106.207 108.285 106.266 109.395 106.258C110.488 106.266 111.406 106.207 112.148 106.082C112.898 105.957 113.461 105.77 113.836 105.52C114.219 105.262 114.41 104.941 114.41 104.559C114.41 104.184 114.219 103.867 113.836 103.609C113.461 103.352 112.898 103.16 112.148 103.035C111.406 102.902 110.488 102.836 109.395 102.836ZM138.598 107.98H136.488V86.9805H138.598V107.98ZM132.879 96.2383H128.953V94.4453H132.879V96.2383ZM134.332 106.938H132.234V87.4492H134.332V106.938ZM126.48 92.8516C126.473 94.4062 126.281 95.9023 125.906 97.3398C125.531 98.7695 124.98 100.059 124.254 101.207C123.535 102.348 122.664 103.234 121.641 103.867L120.258 102.203C121.219 101.625 122.039 100.844 122.719 99.8594C123.406 98.8672 123.918 97.7695 124.254 96.5664C124.59 95.3633 124.758 94.125 124.758 92.8516V90.2969H126.48V92.8516ZM126.902 92.8516C126.902 94.0781 127.066 95.2617 127.395 96.4023C127.73 97.543 128.227 98.582 128.883 99.5195C129.547 100.449 130.355 101.188 131.309 101.734L129.973 103.375C128.941 102.758 128.074 101.91 127.371 100.832C126.668 99.7539 126.137 98.5352 125.777 97.1758C125.418 95.8086 125.242 94.3672 125.25 92.8516V90.2969H126.902V92.8516ZM130.523 91.1641H120.914V89.3477H130.523V91.1641Z" fill="#0E0E0E"/>
<defs>
<filter id="filter0_bd_626_794" x="-76" y="-80" width="366" height="613" filterUnits="userSpaceOnUse" color-interpolation-filters="sRGB">
<feFlood flood-opacity="0" result="BackgroundImageFix"/>
<feGaussianBlur in="BackgroundImageFix" stdDeviation="40"/>
<feComposite in2="SourceAlpha" operator="in" result="effect1_backgroundBlur_626_794"/>
<feColorMatrix in="SourceAlpha" type="matrix" values="0 0 0 0 0 0 0 0 0 0 0 0 0 0 0 0 0 0 127 0" result="hardAlpha"/>
<feOffset dy="3.6"/>
<feGaussianBlur stdDeviation="1.8"/>
<feComposite in2="hardAlpha" operator="out"/>
<feColorMatrix type="matrix" values="0 0 0 0 0 0 0 0 0 0 0 0 0 0 0 0 0 0 0.25 0"/>
<feBlend mode="normal" in2="effect1_backgroundBlur_626_794" result="effect2_dropShadow_626_794"/>
<feBlend mode="normal" in="SourceGraphic" in2="effect2_dropShadow_626_794" result="shape"/>
</filter>
<linearGradient id="paint0_linear_626_794" x1="107" y1="0" x2="107" y2="453" gradientUnits="userSpaceOnUse">
<stop offset="0.06" stop-color="#F6F6F6" stop-opacity="0.9"/>
<stop offset="1" stop-color="#F6F6F6" stop-opacity="0"/>
</linearGradient>
</defs>
</svg>