<svg xmlns="http://www.w3.org/2000/svg" width="214" height="578" viewBox="0 0 214 578" fill="none">
<g filter="url(#filter0_bd_626_1172)">
<rect x="4" width="206" height="570" rx="103" fill="url(#paint0_linear_626_1172)" shape-rendering="crispEdges"/>
</g>
<path d="M79.9102 72.4136H65.2617V70.6323H79.9102V72.4136ZM82.0781 78.3433H62.8594V76.5269H82.0781V78.3433ZM73.5469 77.3354H71.332V71.5347H73.5469V77.3354ZM79.6992 63.3081H67.5352V71.3237H65.2617V61.4917H79.6992V63.3081ZM79.2305 67.7964H66.8438V66.0151H79.2305V67.7964ZM102.797 73.5503H83.5781V71.7339H102.797V73.5503ZM100.828 80.769H86.0859V78.9526H100.828V80.769ZM88.3242 79.4917H86.0859V74.8511H88.3242V79.4917ZM94.2773 72.5542H92.0859V68.7456H94.2773V72.5542ZM100.371 65.8862H88.2539V68.5229H86.0508V64.269H98.1445V62.23H85.9922V60.4722H100.371V65.8862ZM100.805 69.6597H86.0508V67.937H100.805V69.6597ZM117.164 64.2104C117.164 65.4136 116.926 66.5308 116.449 67.562C115.973 68.5933 115.285 69.4878 114.387 70.2456C113.488 71.0034 112.434 71.5698 111.223 71.9448L110.145 70.1987C111.207 69.894 112.133 69.437 112.922 68.8276C113.711 68.2183 114.312 67.519 114.727 66.73C115.148 65.9331 115.359 65.0933 115.359 64.2104V63.355H117.164V64.2104ZM117.551 64.2104C117.551 65.0229 117.758 65.8003 118.172 66.5425C118.586 67.2769 119.176 67.9292 119.941 68.4995C120.707 69.0698 121.617 69.5073 122.672 69.812L121.641 71.5464C120.43 71.1948 119.379 70.6558 118.488 69.9292C117.605 69.2026 116.926 68.3511 116.449 67.3745C115.98 66.3979 115.746 65.3433 115.746 64.2104V63.355H117.551V64.2104ZM122.133 63.9995H110.789V62.23H122.133V63.9995ZM117.598 62.9683H115.359V59.769H117.598V62.9683ZM126.703 72.2612H124.488V59.8628H126.703V72.2612ZM129.762 66.9175H126.082V65.0659H129.762V66.9175ZM126.703 80.605H113.285V73.1987H126.703V80.605ZM115.477 78.8003H124.5V74.9565H115.477V78.8003ZM146.719 66.2729H140.461V64.4331H146.719V66.2729ZM146.719 72.8589H140.461V71.0425H146.719V72.8589ZM136.641 61.4448C137.664 61.4448 138.578 61.7456 139.383 62.3472C140.195 62.9487 140.824 63.8081 141.27 64.9253C141.723 66.0425 141.949 67.3394 141.949 68.8159C141.949 70.3003 141.723 71.6011 141.27 72.7183C140.824 73.8276 140.195 74.6831 139.383 75.2847C138.578 75.8862 137.664 76.187 136.641 76.187C135.602 76.187 134.676 75.8862 133.863 75.2847C133.059 74.6831 132.43 73.8276 131.977 72.7183C131.531 71.6011 131.309 70.3003 131.309 68.8159C131.309 67.3394 131.531 66.0425 131.977 64.9253C132.43 63.8081 133.059 62.9487 133.863 62.3472C134.676 61.7456 135.602 61.4448 136.641 61.4448ZM136.641 63.437C136.008 63.437 135.449 63.6558 134.965 64.0933C134.488 64.5308 134.113 65.1558 133.84 65.9683C133.566 66.7808 133.434 67.73 133.441 68.8159C133.434 69.9097 133.566 70.8628 133.84 71.6753C134.113 72.48 134.488 73.1011 134.965 73.5386C135.449 73.9683 136.008 74.1831 136.641 74.1831C137.266 74.1831 137.824 73.9683 138.316 73.5386C138.809 73.1011 139.188 72.4761 139.453 71.6636C139.719 70.8511 139.852 69.9019 139.852 68.8159C139.852 67.73 139.719 66.7808 139.453 65.9683C139.188 65.1558 138.809 64.5308 138.316 64.0933C137.824 63.6558 137.266 63.437 136.641 63.437ZM148.465 80.9214H146.25V59.8628H148.465V80.9214Z" fill="#0E0E0E"/>
<defs>
<filter id="filter0_bd_626_1172" x="-76" y="-80" width="366" height="730" filterUnits="userSpaceOnUse" color-interpolation-filters="sRGB">
<feFlood flood-opacity="0" result="BackgroundImageFix"/>
<feGaussianBlur in="BackgroundImageFix" stdDeviation="40"/>
<feComposite in2="SourceAlpha" operator="in" result="effect1_backgroundBlur_626_1172"/>
<feColorMatrix in="SourceAlpha" type="matrix" values="0 0 0 0 0 0 0 0 0 0 0 0 0 0 0 0 0 0 127 0" result="hardAlpha"/>
<feOffset dy="3.6"/>
<feGaussianBlur stdDeviation="1.8"/>
<feComposite in2="hardAlpha" operator="out"/>
<feColorMatrix type="matrix" values="0 0 0 0 0 0 0 0 0 0 0 0 0 0 0 0 0 0 0.25 0"/>
<feBlend mode="normal" in2="effect1_backgroundBlur_626_1172" result="effect2_dropShadow_626_1172"/>
<feBlend mode="normal" in="SourceGraphic" in2="effect2_dropShadow_626_1172" result="shape"/>
</filter>
<linearGradient id="paint0_linear_626_1172" x1="107" y1="0" x2="107" y2="570" gradientUnits="userSpaceOnUse">
<stop offset="0.06" stop-color="#F6F6F6" stop-opacity="0.9"/>
<stop offset="1" stop-color="#F6F6F6" stop-opacity="0"/>
</linearGradient>
</defs>
</svg>