<svg xmlns="http://www.w3.org/2000/svg" width="214" height="461" viewBox="0 0 214 461" fill="none">
<g filter="url(#filter0_bd_626_1075)">
<rect x="4" width="206" height="453" rx="103" fill="url(#paint0_linear_626_1075)" shape-rendering="crispEdges"/>
</g>
<path d="M69.0391 70.5312H54.3906V68.75H69.0391V70.5312ZM71.207 76.4609H51.9883V74.6445H71.207V76.4609ZM62.6758 75.4531H60.4609V69.6523H62.6758V75.4531ZM68.8281 61.4258H56.6641V69.4414H54.3906V59.6094H68.8281V61.4258ZM68.3594 65.9141H55.9727V64.1328H68.3594V65.9141ZM91.9258 71.668H72.707V69.8516H91.9258V71.668ZM89.957 78.8867H75.2148V77.0703H89.957V78.8867ZM77.4531 77.6094H75.2148V72.9688H77.4531V77.6094ZM83.4062 70.6719H81.2148V66.8633H83.4062V70.6719ZM89.5 64.0039H77.3828V66.6406H75.1797V62.3867H87.2734V60.3477H75.1211V58.5898H89.5V64.0039ZM89.9336 67.7773H75.1797V66.0547H89.9336V67.7773ZM103.855 62.0352H94.4219V60.2422H103.855V62.0352ZM99.7656 73.3672H97.5742V66.2422H99.7656V73.3672ZM105.168 61.6953C105.16 63.0078 105.121 64.2812 105.051 65.5156C104.98 66.75 104.82 68.168 104.57 69.7695L102.355 69.582C102.613 68.0117 102.773 66.6328 102.836 65.4453C102.906 64.25 102.941 62.9844 102.941 61.6484V61.5312V60.2422H105.168V61.5312V61.6953ZM109.82 78.9805H107.594V57.9805H109.82V78.9805ZM113.031 68.5508H109.199V66.6523H113.031V68.5508ZM93.2734 72.6641C95.8125 72.6484 98.1562 72.5977 100.305 72.5117C102.461 72.4258 104.488 72.2695 106.387 72.043L106.504 73.707C104.535 74.0195 102.453 74.2305 100.258 74.3398C98.0703 74.4414 95.8242 74.4844 93.5195 74.4688L93.2734 72.6641ZM139.27 72.4531H120.051V70.625H139.27V72.4531ZM130.727 78.9805H128.535V71.1875H130.727V78.9805ZM137.148 68.668H122.57V66.875H137.148V68.668ZM136.914 60.7109H124.773V67.3555H122.57V58.9297H136.914V60.7109ZM136.434 64.6133H124.141V62.8672H136.434V64.6133ZM148.211 75.2891H145.973V69.3594H148.211V75.2891ZM154.75 75.3008H152.535V69.3711H154.75V75.3008ZM160.035 76.4961H140.816V74.6797H160.035V76.4961ZM158.277 61.6602H142.445V59.8438H158.277V61.6602ZM158.219 70.0156H142.516V68.1992H158.219V70.0156ZM147.848 68.5391H145.633V61.3203H147.848V68.5391ZM155.078 68.5391H152.887V61.3203H155.078V68.5391Z" fill="#0E0E0E"/>
<defs>
<filter id="filter0_bd_626_1075" x="-76" y="-80" width="366" height="613" filterUnits="userSpaceOnUse" color-interpolation-filters="sRGB">
<feFlood flood-opacity="0" result="BackgroundImageFix"/>
<feGaussianBlur in="BackgroundImageFix" stdDeviation="40"/>
<feComposite in2="SourceAlpha" operator="in" result="effect1_backgroundBlur_626_1075"/>
<feColorMatrix in="SourceAlpha" type="matrix" values="0 0 0 0 0 0 0 0 0 0 0 0 0 0 0 0 0 0 127 0" result="hardAlpha"/>
<feOffset dy="3.6"/>
<feGaussianBlur stdDeviation="1.8"/>
<feComposite in2="hardAlpha" operator="out"/>
<feColorMatrix type="matrix" values="0 0 0 0 0 0 0 0 0 0 0 0 0 0 0 0 0 0 0.25 0"/>
<feBlend mode="normal" in2="effect1_backgroundBlur_626_1075" result="effect2_dropShadow_626_1075"/>
<feBlend mode="normal" in="SourceGraphic" in2="effect2_dropShadow_626_1075" result="shape"/>
</filter>
<linearGradient id="paint0_linear_626_1075" x1="107" y1="0" x2="107" y2="453" gradientUnits="userSpaceOnUse">
<stop offset="0.06" stop-color="#F6F6F6" stop-opacity="0.9"/>
<stop offset="1" stop-color="#F6F6F6" stop-opacity="0"/>
</linearGradient>
</defs>
</svg>