<svg width="214" height="620" viewBox="0 0 214 620" fill="none" xmlns="http://www.w3.org/2000/svg">
<g filter="url(#filter0_bd_176_639)">
<rect x="4" width="206" height="612" rx="103" fill="url(#paint0_linear_176_639)" shape-rendering="crispEdges"/>
</g>
<path d="M79.9102 76.5312H65.2617V74.75H79.9102V76.5312ZM82.0781 82.4609H62.8594V80.6445H82.0781V82.4609ZM73.5469 81.4531H71.332V75.6523H73.5469V81.4531ZM79.6992 67.4258H67.5352V75.4414H65.2617V65.6094H79.6992V67.4258ZM79.2305 71.9141H66.8438V70.1328H79.2305V71.9141ZM102.797 77.668H83.5781V75.8516H102.797V77.668ZM100.828 84.8867H86.0859V83.0703H100.828V84.8867ZM88.3242 83.6094H86.0859V78.9688H88.3242V83.6094ZM94.2773 76.6719H92.0859V72.8633H94.2773V76.6719ZM100.371 70.0039H88.2539V72.6406H86.0508V68.3867H98.1445V66.3477H85.9922V64.5898H100.371V70.0039ZM100.805 73.7773H86.0508V72.0547H100.805V73.7773ZM117.164 68.3281C117.164 69.5312 116.926 70.6484 116.449 71.6797C115.973 72.7109 115.285 73.6055 114.387 74.3633C113.488 75.1211 112.434 75.6875 111.223 76.0625L110.145 74.3164C111.207 74.0117 112.133 73.5547 112.922 72.9453C113.711 72.3359 114.312 71.6367 114.727 70.8477C115.148 70.0508 115.359 69.2109 115.359 68.3281V67.4727H117.164V68.3281ZM117.551 68.3281C117.551 69.1406 117.758 69.918 118.172 70.6602C118.586 71.3945 119.176 72.0469 119.941 72.6172C120.707 73.1875 121.617 73.625 122.672 73.9297L121.641 75.6641C120.43 75.3125 119.379 74.7734 118.488 74.0469C117.605 73.3203 116.926 72.4688 116.449 71.4922C115.98 70.5156 115.746 69.4609 115.746 68.3281V67.4727H117.551V68.3281ZM122.133 68.1172H110.789V66.3477H122.133V68.1172ZM117.598 67.0859H115.359V63.8867H117.598V67.0859ZM126.703 76.3789H124.488V63.9805H126.703V76.3789ZM129.762 71.0352H126.082V69.1836H129.762V71.0352ZM126.703 84.7227H113.285V77.3164H126.703V84.7227ZM115.477 82.918H124.5V79.0742H115.477V82.918ZM146.719 70.3906H140.461V68.5508H146.719V70.3906ZM146.719 76.9766H140.461V75.1602H146.719V76.9766ZM136.641 65.5625C137.664 65.5625 138.578 65.8633 139.383 66.4648C140.195 67.0664 140.824 67.9258 141.27 69.043C141.723 70.1602 141.949 71.457 141.949 72.9336C141.949 74.418 141.723 75.7188 141.27 76.8359C140.824 77.9453 140.195 78.8008 139.383 79.4023C138.578 80.0039 137.664 80.3047 136.641 80.3047C135.602 80.3047 134.676 80.0039 133.863 79.4023C133.059 78.8008 132.43 77.9453 131.977 76.8359C131.531 75.7188 131.309 74.418 131.309 72.9336C131.309 71.457 131.531 70.1602 131.977 69.043C132.43 67.9258 133.059 67.0664 133.863 66.4648C134.676 65.8633 135.602 65.5625 136.641 65.5625ZM136.641 67.5547C136.008 67.5547 135.449 67.7734 134.965 68.2109C134.488 68.6484 134.113 69.2734 133.84 70.0859C133.566 70.8984 133.434 71.8477 133.441 72.9336C133.434 74.0273 133.566 74.9805 133.84 75.793C134.113 76.5977 134.488 77.2188 134.965 77.6562C135.449 78.0859 136.008 78.3008 136.641 78.3008C137.266 78.3008 137.824 78.0859 138.316 77.6562C138.809 77.2188 139.188 76.5938 139.453 75.7812C139.719 74.9688 139.852 74.0195 139.852 72.9336C139.852 71.8477 139.719 70.8984 139.453 70.0859C139.188 69.2734 138.809 68.6484 138.316 68.2109C137.824 67.7734 137.266 67.5547 136.641 67.5547ZM148.465 85.0391H146.25V63.9805H148.465V85.0391Z" fill="#0E0E0E"/>
<defs>
<filter id="filter0_bd_176_639" x="-76" y="-80" width="366" height="772" filterUnits="userSpaceOnUse" color-interpolation-filters="sRGB">
<feFlood flood-opacity="0" result="BackgroundImageFix"/>
<feGaussianBlur in="BackgroundImageFix" stdDeviation="40"/>
<feComposite in2="SourceAlpha" operator="in" result="effect1_backgroundBlur_176_639"/>
<feColorMatrix in="SourceAlpha" type="matrix" values="0 0 0 0 0 0 0 0 0 0 0 0 0 0 0 0 0 0 127 0" result="hardAlpha"/>
<feOffset dy="3.6"/>
<feGaussianBlur stdDeviation="1.8"/>
<feComposite in2="hardAlpha" operator="out"/>
<feColorMatrix type="matrix" values="0 0 0 0 0 0 0 0 0 0 0 0 0 0 0 0 0 0 0.25 0"/>
<feBlend mode="normal" in2="effect1_backgroundBlur_176_639" result="effect2_dropShadow_176_639"/>
<feBlend mode="normal" in="SourceGraphic" in2="effect2_dropShadow_176_639" result="shape"/>
</filter>
<linearGradient id="paint0_linear_176_639" x1="107" y1="0" x2="107" y2="612" gradientUnits="userSpaceOnUse">
<stop offset="0.06" stop-color="#F6F6F6" stop-opacity="0.9"/>
<stop offset="1" stop-color="#F6F6F6" stop-opacity="0"/>
</linearGradient>
</defs>
</svg>
