<svg xmlns="http://www.w3.org/2000/svg" width="214" height="578" viewBox="0 0 214 578" fill="none">
<g filter="url(#filter0_bd_626_1225)">
<rect x="4" width="206" height="570" rx="103" fill="url(#paint0_linear_626_1225)" shape-rendering="crispEdges"/>
</g>
<mask id="path-2-outside-1_626_1225" maskUnits="userSpaceOnUse" x="61" y="57.8823" width="89" height="25" fill="black">
<rect fill="white" x="61" y="57.8823" width="89" height="25"/>
<path d="M80.625 72.894H65.0859V69.9526H80.625V72.894ZM82.6992 78.9761H62.918V76.0112H82.6992V78.9761ZM74.6953 77.2651H70.9219V71.394H74.6953V77.2651ZM80.5078 63.8472H68.9062V71.1128H65.0859V60.8589H80.5078V63.8472ZM79.9688 68.3354H67.8164V65.4292H79.9688V68.3354ZM103.418 74.2417H83.6367V71.2534H103.418V74.2417ZM101.602 81.5425H86.0273V78.5776H101.602V81.5425ZM89.7891 79.4917H86.0273V75.1089H89.7891V79.4917ZM95.3906 72.6597H91.6641V68.3472H95.3906V72.6597ZM101.133 66.2847H89.7539V68.1245H86.0273V63.6714H97.3594V62.7456H86.0039V59.8745H101.133V66.2847ZM101.496 70.0581H86.0273V67.2573H101.496V70.0581ZM117.199 63.9292C117.199 65.2417 116.992 66.4526 116.578 67.562C116.164 68.6636 115.5 69.6245 114.586 70.4448C113.672 71.2573 112.5 71.8433 111.07 72.2026L109.312 69.3198C110.484 69.0229 111.438 68.5933 112.172 68.0308C112.906 67.4604 113.43 66.8276 113.742 66.1323C114.055 65.437 114.211 64.7026 114.211 63.9292V63.2378H117.199V63.9292ZM117.961 63.9292C117.961 64.6323 118.117 65.3081 118.43 65.9565C118.742 66.5972 119.262 67.187 119.988 67.7261C120.715 68.2573 121.664 68.6675 122.836 68.9565L121.125 71.8511C119.688 71.5073 118.504 70.9448 117.574 70.1636C116.652 69.3745 115.977 68.4526 115.547 67.3979C115.117 66.3354 114.906 65.1792 114.914 63.9292V63.2378H117.961V63.9292ZM121.992 64.3979H110.191V61.4565H121.992V64.3979ZM117.984 62.769H114.211V59.4526H117.984V62.769ZM126.949 72.144H123.176V59.5229H126.949V72.144ZM129.656 67.4097H125.883V64.3628H129.656V67.4097ZM126.949 81.0034H112.477V72.9878H126.949V81.0034ZM116.203 78.0034H123.246V75.9526H116.203V78.0034ZM145.664 66.73H140.039V63.7417H145.664V66.73ZM145.664 73.3394H140.039V70.3511H145.664V73.3394ZM136.406 60.9644C137.516 60.9644 138.504 61.2847 139.371 61.9253C140.246 62.5581 140.926 63.4683 141.41 64.6558C141.902 65.8354 142.148 67.2104 142.148 68.7808C142.148 70.3667 141.902 71.7573 141.41 72.9526C140.926 74.1401 140.246 75.0542 139.371 75.6948C138.504 76.3276 137.516 76.644 136.406 76.644C135.297 76.644 134.309 76.3276 133.441 75.6948C132.574 75.0542 131.891 74.1401 131.391 72.9526C130.898 71.7573 130.652 70.3667 130.652 68.7808C130.652 67.2104 130.898 65.8354 131.391 64.6558C131.891 63.4683 132.574 62.5581 133.441 61.9253C134.309 61.2847 135.297 60.9644 136.406 60.9644ZM136.406 64.3745C135.977 64.3667 135.602 64.5269 135.281 64.855C134.961 65.1753 134.711 65.6675 134.531 66.3315C134.352 66.9878 134.266 67.8042 134.273 68.7808C134.266 69.7729 134.352 70.6011 134.531 71.2651C134.711 71.9214 134.961 72.4136 135.281 72.7417C135.602 73.062 135.977 73.2183 136.406 73.2104C136.859 73.2183 137.246 73.062 137.566 72.7417C137.895 72.4136 138.145 71.9214 138.316 71.2651C138.488 70.6089 138.574 69.7808 138.574 68.7808C138.574 67.7964 138.488 66.9722 138.316 66.3081C138.145 65.644 137.895 65.1558 137.566 64.8433C137.246 64.5229 136.859 64.3667 136.406 64.3745ZM148.84 81.2729H145.102V59.5229H148.84V81.2729Z"/>
</mask>
<path d="M80.625 72.894H65.0859V69.9526H80.625V72.894ZM82.6992 78.9761H62.918V76.0112H82.6992V78.9761ZM74.6953 77.2651H70.9219V71.394H74.6953V77.2651ZM80.5078 63.8472H68.9062V71.1128H65.0859V60.8589H80.5078V63.8472ZM79.9688 68.3354H67.8164V65.4292H79.9688V68.3354ZM103.418 74.2417H83.6367V71.2534H103.418V74.2417ZM101.602 81.5425H86.0273V78.5776H101.602V81.5425ZM89.7891 79.4917H86.0273V75.1089H89.7891V79.4917ZM95.3906 72.6597H91.6641V68.3472H95.3906V72.6597ZM101.133 66.2847H89.7539V68.1245H86.0273V63.6714H97.3594V62.7456H86.0039V59.8745H101.133V66.2847ZM101.496 70.0581H86.0273V67.2573H101.496V70.0581ZM117.199 63.9292C117.199 65.2417 116.992 66.4526 116.578 67.562C116.164 68.6636 115.5 69.6245 114.586 70.4448C113.672 71.2573 112.5 71.8433 111.07 72.2026L109.312 69.3198C110.484 69.0229 111.438 68.5933 112.172 68.0308C112.906 67.4604 113.43 66.8276 113.742 66.1323C114.055 65.437 114.211 64.7026 114.211 63.9292V63.2378H117.199V63.9292ZM117.961 63.9292C117.961 64.6323 118.117 65.3081 118.43 65.9565C118.742 66.5972 119.262 67.187 119.988 67.7261C120.715 68.2573 121.664 68.6675 122.836 68.9565L121.125 71.8511C119.688 71.5073 118.504 70.9448 117.574 70.1636C116.652 69.3745 115.977 68.4526 115.547 67.3979C115.117 66.3354 114.906 65.1792 114.914 63.9292V63.2378H117.961V63.9292ZM121.992 64.3979H110.191V61.4565H121.992V64.3979ZM117.984 62.769H114.211V59.4526H117.984V62.769ZM126.949 72.144H123.176V59.5229H126.949V72.144ZM129.656 67.4097H125.883V64.3628H129.656V67.4097ZM126.949 81.0034H112.477V72.9878H126.949V81.0034ZM116.203 78.0034H123.246V75.9526H116.203V78.0034ZM145.664 66.73H140.039V63.7417H145.664V66.73ZM145.664 73.3394H140.039V70.3511H145.664V73.3394ZM136.406 60.9644C137.516 60.9644 138.504 61.2847 139.371 61.9253C140.246 62.5581 140.926 63.4683 141.41 64.6558C141.902 65.8354 142.148 67.2104 142.148 68.7808C142.148 70.3667 141.902 71.7573 141.41 72.9526C140.926 74.1401 140.246 75.0542 139.371 75.6948C138.504 76.3276 137.516 76.644 136.406 76.644C135.297 76.644 134.309 76.3276 133.441 75.6948C132.574 75.0542 131.891 74.1401 131.391 72.9526C130.898 71.7573 130.652 70.3667 130.652 68.7808C130.652 67.2104 130.898 65.8354 131.391 64.6558C131.891 63.4683 132.574 62.5581 133.441 61.9253C134.309 61.2847 135.297 60.9644 136.406 60.9644ZM136.406 64.3745C135.977 64.3667 135.602 64.5269 135.281 64.855C134.961 65.1753 134.711 65.6675 134.531 66.3315C134.352 66.9878 134.266 67.8042 134.273 68.7808C134.266 69.7729 134.352 70.6011 134.531 71.2651C134.711 71.9214 134.961 72.4136 135.281 72.7417C135.602 73.062 135.977 73.2183 136.406 73.2104C136.859 73.2183 137.246 73.062 137.566 72.7417C137.895 72.4136 138.145 71.9214 138.316 71.2651C138.488 70.6089 138.574 69.7808 138.574 68.7808C138.574 67.7964 138.488 66.9722 138.316 66.3081C138.145 65.644 137.895 65.1558 137.566 64.8433C137.246 64.5229 136.859 64.3667 136.406 64.3745ZM148.84 81.2729H145.102V59.5229H148.84V81.2729Z" fill="#F6F6F6"/>
<path d="M80.625 72.894V73.894H81.625V72.894H80.625ZM65.0859 72.894H64.0859V73.894H65.0859V72.894ZM65.0859 69.9526V68.9526H64.0859V69.9526H65.0859ZM80.625 69.9526H81.625V68.9526H80.625V69.9526ZM82.6992 78.9761V79.9761H83.6992V78.9761H82.6992ZM62.918 78.9761H61.918V79.9761H62.918V78.9761ZM62.918 76.0112V75.0112H61.918V76.0112H62.918ZM82.6992 76.0112H83.6992V75.0112H82.6992V76.0112ZM74.6953 77.2651V78.2651H75.6953V77.2651H74.6953ZM70.9219 77.2651H69.9219V78.2651H70.9219V77.2651ZM70.9219 71.394V70.394H69.9219V71.394H70.9219ZM74.6953 71.394H75.6953V70.394H74.6953V71.394ZM80.5078 63.8472V64.8472H81.5078V63.8472H80.5078ZM68.9062 63.8472V62.8472H67.9062V63.8472H68.9062ZM68.9062 71.1128V72.1128H69.9062V71.1128H68.9062ZM65.0859 71.1128H64.0859V72.1128H65.0859V71.1128ZM65.0859 60.8589V59.8589H64.0859V60.8589H65.0859ZM80.5078 60.8589H81.5078V59.8589H80.5078V60.8589ZM79.9688 68.3354V69.3354H80.9688V68.3354H79.9688ZM67.8164 68.3354H66.8164V69.3354H67.8164V68.3354ZM67.8164 65.4292V64.4292H66.8164V65.4292H67.8164ZM79.9688 65.4292H80.9688V64.4292H79.9688V65.4292ZM80.625 71.894H65.0859V73.894H80.625V71.894ZM66.0859 72.894V69.9526H64.0859V72.894H66.0859ZM65.0859 70.9526H80.625V68.9526H65.0859V70.9526ZM79.625 69.9526V72.894H81.625V69.9526H79.625ZM82.6992 77.9761H62.918V79.9761H82.6992V77.9761ZM63.918 78.9761V76.0112H61.918V78.9761H63.918ZM62.918 77.0112H82.6992V75.0112H62.918V77.0112ZM81.6992 76.0112V78.9761H83.6992V76.0112H81.6992ZM74.6953 76.2651H70.9219V78.2651H74.6953V76.2651ZM71.9219 77.2651V71.394H69.9219V77.2651H71.9219ZM70.9219 72.394H74.6953V70.394H70.9219V72.394ZM73.6953 71.394V77.2651H75.6953V71.394H73.6953ZM80.5078 62.8472H68.9062V64.8472H80.5078V62.8472ZM67.9062 63.8472V71.1128H69.9062V63.8472H67.9062ZM68.9062 70.1128H65.0859V72.1128H68.9062V70.1128ZM66.0859 71.1128V60.8589H64.0859V71.1128H66.0859ZM65.0859 61.8589H80.5078V59.8589H65.0859V61.8589ZM79.5078 60.8589V63.8472H81.5078V60.8589H79.5078ZM79.9688 67.3354H67.8164V69.3354H79.9688V67.3354ZM68.8164 68.3354V65.4292H66.8164V68.3354H68.8164ZM67.8164 66.4292H79.9688V64.4292H67.8164V66.4292ZM78.9688 65.4292V68.3354H80.9688V65.4292H78.9688ZM103.418 74.2417V75.2417H104.418V74.2417H103.418ZM83.6367 74.2417H82.6367V75.2417H83.6367V74.2417ZM83.6367 71.2534V70.2534H82.6367V71.2534H83.6367ZM103.418 71.2534H104.418V70.2534H103.418V71.2534ZM101.602 81.5425V82.5425H102.602V81.5425H101.602ZM86.0273 81.5425H85.0273V82.5425H86.0273V81.5425ZM86.0273 78.5776V77.5776H85.0273V78.5776H86.0273ZM101.602 78.5776H102.602V77.5776H101.602V78.5776ZM89.7891 79.4917V80.4917H90.7891V79.4917H89.7891ZM86.0273 79.4917H85.0273V80.4917H86.0273V79.4917ZM86.0273 75.1089V74.1089H85.0273V75.1089H86.0273ZM89.7891 75.1089H90.7891V74.1089H89.7891V75.1089ZM95.3906 72.6597V73.6597H96.3906V72.6597H95.3906ZM91.6641 72.6597H90.6641V73.6597H91.6641V72.6597ZM91.6641 68.3472V67.3472H90.6641V68.3472H91.6641ZM95.3906 68.3472H96.3906V67.3472H95.3906V68.3472ZM101.133 66.2847V67.2847H102.133V66.2847H101.133ZM89.7539 66.2847V65.2847H88.7539V66.2847H89.7539ZM89.7539 68.1245V69.1245H90.7539V68.1245H89.7539ZM86.0273 68.1245H85.0273V69.1245H86.0273V68.1245ZM86.0273 63.6714V62.6714H85.0273V63.6714H86.0273ZM97.3594 63.6714V64.6714H98.3594V63.6714H97.3594ZM97.3594 62.7456H98.3594V61.7456H97.3594V62.7456ZM86.0039 62.7456H85.0039V63.7456H86.0039V62.7456ZM86.0039 59.8745V58.8745H85.0039V59.8745H86.0039ZM101.133 59.8745H102.133V58.8745H101.133V59.8745ZM101.496 70.0581V71.0581H102.496V70.0581H101.496ZM86.0273 70.0581H85.0273V71.0581H86.0273V70.0581ZM86.0273 67.2573V66.2573H85.0273V67.2573H86.0273ZM101.496 67.2573H102.496V66.2573H101.496V67.2573ZM103.418 73.2417H83.6367V75.2417H103.418V73.2417ZM84.6367 74.2417V71.2534H82.6367V74.2417H84.6367ZM83.6367 72.2534H103.418V70.2534H83.6367V72.2534ZM102.418 71.2534V74.2417H104.418V71.2534H102.418ZM101.602 80.5425H86.0273V82.5425H101.602V80.5425ZM87.0273 81.5425V78.5776H85.0273V81.5425H87.0273ZM86.0273 79.5776H101.602V77.5776H86.0273V79.5776ZM100.602 78.5776V81.5425H102.602V78.5776H100.602ZM89.7891 78.4917H86.0273V80.4917H89.7891V78.4917ZM87.0273 79.4917V75.1089H85.0273V79.4917H87.0273ZM86.0273 76.1089H89.7891V74.1089H86.0273V76.1089ZM88.7891 75.1089V79.4917H90.7891V75.1089H88.7891ZM95.3906 71.6597H91.6641V73.6597H95.3906V71.6597ZM92.6641 72.6597V68.3472H90.6641V72.6597H92.6641ZM91.6641 69.3472H95.3906V67.3472H91.6641V69.3472ZM94.3906 68.3472V72.6597H96.3906V68.3472H94.3906ZM101.133 65.2847H89.7539V67.2847H101.133V65.2847ZM88.7539 66.2847V68.1245H90.7539V66.2847H88.7539ZM89.7539 67.1245H86.0273V69.1245H89.7539V67.1245ZM87.0273 68.1245V63.6714H85.0273V68.1245H87.0273ZM86.0273 64.6714H97.3594V62.6714H86.0273V64.6714ZM98.3594 63.6714V62.7456H96.3594V63.6714H98.3594ZM97.3594 61.7456H86.0039V63.7456H97.3594V61.7456ZM87.0039 62.7456V59.8745H85.0039V62.7456H87.0039ZM86.0039 60.8745H101.133V58.8745H86.0039V60.8745ZM100.133 59.8745V66.2847H102.133V59.8745H100.133ZM101.496 69.0581H86.0273V71.0581H101.496V69.0581ZM87.0273 70.0581V67.2573H85.0273V70.0581H87.0273ZM86.0273 68.2573H101.496V66.2573H86.0273V68.2573ZM100.496 67.2573V70.0581H102.496V67.2573H100.496ZM116.578 67.562L117.514 67.9139L117.515 67.9117L116.578 67.562ZM114.586 70.4448L115.25 71.1922L115.254 71.1891L114.586 70.4448ZM111.07 72.2026L110.217 72.7232L110.6 73.352L111.314 73.1725L111.07 72.2026ZM109.312 69.3198L109.067 68.3504L107.753 68.6833L108.459 69.8404L109.312 69.3198ZM112.172 68.0308L112.78 68.8247L112.785 68.8206L112.172 68.0308ZM114.211 63.2378V62.2378H113.211V63.2378H114.211ZM117.199 63.2378H118.199V62.2378H117.199V63.2378ZM118.43 65.9565L117.529 66.3907L117.531 66.395L118.43 65.9565ZM119.988 67.7261L119.392 68.5292L119.398 68.5333L119.988 67.7261ZM122.836 68.9565L123.697 69.4654L124.381 68.3077L123.075 67.9856L122.836 68.9565ZM121.125 71.8511L120.892 72.8237L121.61 72.9953L121.986 72.3599L121.125 71.8511ZM117.574 70.1636L116.924 70.9233L116.931 70.9292L117.574 70.1636ZM115.547 67.3979L114.62 67.7729L114.621 67.7752L115.547 67.3979ZM114.914 63.9292L115.914 63.9354V63.9292H114.914ZM114.914 63.2378V62.2378H113.914V63.2378H114.914ZM117.961 63.2378H118.961V62.2378H117.961V63.2378ZM121.992 64.3979V65.3979H122.992V64.3979H121.992ZM110.191 64.3979H109.191V65.3979H110.191V64.3979ZM110.191 61.4565V60.4565H109.191V61.4565H110.191ZM121.992 61.4565H122.992V60.4565H121.992V61.4565ZM117.984 62.769V63.769H118.984V62.769H117.984ZM114.211 62.769H113.211V63.769H114.211V62.769ZM114.211 59.4526V58.4526H113.211V59.4526H114.211ZM117.984 59.4526H118.984V58.4526H117.984V59.4526ZM126.949 72.144V73.144H127.949V72.144H126.949ZM123.176 72.144H122.176V73.144H123.176V72.144ZM123.176 59.5229V58.5229H122.176V59.5229H123.176ZM126.949 59.5229H127.949V58.5229H126.949V59.5229ZM129.656 67.4097V68.4097H130.656V67.4097H129.656ZM125.883 67.4097H124.883V68.4097H125.883V67.4097ZM125.883 64.3628V63.3628H124.883V64.3628H125.883ZM129.656 64.3628H130.656V63.3628H129.656V64.3628ZM126.949 81.0034V82.0034H127.949V81.0034H126.949ZM112.477 81.0034H111.477V82.0034H112.477V81.0034ZM112.477 72.9878V71.9878H111.477V72.9878H112.477ZM126.949 72.9878H127.949V71.9878H126.949V72.9878ZM116.203 78.0034H115.203V79.0034H116.203V78.0034ZM123.246 78.0034V79.0034H124.246V78.0034H123.246ZM123.246 75.9526H124.246V74.9526H123.246V75.9526ZM116.203 75.9526V74.9526H115.203V75.9526H116.203ZM116.199 63.9292C116.199 65.1352 116.009 66.2263 115.641 67.2123L117.515 67.9117C117.975 66.679 118.199 65.3482 118.199 63.9292H116.199ZM115.642 67.2102C115.287 68.1546 114.718 68.9828 113.918 69.7006L115.254 71.1891C116.282 70.2662 117.041 69.1725 117.514 67.9139L115.642 67.2102ZM113.922 69.6974C113.15 70.3832 112.132 70.9047 110.827 71.2328L111.314 73.1725C112.868 72.7819 114.194 72.1315 115.25 71.1922L113.922 69.6974ZM111.924 71.682L110.166 68.7992L108.459 69.8404L110.217 72.7232L111.924 71.682ZM109.558 70.2892C110.823 69.9688 111.91 69.4907 112.78 68.8246L111.564 67.2369C110.965 67.6958 110.146 68.0771 109.067 68.3504L109.558 70.2892ZM112.785 68.8206C113.621 68.1718 114.262 67.4161 114.654 66.5423L112.83 65.7224C112.598 66.2392 112.192 66.7491 111.559 67.241L112.785 68.8206ZM114.654 66.5423C115.026 65.7161 115.211 64.8418 115.211 63.9292H113.211C113.211 64.5634 113.084 65.1579 112.83 65.7224L114.654 66.5423ZM115.211 63.9292V63.2378H113.211V63.9292H115.211ZM114.211 64.2378H117.199V62.2378H114.211V64.2378ZM116.199 63.2378V63.9292H118.199V63.2378H116.199ZM116.961 63.9292C116.961 64.7863 117.153 65.6101 117.529 66.3907L119.331 65.5224C119.082 65.0061 118.961 64.4784 118.961 63.9292H116.961ZM117.531 66.395C117.93 67.2133 118.571 67.9197 119.392 68.5292L120.584 66.923C119.953 66.4544 119.554 65.9811 119.328 65.5181L117.531 66.395ZM119.398 68.5333C120.259 69.1628 121.339 69.6172 122.596 69.9274L123.075 67.9856C121.989 67.7177 121.171 67.3519 120.579 66.9188L119.398 68.5333ZM121.975 68.4477L120.264 71.3422L121.986 72.3599L123.697 69.4654L121.975 68.4477ZM121.358 70.8785C120.039 70.5632 119.005 70.0599 118.218 69.398L116.931 70.9292C118.003 71.8298 119.336 72.4515 120.892 72.8237L121.358 70.8785ZM118.224 69.4039C117.416 68.7115 116.839 67.9181 116.473 67.0207L114.621 67.7752C115.115 68.9872 115.889 70.0375 116.924 70.9233L118.224 69.4039ZM116.474 67.023C116.097 66.0922 115.907 65.0668 115.914 63.9354L113.914 63.9229C113.906 65.2916 114.137 66.5787 114.62 67.7729L116.474 67.023ZM115.914 63.9292V63.2378H113.914V63.9292H115.914ZM114.914 64.2378H117.961V62.2378H114.914V64.2378ZM116.961 63.2378V63.9292H118.961V63.2378H116.961ZM121.992 63.3979H110.191V65.3979H121.992V63.3979ZM111.191 64.3979V61.4565H109.191V64.3979H111.191ZM110.191 62.4565H121.992V60.4565H110.191V62.4565ZM120.992 61.4565V64.3979H122.992V61.4565H120.992ZM117.984 61.769H114.211V63.769H117.984V61.769ZM115.211 62.769V59.4526H113.211V62.769H115.211ZM114.211 60.4526H117.984V58.4526H114.211V60.4526ZM116.984 59.4526V62.769H118.984V59.4526H116.984ZM126.949 71.144H123.176V73.144H126.949V71.144ZM124.176 72.144V59.5229H122.176V72.144H124.176ZM123.176 60.5229H126.949V58.5229H123.176V60.5229ZM125.949 59.5229V72.144H127.949V59.5229H125.949ZM129.656 66.4097H125.883V68.4097H129.656V66.4097ZM126.883 67.4097V64.3628H124.883V67.4097H126.883ZM125.883 65.3628H129.656V63.3628H125.883V65.3628ZM128.656 64.3628V67.4097H130.656V64.3628H128.656ZM126.949 80.0034H112.477V82.0034H126.949V80.0034ZM113.477 81.0034V72.9878H111.477V81.0034H113.477ZM112.477 73.9878H126.949V71.9878H112.477V73.9878ZM125.949 72.9878V81.0034H127.949V72.9878H125.949ZM116.203 79.0034H123.246V77.0034H116.203V79.0034ZM124.246 78.0034V75.9526H122.246V78.0034H124.246ZM123.246 74.9526H116.203V76.9526H123.246V74.9526ZM115.203 75.9526V78.0034H117.203V75.9526H115.203ZM145.664 66.73V67.73H146.664V66.73H145.664ZM140.039 66.73H139.039V67.73H140.039V66.73ZM140.039 63.7417V62.7417H139.039V63.7417H140.039ZM145.664 63.7417H146.664V62.7417H145.664V63.7417ZM145.664 73.3394V74.3394H146.664V73.3394H145.664ZM140.039 73.3394H139.039V74.3394H140.039V73.3394ZM140.039 70.3511V69.3511H139.039V70.3511H140.039ZM145.664 70.3511H146.664V69.3511H145.664V70.3511ZM139.371 61.9253L138.777 62.7297L138.785 62.7356L139.371 61.9253ZM141.41 64.6558L140.484 65.0335L140.487 65.0408L141.41 64.6558ZM141.41 72.9526L140.485 72.5719L140.484 72.575L141.41 72.9526ZM139.371 75.6948L139.961 76.5026L139.962 76.5017L139.371 75.6948ZM133.441 75.6948L132.847 76.4992L132.852 76.5026L133.441 75.6948ZM131.391 72.9526L130.466 73.3334L130.469 73.3407L131.391 72.9526ZM131.391 64.6558L130.469 64.2677L130.468 64.2707L131.391 64.6558ZM133.441 61.9253L134.031 62.7331L134.036 62.7296L133.441 61.9253ZM136.406 64.3745L136.388 65.3743L136.406 65.3747L136.423 65.3744L136.406 64.3745ZM135.281 64.855L135.988 65.5621L135.997 65.5535L135.281 64.855ZM134.531 66.3315L135.496 66.5956L135.497 66.5927L134.531 66.3315ZM134.273 68.7808L135.273 68.7886L135.273 68.7807L135.273 68.7728L134.273 68.7808ZM134.531 71.2651L133.566 71.5263L133.567 71.5292L134.531 71.2651ZM135.281 72.7417L134.566 73.4403L134.574 73.4488L135.281 72.7417ZM136.406 73.2104L136.423 72.2106L136.406 72.2103L136.388 72.2106L136.406 73.2104ZM137.566 64.8433L136.859 65.5504L136.868 65.559L136.877 65.5674L137.566 64.8433ZM148.84 81.2729V82.2729H149.84V81.2729H148.84ZM145.102 81.2729H144.102V82.2729H145.102V81.2729ZM145.102 59.5229V58.5229H144.102V59.5229H145.102ZM148.84 59.5229H149.84V58.5229H148.84V59.5229ZM145.664 65.73H140.039V67.73H145.664V65.73ZM141.039 66.73V63.7417H139.039V66.73H141.039ZM140.039 64.7417H145.664V62.7417H140.039V64.7417ZM144.664 63.7417V66.73H146.664V63.7417H144.664ZM145.664 72.3394H140.039V74.3394H145.664V72.3394ZM141.039 73.3394V70.3511H139.039V73.3394H141.039ZM140.039 71.3511H145.664V69.3511H140.039V71.3511ZM144.664 70.3511V73.3394H146.664V70.3511H144.664ZM136.406 61.9644C137.308 61.9644 138.087 62.22 138.777 62.7296L139.965 61.121C138.921 60.3494 137.723 59.9644 136.406 59.9644V61.9644ZM138.785 62.7356C139.482 63.2397 140.057 63.9862 140.484 65.0334L142.336 64.2781C141.794 62.9503 141.01 61.8765 139.957 61.115L138.785 62.7356ZM140.487 65.0408C140.918 66.0741 141.148 67.3133 141.148 68.7808H143.148C143.148 67.1076 142.886 65.5968 142.333 64.2707L140.487 65.0408ZM141.148 68.7808C141.148 70.2649 140.918 71.5214 140.485 72.5719L142.335 73.3334C142.887 71.9933 143.148 70.4685 143.148 68.7808H141.148ZM140.484 72.575C140.057 73.6228 139.481 74.3752 138.78 74.888L139.962 76.5017C141.011 75.7332 141.795 74.6575 142.336 73.3303L140.484 72.575ZM138.782 74.887C138.092 75.3906 137.311 75.644 136.406 75.644V77.644C137.72 77.644 138.916 77.2647 139.961 76.5026L138.782 74.887ZM136.406 75.644C135.501 75.644 134.721 75.3906 134.031 74.887L132.852 76.5026C133.896 77.2647 135.093 77.644 136.406 77.644V75.644ZM134.036 74.8905C133.339 74.3758 132.756 73.6189 132.312 72.5646L130.469 73.3407C131.025 74.6614 131.81 75.7326 132.847 76.4992L134.036 74.8905ZM132.315 72.5719C131.883 71.5214 131.652 70.2649 131.652 68.7808H129.652C129.652 70.4685 129.914 71.9933 130.466 73.3334L132.315 72.5719ZM131.652 68.7808C131.652 67.3133 131.882 66.0741 132.314 65.0408L130.468 64.2707C129.914 65.5968 129.652 67.1076 129.652 68.7808H131.652ZM132.312 65.0438C132.756 63.9901 133.337 63.2391 134.031 62.7331L132.852 61.1175C131.811 61.8771 131.025 62.9464 130.469 64.2677L132.312 65.0438ZM134.036 62.7296C134.725 62.22 135.504 61.9644 136.406 61.9644V59.9644C135.09 59.9644 133.892 60.3494 132.847 61.121L134.036 62.7296ZM136.424 63.3747C135.699 63.3615 135.064 63.6458 134.566 64.1564L135.997 65.5535C136.139 65.4079 136.254 65.3719 136.388 65.3743L136.424 63.3747ZM134.574 64.1479C134.082 64.6397 133.769 65.3182 133.566 66.0703L135.497 66.5927C135.652 66.0168 135.84 65.7109 135.988 65.5621L134.574 64.1479ZM133.567 66.0675C133.355 66.8416 133.265 67.7566 133.273 68.7888L135.273 68.7728C135.266 67.8518 135.348 67.134 135.496 66.5956L133.567 66.0675ZM133.273 68.7729C133.265 69.8195 133.355 70.7453 133.566 71.5263L135.497 71.0039C135.349 70.4569 135.266 69.7264 135.273 68.7886L133.273 68.7729ZM133.567 71.5292C133.771 72.2757 134.083 72.946 134.566 73.4402L135.997 72.0432C135.839 71.8812 135.651 71.567 135.496 71.001L133.567 71.5292ZM134.574 73.4488C135.075 73.9495 135.707 74.2233 136.424 74.2103L136.388 72.2106C136.246 72.2132 136.128 72.1745 135.988 72.0346L134.574 73.4488ZM136.389 74.2103C137.113 74.2228 137.761 73.961 138.274 73.4488L136.859 72.0346C136.731 72.163 136.606 72.2137 136.423 72.2106L136.389 74.2103ZM138.274 73.4488C138.772 72.9503 139.086 72.2722 139.284 71.5185L137.349 71.0118C137.203 71.5706 137.017 71.8769 136.859 72.0346L138.274 73.4488ZM139.284 71.5185C139.485 70.7505 139.574 69.8299 139.574 68.7808H137.574C137.574 69.7316 137.492 70.4672 137.349 71.0118L139.284 71.5185ZM139.574 68.7808C139.574 67.7451 139.485 66.8304 139.285 66.0575L137.348 66.5587C137.492 67.1139 137.574 67.8476 137.574 68.7808H139.574ZM139.285 66.0575C139.088 65.299 138.772 64.6104 138.256 64.1191L136.877 65.5674C137.017 65.7011 137.201 65.9891 137.348 66.5587L139.285 66.0575ZM138.274 64.1362C137.761 63.624 137.113 63.3622 136.389 63.3747L136.423 65.3744C136.606 65.3712 136.731 65.4219 136.859 65.5504L138.274 64.1362ZM148.84 80.2729H145.102V82.2729H148.84V80.2729ZM146.102 81.2729V59.5229H144.102V81.2729H146.102ZM145.102 60.5229H148.84V58.5229H145.102V60.5229ZM147.84 59.5229V81.2729H149.84V59.5229H147.84Z" fill="black" mask="url(#path-2-outside-1_626_1225)"/>
<path d="M33.3516 152.187L38.5273 138.046H40.3828L45.5586 152.187H43.7031L39.5039 140.331H39.3867L35.1875 152.187H33.3516ZM43.0781 146.659V148.202H35.832V146.659H43.0781ZM49.2305 152.187H47.4727V138.046H49.2305V152.187ZM69.9531 153.769H68.4297V136.405H69.9531V153.769ZM72.7656 144.765H69.5625V143.476H72.7656V144.765ZM65.4609 138.28C65.4544 139.966 65.1745 141.562 64.6211 143.065C64.0742 144.563 63.2083 145.946 62.0234 147.216C60.8385 148.479 59.3281 149.563 57.4922 150.468L56.6328 149.257C58.2409 148.456 59.5885 147.515 60.6758 146.435C61.7695 145.347 62.5866 144.143 63.127 142.821C63.6738 141.5 63.9505 140.071 63.957 138.534V138.28H65.4609ZM64.7383 139.569H57.4336V138.28H64.7383V139.569ZM79.3672 139.101C79.3672 140.201 79.1686 141.233 78.7715 142.196C78.3743 143.153 77.8112 143.987 77.082 144.696C76.3594 145.399 75.5195 145.937 74.5625 146.308L73.7422 145.077C74.6016 144.758 75.36 144.299 76.0176 143.7C76.6751 143.095 77.1862 142.398 77.5508 141.61C77.9154 140.823 78.0977 139.986 78.0977 139.101V137.304H79.3672V139.101ZM79.6016 139.218C79.6016 139.993 79.7871 140.741 80.1582 141.464C80.5293 142.18 81.0404 142.812 81.6914 143.358C82.3424 143.905 83.0846 144.322 83.918 144.608L83.0781 145.819C82.1536 145.481 81.3366 144.983 80.627 144.325C79.9173 143.668 79.3607 142.899 78.957 142.021C78.5534 141.142 78.3516 140.207 78.3516 139.218V137.304H79.6016V139.218ZM87.375 146.972H85.8516V136.405H87.375V146.972ZM89.9922 142.226H86.9453V140.937H89.9922V142.226ZM81.8086 147.421C82.9935 147.421 84.0156 147.545 84.875 147.792C85.7344 148.039 86.3919 148.401 86.8477 148.876C87.3034 149.345 87.5312 149.908 87.5312 150.565C87.5312 151.236 87.3034 151.806 86.8477 152.274C86.3919 152.75 85.7344 153.111 84.875 153.358C84.0156 153.606 82.9935 153.729 81.8086 153.729C80.6172 153.729 79.5885 153.606 78.7227 153.358C77.8633 153.111 77.2025 152.75 76.7402 152.274C76.278 151.799 76.0469 151.229 76.0469 150.565C76.0469 149.908 76.278 149.345 76.7402 148.876C77.2025 148.401 77.8665 148.039 78.7324 147.792C79.5983 147.545 80.6237 147.421 81.8086 147.421ZM81.8086 148.651C80.9427 148.651 80.1908 148.729 79.5527 148.886C78.9212 149.042 78.4329 149.263 78.0879 149.55C77.7493 149.836 77.5833 150.175 77.5898 150.565C77.5833 150.969 77.7493 151.317 78.0879 151.61C78.4329 151.903 78.9212 152.128 79.5527 152.284C80.1842 152.44 80.9362 152.519 81.8086 152.519C82.681 152.519 83.4362 152.44 84.0742 152.284C84.7122 152.128 85.2005 151.903 85.5391 151.61C85.8776 151.317 86.0469 150.969 86.0469 150.565C86.0469 150.175 85.8776 149.833 85.5391 149.54C85.2005 149.247 84.709 149.026 84.0645 148.876C83.4264 148.726 82.6745 148.651 81.8086 148.651ZM101.789 137.675C102.688 137.675 103.492 137.847 104.201 138.192C104.911 138.537 105.464 139.019 105.861 139.638C106.258 140.256 106.457 140.963 106.457 141.757C106.457 142.551 106.258 143.257 105.861 143.876C105.464 144.494 104.911 144.976 104.201 145.321C103.492 145.666 102.688 145.839 101.789 145.839C100.884 145.839 100.074 145.666 99.3574 145.321C98.6478 144.976 98.0944 144.494 97.6973 143.876C97.3001 143.257 97.1016 142.551 97.1016 141.757C97.1016 140.963 97.3001 140.256 97.6973 139.638C98.0944 139.019 98.6478 138.537 99.3574 138.192C100.074 137.847 100.884 137.675 101.789 137.675ZM101.789 139.022C101.177 139.022 100.63 139.136 100.148 139.364C99.6667 139.592 99.2891 139.918 99.0156 140.341C98.7422 140.757 98.6055 141.229 98.6055 141.757C98.6055 142.291 98.7422 142.763 99.0156 143.173C99.2891 143.583 99.6667 143.905 100.148 144.14C100.63 144.374 101.177 144.491 101.789 144.491C102.395 144.491 102.938 144.374 103.42 144.14C103.908 143.905 104.286 143.583 104.553 143.173C104.82 142.763 104.953 142.291 104.953 141.757C104.953 141.229 104.82 140.757 104.553 140.341C104.286 139.918 103.908 139.592 103.42 139.364C102.938 139.136 102.395 139.022 101.789 139.022ZM110.344 153.808H108.82V136.405H110.344V153.808ZM96.2031 148.671C98.3711 148.677 100.399 148.645 102.287 148.573C104.175 148.502 105.969 148.339 107.668 148.085L107.785 149.218C106.561 149.446 105.288 149.615 103.967 149.726C102.645 149.83 101.408 149.898 100.256 149.931C99.11 149.963 97.8307 149.979 96.418 149.979L96.2031 148.671ZM119.934 149.003H118.391V145.136H119.934V149.003ZM127.707 149.608H126.164V136.425H127.707V149.608ZM128.137 153.397H115.793V152.108H128.137V153.397ZM117.336 152.479H115.793V148.319H117.336V152.479ZM113.293 144.472C115.617 144.459 117.674 144.423 119.465 144.364C121.255 144.299 122.967 144.166 124.602 143.964L124.699 145.077C123.013 145.344 121.245 145.52 119.396 145.604C117.548 145.689 115.585 145.728 113.508 145.722L113.293 144.472ZM126.574 147.812H122.57V146.698H126.574V147.812ZM118.996 137.128C119.836 137.128 120.581 137.252 121.232 137.499C121.89 137.746 122.398 138.101 122.756 138.563C123.114 139.026 123.293 139.556 123.293 140.155C123.293 140.767 123.114 141.298 122.756 141.747C122.398 142.196 121.893 142.545 121.242 142.792C120.591 143.039 119.842 143.163 118.996 143.163C118.143 143.163 117.391 143.039 116.74 142.792C116.096 142.545 115.594 142.196 115.236 141.747C114.878 141.298 114.699 140.767 114.699 140.155C114.699 139.556 114.878 139.026 115.236 138.563C115.594 138.101 116.099 137.746 116.75 137.499C117.401 137.252 118.15 137.128 118.996 137.128ZM118.996 138.3C118.436 138.293 117.941 138.368 117.512 138.524C117.082 138.674 116.747 138.892 116.506 139.179C116.271 139.465 116.158 139.791 116.164 140.155C116.158 140.526 116.271 140.855 116.506 141.142C116.747 141.422 117.082 141.64 117.512 141.796C117.941 141.952 118.436 142.03 118.996 142.03C119.543 142.03 120.031 141.952 120.461 141.796C120.891 141.64 121.226 141.422 121.467 141.142C121.708 140.855 121.828 140.526 121.828 140.155C121.828 139.791 121.708 139.465 121.467 139.179C121.226 138.892 120.891 138.674 120.461 138.524C120.031 138.368 119.543 138.293 118.996 138.3ZM146.516 144.94H130.676V143.71H146.516V144.94ZM144.621 142.284H132.785V141.034H144.621V142.284ZM144.445 138.241H134.328V142.011H132.785V137.011H144.445V138.241ZM144.465 150.526H134.152V152.753H132.629V149.374H142.961V147.694H132.59V146.503H144.465V150.526ZM144.992 153.573H132.629V152.323H144.992V153.573ZM156.691 139.589H148.762V138.339H156.691V139.589ZM153.039 149.179H151.535V143.3H153.039V149.179ZM157.59 139.374C157.583 140.429 157.548 141.477 157.482 142.519C157.424 143.56 157.29 144.765 157.082 146.132L155.539 145.995C155.76 144.647 155.9 143.466 155.959 142.45C156.018 141.428 156.047 140.39 156.047 139.335V139.237V138.339H157.59V139.237V139.374ZM161.359 153.769H159.836V136.405H161.359V153.769ZM164.172 144.999H160.949V143.671H164.172V144.999ZM147.785 148.671C149.895 148.658 151.851 148.619 153.654 148.554C155.458 148.482 157.154 148.352 158.742 148.163L158.82 149.315C157.173 149.569 155.432 149.742 153.596 149.833C151.76 149.918 149.888 149.953 147.98 149.94L147.785 148.671ZM35.9492 163.647H41.0078V161.147H42.5312V168.706H34.4453V161.147H35.9492V163.647ZM41.0078 167.456V164.839H35.9492V167.456H41.0078ZM47.2773 169.39H45.7539V160.405H47.2773V169.39ZM49.8945 165.464H46.5938V164.175H49.8945V165.464ZM47.2773 174.409H37.7461V177.026H36.2422V173.237H45.7539V171.44H36.2031V170.21H47.2773V174.409ZM47.9219 177.573H36.2422V176.323H47.9219V177.573ZM56.6719 161.675C57.5703 161.675 58.3743 161.847 59.084 162.192C59.7936 162.537 60.347 163.019 60.7441 163.638C61.1413 164.256 61.3398 164.963 61.3398 165.757C61.3398 166.551 61.1413 167.257 60.7441 167.876C60.347 168.494 59.7936 168.976 59.084 169.321C58.3743 169.666 57.5703 169.839 56.6719 169.839C55.7669 169.839 54.9564 169.666 54.2402 169.321C53.5306 168.976 52.9772 168.494 52.5801 167.876C52.1829 167.257 51.9844 166.551 51.9844 165.757C51.9844 164.963 52.1829 164.256 52.5801 163.638C52.9772 163.019 53.5306 162.537 54.2402 162.192C54.9564 161.847 55.7669 161.675 56.6719 161.675ZM56.6719 163.022C56.0599 163.022 55.513 163.136 55.0312 163.364C54.5495 163.592 54.1719 163.918 53.8984 164.341C53.625 164.757 53.4883 165.229 53.4883 165.757C53.4883 166.291 53.625 166.763 53.8984 167.173C54.1719 167.583 54.5495 167.905 55.0312 168.14C55.513 168.374 56.0599 168.491 56.6719 168.491C57.2773 168.491 57.821 168.374 58.3027 168.14C58.791 167.905 59.1686 167.583 59.4355 167.173C59.7025 166.763 59.8359 166.291 59.8359 165.757C59.8359 165.229 59.7025 164.757 59.4355 164.341C59.1686 163.918 58.791 163.592 58.3027 163.364C57.821 163.136 57.2773 163.022 56.6719 163.022ZM65.2266 177.808H63.7031V160.405H65.2266V177.808ZM51.0859 172.671C53.2539 172.677 55.2819 172.645 57.1699 172.573C59.0579 172.502 60.8516 172.339 62.5508 172.085L62.668 173.218C61.444 173.446 60.1712 173.615 58.8496 173.726C57.528 173.83 56.291 173.898 55.1387 173.931C53.9928 173.963 52.7135 173.979 51.3008 173.979L51.0859 172.671ZM81.8477 173.433H80.3242V160.425H81.8477V173.433ZM84.4648 167.437H81.3594V166.147H84.4648V167.437ZM78.6641 163.804H68.3125V162.554H78.6641V163.804ZM73.4883 164.761C74.3086 164.761 75.0345 164.894 75.666 165.161C76.2975 165.428 76.7858 165.806 77.1309 166.294C77.4824 166.782 77.6615 167.352 77.668 168.003C77.6615 168.647 77.4824 169.214 77.1309 169.702C76.7858 170.184 76.2975 170.555 75.666 170.815C75.0345 171.076 74.3086 171.206 73.4883 171.206C72.6549 171.206 71.9225 171.076 71.291 170.815C70.6595 170.555 70.1712 170.184 69.8262 169.702C69.4811 169.214 69.3086 168.647 69.3086 168.003C69.3086 167.352 69.4811 166.782 69.8262 166.294C70.1712 165.806 70.6595 165.428 71.291 165.161C71.9225 164.894 72.6549 164.761 73.4883 164.761ZM73.4883 165.972C72.9479 165.972 72.4694 166.053 72.0527 166.216C71.6426 166.379 71.3268 166.616 71.1055 166.929C70.8841 167.235 70.7734 167.593 70.7734 168.003C70.7734 168.407 70.8841 168.758 71.1055 169.058C71.3268 169.357 71.6426 169.591 72.0527 169.761C72.4694 169.924 72.9479 170.002 73.4883 169.995C74.0221 170.002 74.4974 169.924 74.9141 169.761C75.3307 169.591 75.6497 169.357 75.8711 169.058C76.099 168.758 76.2161 168.407 76.2227 168.003C76.2161 167.593 76.099 167.235 75.8711 166.929C75.6497 166.616 75.3307 166.379 74.9141 166.216C74.4974 166.053 74.0221 165.972 73.4883 165.972ZM74.25 163.198H72.7266V160.425H74.25V163.198ZM82.6484 177.397H70.9883V176.108H82.6484V177.397ZM72.4922 176.636H70.9883V172.397H72.4922V176.636ZM92.9805 163.999H97.8242V161.304H99.3281V169.253H91.457V161.304H92.9805V163.999ZM97.8242 168.003V165.21H92.9805V168.003H97.8242ZM103.898 165.972H98.8984V164.683H103.898V165.972ZM104.973 169.897H103.43V160.405H104.973V169.897ZM95.3242 172.866H103.43V170.737H104.953V177.534H93.7812V170.737H95.3242V172.866ZM103.43 176.265V174.097H95.3242V176.265H103.43ZM121.438 173.218H119.914V160.405H121.438V173.218ZM124.055 166.987H120.949V165.698H124.055V166.987ZM122.238 177.397H110.578V176.108H122.238V177.397ZM112.082 176.616H110.578V171.89H112.082V176.616ZM112.746 161.636C113.605 161.636 114.383 161.818 115.08 162.183C115.777 162.547 116.32 163.055 116.711 163.706C117.108 164.351 117.31 165.086 117.316 165.913C117.31 166.74 117.108 167.479 116.711 168.13C116.32 168.774 115.777 169.279 115.08 169.644C114.383 170.008 113.605 170.19 112.746 170.19C111.893 170.19 111.118 170.008 110.422 169.644C109.732 169.279 109.188 168.771 108.791 168.12C108.394 167.469 108.195 166.733 108.195 165.913C108.195 165.086 108.394 164.351 108.791 163.706C109.188 163.055 109.732 162.547 110.422 162.183C111.112 161.818 111.887 161.636 112.746 161.636ZM112.746 162.983C112.18 162.983 111.662 163.107 111.193 163.354C110.731 163.602 110.367 163.95 110.1 164.399C109.833 164.849 109.699 165.353 109.699 165.913C109.699 166.473 109.833 166.974 110.1 167.417C110.367 167.86 110.731 168.208 111.193 168.462C111.662 168.716 112.18 168.843 112.746 168.843C113.326 168.843 113.846 168.716 114.309 168.462C114.777 168.208 115.145 167.86 115.412 167.417C115.679 166.974 115.812 166.473 115.812 165.913C115.812 165.347 115.679 164.842 115.412 164.399C115.145 163.95 114.777 163.602 114.309 163.354C113.846 163.107 113.326 162.983 112.746 162.983ZM135.598 168.452H132.258V167.183H135.598V168.452ZM140.031 177.769H138.547V160.405H140.031V177.769ZM136.535 176.89H135.07V160.776H136.535V176.89ZM129.094 161.87C129.842 161.87 130.497 162.118 131.057 162.612C131.623 163.107 132.062 163.81 132.375 164.722C132.688 165.627 132.844 166.688 132.844 167.905C132.844 169.123 132.688 170.187 132.375 171.099C132.062 172.004 131.623 172.703 131.057 173.198C130.497 173.693 129.842 173.94 129.094 173.94C128.345 173.94 127.691 173.693 127.131 173.198C126.577 172.703 126.145 172.004 125.832 171.099C125.52 170.187 125.363 169.123 125.363 167.905C125.363 166.688 125.52 165.627 125.832 164.722C126.145 163.81 126.577 163.107 127.131 162.612C127.691 162.118 128.345 161.87 129.094 161.87ZM129.094 163.315C128.625 163.315 128.218 163.501 127.873 163.872C127.528 164.243 127.261 164.777 127.072 165.474C126.89 166.164 126.802 166.974 126.809 167.905C126.802 168.836 126.89 169.647 127.072 170.337C127.261 171.021 127.528 171.551 127.873 171.929C128.225 172.3 128.632 172.482 129.094 172.476C129.562 172.482 129.973 172.3 130.324 171.929C130.676 171.551 130.943 171.021 131.125 170.337C131.307 169.647 131.398 168.836 131.398 167.905C131.398 166.974 131.307 166.164 131.125 165.474C130.943 164.777 130.676 164.243 130.324 163.872C129.973 163.501 129.562 163.315 129.094 163.315ZM162.297 177.769H160.832V160.405H162.297V177.769ZM161.223 168.667H157.824V167.397H161.223V168.667ZM158.273 176.87H156.867V160.796H158.273V176.87ZM149.211 172.163C150.624 172.163 151.799 172.131 152.736 172.065C153.68 172 154.634 171.87 155.598 171.675L155.734 172.964C154.758 173.166 153.794 173.299 152.844 173.364C151.893 173.429 150.682 173.465 149.211 173.472H148.098V172.163H149.211ZM154.602 163.804H149.621V172.769H148.098V162.534H154.602V163.804ZM173.41 164.663H164.699V163.413H173.41V164.663ZM169.055 165.835C169.777 165.835 170.422 166.004 170.988 166.343C171.561 166.681 172.007 167.15 172.326 167.749C172.652 168.341 172.818 169.019 172.824 169.78C172.818 170.549 172.652 171.232 172.326 171.831C172.007 172.43 171.561 172.902 170.988 173.247C170.422 173.592 169.777 173.765 169.055 173.765C168.345 173.765 167.704 173.592 167.131 173.247C166.564 172.902 166.122 172.43 165.803 171.831C165.484 171.232 165.324 170.549 165.324 169.78C165.324 169.025 165.487 168.348 165.812 167.749C166.138 167.15 166.581 166.681 167.141 166.343C167.707 166.004 168.345 165.835 169.055 165.835ZM169.055 167.124C168.599 167.131 168.192 167.251 167.834 167.485C167.476 167.713 167.196 168.029 166.994 168.433C166.792 168.83 166.691 169.279 166.691 169.78C166.691 170.288 166.792 170.741 166.994 171.138C167.196 171.535 167.476 171.847 167.834 172.075C168.192 172.303 168.599 172.417 169.055 172.417C169.51 172.417 169.921 172.303 170.285 172.075C170.65 171.847 170.936 171.535 171.145 171.138C171.353 170.741 171.457 170.288 171.457 169.78C171.457 169.279 171.353 168.83 171.145 168.433C170.936 168.029 170.65 167.713 170.285 167.485C169.921 167.251 169.51 167.131 169.055 167.124ZM179.523 177.769H178.059V160.405H179.523V177.769ZM178.547 168.999H175.227V167.729H178.547V168.999ZM175.754 176.909H174.309V160.835H175.754V176.909ZM169.836 164.175H168.312V160.933H169.836V164.175ZM39.4746 189.269C39.4746 190.577 39.2695 191.85 38.8594 193.087C38.4557 194.324 37.8763 195.427 37.1211 196.397C36.3659 197.368 35.4902 198.09 34.4941 198.565L33.2148 196.856C34.1198 196.427 34.9173 195.805 35.6074 194.991C36.2975 194.171 36.8249 193.263 37.1895 192.267C37.5605 191.271 37.7493 190.271 37.7559 189.269V186.944H39.4746V189.269ZM39.9238 189.269C39.9173 190.206 40.0898 191.144 40.4414 192.081C40.793 193.012 41.3008 193.862 41.9648 194.63C42.6354 195.398 43.4232 195.994 44.3281 196.417L43.1074 198.126C42.1113 197.657 41.2422 196.964 40.5 196.046C39.7578 195.121 39.1882 194.07 38.791 192.892C38.3939 191.713 38.1953 190.506 38.1953 189.269V186.944H39.9238V189.269ZM43.6152 187.794H33.8984V186.017H43.6152V187.794ZM47.4141 201.905H45.2461V184.269H47.4141V201.905ZM50.1387 192.97H46.9258V191.144H50.1387V192.97ZM56.9355 201.905H54.709V195.323H56.9355V201.905ZM63.0488 201.905H60.8516V195.323H63.0488V201.905ZM66.9941 195.929H50.8613V194.171H66.9941V195.929ZM58.8789 184.903C60.1289 184.903 61.2324 185.066 62.1895 185.392C63.153 185.717 63.9017 186.176 64.4355 186.769C64.9694 187.361 65.2363 188.051 65.2363 188.839C65.2363 189.62 64.9694 190.3 64.4355 190.88C63.9017 191.459 63.153 191.909 62.1895 192.228C61.2324 192.547 60.1289 192.706 58.8789 192.706C57.6289 192.706 56.5254 192.547 55.5684 192.228C54.6178 191.909 53.8757 191.459 53.3418 190.88C52.8079 190.3 52.541 189.62 52.541 188.839C52.541 188.051 52.8079 187.361 53.3418 186.769C53.8757 186.176 54.6178 185.717 55.5684 185.392C56.5254 185.066 57.6289 184.903 58.8789 184.903ZM58.8789 186.642C58.0456 186.648 57.3197 186.739 56.7012 186.915C56.0892 187.084 55.6139 187.335 55.2754 187.667C54.9434 187.993 54.7806 188.383 54.7871 188.839C54.7806 189.282 54.9434 189.666 55.2754 189.991C55.6139 190.31 56.0892 190.554 56.7012 190.724C57.3197 190.893 58.0456 190.978 58.8789 190.978C59.7122 190.978 60.4382 190.893 61.0566 190.724C61.6751 190.554 62.1536 190.31 62.4922 189.991C62.8307 189.672 63 189.288 63 188.839C63 188.383 62.8307 187.993 62.4922 187.667C62.1536 187.335 61.6751 187.084 61.0566 186.915C60.4447 186.739 59.7188 186.648 58.8789 186.642ZM84.2793 194.854H68.1465V193.136H84.2793V194.854ZM77.2773 193.937H75.1289V191.192H77.2773V193.937ZM72.3848 196.925H80.1875V195.587H82.3262V201.7H70.2168V195.587H72.3848V196.925ZM80.1875 200.011V198.575H72.3848V200.011H80.1875ZM82.2871 188.956H72.3457V191.095H70.1875V187.394H80.0996V186.241H70.1387V184.571H82.2871V188.956ZM82.6289 191.847H70.1875V190.187H82.6289V191.847ZM100.666 201.905H98.6152V184.269H100.666V201.905ZM95.3438 192.95H91.2715V191.222H95.3438V192.95ZM96.9258 201.095H94.875V184.698H96.9258V201.095ZM93.127 186.427C93.1204 188.119 92.9023 189.672 92.4727 191.085C92.043 192.498 91.3431 193.806 90.373 195.011C89.4095 196.209 88.1335 197.27 86.5449 198.194L85.3047 196.651C86.6523 195.851 87.7461 194.962 88.5859 193.985C89.4323 193.002 90.0475 191.925 90.4316 190.753C90.8158 189.581 91.0111 188.282 91.0176 186.856V186.427H93.127ZM91.75 188.185H86.2031V186.427H91.75V188.185ZM121.838 194.894H109.455V193.165H121.838V194.894ZM123.635 199.864H107.502V198.116H123.635V199.864ZM116.623 198.888H114.455V194.034H116.623V198.888ZM121.682 187.325H111.662V193.849H109.455V185.567H121.682V187.325ZM121.281 191.056H111.008V189.337H121.281V191.056ZM140.9 195.88H124.768V194.132H140.9V195.88ZM139.289 201.915H126.828V200.167H139.289V201.915ZM129.006 200.694H126.828V196.876H129.006V200.694ZM133.898 194.942H131.75V191.661H133.898V194.942ZM138.908 189.435H128.967V191.466H126.809V187.882H136.721V186.417H126.76V184.718H138.908V189.435ZM139.25 192.579H126.809V190.919H139.25V192.579ZM150.109 184.552C151.438 184.552 152.577 184.666 153.527 184.894C154.484 185.121 155.21 185.463 155.705 185.919C156.2 186.368 156.447 186.915 156.447 187.56C156.447 188.217 156.2 188.774 155.705 189.229C155.21 189.685 154.488 190.03 153.537 190.265C152.587 190.493 151.444 190.61 150.109 190.616C148.762 190.61 147.613 190.493 146.662 190.265C145.712 190.03 144.986 189.685 144.484 189.229C143.983 188.774 143.732 188.217 143.732 187.56C143.732 186.915 143.983 186.368 144.484 185.919C144.986 185.463 145.712 185.121 146.662 184.894C147.619 184.666 148.768 184.552 150.109 184.552ZM150.109 186.144C149.204 186.144 148.446 186.199 147.834 186.31C147.229 186.42 146.77 186.583 146.457 186.798C146.151 187.006 146.001 187.26 146.008 187.56C146.001 187.885 146.151 188.155 146.457 188.37C146.77 188.578 147.222 188.735 147.814 188.839C148.413 188.943 149.178 188.995 150.109 188.995C151.034 188.995 151.796 188.943 152.395 188.839C153 188.735 153.456 188.578 153.762 188.37C154.068 188.155 154.221 187.885 154.221 187.56C154.221 187.26 154.068 187.006 153.762 186.798C153.456 186.583 152.993 186.42 152.375 186.31C151.763 186.199 151.008 186.144 150.109 186.144ZM158.146 193.302H142.072V191.563H158.146V193.302ZM156.154 198.8H146.115V200.567H143.967V197.267H154.006V196.085H143.957V194.483H156.154V198.8ZM156.633 201.769H143.967V200.108H156.633V201.769ZM50.0312 216.862H46.8574V215.075H50.0312V216.862ZM47.4141 225.896H45.2461V208.269H47.4141V225.896ZM36.3691 220.915H34.2012V209.978H36.3691V220.915ZM35.6953 219.724C37.056 219.73 38.4134 219.672 39.7676 219.548C41.1217 219.424 42.4922 219.222 43.8789 218.942L44.123 220.759C42.7298 221.039 41.3398 221.237 39.9531 221.354C38.5664 221.465 37.1471 221.521 35.6953 221.521H34.2012V219.724H35.6953ZM65.2461 215.69H52.9023V213.933H65.2461V215.69ZM67.0137 219.694H50.8809V217.907H67.0137V219.694ZM59.9434 225.905H57.7656V218.923H59.9434V225.905ZM55.0605 214.782H52.9023V209.108H55.0605V214.782ZM72.9805 209.558C73.8529 209.558 74.6309 209.812 75.3145 210.319C76.0046 210.827 76.5384 211.553 76.916 212.497C77.3001 213.441 77.4922 214.538 77.4922 215.788C77.4922 217.051 77.3001 218.155 76.916 219.099C76.5384 220.036 76.0046 220.762 75.3145 221.276C74.6309 221.784 73.8529 222.038 72.9805 222.038C72.0951 222.038 71.3105 221.784 70.627 221.276C69.9434 220.762 69.4095 220.036 69.0254 219.099C68.6413 218.155 68.4492 217.051 68.4492 215.788C68.4492 214.538 68.6413 213.441 69.0254 212.497C69.4095 211.553 69.9434 210.827 70.627 210.319C71.3105 209.812 72.0951 209.558 72.9805 209.558ZM72.9805 211.511C72.4922 211.511 72.0658 211.683 71.7012 212.028C71.3366 212.367 71.0501 212.858 70.8418 213.503C70.6335 214.147 70.5293 214.909 70.5293 215.788C70.5293 216.68 70.6335 217.448 70.8418 218.093C71.0501 218.737 71.3366 219.229 71.7012 219.567C72.0658 219.906 72.4922 220.072 72.9805 220.065C73.4622 220.072 73.8887 219.906 74.2598 219.567C74.6374 219.229 74.9271 218.737 75.1289 218.093C75.3307 217.448 75.4316 216.68 75.4316 215.788C75.4316 214.909 75.3307 214.147 75.1289 213.503C74.9271 212.852 74.6374 212.357 74.2598 212.019C73.8887 211.68 73.4622 211.511 72.9805 211.511ZM82.9512 225.954H80.8027V208.269H82.9512V225.954ZM81.7402 216.521H76.8281V214.763H81.7402V216.521ZM101.584 223.796H85.4512V222.019H101.584V223.796ZM94.543 222.487H92.4043V218.054H94.543V222.487ZM89.3965 212.331H97.5703V209.44H99.7285V218.571H87.2188V209.44H89.3965V212.331ZM97.5703 216.833V214.06H89.3965V216.833H97.5703ZM107.473 209.558C108.352 209.558 109.136 209.812 109.826 210.319C110.523 210.827 111.066 211.556 111.457 212.507C111.854 213.451 112.056 214.545 112.062 215.788C112.056 217.045 111.854 218.145 111.457 219.089C111.066 220.033 110.523 220.762 109.826 221.276C109.136 221.784 108.352 222.038 107.473 222.038C106.581 222.038 105.786 221.784 105.09 221.276C104.4 220.762 103.859 220.036 103.469 219.099C103.078 218.155 102.883 217.051 102.883 215.788C102.883 214.545 103.078 213.451 103.469 212.507C103.859 211.556 104.4 210.827 105.09 210.319C105.786 209.812 106.581 209.558 107.473 209.558ZM107.473 211.511C106.978 211.511 106.542 211.683 106.164 212.028C105.793 212.367 105.5 212.858 105.285 213.503C105.07 214.141 104.966 214.903 104.973 215.788C104.966 216.68 105.07 217.448 105.285 218.093C105.5 218.737 105.793 219.229 106.164 219.567C106.542 219.906 106.978 220.072 107.473 220.065C107.967 220.072 108.404 219.906 108.781 219.567C109.165 219.229 109.458 218.737 109.66 218.093C109.862 217.448 109.963 216.68 109.963 215.788C109.963 214.903 109.862 214.138 109.66 213.493C109.458 212.849 109.165 212.357 108.781 212.019C108.404 211.68 107.967 211.511 107.473 211.511ZM116.555 225.905H114.387V208.269H116.555V225.905ZM119.279 216.882H116.066V215.056H119.279V216.882ZM125.891 222.351H123.752V217.292H125.891V222.351ZM132.424 222.351H130.236V217.292H132.424V222.351ZM136.154 223.786H120.021V221.999H136.154V223.786ZM128.059 209.216C129.315 209.216 130.441 209.411 131.438 209.802C132.434 210.186 133.215 210.733 133.781 211.442C134.348 212.152 134.631 212.966 134.631 213.884C134.631 214.808 134.348 215.622 133.781 216.325C133.221 217.028 132.44 217.575 131.438 217.966C130.441 218.35 129.315 218.542 128.059 218.542C126.789 218.542 125.656 218.35 124.66 217.966C123.671 217.575 122.893 217.028 122.326 216.325C121.766 215.622 121.486 214.808 121.486 213.884C121.486 212.966 121.766 212.152 122.326 211.442C122.893 210.733 123.671 210.186 124.66 209.802C125.656 209.411 126.789 209.216 128.059 209.216ZM128.059 210.954C127.173 210.948 126.395 211.062 125.725 211.296C125.054 211.53 124.533 211.872 124.162 212.321C123.798 212.764 123.615 213.285 123.615 213.884C123.615 214.483 123.798 215.007 124.162 215.456C124.533 215.899 125.054 216.244 125.725 216.491C126.395 216.732 127.173 216.853 128.059 216.853C128.924 216.853 129.693 216.729 130.363 216.481C131.034 216.234 131.555 215.889 131.926 215.446C132.303 215.004 132.492 214.483 132.492 213.884C132.492 213.285 132.303 212.764 131.926 212.321C131.555 211.872 131.034 211.53 130.363 211.296C129.693 211.062 128.924 210.948 128.059 210.954ZM139.445 224.343C139.165 224.343 138.908 224.274 138.674 224.138C138.446 224.001 138.264 223.815 138.127 223.581C137.99 223.347 137.925 223.093 137.932 222.819C137.925 222.552 137.99 222.305 138.127 222.077C138.264 221.843 138.446 221.66 138.674 221.53C138.908 221.394 139.165 221.325 139.445 221.325C139.712 221.325 139.96 221.394 140.188 221.53C140.422 221.66 140.607 221.843 140.744 222.077C140.881 222.305 140.949 222.552 140.949 222.819C140.949 223.093 140.881 223.347 140.744 223.581C140.607 223.815 140.422 224.001 140.188 224.138C139.96 224.274 139.712 224.343 139.445 224.343Z" fill="#464646"/>
<defs>
<filter id="filter0_bd_626_1225" x="-76" y="-80" width="366" height="730" filterUnits="userSpaceOnUse" color-interpolation-filters="sRGB">
<feFlood flood-opacity="0" result="BackgroundImageFix"/>
<feGaussianBlur in="BackgroundImageFix" stdDeviation="40"/>
<feComposite in2="SourceAlpha" operator="in" result="effect1_backgroundBlur_626_1225"/>
<feColorMatrix in="SourceAlpha" type="matrix" values="0 0 0 0 0 0 0 0 0 0 0 0 0 0 0 0 0 0 127 0" result="hardAlpha"/>
<feOffset dy="3.6"/>
<feGaussianBlur stdDeviation="1.8"/>
<feComposite in2="hardAlpha" operator="out"/>
<feColorMatrix type="matrix" values="0 0 0 0 0 0 0 0 0 0 0 0 0 0 0 0 0 0 0.25 0"/>
<feBlend mode="normal" in2="effect1_backgroundBlur_626_1225" result="effect2_dropShadow_626_1225"/>
<feBlend mode="normal" in="SourceGraphic" in2="effect2_dropShadow_626_1225" result="shape"/>
</filter>
<linearGradient id="paint0_linear_626_1225" x1="107" y1="-42.3775" x2="107" y2="570" gradientUnits="userSpaceOnUse">
<stop stop-color="#D8F5DD"/>
<stop offset="1" stop-color="#D8F5DD" stop-opacity="0"/>
</linearGradient>
</defs>
</svg>