<svg xmlns="http://www.w3.org/2000/svg" width="214" height="461" viewBox="0 0 214 461" fill="none">
<g filter="url(#filter0_bd_839_51)">
<rect x="4" width="206" height="453" rx="103" fill="url(#paint0_linear_839_51)" shape-rendering="crispEdges"/>
</g>
<mask id="path-2-outside-1_839_51" maskUnits="userSpaceOnUse" x="51" y="56" width="111" height="25" fill="black">
<rect fill="white" x="51" y="56" width="111" height="25"/>
<path d="M70.2539 71.0117H54.7148V68.0703H70.2539V71.0117ZM72.3281 77.0938H52.5469V74.1289H72.3281V77.0938ZM64.3242 75.3828H60.5508V69.5117H64.3242V75.3828ZM70.1367 61.9648H58.5352V69.2305H54.7148V58.9766H70.1367V61.9648ZM69.5977 66.4531H57.4453V63.5469H69.5977V66.4531ZM93.0469 72.3594H73.2656V69.3711H93.0469V72.3594ZM91.2305 79.6602H75.6562V76.6953H91.2305V79.6602ZM79.418 77.6094H75.6562V73.2266H79.418V77.6094ZM85.0195 70.7773H81.293V66.4648H85.0195V70.7773ZM90.7617 64.4023H79.3828V66.2422H75.6562V61.7891H86.9883V60.8633H75.6328V57.9922H90.7617V64.4023ZM91.125 68.1758H75.6562V65.375H91.125V68.1758ZM104.016 62.6562H94.9219V59.6797H104.016V62.6562ZM101.074 73.2617H97.3828V65.8906H101.074V73.2617ZM106.289 61.9531C106.281 63.4844 106.246 64.8359 106.184 66.0078C106.121 67.1797 105.969 68.4883 105.727 69.9336L102.059 69.6406C102.27 68.2422 102.402 67.0078 102.457 65.9375C102.512 64.8672 102.547 63.5391 102.562 61.9531V61.7891V59.6797H106.289V61.7891V61.9531ZM111.434 79.3203H107.637V57.6406H111.434V79.3203ZM114.012 69.2422H110.273V66.1367H114.012V69.2422ZM93.8438 72.1836C96.4219 72.1602 98.7617 72.1055 100.863 72.0195C102.965 71.9336 104.953 71.7695 106.828 71.5273L107.062 74.3047C105.094 74.6562 103.035 74.8867 100.887 74.9961C98.7461 75.1055 96.5039 75.1484 94.1602 75.125L93.8438 72.1836ZM139.758 73.3672H119.977V70.3203H139.758V73.3672ZM131.684 79.3203H127.957V71.4688H131.684V79.3203ZM137.754 69.1602H122.332V66.2188H137.754V69.1602ZM137.52 61.3672H126.012V66.8633H122.332V58.4492H137.52V61.3672ZM137.098 65.2344H125.016V62.3867H137.098V65.2344ZM149.016 75.0898H145.242V69.4414H149.016V75.0898ZM155.93 75.1602H152.156V69.4883H155.93V75.1602ZM160.523 77.0938H140.742V74.1172H160.523V77.0938ZM159.023 62.1992H142.137V59.2109H159.023V62.1992ZM158.895 70.6719H142.277V67.6602H158.895V70.6719ZM148.617 68.0586H144.844V61.6953H148.617V68.0586ZM156.234 68.0586H152.531V61.6953H156.234V68.0586Z"/>
</mask>
<path d="M70.2539 71.0117H54.7148V68.0703H70.2539V71.0117ZM72.3281 77.0938H52.5469V74.1289H72.3281V77.0938ZM64.3242 75.3828H60.5508V69.5117H64.3242V75.3828ZM70.1367 61.9648H58.5352V69.2305H54.7148V58.9766H70.1367V61.9648ZM69.5977 66.4531H57.4453V63.5469H69.5977V66.4531ZM93.0469 72.3594H73.2656V69.3711H93.0469V72.3594ZM91.2305 79.6602H75.6562V76.6953H91.2305V79.6602ZM79.418 77.6094H75.6562V73.2266H79.418V77.6094ZM85.0195 70.7773H81.293V66.4648H85.0195V70.7773ZM90.7617 64.4023H79.3828V66.2422H75.6562V61.7891H86.9883V60.8633H75.6328V57.9922H90.7617V64.4023ZM91.125 68.1758H75.6562V65.375H91.125V68.1758ZM104.016 62.6562H94.9219V59.6797H104.016V62.6562ZM101.074 73.2617H97.3828V65.8906H101.074V73.2617ZM106.289 61.9531C106.281 63.4844 106.246 64.8359 106.184 66.0078C106.121 67.1797 105.969 68.4883 105.727 69.9336L102.059 69.6406C102.27 68.2422 102.402 67.0078 102.457 65.9375C102.512 64.8672 102.547 63.5391 102.562 61.9531V61.7891V59.6797H106.289V61.7891V61.9531ZM111.434 79.3203H107.637V57.6406H111.434V79.3203ZM114.012 69.2422H110.273V66.1367H114.012V69.2422ZM93.8438 72.1836C96.4219 72.1602 98.7617 72.1055 100.863 72.0195C102.965 71.9336 104.953 71.7695 106.828 71.5273L107.062 74.3047C105.094 74.6562 103.035 74.8867 100.887 74.9961C98.7461 75.1055 96.5039 75.1484 94.1602 75.125L93.8438 72.1836ZM139.758 73.3672H119.977V70.3203H139.758V73.3672ZM131.684 79.3203H127.957V71.4688H131.684V79.3203ZM137.754 69.1602H122.332V66.2188H137.754V69.1602ZM137.52 61.3672H126.012V66.8633H122.332V58.4492H137.52V61.3672ZM137.098 65.2344H125.016V62.3867H137.098V65.2344ZM149.016 75.0898H145.242V69.4414H149.016V75.0898ZM155.93 75.1602H152.156V69.4883H155.93V75.1602ZM160.523 77.0938H140.742V74.1172H160.523V77.0938ZM159.023 62.1992H142.137V59.2109H159.023V62.1992ZM158.895 70.6719H142.277V67.6602H158.895V70.6719ZM148.617 68.0586H144.844V61.6953H148.617V68.0586ZM156.234 68.0586H152.531V61.6953H156.234V68.0586Z" fill="#F6F6F6"/>
<path d="M70.2539 71.0117V72.0117H71.2539V71.0117H70.2539ZM54.7148 71.0117H53.7148V72.0117H54.7148V71.0117ZM54.7148 68.0703V67.0703H53.7148V68.0703H54.7148ZM70.2539 68.0703H71.2539V67.0703H70.2539V68.0703ZM72.3281 77.0938V78.0938H73.3281V77.0938H72.3281ZM52.5469 77.0938H51.5469V78.0938H52.5469V77.0938ZM52.5469 74.1289V73.1289H51.5469V74.1289H52.5469ZM72.3281 74.1289H73.3281V73.1289H72.3281V74.1289ZM64.3242 75.3828V76.3828H65.3242V75.3828H64.3242ZM60.5508 75.3828H59.5508V76.3828H60.5508V75.3828ZM60.5508 69.5117V68.5117H59.5508V69.5117H60.5508ZM64.3242 69.5117H65.3242V68.5117H64.3242V69.5117ZM70.1367 61.9648V62.9648H71.1367V61.9648H70.1367ZM58.5352 61.9648V60.9648H57.5352V61.9648H58.5352ZM58.5352 69.2305V70.2305H59.5352V69.2305H58.5352ZM54.7148 69.2305H53.7148V70.2305H54.7148V69.2305ZM54.7148 58.9766V57.9766H53.7148V58.9766H54.7148ZM70.1367 58.9766H71.1367V57.9766H70.1367V58.9766ZM69.5977 66.4531V67.4531H70.5977V66.4531H69.5977ZM57.4453 66.4531H56.4453V67.4531H57.4453V66.4531ZM57.4453 63.5469V62.5469H56.4453V63.5469H57.4453ZM69.5977 63.5469H70.5977V62.5469H69.5977V63.5469ZM70.2539 70.0117H54.7148V72.0117H70.2539V70.0117ZM55.7148 71.0117V68.0703H53.7148V71.0117H55.7148ZM54.7148 69.0703H70.2539V67.0703H54.7148V69.0703ZM69.2539 68.0703V71.0117H71.2539V68.0703H69.2539ZM72.3281 76.0938H52.5469V78.0938H72.3281V76.0938ZM53.5469 77.0938V74.1289H51.5469V77.0938H53.5469ZM52.5469 75.1289H72.3281V73.1289H52.5469V75.1289ZM71.3281 74.1289V77.0938H73.3281V74.1289H71.3281ZM64.3242 74.3828H60.5508V76.3828H64.3242V74.3828ZM61.5508 75.3828V69.5117H59.5508V75.3828H61.5508ZM60.5508 70.5117H64.3242V68.5117H60.5508V70.5117ZM63.3242 69.5117V75.3828H65.3242V69.5117H63.3242ZM70.1367 60.9648H58.5352V62.9648H70.1367V60.9648ZM57.5352 61.9648V69.2305H59.5352V61.9648H57.5352ZM58.5352 68.2305H54.7148V70.2305H58.5352V68.2305ZM55.7148 69.2305V58.9766H53.7148V69.2305H55.7148ZM54.7148 59.9766H70.1367V57.9766H54.7148V59.9766ZM69.1367 58.9766V61.9648H71.1367V58.9766H69.1367ZM69.5977 65.4531H57.4453V67.4531H69.5977V65.4531ZM58.4453 66.4531V63.5469H56.4453V66.4531H58.4453ZM57.4453 64.5469H69.5977V62.5469H57.4453V64.5469ZM68.5977 63.5469V66.4531H70.5977V63.5469H68.5977ZM93.0469 72.3594V73.3594H94.0469V72.3594H93.0469ZM73.2656 72.3594H72.2656V73.3594H73.2656V72.3594ZM73.2656 69.3711V68.3711H72.2656V69.3711H73.2656ZM93.0469 69.3711H94.0469V68.3711H93.0469V69.3711ZM91.2305 79.6602V80.6602H92.2305V79.6602H91.2305ZM75.6562 79.6602H74.6562V80.6602H75.6562V79.6602ZM75.6562 76.6953V75.6953H74.6562V76.6953H75.6562ZM91.2305 76.6953H92.2305V75.6953H91.2305V76.6953ZM79.418 77.6094V78.6094H80.418V77.6094H79.418ZM75.6562 77.6094H74.6562V78.6094H75.6562V77.6094ZM75.6562 73.2266V72.2266H74.6562V73.2266H75.6562ZM79.418 73.2266H80.418V72.2266H79.418V73.2266ZM85.0195 70.7773V71.7773H86.0195V70.7773H85.0195ZM81.293 70.7773H80.293V71.7773H81.293V70.7773ZM81.293 66.4648V65.4648H80.293V66.4648H81.293ZM85.0195 66.4648H86.0195V65.4648H85.0195V66.4648ZM90.7617 64.4023V65.4023H91.7617V64.4023H90.7617ZM79.3828 64.4023V63.4023H78.3828V64.4023H79.3828ZM79.3828 66.2422V67.2422H80.3828V66.2422H79.3828ZM75.6562 66.2422H74.6562V67.2422H75.6562V66.2422ZM75.6562 61.7891V60.7891H74.6562V61.7891H75.6562ZM86.9883 61.7891V62.7891H87.9883V61.7891H86.9883ZM86.9883 60.8633H87.9883V59.8633H86.9883V60.8633ZM75.6328 60.8633H74.6328V61.8633H75.6328V60.8633ZM75.6328 57.9922V56.9922H74.6328V57.9922H75.6328ZM90.7617 57.9922H91.7617V56.9922H90.7617V57.9922ZM91.125 68.1758V69.1758H92.125V68.1758H91.125ZM75.6562 68.1758H74.6562V69.1758H75.6562V68.1758ZM75.6562 65.375V64.375H74.6562V65.375H75.6562ZM91.125 65.375H92.125V64.375H91.125V65.375ZM93.0469 71.3594H73.2656V73.3594H93.0469V71.3594ZM74.2656 72.3594V69.3711H72.2656V72.3594H74.2656ZM73.2656 70.3711H93.0469V68.3711H73.2656V70.3711ZM92.0469 69.3711V72.3594H94.0469V69.3711H92.0469ZM91.2305 78.6602H75.6562V80.6602H91.2305V78.6602ZM76.6562 79.6602V76.6953H74.6562V79.6602H76.6562ZM75.6562 77.6953H91.2305V75.6953H75.6562V77.6953ZM90.2305 76.6953V79.6602H92.2305V76.6953H90.2305ZM79.418 76.6094H75.6562V78.6094H79.418V76.6094ZM76.6562 77.6094V73.2266H74.6562V77.6094H76.6562ZM75.6562 74.2266H79.418V72.2266H75.6562V74.2266ZM78.418 73.2266V77.6094H80.418V73.2266H78.418ZM85.0195 69.7773H81.293V71.7773H85.0195V69.7773ZM82.293 70.7773V66.4648H80.293V70.7773H82.293ZM81.293 67.4648H85.0195V65.4648H81.293V67.4648ZM84.0195 66.4648V70.7773H86.0195V66.4648H84.0195ZM90.7617 63.4023H79.3828V65.4023H90.7617V63.4023ZM78.3828 64.4023V66.2422H80.3828V64.4023H78.3828ZM79.3828 65.2422H75.6562V67.2422H79.3828V65.2422ZM76.6562 66.2422V61.7891H74.6562V66.2422H76.6562ZM75.6562 62.7891H86.9883V60.7891H75.6562V62.7891ZM87.9883 61.7891V60.8633H85.9883V61.7891H87.9883ZM86.9883 59.8633H75.6328V61.8633H86.9883V59.8633ZM76.6328 60.8633V57.9922H74.6328V60.8633H76.6328ZM75.6328 58.9922H90.7617V56.9922H75.6328V58.9922ZM89.7617 57.9922V64.4023H91.7617V57.9922H89.7617ZM91.125 67.1758H75.6562V69.1758H91.125V67.1758ZM76.6562 68.1758V65.375H74.6562V68.1758H76.6562ZM75.6562 66.375H91.125V64.375H75.6562V66.375ZM90.125 65.375V68.1758H92.125V65.375H90.125ZM104.016 62.6562V63.6562H105.016V62.6562H104.016ZM94.9219 62.6562H93.9219V63.6562H94.9219V62.6562ZM94.9219 59.6797V58.6797H93.9219V59.6797H94.9219ZM104.016 59.6797H105.016V58.6797H104.016V59.6797ZM101.074 73.2617V74.2617H102.074V73.2617H101.074ZM97.3828 73.2617H96.3828V74.2617H97.3828V73.2617ZM97.3828 65.8906V64.8906H96.3828V65.8906H97.3828ZM101.074 65.8906H102.074V64.8906H101.074V65.8906ZM106.289 61.9531L107.289 61.9582V61.9531H106.289ZM105.727 69.9336L105.647 70.9304L106.561 71.0034L106.713 70.0989L105.727 69.9336ZM102.059 69.6406L101.07 69.4915L100.91 70.5521L101.979 70.6375L102.059 69.6406ZM102.562 61.9531L103.562 61.963V61.9531H102.562ZM102.562 59.6797V58.6797H101.562V59.6797H102.562ZM106.289 59.6797H107.289V58.6797H106.289V59.6797ZM111.434 79.3203V80.3203H112.434V79.3203H111.434ZM107.637 79.3203H106.637V80.3203H107.637V79.3203ZM107.637 57.6406V56.6406H106.637V57.6406H107.637ZM111.434 57.6406H112.434V56.6406H111.434V57.6406ZM114.012 69.2422V70.2422H115.012V69.2422H114.012ZM110.273 69.2422H109.273V70.2422H110.273V69.2422ZM110.273 66.1367V65.1367H109.273V66.1367H110.273ZM114.012 66.1367H115.012V65.1367H114.012V66.1367ZM93.8438 72.1836L93.8347 71.1836L92.7315 71.1937L92.8495 72.2905L93.8438 72.1836ZM106.828 71.5273L107.825 71.4433L107.737 70.4017L106.7 70.5356L106.828 71.5273ZM107.062 74.3047L107.238 75.2891L108.136 75.1289L108.059 74.2206L107.062 74.3047ZM100.887 74.9961L100.836 73.9974L100.836 73.9974L100.887 74.9961ZM94.1602 75.125L93.1659 75.232L93.261 76.1161L94.1502 76.125L94.1602 75.125ZM104.016 61.6562H94.9219V63.6562H104.016V61.6562ZM95.9219 62.6562V59.6797H93.9219V62.6562H95.9219ZM94.9219 60.6797H104.016V58.6797H94.9219V60.6797ZM103.016 59.6797V62.6562H105.016V59.6797H103.016ZM101.074 72.2617H97.3828V74.2617H101.074V72.2617ZM98.3828 73.2617V65.8906H96.3828V73.2617H98.3828ZM97.3828 66.8906H101.074V64.8906H97.3828V66.8906ZM100.074 65.8906V73.2617H102.074V65.8906H100.074ZM105.289 61.948C105.281 63.4677 105.246 64.8027 105.185 65.9546L107.182 66.0611C107.246 64.8692 107.281 63.501 107.289 61.9582L105.289 61.948ZM105.185 65.9546C105.125 67.081 104.978 68.3514 104.74 69.7683L106.713 70.0989C106.96 68.6251 107.117 67.2783 107.182 66.0611L105.185 65.9546ZM105.806 68.9368L102.138 68.6438L101.979 70.6375L105.647 70.9304L105.806 68.9368ZM103.047 69.7898C103.262 68.3684 103.399 67.1001 103.456 65.9885L101.458 65.8865C101.406 66.9155 101.277 68.116 101.07 69.4915L103.047 69.7898ZM103.456 65.9885C103.511 64.8997 103.547 63.5568 103.562 61.963L101.563 61.9433C101.547 63.5213 101.512 64.8347 101.458 65.8865L103.456 65.9885ZM103.562 61.9531V61.7891H101.562V61.9531H103.562ZM103.562 61.7891V59.6797H101.562V61.7891H103.562ZM102.562 60.6797H106.289V58.6797H102.562V60.6797ZM105.289 59.6797V61.7891H107.289V59.6797H105.289ZM105.289 61.7891V61.9531H107.289V61.7891H105.289ZM111.434 78.3203H107.637V80.3203H111.434V78.3203ZM108.637 79.3203V57.6406H106.637V79.3203H108.637ZM107.637 58.6406H111.434V56.6406H107.637V58.6406ZM110.434 57.6406V79.3203H112.434V57.6406H110.434ZM114.012 68.2422H110.273V70.2422H114.012V68.2422ZM111.273 69.2422V66.1367H109.273V69.2422H111.273ZM110.273 67.1367H114.012V65.1367H110.273V67.1367ZM113.012 66.1367V69.2422H115.012V66.1367H113.012ZM93.8528 73.1836C96.4393 73.16 98.79 73.1052 100.904 73.0187L100.822 71.0204C98.7335 71.1058 96.4044 71.1603 93.8347 71.1836L93.8528 73.1836ZM100.904 73.0187C103.032 72.9317 105.049 72.7654 106.956 72.5191L106.7 70.5356C104.857 70.7736 102.898 70.9355 100.822 71.0204L100.904 73.0187ZM105.832 71.6114L106.066 74.3888L108.059 74.2206L107.825 71.4433L105.832 71.6114ZM106.887 73.3203C104.962 73.6639 102.946 73.89 100.836 73.9974L100.938 75.9948C103.125 75.8835 105.225 75.6486 107.238 75.2891L106.887 73.3203ZM100.836 73.9974C98.7172 74.1056 96.4954 74.1483 94.1702 74.125L94.1502 76.125C96.5124 76.1486 98.775 76.1053 100.938 75.9948L100.836 73.9974ZM95.1544 75.018L94.838 72.0766L92.8495 72.2905L93.1659 75.232L95.1544 75.018ZM139.758 73.3672V74.3672H140.758V73.3672H139.758ZM119.977 73.3672H118.977V74.3672H119.977V73.3672ZM119.977 70.3203V69.3203H118.977V70.3203H119.977ZM139.758 70.3203H140.758V69.3203H139.758V70.3203ZM131.684 79.3203V80.3203H132.684V79.3203H131.684ZM127.957 79.3203H126.957V80.3203H127.957V79.3203ZM127.957 71.4688V70.4688H126.957V71.4688H127.957ZM131.684 71.4688H132.684V70.4688H131.684V71.4688ZM137.754 69.1602V70.1602H138.754V69.1602H137.754ZM122.332 69.1602H121.332V70.1602H122.332V69.1602ZM122.332 66.2188V65.2188H121.332V66.2188H122.332ZM137.754 66.2188H138.754V65.2188H137.754V66.2188ZM137.52 61.3672V62.3672H138.52V61.3672H137.52ZM126.012 61.3672V60.3672H125.012V61.3672H126.012ZM126.012 66.8633V67.8633H127.012V66.8633H126.012ZM122.332 66.8633H121.332V67.8633H122.332V66.8633ZM122.332 58.4492V57.4492H121.332V58.4492H122.332ZM137.52 58.4492H138.52V57.4492H137.52V58.4492ZM137.098 65.2344V66.2344H138.098V65.2344H137.098ZM125.016 65.2344H124.016V66.2344H125.016V65.2344ZM125.016 62.3867V61.3867H124.016V62.3867H125.016ZM137.098 62.3867H138.098V61.3867H137.098V62.3867ZM139.758 72.3672H119.977V74.3672H139.758V72.3672ZM120.977 73.3672V70.3203H118.977V73.3672H120.977ZM119.977 71.3203H139.758V69.3203H119.977V71.3203ZM138.758 70.3203V73.3672H140.758V70.3203H138.758ZM131.684 78.3203H127.957V80.3203H131.684V78.3203ZM128.957 79.3203V71.4688H126.957V79.3203H128.957ZM127.957 72.4688H131.684V70.4688H127.957V72.4688ZM130.684 71.4688V79.3203H132.684V71.4688H130.684ZM137.754 68.1602H122.332V70.1602H137.754V68.1602ZM123.332 69.1602V66.2188H121.332V69.1602H123.332ZM122.332 67.2188H137.754V65.2188H122.332V67.2188ZM136.754 66.2188V69.1602H138.754V66.2188H136.754ZM137.52 60.3672H126.012V62.3672H137.52V60.3672ZM125.012 61.3672V66.8633H127.012V61.3672H125.012ZM126.012 65.8633H122.332V67.8633H126.012V65.8633ZM123.332 66.8633V58.4492H121.332V66.8633H123.332ZM122.332 59.4492H137.52V57.4492H122.332V59.4492ZM136.52 58.4492V61.3672H138.52V58.4492H136.52ZM137.098 64.2344H125.016V66.2344H137.098V64.2344ZM126.016 65.2344V62.3867H124.016V65.2344H126.016ZM125.016 63.3867H137.098V61.3867H125.016V63.3867ZM136.098 62.3867V65.2344H138.098V62.3867H136.098ZM149.016 75.0898V76.0898H150.016V75.0898H149.016ZM145.242 75.0898H144.242V76.0898H145.242V75.0898ZM145.242 69.4414V68.4414H144.242V69.4414H145.242ZM149.016 69.4414H150.016V68.4414H149.016V69.4414ZM155.93 75.1602V76.1602H156.93V75.1602H155.93ZM152.156 75.1602H151.156V76.1602H152.156V75.1602ZM152.156 69.4883V68.4883H151.156V69.4883H152.156ZM155.93 69.4883H156.93V68.4883H155.93V69.4883ZM160.523 77.0938V78.0938H161.523V77.0938H160.523ZM140.742 77.0938H139.742V78.0938H140.742V77.0938ZM140.742 74.1172V73.1172H139.742V74.1172H140.742ZM160.523 74.1172H161.523V73.1172H160.523V74.1172ZM159.023 62.1992V63.1992H160.023V62.1992H159.023ZM142.137 62.1992H141.137V63.1992H142.137V62.1992ZM142.137 59.2109V58.2109H141.137V59.2109H142.137ZM159.023 59.2109H160.023V58.2109H159.023V59.2109ZM158.895 70.6719V71.6719H159.895V70.6719H158.895ZM142.277 70.6719H141.277V71.6719H142.277V70.6719ZM142.277 67.6602V66.6602H141.277V67.6602H142.277ZM158.895 67.6602H159.895V66.6602H158.895V67.6602ZM148.617 68.0586V69.0586H149.617V68.0586H148.617ZM144.844 68.0586H143.844V69.0586H144.844V68.0586ZM144.844 61.6953V60.6953H143.844V61.6953H144.844ZM148.617 61.6953H149.617V60.6953H148.617V61.6953ZM156.234 68.0586V69.0586H157.234V68.0586H156.234ZM152.531 68.0586H151.531V69.0586H152.531V68.0586ZM152.531 61.6953V60.6953H151.531V61.6953H152.531ZM156.234 61.6953H157.234V60.6953H156.234V61.6953ZM149.016 74.0898H145.242V76.0898H149.016V74.0898ZM146.242 75.0898V69.4414H144.242V75.0898H146.242ZM145.242 70.4414H149.016V68.4414H145.242V70.4414ZM148.016 69.4414V75.0898H150.016V69.4414H148.016ZM155.93 74.1602H152.156V76.1602H155.93V74.1602ZM153.156 75.1602V69.4883H151.156V75.1602H153.156ZM152.156 70.4883H155.93V68.4883H152.156V70.4883ZM154.93 69.4883V75.1602H156.93V69.4883H154.93ZM160.523 76.0938H140.742V78.0938H160.523V76.0938ZM141.742 77.0938V74.1172H139.742V77.0938H141.742ZM140.742 75.1172H160.523V73.1172H140.742V75.1172ZM159.523 74.1172V77.0938H161.523V74.1172H159.523ZM159.023 61.1992H142.137V63.1992H159.023V61.1992ZM143.137 62.1992V59.2109H141.137V62.1992H143.137ZM142.137 60.2109H159.023V58.2109H142.137V60.2109ZM158.023 59.2109V62.1992H160.023V59.2109H158.023ZM158.895 69.6719H142.277V71.6719H158.895V69.6719ZM143.277 70.6719V67.6602H141.277V70.6719H143.277ZM142.277 68.6602H158.895V66.6602H142.277V68.6602ZM157.895 67.6602V70.6719H159.895V67.6602H157.895ZM148.617 67.0586H144.844V69.0586H148.617V67.0586ZM145.844 68.0586V61.6953H143.844V68.0586H145.844ZM144.844 62.6953H148.617V60.6953H144.844V62.6953ZM147.617 61.6953V68.0586H149.617V61.6953H147.617ZM156.234 67.0586H152.531V69.0586H156.234V67.0586ZM153.531 68.0586V61.6953H151.531V68.0586H153.531ZM152.531 62.6953H156.234V60.6953H152.531V62.6953ZM155.234 61.6953V68.0586H157.234V61.6953H155.234Z" fill="black" mask="url(#path-2-outside-1_839_51)"/>
<path d="M35.1055 137.812H39.9492V135.117H41.4531V143.066H33.582V135.117H35.1055V137.812ZM39.9492 141.816V139.023H35.1055V141.816H39.9492ZM46.0234 139.785H41.0234V138.496H46.0234V139.785ZM47.0977 143.711H45.5547V134.219H47.0977V143.711ZM37.4492 146.68H45.5547V144.551H47.0781V151.348H35.9062V144.551H37.4492V146.68ZM45.5547 150.078V147.91H37.4492V150.078H45.5547ZM63.5625 147.031H62.0391V134.219H63.5625V147.031ZM66.1797 140.801H63.0742V139.512H66.1797V140.801ZM64.3633 151.211H52.7031V149.922H64.3633V151.211ZM54.207 150.43H52.7031V145.703H54.207V150.43ZM54.8711 135.449C55.7305 135.449 56.5085 135.632 57.2051 135.996C57.9017 136.361 58.4453 136.868 58.8359 137.52C59.2331 138.164 59.4349 138.9 59.4414 139.727C59.4349 140.553 59.2331 141.292 58.8359 141.943C58.4453 142.588 57.9017 143.092 57.2051 143.457C56.5085 143.822 55.7305 144.004 54.8711 144.004C54.0182 144.004 53.2435 143.822 52.5469 143.457C51.8568 143.092 51.3132 142.585 50.916 141.934C50.5189 141.283 50.3203 140.547 50.3203 139.727C50.3203 138.9 50.5189 138.164 50.916 137.52C51.3132 136.868 51.8568 136.361 52.5469 135.996C53.237 135.632 54.0117 135.449 54.8711 135.449ZM54.8711 136.797C54.3047 136.797 53.7871 136.921 53.3184 137.168C52.8561 137.415 52.4915 137.764 52.2246 138.213C51.9577 138.662 51.8242 139.167 51.8242 139.727C51.8242 140.286 51.9577 140.788 52.2246 141.23C52.4915 141.673 52.8561 142.021 53.3184 142.275C53.7871 142.529 54.3047 142.656 54.8711 142.656C55.4505 142.656 55.9714 142.529 56.4336 142.275C56.9023 142.021 57.2702 141.673 57.5371 141.23C57.804 140.788 57.9375 140.286 57.9375 139.727C57.9375 139.16 57.804 138.656 57.5371 138.213C57.2702 137.764 56.9023 137.415 56.4336 137.168C55.9714 136.921 55.4505 136.797 54.8711 136.797ZM77.7227 142.266H74.3828V140.996H77.7227V142.266ZM82.1562 151.582H80.6719V134.219H82.1562V151.582ZM78.6602 150.703H77.1953V134.59H78.6602V150.703ZM71.2188 135.684C71.9674 135.684 72.6217 135.931 73.1816 136.426C73.748 136.921 74.1875 137.624 74.5 138.535C74.8125 139.44 74.9688 140.501 74.9688 141.719C74.9688 142.936 74.8125 144.001 74.5 144.912C74.1875 145.817 73.748 146.517 73.1816 147.012C72.6217 147.507 71.9674 147.754 71.2188 147.754C70.4701 147.754 69.8158 147.507 69.2559 147.012C68.7025 146.517 68.2695 145.817 67.957 144.912C67.6445 144.001 67.4883 142.936 67.4883 141.719C67.4883 140.501 67.6445 139.44 67.957 138.535C68.2695 137.624 68.7025 136.921 69.2559 136.426C69.8158 135.931 70.4701 135.684 71.2188 135.684ZM71.2188 137.129C70.75 137.129 70.3431 137.314 69.998 137.686C69.653 138.057 69.3861 138.59 69.1973 139.287C69.015 139.977 68.9271 140.788 68.9336 141.719C68.9271 142.65 69.015 143.46 69.1973 144.15C69.3861 144.834 69.653 145.365 69.998 145.742C70.3496 146.113 70.7565 146.296 71.2188 146.289C71.6875 146.296 72.0977 146.113 72.4492 145.742C72.8008 145.365 73.0677 144.834 73.25 144.15C73.4323 143.46 73.5234 142.65 73.5234 141.719C73.5234 140.788 73.4323 139.977 73.25 139.287C73.0677 138.59 72.8008 138.057 72.4492 137.686C72.0977 137.314 71.6875 137.129 71.2188 137.129ZM104.422 151.582H102.957V134.219H104.422V151.582ZM103.348 142.48H99.9492V141.211H103.348V142.48ZM100.398 150.684H98.9922V134.609H100.398V150.684ZM91.3359 145.977C92.7487 145.977 93.9238 145.944 94.8613 145.879C95.8053 145.814 96.7591 145.684 97.7227 145.488L97.8594 146.777C96.8828 146.979 95.9193 147.113 94.9688 147.178C94.0182 147.243 92.8073 147.279 91.3359 147.285H90.2227V145.977H91.3359ZM96.7266 137.617H91.7461V146.582H90.2227V136.348H96.7266V137.617ZM115.535 138.477H106.824V137.227H115.535V138.477ZM111.18 139.648C111.902 139.648 112.547 139.818 113.113 140.156C113.686 140.495 114.132 140.964 114.451 141.562C114.777 142.155 114.943 142.832 114.949 143.594C114.943 144.362 114.777 145.046 114.451 145.645C114.132 146.243 113.686 146.715 113.113 147.061C112.547 147.406 111.902 147.578 111.18 147.578C110.47 147.578 109.829 147.406 109.256 147.061C108.689 146.715 108.247 146.243 107.928 145.645C107.609 145.046 107.449 144.362 107.449 143.594C107.449 142.839 107.612 142.161 107.938 141.562C108.263 140.964 108.706 140.495 109.266 140.156C109.832 139.818 110.47 139.648 111.18 139.648ZM111.18 140.938C110.724 140.944 110.317 141.064 109.959 141.299C109.601 141.527 109.321 141.842 109.119 142.246C108.917 142.643 108.816 143.092 108.816 143.594C108.816 144.102 108.917 144.554 109.119 144.951C109.321 145.348 109.601 145.661 109.959 145.889C110.317 146.117 110.724 146.23 111.18 146.23C111.635 146.23 112.046 146.117 112.41 145.889C112.775 145.661 113.061 145.348 113.27 144.951C113.478 144.554 113.582 144.102 113.582 143.594C113.582 143.092 113.478 142.643 113.27 142.246C113.061 141.842 112.775 141.527 112.41 141.299C112.046 141.064 111.635 140.944 111.18 140.938ZM121.648 151.582H120.184V134.219H121.648V151.582ZM120.672 142.812H117.352V141.543H120.672V142.812ZM117.879 150.723H116.434V134.648H117.879V150.723ZM111.961 137.988H110.438V134.746H111.961V137.988ZM134.852 135.488C135.75 135.488 136.554 135.661 137.264 136.006C137.973 136.351 138.527 136.833 138.924 137.451C139.321 138.07 139.52 138.776 139.52 139.57C139.52 140.365 139.321 141.071 138.924 141.689C138.527 142.308 137.973 142.79 137.264 143.135C136.554 143.48 135.75 143.652 134.852 143.652C133.947 143.652 133.136 143.48 132.42 143.135C131.71 142.79 131.157 142.308 130.76 141.689C130.363 141.071 130.164 140.365 130.164 139.57C130.164 138.776 130.363 138.07 130.76 137.451C131.157 136.833 131.71 136.351 132.42 136.006C133.136 135.661 133.947 135.488 134.852 135.488ZM134.852 136.836C134.24 136.836 133.693 136.95 133.211 137.178C132.729 137.406 132.352 137.731 132.078 138.154C131.805 138.571 131.668 139.043 131.668 139.57C131.668 140.104 131.805 140.576 132.078 140.986C132.352 141.396 132.729 141.719 133.211 141.953C133.693 142.188 134.24 142.305 134.852 142.305C135.457 142.305 136.001 142.188 136.482 141.953C136.971 141.719 137.348 141.396 137.615 140.986C137.882 140.576 138.016 140.104 138.016 139.57C138.016 139.043 137.882 138.571 137.615 138.154C137.348 137.731 136.971 137.406 136.482 137.178C136.001 136.95 135.457 136.836 134.852 136.836ZM143.406 151.621H141.883V134.219H143.406V151.621ZM129.266 146.484C131.434 146.491 133.462 146.458 135.35 146.387C137.238 146.315 139.031 146.152 140.73 145.898L140.848 147.031C139.624 147.259 138.351 147.428 137.029 147.539C135.708 147.643 134.471 147.712 133.318 147.744C132.173 147.777 130.893 147.793 129.48 147.793L129.266 146.484ZM160.848 147.188H159.305V134.238H160.848V147.188ZM155.613 135.586C155.607 137.051 155.268 138.405 154.598 139.648C153.934 140.885 152.986 141.963 151.756 142.881C150.525 143.799 149.083 144.525 147.43 145.059L146.746 143.828C148.204 143.346 149.477 142.728 150.564 141.973C151.652 141.217 152.492 140.352 153.084 139.375C153.676 138.392 153.973 137.337 153.973 136.211V135.586H155.613ZM154.91 136.855H147.605V135.586H154.91V136.855ZM159.539 139.082H154.812V137.832H159.539V139.082ZM159.48 142.988H154.637V141.719H159.48V142.988ZM161.297 151.211H149.793V149.922H161.297V151.211ZM151.355 150.684H149.793V145.898H151.355V150.684ZM171.648 134.531C172.931 134.531 174.031 134.645 174.949 134.873C175.874 135.101 176.577 135.439 177.059 135.889C177.54 136.338 177.781 136.882 177.781 137.52C177.781 138.171 177.54 138.724 177.059 139.18C176.577 139.635 175.877 139.98 174.959 140.215C174.041 140.443 172.938 140.56 171.648 140.566C170.353 140.56 169.246 140.443 168.328 140.215C167.417 139.98 166.717 139.635 166.229 139.18C165.74 138.724 165.496 138.171 165.496 137.52C165.496 136.882 165.74 136.338 166.229 135.889C166.717 135.439 167.42 135.101 168.338 134.873C169.256 134.645 170.359 134.531 171.648 134.531ZM171.648 135.684C170.691 135.684 169.871 135.758 169.188 135.908C168.51 136.058 167.99 136.27 167.625 136.543C167.267 136.816 167.091 137.142 167.098 137.52C167.091 137.917 167.267 138.258 167.625 138.545C167.99 138.825 168.51 139.036 169.188 139.18C169.871 139.323 170.691 139.395 171.648 139.395C172.605 139.395 173.426 139.323 174.109 139.18C174.799 139.036 175.324 138.825 175.682 138.545C176.04 138.265 176.219 137.923 176.219 137.52C176.219 137.142 176.04 136.816 175.682 136.543C175.324 136.27 174.799 136.058 174.109 135.908C173.419 135.758 172.599 135.684 171.648 135.684ZM179.559 142.988H163.738V141.738H179.559V142.988ZM177.527 148.379H167.215V150.488H165.691V147.246H176.023V145.664H165.652V144.492H177.527V148.379ZM178.055 151.387H165.691V150.176H178.055V151.387ZM48.9531 166.441H45.75V165.152H48.9531V166.441ZM46.1406 175.582H44.6172V158.219H46.1406V175.582ZM34.9492 170.68H33.4258V159.938H34.9492V170.68ZM34.8125 169.879C36.1862 169.885 37.5371 169.827 38.8652 169.703C40.1934 169.579 41.5508 169.371 42.9375 169.078L43.1328 170.387C41.7201 170.673 40.3366 170.875 38.9824 170.992C37.6283 171.109 36.2383 171.168 34.8125 171.168H33.4258V169.879H34.8125ZM64.0117 165.348H52.0391V164.078H64.0117V165.348ZM65.8867 169.254H49.9883V167.965H65.8867V169.254ZM58.6211 175.582H57.0977V168.648H58.6211V175.582ZM53.5625 164.723H52.0391V159.117H53.5625V164.723ZM80.2422 161.246H68.9531V159.977H80.2422V161.246ZM83.0938 173.121H67.2734V171.852H83.0938V173.121ZM74.9883 172.516H73.4844V165.641H74.9883V172.516ZM81.1992 161.93C81.1862 163.368 81.1406 164.654 81.0625 165.787C80.9909 166.92 80.8216 168.232 80.5547 169.723L78.9922 169.547C79.194 168.544 79.3405 167.594 79.4316 166.695C79.5293 165.797 79.5879 165.016 79.6074 164.352C79.6335 163.681 79.6497 162.841 79.6562 161.832V161.715V159.977H81.1992V161.715V161.93ZM103.641 168.512H91.6289V167.262H103.641V168.512ZM105.477 173.414H89.5781V172.145H105.477V173.414ZM98.25 172.73H96.7266V167.906H98.25V172.73ZM103.445 160.914H93.1914V167.75H91.6289V159.645H103.445V160.914ZM103.074 164.645H92.7031V163.395H103.074V164.645ZM122.742 169.41H106.844V168.141H122.742V169.41ZM121.062 175.406H108.953V174.137H121.062V175.406ZM110.496 174.508H108.953V170.582H110.496V174.508ZM115.535 168.707H114.031V165.641H115.535V168.707ZM120.691 163.082H110.438V165.445H108.914V161.949H119.148V160.016H108.855V158.785H120.691V163.082ZM121.062 166.227H108.914V165.016H121.062V166.227ZM132.82 162.477H124.109V161.227H132.82V162.477ZM128.465 163.648C129.188 163.648 129.832 163.818 130.398 164.156C130.971 164.495 131.417 164.964 131.736 165.562C132.062 166.155 132.228 166.832 132.234 167.594C132.228 168.362 132.062 169.046 131.736 169.645C131.417 170.243 130.971 170.715 130.398 171.061C129.832 171.406 129.188 171.578 128.465 171.578C127.755 171.578 127.114 171.406 126.541 171.061C125.975 170.715 125.532 170.243 125.213 169.645C124.894 169.046 124.734 168.362 124.734 167.594C124.734 166.839 124.897 166.161 125.223 165.562C125.548 164.964 125.991 164.495 126.551 164.156C127.117 163.818 127.755 163.648 128.465 163.648ZM128.465 164.938C128.009 164.944 127.602 165.064 127.244 165.299C126.886 165.527 126.606 165.842 126.404 166.246C126.202 166.643 126.102 167.092 126.102 167.594C126.102 168.102 126.202 168.554 126.404 168.951C126.606 169.348 126.886 169.661 127.244 169.889C127.602 170.117 128.009 170.23 128.465 170.23C128.921 170.23 129.331 170.117 129.695 169.889C130.06 169.661 130.346 169.348 130.555 168.951C130.763 168.554 130.867 168.102 130.867 167.594C130.867 167.092 130.763 166.643 130.555 166.246C130.346 165.842 130.06 165.527 129.695 165.299C129.331 165.064 128.921 164.944 128.465 164.938ZM138.934 175.582H137.469V158.219H138.934V175.582ZM137.957 166.812H134.637V165.543H137.957V166.812ZM135.164 174.723H133.719V158.648H135.164V174.723ZM129.246 161.988H127.723V158.746H129.246V161.988ZM146.883 172.379H145.379V167.184H146.883V172.379ZM153.387 172.379H151.844V167.184H153.387V172.379ZM157.332 173.355H141.434V172.066H157.332V173.355ZM149.344 159.312C150.574 159.319 151.668 159.508 152.625 159.879C153.589 160.243 154.34 160.768 154.881 161.451C155.421 162.128 155.691 162.906 155.691 163.785C155.691 164.671 155.421 165.449 154.881 166.119C154.34 166.79 153.589 167.311 152.625 167.682C151.668 168.053 150.574 168.238 149.344 168.238C148.113 168.238 147.016 168.053 146.053 167.682C145.096 167.311 144.347 166.79 143.807 166.119C143.266 165.449 142.996 164.671 142.996 163.785C142.996 162.906 143.266 162.128 143.807 161.451C144.347 160.768 145.096 160.243 146.053 159.879C147.016 159.508 148.113 159.319 149.344 159.312ZM149.344 160.582C148.4 160.576 147.557 160.706 146.814 160.973C146.079 161.233 145.506 161.607 145.096 162.096C144.686 162.584 144.48 163.147 144.48 163.785C144.48 164.423 144.686 164.986 145.096 165.475C145.506 165.963 146.079 166.344 146.814 166.617C147.557 166.891 148.4 167.027 149.344 167.027C150.281 167.027 151.118 166.891 151.854 166.617C152.589 166.344 153.165 165.963 153.582 165.475C153.999 164.986 154.207 164.423 154.207 163.785C154.207 163.147 153.999 162.584 153.582 162.096C153.165 161.607 152.589 161.233 151.854 160.973C151.118 160.706 150.281 160.576 149.344 160.582ZM160.555 174.117C160.327 174.117 160.115 174.059 159.92 173.941C159.731 173.824 159.578 173.671 159.461 173.482C159.35 173.287 159.298 173.076 159.305 172.848C159.298 172.626 159.35 172.418 159.461 172.223C159.578 172.027 159.731 171.874 159.92 171.764C160.115 171.653 160.327 171.598 160.555 171.598C160.783 171.598 160.991 171.653 161.18 171.764C161.375 171.874 161.528 172.027 161.639 172.223C161.749 172.418 161.805 172.626 161.805 172.848C161.805 173.076 161.749 173.287 161.639 173.482C161.528 173.671 161.375 173.824 161.18 173.941C160.991 174.059 160.783 174.117 160.555 174.117ZM137.059 247.582H135.535V230.219H137.059V247.582ZM139.969 238.656H136.707V237.387H139.969V238.656ZM133.855 234.281H123.523V233.012H133.855V234.281ZM128.777 235.727C129.585 235.727 130.311 235.896 130.955 236.234C131.6 236.573 132.104 237.045 132.469 237.65C132.84 238.256 133.029 238.943 133.035 239.711C133.029 240.486 132.84 241.176 132.469 241.781C132.104 242.38 131.6 242.849 130.955 243.188C130.311 243.526 129.585 243.695 128.777 243.695C127.964 243.695 127.231 243.526 126.58 243.188C125.936 242.849 125.431 242.38 125.066 241.781C124.702 241.176 124.52 240.486 124.52 239.711C124.52 238.943 124.702 238.256 125.066 237.65C125.431 237.045 125.936 236.573 126.58 236.234C127.231 235.896 127.964 235.727 128.777 235.727ZM128.777 237.016C128.243 237.016 127.765 237.13 127.342 237.357C126.919 237.585 126.587 237.908 126.346 238.324C126.105 238.734 125.984 239.197 125.984 239.711C125.984 240.232 126.105 240.694 126.346 241.098C126.587 241.501 126.919 241.82 127.342 242.055C127.765 242.283 128.243 242.393 128.777 242.387C129.305 242.393 129.78 242.283 130.203 242.055C130.633 241.82 130.965 241.501 131.199 241.098C131.44 240.694 131.564 240.232 131.57 239.711C131.564 239.197 131.44 238.734 131.199 238.324C130.965 237.908 130.633 237.585 130.203 237.357C129.78 237.13 129.305 237.016 128.777 237.016ZM129.52 233.598H127.996V230.434H129.52V233.598ZM154.949 236.723H143.055V235.492H154.949V236.723ZM156.785 240.336H140.887V239.086H156.785V240.336ZM144.578 236.117H143.055V230.863H144.578V236.117ZM155.047 247.152H142.957V245.883H155.047V247.152ZM144.48 246.254H142.957V242.113H144.48V246.254ZM47.0977 265.996H45.5547V254.238H47.0977V265.996ZM45.8867 260.41H41.7461V259.121H45.8867V260.41ZM41.668 255.605C41.668 257.07 41.3522 258.405 40.7207 259.609C40.0892 260.807 39.1745 261.849 37.9766 262.734C36.7852 263.613 35.3529 264.323 33.6797 264.863L32.9961 263.633C34.474 263.177 35.7402 262.585 36.7949 261.855C37.8561 261.126 38.6667 260.283 39.2266 259.326C39.7865 258.369 40.0664 257.331 40.0664 256.211V255.605H41.668ZM41.1406 256.855H33.8555V255.605H41.1406V256.855ZM42.0195 265.273C42.0195 266.348 41.7201 267.318 41.1211 268.184C40.5221 269.043 39.7246 269.756 38.7285 270.322C37.7324 270.889 36.6354 271.289 35.4375 271.523L34.8125 270.312C35.8542 270.13 36.8242 269.801 37.7227 269.326C38.6211 268.851 39.3405 268.262 39.8809 267.559C40.4277 266.855 40.7044 266.094 40.7109 265.273V264.473H42.0195V265.273ZM42.2148 265.273C42.2148 266.087 42.485 266.839 43.0254 267.529C43.5658 268.213 44.2786 268.792 45.1641 269.268C46.0495 269.736 47.013 270.065 48.0547 270.254L47.4102 271.484C46.2318 271.257 45.1478 270.859 44.1582 270.293C43.1751 269.733 42.3874 269.023 41.7949 268.164C41.2025 267.305 40.9062 266.341 40.9062 265.273V264.473H42.2148V265.273ZM64.3047 271.621H62.7617V254.219H64.3047V271.621ZM55.0664 255.566C55.9258 255.566 56.6908 255.814 57.3613 256.309C58.0319 256.803 58.556 257.51 58.9336 258.428C59.3112 259.346 59.5 260.41 59.5 261.621C59.5 262.832 59.3112 263.893 58.9336 264.805C58.556 265.716 58.0319 266.419 57.3613 266.914C56.6908 267.409 55.9258 267.656 55.0664 267.656C54.207 267.656 53.4421 267.409 52.7715 266.914C52.1009 266.419 51.5768 265.716 51.1992 264.805C50.8216 263.893 50.6328 262.832 50.6328 261.621C50.6328 260.41 50.8216 259.346 51.1992 258.428C51.5768 257.51 52.1009 256.803 52.7715 256.309C53.4421 255.814 54.207 255.566 55.0664 255.566ZM55.0664 256.934C54.4935 256.934 53.9824 257.129 53.5332 257.52C53.084 257.91 52.7357 258.46 52.4883 259.17C52.2409 259.88 52.1172 260.697 52.1172 261.621C52.1172 262.552 52.2409 263.372 52.4883 264.082C52.7357 264.785 53.084 265.329 53.5332 265.713C53.9824 266.097 54.4935 266.289 55.0664 266.289C55.6458 266.289 56.1569 266.097 56.5996 265.713C57.0488 265.329 57.3971 264.785 57.6445 264.082C57.8919 263.372 58.0156 262.552 58.0156 261.621C58.0156 260.69 57.8919 259.873 57.6445 259.17C57.3971 258.46 57.0488 257.91 56.5996 257.52C56.1569 257.129 55.6458 256.934 55.0664 256.934ZM80.9453 265.918H79.4414V262.891H80.9453V265.918ZM88.1133 263.613H72.293V262.344H88.1133V263.613ZM80.2031 265.449C81.4466 265.456 82.5143 265.576 83.4062 265.811C84.3047 266.038 84.9883 266.383 85.457 266.846C85.9323 267.308 86.1732 267.865 86.1797 268.516C86.1732 269.16 85.9323 269.707 85.457 270.156C84.9883 270.612 84.3047 270.957 83.4062 271.191C82.5078 271.426 81.4401 271.543 80.2031 271.543C78.9466 271.543 77.8691 271.426 76.9707 271.191C76.0788 270.957 75.3952 270.612 74.9199 270.156C74.4447 269.707 74.207 269.16 74.207 268.516C74.207 267.865 74.4447 267.308 74.9199 266.846C75.3952 266.383 76.0788 266.038 76.9707 265.811C77.8691 265.576 78.9466 265.456 80.2031 265.449ZM80.2031 266.641C79.2786 266.647 78.4844 266.725 77.8203 266.875C77.1562 267.018 76.6452 267.23 76.2871 267.51C75.9355 267.79 75.763 268.125 75.7695 268.516C75.763 268.9 75.9355 269.232 76.2871 269.512C76.6452 269.785 77.1562 269.993 77.8203 270.137C78.4909 270.28 79.2852 270.352 80.2031 270.352C81.1146 270.352 81.9023 270.28 82.5664 270.137C83.2305 269.993 83.7415 269.785 84.0996 269.512C84.4577 269.232 84.6367 268.9 84.6367 268.516C84.6367 268.125 84.4609 267.79 84.1094 267.51C83.7578 267.23 83.2467 267.018 82.5762 266.875C81.9121 266.725 81.1211 266.647 80.2031 266.641ZM80.5742 256.172C80.5742 257.07 80.2617 257.881 79.6367 258.604C79.0117 259.326 78.1751 259.919 77.127 260.381C76.0853 260.837 74.9557 261.139 73.7383 261.289L73.1914 260.078C74.2266 259.967 75.2064 259.73 76.1309 259.365C77.0618 258.994 77.8073 258.532 78.3672 257.979C78.9271 257.419 79.207 256.816 79.207 256.172V255.645H80.5742V256.172ZM81.1992 256.172C81.1992 256.816 81.4792 257.419 82.0391 257.979C82.599 258.532 83.3411 258.994 84.2656 259.365C85.1966 259.73 86.1862 259.967 87.2344 260.078L86.668 261.289C85.4505 261.139 84.321 260.837 83.2793 260.381C82.2441 259.919 81.4108 259.326 80.7793 258.604C80.1478 257.881 79.832 257.07 79.832 256.172V255.645H81.1992V256.172ZM86.707 256.289H73.7383V255.039H86.707V256.289ZM95.0273 268.379H93.5234V263.184H95.0273V268.379ZM101.531 268.379H99.9883V263.184H101.531V268.379ZM105.477 269.355H89.5781V268.066H105.477V269.355ZM97.4883 255.312C98.7188 255.319 99.8125 255.508 100.77 255.879C101.733 256.243 102.485 256.768 103.025 257.451C103.566 258.128 103.836 258.906 103.836 259.785C103.836 260.671 103.566 261.449 103.025 262.119C102.485 262.79 101.733 263.311 100.77 263.682C99.8125 264.053 98.7188 264.238 97.4883 264.238C96.2578 264.238 95.1608 264.053 94.1973 263.682C93.2402 263.311 92.4915 262.79 91.9512 262.119C91.4108 261.449 91.1406 260.671 91.1406 259.785C91.1406 258.906 91.4108 258.128 91.9512 257.451C92.4915 256.768 93.2402 256.243 94.1973 255.879C95.1608 255.508 96.2578 255.319 97.4883 255.312ZM97.4883 256.582C96.5443 256.576 95.7012 256.706 94.959 256.973C94.2233 257.233 93.6504 257.607 93.2402 258.096C92.8301 258.584 92.625 259.147 92.625 259.785C92.625 260.423 92.8301 260.986 93.2402 261.475C93.6504 261.963 94.2233 262.344 94.959 262.617C95.7012 262.891 96.5443 263.027 97.4883 263.027C98.4258 263.027 99.2624 262.891 99.998 262.617C100.734 262.344 101.31 261.963 101.727 261.475C102.143 260.986 102.352 260.423 102.352 259.785C102.352 259.147 102.143 258.584 101.727 258.096C101.31 257.607 100.734 257.233 99.998 256.973C99.2624 256.706 98.4258 256.576 97.4883 256.582ZM120.438 264.316H118.914V254.219H120.438V264.316ZM123.055 259.98H119.773V258.672H123.055V259.98ZM110.984 266.934H118.914V265.078H120.438V271.348H109.461V265.078H110.984V266.934ZM118.914 270.117V268.145H110.984V270.117H118.914ZM117.254 257.285H106.902V256.016H117.254V257.285ZM112.078 258.086C112.905 258.086 113.631 258.21 114.256 258.457C114.887 258.704 115.376 259.059 115.721 259.521C116.072 259.984 116.251 260.521 116.258 261.133C116.251 261.745 116.072 262.282 115.721 262.744C115.376 263.206 114.887 263.561 114.256 263.809C113.624 264.056 112.898 264.18 112.078 264.18C111.245 264.18 110.512 264.056 109.881 263.809C109.249 263.561 108.761 263.206 108.416 262.744C108.071 262.282 107.898 261.745 107.898 261.133C107.898 260.521 108.071 259.984 108.416 259.521C108.761 259.059 109.249 258.704 109.881 258.457C110.512 258.21 111.245 258.086 112.078 258.086ZM112.078 259.277C111.538 259.271 111.062 259.346 110.652 259.502C110.249 259.652 109.933 259.87 109.705 260.156C109.477 260.436 109.363 260.762 109.363 261.133C109.363 261.504 109.474 261.833 109.695 262.119C109.917 262.399 110.232 262.617 110.643 262.773C111.059 262.93 111.538 263.008 112.078 263.008C112.612 263.008 113.087 262.93 113.504 262.773C113.921 262.617 114.24 262.399 114.461 262.119C114.689 261.833 114.806 261.504 114.812 261.133C114.806 260.762 114.686 260.436 114.451 260.156C114.223 259.87 113.904 259.652 113.494 259.502C113.084 259.346 112.612 259.271 112.078 259.277ZM112.84 256.699H111.316V254.062H112.84V256.699ZM138.465 271.582H136.941V254.219H138.465V271.582ZM126.785 266.68H125.281V255.938H126.785V266.68ZM126.688 265.781C128.133 265.775 129.542 265.71 130.916 265.586C132.296 265.456 133.686 265.241 135.086 264.941L135.301 266.25C133.823 266.556 132.384 266.777 130.984 266.914C129.591 267.044 128.159 267.109 126.688 267.109H125.281V265.781H126.688ZM154.871 271.621H153.348V254.219H154.871V271.621ZM157.781 262.383H154.52V261.094H157.781V262.383ZM143.562 265.977C145.268 265.97 146.73 265.924 147.947 265.84C149.165 265.749 150.405 265.586 151.668 265.352L151.863 266.68C150.574 266.914 149.311 267.07 148.074 267.148C146.844 267.227 145.34 267.266 143.562 267.266H142.195V265.977H143.562ZM150.301 257.188H143.719V266.562H142.195V255.918H150.301V257.188ZM160.555 270.117C160.327 270.117 160.115 270.059 159.92 269.941C159.731 269.824 159.578 269.671 159.461 269.482C159.35 269.287 159.298 269.076 159.305 268.848C159.298 268.626 159.35 268.418 159.461 268.223C159.578 268.027 159.731 267.874 159.92 267.764C160.115 267.653 160.327 267.598 160.555 267.598C160.783 267.598 160.991 267.653 161.18 267.764C161.375 267.874 161.528 268.027 161.639 268.223C161.749 268.418 161.805 268.626 161.805 268.848C161.805 269.076 161.749 269.287 161.639 269.482C161.528 269.671 161.375 269.824 161.18 269.941C160.991 270.059 160.783 270.117 160.555 270.117Z" fill="#0E0E0E"/>
<path d="M45.8379 184.934H34.4512V182.707H45.8379V184.934ZM48.8555 191.047H32.4785V188.811H48.8555V191.047ZM42.0391 194.045H39.2168V190.393H42.0391V194.045ZM46.9805 184.152C46.9805 185.227 46.9479 186.187 46.8828 187.033C46.8242 187.873 46.6745 188.817 46.4336 189.865L43.6406 189.582C43.7969 188.898 43.9108 188.254 43.9824 187.648C44.0605 187.036 44.1094 186.493 44.1289 186.018C44.1549 185.542 44.1712 184.973 44.1777 184.309V184.152V182.707H46.9805V184.152ZM46.9707 199.865H44.1387V195.568H34.0898V193.371H46.9707V199.865ZM59.5098 192.082H50.6523V183.342H59.5098V192.082ZM53.416 189.885H56.7168V185.568H53.416V189.885ZM64.8125 194.67H61.9902V181.975H64.8125V194.67ZM65.2715 199.543H52.6738V197.297H65.2715V199.543ZM55.5254 198.332H52.6738V193.508H55.5254V198.332ZM75.2129 182.189C76.5996 182.189 77.7845 182.307 78.7676 182.541C79.7507 182.775 80.4961 183.12 81.0039 183.576C81.5182 184.025 81.7754 184.576 81.7754 185.227C81.7754 185.884 81.5182 186.441 81.0039 186.896C80.4961 187.352 79.7507 187.697 78.7676 187.932C77.7845 188.166 76.5996 188.283 75.2129 188.283C73.8197 188.283 72.6315 188.166 71.6484 187.932C70.6654 187.697 69.9134 187.352 69.3926 186.896C68.8783 186.441 68.6211 185.884 68.6211 185.227C68.6211 184.576 68.8783 184.025 69.3926 183.576C69.9134 183.12 70.6654 182.775 71.6484 182.541C72.6315 182.307 73.8197 182.189 75.2129 182.189ZM75.2129 184.23C74.3665 184.23 73.6764 184.266 73.1426 184.338C72.6087 184.41 72.2116 184.52 71.9512 184.67C71.6973 184.82 71.5736 185.005 71.5801 185.227C71.5736 185.474 71.694 185.673 71.9414 185.822C72.1953 185.965 72.5794 186.07 73.0938 186.135C73.6146 186.193 74.321 186.226 75.2129 186.232C76.1048 186.226 76.8112 186.193 77.332 186.135C77.8594 186.07 78.2467 185.965 78.4941 185.822C78.7415 185.673 78.8652 185.474 78.8652 185.227C78.8652 185.005 78.7383 184.82 78.4844 184.67C78.2305 184.52 77.8333 184.41 77.293 184.338C76.7526 184.266 76.0592 184.23 75.2129 184.23ZM83.3867 191.242H67.0488V189.016H83.3867V191.242ZM81.4336 196.848H71.668V198.283H68.9043V194.904H78.6406V194.133H68.9043V192.092H81.4336V196.848ZM81.873 199.768H68.9043V197.678H81.873V199.768ZM104.354 199.865H101.707V181.936H104.354V199.865ZM102.332 191.008H99.4512V188.781H102.332V191.008ZM100.271 199.025H97.7031V182.229H100.271V199.025ZM90.5547 193.596C91.8242 193.596 92.9212 193.57 93.8457 193.518C94.7767 193.465 95.737 193.352 96.7266 193.176L96.9219 195.441C95.9258 195.63 94.9492 195.757 93.9922 195.822C93.0352 195.887 91.8893 195.923 90.5547 195.93H89.2656V193.596H90.5547ZM95.9453 186.232H92.0879V194.748H89.2656V183.996H95.9453V186.232ZM112.83 196.447H110.008V191.691H112.83V196.447ZM118.514 196.496H115.691V191.721H118.514V196.496ZM122.488 197.951H106.111V195.715H122.488V197.951ZM121.18 185.549H107.332V183.312H121.18V185.549ZM121.082 192.59H107.43V190.334H121.082V192.59ZM112.508 190.646H109.686V185.168H112.508V190.646ZM118.768 190.646H115.994V185.168H118.768V190.646ZM137.605 199.865H134.832V181.936H137.605V199.865ZM140.145 191.154H136.99V188.859H140.145V191.154ZM133.777 186.799H123.299V184.553H133.777V186.799ZM128.572 187.639C129.438 187.639 130.226 187.824 130.936 188.195C131.645 188.56 132.202 189.074 132.605 189.738C133.009 190.396 133.211 191.138 133.211 191.965C133.211 192.798 133.009 193.544 132.605 194.201C132.202 194.852 131.645 195.363 130.936 195.734C130.226 196.099 129.438 196.281 128.572 196.281C127.687 196.281 126.889 196.099 126.18 195.734C125.477 195.363 124.926 194.852 124.529 194.201C124.132 193.544 123.934 192.798 123.934 191.965C123.934 191.138 124.132 190.396 124.529 189.738C124.926 189.074 125.477 188.56 126.18 188.195C126.889 187.824 127.687 187.639 128.572 187.639ZM128.572 189.914C128.188 189.921 127.85 190.005 127.557 190.168C127.264 190.324 127.033 190.559 126.863 190.871C126.701 191.177 126.619 191.542 126.619 191.965C126.619 192.395 126.701 192.762 126.863 193.068C127.033 193.374 127.264 193.605 127.557 193.762C127.85 193.918 128.188 193.999 128.572 194.006C128.95 193.999 129.285 193.918 129.578 193.762C129.871 193.605 130.099 193.374 130.262 193.068C130.424 192.762 130.506 192.395 130.506 191.965C130.506 191.542 130.424 191.177 130.262 190.871C130.099 190.559 129.868 190.324 129.568 190.168C129.275 190.005 128.943 189.921 128.572 189.914ZM129.979 185.373H127.166V182.238H129.979V185.373ZM155.809 199.865H152.957V181.936H155.809V199.865ZM150.418 183.801C150.411 185.773 150.164 187.544 149.676 189.113C149.188 190.682 148.335 192.124 147.117 193.439C145.9 194.755 144.24 195.907 142.137 196.896L140.682 194.66C142.4 193.846 143.764 192.945 144.773 191.955C145.789 190.965 146.518 189.855 146.961 188.625C147.404 187.395 147.625 185.952 147.625 184.299V183.801H150.418ZM148.943 185.998H141.668V183.801H148.943V185.998ZM38.2891 206.648C39.2005 206.648 40.0176 206.811 40.7402 207.137C41.4694 207.456 42.0358 207.911 42.4395 208.504C42.8496 209.09 43.0547 209.757 43.0547 210.506C43.0547 211.248 42.8496 211.912 42.4395 212.498C42.0358 213.084 41.4694 213.543 40.7402 213.875C40.0176 214.201 39.2005 214.363 38.2891 214.363C37.3906 214.363 36.5801 214.201 35.8574 213.875C35.1348 213.543 34.5684 213.084 34.1582 212.498C33.748 211.912 33.543 211.248 33.543 210.506C33.543 209.757 33.748 209.09 34.1582 208.504C34.5684 207.911 35.1315 207.456 35.8477 207.137C36.5703 206.811 37.3841 206.648 38.2891 206.648ZM38.2891 208.904C37.8919 208.904 37.5404 208.966 37.2344 209.09C36.9284 209.207 36.6875 209.389 36.5117 209.637C36.3424 209.878 36.2578 210.167 36.2578 210.506C36.2578 210.844 36.3424 211.131 36.5117 211.365C36.6875 211.593 36.9284 211.769 37.2344 211.893C37.5404 212.016 37.8919 212.075 38.2891 212.068C38.7122 212.075 39.0801 212.016 39.3926 211.893C39.7116 211.769 39.959 211.593 40.1348 211.365C40.3105 211.131 40.3984 210.844 40.3984 210.506C40.3984 210.167 40.3105 209.878 40.1348 209.637C39.959 209.389 39.7116 209.207 39.3926 209.09C39.0736 208.966 38.7057 208.904 38.2891 208.904ZM39.8125 223.348H37V216.092H39.8125V223.348ZM47.6641 223.855H44.8711V205.975H47.6641V223.855ZM32.5273 215.301C34.5977 215.301 36.5898 215.258 38.5039 215.174C40.418 215.089 42.2083 214.917 43.875 214.656L44.0605 216.707C42.9408 216.941 41.7754 217.117 40.5645 217.234C39.3535 217.352 38.224 217.433 37.1758 217.479C36.1276 217.524 34.8939 217.557 33.4746 217.576C33.3639 217.576 33.263 217.576 33.1719 217.576C33.0807 217.576 32.9831 217.576 32.8789 217.576L32.5273 215.301ZM58.2891 210.789H49.7246V208.562H58.2891V210.789ZM54.0508 211.473C54.819 211.473 55.5026 211.655 56.1016 212.02C56.707 212.378 57.1758 212.885 57.5078 213.543C57.8464 214.201 58.0156 214.943 58.0156 215.77C58.0156 216.609 57.8464 217.355 57.5078 218.006C57.1758 218.657 56.707 219.171 56.1016 219.549C55.5026 219.92 54.819 220.105 54.0508 220.105C53.3021 220.105 52.6217 219.92 52.0098 219.549C51.4043 219.171 50.9323 218.657 50.5938 218.006C50.2552 217.348 50.0859 216.603 50.0859 215.77C50.0859 214.949 50.2552 214.214 50.5938 213.562C50.9388 212.905 51.4141 212.394 52.0195 212.029C52.625 211.658 53.3021 211.473 54.0508 211.473ZM54.0508 213.797C53.7513 213.79 53.4876 213.865 53.2598 214.021C53.0384 214.171 52.8659 214.396 52.7422 214.695C52.6185 214.995 52.5566 215.353 52.5566 215.77C52.5566 216.193 52.6185 216.551 52.7422 216.844C52.8659 217.137 53.0384 217.358 53.2598 217.508C53.4876 217.658 53.7513 217.732 54.0508 217.732C54.3503 217.732 54.6139 217.658 54.8418 217.508C55.0697 217.358 55.2454 217.137 55.3691 216.844C55.4928 216.551 55.5547 216.193 55.5547 215.77C55.5547 215.353 55.4928 214.995 55.3691 214.695C55.2454 214.396 55.0664 214.171 54.832 214.021C54.6042 213.865 54.3438 213.79 54.0508 213.797ZM65.3203 223.865H62.6445V205.936H65.3203V223.865ZM63.5332 215.389H60.6523V213.162H63.5332V215.389ZM61.502 223.133H58.8652V206.277H61.502V223.133ZM55.4277 209.969H52.6641V206.434H55.4277V209.969ZM78.1426 221.512H75.3203V216.883H78.1426V221.512ZM84.0117 221.512H81.248V216.883H84.0117V221.512ZM87.1758 210.34H72.1953V208.113H87.1758V210.34ZM87.918 222.166H71.541V219.939H87.918V222.166ZM79.6758 210.936C80.9388 210.936 82.0358 211.072 82.9668 211.346C83.8978 211.619 84.6107 212.02 85.1055 212.547C85.6003 213.074 85.8477 213.699 85.8477 214.422C85.8477 215.151 85.6003 215.776 85.1055 216.297C84.6107 216.818 83.8978 217.218 82.9668 217.498C82.0358 217.778 80.9388 217.918 79.6758 217.918C78.4062 217.918 77.3027 217.778 76.3652 217.498C75.4342 217.218 74.7181 216.818 74.2168 216.297C73.7155 215.776 73.4681 215.151 73.4746 214.422C73.4681 213.699 73.7155 213.074 74.2168 212.547C74.7181 212.02 75.4342 211.619 76.3652 211.346C77.3027 211.072 78.4062 210.936 79.6758 210.936ZM79.6758 213.074C78.9271 213.081 78.3086 213.133 77.8203 213.23C77.3385 213.328 76.974 213.478 76.7266 213.68C76.4857 213.875 76.3685 214.122 76.375 214.422C76.3685 214.721 76.4857 214.969 76.7266 215.164C76.974 215.353 77.3418 215.496 77.8301 215.594C78.3184 215.691 78.9336 215.737 79.6758 215.73C80.3984 215.737 81.0007 215.691 81.4824 215.594C81.9707 215.496 82.3385 215.353 82.5859 215.164C82.8333 214.969 82.957 214.721 82.957 214.422C82.957 214.122 82.8333 213.875 82.5859 213.68C82.3385 213.478 81.9707 213.328 81.4824 213.23C81.0007 213.133 80.3984 213.081 79.6758 213.074ZM81.0625 209.5H78.2793V206.111H81.0625V209.5ZM97.2344 209.92H89.5879V207.684H97.2344V209.92ZM94.5391 218.904H91.7852V212.82H94.5391V218.904ZM98.9336 209.412C98.9271 210.643 98.8945 211.753 98.8359 212.742C98.7839 213.732 98.6569 214.845 98.4551 216.082L95.7012 215.857C95.8835 214.653 95.9974 213.592 96.043 212.674C96.0951 211.756 96.1243 210.665 96.1309 209.402V209.275V207.684H98.9336V209.275V209.412ZM103.113 223.865H100.281V205.936H103.113V223.865ZM105.398 215.389H102.264V213.055H105.398V215.389ZM88.6699 218.084C90.8118 218.064 92.7617 218.022 94.5195 217.957C96.2839 217.885 97.9505 217.749 99.5195 217.547L99.6855 219.627C98.0449 219.913 96.3262 220.102 94.5293 220.193C92.7324 220.285 90.8639 220.32 88.9238 220.301L88.6699 218.084ZM112.449 208.826C112.449 209.992 112.27 211.089 111.912 212.117C111.561 213.139 111.004 214.038 110.242 214.812C109.487 215.581 108.536 216.144 107.391 216.502L105.945 214.285C106.915 213.979 107.716 213.536 108.348 212.957C108.979 212.378 109.438 211.736 109.725 211.033C110.011 210.324 110.158 209.588 110.164 208.826V207.703H112.449V208.826ZM113.035 208.787C113.035 209.516 113.172 210.216 113.445 210.887C113.719 211.551 114.155 212.156 114.754 212.703C115.359 213.25 116.128 213.676 117.059 213.982L115.682 216.15C114.568 215.799 113.641 215.255 112.898 214.52C112.163 213.784 111.619 212.928 111.268 211.951C110.923 210.968 110.75 209.913 110.75 208.787V207.703H113.035V208.787ZM119.285 212.43H115.975V210.135H119.285V212.43ZM116.463 209.109H106.727V206.873H116.463V209.109ZM121.277 223.865H118.484V219.578H108.885V217.342H121.277V223.865ZM121.277 216.6H118.484V205.936H121.277V216.6ZM131.561 206.795C132.824 206.795 133.973 207.013 135.008 207.449C136.043 207.885 136.86 208.501 137.459 209.295C138.064 210.083 138.367 210.988 138.367 212.01C138.367 213.045 138.064 213.96 137.459 214.754C136.86 215.548 136.043 216.163 135.008 216.6C133.973 217.036 132.824 217.254 131.561 217.254C130.291 217.254 129.139 217.036 128.104 216.6C127.075 216.163 126.261 215.548 125.662 214.754C125.07 213.96 124.773 213.045 124.773 212.01C124.773 210.988 125.07 210.083 125.662 209.295C126.261 208.501 127.075 207.885 128.104 207.449C129.139 207.013 130.291 206.795 131.561 206.795ZM131.561 209.061C130.766 209.061 130.063 209.178 129.451 209.412C128.839 209.646 128.364 209.988 128.025 210.438C127.687 210.887 127.518 211.411 127.518 212.01C127.518 212.622 127.687 213.149 128.025 213.592C128.364 214.035 128.839 214.373 129.451 214.607C130.063 214.835 130.766 214.952 131.561 214.959C132.348 214.952 133.045 214.835 133.65 214.607C134.256 214.373 134.725 214.035 135.057 213.592C135.395 213.149 135.564 212.622 135.564 212.01C135.564 211.411 135.395 210.887 135.057 210.438C134.718 209.988 134.246 209.646 133.641 209.412C133.035 209.178 132.342 209.061 131.561 209.061ZM139.773 221.766H123.396V219.5H139.773V221.766ZM157.059 221.951H140.682V219.656H157.059V221.951ZM150.223 220.604H147.449V216.414H150.223V220.604ZM155.223 213.162H145.32V216.043H142.518V210.984H152.449V209.305H142.488V207.068H155.223V213.162ZM155.643 217.156H142.518V214.891H155.643V217.156ZM38.25 231.107C39.1875 231.107 40.0371 231.299 40.7988 231.684C41.5671 232.068 42.1693 232.602 42.6055 233.285C43.0417 233.962 43.2598 234.724 43.2598 235.57C43.2598 236.423 43.0417 237.188 42.6055 237.865C42.1693 238.542 41.5671 239.073 40.7988 239.457C40.0371 239.841 39.1875 240.033 38.25 240.033C37.319 240.033 36.4694 239.841 35.7012 239.457C34.9329 239.073 34.3275 238.542 33.8848 237.865C33.4486 237.188 33.2305 236.423 33.2305 235.57C33.2305 234.724 33.4486 233.962 33.8848 233.285C34.3275 232.602 34.9329 232.068 35.7012 231.684C36.4694 231.299 37.319 231.107 38.25 231.107ZM38.25 233.529C37.8268 233.536 37.446 233.617 37.1074 233.773C36.7754 233.93 36.5117 234.164 36.3164 234.477C36.1276 234.783 36.0332 235.147 36.0332 235.57C36.0332 236.007 36.1276 236.378 36.3164 236.684C36.5117 236.983 36.7754 237.211 37.1074 237.367C37.446 237.523 37.8268 237.605 38.25 237.611C38.6862 237.605 39.0768 237.523 39.4219 237.367C39.7669 237.211 40.0339 236.983 40.2227 236.684C40.418 236.378 40.5156 236.007 40.5156 235.57C40.5156 235.147 40.418 234.783 40.2227 234.477C40.0339 234.164 39.7669 233.93 39.4219 233.773C39.0768 233.617 38.6862 233.536 38.25 233.529ZM47.6348 247.914H44.8418V229.936H47.6348V247.914ZM32.5371 242.084C34.653 242.084 36.6517 242.048 38.5332 241.977C40.4147 241.898 42.1986 241.745 43.8848 241.518L44.0898 243.529C42.8724 243.77 41.6094 243.949 40.3008 244.066C38.9987 244.184 37.765 244.262 36.5996 244.301C35.4408 244.333 34.1908 244.346 32.8496 244.34L32.5371 242.084ZM64.9102 243.129H62.1367V229.975H64.9102V243.129ZM59.4414 231.293C59.4414 232.908 59.1191 234.376 58.4746 235.697C57.8301 237.019 56.8861 238.155 55.6426 239.105C54.3991 240.056 52.8984 240.792 51.1406 241.312L49.9688 239.125C51.349 238.695 52.5273 238.155 53.5039 237.504C54.4805 236.846 55.2194 236.101 55.7207 235.268C56.222 234.428 56.4727 233.533 56.4727 232.582V231.293H59.4414ZM58.2109 233.529H50.9453V231.293H58.2109V233.529ZM62.5176 235.58H58.4258V233.344H62.5176V235.58ZM62.3516 239.594H58.2598V237.348H62.3516V239.594ZM65.3887 247.592H52.9766V245.336H65.3887V247.592ZM55.8379 246.771H52.9766V241.811H55.8379V246.771ZM75.2129 230.189C76.5996 230.189 77.7845 230.307 78.7676 230.541C79.7507 230.775 80.4961 231.12 81.0039 231.576C81.5182 232.025 81.7754 232.576 81.7754 233.227C81.7754 233.884 81.5182 234.441 81.0039 234.896C80.4961 235.352 79.7507 235.697 78.7676 235.932C77.7845 236.166 76.5996 236.283 75.2129 236.283C73.8197 236.283 72.6315 236.166 71.6484 235.932C70.6654 235.697 69.9134 235.352 69.3926 234.896C68.8783 234.441 68.6211 233.884 68.6211 233.227C68.6211 232.576 68.8783 232.025 69.3926 231.576C69.9134 231.12 70.6654 230.775 71.6484 230.541C72.6315 230.307 73.8197 230.189 75.2129 230.189ZM75.2129 232.23C74.3665 232.23 73.6764 232.266 73.1426 232.338C72.6087 232.41 72.2116 232.52 71.9512 232.67C71.6973 232.82 71.5736 233.005 71.5801 233.227C71.5736 233.474 71.694 233.673 71.9414 233.822C72.1953 233.965 72.5794 234.07 73.0938 234.135C73.6146 234.193 74.321 234.226 75.2129 234.232C76.1048 234.226 76.8112 234.193 77.332 234.135C77.8594 234.07 78.2467 233.965 78.4941 233.822C78.7415 233.673 78.8652 233.474 78.8652 233.227C78.8652 233.005 78.7383 232.82 78.4844 232.67C78.2305 232.52 77.8333 232.41 77.293 232.338C76.7526 232.266 76.0592 232.23 75.2129 232.23ZM83.3867 239.242H67.0488V237.016H83.3867V239.242ZM81.4336 244.848H71.668V246.283H68.9043V242.904H78.6406V242.133H68.9043V240.092H81.4336V244.848ZM81.873 247.768H68.9043V245.678H81.873V247.768ZM95.5449 244.447H92.7227V239.691H95.5449V244.447ZM101.229 244.496H98.4062V239.721H101.229V244.496ZM105.203 245.951H88.8262V243.715H105.203V245.951ZM103.895 233.549H90.0469V231.312H103.895V233.549ZM103.797 240.59H90.1445V238.334H103.797V240.59ZM95.2227 238.646H92.4004V233.168H95.2227V238.646ZM101.482 238.646H98.709V233.168H101.482V238.646ZM121.277 243.617H118.484V229.975H121.277V243.617ZM119.51 236.576H116.287V234.32H119.51V236.576ZM119.51 240.385H116.287V238.158H119.51V240.385ZM116.033 233.939H106.15V231.752H116.033V233.939ZM111.209 234.457C112.023 234.457 112.758 234.61 113.416 234.916C114.074 235.215 114.585 235.639 114.949 236.186C115.32 236.726 115.506 237.335 115.506 238.012C115.506 238.695 115.32 239.307 114.949 239.848C114.585 240.388 114.074 240.811 113.416 241.117C112.765 241.417 112.029 241.566 111.209 241.566C110.402 241.566 109.676 241.417 109.031 241.117C108.393 240.811 107.889 240.388 107.518 239.848C107.153 239.307 106.974 238.695 106.98 238.012C106.974 237.335 107.153 236.726 107.518 236.186C107.889 235.645 108.396 235.222 109.041 234.916C109.686 234.61 110.408 234.457 111.209 234.457ZM111.209 236.645C110.89 236.651 110.607 236.703 110.359 236.801C110.118 236.898 109.926 237.051 109.783 237.26C109.646 237.468 109.578 237.719 109.578 238.012C109.578 238.324 109.646 238.585 109.783 238.793C109.926 239.001 110.118 239.161 110.359 239.271C110.6 239.376 110.883 239.428 111.209 239.428C111.535 239.428 111.821 239.376 112.068 239.271C112.316 239.161 112.508 239.001 112.645 238.793C112.788 238.578 112.859 238.318 112.859 238.012C112.859 237.719 112.788 237.468 112.645 237.26C112.508 237.051 112.316 236.898 112.068 236.801C111.821 236.703 111.535 236.651 111.209 236.645ZM112.645 233.09H109.842V229.926H112.645V233.09ZM121.648 247.592H109.236V245.336H121.648V247.592ZM112.088 246.371H109.236V242.455H112.088V246.371Z" fill="#464646"/>
<defs>
<filter id="filter0_bd_839_51" x="-76" y="-80" width="366" height="613" filterUnits="userSpaceOnUse" color-interpolation-filters="sRGB">
<feFlood flood-opacity="0" result="BackgroundImageFix"/>
<feGaussianBlur in="BackgroundImageFix" stdDeviation="40"/>
<feComposite in2="SourceAlpha" operator="in" result="effect1_backgroundBlur_839_51"/>
<feColorMatrix in="SourceAlpha" type="matrix" values="0 0 0 0 0 0 0 0 0 0 0 0 0 0 0 0 0 0 127 0" result="hardAlpha"/>
<feOffset dy="3.6"/>
<feGaussianBlur stdDeviation="1.8"/>
<feComposite in2="hardAlpha" operator="out"/>
<feColorMatrix type="matrix" values="0 0 0 0 0 0 0 0 0 0 0 0 0 0 0 0 0 0 0.25 0"/>
<feBlend mode="normal" in2="effect1_backgroundBlur_839_51" result="effect2_dropShadow_839_51"/>
<feBlend mode="normal" in="SourceGraphic" in2="effect2_dropShadow_839_51" result="shape"/>
</filter>
<linearGradient id="paint0_linear_839_51" x1="107" y1="-33.6789" x2="107" y2="453" gradientUnits="userSpaceOnUse">
<stop stop-color="#D8F5DD"/>
<stop offset="1" stop-color="#D8F5DD" stop-opacity="0"/>
</linearGradient>
</defs>
</svg>