<svg width="214" height="620" viewBox="0 0 214 620" fill="none" xmlns="http://www.w3.org/2000/svg">
<g filter="url(#filter0_bd_176_641)">
<rect x="4" width="206" height="612" rx="103" fill="url(#paint0_linear_176_641)" shape-rendering="crispEdges"/>
</g>
<path d="M82.9688 78.4531H63.75V76.625H82.9688V78.4531ZM74.4258 84.9805H72.2344V77.1875H74.4258V84.9805ZM80.8477 74.668H66.2695V72.875H80.8477V74.668ZM80.6133 66.7109H68.4727V73.3555H66.2695V64.9297H80.6133V66.7109ZM80.1328 70.6133H67.8398V68.8672H80.1328V70.6133ZM91.9102 81.2891H89.6719V75.3594H91.9102V81.2891ZM98.4492 81.3008H96.2344V75.3711H98.4492V81.3008ZM103.734 82.4961H84.5156V80.6797H103.734V82.4961ZM101.977 67.6602H86.1445V65.8438H101.977V67.6602ZM101.918 76.0156H86.2148V74.1992H101.918V76.0156ZM91.5469 74.5391H89.332V67.3203H91.5469V74.5391ZM98.7773 74.5391H96.5859V67.3203H98.7773V74.5391ZM118.488 68.375C118.488 69.6562 118.246 70.8594 117.762 71.9844C117.285 73.1094 116.594 74.0938 115.688 74.9375C114.781 75.7734 113.723 76.4062 112.512 76.8359L111.352 75.0781C112.422 74.7188 113.355 74.1953 114.152 73.5078C114.957 72.8203 115.57 72.0352 115.992 71.1523C116.422 70.2617 116.637 69.3359 116.637 68.375V66.3008H118.488V68.375ZM118.887 68.375C118.887 69.2812 119.102 70.1523 119.531 70.9883C119.961 71.8242 120.57 72.5625 121.359 73.2031C122.156 73.8438 123.086 74.3281 124.148 74.6562L123.012 76.4258C121.809 76.0195 120.758 75.4219 119.859 74.6328C118.969 73.8359 118.277 72.9023 117.785 71.832C117.301 70.7539 117.059 69.6016 117.059 68.375V66.3008H118.887V68.375ZM123.527 67.4609H111.926V65.668H123.527V67.4609ZM128.531 79.332H126.316V64.0039H128.531V79.332ZM129.164 84.5703H114.809V82.7305H129.164V84.5703ZM117.035 83.5859H114.809V77.8906H117.035V83.5859ZM149.766 77.2344H147.645V63.9805H149.766V77.2344ZM148.242 71.375H144.387V69.5469H148.242V71.375ZM145.219 76.5078H143.133V64.3906H145.219V76.5078ZM142.359 68.1406H131.742V66.3828H142.359V68.1406ZM137.074 69.1367C137.957 69.1367 138.742 69.2852 139.43 69.582C140.125 69.8711 140.664 70.293 141.047 70.8477C141.43 71.3945 141.621 72.0312 141.621 72.7578C141.621 73.4609 141.43 74.0859 141.047 74.6328C140.664 75.1719 140.125 75.5938 139.43 75.8984C138.742 76.1953 137.957 76.3438 137.074 76.3438C136.207 76.3438 135.43 76.1953 134.742 75.8984C134.062 75.5938 133.531 75.1719 133.148 74.6328C132.766 74.0859 132.574 73.4609 132.574 72.7578C132.574 72.0312 132.766 71.3945 133.148 70.8477C133.531 70.293 134.062 69.8711 134.742 69.582C135.43 69.2852 136.207 69.1367 137.074 69.1367ZM137.074 70.7539C136.582 70.7539 136.145 70.8359 135.762 71C135.387 71.1562 135.09 71.3867 134.871 71.6914C134.66 71.9961 134.555 72.3516 134.555 72.7578C134.555 73.1406 134.66 73.4805 134.871 73.7773C135.09 74.0742 135.387 74.3047 135.762 74.4688C136.145 74.6328 136.582 74.7148 137.074 74.7148C137.574 74.7148 138.016 74.6328 138.398 74.4688C138.781 74.3047 139.078 74.0742 139.289 73.7773C139.5 73.4805 139.605 73.1406 139.605 72.7578C139.605 72.3516 139.5 71.9961 139.289 71.6914C139.078 71.3867 138.781 71.1562 138.398 71C138.016 70.8359 137.574 70.7539 137.074 70.7539ZM138.176 67.4844H135.961V64.1562H138.176V67.4844ZM142.746 77.5391C144.23 77.5391 145.508 77.6836 146.578 77.9727C147.648 78.2617 148.465 78.6875 149.027 79.25C149.598 79.8125 149.883 80.4883 149.883 81.2773C149.883 82.0508 149.598 82.7109 149.027 83.2578C148.465 83.8125 147.645 84.2344 146.566 84.5234C145.496 84.8125 144.223 84.957 142.746 84.957C141.262 84.957 139.984 84.8125 138.914 84.5234C137.844 84.2344 137.027 83.8125 136.465 83.2578C135.902 82.7109 135.621 82.0508 135.621 81.2773C135.621 80.4883 135.902 79.8125 136.465 79.25C137.027 78.6875 137.844 78.2617 138.914 77.9727C139.984 77.6836 141.262 77.5391 142.746 77.5391ZM142.746 79.2617C141.699 79.2539 140.809 79.3242 140.074 79.4727C139.348 79.6211 138.793 79.8516 138.41 80.1641C138.027 80.4688 137.84 80.8398 137.848 81.2773C137.84 81.6914 138.027 82.0469 138.41 82.3438C138.793 82.6328 139.352 82.8555 140.086 83.0117C140.82 83.168 141.707 83.2461 142.746 83.2461C143.777 83.2461 144.66 83.168 145.395 83.0117C146.137 82.8555 146.695 82.6328 147.07 82.3438C147.453 82.0469 147.648 81.6914 147.656 81.2773C147.648 80.832 147.453 80.457 147.07 80.1523C146.695 79.8477 146.141 79.6211 145.406 79.4727C144.672 79.3242 143.785 79.2539 142.746 79.2617Z" fill="#0E0E0E"/>
<defs>
<filter id="filter0_bd_176_641" x="-76" y="-80" width="366" height="772" filterUnits="userSpaceOnUse" color-interpolation-filters="sRGB">
<feFlood flood-opacity="0" result="BackgroundImageFix"/>
<feGaussianBlur in="BackgroundImageFix" stdDeviation="40"/>
<feComposite in2="SourceAlpha" operator="in" result="effect1_backgroundBlur_176_641"/>
<feColorMatrix in="SourceAlpha" type="matrix" values="0 0 0 0 0 0 0 0 0 0 0 0 0 0 0 0 0 0 127 0" result="hardAlpha"/>
<feOffset dy="3.6"/>
<feGaussianBlur stdDeviation="1.8"/>
<feComposite in2="hardAlpha" operator="out"/>
<feColorMatrix type="matrix" values="0 0 0 0 0 0 0 0 0 0 0 0 0 0 0 0 0 0 0.25 0"/>
<feBlend mode="normal" in2="effect1_backgroundBlur_176_641" result="effect2_dropShadow_176_641"/>
<feBlend mode="normal" in="SourceGraphic" in2="effect2_dropShadow_176_641" result="shape"/>
</filter>
<linearGradient id="paint0_linear_176_641" x1="107" y1="0" x2="107" y2="612" gradientUnits="userSpaceOnUse">
<stop offset="0.06" stop-color="#F6F6F6" stop-opacity="0.9"/>
<stop offset="1" stop-color="#F6F6F6" stop-opacity="0"/>
</linearGradient>
</defs>
</svg>
