<svg width="214" height="620" viewBox="0 0 214 620" fill="none" xmlns="http://www.w3.org/2000/svg">
<g filter="url(#filter0_bd_347_1042)">
<rect x="4" width="206" height="612" rx="103" fill="url(#paint0_linear_347_1042)" shape-rendering="crispEdges"/>
</g>
<mask id="path-2-outside-1_347_1042" maskUnits="userSpaceOnUse" x="62" y="62" width="89" height="25" fill="black">
<rect fill="white" x="62" y="62" width="89" height="25"/>
<path d="M83.2734 79.3672H63.4922V76.3203H83.2734V79.3672ZM75.1992 85.3203H71.4727V77.4688H75.1992V85.3203ZM81.2695 75.1602H65.8477V72.2188H81.2695V75.1602ZM81.0352 67.3672H69.5273V72.8633H65.8477V64.4492H81.0352V67.3672ZM80.6133 71.2344H68.5312V68.3867H80.6133V71.2344ZM92.5312 81.0898H88.7578V75.4414H92.5312V81.0898ZM99.4453 81.1602H95.6719V75.4883H99.4453V81.1602ZM104.039 83.0938H84.2578V80.1172H104.039V83.0938ZM102.539 68.1992H85.6523V65.2109H102.539V68.1992ZM102.41 76.6719H85.793V73.6602H102.41V76.6719ZM92.1328 74.0586H88.3594V67.6953H92.1328V74.0586ZM99.75 74.0586H96.0469V67.6953H99.75V74.0586ZM118.371 67.7188C118.363 69.1641 118.141 70.5156 117.703 71.7734C117.266 73.0234 116.578 74.1211 115.641 75.0664C114.703 76.0039 113.52 76.6953 112.09 77.1406L110.156 74.2109C111.359 73.8516 112.34 73.3281 113.098 72.6406C113.863 71.9531 114.41 71.1914 114.738 70.3555C115.066 69.5117 115.23 68.6328 115.23 67.7188V66.0664H118.371V67.7188ZM119.051 67.7188C119.051 68.5781 119.207 69.4023 119.52 70.1914C119.832 70.9805 120.355 71.6992 121.09 72.3477C121.824 72.9883 122.785 73.4805 123.973 73.8242L122.062 76.7656C120.664 76.3359 119.512 75.6719 118.605 74.7734C117.707 73.8672 117.047 72.8125 116.625 71.6094C116.203 70.4062 115.996 69.1094 116.004 67.7188V66.0664H119.051V67.7188ZM123.012 68.0234H111.152V65.0469H123.012V68.0234ZM128.484 79.1914H124.711V63.6875H128.484V79.1914ZM129.012 85.0273H113.637V82.0273H129.012V85.0273ZM117.457 83.5859H113.637V77.8203H117.457V83.5859ZM149.695 77.1523H146.133V63.6406H149.695V77.1523ZM147.047 71.7266H143.918V68.6797H147.047V71.7266ZM145.148 76.4844H141.645V64.0391H145.148V76.4844ZM141.164 68.5391H130.852V65.6445H141.164V68.5391ZM136.043 68.9961C136.949 68.9961 137.766 69.1562 138.492 69.4766C139.227 69.7891 139.797 70.2383 140.203 70.8242C140.617 71.4102 140.824 72.0781 140.824 72.8281C140.824 73.5625 140.617 74.2188 140.203 74.7969C139.797 75.3672 139.227 75.8125 138.492 76.1328C137.766 76.4453 136.949 76.6016 136.043 76.6016C135.145 76.6016 134.336 76.4453 133.617 76.1328C132.906 75.8125 132.344 75.3672 131.93 74.7969C131.523 74.2188 131.32 73.5625 131.32 72.8281C131.32 72.0781 131.523 71.4102 131.93 70.8242C132.344 70.2383 132.906 69.7891 133.617 69.4766C134.336 69.1562 135.145 68.9961 136.043 68.9961ZM136.043 71.6562C135.77 71.6484 135.527 71.6914 135.316 71.7852C135.113 71.8711 134.953 72.0039 134.836 72.1836C134.719 72.3555 134.66 72.5703 134.66 72.8281C134.66 73.0781 134.715 73.293 134.824 73.4727C134.934 73.6445 135.094 73.7773 135.305 73.8711C135.516 73.9648 135.762 74.0117 136.043 74.0117C136.324 74.0117 136.566 73.9648 136.77 73.8711C136.98 73.7773 137.145 73.6445 137.262 73.4727C137.379 73.293 137.438 73.0781 137.438 72.8281C137.438 72.5703 137.379 72.3555 137.262 72.1836C137.145 72.0039 136.98 71.8711 136.77 71.7852C136.566 71.6914 136.324 71.6484 136.043 71.6562ZM137.883 67.7656H134.133V63.875H137.883V67.7656ZM142.148 77.2812C143.727 77.2812 145.086 77.4375 146.227 77.75C147.375 78.0547 148.254 78.5117 148.863 79.1211C149.48 79.7305 149.789 80.4609 149.789 81.3125C149.789 82.1641 149.48 82.8906 148.863 83.4922C148.254 84.1016 147.375 84.5625 146.227 84.875C145.086 85.1953 143.727 85.3555 142.148 85.3555C140.578 85.3555 139.219 85.1953 138.07 84.875C136.93 84.5625 136.047 84.1016 135.422 83.4922C134.805 82.8906 134.496 82.1641 134.496 81.3125C134.496 80.4609 134.805 79.7305 135.422 79.1211C136.047 78.5117 136.93 78.0547 138.07 77.75C139.219 77.4375 140.578 77.2812 142.148 77.2812ZM142.148 80.0352C141.234 80.0352 140.496 80.0781 139.934 80.1641C139.371 80.2422 138.953 80.3789 138.68 80.5742C138.406 80.7617 138.27 81.0078 138.27 81.3125C138.27 81.6016 138.406 81.8359 138.68 82.0156C138.953 82.1953 139.371 82.332 139.934 82.4258C140.504 82.5117 141.242 82.5547 142.148 82.5547C143.047 82.5547 143.777 82.5117 144.34 82.4258C144.91 82.332 145.328 82.1992 145.594 82.0273C145.867 81.8477 146.008 81.6094 146.016 81.3125C146.008 81 145.867 80.75 145.594 80.5625C145.328 80.375 144.914 80.2422 144.352 80.1641C143.789 80.0781 143.055 80.0352 142.148 80.0352Z"/>
</mask>
<path d="M83.2734 79.3672H63.4922V76.3203H83.2734V79.3672ZM75.1992 85.3203H71.4727V77.4688H75.1992V85.3203ZM81.2695 75.1602H65.8477V72.2188H81.2695V75.1602ZM81.0352 67.3672H69.5273V72.8633H65.8477V64.4492H81.0352V67.3672ZM80.6133 71.2344H68.5312V68.3867H80.6133V71.2344ZM92.5312 81.0898H88.7578V75.4414H92.5312V81.0898ZM99.4453 81.1602H95.6719V75.4883H99.4453V81.1602ZM104.039 83.0938H84.2578V80.1172H104.039V83.0938ZM102.539 68.1992H85.6523V65.2109H102.539V68.1992ZM102.41 76.6719H85.793V73.6602H102.41V76.6719ZM92.1328 74.0586H88.3594V67.6953H92.1328V74.0586ZM99.75 74.0586H96.0469V67.6953H99.75V74.0586ZM118.371 67.7188C118.363 69.1641 118.141 70.5156 117.703 71.7734C117.266 73.0234 116.578 74.1211 115.641 75.0664C114.703 76.0039 113.52 76.6953 112.09 77.1406L110.156 74.2109C111.359 73.8516 112.34 73.3281 113.098 72.6406C113.863 71.9531 114.41 71.1914 114.738 70.3555C115.066 69.5117 115.23 68.6328 115.23 67.7188V66.0664H118.371V67.7188ZM119.051 67.7188C119.051 68.5781 119.207 69.4023 119.52 70.1914C119.832 70.9805 120.355 71.6992 121.09 72.3477C121.824 72.9883 122.785 73.4805 123.973 73.8242L122.062 76.7656C120.664 76.3359 119.512 75.6719 118.605 74.7734C117.707 73.8672 117.047 72.8125 116.625 71.6094C116.203 70.4062 115.996 69.1094 116.004 67.7188V66.0664H119.051V67.7188ZM123.012 68.0234H111.152V65.0469H123.012V68.0234ZM128.484 79.1914H124.711V63.6875H128.484V79.1914ZM129.012 85.0273H113.637V82.0273H129.012V85.0273ZM117.457 83.5859H113.637V77.8203H117.457V83.5859ZM149.695 77.1523H146.133V63.6406H149.695V77.1523ZM147.047 71.7266H143.918V68.6797H147.047V71.7266ZM145.148 76.4844H141.645V64.0391H145.148V76.4844ZM141.164 68.5391H130.852V65.6445H141.164V68.5391ZM136.043 68.9961C136.949 68.9961 137.766 69.1562 138.492 69.4766C139.227 69.7891 139.797 70.2383 140.203 70.8242C140.617 71.4102 140.824 72.0781 140.824 72.8281C140.824 73.5625 140.617 74.2188 140.203 74.7969C139.797 75.3672 139.227 75.8125 138.492 76.1328C137.766 76.4453 136.949 76.6016 136.043 76.6016C135.145 76.6016 134.336 76.4453 133.617 76.1328C132.906 75.8125 132.344 75.3672 131.93 74.7969C131.523 74.2188 131.32 73.5625 131.32 72.8281C131.32 72.0781 131.523 71.4102 131.93 70.8242C132.344 70.2383 132.906 69.7891 133.617 69.4766C134.336 69.1562 135.145 68.9961 136.043 68.9961ZM136.043 71.6562C135.77 71.6484 135.527 71.6914 135.316 71.7852C135.113 71.8711 134.953 72.0039 134.836 72.1836C134.719 72.3555 134.66 72.5703 134.66 72.8281C134.66 73.0781 134.715 73.293 134.824 73.4727C134.934 73.6445 135.094 73.7773 135.305 73.8711C135.516 73.9648 135.762 74.0117 136.043 74.0117C136.324 74.0117 136.566 73.9648 136.77 73.8711C136.98 73.7773 137.145 73.6445 137.262 73.4727C137.379 73.293 137.438 73.0781 137.438 72.8281C137.438 72.5703 137.379 72.3555 137.262 72.1836C137.145 72.0039 136.98 71.8711 136.77 71.7852C136.566 71.6914 136.324 71.6484 136.043 71.6562ZM137.883 67.7656H134.133V63.875H137.883V67.7656ZM142.148 77.2812C143.727 77.2812 145.086 77.4375 146.227 77.75C147.375 78.0547 148.254 78.5117 148.863 79.1211C149.48 79.7305 149.789 80.4609 149.789 81.3125C149.789 82.1641 149.48 82.8906 148.863 83.4922C148.254 84.1016 147.375 84.5625 146.227 84.875C145.086 85.1953 143.727 85.3555 142.148 85.3555C140.578 85.3555 139.219 85.1953 138.07 84.875C136.93 84.5625 136.047 84.1016 135.422 83.4922C134.805 82.8906 134.496 82.1641 134.496 81.3125C134.496 80.4609 134.805 79.7305 135.422 79.1211C136.047 78.5117 136.93 78.0547 138.07 77.75C139.219 77.4375 140.578 77.2812 142.148 77.2812ZM142.148 80.0352C141.234 80.0352 140.496 80.0781 139.934 80.1641C139.371 80.2422 138.953 80.3789 138.68 80.5742C138.406 80.7617 138.27 81.0078 138.27 81.3125C138.27 81.6016 138.406 81.8359 138.68 82.0156C138.953 82.1953 139.371 82.332 139.934 82.4258C140.504 82.5117 141.242 82.5547 142.148 82.5547C143.047 82.5547 143.777 82.5117 144.34 82.4258C144.91 82.332 145.328 82.1992 145.594 82.0273C145.867 81.8477 146.008 81.6094 146.016 81.3125C146.008 81 145.867 80.75 145.594 80.5625C145.328 80.375 144.914 80.2422 144.352 80.1641C143.789 80.0781 143.055 80.0352 142.148 80.0352Z" fill="#F6F6F6"/>
<path d="M83.2734 79.3672V80.3672H84.2734V79.3672H83.2734ZM63.4922 79.3672H62.4922V80.3672H63.4922V79.3672ZM63.4922 76.3203V75.3203H62.4922V76.3203H63.4922ZM83.2734 76.3203H84.2734V75.3203H83.2734V76.3203ZM75.1992 85.3203V86.3203H76.1992V85.3203H75.1992ZM71.4727 85.3203H70.4727V86.3203H71.4727V85.3203ZM71.4727 77.4688V76.4688H70.4727V77.4688H71.4727ZM75.1992 77.4688H76.1992V76.4688H75.1992V77.4688ZM81.2695 75.1602V76.1602H82.2695V75.1602H81.2695ZM65.8477 75.1602H64.8477V76.1602H65.8477V75.1602ZM65.8477 72.2188V71.2188H64.8477V72.2188H65.8477ZM81.2695 72.2188H82.2695V71.2188H81.2695V72.2188ZM81.0352 67.3672V68.3672H82.0352V67.3672H81.0352ZM69.5273 67.3672V66.3672H68.5273V67.3672H69.5273ZM69.5273 72.8633V73.8633H70.5273V72.8633H69.5273ZM65.8477 72.8633H64.8477V73.8633H65.8477V72.8633ZM65.8477 64.4492V63.4492H64.8477V64.4492H65.8477ZM81.0352 64.4492H82.0352V63.4492H81.0352V64.4492ZM80.6133 71.2344V72.2344H81.6133V71.2344H80.6133ZM68.5312 71.2344H67.5312V72.2344H68.5312V71.2344ZM68.5312 68.3867V67.3867H67.5312V68.3867H68.5312ZM80.6133 68.3867H81.6133V67.3867H80.6133V68.3867ZM83.2734 78.3672H63.4922V80.3672H83.2734V78.3672ZM64.4922 79.3672V76.3203H62.4922V79.3672H64.4922ZM63.4922 77.3203H83.2734V75.3203H63.4922V77.3203ZM82.2734 76.3203V79.3672H84.2734V76.3203H82.2734ZM75.1992 84.3203H71.4727V86.3203H75.1992V84.3203ZM72.4727 85.3203V77.4688H70.4727V85.3203H72.4727ZM71.4727 78.4688H75.1992V76.4688H71.4727V78.4688ZM74.1992 77.4688V85.3203H76.1992V77.4688H74.1992ZM81.2695 74.1602H65.8477V76.1602H81.2695V74.1602ZM66.8477 75.1602V72.2188H64.8477V75.1602H66.8477ZM65.8477 73.2188H81.2695V71.2188H65.8477V73.2188ZM80.2695 72.2188V75.1602H82.2695V72.2188H80.2695ZM81.0352 66.3672H69.5273V68.3672H81.0352V66.3672ZM68.5273 67.3672V72.8633H70.5273V67.3672H68.5273ZM69.5273 71.8633H65.8477V73.8633H69.5273V71.8633ZM66.8477 72.8633V64.4492H64.8477V72.8633H66.8477ZM65.8477 65.4492H81.0352V63.4492H65.8477V65.4492ZM80.0352 64.4492V67.3672H82.0352V64.4492H80.0352ZM80.6133 70.2344H68.5312V72.2344H80.6133V70.2344ZM69.5312 71.2344V68.3867H67.5312V71.2344H69.5312ZM68.5312 69.3867H80.6133V67.3867H68.5312V69.3867ZM79.6133 68.3867V71.2344H81.6133V68.3867H79.6133ZM92.5312 81.0898V82.0898H93.5312V81.0898H92.5312ZM88.7578 81.0898H87.7578V82.0898H88.7578V81.0898ZM88.7578 75.4414V74.4414H87.7578V75.4414H88.7578ZM92.5312 75.4414H93.5312V74.4414H92.5312V75.4414ZM99.4453 81.1602V82.1602H100.445V81.1602H99.4453ZM95.6719 81.1602H94.6719V82.1602H95.6719V81.1602ZM95.6719 75.4883V74.4883H94.6719V75.4883H95.6719ZM99.4453 75.4883H100.445V74.4883H99.4453V75.4883ZM104.039 83.0938V84.0938H105.039V83.0938H104.039ZM84.2578 83.0938H83.2578V84.0938H84.2578V83.0938ZM84.2578 80.1172V79.1172H83.2578V80.1172H84.2578ZM104.039 80.1172H105.039V79.1172H104.039V80.1172ZM102.539 68.1992V69.1992H103.539V68.1992H102.539ZM85.6523 68.1992H84.6523V69.1992H85.6523V68.1992ZM85.6523 65.2109V64.2109H84.6523V65.2109H85.6523ZM102.539 65.2109H103.539V64.2109H102.539V65.2109ZM102.41 76.6719V77.6719H103.41V76.6719H102.41ZM85.793 76.6719H84.793V77.6719H85.793V76.6719ZM85.793 73.6602V72.6602H84.793V73.6602H85.793ZM102.41 73.6602H103.41V72.6602H102.41V73.6602ZM92.1328 74.0586V75.0586H93.1328V74.0586H92.1328ZM88.3594 74.0586H87.3594V75.0586H88.3594V74.0586ZM88.3594 67.6953V66.6953H87.3594V67.6953H88.3594ZM92.1328 67.6953H93.1328V66.6953H92.1328V67.6953ZM99.75 74.0586V75.0586H100.75V74.0586H99.75ZM96.0469 74.0586H95.0469V75.0586H96.0469V74.0586ZM96.0469 67.6953V66.6953H95.0469V67.6953H96.0469ZM99.75 67.6953H100.75V66.6953H99.75V67.6953ZM92.5312 80.0898H88.7578V82.0898H92.5312V80.0898ZM89.7578 81.0898V75.4414H87.7578V81.0898H89.7578ZM88.7578 76.4414H92.5312V74.4414H88.7578V76.4414ZM91.5312 75.4414V81.0898H93.5312V75.4414H91.5312ZM99.4453 80.1602H95.6719V82.1602H99.4453V80.1602ZM96.6719 81.1602V75.4883H94.6719V81.1602H96.6719ZM95.6719 76.4883H99.4453V74.4883H95.6719V76.4883ZM98.4453 75.4883V81.1602H100.445V75.4883H98.4453ZM104.039 82.0938H84.2578V84.0938H104.039V82.0938ZM85.2578 83.0938V80.1172H83.2578V83.0938H85.2578ZM84.2578 81.1172H104.039V79.1172H84.2578V81.1172ZM103.039 80.1172V83.0938H105.039V80.1172H103.039ZM102.539 67.1992H85.6523V69.1992H102.539V67.1992ZM86.6523 68.1992V65.2109H84.6523V68.1992H86.6523ZM85.6523 66.2109H102.539V64.2109H85.6523V66.2109ZM101.539 65.2109V68.1992H103.539V65.2109H101.539ZM102.41 75.6719H85.793V77.6719H102.41V75.6719ZM86.793 76.6719V73.6602H84.793V76.6719H86.793ZM85.793 74.6602H102.41V72.6602H85.793V74.6602ZM101.41 73.6602V76.6719H103.41V73.6602H101.41ZM92.1328 73.0586H88.3594V75.0586H92.1328V73.0586ZM89.3594 74.0586V67.6953H87.3594V74.0586H89.3594ZM88.3594 68.6953H92.1328V66.6953H88.3594V68.6953ZM91.1328 67.6953V74.0586H93.1328V67.6953H91.1328ZM99.75 73.0586H96.0469V75.0586H99.75V73.0586ZM97.0469 74.0586V67.6953H95.0469V74.0586H97.0469ZM96.0469 68.6953H99.75V66.6953H96.0469V68.6953ZM98.75 67.6953V74.0586H100.75V67.6953H98.75ZM118.371 67.7188L119.371 67.7242V67.7188H118.371ZM117.703 71.7734L118.647 72.1038L118.648 72.102L117.703 71.7734ZM115.641 75.0664L116.348 75.7735L116.351 75.7706L115.641 75.0664ZM112.09 77.1406L111.255 77.6915L111.669 78.319L112.387 78.0954L112.09 77.1406ZM110.156 74.2109L109.87 73.2528L108.58 73.6381L109.322 74.7618L110.156 74.2109ZM113.098 72.6406L112.43 71.8966L112.426 71.9L113.098 72.6406ZM114.738 70.3555L115.669 70.7209L115.67 70.7179L114.738 70.3555ZM115.23 66.0664V65.0664H114.23V66.0664H115.23ZM118.371 66.0664H119.371V65.0664H118.371V66.0664ZM121.09 72.3477L120.428 73.0973L120.432 73.1012L121.09 72.3477ZM123.973 73.8242L124.811 74.3689L125.545 73.2384L124.251 72.8637L123.973 73.8242ZM122.062 76.7656L121.769 77.7215L122.49 77.9432L122.901 77.3103L122.062 76.7656ZM118.605 74.7734L117.895 75.4775L117.901 75.4836L118.605 74.7734ZM116.004 67.7188L117.004 67.7244V67.7188H116.004ZM116.004 66.0664V65.0664H115.004V66.0664H116.004ZM119.051 66.0664H120.051V65.0664H119.051V66.0664ZM123.012 68.0234V69.0234H124.012V68.0234H123.012ZM111.152 68.0234H110.152V69.0234H111.152V68.0234ZM111.152 65.0469V64.0469H110.152V65.0469H111.152ZM123.012 65.0469H124.012V64.0469H123.012V65.0469ZM128.484 79.1914V80.1914H129.484V79.1914H128.484ZM124.711 79.1914H123.711V80.1914H124.711V79.1914ZM124.711 63.6875V62.6875H123.711V63.6875H124.711ZM128.484 63.6875H129.484V62.6875H128.484V63.6875ZM129.012 85.0273V86.0273H130.012V85.0273H129.012ZM113.637 85.0273H112.637V86.0273H113.637V85.0273ZM113.637 82.0273V81.0273H112.637V82.0273H113.637ZM129.012 82.0273H130.012V81.0273H129.012V82.0273ZM117.457 83.5859V84.5859H118.457V83.5859H117.457ZM113.637 83.5859H112.637V84.5859H113.637V83.5859ZM113.637 77.8203V76.8203H112.637V77.8203H113.637ZM117.457 77.8203H118.457V76.8203H117.457V77.8203ZM117.371 67.7133C117.364 69.058 117.157 70.2995 116.759 71.4449L118.648 72.102C119.124 70.7317 119.363 69.2701 119.371 67.7242L117.371 67.7133ZM116.759 71.4431C116.371 72.5519 115.764 73.522 114.931 74.3622L116.351 75.7706C117.392 74.7202 118.16 73.495 118.647 72.1038L116.759 71.4431ZM114.934 74.3593C114.125 75.1682 113.088 75.7824 111.792 76.1859L112.387 78.0954C113.951 77.6082 115.282 76.8396 116.348 75.7735L114.934 74.3593ZM112.924 76.5898L110.991 73.6601L109.322 74.7618L111.255 77.6915L112.924 76.5898ZM110.442 75.1691C111.757 74.7765 112.879 74.1894 113.77 73.3813L112.426 71.9C111.801 72.4669 110.962 72.9266 109.87 73.2528L110.442 75.1691ZM113.766 73.3847C114.63 72.6084 115.276 71.7216 115.669 70.7209L113.807 69.9901C113.544 70.6612 113.096 71.2979 112.43 71.8966L113.766 73.3847ZM115.67 70.7179C116.044 69.7575 116.23 68.7556 116.23 67.7188H114.23C114.23 68.5101 114.089 69.266 113.806 69.993L115.67 70.7179ZM116.23 67.7188V66.0664H114.23V67.7188H116.23ZM115.23 67.0664H118.371V65.0664H115.23V67.0664ZM117.371 66.0664V67.7188H119.371V66.0664H117.371ZM118.051 67.7188C118.051 68.7026 118.23 69.6518 118.59 70.5596L120.449 69.8232C120.184 69.1528 120.051 68.4537 120.051 67.7188H118.051ZM118.59 70.5596C118.969 71.5162 119.594 72.3607 120.428 73.0973L121.752 71.5981C121.117 71.0377 120.695 70.4447 120.449 69.8232L118.59 70.5596ZM120.432 73.1012C121.302 73.8598 122.403 74.411 123.695 74.7848L124.251 72.8637C123.167 72.5499 122.346 72.1168 121.747 71.5941L120.432 73.1012ZM123.134 73.2796L121.224 76.221L122.901 77.3103L124.811 74.3689L123.134 73.2796ZM122.356 75.8097C121.09 75.4206 120.085 74.8321 119.31 74.0633L117.901 75.4836C118.938 76.5116 120.239 77.2513 121.769 77.7215L122.356 75.8097ZM119.316 74.0694C118.522 73.2685 117.941 72.3413 117.569 71.2785L115.681 71.9403C116.152 73.2837 116.892 74.4658 117.895 75.4775L119.316 74.0694ZM117.569 71.2785C117.188 70.1929 116.997 69.0108 117.004 67.7244L115.004 67.7131C114.996 69.2079 115.218 70.6196 115.681 71.9403L117.569 71.2785ZM117.004 67.7188V66.0664H115.004V67.7188H117.004ZM116.004 67.0664H119.051V65.0664H116.004V67.0664ZM118.051 66.0664V67.7188H120.051V66.0664H118.051ZM123.012 67.0234H111.152V69.0234H123.012V67.0234ZM112.152 68.0234V65.0469H110.152V68.0234H112.152ZM111.152 66.0469H123.012V64.0469H111.152V66.0469ZM122.012 65.0469V68.0234H124.012V65.0469H122.012ZM128.484 78.1914H124.711V80.1914H128.484V78.1914ZM125.711 79.1914V63.6875H123.711V79.1914H125.711ZM124.711 64.6875H128.484V62.6875H124.711V64.6875ZM127.484 63.6875V79.1914H129.484V63.6875H127.484ZM129.012 84.0273H113.637V86.0273H129.012V84.0273ZM114.637 85.0273V82.0273H112.637V85.0273H114.637ZM113.637 83.0273H129.012V81.0273H113.637V83.0273ZM128.012 82.0273V85.0273H130.012V82.0273H128.012ZM117.457 82.5859H113.637V84.5859H117.457V82.5859ZM114.637 83.5859V77.8203H112.637V83.5859H114.637ZM113.637 78.8203H117.457V76.8203H113.637V78.8203ZM116.457 77.8203V83.5859H118.457V77.8203H116.457ZM149.695 77.1523V78.1523H150.695V77.1523H149.695ZM146.133 77.1523H145.133V78.1523H146.133V77.1523ZM146.133 63.6406V62.6406H145.133V63.6406H146.133ZM149.695 63.6406H150.695V62.6406H149.695V63.6406ZM147.047 71.7266V72.7266H148.047V71.7266H147.047ZM143.918 71.7266H142.918V72.7266H143.918V71.7266ZM143.918 68.6797V67.6797H142.918V68.6797H143.918ZM147.047 68.6797H148.047V67.6797H147.047V68.6797ZM145.148 76.4844V77.4844H146.148V76.4844H145.148ZM141.645 76.4844H140.645V77.4844H141.645V76.4844ZM141.645 64.0391V63.0391H140.645V64.0391H141.645ZM145.148 64.0391H146.148V63.0391H145.148V64.0391ZM141.164 68.5391V69.5391H142.164V68.5391H141.164ZM130.852 68.5391H129.852V69.5391H130.852V68.5391ZM130.852 65.6445V64.6445H129.852V65.6445H130.852ZM141.164 65.6445H142.164V64.6445H141.164V65.6445ZM138.492 69.4766L138.089 70.3917L138.101 70.3967L138.492 69.4766ZM140.203 70.8242L139.381 71.394L139.386 71.4013L140.203 70.8242ZM140.203 74.7969L139.39 74.2146L139.389 74.2167L140.203 74.7969ZM138.492 76.1328L138.887 77.0515L138.892 77.0494L138.492 76.1328ZM133.617 76.1328L133.206 77.0446L133.218 77.0499L133.617 76.1328ZM131.93 74.7969L131.111 75.3718L131.116 75.3781L131.12 75.3844L131.93 74.7969ZM131.93 70.8242L131.113 70.2471L131.108 70.2544L131.93 70.8242ZM133.617 69.4766L134.02 70.392L134.024 70.39L133.617 69.4766ZM136.043 71.6562L136.014 72.6558L136.043 72.6566L136.071 72.6559L136.043 71.6562ZM135.316 71.7852L135.706 72.7061L135.714 72.7026L135.723 72.699L135.316 71.7852ZM134.836 72.1836L135.662 72.7469L135.668 72.7385L135.674 72.7299L134.836 72.1836ZM134.824 73.4727L133.97 73.9926L133.975 74.0011L133.981 74.0095L134.824 73.4727ZM136.77 73.8711L136.363 72.9573L136.357 72.9602L136.35 72.9631L136.77 73.8711ZM137.262 73.4727L138.088 74.036L138.094 74.0275L138.099 74.0189L137.262 73.4727ZM137.262 72.1836L136.424 72.7299L136.43 72.7385L136.435 72.7469L137.262 72.1836ZM136.77 71.7852L136.35 72.6931L136.371 72.7027L136.392 72.7112L136.77 71.7852ZM137.883 67.7656V68.7656H138.883V67.7656H137.883ZM134.133 67.7656H133.133V68.7656H134.133V67.7656ZM134.133 63.875V62.875H133.133V63.875H134.133ZM137.883 63.875H138.883V62.875H137.883V63.875ZM146.227 77.75L145.962 78.7145L145.97 78.7166L146.227 77.75ZM148.863 79.1211L148.156 79.8282L148.161 79.8327L148.863 79.1211ZM148.863 83.4922L148.165 82.776L148.156 82.7851L148.863 83.4922ZM146.227 84.875L145.964 83.9101L145.956 83.9122L146.227 84.875ZM138.07 84.875L138.339 83.9118L138.335 83.9105L138.07 84.875ZM135.422 83.4922L136.12 82.7762L136.12 82.7761L135.422 83.4922ZM135.422 79.1211L134.724 78.4051L134.719 78.4095L135.422 79.1211ZM138.07 77.75L138.328 78.7161L138.333 78.7149L138.07 77.75ZM139.934 80.1641L140.071 81.1546L140.085 81.1526L139.934 80.1641ZM138.68 80.5742L139.245 81.3989L139.253 81.3935L139.261 81.388L138.68 80.5742ZM139.934 82.4258L139.769 83.4122L139.777 83.4135L139.785 83.4146L139.934 82.4258ZM144.34 82.4258L144.491 83.4144L144.502 83.4125L144.34 82.4258ZM145.594 82.0273L146.137 82.8669L146.143 82.863L145.594 82.0273ZM146.016 81.3125L147.015 81.3388L147.016 81.3132L147.015 81.2875L146.016 81.3125ZM145.594 80.5625L145.017 81.3795L145.028 81.3872L145.594 80.5625ZM144.352 80.1641L144.201 81.1527L144.214 81.1546L144.352 80.1641ZM149.695 76.1523H146.133V78.1523H149.695V76.1523ZM147.133 77.1523V63.6406H145.133V77.1523H147.133ZM146.133 64.6406H149.695V62.6406H146.133V64.6406ZM148.695 63.6406V77.1523H150.695V63.6406H148.695ZM147.047 70.7266H143.918V72.7266H147.047V70.7266ZM144.918 71.7266V68.6797H142.918V71.7266H144.918ZM143.918 69.6797H147.047V67.6797H143.918V69.6797ZM146.047 68.6797V71.7266H148.047V68.6797H146.047ZM145.148 75.4844H141.645V77.4844H145.148V75.4844ZM142.645 76.4844V64.0391H140.645V76.4844H142.645ZM141.645 65.0391H145.148V63.0391H141.645V65.0391ZM144.148 64.0391V76.4844H146.148V64.0391H144.148ZM141.164 67.5391H130.852V69.5391H141.164V67.5391ZM131.852 68.5391V65.6445H129.852V68.5391H131.852ZM130.852 66.6445H141.164V64.6445H130.852V66.6445ZM140.164 65.6445V68.5391H142.164V65.6445H140.164ZM136.043 69.9961C136.83 69.9961 137.506 70.1347 138.089 70.3916L138.896 68.5615C138.025 68.1778 137.069 67.9961 136.043 67.9961V69.9961ZM138.101 70.3967C138.683 70.6444 139.095 70.9811 139.381 71.394L141.025 70.2544C140.499 69.4954 139.77 68.9337 138.884 68.5564L138.101 70.3967ZM139.386 71.4013C139.676 71.8105 139.824 72.2749 139.824 72.8281H141.824C141.824 71.8814 141.559 71.0098 141.02 70.2471L139.386 71.4013ZM139.824 72.8281C139.824 73.3609 139.678 73.8121 139.39 74.2146L141.016 75.3792C141.556 74.6254 141.824 73.7641 141.824 72.8281H139.824ZM139.389 74.2167C139.102 74.6191 138.685 74.9577 138.092 75.2162L138.892 77.0494C139.768 76.6673 140.492 76.1153 141.018 75.3771L139.389 74.2167ZM138.097 75.2142C137.512 75.4657 136.833 75.6016 136.043 75.6016V77.6016C137.065 77.6016 138.019 77.4249 138.887 77.0514L138.097 75.2142ZM136.043 75.6016C135.262 75.6016 134.592 75.4661 134.016 75.2157L133.218 77.0499C134.08 77.4245 135.027 77.6016 136.043 77.6016V75.6016ZM134.028 75.2211C133.458 74.9645 133.04 74.6241 132.739 74.2094L131.12 75.3844C131.647 76.1102 132.354 76.6605 133.206 77.0445L134.028 75.2211ZM132.748 74.2219C132.465 73.8191 132.32 73.3653 132.32 72.8281H130.32C130.32 73.7597 130.582 74.6184 131.111 75.3718L132.748 74.2219ZM132.32 72.8281C132.32 72.2706 132.467 71.8036 132.751 71.394L131.108 70.2544C130.579 71.0167 130.32 71.8857 130.32 72.8281H132.32ZM132.746 71.4013C133.047 70.9759 133.461 70.6377 134.02 70.392L133.215 68.5611C132.352 68.9404 131.64 69.5007 131.113 70.2471L132.746 71.4013ZM134.024 70.39C134.598 70.1343 135.265 69.9961 136.043 69.9961V67.9961C135.024 67.9961 134.074 68.1782 133.21 68.5632L134.024 70.39ZM136.072 70.6567C135.676 70.6454 135.281 70.7066 134.91 70.8713L135.723 72.699C135.774 72.6762 135.863 72.6515 136.014 72.6558L136.072 70.6567ZM134.927 70.8642C134.546 71.0254 134.227 71.286 133.998 71.6373L135.674 72.7299C135.677 72.7252 135.679 72.7226 135.68 72.7214C135.681 72.7202 135.682 72.7196 135.682 72.719C135.683 72.7185 135.689 72.7134 135.706 72.7061L134.927 70.8642ZM134.01 71.6203C133.755 71.9941 133.66 72.4178 133.66 72.8281H135.66C135.66 72.7745 135.666 72.7462 135.669 72.7368C135.671 72.7288 135.67 72.7349 135.662 72.7469L134.01 71.6203ZM133.66 72.8281C133.66 73.2267 133.749 73.6289 133.97 73.9926L135.678 72.9527C135.678 72.9522 135.674 72.9464 135.67 72.9301C135.666 72.9128 135.66 72.8803 135.66 72.8281H133.66ZM133.981 74.0095C134.209 74.3688 134.533 74.6222 134.899 74.7849L135.711 72.9573C135.68 72.9436 135.667 72.9334 135.665 72.9314C135.663 72.93 135.665 72.932 135.668 72.9358L133.981 74.0095ZM134.899 74.7849C135.262 74.9465 135.652 75.0117 136.043 75.0117V73.0117C135.872 73.0117 135.769 72.9832 135.711 72.9573L134.899 74.7849ZM136.043 75.0117C136.433 75.0117 136.825 74.9469 137.189 74.7791L136.35 72.9631C136.308 72.9828 136.216 73.0117 136.043 73.0117V75.0117ZM137.176 74.7849C137.537 74.6242 137.855 74.378 138.088 74.036L136.435 72.9093C136.434 72.9111 136.424 72.9305 136.363 72.9573L137.176 74.7849ZM138.099 74.0189C138.339 73.6513 138.438 73.2393 138.438 72.8281H136.438C136.438 72.875 136.432 72.9017 136.429 72.9136C136.427 72.9197 136.426 72.923 136.425 72.9243C136.425 72.9256 136.424 72.9261 136.424 72.9264L138.099 74.0189ZM138.438 72.8281C138.438 72.4178 138.343 71.9941 138.088 71.6203L136.435 72.7469C136.427 72.7349 136.427 72.7288 136.429 72.7368C136.431 72.7462 136.438 72.7745 136.438 72.8281H138.438ZM138.099 71.6373C137.864 71.2763 137.534 71.0168 137.147 70.8591L136.392 72.7112C136.414 72.7201 136.422 72.7264 136.422 72.7265C136.422 72.7267 136.422 72.7267 136.422 72.7267C136.422 72.7266 136.422 72.7266 136.422 72.7266C136.422 72.7266 136.422 72.7268 136.422 72.7272C136.423 72.7277 136.423 72.7285 136.424 72.7299L138.099 71.6373ZM137.189 70.8772C136.814 70.7044 136.412 70.6456 136.015 70.6566L136.071 72.6559C136.237 72.6513 136.319 72.6784 136.35 72.6931L137.189 70.8772ZM137.883 66.7656H134.133V68.7656H137.883V66.7656ZM135.133 67.7656V63.875H133.133V67.7656H135.133ZM134.133 64.875H137.883V62.875H134.133V64.875ZM136.883 63.875V67.7656H138.883V63.875H136.883ZM142.148 78.2812C143.665 78.2812 144.931 78.4319 145.962 78.7145L146.491 76.7855C145.241 76.4431 143.788 76.2812 142.148 76.2812V78.2812ZM145.97 78.7166C147.01 78.9924 147.71 79.382 148.156 79.8282L149.57 78.414C148.798 77.6414 147.74 77.117 146.483 76.7834L145.97 78.7166ZM148.161 79.8327C148.592 80.2581 148.789 80.7339 148.789 81.3125H150.789C150.789 80.188 150.369 79.2029 149.566 78.4095L148.161 79.8327ZM148.789 81.3125C148.789 81.8907 148.592 82.3602 148.165 82.7761L149.561 84.2083C150.369 83.4211 150.789 82.4374 150.789 81.3125H148.789ZM148.156 82.7851C147.708 83.2331 147.005 83.6267 145.964 83.9101L146.489 85.8399C147.745 85.4983 148.8 84.97 149.57 84.1993L148.156 82.7851ZM145.956 83.9122C144.927 84.2012 143.663 84.3555 142.148 84.3555V86.3555C143.79 86.3555 145.245 86.1894 146.497 85.8378L145.956 83.9122ZM142.148 84.3555C140.642 84.3555 139.377 84.2014 138.339 83.9118L137.802 85.8382C139.06 86.1893 140.514 86.3555 142.148 86.3555V84.3555ZM138.335 83.9105C137.302 83.6276 136.588 83.2328 136.12 82.7762L134.724 84.2082C135.505 84.9703 136.558 85.4974 137.806 85.8395L138.335 83.9105ZM136.12 82.7761C135.693 82.3602 135.496 81.8907 135.496 81.3125H133.496C133.496 82.4374 133.916 83.4211 134.724 84.2083L136.12 82.7761ZM135.496 81.3125C135.496 80.7339 135.694 80.2581 136.124 79.8327L134.719 78.4095C133.916 79.2029 133.496 80.188 133.496 81.3125H135.496ZM136.12 79.8371C136.586 79.3823 137.297 78.9915 138.328 78.7161L137.812 76.7839C136.562 77.1178 135.507 77.6411 134.724 78.4051L136.12 79.8371ZM138.333 78.7149C139.373 78.4318 140.64 78.2812 142.148 78.2812V76.2812C140.516 76.2812 139.064 76.4432 137.808 76.7851L138.333 78.7149ZM142.148 79.0352C141.21 79.0352 140.416 79.0788 139.783 79.1755L140.085 81.1526C140.577 81.0774 141.259 81.0352 142.148 81.0352V79.0352ZM139.796 79.1736C139.17 79.2605 138.565 79.4275 138.098 79.7605L139.261 81.388C139.342 81.3303 139.572 81.2239 140.071 81.1546L139.796 79.1736ZM138.114 79.7495C137.597 80.1041 137.27 80.6453 137.27 81.3125H139.27C139.27 81.3116 139.27 81.3204 139.266 81.3359C139.262 81.3518 139.255 81.369 139.246 81.3851C139.227 81.4195 139.214 81.4206 139.245 81.3989L138.114 79.7495ZM137.27 81.3125C137.27 81.9872 137.619 82.5153 138.131 82.8513L139.229 81.1799C139.195 81.1577 139.212 81.1603 139.236 81.2012C139.247 81.221 139.257 81.2434 139.263 81.2663C139.269 81.2889 139.27 81.3053 139.27 81.3125H137.27ZM138.131 82.8513C138.577 83.1444 139.156 83.3101 139.769 83.4122L140.098 81.4394C139.586 81.354 139.33 81.2462 139.229 81.1799L138.131 82.8513ZM139.785 83.4146C140.424 83.5109 141.217 83.5547 142.148 83.5547V81.5547C141.267 81.5547 140.584 81.5125 140.083 81.4369L139.785 83.4146ZM142.148 83.5547C143.072 83.5547 143.858 83.5109 144.491 83.4143L144.189 81.4373C143.696 81.5125 143.022 81.5547 142.148 81.5547V83.5547ZM144.502 83.4125C145.114 83.3119 145.696 83.152 146.137 82.8669L145.05 81.1878C144.96 81.2464 144.706 81.3522 144.178 81.439L144.502 83.4125ZM146.143 82.863C146.657 82.525 146.998 82.0001 147.015 81.3388L145.016 81.2862C145.016 81.2845 145.017 81.2738 145.021 81.2569C145.026 81.2396 145.034 81.2218 145.043 81.2056C145.063 81.1713 145.077 81.1705 145.045 81.1916L146.143 82.863ZM147.015 81.2875C146.999 80.632 146.679 80.0938 146.159 79.7378L145.028 81.3872C145.044 81.3981 145.049 81.4037 145.048 81.4022C145.046 81.4004 145.04 81.3933 145.033 81.3809C145.026 81.3683 145.021 81.3556 145.018 81.345C145.015 81.3348 145.016 81.3313 145.016 81.3375L147.015 81.2875ZM146.17 79.7455C145.711 79.4209 145.108 79.2595 144.489 79.1736L144.214 81.1546C144.72 81.2248 144.946 81.3291 145.017 81.3795L146.17 79.7455ZM144.503 79.1755C143.87 79.0789 143.079 79.0352 142.148 79.0352V81.0352C143.03 81.0352 143.708 81.0774 144.201 81.1526L144.503 79.1755Z" fill="black" mask="url(#path-2-outside-1_347_1042)"/>
<path d="M44.7656 156.512H32.7539V155.262H44.7656V156.512ZM46.6016 161.414H30.7031V160.145H46.6016V161.414ZM39.375 160.73H37.8516V155.906H39.375V160.73ZM44.5703 148.914H34.3164V155.75H32.7539V147.645H44.5703V148.914ZM44.1992 152.645H33.8281V151.395H44.1992V152.645ZM63.8672 157.41H47.9688V156.141H63.8672V157.41ZM62.1875 163.406H50.0781V162.137H62.1875V163.406ZM51.6211 162.508H50.0781V158.582H51.6211V162.508ZM56.6602 156.707H55.1562V153.641H56.6602V156.707ZM61.8164 151.082H51.5625V153.445H50.0391V149.949H60.2734V148.016H49.9805V146.785H61.8164V151.082ZM62.1875 154.227H50.0391V153.016H62.1875V154.227ZM74.0039 149.402H66.0742V148.152H74.0039V149.402ZM70.3516 158.992H68.8477V153.113H70.3516V158.992ZM74.9023 149.188C74.8958 150.242 74.86 151.29 74.7949 152.332C74.7363 153.374 74.6029 154.578 74.3945 155.945L72.8516 155.809C73.0729 154.461 73.2129 153.279 73.2715 152.264C73.3301 151.242 73.3594 150.203 73.3594 149.148V149.051V148.152H74.9023V149.051V149.188ZM78.6719 163.582H77.1484V146.219H78.6719V163.582ZM81.4844 154.812H78.2617V153.484H81.4844V154.812ZM65.0977 158.484C67.207 158.471 69.1634 158.432 70.9668 158.367C72.7702 158.296 74.4661 158.165 76.0547 157.977L76.1328 159.129C74.4857 159.383 72.7441 159.555 70.9082 159.646C69.0723 159.731 67.2005 159.767 65.293 159.754L65.0977 158.484ZM103.457 158.016H87.5586V156.746H103.457V158.016ZM96.2305 163.582H94.7266V157.098H96.2305V163.582ZM101.66 154.949H89.6875V153.699H101.66V154.949ZM101.465 148.289H91.2109V154.07H89.6875V147.039H101.465V148.289ZM101.055 151.551H90.7617V150.32H101.055V151.551ZM110.84 160.613H109.297V155.613H110.84V160.613ZM116.211 160.613H114.688V155.613H116.211V160.613ZM120.762 161.453H104.863V160.184H120.762V161.453ZM119.238 149.109H106.27V147.84H119.238V149.109ZM119.199 156.043H106.309V154.773H119.199V156.043ZM110.547 155.047H109.023V148.855H110.547V155.047ZM116.484 155.047H114.98V148.855H116.484V155.047ZM141.562 155.105H140.02V146.219H141.562V155.105ZM136.172 147.098C136.172 148.523 135.85 149.796 135.205 150.916C134.561 152.029 133.626 152.97 132.402 153.738C131.185 154.5 129.72 155.086 128.008 155.496L127.461 154.227C128.965 153.875 130.241 153.393 131.289 152.781C132.344 152.169 133.145 151.447 133.691 150.613C134.238 149.773 134.512 148.842 134.512 147.82V147.098H136.172ZM135.195 148.367H128.34V147.098H135.195V148.367ZM140.273 149.988H135.547V148.758H140.273V149.988ZM140.176 153.289H135.391V152.078H140.176V153.289ZM141.562 160.125H131.875V162.938H130.352V158.953H140.02V157.137H130.312V155.887H141.562V160.125ZM142.148 163.426H130.352V162.156H142.148V163.426ZM153.184 149.402H145.254V148.152H153.184V149.402ZM149.531 158.992H148.027V153.113H149.531V158.992ZM154.082 149.188C154.076 150.242 154.04 151.29 153.975 152.332C153.916 153.374 153.783 154.578 153.574 155.945L152.031 155.809C152.253 154.461 152.393 153.279 152.451 152.264C152.51 151.242 152.539 150.203 152.539 149.148V149.051V148.152H154.082V149.051V149.188ZM157.852 163.582H156.328V146.219H157.852V163.582ZM160.664 154.812H157.441V153.484H160.664V154.812ZM144.277 158.484C146.387 158.471 148.343 158.432 150.146 158.367C151.95 158.296 153.646 158.165 155.234 157.977L155.312 159.129C153.665 159.383 151.924 159.555 150.088 159.646C148.252 159.731 146.38 159.767 144.473 159.754L144.277 158.484ZM175.781 152.723H163.887V151.492H175.781V152.723ZM177.617 156.336H161.719V155.086H177.617V156.336ZM165.41 152.117H163.887V146.863H165.41V152.117ZM175.879 163.152H163.789V161.883H175.879V163.152ZM165.312 162.254H163.789V158.113H165.312V162.254ZM45.2637 179.086H43.1055V170.082H45.2637V179.086ZM45.2832 184.486H35.7324V186.518H33.6133V182.865H43.1152V181.586H33.5742V179.896H45.2832V184.486ZM45.8105 187.582H33.6133V185.854H45.8105V187.582ZM36.748 171.859C36.7415 172.973 36.5397 174.011 36.1426 174.975C35.7454 175.932 35.166 176.768 34.4043 177.484C33.6426 178.201 32.7279 178.728 31.6602 179.066L30.5664 177.357C31.4974 177.064 32.2917 176.638 32.9492 176.078C33.6068 175.512 34.1016 174.867 34.4336 174.145C34.7656 173.415 34.9316 172.654 34.9316 171.859V170.521H36.748V171.859ZM37.1777 171.859C37.1712 172.628 37.3307 173.357 37.6562 174.047C37.9883 174.737 38.4733 175.346 39.1113 175.873C39.7559 176.394 40.5371 176.791 41.4551 177.064L40.3906 178.744C39.3229 178.419 38.4115 177.917 37.6562 177.24C36.9076 176.563 36.3379 175.766 35.9473 174.848C35.5566 173.93 35.3613 172.934 35.3613 171.859V170.521H37.1777V171.859ZM63.0566 187.719H61.0059V170.082H63.0566V187.719ZM58.0273 177.992H54.8926V176.244H58.0273V177.992ZM59.4629 186.879H57.4316V170.424H59.4629V186.879ZM52.8906 174.916C52.8841 176.257 52.7311 177.54 52.4316 178.764C52.1322 179.981 51.6829 181.078 51.084 182.055C50.4915 183.031 49.7591 183.79 48.8867 184.33L47.5488 182.729C48.3691 182.227 49.056 181.563 49.6094 180.736C50.1693 179.91 50.5794 179.001 50.8398 178.012C51.1003 177.016 51.2305 175.984 51.2305 174.916V172.914H52.8906V174.916ZM53.3203 174.916C53.3203 175.951 53.4473 176.941 53.7012 177.885C53.9616 178.829 54.3587 179.688 54.8926 180.463C55.4264 181.238 56.1003 181.859 56.9141 182.328L55.6348 183.92C54.7493 183.399 54.0137 182.68 53.4277 181.762C52.8483 180.837 52.4154 179.796 52.1289 178.637C51.849 177.471 51.709 176.231 51.709 174.916V172.914H53.3203V174.916ZM56.1816 173.734H48.1641V171.977H56.1816V173.734ZM81.2988 185.688H65.166V183.9H81.2988V185.688ZM74.2578 184.662H72.1191V180.414H74.2578V184.662ZM79.375 176.957H69.2383V180.16H67.0703V175.248H77.2363V173.041H67.041V171.283H79.375V176.957ZM79.7949 181.01H67.0703V179.242H79.7949V181.01ZM101.035 187.709H98.8672V170.082H101.035V187.709ZM103.652 178.783H100.479V176.986H103.652V178.783ZM96.377 171.928C96.3704 173.725 96.1003 175.398 95.5664 176.947C95.0326 178.49 94.1699 179.91 92.9785 181.205C91.7871 182.501 90.2441 183.617 88.3496 184.555L87.1289 182.875C88.7174 182.074 90.0391 181.156 91.0938 180.121C92.1484 179.079 92.9362 177.914 93.457 176.625C93.9779 175.329 94.2383 173.891 94.2383 172.309V171.928H96.377ZM95.3418 173.715H88.0469V171.928H95.3418V173.715ZM110.352 172.689C110.352 173.861 110.166 174.952 109.795 175.961C109.424 176.97 108.87 177.849 108.135 178.598C107.399 179.34 106.51 179.896 105.469 180.268L104.297 178.559C105.221 178.24 106.003 177.781 106.641 177.182C107.285 176.583 107.767 175.902 108.086 175.141C108.411 174.372 108.574 173.555 108.574 172.689V171.01H110.352V172.689ZM110.742 172.895C110.742 173.65 110.902 174.369 111.221 175.053C111.546 175.73 112.018 176.335 112.637 176.869C113.262 177.396 114.014 177.8 114.893 178.08L113.73 179.77C112.728 179.431 111.872 178.923 111.162 178.246C110.452 177.562 109.912 176.765 109.541 175.854C109.17 174.936 108.984 173.949 108.984 172.895V171.01H110.742V172.895ZM118.418 180.639H116.25V170.082H118.418V180.639ZM120.889 176.176H117.803V174.369H120.889V176.176ZM112.676 181.029C113.887 181.029 114.935 181.16 115.82 181.42C116.712 181.68 117.396 182.061 117.871 182.562C118.346 183.064 118.584 183.663 118.584 184.359C118.584 185.062 118.346 185.665 117.871 186.166C117.396 186.667 116.712 187.048 115.82 187.309C114.935 187.576 113.887 187.709 112.676 187.709C111.445 187.709 110.381 187.576 109.482 187.309C108.59 187.048 107.9 186.667 107.412 186.166C106.93 185.665 106.689 185.062 106.689 184.359C106.689 183.663 106.93 183.064 107.412 182.562C107.9 182.061 108.594 181.68 109.492 181.42C110.391 181.16 111.452 181.029 112.676 181.029ZM112.676 182.738C111.868 182.738 111.182 182.803 110.615 182.934C110.049 183.057 109.616 183.24 109.316 183.48C109.017 183.721 108.87 184.014 108.877 184.359C108.87 184.717 109.014 185.02 109.307 185.268C109.606 185.508 110.039 185.694 110.605 185.824C111.172 185.948 111.862 186.01 112.676 186.01C113.483 186.01 114.17 185.948 114.736 185.824C115.303 185.694 115.729 185.508 116.016 185.268C116.302 185.02 116.445 184.717 116.445 184.359C116.445 184.014 116.299 183.721 116.006 183.48C115.719 183.233 115.293 183.048 114.727 182.924C114.16 182.8 113.477 182.738 112.676 182.738ZM139.883 172.631H128.535V170.893H139.883V172.631ZM142.686 178.783H126.553V177.045H142.686V178.783ZM135.664 182.143H133.496V178.246H135.664V182.143ZM140.703 172.24C140.703 173.275 140.671 174.213 140.605 175.053C140.547 175.886 140.394 176.833 140.146 177.895L137.998 177.65C138.161 176.954 138.281 176.299 138.359 175.688C138.438 175.076 138.486 174.532 138.506 174.057C138.525 173.581 138.535 173.021 138.535 172.377V172.24V170.893H140.703V172.24ZM140.752 187.719H138.574V183.275H128.174V181.547H140.752V187.719ZM150.742 183.637H148.574V180.756H150.742V183.637ZM158.525 187.719H156.377V170.082H158.525V187.719ZM144.629 182.836C146.823 182.823 148.766 182.784 150.459 182.719C152.152 182.654 153.779 182.517 155.342 182.309L155.488 183.93C153.763 184.223 151.982 184.415 150.146 184.506C148.317 184.59 146.338 184.633 144.209 184.633L143.906 182.836H144.629ZM155.02 173.842H144.277V172.123H155.02V173.842ZM149.639 174.643C150.498 174.643 151.26 174.779 151.924 175.053C152.588 175.326 153.102 175.714 153.467 176.215C153.831 176.716 154.014 177.292 154.014 177.943C154.014 178.594 153.831 179.167 153.467 179.662C153.102 180.157 152.585 180.541 151.914 180.814C151.25 181.088 150.492 181.225 149.639 181.225C148.786 181.225 148.031 181.088 147.373 180.814C146.722 180.541 146.211 180.157 145.84 179.662C145.475 179.167 145.296 178.594 145.303 177.943C145.296 177.292 145.475 176.716 145.84 176.215C146.211 175.714 146.722 175.326 147.373 175.053C148.031 174.779 148.786 174.643 149.639 174.643ZM149.639 176.303C149.189 176.303 148.792 176.368 148.447 176.498C148.109 176.628 147.842 176.82 147.646 177.074C147.451 177.322 147.354 177.611 147.354 177.943C147.354 178.282 147.448 178.572 147.637 178.812C147.832 179.053 148.102 179.239 148.447 179.369C148.792 179.499 149.189 179.561 149.639 179.555C150.094 179.561 150.495 179.499 150.84 179.369C151.191 179.239 151.462 179.053 151.65 178.812C151.839 178.572 151.934 178.282 151.934 177.943C151.934 177.611 151.839 177.322 151.65 177.074C151.462 176.82 151.191 176.628 150.84 176.498C150.495 176.368 150.094 176.303 149.639 176.303ZM150.752 173.09H148.574V170.141H150.752V173.09ZM171.367 178.48H168.262V176.732H171.367V178.48ZM176.348 187.719H174.258V170.082H176.348V187.719ZM172.715 186.889H170.654V170.385H172.715V186.889ZM165.107 171.42C165.882 171.42 166.559 171.677 167.139 172.191C167.725 172.699 168.177 173.428 168.496 174.379C168.815 175.329 168.975 176.443 168.975 177.719C168.975 179.001 168.815 180.118 168.496 181.068C168.177 182.019 167.725 182.751 167.139 183.266C166.559 183.78 165.882 184.037 165.107 184.037C164.339 184.037 163.669 183.78 163.096 183.266C162.529 182.751 162.083 182.019 161.758 181.068C161.439 180.118 161.279 179.001 161.279 177.719C161.279 176.443 161.439 175.329 161.758 174.379C162.083 173.428 162.529 172.699 163.096 172.191C163.669 171.677 164.339 171.42 165.107 171.42ZM165.107 173.471C164.73 173.471 164.404 173.633 164.131 173.959C163.857 174.278 163.649 174.757 163.506 175.395C163.363 176.033 163.294 176.807 163.301 177.719C163.294 178.63 163.363 179.402 163.506 180.033C163.649 180.665 163.857 181.143 164.131 181.469C164.404 181.794 164.73 181.957 165.107 181.957C165.492 181.957 165.824 181.794 166.104 181.469C166.383 181.143 166.595 180.665 166.738 180.033C166.888 179.402 166.963 178.63 166.963 177.719C166.963 176.807 166.888 176.033 166.738 175.395C166.595 174.757 166.383 174.278 166.104 173.959C165.824 173.633 165.492 173.471 165.107 173.471ZM43.8574 198.223H38.5645V196.484H43.8574V198.223ZM43.8574 202.217H38.5645V200.469H43.8574V202.217ZM35.4883 195.078C36.3542 195.078 37.1387 195.26 37.8418 195.625C38.5514 195.983 39.1048 196.488 39.502 197.139C39.9056 197.79 40.1107 198.525 40.1172 199.346C40.1107 200.166 39.9056 200.898 39.502 201.543C39.1048 202.188 38.5514 202.695 37.8418 203.066C37.1387 203.431 36.3542 203.613 35.4883 203.613C34.6094 203.613 33.8151 203.431 33.1055 203.066C32.3958 202.695 31.8392 202.188 31.4355 201.543C31.0319 200.898 30.8301 200.166 30.8301 199.346C30.8301 198.525 31.0319 197.79 31.4355 197.139C31.8392 196.488 32.3958 195.983 33.1055 195.625C33.8151 195.26 34.6094 195.078 35.4883 195.078ZM35.4883 196.943C34.9805 196.937 34.5312 197.031 34.1406 197.227C33.75 197.422 33.444 197.705 33.2227 198.076C33.0013 198.441 32.8906 198.864 32.8906 199.346C32.8906 199.827 33.0013 200.251 33.2227 200.615C33.444 200.98 33.75 201.266 34.1406 201.475C34.5312 201.676 34.9805 201.777 35.4883 201.777C35.9766 201.777 36.4128 201.676 36.7969 201.475C37.1875 201.266 37.4902 200.98 37.7051 200.615C37.9264 200.244 38.0371 199.821 38.0371 199.346C38.0371 198.864 37.9264 198.441 37.7051 198.076C37.4902 197.705 37.1875 197.422 36.7969 197.227C36.4128 197.031 35.9766 196.937 35.4883 196.943ZM45.3711 204.463H43.2031V194.082H45.3711V204.463ZM39.4043 204.844C40.6348 204.844 41.7025 204.98 42.6074 205.254C43.5124 205.521 44.209 205.911 44.6973 206.426C45.1855 206.94 45.4297 207.555 45.4297 208.271C45.4297 208.988 45.1855 209.603 44.6973 210.117C44.209 210.638 43.5124 211.032 42.6074 211.299C41.7025 211.572 40.6348 211.709 39.4043 211.709C38.1738 211.709 37.1061 211.572 36.2012 211.299C35.2962 211.032 34.5996 210.638 34.1113 210.117C33.6296 209.603 33.3887 208.988 33.3887 208.271C33.3887 207.555 33.6296 206.94 34.1113 206.426C34.5996 205.911 35.2962 205.521 36.2012 205.254C37.1061 204.98 38.1738 204.844 39.4043 204.844ZM39.4043 206.504C38.5775 206.504 37.8743 206.572 37.2949 206.709C36.7155 206.846 36.2728 207.048 35.9668 207.314C35.6673 207.575 35.5176 207.894 35.5176 208.271C35.5176 208.643 35.6706 208.958 35.9766 209.219C36.2826 209.479 36.722 209.678 37.2949 209.814C37.8743 209.945 38.5775 210.01 39.4043 210.01C40.2311 210.01 40.9342 209.945 41.5137 209.814C42.0996 209.678 42.5423 209.479 42.8418 209.219C43.1478 208.958 43.3008 208.643 43.3008 208.271C43.3008 207.894 43.1478 207.575 42.8418 207.314C42.5423 207.048 42.0996 206.846 41.5137 206.709C40.9342 206.572 40.2311 206.504 39.4043 206.504ZM64.1992 198.604H61.1328V196.826H64.1992V198.604ZM64.1992 202.393H61.1328V200.615H64.1992V202.393ZM61.7969 205.352H59.6289V194.082H61.7969V205.352ZM56.0938 205.498C57.2982 205.498 58.3431 205.622 59.2285 205.869C60.1139 206.117 60.7943 206.475 61.2695 206.943C61.7513 207.412 61.9922 207.969 61.9922 208.613C61.9922 209.258 61.7513 209.808 61.2695 210.264C60.7943 210.726 60.1107 211.081 59.2188 211.328C58.3333 211.582 57.2917 211.709 56.0938 211.709C54.8763 211.709 53.8249 211.582 52.9395 211.328C52.054 211.081 51.3737 210.726 50.8984 210.264C50.4232 209.808 50.1888 209.258 50.1953 208.613C50.1888 207.969 50.4232 207.412 50.8984 206.943C51.3737 206.475 52.054 206.117 52.9395 205.869C53.8249 205.622 54.8763 205.498 56.0938 205.498ZM56.0938 207.168C55.2799 207.168 54.5964 207.22 54.043 207.324C53.4896 207.428 53.0664 207.591 52.7734 207.812C52.4805 208.027 52.3372 208.294 52.3438 208.613C52.3372 208.926 52.4805 209.189 52.7734 209.404C53.0664 209.619 53.4928 209.785 54.0527 209.902C54.6126 210.02 55.293 210.078 56.0938 210.078C56.888 210.078 57.5618 210.02 58.1152 209.902C58.6751 209.785 59.0983 209.619 59.3848 209.404C59.6712 209.189 59.8145 208.926 59.8145 208.613C59.8145 208.294 59.6712 208.027 59.3848 207.812C59.0983 207.591 58.6784 207.428 58.125 207.324C57.5716 207.22 56.8945 207.168 56.0938 207.168ZM58.3594 197.588H47.8809V195.889H58.3594V197.588ZM53.125 198.281C53.9714 198.281 54.7201 198.415 55.3711 198.682C56.0221 198.942 56.5267 199.313 56.8848 199.795C57.2493 200.27 57.4349 200.817 57.4414 201.436C57.4349 202.061 57.2493 202.611 56.8848 203.086C56.5267 203.561 56.0221 203.932 55.3711 204.199C54.7201 204.46 53.9714 204.59 53.125 204.59C52.2721 204.59 51.5169 204.46 50.8594 204.199C50.2083 203.932 49.7005 203.561 49.3359 203.086C48.9779 202.611 48.7988 202.061 48.7988 201.436C48.7988 200.817 48.9779 200.27 49.3359 199.795C49.7005 199.313 50.2083 198.942 50.8594 198.682C51.5169 198.415 52.2721 198.281 53.125 198.281ZM53.125 199.883C52.6823 199.883 52.2917 199.945 51.9531 200.068C51.6146 200.192 51.3542 200.371 51.1719 200.605C50.9896 200.84 50.8984 201.117 50.8984 201.436C50.8984 201.755 50.9896 202.028 51.1719 202.256C51.3542 202.484 51.6146 202.66 51.9531 202.783C52.2917 202.9 52.6823 202.956 53.125 202.949C53.5677 202.956 53.9583 202.9 54.2969 202.783C54.6419 202.66 54.9089 202.484 55.0977 202.256C55.2865 202.028 55.3809 201.755 55.3809 201.436C55.3809 201.117 55.2865 200.84 55.0977 200.605C54.9089 200.371 54.6452 200.192 54.3066 200.068C53.9681 199.945 53.5742 199.883 53.125 199.883ZM54.2188 196.826H52.041V193.975H54.2188V196.826ZM73.2031 194.365C74.5312 194.365 75.6706 194.479 76.6211 194.707C77.5781 194.935 78.304 195.277 78.7988 195.732C79.2936 196.182 79.541 196.729 79.541 197.373C79.541 198.031 79.2936 198.587 78.7988 199.043C78.304 199.499 77.5814 199.844 76.6309 200.078C75.6803 200.306 74.5378 200.423 73.2031 200.43C71.8555 200.423 70.7064 200.306 69.7559 200.078C68.8053 199.844 68.0794 199.499 67.5781 199.043C67.0768 198.587 66.8262 198.031 66.8262 197.373C66.8262 196.729 67.0768 196.182 67.5781 195.732C68.0794 195.277 68.8053 194.935 69.7559 194.707C70.7129 194.479 71.862 194.365 73.2031 194.365ZM73.2031 195.957C72.2982 195.957 71.5397 196.012 70.9277 196.123C70.3223 196.234 69.8633 196.396 69.5508 196.611C69.2448 196.82 69.0951 197.074 69.1016 197.373C69.0951 197.699 69.2448 197.969 69.5508 198.184C69.8633 198.392 70.3158 198.548 70.9082 198.652C71.5072 198.757 72.2721 198.809 73.2031 198.809C74.1276 198.809 74.8893 198.757 75.4883 198.652C76.0938 198.548 76.5495 198.392 76.8555 198.184C77.1615 197.969 77.3145 197.699 77.3145 197.373C77.3145 197.074 77.1615 196.82 76.8555 196.611C76.5495 196.396 76.0872 196.234 75.4688 196.123C74.8568 196.012 74.1016 195.957 73.2031 195.957ZM81.2402 203.115H65.166V201.377H81.2402V203.115ZM79.248 208.613H69.209V210.381H67.0605V207.08H77.0996V205.898H67.0508V204.297H79.248V208.613ZM79.7266 211.582H67.0605V209.922H79.7266V211.582ZM96.543 207.451H88.1445V195.742H96.543V207.451ZM90.293 205.723H94.4238V197.441H90.293V205.723ZM101.895 211.768H99.6973V194.082H101.895V211.768ZM119.189 207.051H117.012V194.102H119.189V207.051ZM119.688 211.406H107.51V209.629H119.688V211.406ZM109.697 210.635H107.51V205.889H109.697V210.635ZM110.811 198.203C110.804 199.264 110.605 200.26 110.215 201.191C109.831 202.116 109.258 202.917 108.496 203.594C107.741 204.271 106.833 204.772 105.771 205.098L104.707 203.398C105.632 203.118 106.419 202.715 107.07 202.188C107.721 201.66 108.21 201.055 108.535 200.371C108.861 199.681 109.023 198.958 109.023 198.203V197.52H110.811V198.203ZM111.201 198.203C111.195 198.913 111.357 199.59 111.689 200.234C112.028 200.872 112.523 201.442 113.174 201.943C113.831 202.445 114.616 202.822 115.527 203.076L114.482 204.785C113.408 204.473 112.49 203.994 111.729 203.35C110.973 202.705 110.4 201.943 110.01 201.064C109.619 200.179 109.427 199.225 109.434 198.203V197.52H111.201V198.203ZM114.951 197.959H105.264V196.26H114.951V197.959ZM111.221 197.012H109.023V194.18H111.221V197.012ZM135.703 203.516H133.535V194.082H135.703V203.516ZM138.174 199.805H135.088V198.008H138.174V199.805ZM123.955 201.27C125.96 201.27 127.52 201.234 128.633 201.162C129.753 201.09 130.85 200.941 131.924 200.713L132.168 202.461C131.055 202.689 129.912 202.842 128.74 202.92C127.575 202.998 125.98 203.04 123.955 203.047H122.51V201.27H123.955ZM130.361 196.934H124.678V202.461H122.51V195.186H130.361V196.934ZM126.416 206.23H133.535V204.395H135.703V211.484H124.258V204.395H126.416V206.23ZM133.535 209.736V207.939H126.416V209.736H133.535ZM153.799 211.719H151.641V194.082H153.799V211.719ZM142.227 206.729H140.078V195.791H142.227V206.729ZM141.592 205.459C143.011 205.452 144.424 205.387 145.83 205.264C147.236 205.14 148.643 204.938 150.049 204.658L150.332 206.465C148.854 206.771 147.396 206.989 145.957 207.119C144.525 207.249 143.07 207.311 141.592 207.305H140.078V205.459H141.592ZM170.176 211.768H168.008V194.082H170.176V211.768ZM172.9 202.568H169.688V200.781H172.9V202.568ZM158.525 205.635C160.166 205.635 161.605 205.596 162.842 205.518C164.079 205.433 165.329 205.277 166.592 205.049L166.836 206.885C165.547 207.113 164.277 207.262 163.027 207.334C161.777 207.406 160.277 207.438 158.525 207.432H157.07V205.635H158.525ZM165.332 197.52H159.238V206.514H157.07V195.752H165.332V197.52ZM175.781 210.156C175.501 210.156 175.244 210.088 175.01 209.951C174.782 209.814 174.6 209.629 174.463 209.395C174.326 209.16 174.261 208.906 174.268 208.633C174.261 208.366 174.326 208.118 174.463 207.891C174.6 207.656 174.782 207.474 175.01 207.344C175.244 207.207 175.501 207.139 175.781 207.139C176.048 207.139 176.296 207.207 176.523 207.344C176.758 207.474 176.943 207.656 177.08 207.891C177.217 208.118 177.285 208.366 177.285 208.633C177.285 208.906 177.217 209.16 177.08 209.395C176.943 209.629 176.758 209.814 176.523 209.951C176.296 210.088 176.048 210.156 175.781 210.156Z" fill="#464646"/>
<defs>
<filter id="filter0_bd_347_1042" x="-76" y="-80" width="366" height="772" filterUnits="userSpaceOnUse" color-interpolation-filters="sRGB">
<feFlood flood-opacity="0" result="BackgroundImageFix"/>
<feGaussianBlur in="BackgroundImageFix" stdDeviation="40"/>
<feComposite in2="SourceAlpha" operator="in" result="effect1_backgroundBlur_347_1042"/>
<feColorMatrix in="SourceAlpha" type="matrix" values="0 0 0 0 0 0 0 0 0 0 0 0 0 0 0 0 0 0 127 0" result="hardAlpha"/>
<feOffset dy="3.6"/>
<feGaussianBlur stdDeviation="1.8"/>
<feComposite in2="hardAlpha" operator="out"/>
<feColorMatrix type="matrix" values="0 0 0 0 0 0 0 0 0 0 0 0 0 0 0 0 0 0 0.25 0"/>
<feBlend mode="normal" in2="effect1_backgroundBlur_347_1042" result="effect2_dropShadow_347_1042"/>
<feBlend mode="normal" in="SourceGraphic" in2="effect2_dropShadow_347_1042" result="shape"/>
</filter>
<linearGradient id="paint0_linear_347_1042" x1="107" y1="-45.5" x2="107" y2="612" gradientUnits="userSpaceOnUse">
<stop stop-color="#D8F5DD"/>
<stop offset="1" stop-color="#D8F5DD" stop-opacity="0"/>
</linearGradient>
</defs>
</svg>
