<svg xmlns="http://www.w3.org/2000/svg" width="214" height="578" viewBox="0 0 214 578" fill="none">
<g filter="url(#filter0_bd_626_1231)">
<rect x="4" width="206" height="570" rx="103" fill="url(#paint0_linear_626_1231)" shape-rendering="crispEdges"/>
</g>
<mask id="path-2-outside-1_626_1231" maskUnits="userSpaceOnUse" x="62" y="57.8823" width="89" height="25" fill="black">
<rect fill="white" x="62" y="57.8823" width="89" height="25"/>
<path d="M83.2734 75.2495H63.4922V72.2026H83.2734V75.2495ZM75.1992 81.2026H71.4727V73.3511H75.1992V81.2026ZM81.2695 71.0425H65.8477V68.1011H81.2695V71.0425ZM81.0352 63.2495H69.5273V68.7456H65.8477V60.3315H81.0352V63.2495ZM80.6133 67.1167H68.5312V64.269H80.6133V67.1167ZM92.5312 76.9722H88.7578V71.3237H92.5312V76.9722ZM99.4453 77.0425H95.6719V71.3706H99.4453V77.0425ZM104.039 78.9761H84.2578V75.9995H104.039V78.9761ZM102.539 64.0815H85.6523V61.0933H102.539V64.0815ZM102.41 72.5542H85.793V69.5425H102.41V72.5542ZM92.1328 69.9409H88.3594V63.5776H92.1328V69.9409ZM99.75 69.9409H96.0469V63.5776H99.75V69.9409ZM118.371 63.6011C118.363 65.0464 118.141 66.3979 117.703 67.6558C117.266 68.9058 116.578 70.0034 115.641 70.9487C114.703 71.8862 113.52 72.5776 112.09 73.0229L110.156 70.0933C111.359 69.7339 112.34 69.2104 113.098 68.5229C113.863 67.8354 114.41 67.0737 114.738 66.2378C115.066 65.394 115.23 64.5151 115.23 63.6011V61.9487H118.371V63.6011ZM119.051 63.6011C119.051 64.4604 119.207 65.2847 119.52 66.0737C119.832 66.8628 120.355 67.5815 121.09 68.23C121.824 68.8706 122.785 69.3628 123.973 69.7065L122.062 72.6479C120.664 72.2183 119.512 71.5542 118.605 70.6558C117.707 69.7495 117.047 68.6948 116.625 67.4917C116.203 66.2886 115.996 64.9917 116.004 63.6011V61.9487H119.051V63.6011ZM123.012 63.9058H111.152V60.9292H123.012V63.9058ZM128.484 75.0737H124.711V59.5698H128.484V75.0737ZM129.012 80.9097H113.637V77.9097H129.012V80.9097ZM117.457 79.4683H113.637V73.7026H117.457V79.4683ZM149.695 73.0347H146.133V59.5229H149.695V73.0347ZM147.047 67.6089H143.918V64.562H147.047V67.6089ZM145.148 72.3667H141.645V59.9214H145.148V72.3667ZM141.164 64.4214H130.852V61.5269H141.164V64.4214ZM136.043 64.8784C136.949 64.8784 137.766 65.0386 138.492 65.3589C139.227 65.6714 139.797 66.1206 140.203 66.7065C140.617 67.2925 140.824 67.9604 140.824 68.7104C140.824 69.4448 140.617 70.1011 140.203 70.6792C139.797 71.2495 139.227 71.6948 138.492 72.0151C137.766 72.3276 136.949 72.4839 136.043 72.4839C135.145 72.4839 134.336 72.3276 133.617 72.0151C132.906 71.6948 132.344 71.2495 131.93 70.6792C131.523 70.1011 131.32 69.4448 131.32 68.7104C131.32 67.9604 131.523 67.2925 131.93 66.7065C132.344 66.1206 132.906 65.6714 133.617 65.3589C134.336 65.0386 135.145 64.8784 136.043 64.8784ZM136.043 67.5386C135.77 67.5308 135.527 67.5737 135.316 67.6675C135.113 67.7534 134.953 67.8862 134.836 68.0659C134.719 68.2378 134.66 68.4526 134.66 68.7104C134.66 68.9604 134.715 69.1753 134.824 69.355C134.934 69.5269 135.094 69.6597 135.305 69.7534C135.516 69.8472 135.762 69.894 136.043 69.894C136.324 69.894 136.566 69.8472 136.77 69.7534C136.98 69.6597 137.145 69.5269 137.262 69.355C137.379 69.1753 137.438 68.9604 137.438 68.7104C137.438 68.4526 137.379 68.2378 137.262 68.0659C137.145 67.8862 136.98 67.7534 136.77 67.6675C136.566 67.5737 136.324 67.5308 136.043 67.5386ZM137.883 63.6479H134.133V59.7573H137.883V63.6479ZM142.148 73.1636C143.727 73.1636 145.086 73.3198 146.227 73.6323C147.375 73.937 148.254 74.394 148.863 75.0034C149.48 75.6128 149.789 76.3433 149.789 77.1948C149.789 78.0464 149.48 78.7729 148.863 79.3745C148.254 79.9839 147.375 80.4448 146.227 80.7573C145.086 81.0776 143.727 81.2378 142.148 81.2378C140.578 81.2378 139.219 81.0776 138.07 80.7573C136.93 80.4448 136.047 79.9839 135.422 79.3745C134.805 78.7729 134.496 78.0464 134.496 77.1948C134.496 76.3433 134.805 75.6128 135.422 75.0034C136.047 74.394 136.93 73.937 138.07 73.6323C139.219 73.3198 140.578 73.1636 142.148 73.1636ZM142.148 75.9175C141.234 75.9175 140.496 75.9604 139.934 76.0464C139.371 76.1245 138.953 76.2612 138.68 76.4565C138.406 76.644 138.27 76.8901 138.27 77.1948C138.27 77.4839 138.406 77.7183 138.68 77.8979C138.953 78.0776 139.371 78.2144 139.934 78.3081C140.504 78.394 141.242 78.437 142.148 78.437C143.047 78.437 143.777 78.394 144.34 78.3081C144.91 78.2144 145.328 78.0815 145.594 77.9097C145.867 77.73 146.008 77.4917 146.016 77.1948C146.008 76.8823 145.867 76.6323 145.594 76.4448C145.328 76.2573 144.914 76.1245 144.352 76.0464C143.789 75.9604 143.055 75.9175 142.148 75.9175Z"/>
</mask>
<path d="M83.2734 75.2495H63.4922V72.2026H83.2734V75.2495ZM75.1992 81.2026H71.4727V73.3511H75.1992V81.2026ZM81.2695 71.0425H65.8477V68.1011H81.2695V71.0425ZM81.0352 63.2495H69.5273V68.7456H65.8477V60.3315H81.0352V63.2495ZM80.6133 67.1167H68.5312V64.269H80.6133V67.1167ZM92.5312 76.9722H88.7578V71.3237H92.5312V76.9722ZM99.4453 77.0425H95.6719V71.3706H99.4453V77.0425ZM104.039 78.9761H84.2578V75.9995H104.039V78.9761ZM102.539 64.0815H85.6523V61.0933H102.539V64.0815ZM102.41 72.5542H85.793V69.5425H102.41V72.5542ZM92.1328 69.9409H88.3594V63.5776H92.1328V69.9409ZM99.75 69.9409H96.0469V63.5776H99.75V69.9409ZM118.371 63.6011C118.363 65.0464 118.141 66.3979 117.703 67.6558C117.266 68.9058 116.578 70.0034 115.641 70.9487C114.703 71.8862 113.52 72.5776 112.09 73.0229L110.156 70.0933C111.359 69.7339 112.34 69.2104 113.098 68.5229C113.863 67.8354 114.41 67.0737 114.738 66.2378C115.066 65.394 115.23 64.5151 115.23 63.6011V61.9487H118.371V63.6011ZM119.051 63.6011C119.051 64.4604 119.207 65.2847 119.52 66.0737C119.832 66.8628 120.355 67.5815 121.09 68.23C121.824 68.8706 122.785 69.3628 123.973 69.7065L122.062 72.6479C120.664 72.2183 119.512 71.5542 118.605 70.6558C117.707 69.7495 117.047 68.6948 116.625 67.4917C116.203 66.2886 115.996 64.9917 116.004 63.6011V61.9487H119.051V63.6011ZM123.012 63.9058H111.152V60.9292H123.012V63.9058ZM128.484 75.0737H124.711V59.5698H128.484V75.0737ZM129.012 80.9097H113.637V77.9097H129.012V80.9097ZM117.457 79.4683H113.637V73.7026H117.457V79.4683ZM149.695 73.0347H146.133V59.5229H149.695V73.0347ZM147.047 67.6089H143.918V64.562H147.047V67.6089ZM145.148 72.3667H141.645V59.9214H145.148V72.3667ZM141.164 64.4214H130.852V61.5269H141.164V64.4214ZM136.043 64.8784C136.949 64.8784 137.766 65.0386 138.492 65.3589C139.227 65.6714 139.797 66.1206 140.203 66.7065C140.617 67.2925 140.824 67.9604 140.824 68.7104C140.824 69.4448 140.617 70.1011 140.203 70.6792C139.797 71.2495 139.227 71.6948 138.492 72.0151C137.766 72.3276 136.949 72.4839 136.043 72.4839C135.145 72.4839 134.336 72.3276 133.617 72.0151C132.906 71.6948 132.344 71.2495 131.93 70.6792C131.523 70.1011 131.32 69.4448 131.32 68.7104C131.32 67.9604 131.523 67.2925 131.93 66.7065C132.344 66.1206 132.906 65.6714 133.617 65.3589C134.336 65.0386 135.145 64.8784 136.043 64.8784ZM136.043 67.5386C135.77 67.5308 135.527 67.5737 135.316 67.6675C135.113 67.7534 134.953 67.8862 134.836 68.0659C134.719 68.2378 134.66 68.4526 134.66 68.7104C134.66 68.9604 134.715 69.1753 134.824 69.355C134.934 69.5269 135.094 69.6597 135.305 69.7534C135.516 69.8472 135.762 69.894 136.043 69.894C136.324 69.894 136.566 69.8472 136.77 69.7534C136.98 69.6597 137.145 69.5269 137.262 69.355C137.379 69.1753 137.438 68.9604 137.438 68.7104C137.438 68.4526 137.379 68.2378 137.262 68.0659C137.145 67.8862 136.98 67.7534 136.77 67.6675C136.566 67.5737 136.324 67.5308 136.043 67.5386ZM137.883 63.6479H134.133V59.7573H137.883V63.6479ZM142.148 73.1636C143.727 73.1636 145.086 73.3198 146.227 73.6323C147.375 73.937 148.254 74.394 148.863 75.0034C149.48 75.6128 149.789 76.3433 149.789 77.1948C149.789 78.0464 149.48 78.7729 148.863 79.3745C148.254 79.9839 147.375 80.4448 146.227 80.7573C145.086 81.0776 143.727 81.2378 142.148 81.2378C140.578 81.2378 139.219 81.0776 138.07 80.7573C136.93 80.4448 136.047 79.9839 135.422 79.3745C134.805 78.7729 134.496 78.0464 134.496 77.1948C134.496 76.3433 134.805 75.6128 135.422 75.0034C136.047 74.394 136.93 73.937 138.07 73.6323C139.219 73.3198 140.578 73.1636 142.148 73.1636ZM142.148 75.9175C141.234 75.9175 140.496 75.9604 139.934 76.0464C139.371 76.1245 138.953 76.2612 138.68 76.4565C138.406 76.644 138.27 76.8901 138.27 77.1948C138.27 77.4839 138.406 77.7183 138.68 77.8979C138.953 78.0776 139.371 78.2144 139.934 78.3081C140.504 78.394 141.242 78.437 142.148 78.437C143.047 78.437 143.777 78.394 144.34 78.3081C144.91 78.2144 145.328 78.0815 145.594 77.9097C145.867 77.73 146.008 77.4917 146.016 77.1948C146.008 76.8823 145.867 76.6323 145.594 76.4448C145.328 76.2573 144.914 76.1245 144.352 76.0464C143.789 75.9604 143.055 75.9175 142.148 75.9175Z" fill="#F6F6F6"/>
<path d="M83.2734 75.2495V76.2495H84.2734V75.2495H83.2734ZM63.4922 75.2495H62.4922V76.2495H63.4922V75.2495ZM63.4922 72.2026V71.2026H62.4922V72.2026H63.4922ZM83.2734 72.2026H84.2734V71.2026H83.2734V72.2026ZM75.1992 81.2026V82.2026H76.1992V81.2026H75.1992ZM71.4727 81.2026H70.4727V82.2026H71.4727V81.2026ZM71.4727 73.3511V72.3511H70.4727V73.3511H71.4727ZM75.1992 73.3511H76.1992V72.3511H75.1992V73.3511ZM81.2695 71.0425V72.0425H82.2695V71.0425H81.2695ZM65.8477 71.0425H64.8477V72.0425H65.8477V71.0425ZM65.8477 68.1011V67.1011H64.8477V68.1011H65.8477ZM81.2695 68.1011H82.2695V67.1011H81.2695V68.1011ZM81.0352 63.2495V64.2495H82.0352V63.2495H81.0352ZM69.5273 63.2495V62.2495H68.5273V63.2495H69.5273ZM69.5273 68.7456V69.7456H70.5273V68.7456H69.5273ZM65.8477 68.7456H64.8477V69.7456H65.8477V68.7456ZM65.8477 60.3315V59.3315H64.8477V60.3315H65.8477ZM81.0352 60.3315H82.0352V59.3315H81.0352V60.3315ZM80.6133 67.1167V68.1167H81.6133V67.1167H80.6133ZM68.5312 67.1167H67.5312V68.1167H68.5312V67.1167ZM68.5312 64.269V63.269H67.5312V64.269H68.5312ZM80.6133 64.269H81.6133V63.269H80.6133V64.269ZM83.2734 74.2495H63.4922V76.2495H83.2734V74.2495ZM64.4922 75.2495V72.2026H62.4922V75.2495H64.4922ZM63.4922 73.2026H83.2734V71.2026H63.4922V73.2026ZM82.2734 72.2026V75.2495H84.2734V72.2026H82.2734ZM75.1992 80.2026H71.4727V82.2026H75.1992V80.2026ZM72.4727 81.2026V73.3511H70.4727V81.2026H72.4727ZM71.4727 74.3511H75.1992V72.3511H71.4727V74.3511ZM74.1992 73.3511V81.2026H76.1992V73.3511H74.1992ZM81.2695 70.0425H65.8477V72.0425H81.2695V70.0425ZM66.8477 71.0425V68.1011H64.8477V71.0425H66.8477ZM65.8477 69.1011H81.2695V67.1011H65.8477V69.1011ZM80.2695 68.1011V71.0425H82.2695V68.1011H80.2695ZM81.0352 62.2495H69.5273V64.2495H81.0352V62.2495ZM68.5273 63.2495V68.7456H70.5273V63.2495H68.5273ZM69.5273 67.7456H65.8477V69.7456H69.5273V67.7456ZM66.8477 68.7456V60.3315H64.8477V68.7456H66.8477ZM65.8477 61.3315H81.0352V59.3315H65.8477V61.3315ZM80.0352 60.3315V63.2495H82.0352V60.3315H80.0352ZM80.6133 66.1167H68.5312V68.1167H80.6133V66.1167ZM69.5312 67.1167V64.269H67.5312V67.1167H69.5312ZM68.5312 65.269H80.6133V63.269H68.5312V65.269ZM79.6133 64.269V67.1167H81.6133V64.269H79.6133ZM92.5312 76.9722V77.9722H93.5312V76.9722H92.5312ZM88.7578 76.9722H87.7578V77.9722H88.7578V76.9722ZM88.7578 71.3237V70.3237H87.7578V71.3237H88.7578ZM92.5312 71.3237H93.5312V70.3237H92.5312V71.3237ZM99.4453 77.0425V78.0425H100.445V77.0425H99.4453ZM95.6719 77.0425H94.6719V78.0425H95.6719V77.0425ZM95.6719 71.3706V70.3706H94.6719V71.3706H95.6719ZM99.4453 71.3706H100.445V70.3706H99.4453V71.3706ZM104.039 78.9761V79.9761H105.039V78.9761H104.039ZM84.2578 78.9761H83.2578V79.9761H84.2578V78.9761ZM84.2578 75.9995V74.9995H83.2578V75.9995H84.2578ZM104.039 75.9995H105.039V74.9995H104.039V75.9995ZM102.539 64.0815V65.0815H103.539V64.0815H102.539ZM85.6523 64.0815H84.6523V65.0815H85.6523V64.0815ZM85.6523 61.0933V60.0933H84.6523V61.0933H85.6523ZM102.539 61.0933H103.539V60.0933H102.539V61.0933ZM102.41 72.5542V73.5542H103.41V72.5542H102.41ZM85.793 72.5542H84.793V73.5542H85.793V72.5542ZM85.793 69.5425V68.5425H84.793V69.5425H85.793ZM102.41 69.5425H103.41V68.5425H102.41V69.5425ZM92.1328 69.9409V70.9409H93.1328V69.9409H92.1328ZM88.3594 69.9409H87.3594V70.9409H88.3594V69.9409ZM88.3594 63.5776V62.5776H87.3594V63.5776H88.3594ZM92.1328 63.5776H93.1328V62.5776H92.1328V63.5776ZM99.75 69.9409V70.9409H100.75V69.9409H99.75ZM96.0469 69.9409H95.0469V70.9409H96.0469V69.9409ZM96.0469 63.5776V62.5776H95.0469V63.5776H96.0469ZM99.75 63.5776H100.75V62.5776H99.75V63.5776ZM92.5312 75.9722H88.7578V77.9722H92.5312V75.9722ZM89.7578 76.9722V71.3237H87.7578V76.9722H89.7578ZM88.7578 72.3237H92.5312V70.3237H88.7578V72.3237ZM91.5312 71.3237V76.9722H93.5312V71.3237H91.5312ZM99.4453 76.0425H95.6719V78.0425H99.4453V76.0425ZM96.6719 77.0425V71.3706H94.6719V77.0425H96.6719ZM95.6719 72.3706H99.4453V70.3706H95.6719V72.3706ZM98.4453 71.3706V77.0425H100.445V71.3706H98.4453ZM104.039 77.9761H84.2578V79.9761H104.039V77.9761ZM85.2578 78.9761V75.9995H83.2578V78.9761H85.2578ZM84.2578 76.9995H104.039V74.9995H84.2578V76.9995ZM103.039 75.9995V78.9761H105.039V75.9995H103.039ZM102.539 63.0815H85.6523V65.0815H102.539V63.0815ZM86.6523 64.0815V61.0933H84.6523V64.0815H86.6523ZM85.6523 62.0933H102.539V60.0933H85.6523V62.0933ZM101.539 61.0933V64.0815H103.539V61.0933H101.539ZM102.41 71.5542H85.793V73.5542H102.41V71.5542ZM86.793 72.5542V69.5425H84.793V72.5542H86.793ZM85.793 70.5425H102.41V68.5425H85.793V70.5425ZM101.41 69.5425V72.5542H103.41V69.5425H101.41ZM92.1328 68.9409H88.3594V70.9409H92.1328V68.9409ZM89.3594 69.9409V63.5776H87.3594V69.9409H89.3594ZM88.3594 64.5776H92.1328V62.5776H88.3594V64.5776ZM91.1328 63.5776V69.9409H93.1328V63.5776H91.1328ZM99.75 68.9409H96.0469V70.9409H99.75V68.9409ZM97.0469 69.9409V63.5776H95.0469V69.9409H97.0469ZM96.0469 64.5776H99.75V62.5776H96.0469V64.5776ZM98.75 63.5776V69.9409H100.75V63.5776H98.75ZM118.371 63.6011L119.371 63.6065V63.6011H118.371ZM117.703 67.6558L118.647 67.9861L118.648 67.9843L117.703 67.6558ZM115.641 70.9487L116.348 71.6558L116.351 71.6529L115.641 70.9487ZM112.09 73.0229L111.255 73.5738L111.669 74.2013L112.387 73.9777L112.09 73.0229ZM110.156 70.0933L109.87 69.1351L108.58 69.5204L109.322 70.6441L110.156 70.0933ZM113.098 68.5229L112.43 67.7789L112.426 67.7823L113.098 68.5229ZM114.738 66.2378L115.669 66.6032L115.67 66.6002L114.738 66.2378ZM115.23 61.9487V60.9487H114.23V61.9487H115.23ZM118.371 61.9487H119.371V60.9487H118.371V61.9487ZM121.09 68.23L120.428 68.9796L120.432 68.9835L121.09 68.23ZM123.973 69.7065L124.811 70.2512L125.545 69.1208L124.251 68.746L123.973 69.7065ZM122.062 72.6479L121.769 73.6038L122.49 73.8255L122.901 73.1926L122.062 72.6479ZM118.605 70.6558L117.895 71.3598L117.901 71.3659L118.605 70.6558ZM116.004 63.6011L117.004 63.6067V63.6011H116.004ZM116.004 61.9487V60.9487H115.004V61.9487H116.004ZM119.051 61.9487H120.051V60.9487H119.051V61.9487ZM123.012 63.9058V64.9058H124.012V63.9058H123.012ZM111.152 63.9058H110.152V64.9058H111.152V63.9058ZM111.152 60.9292V59.9292H110.152V60.9292H111.152ZM123.012 60.9292H124.012V59.9292H123.012V60.9292ZM128.484 75.0737V76.0737H129.484V75.0737H128.484ZM124.711 75.0737H123.711V76.0737H124.711V75.0737ZM124.711 59.5698V58.5698H123.711V59.5698H124.711ZM128.484 59.5698H129.484V58.5698H128.484V59.5698ZM129.012 80.9097V81.9097H130.012V80.9097H129.012ZM113.637 80.9097H112.637V81.9097H113.637V80.9097ZM113.637 77.9097V76.9097H112.637V77.9097H113.637ZM129.012 77.9097H130.012V76.9097H129.012V77.9097ZM117.457 79.4683V80.4683H118.457V79.4683H117.457ZM113.637 79.4683H112.637V80.4683H113.637V79.4683ZM113.637 73.7026V72.7026H112.637V73.7026H113.637ZM117.457 73.7026H118.457V72.7026H117.457V73.7026ZM117.371 63.5957C117.364 64.9403 117.157 66.1818 116.759 67.3272L118.648 67.9843C119.124 66.614 119.363 65.1524 119.371 63.6065L117.371 63.5957ZM116.759 67.3254C116.371 68.4342 115.764 69.4043 114.931 70.2446L116.351 71.6529C117.392 70.6025 118.16 69.3773 118.647 67.9861L116.759 67.3254ZM114.934 70.2416C114.125 71.0505 113.088 71.6647 111.792 72.0682L112.387 73.9777C113.951 73.4905 115.282 72.722 116.348 71.6558L114.934 70.2416ZM112.924 72.4721L110.991 69.5424L109.322 70.6441L111.255 73.5738L112.924 72.4721ZM110.442 71.0514C111.757 70.6588 112.879 70.0717 113.77 69.2636L112.426 67.7823C111.801 68.3492 110.962 68.809 109.87 69.1351L110.442 71.0514ZM113.766 69.267C114.63 68.4907 115.276 67.6039 115.669 66.6032L113.807 65.8724C113.544 66.5436 113.096 67.1802 112.43 67.7789L113.766 69.267ZM115.67 66.6002C116.044 65.6398 116.23 64.6379 116.23 63.6011H114.23C114.23 64.3924 114.089 65.1483 113.806 65.8753L115.67 66.6002ZM116.23 63.6011V61.9487H114.23V63.6011H116.23ZM115.23 62.9487H118.371V60.9487H115.23V62.9487ZM117.371 61.9487V63.6011H119.371V61.9487H117.371ZM118.051 63.6011C118.051 64.5849 118.23 65.5342 118.59 66.4419L120.449 65.7055C120.184 65.0352 120.051 64.336 120.051 63.6011H118.051ZM118.59 66.4419C118.969 67.3986 119.594 68.243 120.428 68.9796L121.752 67.4804C121.117 66.9201 120.695 66.327 120.449 65.7055L118.59 66.4419ZM120.432 68.9835C121.302 69.7421 122.403 70.2934 123.695 70.6671L124.251 68.746C123.167 68.4322 122.346 67.9991 121.747 67.4764L120.432 68.9835ZM123.134 69.1619L121.224 72.1033L122.901 73.1926L124.811 70.2512L123.134 69.1619ZM122.356 71.6921C121.09 71.3029 120.085 70.7145 119.31 69.9456L117.901 71.3659C118.938 72.3939 120.239 73.1336 121.769 73.6038L122.356 71.6921ZM119.316 69.9517C118.522 69.1509 117.941 68.2236 117.569 67.1608L115.681 67.8226C116.152 69.166 116.892 70.3482 117.895 71.3598L119.316 69.9517ZM117.569 67.1608C117.188 66.0752 116.997 64.8931 117.004 63.6067L115.004 63.5955C114.996 65.0903 115.218 66.502 115.681 67.8226L117.569 67.1608ZM117.004 63.6011V61.9487H115.004V63.6011H117.004ZM116.004 62.9487H119.051V60.9487H116.004V62.9487ZM118.051 61.9487V63.6011H120.051V61.9487H118.051ZM123.012 62.9058H111.152V64.9058H123.012V62.9058ZM112.152 63.9058V60.9292H110.152V63.9058H112.152ZM111.152 61.9292H123.012V59.9292H111.152V61.9292ZM122.012 60.9292V63.9058H124.012V60.9292H122.012ZM128.484 74.0737H124.711V76.0737H128.484V74.0737ZM125.711 75.0737V59.5698H123.711V75.0737H125.711ZM124.711 60.5698H128.484V58.5698H124.711V60.5698ZM127.484 59.5698V75.0737H129.484V59.5698H127.484ZM129.012 79.9097H113.637V81.9097H129.012V79.9097ZM114.637 80.9097V77.9097H112.637V80.9097H114.637ZM113.637 78.9097H129.012V76.9097H113.637V78.9097ZM128.012 77.9097V80.9097H130.012V77.9097H128.012ZM117.457 78.4683H113.637V80.4683H117.457V78.4683ZM114.637 79.4683V73.7026H112.637V79.4683H114.637ZM113.637 74.7026H117.457V72.7026H113.637V74.7026ZM116.457 73.7026V79.4683H118.457V73.7026H116.457ZM149.695 73.0347V74.0347H150.695V73.0347H149.695ZM146.133 73.0347H145.133V74.0347H146.133V73.0347ZM146.133 59.5229V58.5229H145.133V59.5229H146.133ZM149.695 59.5229H150.695V58.5229H149.695V59.5229ZM147.047 67.6089V68.6089H148.047V67.6089H147.047ZM143.918 67.6089H142.918V68.6089H143.918V67.6089ZM143.918 64.562V63.562H142.918V64.562H143.918ZM147.047 64.562H148.047V63.562H147.047V64.562ZM145.148 72.3667V73.3667H146.148V72.3667H145.148ZM141.645 72.3667H140.645V73.3667H141.645V72.3667ZM141.645 59.9214V58.9214H140.645V59.9214H141.645ZM145.148 59.9214H146.148V58.9214H145.148V59.9214ZM141.164 64.4214V65.4214H142.164V64.4214H141.164ZM130.852 64.4214H129.852V65.4214H130.852V64.4214ZM130.852 61.5269V60.5269H129.852V61.5269H130.852ZM141.164 61.5269H142.164V60.5269H141.164V61.5269ZM138.492 65.3589L138.089 66.274L138.101 66.279L138.492 65.3589ZM140.203 66.7065L139.381 67.2763L139.386 67.2837L140.203 66.7065ZM140.203 70.6792L139.39 70.0969L139.389 70.099L140.203 70.6792ZM138.492 72.0151L138.887 72.9338L138.892 72.9317L138.492 72.0151ZM133.617 72.0151L133.206 72.927L133.218 72.9322L133.617 72.0151ZM131.93 70.6792L131.111 71.2541L131.116 71.2605L131.12 71.2667L131.93 70.6792ZM131.93 66.7065L131.113 66.1294L131.108 66.1368L131.93 66.7065ZM133.617 65.3589L134.02 66.2744L134.024 66.2723L133.617 65.3589ZM136.043 67.5386L136.014 68.5382L136.043 68.539L136.071 68.5382L136.043 67.5386ZM135.316 67.6675L135.706 68.5884L135.714 68.5849L135.723 68.5813L135.316 67.6675ZM134.836 68.0659L135.662 68.6293L135.668 68.6208L135.674 68.6122L134.836 68.0659ZM134.824 69.355L133.97 69.8749L133.975 69.8834L133.981 69.8919L134.824 69.355ZM136.77 69.7534L136.363 68.8396L136.357 68.8425L136.35 68.8455L136.77 69.7534ZM137.262 69.355L138.088 69.9183L138.094 69.9098L138.099 69.9012L137.262 69.355ZM137.262 68.0659L136.424 68.6122L136.43 68.6208L136.435 68.6293L137.262 68.0659ZM136.77 67.6675L136.35 68.5754L136.371 68.585L136.392 68.5936L136.77 67.6675ZM137.883 63.6479V64.6479H138.883V63.6479H137.883ZM134.133 63.6479H133.133V64.6479H134.133V63.6479ZM134.133 59.7573V58.7573H133.133V59.7573H134.133ZM137.883 59.7573H138.883V58.7573H137.883V59.7573ZM146.227 73.6323L145.962 74.5968L145.97 74.5989L146.227 73.6323ZM148.863 75.0034L148.156 75.7105L148.161 75.715L148.863 75.0034ZM148.863 79.3745L148.165 78.6583L148.156 78.6674L148.863 79.3745ZM146.227 80.7573L145.964 79.7924L145.956 79.7946L146.227 80.7573ZM138.07 80.7573L138.339 79.7941L138.335 79.7929L138.07 80.7573ZM135.422 79.3745L136.12 78.6585L136.12 78.6584L135.422 79.3745ZM135.422 75.0034L134.724 74.2874L134.719 74.2918L135.422 75.0034ZM138.07 73.6323L138.328 74.5985L138.333 74.5972L138.07 73.6323ZM139.934 76.0464L140.071 77.037L140.085 77.0349L139.934 76.0464ZM138.68 76.4565L139.245 77.2813L139.253 77.2759L139.261 77.2703L138.68 76.4565ZM139.934 78.3081L139.769 79.2945L139.777 79.2958L139.785 79.2969L139.934 78.3081ZM144.34 78.3081L144.491 79.2967L144.502 79.2949L144.34 78.3081ZM145.594 77.9097L146.137 78.7493L146.143 78.7454L145.594 77.9097ZM146.016 77.1948L147.015 77.2211L147.016 77.1955L147.015 77.1698L146.016 77.1948ZM145.594 76.4448L145.017 77.2619L145.028 77.2696L145.594 76.4448ZM144.352 76.0464L144.201 77.035L144.214 77.0369L144.352 76.0464ZM149.695 72.0347H146.133V74.0347H149.695V72.0347ZM147.133 73.0347V59.5229H145.133V73.0347H147.133ZM146.133 60.5229H149.695V58.5229H146.133V60.5229ZM148.695 59.5229V73.0347H150.695V59.5229H148.695ZM147.047 66.6089H143.918V68.6089H147.047V66.6089ZM144.918 67.6089V64.562H142.918V67.6089H144.918ZM143.918 65.562H147.047V63.562H143.918V65.562ZM146.047 64.562V67.6089H148.047V64.562H146.047ZM145.148 71.3667H141.645V73.3667H145.148V71.3667ZM142.645 72.3667V59.9214H140.645V72.3667H142.645ZM141.645 60.9214H145.148V58.9214H141.645V60.9214ZM144.148 59.9214V72.3667H146.148V59.9214H144.148ZM141.164 63.4214H130.852V65.4214H141.164V63.4214ZM131.852 64.4214V61.5269H129.852V64.4214H131.852ZM130.852 62.5269H141.164V60.5269H130.852V62.5269ZM140.164 61.5269V64.4214H142.164V61.5269H140.164ZM136.043 65.8784C136.83 65.8784 137.506 66.017 138.089 66.2739L138.896 64.4439C138.025 64.0601 137.069 63.8784 136.043 63.8784V65.8784ZM138.101 66.279C138.683 66.5268 139.095 66.8634 139.381 67.2763L141.025 66.1368C140.499 65.3778 139.77 64.816 138.884 64.4387L138.101 66.279ZM139.386 67.2837C139.676 67.6928 139.824 68.1572 139.824 68.7104H141.824C141.824 67.7637 141.559 66.8921 141.02 66.1294L139.386 67.2837ZM139.824 68.7104C139.824 69.2433 139.678 69.6944 139.39 70.0969L141.016 71.2615C141.556 70.5077 141.824 69.6464 141.824 68.7104H139.824ZM139.389 70.099C139.102 70.5014 138.685 70.84 138.092 71.0985L138.892 72.9317C139.768 72.5496 140.492 71.9976 141.018 71.2594L139.389 70.099ZM138.097 71.0965C137.512 71.3481 136.833 71.4839 136.043 71.4839V73.4839C137.065 73.4839 138.019 73.3072 138.887 72.9338L138.097 71.0965ZM136.043 71.4839C135.262 71.4839 134.592 71.3484 134.016 71.0981L133.218 72.9322C134.08 73.3068 135.027 73.4839 136.043 73.4839V71.4839ZM134.028 71.1034C133.458 70.8468 133.04 70.5065 132.739 70.0917L131.12 71.2667C131.647 71.9926 132.354 72.5428 133.206 72.9269L134.028 71.1034ZM132.748 70.1043C132.465 69.7014 132.32 69.2476 132.32 68.7104H130.32C130.32 69.642 130.582 70.5007 131.111 71.2541L132.748 70.1043ZM132.32 68.7104C132.32 68.1529 132.467 67.6859 132.751 67.2763L131.108 66.1368C130.579 66.899 130.32 67.768 130.32 68.7104H132.32ZM132.746 67.2837C133.047 66.8582 133.461 66.52 134.02 66.2744L133.215 64.4434C132.352 64.8228 131.64 65.383 131.113 66.1294L132.746 67.2837ZM134.024 66.2723C134.598 66.0166 135.265 65.8784 136.043 65.8784V63.8784C135.024 63.8784 134.074 64.0605 133.21 64.4455L134.024 66.2723ZM136.072 66.539C135.676 66.5277 135.281 66.589 134.91 66.7537L135.723 68.5813C135.774 68.5585 135.863 68.5338 136.014 68.5382L136.072 66.539ZM134.927 66.7465C134.546 66.9077 134.227 67.1684 133.998 67.5197L135.674 68.6122C135.677 68.6075 135.679 68.6049 135.68 68.6037C135.681 68.6026 135.682 68.6019 135.682 68.6013C135.683 68.6008 135.689 68.5957 135.706 68.5884L134.927 66.7465ZM134.01 67.5026C133.755 67.8765 133.66 68.3001 133.66 68.7104H135.66C135.66 68.6568 135.666 68.6285 135.669 68.6191C135.671 68.6111 135.67 68.6172 135.662 68.6293L134.01 67.5026ZM133.66 68.7104C133.66 69.109 133.749 69.5112 133.97 69.8749L135.678 68.835C135.678 68.8345 135.674 68.8287 135.67 68.8124C135.666 68.7951 135.66 68.7627 135.66 68.7104H133.66ZM133.981 69.8919C134.209 70.2511 134.533 70.5046 134.899 70.6672L135.711 68.8396C135.68 68.8259 135.667 68.8157 135.665 68.8137C135.663 68.8124 135.665 68.8143 135.668 68.8181L133.981 69.8919ZM134.899 70.6672C135.262 70.8288 135.652 70.894 136.043 70.894V68.894C135.872 68.894 135.769 68.8655 135.711 68.8396L134.899 70.6672ZM136.043 70.894C136.433 70.894 136.825 70.8293 137.189 70.6614L136.35 68.8455C136.308 68.8651 136.216 68.894 136.043 68.894V70.894ZM137.176 70.6672C137.537 70.5065 137.855 70.2603 138.088 69.9183L136.435 68.7916C136.434 68.7934 136.424 68.8128 136.363 68.8396L137.176 70.6672ZM138.099 69.9012C138.339 69.5336 138.438 69.1217 138.438 68.7104H136.438C136.438 68.7573 136.432 68.784 136.429 68.796C136.427 68.802 136.426 68.8053 136.425 68.8066C136.425 68.8079 136.424 68.8084 136.424 68.8087L138.099 69.9012ZM138.438 68.7104C138.438 68.3001 138.343 67.8765 138.088 67.5026L136.435 68.6293C136.427 68.6172 136.427 68.6111 136.429 68.6191C136.431 68.6285 136.438 68.6568 136.438 68.7104H138.438ZM138.099 67.5197C137.864 67.1587 137.534 66.8991 137.147 66.7414L136.392 68.5936C136.414 68.6025 136.422 68.6088 136.422 68.6088C136.422 68.609 136.422 68.6091 136.422 68.609C136.422 68.609 136.422 68.6089 136.422 68.6089C136.422 68.6089 136.422 68.6091 136.422 68.6096C136.423 68.61 136.423 68.6109 136.424 68.6122L138.099 67.5197ZM137.189 66.7595C136.814 66.5867 136.412 66.5279 136.015 66.539L136.071 68.5382C136.237 68.5336 136.319 68.5607 136.35 68.5754L137.189 66.7595ZM137.883 62.6479H134.133V64.6479H137.883V62.6479ZM135.133 63.6479V59.7573H133.133V63.6479H135.133ZM134.133 60.7573H137.883V58.7573H134.133V60.7573ZM136.883 59.7573V63.6479H138.883V59.7573H136.883ZM142.148 74.1636C143.665 74.1636 144.931 74.3142 145.962 74.5968L146.491 72.6679C145.241 72.3254 143.788 72.1636 142.148 72.1636V74.1636ZM145.97 74.5989C147.01 74.8747 147.71 75.2644 148.156 75.7105L149.57 74.2963C148.798 73.5237 147.74 72.9993 146.483 72.6658L145.97 74.5989ZM148.161 75.715C148.592 76.1404 148.789 76.6162 148.789 77.1948H150.789C150.789 76.0703 150.369 75.0852 149.566 74.2918L148.161 75.715ZM148.789 77.1948C148.789 77.7731 148.592 78.2425 148.165 78.6584L149.561 80.0906C150.369 79.3034 150.789 78.3197 150.789 77.1948H148.789ZM148.156 78.6674C147.708 79.1154 147.005 79.509 145.964 79.7924L146.489 81.7222C147.745 81.3806 148.8 80.8523 149.57 80.0816L148.156 78.6674ZM145.956 79.7946C144.927 80.0835 143.663 80.2378 142.148 80.2378V82.2378C143.79 82.2378 145.245 82.0717 146.497 81.7201L145.956 79.7946ZM142.148 80.2378C140.642 80.2378 139.377 80.0837 138.339 79.7941L137.802 81.7206C139.06 82.0716 140.514 82.2378 142.148 82.2378V80.2378ZM138.335 79.7929C137.302 79.5099 136.588 79.1151 136.12 78.6585L134.724 80.0905C135.505 80.8527 136.558 81.3797 137.806 81.7218L138.335 79.7929ZM136.12 78.6584C135.693 78.2425 135.496 77.7731 135.496 77.1948H133.496C133.496 78.3197 133.916 79.3034 134.724 80.0906L136.12 78.6584ZM135.496 77.1948C135.496 76.6162 135.694 76.1404 136.124 75.715L134.719 74.2918C133.916 75.0852 133.496 76.0703 133.496 77.1948H135.496ZM136.12 75.7194C136.586 75.2646 137.297 74.8738 138.328 74.5984L137.812 72.6662C136.562 73.0002 135.507 73.5235 134.724 74.2874L136.12 75.7194ZM138.333 74.5972C139.373 74.3141 140.64 74.1636 142.148 74.1636V72.1636C140.516 72.1636 139.064 72.3256 137.808 72.6674L138.333 74.5972ZM142.148 74.9175C141.21 74.9175 140.416 74.9611 139.783 75.0579L140.085 77.0349C140.577 76.9598 141.259 76.9175 142.148 76.9175V74.9175ZM139.796 75.0559C139.17 75.1428 138.565 75.3098 138.098 75.6428L139.261 77.2703C139.342 77.2127 139.572 77.1062 140.071 77.0369L139.796 75.0559ZM138.114 75.6318C137.597 75.9864 137.27 76.5276 137.27 77.1948H139.27C139.27 77.1939 139.27 77.2027 139.266 77.2182C139.262 77.2341 139.255 77.2513 139.246 77.2674C139.227 77.3018 139.214 77.3029 139.245 77.2813L138.114 75.6318ZM137.27 77.1948C137.27 77.8696 137.619 78.3977 138.131 78.7337L139.229 77.0622C139.195 77.04 139.212 77.0426 139.236 77.0835C139.247 77.1033 139.257 77.1258 139.263 77.1487C139.269 77.1712 139.27 77.1876 139.27 77.1948H137.27ZM138.131 78.7337C138.577 79.0268 139.156 79.1924 139.769 79.2945L140.098 77.3217C139.586 77.2363 139.33 77.1285 139.229 77.0622L138.131 78.7337ZM139.785 79.2969C140.424 79.3933 141.217 79.437 142.148 79.437V77.437C141.267 77.437 140.584 77.3948 140.083 77.3193L139.785 79.2969ZM142.148 79.437C143.072 79.437 143.858 79.3933 144.491 79.2966L144.189 77.3196C143.696 77.3948 143.022 77.437 142.148 77.437V79.437ZM144.502 79.2949C145.114 79.1942 145.696 79.0344 146.137 78.7492L145.05 77.0701C144.96 77.1287 144.706 77.2345 144.178 77.3213L144.502 79.2949ZM146.143 78.7454C146.657 78.4073 146.998 77.8824 147.015 77.2211L145.016 77.1685C145.016 77.1669 145.017 77.1561 145.021 77.1392C145.026 77.122 145.034 77.1041 145.043 77.0879C145.063 77.0536 145.077 77.0528 145.045 77.074L146.143 78.7454ZM147.015 77.1698C146.999 76.5144 146.679 75.9762 146.159 75.6201L145.028 77.2696C145.044 77.2804 145.049 77.286 145.048 77.2846C145.046 77.2827 145.04 77.2756 145.033 77.2632C145.026 77.2507 145.021 77.2379 145.018 77.2273C145.015 77.2171 145.016 77.2137 145.016 77.2198L147.015 77.1698ZM146.17 75.6279C145.711 75.3032 145.108 75.1419 144.489 75.0559L144.214 77.0369C144.72 77.1072 144.946 77.2114 145.017 77.2618L146.17 75.6279ZM144.503 75.0579C143.87 74.9612 143.079 74.9175 142.148 74.9175V76.9175C143.03 76.9175 143.708 76.9597 144.201 77.0349L144.503 75.0579Z" fill="black" mask="url(#path-2-outside-1_626_1231)"/>
<path d="M44.7656 146.698H32.7539V145.448H44.7656V146.698ZM46.6016 151.601H30.7031V150.331H46.6016V151.601ZM39.375 150.917H37.8516V146.093H39.375V150.917ZM44.5703 139.101H34.3164V145.937H32.7539V137.831H44.5703V139.101ZM44.1992 142.831H33.8281V141.581H44.1992V142.831ZM63.8672 147.597H47.9688V146.327H63.8672V147.597ZM62.1875 153.593H50.0781V152.323H62.1875V153.593ZM51.6211 152.694H50.0781V148.769H51.6211V152.694ZM56.6602 146.894H55.1562V143.827H56.6602V146.894ZM61.8164 141.269H51.5625V143.632H50.0391V140.136H60.2734V138.202H49.9805V136.972H61.8164V141.269ZM62.1875 144.413H50.0391V143.202H62.1875V144.413ZM74.0039 139.589H66.0742V138.339H74.0039V139.589ZM70.3516 149.179H68.8477V143.3H70.3516V149.179ZM74.9023 139.374C74.8958 140.429 74.86 141.477 74.7949 142.519C74.7363 143.56 74.6029 144.765 74.3945 146.132L72.8516 145.995C73.0729 144.647 73.2129 143.466 73.2715 142.45C73.3301 141.428 73.3594 140.39 73.3594 139.335V139.237V138.339H74.9023V139.237V139.374ZM78.6719 153.769H77.1484V136.405H78.6719V153.769ZM81.4844 144.999H78.2617V143.671H81.4844V144.999ZM65.0977 148.671C67.207 148.658 69.1634 148.619 70.9668 148.554C72.7702 148.482 74.4661 148.352 76.0547 148.163L76.1328 149.315C74.4857 149.569 72.7441 149.742 70.9082 149.833C69.0723 149.918 67.2005 149.953 65.293 149.94L65.0977 148.671ZM103.457 148.202H87.5586V146.933H103.457V148.202ZM96.2305 153.769H94.7266V147.284H96.2305V153.769ZM101.66 145.136H89.6875V143.886H101.66V145.136ZM101.465 138.476H91.2109V144.257H89.6875V137.226H101.465V138.476ZM101.055 141.737H90.7617V140.507H101.055V141.737ZM110.84 150.8H109.297V145.8H110.84V150.8ZM116.211 150.8H114.688V145.8H116.211V150.8ZM120.762 151.64H104.863V150.37H120.762V151.64ZM119.238 139.296H106.27V138.026H119.238V139.296ZM119.199 146.229H106.309V144.96H119.199V146.229ZM110.547 145.233H109.023V139.042H110.547V145.233ZM116.484 145.233H114.98V139.042H116.484V145.233ZM141.562 145.292H140.02V136.405H141.562V145.292ZM136.172 137.284C136.172 138.71 135.85 139.983 135.205 141.103C134.561 142.216 133.626 143.157 132.402 143.925C131.185 144.687 129.72 145.272 128.008 145.683L127.461 144.413C128.965 144.062 130.241 143.58 131.289 142.968C132.344 142.356 133.145 141.633 133.691 140.8C134.238 139.96 134.512 139.029 134.512 138.007V137.284H136.172ZM135.195 138.554H128.34V137.284H135.195V138.554ZM140.273 140.175H135.547V138.944H140.273V140.175ZM140.176 143.476H135.391V142.265H140.176V143.476ZM141.562 150.312H131.875V153.124H130.352V149.14H140.02V147.323H130.312V146.073H141.562V150.312ZM142.148 153.612H130.352V152.343H142.148V153.612ZM153.184 139.589H145.254V138.339H153.184V139.589ZM149.531 149.179H148.027V143.3H149.531V149.179ZM154.082 139.374C154.076 140.429 154.04 141.477 153.975 142.519C153.916 143.56 153.783 144.765 153.574 146.132L152.031 145.995C152.253 144.647 152.393 143.466 152.451 142.45C152.51 141.428 152.539 140.39 152.539 139.335V139.237V138.339H154.082V139.237V139.374ZM157.852 153.769H156.328V136.405H157.852V153.769ZM160.664 144.999H157.441V143.671H160.664V144.999ZM144.277 148.671C146.387 148.658 148.343 148.619 150.146 148.554C151.95 148.482 153.646 148.352 155.234 148.163L155.312 149.315C153.665 149.569 151.924 149.742 150.088 149.833C148.252 149.918 146.38 149.953 144.473 149.94L144.277 148.671ZM175.781 142.909H163.887V141.679H175.781V142.909ZM177.617 146.522H161.719V145.272H177.617V146.522ZM165.41 142.304H163.887V137.05H165.41V142.304ZM175.879 153.339H163.789V152.069H175.879V153.339ZM165.312 152.44H163.789V148.3H165.312V152.44ZM45.2637 169.272H43.1055V160.269H45.2637V169.272ZM45.2832 174.673H35.7324V176.704H33.6133V173.052H43.1152V171.772H33.5742V170.083H45.2832V174.673ZM45.8105 177.769H33.6133V176.04H45.8105V177.769ZM36.748 162.046C36.7415 163.159 36.5397 164.198 36.1426 165.161C35.7454 166.118 35.166 166.955 34.4043 167.671C33.6426 168.387 32.7279 168.914 31.6602 169.253L30.5664 167.544C31.4974 167.251 32.2917 166.825 32.9492 166.265C33.6068 165.698 34.1016 165.054 34.4336 164.331C34.7656 163.602 34.9316 162.84 34.9316 162.046V160.708H36.748V162.046ZM37.1777 162.046C37.1712 162.814 37.3307 163.543 37.6562 164.233C37.9883 164.924 38.4733 165.532 39.1113 166.06C39.7559 166.58 40.5371 166.978 41.4551 167.251L40.3906 168.931C39.3229 168.605 38.4115 168.104 37.6562 167.427C36.9076 166.75 36.3379 165.952 35.9473 165.034C35.5566 164.116 35.3613 163.12 35.3613 162.046V160.708H37.1777V162.046ZM63.0566 177.905H61.0059V160.269H63.0566V177.905ZM58.0273 168.179H54.8926V166.431H58.0273V168.179ZM59.4629 177.065H57.4316V160.61H59.4629V177.065ZM52.8906 165.103C52.8841 166.444 52.7311 167.726 52.4316 168.95C52.1322 170.168 51.6829 171.265 51.084 172.241C50.4915 173.218 49.7591 173.976 48.8867 174.517L47.5488 172.915C48.3691 172.414 49.056 171.75 49.6094 170.923C50.1693 170.096 50.5794 169.188 50.8398 168.198C51.1003 167.202 51.2305 166.17 51.2305 165.103V163.101H52.8906V165.103ZM53.3203 165.103C53.3203 166.138 53.4473 167.127 53.7012 168.071C53.9616 169.015 54.3587 169.875 54.8926 170.649C55.4264 171.424 56.1003 172.046 56.9141 172.515L55.6348 174.106C54.7493 173.586 54.0137 172.866 53.4277 171.948C52.8483 171.024 52.4154 169.982 52.1289 168.823C51.849 167.658 51.709 166.418 51.709 165.103V163.101H53.3203V165.103ZM56.1816 163.921H48.1641V162.163H56.1816V163.921ZM81.2988 175.874H65.166V174.087H81.2988V175.874ZM74.2578 174.849H72.1191V170.601H74.2578V174.849ZM79.375 167.144H69.2383V170.347H67.0703V165.435H77.2363V163.228H67.041V161.47H79.375V167.144ZM79.7949 171.196H67.0703V169.429H79.7949V171.196ZM101.035 177.896H98.8672V160.269H101.035V177.896ZM103.652 168.97H100.479V167.173H103.652V168.97ZM96.377 162.114C96.3704 163.911 96.1003 165.584 95.5664 167.134C95.0326 168.677 94.1699 170.096 92.9785 171.392C91.7871 172.687 90.2441 173.804 88.3496 174.741L87.1289 173.062C88.7174 172.261 90.0391 171.343 91.0938 170.308C92.1484 169.266 92.9362 168.101 93.457 166.812C93.9779 165.516 94.2383 164.077 94.2383 162.495V162.114H96.377ZM95.3418 163.901H88.0469V162.114H95.3418V163.901ZM110.352 162.876C110.352 164.048 110.166 165.138 109.795 166.147C109.424 167.157 108.87 168.035 108.135 168.784C107.399 169.526 106.51 170.083 105.469 170.454L104.297 168.745C105.221 168.426 106.003 167.967 106.641 167.368C107.285 166.769 107.767 166.089 108.086 165.327C108.411 164.559 108.574 163.742 108.574 162.876V161.196H110.352V162.876ZM110.742 163.081C110.742 163.836 110.902 164.556 111.221 165.239C111.546 165.916 112.018 166.522 112.637 167.056C113.262 167.583 114.014 167.987 114.893 168.267L113.73 169.956C112.728 169.618 111.872 169.11 111.162 168.433C110.452 167.749 109.912 166.951 109.541 166.04C109.17 165.122 108.984 164.136 108.984 163.081V161.196H110.742V163.081ZM118.418 170.825H116.25V160.269H118.418V170.825ZM120.889 166.362H117.803V164.556H120.889V166.362ZM112.676 171.216C113.887 171.216 114.935 171.346 115.82 171.606C116.712 171.867 117.396 172.248 117.871 172.749C118.346 173.25 118.584 173.849 118.584 174.546C118.584 175.249 118.346 175.851 117.871 176.353C117.396 176.854 116.712 177.235 115.82 177.495C114.935 177.762 113.887 177.896 112.676 177.896C111.445 177.896 110.381 177.762 109.482 177.495C108.59 177.235 107.9 176.854 107.412 176.353C106.93 175.851 106.689 175.249 106.689 174.546C106.689 173.849 106.93 173.25 107.412 172.749C107.9 172.248 108.594 171.867 109.492 171.606C110.391 171.346 111.452 171.216 112.676 171.216ZM112.676 172.925C111.868 172.925 111.182 172.99 110.615 173.12C110.049 173.244 109.616 173.426 109.316 173.667C109.017 173.908 108.87 174.201 108.877 174.546C108.87 174.904 109.014 175.207 109.307 175.454C109.606 175.695 110.039 175.881 110.605 176.011C111.172 176.134 111.862 176.196 112.676 176.196C113.483 176.196 114.17 176.134 114.736 176.011C115.303 175.881 115.729 175.695 116.016 175.454C116.302 175.207 116.445 174.904 116.445 174.546C116.445 174.201 116.299 173.908 116.006 173.667C115.719 173.42 115.293 173.234 114.727 173.11C114.16 172.987 113.477 172.925 112.676 172.925ZM139.883 162.817H128.535V161.079H139.883V162.817ZM142.686 168.97H126.553V167.231H142.686V168.97ZM135.664 172.329H133.496V168.433H135.664V172.329ZM140.703 162.427C140.703 163.462 140.671 164.399 140.605 165.239C140.547 166.073 140.394 167.02 140.146 168.081L137.998 167.837C138.161 167.14 138.281 166.486 138.359 165.874C138.438 165.262 138.486 164.718 138.506 164.243C138.525 163.768 138.535 163.208 138.535 162.563V162.427V161.079H140.703V162.427ZM140.752 177.905H138.574V173.462H128.174V171.733H140.752V177.905ZM150.742 173.823H148.574V170.942H150.742V173.823ZM158.525 177.905H156.377V160.269H158.525V177.905ZM144.629 173.022C146.823 173.009 148.766 172.97 150.459 172.905C152.152 172.84 153.779 172.703 155.342 172.495L155.488 174.116C153.763 174.409 151.982 174.601 150.146 174.692C148.317 174.777 146.338 174.819 144.209 174.819L143.906 173.022H144.629ZM155.02 164.028H144.277V162.31H155.02V164.028ZM149.639 164.829C150.498 164.829 151.26 164.966 151.924 165.239C152.588 165.513 153.102 165.9 153.467 166.401C153.831 166.903 154.014 167.479 154.014 168.13C154.014 168.781 153.831 169.354 153.467 169.849C153.102 170.343 152.585 170.728 151.914 171.001C151.25 171.274 150.492 171.411 149.639 171.411C148.786 171.411 148.031 171.274 147.373 171.001C146.722 170.728 146.211 170.343 145.84 169.849C145.475 169.354 145.296 168.781 145.303 168.13C145.296 167.479 145.475 166.903 145.84 166.401C146.211 165.9 146.722 165.513 147.373 165.239C148.031 164.966 148.786 164.829 149.639 164.829ZM149.639 166.489C149.189 166.489 148.792 166.554 148.447 166.685C148.109 166.815 147.842 167.007 147.646 167.261C147.451 167.508 147.354 167.798 147.354 168.13C147.354 168.468 147.448 168.758 147.637 168.999C147.832 169.24 148.102 169.425 148.447 169.556C148.792 169.686 149.189 169.748 149.639 169.741C150.094 169.748 150.495 169.686 150.84 169.556C151.191 169.425 151.462 169.24 151.65 168.999C151.839 168.758 151.934 168.468 151.934 168.13C151.934 167.798 151.839 167.508 151.65 167.261C151.462 167.007 151.191 166.815 150.84 166.685C150.495 166.554 150.094 166.489 149.639 166.489ZM150.752 163.276H148.574V160.327H150.752V163.276ZM171.367 168.667H168.262V166.919H171.367V168.667ZM176.348 177.905H174.258V160.269H176.348V177.905ZM172.715 177.075H170.654V160.571H172.715V177.075ZM165.107 161.606C165.882 161.606 166.559 161.864 167.139 162.378C167.725 162.886 168.177 163.615 168.496 164.565C168.815 165.516 168.975 166.629 168.975 167.905C168.975 169.188 168.815 170.304 168.496 171.255C168.177 172.205 167.725 172.938 167.139 173.452C166.559 173.966 165.882 174.224 165.107 174.224C164.339 174.224 163.669 173.966 163.096 173.452C162.529 172.938 162.083 172.205 161.758 171.255C161.439 170.304 161.279 169.188 161.279 167.905C161.279 166.629 161.439 165.516 161.758 164.565C162.083 163.615 162.529 162.886 163.096 162.378C163.669 161.864 164.339 161.606 165.107 161.606ZM165.107 163.657C164.73 163.657 164.404 163.82 164.131 164.146C163.857 164.465 163.649 164.943 163.506 165.581C163.363 166.219 163.294 166.994 163.301 167.905C163.294 168.817 163.363 169.588 163.506 170.22C163.649 170.851 163.857 171.33 164.131 171.655C164.404 171.981 164.73 172.144 165.107 172.144C165.492 172.144 165.824 171.981 166.104 171.655C166.383 171.33 166.595 170.851 166.738 170.22C166.888 169.588 166.963 168.817 166.963 167.905C166.963 166.994 166.888 166.219 166.738 165.581C166.595 164.943 166.383 164.465 166.104 164.146C165.824 163.82 165.492 163.657 165.107 163.657ZM43.8574 188.409H38.5645V186.671H43.8574V188.409ZM43.8574 192.403H38.5645V190.655H43.8574V192.403ZM35.4883 185.265C36.3542 185.265 37.1387 185.447 37.8418 185.812C38.5514 186.17 39.1048 186.674 39.502 187.325C39.9056 187.976 40.1107 188.712 40.1172 189.532C40.1107 190.353 39.9056 191.085 39.502 191.729C39.1048 192.374 38.5514 192.882 37.8418 193.253C37.1387 193.618 36.3542 193.8 35.4883 193.8C34.6094 193.8 33.8151 193.618 33.1055 193.253C32.3958 192.882 31.8392 192.374 31.4355 191.729C31.0319 191.085 30.8301 190.353 30.8301 189.532C30.8301 188.712 31.0319 187.976 31.4355 187.325C31.8392 186.674 32.3958 186.17 33.1055 185.812C33.8151 185.447 34.6094 185.265 35.4883 185.265ZM35.4883 187.13C34.9805 187.123 34.5312 187.218 34.1406 187.413C33.75 187.608 33.444 187.892 33.2227 188.263C33.0013 188.627 32.8906 189.05 32.8906 189.532C32.8906 190.014 33.0013 190.437 33.2227 190.802C33.444 191.166 33.75 191.453 34.1406 191.661C34.5312 191.863 34.9805 191.964 35.4883 191.964C35.9766 191.964 36.4128 191.863 36.7969 191.661C37.1875 191.453 37.4902 191.166 37.7051 190.802C37.9264 190.431 38.0371 190.007 38.0371 189.532C38.0371 189.05 37.9264 188.627 37.7051 188.263C37.4902 187.892 37.1875 187.608 36.7969 187.413C36.4128 187.218 35.9766 187.123 35.4883 187.13ZM45.3711 194.649H43.2031V184.269H45.3711V194.649ZM39.4043 195.03C40.6348 195.03 41.7025 195.167 42.6074 195.44C43.5124 195.707 44.209 196.098 44.6973 196.612C45.1855 197.127 45.4297 197.742 45.4297 198.458C45.4297 199.174 45.1855 199.789 44.6973 200.304C44.209 200.825 43.5124 201.218 42.6074 201.485C41.7025 201.759 40.6348 201.896 39.4043 201.896C38.1738 201.896 37.1061 201.759 36.2012 201.485C35.2962 201.218 34.5996 200.825 34.1113 200.304C33.6296 199.789 33.3887 199.174 33.3887 198.458C33.3887 197.742 33.6296 197.127 34.1113 196.612C34.5996 196.098 35.2962 195.707 36.2012 195.44C37.1061 195.167 38.1738 195.03 39.4043 195.03ZM39.4043 196.69C38.5775 196.69 37.8743 196.759 37.2949 196.896C36.7155 197.032 36.2728 197.234 35.9668 197.501C35.6673 197.761 35.5176 198.08 35.5176 198.458C35.5176 198.829 35.6706 199.145 35.9766 199.405C36.2826 199.666 36.722 199.864 37.2949 200.001C37.8743 200.131 38.5775 200.196 39.4043 200.196C40.2311 200.196 40.9342 200.131 41.5137 200.001C42.0996 199.864 42.5423 199.666 42.8418 199.405C43.1478 199.145 43.3008 198.829 43.3008 198.458C43.3008 198.08 43.1478 197.761 42.8418 197.501C42.5423 197.234 42.0996 197.032 41.5137 196.896C40.9342 196.759 40.2311 196.69 39.4043 196.69ZM64.1992 188.79H61.1328V187.013H64.1992V188.79ZM64.1992 192.579H61.1328V190.802H64.1992V192.579ZM61.7969 195.538H59.6289V184.269H61.7969V195.538ZM56.0938 195.685C57.2982 195.685 58.3431 195.808 59.2285 196.056C60.1139 196.303 60.7943 196.661 61.2695 197.13C61.7513 197.599 61.9922 198.155 61.9922 198.8C61.9922 199.444 61.7513 199.994 61.2695 200.45C60.7943 200.912 60.1107 201.267 59.2188 201.515C58.3333 201.769 57.2917 201.896 56.0938 201.896C54.8763 201.896 53.8249 201.769 52.9395 201.515C52.054 201.267 51.3737 200.912 50.8984 200.45C50.4232 199.994 50.1888 199.444 50.1953 198.8C50.1888 198.155 50.4232 197.599 50.8984 197.13C51.3737 196.661 52.054 196.303 52.9395 196.056C53.8249 195.808 54.8763 195.685 56.0938 195.685ZM56.0938 197.354C55.2799 197.354 54.5964 197.407 54.043 197.511C53.4896 197.615 53.0664 197.778 52.7734 197.999C52.4805 198.214 52.3372 198.481 52.3438 198.8C52.3372 199.112 52.4805 199.376 52.7734 199.591C53.0664 199.806 53.4928 199.972 54.0527 200.089C54.6126 200.206 55.293 200.265 56.0938 200.265C56.888 200.265 57.5618 200.206 58.1152 200.089C58.6751 199.972 59.0983 199.806 59.3848 199.591C59.6712 199.376 59.8145 199.112 59.8145 198.8C59.8145 198.481 59.6712 198.214 59.3848 197.999C59.0983 197.778 58.6784 197.615 58.125 197.511C57.5716 197.407 56.8945 197.354 56.0938 197.354ZM58.3594 187.774H47.8809V186.075H58.3594V187.774ZM53.125 188.468C53.9714 188.468 54.7201 188.601 55.3711 188.868C56.0221 189.129 56.5267 189.5 56.8848 189.981C57.2493 190.457 57.4349 191.004 57.4414 191.622C57.4349 192.247 57.2493 192.797 56.8848 193.272C56.5267 193.748 56.0221 194.119 55.3711 194.386C54.7201 194.646 53.9714 194.776 53.125 194.776C52.2721 194.776 51.5169 194.646 50.8594 194.386C50.2083 194.119 49.7005 193.748 49.3359 193.272C48.9779 192.797 48.7988 192.247 48.7988 191.622C48.7988 191.004 48.9779 190.457 49.3359 189.981C49.7005 189.5 50.2083 189.129 50.8594 188.868C51.5169 188.601 52.2721 188.468 53.125 188.468ZM53.125 190.069C52.6823 190.069 52.2917 190.131 51.9531 190.255C51.6146 190.379 51.3542 190.558 51.1719 190.792C50.9896 191.026 50.8984 191.303 50.8984 191.622C50.8984 191.941 50.9896 192.215 51.1719 192.442C51.3542 192.67 51.6146 192.846 51.9531 192.97C52.2917 193.087 52.6823 193.142 53.125 193.136C53.5677 193.142 53.9583 193.087 54.2969 192.97C54.6419 192.846 54.9089 192.67 55.0977 192.442C55.2865 192.215 55.3809 191.941 55.3809 191.622C55.3809 191.303 55.2865 191.026 55.0977 190.792C54.9089 190.558 54.6452 190.379 54.3066 190.255C53.9681 190.131 53.5742 190.069 53.125 190.069ZM54.2188 187.013H52.041V184.161H54.2188V187.013ZM73.2031 184.552C74.5312 184.552 75.6706 184.666 76.6211 184.894C77.5781 185.121 78.304 185.463 78.7988 185.919C79.2936 186.368 79.541 186.915 79.541 187.56C79.541 188.217 79.2936 188.774 78.7988 189.229C78.304 189.685 77.5814 190.03 76.6309 190.265C75.6803 190.493 74.5378 190.61 73.2031 190.616C71.8555 190.61 70.7064 190.493 69.7559 190.265C68.8053 190.03 68.0794 189.685 67.5781 189.229C67.0768 188.774 66.8262 188.217 66.8262 187.56C66.8262 186.915 67.0768 186.368 67.5781 185.919C68.0794 185.463 68.8053 185.121 69.7559 184.894C70.7129 184.666 71.862 184.552 73.2031 184.552ZM73.2031 186.144C72.2982 186.144 71.5397 186.199 70.9277 186.31C70.3223 186.42 69.8633 186.583 69.5508 186.798C69.2448 187.006 69.0951 187.26 69.1016 187.56C69.0951 187.885 69.2448 188.155 69.5508 188.37C69.8633 188.578 70.3158 188.735 70.9082 188.839C71.5072 188.943 72.2721 188.995 73.2031 188.995C74.1276 188.995 74.8893 188.943 75.4883 188.839C76.0938 188.735 76.5495 188.578 76.8555 188.37C77.1615 188.155 77.3145 187.885 77.3145 187.56C77.3145 187.26 77.1615 187.006 76.8555 186.798C76.5495 186.583 76.0872 186.42 75.4688 186.31C74.8568 186.199 74.1016 186.144 73.2031 186.144ZM81.2402 193.302H65.166V191.563H81.2402V193.302ZM79.248 198.8H69.209V200.567H67.0605V197.267H77.0996V196.085H67.0508V194.483H79.248V198.8ZM79.7266 201.769H67.0605V200.108H79.7266V201.769ZM96.543 197.638H88.1445V185.929H96.543V197.638ZM90.293 195.909H94.4238V187.628H90.293V195.909ZM101.895 201.954H99.6973V184.269H101.895V201.954ZM119.189 197.237H117.012V184.288H119.189V197.237ZM119.688 201.593H107.51V199.815H119.688V201.593ZM109.697 200.821H107.51V196.075H109.697V200.821ZM110.811 188.39C110.804 189.451 110.605 190.447 110.215 191.378C109.831 192.302 109.258 193.103 108.496 193.78C107.741 194.457 106.833 194.959 105.771 195.284L104.707 193.585C105.632 193.305 106.419 192.901 107.07 192.374C107.721 191.847 108.21 191.241 108.535 190.558C108.861 189.868 109.023 189.145 109.023 188.39V187.706H110.811V188.39ZM111.201 188.39C111.195 189.099 111.357 189.776 111.689 190.421C112.028 191.059 112.523 191.629 113.174 192.13C113.831 192.631 114.616 193.009 115.527 193.263L114.482 194.972C113.408 194.659 112.49 194.181 111.729 193.536C110.973 192.892 110.4 192.13 110.01 191.251C109.619 190.366 109.427 189.412 109.434 188.39V187.706H111.201V188.39ZM114.951 188.146H105.264V186.446H114.951V188.146ZM111.221 187.198H109.023V184.366H111.221V187.198ZM135.703 193.702H133.535V184.269H135.703V193.702ZM138.174 189.991H135.088V188.194H138.174V189.991ZM123.955 191.456C125.96 191.456 127.52 191.42 128.633 191.349C129.753 191.277 130.85 191.127 131.924 190.899L132.168 192.647C131.055 192.875 129.912 193.028 128.74 193.106C127.575 193.185 125.98 193.227 123.955 193.233H122.51V191.456H123.955ZM130.361 187.12H124.678V192.647H122.51V185.372H130.361V187.12ZM126.416 196.417H133.535V194.581H135.703V201.671H124.258V194.581H126.416V196.417ZM133.535 199.923V198.126H126.416V199.923H133.535ZM153.799 201.905H151.641V184.269H153.799V201.905ZM142.227 196.915H140.078V185.978H142.227V196.915ZM141.592 195.646C143.011 195.639 144.424 195.574 145.83 195.45C147.236 195.326 148.643 195.125 150.049 194.845L150.332 196.651C148.854 196.957 147.396 197.175 145.957 197.306C144.525 197.436 143.07 197.498 141.592 197.491H140.078V195.646H141.592ZM170.176 201.954H168.008V184.269H170.176V201.954ZM172.9 192.755H169.688V190.968H172.9V192.755ZM158.525 195.821C160.166 195.821 161.605 195.782 162.842 195.704C164.079 195.619 165.329 195.463 166.592 195.235L166.836 197.071C165.547 197.299 164.277 197.449 163.027 197.521C161.777 197.592 160.277 197.625 158.525 197.618H157.07V195.821H158.525ZM165.332 187.706H159.238V196.7H157.07V185.938H165.332V187.706ZM175.781 200.343C175.501 200.343 175.244 200.274 175.01 200.138C174.782 200.001 174.6 199.815 174.463 199.581C174.326 199.347 174.261 199.093 174.268 198.819C174.261 198.552 174.326 198.305 174.463 198.077C174.6 197.843 174.782 197.66 175.01 197.53C175.244 197.394 175.501 197.325 175.781 197.325C176.048 197.325 176.296 197.394 176.523 197.53C176.758 197.66 176.943 197.843 177.08 198.077C177.217 198.305 177.285 198.552 177.285 198.819C177.285 199.093 177.217 199.347 177.08 199.581C176.943 199.815 176.758 200.001 176.523 200.138C176.296 200.274 176.048 200.343 175.781 200.343Z" fill="#464646"/>
<defs>
<filter id="filter0_bd_626_1231" x="-76" y="-80" width="366" height="730" filterUnits="userSpaceOnUse" color-interpolation-filters="sRGB">
<feFlood flood-opacity="0" result="BackgroundImageFix"/>
<feGaussianBlur in="BackgroundImageFix" stdDeviation="40"/>
<feComposite in2="SourceAlpha" operator="in" result="effect1_backgroundBlur_626_1231"/>
<feColorMatrix in="SourceAlpha" type="matrix" values="0 0 0 0 0 0 0 0 0 0 0 0 0 0 0 0 0 0 127 0" result="hardAlpha"/>
<feOffset dy="3.6"/>
<feGaussianBlur stdDeviation="1.8"/>
<feComposite in2="hardAlpha" operator="out"/>
<feColorMatrix type="matrix" values="0 0 0 0 0 0 0 0 0 0 0 0 0 0 0 0 0 0 0.25 0"/>
<feBlend mode="normal" in2="effect1_backgroundBlur_626_1231" result="effect2_dropShadow_626_1231"/>
<feBlend mode="normal" in="SourceGraphic" in2="effect2_dropShadow_626_1231" result="shape"/>
</filter>
<linearGradient id="paint0_linear_626_1231" x1="107" y1="-42.3775" x2="107" y2="570" gradientUnits="userSpaceOnUse">
<stop stop-color="#D8F5DD"/>
<stop offset="1" stop-color="#D8F5DD" stop-opacity="0"/>
</linearGradient>
</defs>
</svg>