<svg xmlns="http://www.w3.org/2000/svg" width="214" height="578" viewBox="0 0 214 578" fill="none">
<g filter="url(#filter0_bd_626_1176)">
<rect x="4" width="206" height="570" rx="103" fill="url(#paint0_linear_626_1176)" shape-rendering="crispEdges"/>
</g>
<path d="M82.9688 74.3354H63.75V72.5073H82.9688V74.3354ZM74.4258 80.8628H72.2344V73.0698H74.4258V80.8628ZM80.8477 70.5503H66.2695V68.7573H80.8477V70.5503ZM80.6133 62.5933H68.4727V69.2378H66.2695V60.812H80.6133V62.5933ZM80.1328 66.4956H67.8398V64.7495H80.1328V66.4956ZM91.9102 77.1714H89.6719V71.2417H91.9102V77.1714ZM98.4492 77.1831H96.2344V71.2534H98.4492V77.1831ZM103.734 78.3784H84.5156V76.562H103.734V78.3784ZM101.977 63.5425H86.1445V61.7261H101.977V63.5425ZM101.918 71.8979H86.2148V70.0815H101.918V71.8979ZM91.5469 70.4214H89.332V63.2026H91.5469V70.4214ZM98.7773 70.4214H96.5859V63.2026H98.7773V70.4214ZM118.488 64.2573C118.488 65.5386 118.246 66.7417 117.762 67.8667C117.285 68.9917 116.594 69.9761 115.688 70.8198C114.781 71.6558 113.723 72.2886 112.512 72.7183L111.352 70.9604C112.422 70.6011 113.355 70.0776 114.152 69.3901C114.957 68.7026 115.57 67.9175 115.992 67.0347C116.422 66.144 116.637 65.2183 116.637 64.2573V62.1831H118.488V64.2573ZM118.887 64.2573C118.887 65.1636 119.102 66.0347 119.531 66.8706C119.961 67.7065 120.57 68.4448 121.359 69.0854C122.156 69.7261 123.086 70.2104 124.148 70.5386L123.012 72.3081C121.809 71.9019 120.758 71.3042 119.859 70.5151C118.969 69.7183 118.277 68.7847 117.785 67.7144C117.301 66.6362 117.059 65.4839 117.059 64.2573V62.1831H118.887V64.2573ZM123.527 63.3433H111.926V61.5503H123.527V63.3433ZM128.531 75.2144H126.316V59.8862H128.531V75.2144ZM129.164 80.4526H114.809V78.6128H129.164V80.4526ZM117.035 79.4683H114.809V73.7729H117.035V79.4683ZM149.766 73.1167H147.645V59.8628H149.766V73.1167ZM148.242 67.2573H144.387V65.4292H148.242V67.2573ZM145.219 72.3901H143.133V60.2729H145.219V72.3901ZM142.359 64.0229H131.742V62.2651H142.359V64.0229ZM137.074 65.019C137.957 65.019 138.742 65.1675 139.43 65.4644C140.125 65.7534 140.664 66.1753 141.047 66.73C141.43 67.2769 141.621 67.9136 141.621 68.6401C141.621 69.3433 141.43 69.9683 141.047 70.5151C140.664 71.0542 140.125 71.4761 139.43 71.7808C138.742 72.0776 137.957 72.2261 137.074 72.2261C136.207 72.2261 135.43 72.0776 134.742 71.7808C134.062 71.4761 133.531 71.0542 133.148 70.5151C132.766 69.9683 132.574 69.3433 132.574 68.6401C132.574 67.9136 132.766 67.2769 133.148 66.73C133.531 66.1753 134.062 65.7534 134.742 65.4644C135.43 65.1675 136.207 65.019 137.074 65.019ZM137.074 66.6362C136.582 66.6362 136.145 66.7183 135.762 66.8823C135.387 67.0386 135.09 67.269 134.871 67.5737C134.66 67.8784 134.555 68.2339 134.555 68.6401C134.555 69.0229 134.66 69.3628 134.871 69.6597C135.09 69.9565 135.387 70.187 135.762 70.3511C136.145 70.5151 136.582 70.5972 137.074 70.5972C137.574 70.5972 138.016 70.5151 138.398 70.3511C138.781 70.187 139.078 69.9565 139.289 69.6597C139.5 69.3628 139.605 69.0229 139.605 68.6401C139.605 68.2339 139.5 67.8784 139.289 67.5737C139.078 67.269 138.781 67.0386 138.398 66.8823C138.016 66.7183 137.574 66.6362 137.074 66.6362ZM138.176 63.3667H135.961V60.0386H138.176V63.3667ZM142.746 73.4214C144.23 73.4214 145.508 73.5659 146.578 73.855C147.648 74.144 148.465 74.5698 149.027 75.1323C149.598 75.6948 149.883 76.3706 149.883 77.1597C149.883 77.9331 149.598 78.5933 149.027 79.1401C148.465 79.6948 147.645 80.1167 146.566 80.4058C145.496 80.6948 144.223 80.8394 142.746 80.8394C141.262 80.8394 139.984 80.6948 138.914 80.4058C137.844 80.1167 137.027 79.6948 136.465 79.1401C135.902 78.5933 135.621 77.9331 135.621 77.1597C135.621 76.3706 135.902 75.6948 136.465 75.1323C137.027 74.5698 137.844 74.144 138.914 73.855C139.984 73.5659 141.262 73.4214 142.746 73.4214ZM142.746 75.144C141.699 75.1362 140.809 75.2065 140.074 75.355C139.348 75.5034 138.793 75.7339 138.41 76.0464C138.027 76.3511 137.84 76.7222 137.848 77.1597C137.84 77.5737 138.027 77.9292 138.41 78.2261C138.793 78.5151 139.352 78.7378 140.086 78.894C140.82 79.0503 141.707 79.1284 142.746 79.1284C143.777 79.1284 144.66 79.0503 145.395 78.894C146.137 78.7378 146.695 78.5151 147.07 78.2261C147.453 77.9292 147.648 77.5737 147.656 77.1597C147.648 76.7144 147.453 76.3394 147.07 76.0347C146.695 75.73 146.141 75.5034 145.406 75.355C144.672 75.2065 143.785 75.1362 142.746 75.144Z" fill="#0E0E0E"/>
<defs>
<filter id="filter0_bd_626_1176" x="-76" y="-80" width="366" height="730" filterUnits="userSpaceOnUse" color-interpolation-filters="sRGB">
<feFlood flood-opacity="0" result="BackgroundImageFix"/>
<feGaussianBlur in="BackgroundImageFix" stdDeviation="40"/>
<feComposite in2="SourceAlpha" operator="in" result="effect1_backgroundBlur_626_1176"/>
<feColorMatrix in="SourceAlpha" type="matrix" values="0 0 0 0 0 0 0 0 0 0 0 0 0 0 0 0 0 0 127 0" result="hardAlpha"/>
<feOffset dy="3.6"/>
<feGaussianBlur stdDeviation="1.8"/>
<feComposite in2="hardAlpha" operator="out"/>
<feColorMatrix type="matrix" values="0 0 0 0 0 0 0 0 0 0 0 0 0 0 0 0 0 0 0.25 0"/>
<feBlend mode="normal" in2="effect1_backgroundBlur_626_1176" result="effect2_dropShadow_626_1176"/>
<feBlend mode="normal" in="SourceGraphic" in2="effect2_dropShadow_626_1176" result="shape"/>
</filter>
<linearGradient id="paint0_linear_626_1176" x1="107" y1="0" x2="107" y2="570" gradientUnits="userSpaceOnUse">
<stop offset="0.06" stop-color="#F6F6F6" stop-opacity="0.9"/>
<stop offset="1" stop-color="#F6F6F6" stop-opacity="0"/>
</linearGradient>
</defs>
</svg>